G04*
G04 #@! TF.GenerationSoftware,Altium Limited,Altium Designer,24.9.1 (31)*
G04*
G04 Layer_Physical_Order=2*
G04 Layer_Color=32768*
%FSLAX44Y44*%
%MOMM*%
G71*
G04*
G04 #@! TF.SameCoordinates,CDEC626A-A255-468D-B0CC-3EE591A55D7D*
G04*
G04*
G04 #@! TF.FilePolarity,Negative*
G04*
G01*
G75*
%ADD213C,1.0160*%
%ADD214C,1.3800*%
%ADD215C,1.1700*%
G04:AMPARAMS|DCode=216|XSize=1.2964mm|YSize=1.2964mm|CornerRadius=0mm|HoleSize=0mm|Usage=FLASHONLY|Rotation=0.000|XOffset=0mm|YOffset=0mm|HoleType=Round|Shape=Relief|Width=0.127mm|Gap=0.0762mm|Entries=4|*
%AMTHD216*
7,0,0,1.2964,1.1440,0.1270,45*
%
%ADD216THD216*%
%ADD217C,2.1300*%
%ADD218C,1.2800*%
G04:AMPARAMS|DCode=219|XSize=1.4064mm|YSize=1.4064mm|CornerRadius=0mm|HoleSize=0mm|Usage=FLASHONLY|Rotation=0.000|XOffset=0mm|YOffset=0mm|HoleType=Round|Shape=Relief|Width=0.127mm|Gap=0.0762mm|Entries=4|*
%AMTHD219*
7,0,0,1.4064,1.2540,0.1270,45*
%
%ADD219THD219*%
%ADD220C,2.5300*%
%ADD221C,1.1800*%
%ADD222C,1.4800*%
%ADD223C,3.5800*%
%ADD224C,0.5800*%
%ADD225C,0.5300*%
G04:AMPARAMS|DCode=226|XSize=0.7064mm|YSize=0.7064mm|CornerRadius=0mm|HoleSize=0mm|Usage=FLASHONLY|Rotation=0.000|XOffset=0mm|YOffset=0mm|HoleType=Round|Shape=Relief|Width=0.127mm|Gap=0.0762mm|Entries=4|*
%AMTHD226*
7,0,0,0.7064,0.5540,0.1270,45*
%
%ADD226THD226*%
G04:AMPARAMS|DCode=227|XSize=0.6564mm|YSize=0.6564mm|CornerRadius=0mm|HoleSize=0mm|Usage=FLASHONLY|Rotation=0.000|XOffset=0mm|YOffset=0mm|HoleType=Round|Shape=Relief|Width=0.127mm|Gap=0.0762mm|Entries=4|*
%AMTHD227*
7,0,0,0.6564,0.5040,0.1270,45*
%
%ADD227THD227*%
D213*
X665000Y-775000D02*
G03*
X670000Y-770000I0J5000D01*
G01*
X670000Y770000D02*
G03*
X665000Y775000I-5000J-0D01*
G01*
X-450000Y-770000D02*
G03*
X-445000Y-775000I5000J-0D01*
G01*
X-445000Y775000D02*
G03*
X-450000Y770000I-0J-5000D01*
G01*
X-445000Y-775000D02*
X665000Y-775000D01*
X670000Y770000D02*
X670000Y-770000D01*
X-445000Y775000D02*
X665000Y775000D01*
X-450000Y770000D02*
X-450000Y-770000D01*
D214*
X233810Y-210900D02*
D03*
X213490D02*
D03*
X223650Y-287100D02*
D03*
D215*
X-168000Y198000D02*
D03*
Y178000D02*
D03*
Y158000D02*
D03*
Y138000D02*
D03*
Y118000D02*
D03*
Y98000D02*
D03*
Y58000D02*
D03*
Y38000D02*
D03*
Y18000D02*
D03*
Y-2000D02*
D03*
Y-22000D02*
D03*
X-148000Y118000D02*
D03*
Y98000D02*
D03*
Y78000D02*
D03*
Y58000D02*
D03*
Y38000D02*
D03*
Y18000D02*
D03*
Y-2000D02*
D03*
Y-22000D02*
D03*
D216*
X-168000Y78000D02*
D03*
X-148000Y198000D02*
D03*
Y178000D02*
D03*
Y158000D02*
D03*
Y138000D02*
D03*
D217*
X-128000Y357050D02*
D03*
Y224950D02*
D03*
D218*
X503000Y293000D02*
D03*
Y311000D02*
D03*
D219*
X501730Y263000D02*
D03*
X573000D02*
D03*
X643000D02*
D03*
X573000Y341000D02*
D03*
X503000D02*
D03*
X643000D02*
D03*
D220*
Y302000D02*
D03*
Y368000D02*
D03*
D221*
X-47000Y-105975D02*
D03*
D222*
Y105970D02*
D03*
D223*
X-400000Y375000D02*
D03*
Y-375000D02*
D03*
X480000Y-730000D02*
D03*
Y730000D02*
D03*
X-400000Y0D02*
D03*
X420000D02*
D03*
D224*
X-220000Y-230000D02*
D03*
X253000Y104000D02*
D03*
X245000Y-208000D02*
D03*
X28000Y-553000D02*
D03*
X218000Y-687000D02*
D03*
Y-662000D02*
D03*
X-179000Y-408000D02*
D03*
X151000Y-542000D02*
D03*
X421000Y-187000D02*
D03*
X174000Y-618000D02*
D03*
X372000Y-237000D02*
D03*
X390000Y126000D02*
D03*
X414000Y-135000D02*
D03*
X-66000Y209000D02*
D03*
X-62000Y241000D02*
D03*
X-72000Y362000D02*
D03*
X-73000Y386000D02*
D03*
X-162000Y-274000D02*
D03*
X-172000Y-279000D02*
D03*
X515000Y200000D02*
D03*
X257000Y92000D02*
D03*
X513000Y322000D02*
D03*
X405000Y438000D02*
D03*
X363335Y-34000D02*
D03*
X329000Y-154000D02*
D03*
X427000Y179000D02*
D03*
X379000Y-140000D02*
D03*
X385000Y14000D02*
D03*
Y32000D02*
D03*
X339000Y73000D02*
D03*
X261000Y75000D02*
D03*
X329000Y-242000D02*
D03*
X342000Y-184000D02*
D03*
X396000Y386000D02*
D03*
X471000D02*
D03*
X434000Y382000D02*
D03*
X362000Y380000D02*
D03*
X217300Y-261700D02*
D03*
X230000D02*
D03*
X217300Y-223600D02*
D03*
X230000Y-249000D02*
D03*
Y-236300D02*
D03*
Y-223600D02*
D03*
X163000Y-70000D02*
D03*
X176000Y-53000D02*
D03*
X168000Y-57000D02*
D03*
X179000Y-73000D02*
D03*
X178000Y23000D02*
D03*
X174000Y17000D02*
D03*
X182000D02*
D03*
X398000Y-287000D02*
D03*
X359000Y-327000D02*
D03*
X356000Y-320000D02*
D03*
X102000Y-245000D02*
D03*
X118000Y-152000D02*
D03*
X-3000Y-252000D02*
D03*
X352000Y-209000D02*
D03*
X174000Y-177000D02*
D03*
X257000Y-345000D02*
D03*
X96000Y-332000D02*
D03*
X240000Y-620000D02*
D03*
X360000Y-338000D02*
D03*
X106000Y-260000D02*
D03*
X103993Y-269007D02*
D03*
X326000Y15000D02*
D03*
X168000Y-17000D02*
D03*
X99000Y-307000D02*
D03*
X92000Y-309000D02*
D03*
X104000Y-364000D02*
D03*
Y-357000D02*
D03*
Y-350000D02*
D03*
Y-343000D02*
D03*
Y-336000D02*
D03*
X299000Y4000D02*
D03*
X307000D02*
D03*
X291000Y-283000D02*
D03*
X279000Y-276000D02*
D03*
X266000Y-277000D02*
D03*
X358000Y-147000D02*
D03*
X308000Y-145000D02*
D03*
X291250Y-146250D02*
D03*
X273000Y-147000D02*
D03*
X235000Y-86000D02*
D03*
X257000Y-84000D02*
D03*
X288000Y-86000D02*
D03*
X310000Y-84000D02*
D03*
X341000Y-86000D02*
D03*
X363000Y-84000D02*
D03*
X394000Y-86000D02*
D03*
X416000Y-84000D02*
D03*
X501000Y120000D02*
D03*
X500000Y109000D02*
D03*
X312000Y21000D02*
D03*
X503000Y130000D02*
D03*
X500000Y139000D02*
D03*
X314500Y27500D02*
D03*
X391000Y73000D02*
D03*
X373000Y68000D02*
D03*
X383000Y186000D02*
D03*
X344745Y52000D02*
D03*
X421000Y-352000D02*
D03*
X459000Y-365000D02*
D03*
X461000Y-387000D02*
D03*
X459000Y-313000D02*
D03*
X461000Y-335000D02*
D03*
X459000Y-261000D02*
D03*
X461000Y-283000D02*
D03*
X120000Y-267000D02*
D03*
X114000Y-273000D02*
D03*
Y-283000D02*
D03*
X120000Y-278000D02*
D03*
X217300Y-249000D02*
D03*
X396000Y95000D02*
D03*
X365000Y99000D02*
D03*
X315000Y98000D02*
D03*
Y86000D02*
D03*
X378000Y140000D02*
D03*
X483000Y173000D02*
D03*
X432000Y151000D02*
D03*
X365000Y108000D02*
D03*
X-73000Y437000D02*
D03*
X-8000Y262000D02*
D03*
X-18000Y337000D02*
D03*
X15000Y230000D02*
D03*
X29000Y323000D02*
D03*
X-30000Y277000D02*
D03*
X533000Y-366000D02*
D03*
X-262617Y-292383D02*
D03*
X-204000Y-31000D02*
D03*
X-7000Y-225000D02*
D03*
X14000Y-222000D02*
D03*
X161000Y-190000D02*
D03*
X-41362Y-225920D02*
D03*
X435000Y519000D02*
D03*
X455000Y530000D02*
D03*
X-82788Y-28788D02*
D03*
X-105000Y-207000D02*
D03*
X-387000Y-248000D02*
D03*
X-236000Y-243000D02*
D03*
X-243000D02*
D03*
Y-236000D02*
D03*
X-37000Y-444000D02*
D03*
X-211000Y-2000D02*
D03*
Y18000D02*
D03*
Y38000D02*
D03*
X-139000Y-432000D02*
D03*
X-141000Y-530000D02*
D03*
X-150000D02*
D03*
X88000Y-220000D02*
D03*
X58700Y-475995D02*
D03*
X184000Y-422000D02*
D03*
X57000Y-440000D02*
D03*
X-37000Y54000D02*
D03*
X-64000Y-10000D02*
D03*
X-64175Y-3175D02*
D03*
X45000Y-440000D02*
D03*
X449000Y-589000D02*
D03*
Y-608000D02*
D03*
X190000Y-442000D02*
D03*
X-51000Y-623000D02*
D03*
X-423000Y-314000D02*
D03*
X-415000Y-262000D02*
D03*
X194130Y-352365D02*
D03*
X89000Y-412000D02*
D03*
X100000Y-405000D02*
D03*
X107000Y-399000D02*
D03*
X97000Y-384000D02*
D03*
X107000D02*
D03*
X114000Y-387000D02*
D03*
Y-394000D02*
D03*
X176000Y123000D02*
D03*
X189000Y125000D02*
D03*
X195000Y109000D02*
D03*
X196825Y-186535D02*
D03*
X194825Y-159535D02*
D03*
X141000Y-200000D02*
D03*
X156000Y-181000D02*
D03*
X165000Y-180000D02*
D03*
X228825Y-160534D02*
D03*
X-28000Y120000D02*
D03*
X-21000Y128000D02*
D03*
X-289000Y-262000D02*
D03*
X12000Y194000D02*
D03*
X431000Y-511000D02*
D03*
X352000Y-543000D02*
D03*
X386000Y-529000D02*
D03*
X271000Y191000D02*
D03*
X-237000Y-278000D02*
D03*
X-254000Y-105000D02*
D03*
X-368000Y-280000D02*
D03*
X-396000D02*
D03*
X73000Y391000D02*
D03*
Y384000D02*
D03*
Y374000D02*
D03*
Y367000D02*
D03*
X52000Y378000D02*
D03*
X98000Y336000D02*
D03*
X184000Y329000D02*
D03*
X177000D02*
D03*
X13000Y175000D02*
D03*
X-217000Y-133000D02*
D03*
X6000Y-221000D02*
D03*
X36000Y-111000D02*
D03*
X14000D02*
D03*
X-75000Y-224000D02*
D03*
X154000Y-216000D02*
D03*
X149000Y-211000D02*
D03*
X143000Y-207000D02*
D03*
X-66000Y-243000D02*
D03*
X86000Y-195000D02*
D03*
X78500Y-194500D02*
D03*
X-111000Y-221000D02*
D03*
X284000Y242000D02*
D03*
X138000Y99000D02*
D03*
X-41447Y-242545D02*
D03*
X-83000Y-223000D02*
D03*
X-84000Y-230000D02*
D03*
X210000Y115000D02*
D03*
X270000Y166000D02*
D03*
X228000Y192000D02*
D03*
X203000Y130000D02*
D03*
X205000Y168000D02*
D03*
X281000Y204000D02*
D03*
X273000Y-357500D02*
D03*
X-24000Y463000D02*
D03*
X-83000Y512000D02*
D03*
X374000Y592000D02*
D03*
Y548000D02*
D03*
X102000Y515000D02*
D03*
X123820Y528000D02*
D03*
X442000Y-478000D02*
D03*
X-73000Y-449000D02*
D03*
X-337000Y-7000D02*
D03*
Y0D02*
D03*
Y7000D02*
D03*
Y14000D02*
D03*
Y21000D02*
D03*
Y28000D02*
D03*
Y35000D02*
D03*
Y42000D02*
D03*
X-64000D02*
D03*
X16000Y-628000D02*
D03*
X157000Y-556000D02*
D03*
X470000Y-393000D02*
D03*
X-273000Y-252000D02*
D03*
X-275000Y57000D02*
D03*
Y64000D02*
D03*
Y71000D02*
D03*
Y78000D02*
D03*
Y85000D02*
D03*
Y92000D02*
D03*
Y99000D02*
D03*
X-280273Y-259305D02*
D03*
X-274000Y-261000D02*
D03*
X115000Y-416000D02*
D03*
X-281000Y-242000D02*
D03*
X-274000D02*
D03*
X-206000Y-363000D02*
D03*
X-209000Y-353000D02*
D03*
X-164000Y-385000D02*
D03*
X-159000Y-390000D02*
D03*
X-165000Y-437000D02*
D03*
X-182000Y-393000D02*
D03*
X-189000D02*
D03*
X-196000D02*
D03*
X-203000D02*
D03*
X-180000Y-292000D02*
D03*
X-390000Y-215000D02*
D03*
X178000Y-243000D02*
D03*
X-212000Y-283000D02*
D03*
X274000Y-562000D02*
D03*
X166000Y-538000D02*
D03*
X306000Y-500000D02*
D03*
Y-572000D02*
D03*
X184000Y-432000D02*
D03*
X381000Y-570000D02*
D03*
Y-502000D02*
D03*
X306000Y-605000D02*
D03*
X129000Y-517000D02*
D03*
X306000Y-695000D02*
D03*
X120000Y-517000D02*
D03*
X381000Y-686000D02*
D03*
X111000Y-510000D02*
D03*
X381000Y-614000D02*
D03*
X102000Y-504000D02*
D03*
X-138000Y-226000D02*
D03*
Y-211000D02*
D03*
X-211000Y138000D02*
D03*
Y158000D02*
D03*
X-214000Y-344000D02*
D03*
X-211000Y178000D02*
D03*
Y198000D02*
D03*
X-221000Y-344000D02*
D03*
X108000Y-439000D02*
D03*
X-211000Y98000D02*
D03*
X-200000Y-373000D02*
D03*
X108000Y-446000D02*
D03*
X-211000Y118000D02*
D03*
X-205000Y-380000D02*
D03*
X106000Y-219000D02*
D03*
X-400000Y-208000D02*
D03*
X123000Y-367000D02*
D03*
X433000Y-668000D02*
D03*
X-278000Y-201000D02*
D03*
X221000Y146000D02*
D03*
X-78000Y-42000D02*
D03*
X-64000Y-47000D02*
D03*
X300965Y249023D02*
D03*
X301000Y261000D02*
D03*
X287000D02*
D03*
X274000D02*
D03*
X254000Y272000D02*
D03*
X281000Y197000D02*
D03*
X216000Y168000D02*
D03*
X-337000Y-55000D02*
D03*
Y-62000D02*
D03*
Y-69000D02*
D03*
Y-76000D02*
D03*
Y-83000D02*
D03*
Y-90000D02*
D03*
X251000Y194000D02*
D03*
X154000Y270000D02*
D03*
X145000Y246000D02*
D03*
X378000Y-407000D02*
D03*
X-7000Y-625000D02*
D03*
X0Y-444000D02*
D03*
X-7000Y-440000D02*
D03*
X-13000Y-444000D02*
D03*
X36000Y-523000D02*
D03*
X35000Y-516000D02*
D03*
X42000D02*
D03*
X-89000Y-343000D02*
D03*
Y-336000D02*
D03*
X-155000Y-422000D02*
D03*
X-93000Y-258000D02*
D03*
X-393000Y-203000D02*
D03*
X-179000Y-273000D02*
D03*
X-89000Y-268000D02*
D03*
X132000Y-236000D02*
D03*
Y-243000D02*
D03*
X157000D02*
D03*
X132000Y-250000D02*
D03*
X200000Y-337000D02*
D03*
X-161000Y-195000D02*
D03*
X198000Y147000D02*
D03*
X188000Y147000D02*
D03*
X178000D02*
D03*
X201000Y212000D02*
D03*
X208000D02*
D03*
X216000Y190000D02*
D03*
X198000Y168000D02*
D03*
X-417000Y-215000D02*
D03*
X-89000Y-442000D02*
D03*
X-82000D02*
D03*
X-50000Y-446000D02*
D03*
X-61000Y-440000D02*
D03*
X-54000D02*
D03*
X-180000Y-323000D02*
D03*
X-181000Y-351000D02*
D03*
X-65000Y-197000D02*
D03*
X260000Y-421000D02*
D03*
X-248000Y-407000D02*
D03*
X-218000Y-402000D02*
D03*
X-39000Y-547000D02*
D03*
X-163000Y-560000D02*
D03*
X-63000Y-586000D02*
D03*
X-70000Y-582000D02*
D03*
X19000Y-442000D02*
D03*
X31000Y-433000D02*
D03*
X38000Y-432000D02*
D03*
X-188000Y-500000D02*
D03*
X291000Y363000D02*
D03*
Y370000D02*
D03*
Y377000D02*
D03*
X428000Y296000D02*
D03*
X422000Y292000D02*
D03*
X416000Y296000D02*
D03*
X410000Y292000D02*
D03*
X-21000Y185000D02*
D03*
X-124000Y-524000D02*
D03*
X-117000D02*
D03*
X-53000Y-382000D02*
D03*
X-60000D02*
D03*
X-47000Y-372000D02*
D03*
X-54000D02*
D03*
X-36000Y-356000D02*
D03*
X-43000D02*
D03*
X13000Y-101000D02*
D03*
X24000Y-434000D02*
D03*
X280000Y-571000D02*
D03*
X-267000Y-650000D02*
D03*
X-249000D02*
D03*
X-258000D02*
D03*
X-69000Y-570000D02*
D03*
X-252000Y-431000D02*
D03*
X-82000Y-530000D02*
D03*
X-67000Y-90000D02*
D03*
Y-83000D02*
D03*
Y-76000D02*
D03*
Y-69000D02*
D03*
Y-62000D02*
D03*
Y-55000D02*
D03*
X-370000Y-140000D02*
D03*
Y-133000D02*
D03*
Y-147000D02*
D03*
Y-109000D02*
D03*
Y-102000D02*
D03*
Y-116000D02*
D03*
X-363000Y-109000D02*
D03*
Y-102000D02*
D03*
Y-116000D02*
D03*
Y-147000D02*
D03*
Y-133000D02*
D03*
Y-140000D02*
D03*
X-369000Y-158000D02*
D03*
X246000Y-306000D02*
D03*
X496000Y-345000D02*
D03*
X471000Y-671000D02*
D03*
X478000D02*
D03*
X471000Y-690000D02*
D03*
X478000D02*
D03*
X-375000Y-280000D02*
D03*
X-382000D02*
D03*
X-389000D02*
D03*
X-12000Y-525000D02*
D03*
X296000Y-441000D02*
D03*
X402000Y-477000D02*
D03*
X418000D02*
D03*
X514000Y-49000D02*
D03*
X522000D02*
D03*
X530000D02*
D03*
Y-57000D02*
D03*
X522000D02*
D03*
X514000D02*
D03*
X513000Y-384000D02*
D03*
X521000D02*
D03*
X529000D02*
D03*
Y-376000D02*
D03*
X521000D02*
D03*
X513000D02*
D03*
X502000Y-335000D02*
D03*
Y-325000D02*
D03*
Y-315000D02*
D03*
X431000Y-561000D02*
D03*
X307000Y-509000D02*
D03*
Y-563000D02*
D03*
X433000Y-634000D02*
D03*
Y-621000D02*
D03*
X-236000Y-236000D02*
D03*
X317000Y263000D02*
D03*
X178000Y442000D02*
D03*
X211000Y581000D02*
D03*
X204000D02*
D03*
X197000D02*
D03*
Y674000D02*
D03*
X204000D02*
D03*
X211000D02*
D03*
X313000D02*
D03*
X299000Y581000D02*
D03*
X306000D02*
D03*
X313000D02*
D03*
X299000Y674000D02*
D03*
X306000D02*
D03*
X12000Y-552000D02*
D03*
X-6000Y-563000D02*
D03*
X-204000Y-547000D02*
D03*
X-207000Y-540000D02*
D03*
X-415000Y-244000D02*
D03*
X-278000Y-207000D02*
D03*
X-289000Y-190000D02*
D03*
X325000Y483000D02*
D03*
X502000Y439000D02*
D03*
X495000D02*
D03*
X502000Y446000D02*
D03*
X495000D02*
D03*
X502000Y453000D02*
D03*
X495000D02*
D03*
X502000Y460000D02*
D03*
X495000D02*
D03*
X533000Y439000D02*
D03*
X526000D02*
D03*
X519000D02*
D03*
X512000D02*
D03*
X529000Y445000D02*
D03*
X522000D02*
D03*
X515000D02*
D03*
X533000Y451000D02*
D03*
X526000D02*
D03*
X519000D02*
D03*
X512000D02*
D03*
X266000Y417000D02*
D03*
X273000D02*
D03*
X280000D02*
D03*
X287000D02*
D03*
X294000D02*
D03*
X410000Y308000D02*
D03*
X416000Y312000D02*
D03*
X422000Y308000D02*
D03*
X428000Y312000D02*
D03*
X-179000Y-421000D02*
D03*
X522000Y-700000D02*
D03*
Y-30000D02*
D03*
X-238000Y-426000D02*
D03*
X-242000Y-436000D02*
D03*
X-29000Y-570000D02*
D03*
X-163000Y-569000D02*
D03*
X306000Y-677000D02*
D03*
Y-623000D02*
D03*
X-69000Y-592000D02*
D03*
X-81000Y-570000D02*
D03*
X459000Y-209000D02*
D03*
X461000Y-231000D02*
D03*
X-41509Y-450841D02*
D03*
X281000Y-473000D02*
D03*
X12000Y-511000D02*
D03*
X-75000D02*
D03*
X192000Y-297000D02*
D03*
X-160000Y-291000D02*
D03*
Y-399000D02*
D03*
X33490Y-450841D02*
D03*
X131841Y-327510D02*
D03*
Y-307510D02*
D03*
X-81509Y-450841D02*
D03*
X-101000Y-405000D02*
D03*
X-19000Y-452000D02*
D03*
X6000D02*
D03*
X133000Y-360000D02*
D03*
Y-290000D02*
D03*
X28000Y-47000D02*
D03*
X22000D02*
D03*
X13000Y-94000D02*
D03*
Y-87000D02*
D03*
X321000Y296000D02*
D03*
Y290000D02*
D03*
X369000Y281000D02*
D03*
X361000D02*
D03*
X260000Y-680000D02*
D03*
X266000D02*
D03*
X275000Y-632000D02*
D03*
X172000Y308000D02*
D03*
Y302000D02*
D03*
X220000Y293000D02*
D03*
X-211000Y-307000D02*
D03*
Y-301000D02*
D03*
X328000Y-382500D02*
D03*
X288000Y-373500D02*
D03*
Y-367500D02*
D03*
X-177000Y-543000D02*
D03*
X-21000Y175000D02*
D03*
X16000Y184000D02*
D03*
X-12000Y200000D02*
D03*
X455000Y-420000D02*
D03*
X258000Y514000D02*
D03*
X-390000Y-271000D02*
D03*
X-285500Y-226500D02*
D03*
X-236000Y-216000D02*
D03*
X333000Y415000D02*
D03*
X329000Y421000D02*
D03*
X325000Y415000D02*
D03*
X321000Y421000D02*
D03*
X317000Y415000D02*
D03*
X291000Y406000D02*
D03*
Y399000D02*
D03*
Y392000D02*
D03*
X503000Y620000D02*
D03*
X496000D02*
D03*
X489000D02*
D03*
X503000Y630000D02*
D03*
X496000D02*
D03*
X489000D02*
D03*
X503000Y640000D02*
D03*
X496000D02*
D03*
X489000D02*
D03*
Y650000D02*
D03*
X496000D02*
D03*
X503000D02*
D03*
X344000Y669000D02*
D03*
X337000D02*
D03*
X330000D02*
D03*
X413000Y542600D02*
D03*
Y570600D02*
D03*
Y614000D02*
D03*
X397000D02*
D03*
Y586000D02*
D03*
X413000D02*
D03*
X397000Y570600D02*
D03*
Y542600D02*
D03*
X134000Y724000D02*
D03*
X159000Y699000D02*
D03*
X236000Y724000D02*
D03*
X261000Y699000D02*
D03*
X134000Y631000D02*
D03*
X159000Y606000D02*
D03*
X235250Y631000D02*
D03*
X260250Y606000D02*
D03*
X358000Y-640000D02*
D03*
X380000Y-660000D02*
D03*
X358000Y-655000D02*
D03*
X380000Y-546000D02*
D03*
X358000Y-526000D02*
D03*
X450492Y-130965D02*
D03*
X476492Y-167965D02*
D03*
X452492D02*
D03*
X-276000Y-135500D02*
D03*
X-281000Y-98500D02*
D03*
X258000Y563000D02*
D03*
X-36000Y498000D02*
D03*
X-95000Y487000D02*
D03*
Y501000D02*
D03*
Y494000D02*
D03*
Y480000D02*
D03*
Y473000D02*
D03*
Y466000D02*
D03*
Y459000D02*
D03*
Y452000D02*
D03*
X-50000Y405000D02*
D03*
X305800Y521600D02*
D03*
Y531600D02*
D03*
X315800D02*
D03*
Y521600D02*
D03*
X295800Y531600D02*
D03*
Y521600D02*
D03*
Y556400D02*
D03*
Y546400D02*
D03*
X315800Y556400D02*
D03*
Y546400D02*
D03*
X305800D02*
D03*
Y556400D02*
D03*
X285800D02*
D03*
Y546400D02*
D03*
Y531600D02*
D03*
Y521600D02*
D03*
D225*
X-101000Y-355000D02*
D03*
Y-325000D02*
D03*
X230757Y-637000D02*
D03*
X-159000Y-350000D02*
D03*
X113000Y-195000D02*
D03*
X387400Y458386D02*
D03*
X374700D02*
D03*
X457400D02*
D03*
X444700D02*
D03*
X72000Y-156000D02*
D03*
X248000Y-163000D02*
D03*
X193000Y-234000D02*
D03*
X150000Y-227000D02*
D03*
X36000Y-45000D02*
D03*
X331000Y-536000D02*
D03*
X469000Y-133000D02*
D03*
X74000Y-219000D02*
D03*
X-160406Y-244000D02*
D03*
X226000Y-549000D02*
D03*
X372000Y-122000D02*
D03*
X319000D02*
D03*
X266000D02*
D03*
X224000D02*
D03*
X421000Y-240000D02*
D03*
Y-292000D02*
D03*
X329000Y-650000D02*
D03*
X416250Y131000D02*
D03*
X494000Y160000D02*
D03*
X496000Y150000D02*
D03*
X-1000Y-158000D02*
D03*
X293000Y92000D02*
D03*
X-14000Y-196000D02*
D03*
X132000Y-258000D02*
D03*
X-101000Y-298000D02*
D03*
Y-250000D02*
D03*
X38000Y-219000D02*
D03*
X-183000Y-313000D02*
D03*
X-81000Y-475000D02*
D03*
X229000Y11000D02*
D03*
D226*
X485000Y455000D02*
D03*
X387000Y-26000D02*
D03*
X310000Y-54000D02*
D03*
X229000Y-48000D02*
D03*
X381000Y50000D02*
D03*
X378000Y-297000D02*
D03*
X317000Y-275000D02*
D03*
X319000Y47000D02*
D03*
X414000Y452000D02*
D03*
X385000Y22476D02*
D03*
X355000Y-244000D02*
D03*
X198000Y-177000D02*
D03*
X214000Y-86000D02*
D03*
Y-97000D02*
D03*
X252000Y-103000D02*
D03*
X305000D02*
D03*
X267000Y-86000D02*
D03*
Y-97000D02*
D03*
X320000Y-86000D02*
D03*
X358000Y-103000D02*
D03*
X320000Y-97000D02*
D03*
X373000Y-86000D02*
D03*
X411000Y-103000D02*
D03*
X373000Y-97000D02*
D03*
X459000Y-344000D02*
D03*
X448000D02*
D03*
X442000Y-382000D02*
D03*
X448000Y-292000D02*
D03*
X459000D02*
D03*
X442000Y-330000D02*
D03*
X448000Y-240000D02*
D03*
X459000D02*
D03*
X442000Y-278000D02*
D03*
X235000Y-8000D02*
D03*
X220000Y13000D02*
D03*
X252000Y6000D02*
D03*
X220000Y34000D02*
D03*
X235000Y-32000D02*
D03*
X230000Y-274400D02*
D03*
X366000Y179000D02*
D03*
X416000Y81000D02*
D03*
X410000Y165000D02*
D03*
X423000Y111000D02*
D03*
Y104000D02*
D03*
X465000Y165000D02*
D03*
X335000Y93000D02*
D03*
X316000Y139000D02*
D03*
X482000Y114000D02*
D03*
Y120000D02*
D03*
X316000Y145000D02*
D03*
X452000Y160000D02*
D03*
X432000Y97000D02*
D03*
X345000Y99000D02*
D03*
X366000Y162000D02*
D03*
X32000Y332000D02*
D03*
X12000Y316000D02*
D03*
Y309000D02*
D03*
Y295000D02*
D03*
Y302000D02*
D03*
X-37000Y298000D02*
D03*
Y284000D02*
D03*
Y277000D02*
D03*
Y291000D02*
D03*
Y319000D02*
D03*
Y312000D02*
D03*
Y326000D02*
D03*
X15000Y266000D02*
D03*
Y259000D02*
D03*
Y252000D02*
D03*
X22000Y274000D02*
D03*
X-37000Y305000D02*
D03*
X35000Y141000D02*
D03*
Y92000D02*
D03*
Y99000D02*
D03*
Y106000D02*
D03*
X-106000Y196000D02*
D03*
X-0Y-335000D02*
D03*
X32000D02*
D03*
X16000Y-319000D02*
D03*
X240000Y167000D02*
D03*
X47000Y449000D02*
D03*
X379000Y-461000D02*
D03*
X178000Y-457000D02*
D03*
Y-437000D02*
D03*
X555000Y-494000D02*
D03*
X548000D02*
D03*
X178000Y-427000D02*
D03*
X35000Y113000D02*
D03*
X40000Y-367000D02*
D03*
X48000Y-359000D02*
D03*
Y-351000D02*
D03*
Y-367000D02*
D03*
X32000D02*
D03*
X16000Y-351000D02*
D03*
X8000D02*
D03*
X24000D02*
D03*
Y-367000D02*
D03*
X8000D02*
D03*
X-8000D02*
D03*
X-16000Y-359000D02*
D03*
Y-351000D02*
D03*
X-0Y-367000D02*
D03*
X-16000D02*
D03*
Y-327000D02*
D03*
X-0D02*
D03*
Y-343000D02*
D03*
X-16000D02*
D03*
X-8000Y-303000D02*
D03*
X-16000Y-311000D02*
D03*
Y-303000D02*
D03*
X-0D02*
D03*
X-16000Y-319000D02*
D03*
X8000Y-303000D02*
D03*
X24000D02*
D03*
Y-319000D02*
D03*
X8000D02*
D03*
X40000Y-303000D02*
D03*
X48000Y-311000D02*
D03*
X32000Y-303000D02*
D03*
X48000D02*
D03*
Y-319000D02*
D03*
X32000Y-327000D02*
D03*
X48000D02*
D03*
Y-343000D02*
D03*
X32000D02*
D03*
X-210000Y-441000D02*
D03*
X-217000Y-434000D02*
D03*
X-203000D02*
D03*
X-210000Y-427000D02*
D03*
Y-434000D02*
D03*
X214000Y-171000D02*
D03*
X240000D02*
D03*
X246000Y217000D02*
D03*
Y246000D02*
D03*
X260000Y232000D02*
D03*
X232000D02*
D03*
X244000Y139000D02*
D03*
X254000Y168000D02*
D03*
X27000Y-97000D02*
D03*
X35000Y134000D02*
D03*
Y127000D02*
D03*
Y120000D02*
D03*
X-38000D02*
D03*
Y127000D02*
D03*
Y134000D02*
D03*
Y141000D02*
D03*
X-18000Y72000D02*
D03*
X-11000D02*
D03*
X-4000D02*
D03*
X3000D02*
D03*
X10000D02*
D03*
X17000D02*
D03*
X24000D02*
D03*
X-25000D02*
D03*
X-32000D02*
D03*
X31000D02*
D03*
Y64000D02*
D03*
X-32000D02*
D03*
X-25000D02*
D03*
X24000D02*
D03*
X17000D02*
D03*
X10000D02*
D03*
X3000D02*
D03*
X-4000D02*
D03*
X-11000D02*
D03*
X-18000D02*
D03*
X-64000Y-131000D02*
D03*
X-71000D02*
D03*
X22000Y-129000D02*
D03*
Y-122000D02*
D03*
X-73000Y-171000D02*
D03*
X-81000D02*
D03*
X-25935Y-172461D02*
D03*
X306000Y213000D02*
D03*
X-53000Y470000D02*
D03*
Y477000D02*
D03*
Y484000D02*
D03*
Y491000D02*
D03*
X61000Y-335000D02*
D03*
X91000Y-510000D02*
D03*
X135000Y-499000D02*
D03*
X73000D02*
D03*
X102000Y-533000D02*
D03*
X-391000Y725000D02*
D03*
X-63000Y5600D02*
D03*
Y31000D02*
D03*
X-255000Y-123000D02*
D03*
X355000Y-695000D02*
D03*
X207000Y-357000D02*
D03*
X-211000Y-406000D02*
D03*
X-204000D02*
D03*
X149000Y308000D02*
D03*
X306000Y206000D02*
D03*
X292000Y290000D02*
D03*
Y283000D02*
D03*
Y276000D02*
D03*
X247000Y292000D02*
D03*
X254000D02*
D03*
X261000Y175000D02*
D03*
X238000Y143000D02*
D03*
X184000Y246000D02*
D03*
X194000Y270000D02*
D03*
X109000Y-533000D02*
D03*
X-60000Y-630000D02*
D03*
X-10000Y-591000D02*
D03*
X1000Y-629000D02*
D03*
X178000Y189000D02*
D03*
X188000D02*
D03*
X207000Y189000D02*
D03*
X-275500Y-355500D02*
D03*
X-252000Y-419000D02*
D03*
X-66000Y-147000D02*
D03*
X178000Y-382238D02*
D03*
Y-417000D02*
D03*
Y-411000D02*
D03*
Y-392000D02*
D03*
Y-401000D02*
D03*
X207000Y-398000D02*
D03*
X246000Y-315000D02*
D03*
X-383000Y-744000D02*
D03*
X-12000Y-549000D02*
D03*
X331000Y-401000D02*
D03*
Y-421000D02*
D03*
Y-441000D02*
D03*
X296000Y-433000D02*
D03*
Y-414000D02*
D03*
X307000Y-545000D02*
D03*
Y-527000D02*
D03*
Y-536000D02*
D03*
X423000D02*
D03*
X416000Y-503000D02*
D03*
X265000Y-542000D02*
D03*
X-201000Y-529000D02*
D03*
X-208000D02*
D03*
X-221000Y-211000D02*
D03*
X317000Y254000D02*
D03*
X312000Y232000D02*
D03*
X291000D02*
D03*
X419000Y279000D02*
D03*
X331000Y643000D02*
D03*
X-164000Y-427000D02*
D03*
X16000Y-335000D02*
D03*
X553000Y760000D02*
D03*
X555000Y158000D02*
D03*
Y165000D02*
D03*
Y172000D02*
D03*
X548000Y158000D02*
D03*
Y165000D02*
D03*
X548135Y171753D02*
D03*
X548000Y-151000D02*
D03*
Y-165000D02*
D03*
Y-158000D02*
D03*
X555000Y-501000D02*
D03*
Y-508000D02*
D03*
Y-515000D02*
D03*
Y-522000D02*
D03*
Y-529000D02*
D03*
X548000D02*
D03*
Y-522000D02*
D03*
Y-515000D02*
D03*
Y-508000D02*
D03*
Y-501000D02*
D03*
X408000Y-677000D02*
D03*
X308000Y-659000D02*
D03*
Y-650000D02*
D03*
Y-642000D02*
D03*
X330000Y-677000D02*
D03*
Y-623000D02*
D03*
X-78000Y-555000D02*
D03*
X-90000Y-589000D02*
D03*
X448000Y-188000D02*
D03*
X459000D02*
D03*
X442000Y-226000D02*
D03*
X-41491Y-219159D02*
D03*
X-23000Y-498000D02*
D03*
X-16000D02*
D03*
X-147000Y-321000D02*
D03*
Y-328000D02*
D03*
X274000Y-493000D02*
D03*
X266000D02*
D03*
X239000Y-498000D02*
D03*
X179295Y-327408D02*
D03*
X34592Y-498295D02*
D03*
X-40408D02*
D03*
X37408Y-170705D02*
D03*
X112408Y-170705D02*
D03*
X179295Y-306408D02*
D03*
X179295Y-257408D02*
D03*
X179000Y-357000D02*
D03*
Y-364000D02*
D03*
X0Y-511000D02*
D03*
X-87000D02*
D03*
X192000Y-285000D02*
D03*
Y-223000D02*
D03*
X84000Y-157012D02*
D03*
X-18000Y-158000D02*
D03*
X-160000Y-256000D02*
D03*
Y-303000D02*
D03*
Y-360000D02*
D03*
Y-411000D02*
D03*
X132000Y-412000D02*
D03*
X69000Y-451000D02*
D03*
X13000Y-56000D02*
D03*
Y-49000D02*
D03*
X30000Y-72000D02*
D03*
X23000Y-72000D02*
D03*
X37000D02*
D03*
X330000Y281000D02*
D03*
X323000D02*
D03*
X346000Y298000D02*
D03*
X346000Y291000D02*
D03*
Y305000D02*
D03*
X275000Y-671000D02*
D03*
Y-678000D02*
D03*
X258000Y-655000D02*
D03*
X265000Y-655000D02*
D03*
X251000D02*
D03*
X181000Y293000D02*
D03*
X174000D02*
D03*
X197000Y310000D02*
D03*
X197000Y303000D02*
D03*
Y317000D02*
D03*
X-213000Y-292000D02*
D03*
X-236000Y-309000D02*
D03*
X-236000Y-302000D02*
D03*
Y-316000D02*
D03*
X313000Y-358500D02*
D03*
Y-372500D02*
D03*
X313000Y-365500D02*
D03*
X290000Y-382500D02*
D03*
X297000D02*
D03*
X-208000Y-587000D02*
D03*
X-196000D02*
D03*
Y-575000D02*
D03*
X-208000D02*
D03*
X-202000Y-581000D02*
D03*
X-183000Y-527000D02*
D03*
X-215000D02*
D03*
X-82000Y-755000D02*
D03*
X-322000D02*
D03*
X272000Y-588000D02*
D03*
X169000Y-587000D02*
D03*
X178000D02*
D03*
X5000Y204000D02*
D03*
X-21000Y163000D02*
D03*
X13000D02*
D03*
X469000Y-431000D02*
D03*
X458000D02*
D03*
X434000Y-455000D02*
D03*
X418000D02*
D03*
X404000D02*
D03*
X379000Y-452000D02*
D03*
Y-416000D02*
D03*
Y-426000D02*
D03*
X435000Y-421000D02*
D03*
X421000D02*
D03*
X428000Y-428000D02*
D03*
Y-414000D02*
D03*
Y-421000D02*
D03*
X-31000Y555000D02*
D03*
Y562000D02*
D03*
Y548000D02*
D03*
Y608000D02*
D03*
Y622000D02*
D03*
Y615000D02*
D03*
Y668000D02*
D03*
Y682000D02*
D03*
Y675000D02*
D03*
X60000D02*
D03*
Y682000D02*
D03*
Y668000D02*
D03*
Y615000D02*
D03*
Y622000D02*
D03*
Y608000D02*
D03*
Y548000D02*
D03*
Y562000D02*
D03*
Y555000D02*
D03*
X138000Y513000D02*
D03*
X131000D02*
D03*
X124000D02*
D03*
X117000D02*
D03*
X-327500Y-125500D02*
D03*
Y-132500D02*
D03*
Y-139500D02*
D03*
Y-146500D02*
D03*
X-414000Y-271000D02*
D03*
X-415000Y-253000D02*
D03*
Y-235000D02*
D03*
X-392500Y-118500D02*
D03*
Y-111500D02*
D03*
Y-104500D02*
D03*
Y-97500D02*
D03*
X-252000Y-246000D02*
D03*
Y-253000D02*
D03*
Y-260000D02*
D03*
X-234000Y-160000D02*
D03*
X-241000D02*
D03*
X-252000D02*
D03*
X246000Y232000D02*
D03*
X555000Y685000D02*
D03*
X551000Y690000D02*
D03*
Y680000D02*
D03*
X559000D02*
D03*
Y690000D02*
D03*
X547000Y685000D02*
D03*
X543000Y680000D02*
D03*
Y690000D02*
D03*
X5000Y449000D02*
D03*
X12000D02*
D03*
X19000D02*
D03*
X26000D02*
D03*
X33000D02*
D03*
X40000D02*
D03*
X401000Y673000D02*
D03*
X394000D02*
D03*
X387000D02*
D03*
X380000D02*
D03*
X427000Y595400D02*
D03*
Y603400D02*
D03*
X380000Y614400D02*
D03*
Y571000D02*
D03*
X427000Y560000D02*
D03*
Y552000D02*
D03*
X126000Y674000D02*
D03*
Y724000D02*
D03*
X178000Y734000D02*
D03*
Y742000D02*
D03*
Y706000D02*
D03*
X178000Y699000D02*
D03*
X178000Y692000D02*
D03*
X228000Y674000D02*
D03*
Y724000D02*
D03*
X280000Y734000D02*
D03*
Y742000D02*
D03*
Y706000D02*
D03*
X280000Y699000D02*
D03*
X280000Y692000D02*
D03*
X126000Y581000D02*
D03*
Y631000D02*
D03*
X178000Y641000D02*
D03*
Y649000D02*
D03*
Y613000D02*
D03*
Y599000D02*
D03*
X178000Y606000D02*
D03*
X227250Y581000D02*
D03*
Y631000D02*
D03*
X279250Y641000D02*
D03*
Y649000D02*
D03*
Y599000D02*
D03*
Y613000D02*
D03*
X279250Y606000D02*
D03*
X485000Y430000D02*
D03*
X456000Y436000D02*
D03*
X423000Y-650000D02*
D03*
X412000D02*
D03*
X410000Y-536000D02*
D03*
X379000Y-650000D02*
D03*
X380000Y-536000D02*
D03*
X387000D02*
D03*
X386000Y-650000D02*
D03*
X476492Y-152965D02*
D03*
X450492Y-142965D02*
D03*
X423492Y-167965D02*
D03*
Y-160965D02*
D03*
X-281000Y-113500D02*
D03*
X-235000Y-105000D02*
D03*
X-242000D02*
D03*
X-65000Y395000D02*
D03*
X-33000Y507000D02*
D03*
X-43000Y449000D02*
D03*
X-50000Y441000D02*
D03*
Y427000D02*
D03*
Y434000D02*
D03*
X-102000Y501000D02*
D03*
Y494000D02*
D03*
Y487000D02*
D03*
Y480000D02*
D03*
Y473000D02*
D03*
Y466000D02*
D03*
Y459000D02*
D03*
Y452000D02*
D03*
X-319000Y-265000D02*
D03*
Y-252000D02*
D03*
Y-239000D02*
D03*
Y-226000D02*
D03*
Y-213000D02*
D03*
Y-200000D02*
D03*
Y-187000D02*
D03*
Y-174000D02*
D03*
X-332000Y-265000D02*
D03*
Y-252000D02*
D03*
Y-239000D02*
D03*
Y-226000D02*
D03*
Y-213000D02*
D03*
Y-200000D02*
D03*
Y-187000D02*
D03*
Y-174000D02*
D03*
X-345000Y-265000D02*
D03*
Y-252000D02*
D03*
Y-239000D02*
D03*
Y-226000D02*
D03*
Y-213000D02*
D03*
Y-200000D02*
D03*
Y-187000D02*
D03*
Y-174000D02*
D03*
X-358000Y-265000D02*
D03*
Y-252000D02*
D03*
Y-239000D02*
D03*
Y-226000D02*
D03*
Y-213000D02*
D03*
Y-200000D02*
D03*
Y-187000D02*
D03*
Y-174000D02*
D03*
D227*
X444700Y410114D02*
D03*
X374700D02*
D03*
X-128000Y291000D02*
D03*
X209000Y-34000D02*
D03*
X203000Y-651000D02*
D03*
Y-643000D02*
D03*
Y-635000D02*
D03*
Y-618000D02*
D03*
X278000Y73000D02*
D03*
Y86000D02*
D03*
X349000Y-145000D02*
D03*
X362000Y458386D02*
D03*
X432000D02*
D03*
M02*
