M48
;Layer_Color=9474304
;FILE_FORMAT=4:4
METRIC,LZ
;TYPE=PLATED
T01F00S00C0.2500
T02F00S00C0.3000
T03F00S00C0.8900
T04F00S00C1.0000
T05F00S00C1.8500
T06F00S00C3.3000
;TYPE=NON_PLATED
T07F00S00C0.9000
T08F00S00C1.1000
T09F00S00C1.2000
T10F00S00C2.2500
%
T01
X-00081Y-00475
X-00101Y-00355
Y-00325
Y-00298
X-00183Y-00313
X-00159Y-0035
X00226Y-00549
X00203Y-00618
Y-00635
Y-00643
Y-00651
X00230757Y-00637
X00329Y-0065
X00331Y-00536
X00421Y-00292
Y-0024
X00469Y-00133
X00372Y-00122
X00349Y-00145
X00319Y-00122
X00266
X00224
X00248Y-00163
X00209Y-00034
X00229Y00011
X00278Y00073
Y00086
X00293Y00092
X00036Y-00045
X00072Y-00156
X00074Y-00219
X00038
X-00014Y-00196
X-00001Y-00158
X00113Y-00195
X0015Y-00227
X00132Y-00258
X00193Y-00234
X-00101Y-0025
X-00160406Y-00244
X-00128Y00291
X003747Y00410114
Y00458386
X003874
X00362
X00432
X004447
X004574
X004447Y00410114
X00494Y0016
X00496Y0015
X0041625Y00131
T02
X00218Y-00687
X00306Y-00695
X00355
X00381Y-00686
X00471Y-0069
X00478
X00522Y-007
X-00082Y-00755
X-00322
X-00383Y-00744
X-00267Y-0065
X-00258
X-00249
X-00208Y-00587
Y-00575
X-00204Y-00547
X-00207Y-0054
X-00208Y-00529
X-00215Y-00527
X-0021Y-00441
Y-00434
X-00217
X-0021Y-00427
X-00211Y-00406
X-00204
X-00218Y-00402
X-00205Y-0038
X-00206Y-00363
X-00209Y-00353
X-00214Y-00344
X-00221
X-00236Y-00316
X-00236Y-00309
X-00236Y-00302
X-00211Y-00301
Y-00307
X-00213Y-00292
X-00262617Y-00292383
X-002755Y-003555
X-00248Y-00407
X-00252Y-00419
Y-00431
X-00242Y-00436
X-00238Y-00426
X-00423Y-00314
X-0018Y-00323
X-00181Y-00351
X-0016Y-0036
X-00164Y-00385
X-00159Y-0039
X-0016Y-00399
Y-00411
X-00155Y-00422
X-00164Y-00427
X-00165Y-00437
X-00179Y-00421
Y-00408
X-00182Y-00393
X-00189
X-00196
X-00203
X-002Y-00373
X-00203Y-00434
X-00139Y-00432
X-00089Y-00442
X-00082
X-00081509Y-00450841
X-00073Y-00449
X-00061Y-0044
X-00054
X-0005Y-00446
X-00041509Y-00450841
X-00037Y-00444
X-00013
X-00007Y-0044
X0Y-00444
X00006Y-00452
X00019Y-00442
X00024Y-00434
X00031Y-00433
X00038Y-00432
X00045Y-0044
X00057
X00069Y-00451
X000587Y-00475995
X00073Y-00499
X00091Y-0051
X00102Y-00504
X00111Y-0051
X0012Y-00517
X00129
X00135Y-00499
X00151Y-00542
X00166Y-00538
X00157Y-00556
X00169Y-00587
X00178
X00174Y-00618
X00109Y-00533
X00102
X00036Y-00523
X00035Y-00516
X00042
X00034592Y-00498295
X00012Y-00511
X0
X-00012Y-00525
Y-00549
X-00006Y-00563
X00012Y-00552
X00028Y-00553
X-00039Y-00547
X-00029Y-0057
X-0001Y-00591
X-00007Y-00625
X00001Y-00629
X00016Y-00628
X-00051Y-00623
X-0006Y-0063
X-00069Y-00592
X-0007Y-00582
X-00063Y-00586
X-00069Y-0057
X-00081
X-00078Y-00555
X-00082Y-0053
X-00087Y-00511
X-00075
X-00040408Y-00498295
X-00023Y-00498
X-00016
X-00019Y-00452
X0003349Y-00450841
X00108Y-00446
Y-00439
X00115Y-00416
X00132Y-00412
X00114Y-00394
Y-00387
X00107Y-00384
X00097
X001Y-00405
X00107Y-00399
X00089Y-00412
X00104Y-00364
Y-00357
Y-0035
Y-00343
Y-00336
X00096Y-00332
X00092Y-00309
X00099Y-00307
X00131841Y-0030751
X00133Y-0029
X00131841Y-0032751
X00133Y-0036
X00123Y-00367
X00179Y-00364
Y-00357
X00178Y-00382238
Y-00392
Y-00401
Y-00411
Y-00417
Y-00427
Y-00437
X00184Y-00432
Y-00422
X0019Y-00442
X00178Y-00457
X00179295Y-00327408
X00179295Y-00306408
X00192Y-00297
Y-00285
X00048Y-00303
Y-00311
Y-00319
Y-00327
X00032
Y-00335
Y-00343
X00048
Y-00351
Y-00359
Y-00367
X0004
X00032
X00024
Y-00351
X00016
X00008
Y-00367
X-0
X-00008
X-00016
Y-00359
Y-00351
Y-00343
Y-00327
Y-00319
Y-00311
Y-00303
X-00008
X-0
X00008
X00024
X00032
X0004
X00024Y-00319
X00016
X00008
X-0Y-00327
Y-00335
Y-00343
X00016Y-00335
X00061Y-00335
X-00036Y-00356
X-00043
X-00047Y-00372
X-00054
X-00053Y-00382
X-0006
X-00101Y-00405
X-00089Y-00343
Y-00336
X-00147Y-00328
Y-00321
X-0016Y-00303
Y-00291
X-0018Y-00292
X-00188Y-005
X-00183Y-00527
X-00201Y-00529
X-00177Y-00543
X-00163Y-0056
Y-00569
X-00196Y-00575
Y-00587
X-00202Y-00581
X-0015Y-0053
X-00141
X-00124Y-00524
X-00117
X-0009Y-00589
X0024Y-0062
X00251Y-00655
X00258Y-00655
X00265Y-00655
X00275Y-00671
Y-00678
X00266Y-0068
X0026
X00306Y-00677
X00308Y-00659
Y-0065
Y-00642
X00306Y-00623
Y-00605
Y-00572
X00307Y-00563
Y-00545
Y-00536
Y-00527
Y-00509
X00306Y-005
X00274Y-00493
X00266
X00239Y-00498
X00281Y-00473
X00296Y-00441
Y-00433
Y-00414
X00297Y-003825
X0029
X00288Y-003735
Y-003675
X00273Y-003575
X00257Y-00345
X00246Y-00315
Y-00306
X002Y-00337
X0019413Y-00352365
X00207Y-00357
Y-00398
X0026Y-00421
X00331Y-00421
Y-00401
X00328Y-003825
X00313Y-003725
X00313Y-003655
X00313Y-003585
X0036Y-00338
X00359Y-00327
X00356Y-0032
X00378Y-00297
X00398Y-00287
X00448Y-00292
X00459
Y-00313
X00461Y-00335
X00459Y-00344
X00448
X00442Y-0033
X00421Y-00352
X00442Y-00382
X00461Y-00387
X0047Y-00393
X00459Y-00365
X00496Y-00345
X00502Y-00335
Y-00325
Y-00315
X00513Y-00376
Y-00384
X00521
Y-00376
X00529
Y-00384
X00533Y-00366
X00469Y-00431
X00458
X00455Y-0042
X00435Y-00421
X00428
Y-00428
X00421Y-00421
X00428Y-00414
X00434Y-00455
X00418
X00404
X00402Y-00477
X00418
X00442Y-00478
X00431Y-00511
X00416Y-00503
X00381Y-00502
X00386Y-00529
X00387Y-00536
X0038
Y-00546
X00381Y-0057
Y-00614
X00379Y-0065
X00386
X0038Y-0066
X00358Y-00655
Y-0064
X0033Y-00623
Y-00677
X00408Y-00677
X00412Y-0065
X00423
X00433Y-00634
Y-00621
X00449Y-00608
Y-00589
X00431Y-00561
X00423Y-00536
X0041Y-00536
X00358Y-00526
X00352Y-00543
X00265Y-00542
X00274Y-00562
X0028Y-00571
X00272Y-00588
X00275Y-00632
X00218Y-00662
X00433Y-00668
X00471Y-00671
X00478
X00548Y-00529
X00555
Y-00522
Y-00515
Y-00508
Y-00501
Y-00494
X00548
Y-00501
Y-00508
Y-00515
Y-00522
X00379Y-00461
Y-00452
Y-00426
Y-00416
X00378Y-00407
X00331Y-00441
X00317Y-00275
X00291Y-00283
X00279Y-00276
X00266Y-00277
X0023Y-002744
Y-002617
X002173
Y-00249
X0023
Y-002363
Y-002236
X002173
X00245Y-00208
X0024Y-00171
X00228825Y-00160534
X00214Y-00171
X00198Y-00177
X00196825Y-00186535
X00194825Y-00159535
X00214Y-00097
Y-00086
X00235
X00257Y-00084
X00267Y-00086
Y-00097
X00252Y-00103
X00305
X0032Y-00097
Y-00086
X0031Y-00084
X00288Y-00086
X00341
X00363Y-00084
X00373Y-00086
Y-00097
X00358Y-00103
X00358Y-00147
X00379Y-0014
X00414Y-00135
X00411Y-00103
X00416Y-00084
X00394Y-00086
X00387Y-00026
X00363335Y-00034
X00385Y00014
Y00022476
Y00032
X00381Y0005
X00373Y00068
X00391Y00073
X00396Y00095
X00416Y00081
X00423Y00104
Y00111
X00432Y00097
X00365Y00099
Y00108
X00345Y00099
X00335Y00093
X00339Y00073
X00344745Y00052
X00319Y00047
X003145Y000275
X00312Y00021
X00326Y00015
X00307Y00004
X00299
X00252Y00006
X00235Y-00008
Y-00032
X00229Y-00048
X0022Y00013
Y00034
X00261Y00075
X00257Y00092
X00253Y00104
X00195Y00109
X00315Y00098
Y00086
X0031Y-00054
X00308Y-00145
X0029125Y-0014625
X00273Y-00147
X00329Y-00154
X00342Y-00184
X00352Y-00209
X00355Y-00244
X00372Y-00237
X00329Y-00242
X00448Y-0024
X00459
X00461Y-00231
X00459Y-00209
Y-00188
X00448
X00452492Y-00167965
X00476492
Y-00152965
X00450492Y-00142965
Y-00130965
X00423492Y-00160965
Y-00167965
X00421Y-00187
X00442Y-00226
Y-00278
X00461Y-00283
X00459Y-00261
X00548Y-00165
Y-00158
Y-00151
X0053Y-00057
Y-00049
X00522
Y-00057
X00514
Y-00049
X00522Y-0003
X005Y00109
X00138Y00099
X00035
Y00106
Y00113
Y00092
X00031Y00072
X00024
X00017
X0001
X00003
X-00004
X-00011
X-00018
X-00025
X-00032
Y00064
X-00025
X-00018
X-00011
X-00004
X00003
X0001
X00017
X00024
X00031
X-00037Y00054
X-00064Y00042
X-00063Y00031
Y000056
X-00064175Y-00003175
X-00064Y-0001
Y-00047
X-00067Y-00055
Y-00062
Y-00069
Y-00076
Y-00083
Y-0009
X-00064Y-00131
X-00071
X-00066Y-00147
X-00073Y-00171
X-00081
X-00065Y-00197
X-00075Y-00224
X-00083Y-00223
X-00084Y-0023
X-00066Y-00243
X-00041447Y-00242545
X-00041362Y-0022592
X-00041491Y-00219159
X-00007Y-00225
X00006Y-00221
X00014Y-00222
X-00003Y-00252
X-00093Y-00258
X-00089Y-00268
X-00111Y-00221
X-00105Y-00207
X-00138Y-00211
Y-00226
X-0016Y-00256
X-00162Y-00274
X-00172Y-00279
X-00179Y-00273
X-00161Y-00195
X-00025935Y-00172461
X-00018Y-00158
X00037408Y-00170705
X00022Y-00129
Y-00122
X00014Y-00111
X00013Y-00101
Y-00094
Y-00087
X00027Y-00097
X00036Y-00111
X00037Y-00072
X0003Y-00072
X00023Y-00072
X00013Y-00056
Y-00049
X00022Y-00047
X00028
X-00078Y-00042
X-00082788Y-00028788
X00168Y-00017
Y-00057
X00176Y-00053
X00179Y-00073
X00163Y-0007
X00174Y00017
X00182
X00178Y00023
X00174Y-00177
X00165Y-0018
X00156Y-00181
X00161Y-0019
X00141Y-002
X00143Y-00207
X00149Y-00211
X00154Y-00216
X00157Y-00243
X00178
X00179295Y-00257408
X00192Y-00223
X00132Y-00236
Y-00243
Y-0025
X0012Y-00267
Y-00278
X00114Y-00283
Y-00273
X00103993Y-00269007
X00106Y-0026
X00102Y-00245
X00106Y-00219
X00088Y-0022
X00086Y-00195
X000785Y-001945
X00084Y-00157012
X00118Y-00152
X00112408Y-00170705
X-00234Y-0016
X-00241
X-00252
X-00255Y-00123
X-00254Y-00105
X-00242
X-00235
X-00217Y-00133
X-00276Y-001355
X-00281Y-001135
Y-000985
X-00337Y-0009
Y-00083
Y-00076
Y-00069
Y-00062
Y-00055
Y-00007
Y0
Y00007
Y00014
Y00021
Y00028
Y00035
Y00042
X-00275Y00057
Y00064
Y00071
Y00078
Y00085
Y00092
Y00099
X-00211Y00098
Y00038
Y00018
Y-00002
X-00204Y-00031
X-00221Y-00211
X-0022Y-0023
X-00236Y-00236
Y-00243
X-00243
Y-00236
X-00252Y-00246
Y-00253
Y-0026
X-00274Y-00261
X-00280273Y-00259305
X-00289Y-00262
X-00273Y-00252
X-00274Y-00242
X-00281
X-002855Y-002265
X-00278Y-00207
Y-00201
X-00289Y-0019
X-00319Y-00187
Y-002
Y-00213
Y-00226
Y-00239
Y-00252
Y-00265
X-00332
X-00345
Y-00252
X-00332
Y-00239
X-00345
Y-00226
X-00332
Y-00213
X-00345
Y-002
X-00332
Y-00187
X-00345
Y-00174
X-00332
X-00319
X-003275Y-001465
Y-001395
Y-001325
Y-001255
X-00363Y-00133
X-0037
Y-0014
X-00363
Y-00147
X-0037
X-00369Y-00158
X-00358Y-00174
Y-00187
Y-002
Y-00213
Y-00226
Y-00239
Y-00252
Y-00265
X-00368Y-0028
X-00375
X-00382
X-00389
X-00396
X-0039Y-00271
X-00414Y-00271
X-00415Y-00262
Y-00253
Y-00244
Y-00235
X-00417Y-00215
X-004Y-00208
X-00393Y-00203
X-0039Y-00215
X-00387Y-00248
X-003925Y-001185
Y-001115
Y-001045
Y-000975
X-0037Y-00102
X-00363
Y-00109
X-0037
Y-00116
X-00363
X-00236Y-00216
X-00237Y-00278
X-00212Y-00283
X-00211Y00118
Y00138
Y00158
Y00178
Y00198
X-00106Y00196
X-00066Y00209
X-00062Y00241
X-00037Y00277
Y00284
Y00291
Y00298
Y00305
Y00312
Y00319
Y00326
X-00018Y00337
X00012Y00316
Y00309
Y00302
Y00295
X00022Y00274
X00015Y00266
Y00259
Y00252
Y0023
X00005Y00204
X00012Y00194
X00016Y00184
X00013Y00175
Y00163
X-00021
X-00021Y00175
X-00021Y00185
X-00012Y002
X-00008Y00262
X-0003Y00277
X00029Y00323
X00032Y00332
X00052Y00378
X00073Y00374
Y00367
Y00384
Y00391
X00098Y00336
X00149Y00308
X00172Y00308
Y00302
X00174Y00293
X00181
X00184Y00329
X00177
X00154Y0027
X00145Y00246
X00184
X00188Y00189
X00178
Y00147
X00188
X00189Y00125
X00176Y00123
X00035Y0012
Y00127
Y00134
Y00141
X-00021Y00128
X-00028Y0012
X-00038
Y00127
Y00134
Y00141
X-00072Y00362
X-00073Y00386
X-00065Y00395
X-0005Y00405
Y00427
Y00434
Y00441
X-00043Y00449
X-00053Y0047
Y00477
Y00484
Y00491
X-00036Y00498
X-00033Y00507
X-00024Y00463
X00005Y00449
X00012
X00019
X00026
X00033
X0004
X00047
X-00073Y00437
X-00095Y00452
Y00459
Y00466
Y00473
Y0048
Y00487
Y00494
Y00501
X-00102
Y00494
Y00487
Y0048
Y00473
Y00466
Y00459
Y00452
X00178Y00442
X00266Y00417
X00273
X0028
X00287
X00294
X00291Y00406
Y00399
Y00392
Y00377
Y0037
Y00363
X00292Y0029
Y00283
Y00276
X00287Y00261
X00274
X00301
X00300965Y00249023
X00317Y00254
Y00263
X00323Y00281
X0033
X00321Y0029
Y00296
X00346Y00298
X00346Y00291
Y00305
X00361Y00281
X00369
X0041Y00292
X00416Y00296
X00422Y00292
X00428Y00296
Y00312
X00422Y00308
X00416Y00312
X0041Y00308
X00419Y00279
X00427Y00179
X0041Y00165
X00432Y00151
X00452Y0016
X00465Y00165
X00483Y00173
X005Y00139
X00503Y0013
X00501Y0012
X00482
Y00114
X0039Y00126
X00378Y0014
X00366Y00162
Y00179
X00383Y00186
X00306Y00206
Y00213
X00312Y00232
X00291
X00284Y00242
X0026Y00232
X00246
X00246Y00246
X00232Y00232
X00246Y00217
X00251Y00194
X00271Y00191
X00281Y00197
Y00204
X00261Y00175
X00254Y00168
X0024Y00167
X00216Y00168
X00205
X00198
Y00147
X00203Y0013
X0021Y00115
X00221Y00146
X00238Y00143
X00244Y00139
X0027Y00166
X00316Y00145
Y00139
X00228Y00192
X00216Y0019
X00207Y00189
X00208Y00212
X00201
X00194Y0027
X00197Y00303
X00197Y0031
X00197Y00317
X0022Y00293
X00247Y00292
X00254
Y00272
X00317Y00415
X00325
X00333
X00329Y00421
X00321
X00325Y00483
X00414Y00452
X00405Y00438
X00456Y00436
X00485Y0043
X00495Y00439
Y00446
X00502
Y00439
X00512
X00519
X00526
X00533
X00529Y00445
X00522
X00515
X00512Y00451
X00519
X00526
X00533
X00502Y00453
Y0046
X00495
Y00453
X00485Y00455
X00471Y00386
X00434Y00382
X00396Y00386
X00362Y0038
X00513Y00322
X00515Y002
X00548135Y00171753
X00548Y00165
X00555
Y00172
Y00158
X00548
X00455Y0053
X00435Y00519
X00427Y00552
Y0056
X00413Y005706
Y00586
X00397
Y005706
X0038Y00571
X00374Y00592
X0038Y006144
X00397Y00614
X00413
X00427Y006034
Y005954
X00413Y005426
X00397
X00374Y00548
X003158Y005464
Y005564
X003058
Y005464
X002958
Y005564
X002858
Y005464
Y005316
Y005216
X002958
Y005316
X003058
Y005216
X003158
Y005316
X00313Y00581
X00306
X00299
X0027925Y00599
X0027925Y00606
X0027925Y00613
X0026025Y00606
X00258Y00563
X0022725Y00581
X00211Y00581
X00204
X00197
X0022725Y00631
X0023525
X00228Y00674
X00211Y00674
X00204
X00197
X00228Y00724
X00236
X00261Y00699
X0028
X0028Y00692
Y00706
Y00734
Y00742
X00299Y00674
X00306
X00313
X0033Y00669
X00337
X00344
X00331Y00643
X0027925Y00641
Y00649
X0038Y00673
X00387
X00394
X00401
X00489Y0065
X00496
X00503
Y0064
X00496
X00489
Y0063
X00496
X00503
Y0062
X00496
X00489
X00543Y0068
X00551
X00559
X00555Y00685
X00547
X00551Y0069
X00543
X00559
X00553Y0076
X00258Y00514
X00138Y00513
X00131
X00124
X00117
X00102Y00515
X0012382Y00528
X00126Y00581
Y00631
X00134
X00159Y00606
X00178
X00178Y00599
Y00613
Y00641
Y00649
Y00692
X00178Y00699
X00178Y00706
X00159Y00699
X00134Y00724
X00126
Y00674
X0006Y00675
Y00682
Y00668
Y00622
Y00615
Y00608
Y00562
Y00555
Y00548
X-00031
Y00555
Y00562
Y00608
Y00615
Y00622
Y00668
Y00675
Y00682
X-00083Y00512
X00178Y00734
Y00742
X-00391Y00725
T03
X-00168Y-00022
Y-00002
Y00018
Y00038
Y00058
Y00078
Y00098
X-00148
Y00078
Y00058
Y00038
Y00018
Y-00002
Y-00022
Y00118
X-00168
Y00138
Y00158
Y00178
Y00198
X-00148
Y00178
Y00158
Y00138
T04
X0050173Y00263
X00503Y00293
Y00311
Y00341
X00573
Y00263
X00643
Y00341
T05
X-00128Y0022495
Y0035705
T06
X0048Y-0073
X-004Y-00375
X0042Y0
X-004
Y00375
X0048Y0073
T07
X-00047Y-00105975
T08
X0022365Y-002871
X0023381Y-002109
X0021349
T09
X-00047Y0010597
T10
X00643Y00302
Y00368
M30
