G04*
G04 #@! TF.GenerationSoftware,Altium Limited,Altium Designer,24.9.1 (31)*
G04*
G04 Layer_Color=65535*
%FSLAX44Y44*%
%MOMM*%
G71*
G04*
G04 #@! TF.SameCoordinates,CDEC626A-A255-468D-B0CC-3EE591A55D7D*
G04*
G04*
G04 #@! TF.FilePolarity,Positive*
G04*
G01*
G75*
%ADD10C,0.2500*%
%ADD11C,0.5000*%
%ADD12C,0.4000*%
%ADD13C,0.6000*%
%ADD14C,0.2000*%
%ADD15C,0.2540*%
%ADD16C,0.1000*%
%ADD17C,0.1270*%
%ADD18R,0.8000X0.1500*%
D10*
X363250Y392268D02*
G03*
X363250Y392268I-1250J0D01*
G01*
X433250D02*
G03*
X433250Y392268I-1250J0D01*
G01*
X216250Y-92500D02*
G03*
X216250Y-92500I-1250J0D01*
G01*
X269250D02*
G03*
X269250Y-92500I-1250J0D01*
G01*
X322250D02*
G03*
X322250Y-92500I-1250J0D01*
G01*
X375250D02*
G03*
X375250Y-92500I-1250J0D01*
G01*
X453750Y-345000D02*
G03*
X453750Y-345000I-1250J0D01*
G01*
Y-293000D02*
G03*
X453750Y-293000I-1250J0D01*
G01*
Y-241000D02*
G03*
X453750Y-241000I-1250J0D01*
G01*
X363750Y-19000D02*
G03*
X363750Y-19000I-1250J0D01*
G01*
X267495Y30600D02*
G03*
X267495Y30600I-1250J0D01*
G01*
X210250Y500D02*
G03*
X210250Y500I-1250J0D01*
G01*
X459250Y117000D02*
G03*
X459250Y117000I-1250J0D01*
G01*
X427250Y131000D02*
G03*
X427250Y131000I-1250J0D01*
G01*
X306275Y103473D02*
G03*
X306275Y103473I-1250J0D01*
G01*
X177689Y-633000D02*
G03*
X177689Y-633000I-1250J0D01*
G01*
X344250Y118000D02*
G03*
X344250Y118000I-1250J0D01*
G01*
X456250Y141000D02*
G03*
X456250Y141000I-1250J0D01*
G01*
X370700Y106500D02*
G03*
X370700Y106500I-1250J0D01*
G01*
X373250Y128000D02*
G03*
X373250Y128000I-1250J0D01*
G01*
X341250Y142000D02*
G03*
X341250Y142000I-1250J0D01*
G01*
X344250Y162000D02*
G03*
X344250Y162000I-1250J0D01*
G01*
X456250Y97000D02*
G03*
X456250Y97000I-1250J0D01*
G01*
X-180000Y-454750D02*
G03*
X-180000Y-454750I-1250J0D01*
G01*
X-28764Y33529D02*
G03*
X-28764Y33529I-1250J0D01*
G01*
X179000Y442500D02*
G03*
X179000Y442500I-1250J0D01*
G01*
X389900Y-168500D02*
G03*
X389900Y-168500I-1250J0D01*
G01*
X-10750Y-524500D02*
G03*
X-10750Y-524500I-1250J0D01*
G01*
X453750Y-189000D02*
G03*
X453750Y-189000I-1250J0D01*
G01*
X-121250Y-22000D02*
G03*
X-121250Y-22000I-1250J0D01*
G01*
X-126750Y207700D02*
G03*
X-126750Y207700I-1250J0D01*
G01*
X402459Y-411000D02*
G03*
X402459Y-411000I-1250J0D01*
G01*
X224250Y197000D02*
G03*
X224250Y197000I-1250J0D01*
G01*
X245250Y168000D02*
G03*
X245250Y168000I-1250J0D01*
G01*
X312750Y222000D02*
G03*
X312750Y222000I-500J0D01*
G01*
X410465Y710395D02*
G03*
X410465Y710395I-1250J0D01*
G01*
X341500Y-623250D02*
G03*
X341500Y-623250I-1250J0D01*
G01*
X-285750Y-320750D02*
G03*
X-285750Y-320750I-1250J0D01*
G01*
X-66250Y-163000D02*
G03*
X-66250Y-163000I-1250J0D01*
G01*
X338250Y-375500D02*
G03*
X338250Y-375500I-1250J0D01*
G01*
X21250Y-98561D02*
G03*
X21250Y-98561I-1250J0D01*
G01*
X-261311Y-299000D02*
G03*
X-261311Y-299000I-1250J0D01*
G01*
X269250Y-628439D02*
G03*
X269250Y-628439I-1250J0D01*
G01*
X373811Y288000D02*
G03*
X373811Y288000I-1250J0D01*
G01*
X224811Y300000D02*
G03*
X224811Y300000I-1250J0D01*
G01*
X-229735Y-132465D02*
G03*
X-229735Y-132465I-1250J0D01*
G01*
X427727Y-134000D02*
G03*
X427727Y-134000I-1250J0D01*
G01*
X193750Y-540450D02*
G03*
X193750Y-540450I-1250J0D01*
G01*
X-389000Y-170750D02*
G03*
X-389000Y-170750I-1250J0D01*
G01*
X253750Y-464000D02*
G03*
X253750Y-464000I-1250J0D01*
G01*
X9250Y-559000D02*
G03*
X9250Y-559000I-1250J0D01*
G01*
X427521Y593500D02*
G03*
X427521Y593500I-1250J0D01*
G01*
Y550100D02*
G03*
X427521Y550100I-1250J0D01*
G01*
X341500Y-509250D02*
G03*
X341500Y-509250I-1250J0D01*
G01*
X344250Y519950D02*
G03*
X344250Y519950I-1250J0D01*
G01*
X324250Y680000D02*
G03*
X324250Y680000I-1250J0D01*
G01*
X337250Y465000D02*
G03*
X337250Y465000I-1250J0D01*
G01*
X291250Y367000D02*
G03*
X291250Y367000I-1250J0D01*
G01*
X291254Y399073D02*
G03*
X291254Y399073I-1250J0D01*
G01*
X341250Y367000D02*
G03*
X341250Y367000I-1250J0D01*
G01*
Y399000D02*
G03*
X341250Y399000I-1250J0D01*
G01*
X342250Y646000D02*
G03*
X342250Y646000I-1250J0D01*
G01*
X248035Y429605D02*
G03*
X248035Y429605I-1250J0D01*
G01*
X291621Y460845D02*
G03*
X291621Y460845I-1250J0D01*
G01*
X343750Y-448250D02*
G03*
X343750Y-448250I-1250J0D01*
G01*
X236250Y-333500D02*
G03*
X236250Y-333500I-1250J0D01*
G01*
D11*
X290500Y15000D02*
G03*
X290500Y15000I-2500J0D01*
G01*
X-103000Y-456000D02*
G03*
X-103000Y-456000I-2000J0D01*
G01*
D12*
X382000Y128000D02*
G03*
X382000Y128000I-2000J0D01*
G01*
X216000Y-551000D02*
G03*
X216000Y-551000I-2000J0D01*
G01*
D13*
X-15964Y58529D02*
G03*
X-15964Y58529I-3000J0D01*
G01*
X381000Y-194000D02*
G03*
X381000Y-194000I-3000J0D01*
G01*
X365000Y-634500D02*
G03*
X365000Y-634500I-3000J0D01*
G01*
X365000Y-520500D02*
G03*
X365000Y-520500I-3000J0D01*
G01*
X324500Y-436500D02*
G03*
X324500Y-436500I-3000J0D01*
G01*
D14*
X479000Y293000D02*
G03*
X479000Y293000I-1000J0D01*
G01*
X448000Y205000D02*
G03*
X448000Y205000I-1000J0D01*
G01*
X-226000Y-556000D02*
G03*
X-226000Y-556000I-1000J0D01*
G01*
X150000Y724000D02*
G03*
X150000Y724000I-1000J0D01*
G01*
X252000D02*
G03*
X252000Y724000I-1000J0D01*
G01*
X150000Y631000D02*
G03*
X150000Y631000I-1000J0D01*
G01*
X251250D02*
G03*
X251250Y631000I-1000J0D01*
G01*
X-101500Y-572000D02*
G03*
X-101500Y-572000I-500J0D01*
G01*
X356525Y427460D02*
X405575D01*
Y441040D01*
X356525D02*
X405575D01*
X356525Y427460D02*
Y441040D01*
X426525Y427460D02*
X475575D01*
Y441040D01*
X426525D02*
X475575D01*
X426525Y427460D02*
Y441040D01*
X226500Y-86500D02*
X243500D01*
Y-117500D02*
Y-117250D01*
Y-86750D02*
Y-86500D01*
X226500Y-117500D02*
X243500D01*
X226500D02*
Y-117250D01*
Y-86750D02*
Y-86500D01*
X279500Y-86750D02*
Y-86500D01*
Y-117500D02*
Y-117250D01*
Y-117500D02*
X296500D01*
Y-86750D02*
Y-86500D01*
Y-117500D02*
Y-117250D01*
X279500Y-86500D02*
X296500D01*
X332500Y-86750D02*
Y-86500D01*
Y-117500D02*
Y-117250D01*
Y-117500D02*
X349500D01*
Y-86750D02*
Y-86500D01*
Y-117500D02*
Y-117250D01*
X332500Y-86500D02*
X349500D01*
X385500Y-86750D02*
Y-86500D01*
Y-117500D02*
Y-117250D01*
Y-117500D02*
X402500D01*
Y-86750D02*
Y-86500D01*
Y-117500D02*
Y-117250D01*
X385500Y-86500D02*
X402500D01*
X458500Y-373500D02*
Y-356500D01*
X427500Y-373500D02*
X427750D01*
X458250D02*
X458500D01*
X427500D02*
Y-356500D01*
X427750D01*
X458250D02*
X458500D01*
Y-321500D02*
Y-304500D01*
X427500Y-321500D02*
X427750D01*
X458250D02*
X458500D01*
X427500D02*
Y-304500D01*
X427750D01*
X458250D02*
X458500D01*
Y-269500D02*
Y-252500D01*
X427500Y-269500D02*
X427750D01*
X458250D02*
X458500D01*
X427500D02*
Y-252500D01*
X427750D01*
X458250D02*
X458500D01*
X366000Y-11500D02*
Y-7500D01*
X369000D01*
X384000Y-11500D02*
Y-7500D01*
X381000D02*
X384000D01*
X279500Y23500D02*
X334500D01*
Y-31500D02*
Y23500D01*
X279500Y-31500D02*
X334500D01*
X279500D02*
Y23500D01*
X335750Y65750D02*
Y66250D01*
X326250Y65750D02*
Y66250D01*
X235000Y-39500D02*
Y-6500D01*
X199000Y-39500D02*
Y-6500D01*
X439250Y121500D02*
X444750D01*
X439250Y112500D02*
X444750D01*
X439250Y126500D02*
X444750D01*
X439250Y135500D02*
X444750D01*
X294964Y96973D02*
Y98312D01*
Y128633D02*
Y129973D01*
X261964D02*
X266814D01*
X290114D02*
X294964D01*
X261964Y96973D02*
Y98312D01*
Y128633D02*
Y129973D01*
Y96973D02*
X266814D01*
X290114D02*
X294964D01*
X186500Y-627839D02*
Y-626500D01*
Y-659500D02*
Y-658161D01*
X214650Y-659500D02*
X219500D01*
X186500D02*
X191350D01*
X219500Y-627839D02*
Y-626500D01*
Y-659500D02*
Y-658161D01*
X214650Y-626500D02*
X219500D01*
X186500D02*
X191350D01*
X11000Y289500D02*
X19000D01*
X11000Y314500D02*
X19000D01*
X-37000Y306500D02*
X-29000D01*
X-37000Y331500D02*
X-29000D01*
X-37000Y274500D02*
X-29000D01*
X-37000Y299500D02*
X-29000D01*
X-54500Y225500D02*
X-11500D01*
Y268500D01*
X-54500D02*
X-11500D01*
X-54500Y225500D02*
Y268500D01*
X338600Y101500D02*
Y109650D01*
X332000Y101500D02*
X338600D01*
X309400D02*
Y109650D01*
Y101500D02*
X316000D01*
X459400Y149350D02*
Y157500D01*
X466000D01*
X488600Y149350D02*
Y157500D01*
X482000D02*
X488600D01*
X372000Y120000D02*
X422000D01*
X372000Y140000D02*
X422000D01*
X372000Y120000D02*
Y140000D01*
X422000Y120000D02*
Y140000D01*
X353250Y132500D02*
X358750D01*
X353250Y123500D02*
X358750D01*
X353250Y137500D02*
X358750D01*
X353250Y146500D02*
X358750D01*
X338600Y145500D02*
Y153650D01*
X332000Y145500D02*
X338600D01*
X309400D02*
Y153650D01*
Y145500D02*
X316000D01*
X459400Y105350D02*
Y113500D01*
X466000D01*
X488600Y105350D02*
Y113500D01*
X482000D02*
X488600D01*
X-232250Y-456250D02*
X-227750D01*
X-232250D02*
Y-451750D01*
Y-411750D02*
X-227750D01*
X-232250Y-416250D02*
Y-411750D01*
X-192250D02*
X-187750D01*
Y-416250D02*
Y-411750D01*
X-192250Y-456250D02*
X-187750D01*
Y-451750D01*
X-28964Y48529D02*
X24036D01*
X-28964Y86529D02*
X24036D01*
X-28964Y48529D02*
Y86529D01*
X24036Y48529D02*
Y86529D01*
X71000Y424000D02*
X163000D01*
X71000Y488750D02*
Y496000D01*
Y453750D02*
Y466250D01*
Y424000D02*
Y431250D01*
Y496000D02*
X163000D01*
Y488750D02*
Y496000D01*
Y453750D02*
Y466250D01*
Y424000D02*
Y431250D01*
X258000Y-184000D02*
X388000D01*
X258000Y-244000D02*
X388000D01*
Y-184000D01*
X258000Y-244000D02*
Y-184000D01*
X-234750Y-253000D02*
X-225000D01*
Y-231250D02*
Y-223000D01*
Y-253000D02*
Y-244750D01*
X-234750Y-223000D02*
X-225000D01*
X-239000Y-240750D02*
Y-235250D01*
X245000Y-165500D02*
X248000D01*
Y-169500D02*
Y-165500D01*
X230000D02*
X233000D01*
X230000Y-169500D02*
Y-165500D01*
X219000D02*
X222000D01*
Y-169500D02*
Y-165500D01*
X204000D02*
X207000D01*
X204000Y-169500D02*
Y-165500D01*
X193000D02*
X196000D01*
Y-169500D02*
Y-165500D01*
X178000D02*
X181000D01*
X178000Y-169500D02*
Y-165500D01*
X-202000Y-521500D02*
X-199000D01*
X-202000D02*
Y-517500D01*
X-187000Y-521500D02*
X-184000D01*
Y-517500D01*
X-500Y-546000D02*
Y-543000D01*
X-4500Y-546000D02*
X-500D01*
Y-531000D02*
Y-528000D01*
X-4500D02*
X-500D01*
X218500Y144000D02*
Y147000D01*
X222500D01*
X218500Y129000D02*
Y132000D01*
Y129000D02*
X222500D01*
X218500Y164000D02*
Y167000D01*
X222500D01*
X218500Y149000D02*
Y152000D01*
Y149000D02*
X222500D01*
X458500Y-217500D02*
Y-200500D01*
X427500Y-217500D02*
X427750D01*
X458250D02*
X458500D01*
X427500D02*
Y-200500D01*
X427750D01*
X458250D02*
X458500D01*
X-178320Y-34500D02*
X-137680D01*
Y208700D02*
Y210500D01*
Y-34500D02*
Y-32700D01*
X-178320Y210500D02*
X-137680D01*
X-178320Y208700D02*
Y210500D01*
Y-34500D02*
Y-32700D01*
X-90570Y357050D02*
X-60700Y326700D01*
X-90570Y224950D02*
X-60700Y255300D01*
X-112250Y224950D02*
X-90570D01*
X-60700Y255300D02*
Y326700D01*
X-181400Y224950D02*
Y357050D01*
Y224950D02*
X-143750D01*
X-112250Y357050D02*
X-90570D01*
X-181400D02*
X-143750D01*
X443000Y-441000D02*
X448000D01*
Y-436000D01*
X443000Y-401000D02*
X448000D01*
Y-406000D02*
Y-401000D01*
X408000Y-441000D02*
X413000D01*
X408000D02*
Y-436000D01*
Y-401000D02*
X413000D01*
X408000Y-406000D02*
Y-401000D01*
X-228500Y-208500D02*
Y-165500D01*
X-271500Y-208500D02*
X-228500D01*
X-271500D02*
Y-165500D01*
X-228500D01*
X38030Y581670D02*
X65970D01*
X38030Y528330D02*
X65970D01*
X215500Y201500D02*
Y207000D01*
Y257000D02*
Y262500D01*
X271000D02*
X276500D01*
X215500D02*
X221000D01*
X276500Y201500D02*
Y207000D01*
Y257000D02*
Y262500D01*
X271000Y201500D02*
X276500D01*
X215500D02*
X221000D01*
X261250Y142250D02*
Y163750D01*
X236750Y142250D02*
Y163750D01*
X410000Y657000D02*
Y703000D01*
X370000Y657000D02*
Y703000D01*
X407715D02*
X410000D01*
X407715Y657000D02*
X410000D01*
X370000Y703000D02*
X372285D01*
X370000Y657000D02*
X372285D01*
X352000Y-675500D02*
X386000D01*
X352000Y-624500D02*
X386000D01*
Y-675500D02*
Y-624500D01*
X352000Y-675500D02*
Y-624500D01*
X-331250Y-367500D02*
Y-318500D01*
X-301750Y-314000D02*
Y-299000D01*
Y-314000D02*
X-292750D01*
Y-323500D02*
Y-314000D01*
Y-372000D02*
Y-362500D01*
X-301750Y-387000D02*
Y-372000D01*
X-292750D01*
X-36970Y528330D02*
X-9030D01*
X-36970Y581670D02*
X-9030D01*
X38030Y641670D02*
X65970D01*
X38030Y588330D02*
X65970D01*
X-36970D02*
X-9030D01*
X-36970Y641670D02*
X-9030D01*
X38030Y701670D02*
X65970D01*
X38030Y648330D02*
X65970D01*
X-36970D02*
X-9030D01*
X-36970Y701670D02*
X-9030D01*
X-60500Y-173000D02*
X-27500D01*
X-60500Y-137000D02*
X-27500D01*
X329500Y-382000D02*
Y-380661D01*
Y-350339D02*
Y-349000D01*
X296500D02*
X301350D01*
X324650D02*
X329500D01*
X296500Y-382000D02*
Y-380661D01*
Y-350339D02*
Y-349000D01*
Y-382000D02*
X301350D01*
X324650D02*
X329500D01*
X13500Y-88500D02*
X14839D01*
X45161D02*
X46500D01*
Y-60350D02*
Y-55500D01*
Y-88500D02*
Y-83650D01*
X13500Y-55500D02*
X14839D01*
X45161D02*
X46500D01*
X13500Y-60350D02*
Y-55500D01*
Y-88500D02*
Y-83650D01*
X-252500Y-293839D02*
Y-292500D01*
Y-325500D02*
Y-324161D01*
X-224350Y-325500D02*
X-219500D01*
X-252500D02*
X-247650D01*
X-219500Y-293839D02*
Y-292500D01*
Y-325500D02*
Y-324161D01*
X-224350Y-292500D02*
X-219500D01*
X-252500D02*
X-247650D01*
X273161Y-638500D02*
X274500D01*
X241500D02*
X242839D01*
X241500Y-671500D02*
Y-666650D01*
Y-643350D02*
Y-638500D01*
X273161Y-671500D02*
X274500D01*
X241500D02*
X242839D01*
X274500D02*
Y-666650D01*
Y-643350D02*
Y-638500D01*
X362500Y281500D02*
Y282839D01*
Y313161D02*
Y314500D01*
X329500D02*
X334350D01*
X357650D02*
X362500D01*
X329500Y281500D02*
Y282839D01*
Y313161D02*
Y314500D01*
Y281500D02*
X334350D01*
X357650D02*
X362500D01*
X213500Y293500D02*
Y294839D01*
Y325161D02*
Y326500D01*
X180500D02*
X185350D01*
X208650D02*
X213500D01*
X180500Y293500D02*
Y294839D01*
Y325161D02*
Y326500D01*
Y293500D02*
X185350D01*
X208650D02*
X213500D01*
X-268516Y-139965D02*
X-240516D01*
X-268516Y-105965D02*
X-240516D01*
X436008Y-126500D02*
X464008D01*
X436008Y-160500D02*
X464008D01*
X206000Y-593000D02*
Y-543000D01*
X226000Y-593000D02*
Y-543000D01*
X206000D02*
X226000D01*
X206000Y-593000D02*
X226000D01*
X-369500Y-165500D02*
Y-164000D01*
Y-275000D02*
Y-273500D01*
X-308750Y-275000D02*
X-307500D01*
X-369500D02*
X-368250D01*
X-307500Y-165500D02*
Y-164000D01*
Y-275000D02*
Y-273500D01*
X-308750Y-164000D02*
X-307500D01*
X-369500D02*
X-368250D01*
X269000Y-497000D02*
Y-489000D01*
X266000Y-497000D02*
X269000D01*
Y-475000D02*
Y-467000D01*
X266000D02*
X269000D01*
X-64750Y-564250D02*
X16750D01*
X-64750Y-625750D02*
Y-564250D01*
Y-625750D02*
X16750D01*
Y-564250D01*
X394500Y587500D02*
X415500D01*
X394500Y612500D02*
X415500D01*
X394500Y544100D02*
X415500D01*
X394500Y569100D02*
X415500D01*
X352000Y-561500D02*
Y-510500D01*
X386000Y-561500D02*
Y-510500D01*
X352000D02*
X386000D01*
X352000Y-561500D02*
X386000D01*
X-375000Y-484700D02*
X-365000Y-474700D01*
X-315000Y-687300D02*
Y-474700D01*
X-375000Y-687300D02*
X-315000D01*
X-375000D02*
Y-474700D01*
X-315000D01*
X327663Y676813D02*
Y710312D01*
X360013Y676813D02*
X361162D01*
X327663D02*
X328812D01*
X361162D02*
Y710312D01*
X360013D02*
X361162D01*
X327663D02*
X328812D01*
X342500Y426250D02*
Y459750D01*
X309000D02*
X310150D01*
X341350D02*
X342500D01*
X309000Y426250D02*
Y459750D01*
Y426250D02*
X310150D01*
X341350D02*
X342500D01*
X-119500Y400500D02*
X-76500D01*
Y443500D01*
X-119500D02*
X-76500D01*
X-119500Y400500D02*
Y443500D01*
X-152250Y-230750D02*
X-151750D01*
X-152250Y-221250D02*
X-151750D01*
X-152250Y-215750D02*
X-151750D01*
X-152250Y-206250D02*
X-151750D01*
X288250Y-474250D02*
Y-473750D01*
X297750Y-474250D02*
Y-473750D01*
X87750Y-525250D02*
Y-524750D01*
X78250Y-525250D02*
Y-524750D01*
X418809Y675108D02*
Y684892D01*
X437191Y675108D02*
Y684892D01*
X317108Y473809D02*
X326892D01*
X317108Y492191D02*
X326892D01*
X498250Y-371250D02*
Y-368750D01*
X487750Y-371250D02*
Y-368750D01*
X494250Y-39250D02*
Y-36750D01*
X483750Y-39250D02*
Y-36750D01*
X480750Y-685250D02*
X483250D01*
X480750Y-674750D02*
X483250D01*
X251000Y355250D02*
X281000D01*
X251000Y378750D02*
X281000D01*
X251000Y387250D02*
X281000D01*
X251000Y410750D02*
X281000D01*
X301000Y355250D02*
X331000D01*
X301000Y378750D02*
X331000D01*
X301000Y387250D02*
X331000D01*
X301000Y410750D02*
X331000D01*
X-243740Y-102500D02*
X-242260D01*
X-243740Y-94502D02*
X-242260D01*
X437752Y-163965D02*
X439232D01*
X437752Y-171963D02*
X439232D01*
X356000Y647250D02*
Y660750D01*
X348000Y647250D02*
Y660750D01*
Y647250D02*
X356000D01*
X348000Y660750D02*
X356000D01*
X283715Y483000D02*
X286000D01*
X283715Y437000D02*
X286000D01*
X246000Y483000D02*
X248285D01*
X246000Y437000D02*
X248285D01*
X286000D02*
Y483000D01*
X246000Y437000D02*
Y483000D01*
X291250Y444000D02*
X304750D01*
X291250Y452000D02*
X304750D01*
X291250Y444000D02*
Y452000D01*
X304750Y444000D02*
Y452000D01*
X438000Y588260D02*
Y589740D01*
X430002Y588260D02*
Y589740D01*
X438000Y544860D02*
Y546340D01*
X430002Y544860D02*
Y546340D01*
X-670Y446030D02*
Y473970D01*
X52670Y446030D02*
Y473970D01*
X185330Y446030D02*
Y473970D01*
X238670Y446030D02*
Y473970D01*
X-370500Y-152500D02*
X-362500D01*
X-370500Y-128500D02*
X-362500D01*
X-370500Y-121500D02*
X-362500D01*
X-370500Y-97500D02*
X-362500D01*
X-330500D02*
X-322500D01*
X-330500Y-121500D02*
X-322500D01*
X-330500Y-128500D02*
X-322500D01*
X-330500Y-152500D02*
X-322500D01*
X174000Y729500D02*
X182000D01*
X174000Y754500D02*
X182000D01*
X276000Y729500D02*
X284000D01*
X276000Y754500D02*
X284000D01*
X174000Y636500D02*
X182000D01*
X174000Y661500D02*
X182000D01*
X275250Y636500D02*
X283250D01*
X275250Y661500D02*
X283250D01*
X-102000Y481500D02*
X-94000D01*
X-102000Y506500D02*
X-94000D01*
X-102000Y449500D02*
X-94000D01*
X-102000Y474500D02*
X-94000D01*
X-54000Y464500D02*
X-46000D01*
X-54000Y489500D02*
X-46000D01*
X294500Y-395500D02*
X331500D01*
X294500Y-446500D02*
X331500D01*
X294500D02*
Y-395500D01*
X331500Y-446500D02*
Y-395500D01*
X221500Y-330500D02*
X224500D01*
X221500Y-299500D02*
X224500D01*
Y-330500D02*
Y-299500D01*
X221500Y-330500D02*
Y-299500D01*
X430000Y609260D02*
Y610740D01*
X437998Y609260D02*
Y610740D01*
X430000Y565860D02*
Y567340D01*
X437998Y565860D02*
Y567340D01*
D15*
X136000Y566000D02*
G03*
X136000Y566000I-1000J0D01*
G01*
X-11000Y200000D02*
G03*
X-11000Y200000I-1000J0D01*
G01*
X232540Y-287100D02*
X238890Y-280750D01*
Y-223600D01*
X208410Y-280750D02*
X214760Y-287100D01*
X208410Y-280750D02*
Y-223600D01*
D16*
X-249500Y-92500D02*
G03*
X-249500Y-92500I-500J0D01*
G01*
X445992Y-173965D02*
G03*
X445992Y-173965I-500J0D01*
G01*
X430500Y580000D02*
G03*
X430500Y580000I-500J0D01*
G01*
Y537000D02*
G03*
X430500Y537000I-500J0D01*
G01*
X438500Y618000D02*
G03*
X438500Y618000I-500J0D01*
G01*
Y575000D02*
G03*
X438500Y575000I-500J0D01*
G01*
D17*
X-319112Y-486640D02*
X-319535Y-485793D01*
X-320382Y-484947D01*
X-321228Y-484523D01*
X-322498Y-484100D01*
X-324614D01*
X-325884Y-484523D01*
X-326730Y-484947D01*
X-327577Y-485793D01*
X-328000Y-486640D01*
Y-488332D01*
X-327577Y-489179D01*
X-326730Y-490025D01*
X-325884Y-490449D01*
X-324614Y-490872D01*
X-322498D01*
X-321228Y-490449D01*
X-320382Y-490025D01*
X-319535Y-489179D01*
X-319112Y-488332D01*
Y-486640D01*
Y-492946D02*
X-328000D01*
X-319112D02*
X-328000Y-498871D01*
X-319112D02*
X-328000D01*
D18*
X-137999Y-761749D02*
D03*
X-153999Y-761749D02*
D03*
X-169999D02*
D03*
X-265999Y-761749D02*
D03*
X-201999Y-761749D02*
D03*
X-281999Y-761749D02*
D03*
X-217999Y-761749D02*
D03*
X-297999Y-761749D02*
D03*
X-313999Y-761749D02*
D03*
X-233999Y-761749D02*
D03*
X-90000Y-761750D02*
D03*
X-106000Y-761750D02*
D03*
X-185999Y-761749D02*
D03*
X-249999Y-761749D02*
D03*
X-121999Y-761749D02*
D03*
M02*
