G04*
G04 #@! TF.GenerationSoftware,Altium Limited,Altium Designer,24.9.1 (31)*
G04*
G04 Layer_Color=16711935*
%FSLAX44Y44*%
%MOMM*%
G71*
G04*
G04 #@! TF.SameCoordinates,CDEC626A-A255-468D-B0CC-3EE591A55D7D*
G04*
G04*
G04 #@! TF.FilePolarity,Negative*
G04*
G01*
G75*
%ADD157R,0.6000X0.3500*%
%ADD158R,0.6000X0.5500*%
%ADD189C,1.2000*%
%ADD190C,1.3900*%
%ADD191R,1.3900X1.3900*%
%ADD192C,2.4500*%
%ADD193R,2.4500X2.4500*%
%ADD194O,1.7000X1.6000*%
%ADD195C,1.7000*%
%ADD196C,0.1000*%
%ADD197C,6.1000*%
%ADD198C,0.6000*%
%ADD206C,1.1000*%
G04:AMPARAMS|DCode=231|XSize=0.45mm|YSize=1.9mm|CornerRadius=0.1375mm|HoleSize=0mm|Usage=FLASHONLY|Rotation=90.000|XOffset=0mm|YOffset=0mm|HoleType=Round|Shape=RoundedRectangle|*
%AMROUNDEDRECTD231*
21,1,0.4500,1.6250,0,0,90.0*
21,1,0.1750,1.9000,0,0,90.0*
1,1,0.2750,0.8125,0.0875*
1,1,0.2750,0.8125,-0.0875*
1,1,0.2750,-0.8125,-0.0875*
1,1,0.2750,-0.8125,0.0875*
%
%ADD231ROUNDEDRECTD231*%
%ADD232R,1.7000X2.7000*%
D157*
X365000Y-526000D02*
D03*
Y-531000D02*
D03*
Y-541000D02*
D03*
Y-546000D02*
D03*
X373000D02*
D03*
Y-541000D02*
D03*
Y-531000D02*
D03*
Y-526000D02*
D03*
X365000Y-640000D02*
D03*
Y-645000D02*
D03*
Y-655000D02*
D03*
Y-660000D02*
D03*
X373000D02*
D03*
Y-655000D02*
D03*
Y-645000D02*
D03*
Y-640000D02*
D03*
D158*
X365000Y-536000D02*
D03*
X373000D02*
D03*
X365000Y-650000D02*
D03*
X373000D02*
D03*
D189*
X233810Y-210900D02*
D03*
X213490D02*
D03*
X223650Y-287100D02*
D03*
D190*
X-168000Y198000D02*
D03*
Y178000D02*
D03*
Y158000D02*
D03*
Y138000D02*
D03*
Y118000D02*
D03*
Y98000D02*
D03*
Y78000D02*
D03*
Y58000D02*
D03*
Y38000D02*
D03*
Y18000D02*
D03*
Y-2000D02*
D03*
Y-22000D02*
D03*
X-148000Y198000D02*
D03*
Y178000D02*
D03*
Y158000D02*
D03*
Y138000D02*
D03*
Y118000D02*
D03*
Y98000D02*
D03*
Y78000D02*
D03*
Y58000D02*
D03*
Y38000D02*
D03*
Y18000D02*
D03*
Y-2000D02*
D03*
D191*
Y-22000D02*
D03*
D192*
X-128000Y357050D02*
D03*
D193*
Y224950D02*
D03*
D194*
X503000Y293000D02*
D03*
Y311000D02*
D03*
D195*
X501730Y263000D02*
D03*
X573000D02*
D03*
X643000D02*
D03*
X573000Y341000D02*
D03*
X503000D02*
D03*
X643000D02*
D03*
D196*
Y302000D02*
D03*
Y368000D02*
D03*
X-47000Y-105975D02*
D03*
Y105970D02*
D03*
D197*
X-400000Y375000D02*
D03*
Y-375000D02*
D03*
X480000Y-730000D02*
D03*
Y730000D02*
D03*
X-400000Y0D02*
D03*
X420000D02*
D03*
D198*
X246000Y217000D02*
D03*
Y246000D02*
D03*
X260000Y232000D02*
D03*
X232000D02*
D03*
X246000D02*
D03*
X-319000Y-265000D02*
D03*
Y-252000D02*
D03*
Y-239000D02*
D03*
Y-226000D02*
D03*
Y-213000D02*
D03*
Y-200000D02*
D03*
Y-187000D02*
D03*
Y-174000D02*
D03*
X-332000Y-265000D02*
D03*
Y-252000D02*
D03*
Y-239000D02*
D03*
Y-226000D02*
D03*
Y-213000D02*
D03*
Y-200000D02*
D03*
Y-187000D02*
D03*
Y-174000D02*
D03*
X-345000Y-265000D02*
D03*
Y-252000D02*
D03*
Y-239000D02*
D03*
Y-226000D02*
D03*
Y-213000D02*
D03*
Y-200000D02*
D03*
Y-187000D02*
D03*
Y-174000D02*
D03*
X-358000Y-265000D02*
D03*
Y-252000D02*
D03*
Y-239000D02*
D03*
Y-226000D02*
D03*
Y-213000D02*
D03*
Y-200000D02*
D03*
Y-187000D02*
D03*
Y-174000D02*
D03*
D206*
X293000Y92000D02*
D03*
X174000Y-618000D02*
D03*
X416250Y131000D02*
D03*
X-18000Y337000D02*
D03*
X391000Y125000D02*
D03*
X445000Y464000D02*
D03*
X461000Y458000D02*
D03*
X387000Y452000D02*
D03*
X375000Y464000D02*
D03*
X476000Y165000D02*
D03*
X496000Y173000D02*
D03*
X486000Y151000D02*
D03*
X473000Y135000D02*
D03*
X470000Y118000D02*
D03*
X481000Y99000D02*
D03*
X257000Y-84000D02*
D03*
X235000Y-86000D02*
D03*
X310000Y-84000D02*
D03*
X288000Y-86000D02*
D03*
X363000Y-84000D02*
D03*
X341000Y-86000D02*
D03*
X416000Y-84000D02*
D03*
X394000Y-86000D02*
D03*
X461000Y-387000D02*
D03*
X459000Y-365000D02*
D03*
X461000Y-335000D02*
D03*
X459000Y-313000D02*
D03*
X461000Y-283000D02*
D03*
X459000Y-261000D02*
D03*
X15000Y230000D02*
D03*
X29000Y323000D02*
D03*
X-8000Y262000D02*
D03*
X274000Y-562000D02*
D03*
X166000Y-538000D02*
D03*
X306000Y-500000D02*
D03*
Y-572000D02*
D03*
X381000Y-570000D02*
D03*
Y-502000D02*
D03*
X115000Y-416000D02*
D03*
X306000Y-605000D02*
D03*
Y-695000D02*
D03*
X381000Y-686000D02*
D03*
Y-614000D02*
D03*
X57000Y-440000D02*
D03*
X45000D02*
D03*
X123000Y-367000D02*
D03*
X159000Y606000D02*
D03*
X372000Y-236000D02*
D03*
X306000Y-677000D02*
D03*
Y-623000D02*
D03*
X433000Y-668000D02*
D03*
Y-634000D02*
D03*
Y-621000D02*
D03*
X461000Y-231000D02*
D03*
X459000Y-209000D02*
D03*
X61000Y-335000D02*
D03*
X553000Y760000D02*
D03*
X-106000Y196000D02*
D03*
X-391000Y725000D02*
D03*
X220000Y34000D02*
D03*
X149000Y308000D02*
D03*
X355000Y-695000D02*
D03*
X-383000Y-744000D02*
D03*
X-262617Y-292383D02*
D03*
X189000Y125000D02*
D03*
X195000Y109000D02*
D03*
X271000Y191000D02*
D03*
X210000Y115000D02*
D03*
X270000Y166000D02*
D03*
X176000Y123000D02*
D03*
X203000Y130000D02*
D03*
X274000Y261000D02*
D03*
X287000D02*
D03*
X301000Y249000D02*
D03*
Y261000D02*
D03*
X-21000Y175000D02*
D03*
X-12000Y200000D02*
D03*
X16000Y184000D02*
D03*
X476492Y-167965D02*
D03*
X452492D02*
D03*
X-281000Y-98500D02*
D03*
X-254000Y-105000D02*
D03*
X248000Y-163000D02*
D03*
X-236000Y-216000D02*
D03*
X220000Y293000D02*
D03*
X275000Y-632000D02*
D03*
X67000Y-92000D02*
D03*
X469000Y-133000D02*
D03*
X361000Y272000D02*
D03*
X455000Y530000D02*
D03*
X102000Y515000D02*
D03*
X435000Y519000D02*
D03*
X258000Y514000D02*
D03*
X258000Y563000D02*
D03*
X-180000Y-323000D02*
D03*
X-181000Y-351000D02*
D03*
X241000Y-249000D02*
D03*
X217000Y-273000D02*
D03*
X241000Y-262000D02*
D03*
Y-236000D02*
D03*
X217000Y-234000D02*
D03*
X241000Y-224000D02*
D03*
X-155000Y-422000D02*
D03*
X-139000Y-432000D02*
D03*
X-285500Y-226500D02*
D03*
X-278000Y-201000D02*
D03*
X-425000Y-293000D02*
D03*
X-160000Y-291000D02*
D03*
X-289000Y-262000D02*
D03*
X-73000Y437000D02*
D03*
X-36000Y498000D02*
D03*
X-50000Y405000D02*
D03*
X-24000Y463000D02*
D03*
X-83000Y512000D02*
D03*
X330000Y669000D02*
D03*
X325000Y483000D02*
D03*
X178000Y442000D02*
D03*
X522000Y445000D02*
D03*
X533000Y-366000D02*
D03*
X522000Y-30000D02*
D03*
Y-700000D02*
D03*
X400000Y395000D02*
D03*
X362000D02*
D03*
X470000D02*
D03*
X432000D02*
D03*
X413000Y614000D02*
D03*
Y586000D02*
D03*
X397000Y614000D02*
D03*
Y586000D02*
D03*
Y542600D02*
D03*
X413000D02*
D03*
Y570600D02*
D03*
X397000D02*
D03*
X211000Y674000D02*
D03*
X313000D02*
D03*
X211000Y581000D02*
D03*
X313000D02*
D03*
D231*
X-50000Y92075D02*
D03*
Y85725D02*
D03*
Y79375D02*
D03*
Y73025D02*
D03*
Y66675D02*
D03*
Y60325D02*
D03*
Y53975D02*
D03*
Y47625D02*
D03*
Y41275D02*
D03*
Y34925D02*
D03*
Y28575D02*
D03*
Y22225D02*
D03*
Y15875D02*
D03*
Y9525D02*
D03*
Y3175D02*
D03*
Y-3175D02*
D03*
Y-9525D02*
D03*
Y-15875D02*
D03*
Y-22225D02*
D03*
Y-28575D02*
D03*
Y-34925D02*
D03*
Y-41275D02*
D03*
Y-47625D02*
D03*
Y-53975D02*
D03*
Y-60325D02*
D03*
Y-66675D02*
D03*
Y-73025D02*
D03*
Y-79375D02*
D03*
Y-85725D02*
D03*
Y-92075D02*
D03*
X50000Y92075D02*
D03*
Y85725D02*
D03*
Y79375D02*
D03*
Y73025D02*
D03*
Y66675D02*
D03*
Y60325D02*
D03*
Y53975D02*
D03*
Y47625D02*
D03*
Y41275D02*
D03*
Y34925D02*
D03*
Y28575D02*
D03*
Y22225D02*
D03*
Y15875D02*
D03*
Y9525D02*
D03*
Y3175D02*
D03*
Y-3175D02*
D03*
Y-9525D02*
D03*
Y-15875D02*
D03*
Y-22225D02*
D03*
Y-28575D02*
D03*
Y-34925D02*
D03*
Y-41275D02*
D03*
Y-47625D02*
D03*
Y-53975D02*
D03*
Y-60325D02*
D03*
Y-66675D02*
D03*
Y-73025D02*
D03*
Y-79375D02*
D03*
Y-85725D02*
D03*
Y-92075D02*
D03*
D232*
X-51000Y130250D02*
D03*
X51000D02*
D03*
Y-130250D02*
D03*
X-51000D02*
D03*
M02*
