G04*
G04 #@! TF.GenerationSoftware,Altium Limited,Altium Designer,24.9.1 (31)*
G04*
G04 Layer_Color=255*
%FSLAX44Y44*%
%MOMM*%
G71*
G04*
G04 #@! TF.SameCoordinates,25B5EA7A-0A89-4A72-9C9E-8463CCD4450D*
G04*
G04*
G04 #@! TF.FilePolarity,Positive*
G04*
G01*
G75*
%ADD23R,0.4500X0.4500*%
%ADD92R,2.1500X2.1500*%
%ADD93C,2.1500*%
%ADD99C,5.0000*%
%ADD100R,0.5000X1.0000*%
%ADD101C,2.0000*%
%ADD102R,4.0000X4.0000*%
%ADD103C,6.0000*%
%ADD104C,12.0000*%
%ADD105C,3.0000*%
%ADD107C,1.0000*%
%ADD108R,1.0500X3.2500*%
%ADD109R,5.8000X6.4000*%
%ADD110R,1.2000X2.2000*%
%ADD111R,5.5500X6.5000*%
%ADD112R,1.2500X2.8500*%
D23*
X-1108000Y349000D02*
D03*
Y357000D02*
D03*
X-1099000Y349000D02*
D03*
Y357000D02*
D03*
D92*
X-1072500Y-241500D02*
D03*
X-726500D02*
D03*
X-1072500Y193500D02*
D03*
X-726500D02*
D03*
X-1072500Y628500D02*
D03*
X-726500D02*
D03*
D93*
X-1072500Y-616500D02*
D03*
X-1275500Y-241500D02*
D03*
Y-616500D02*
D03*
X-726500D02*
D03*
X-929500Y-241500D02*
D03*
Y-616500D02*
D03*
X-1072500Y-181500D02*
D03*
X-1275500Y193500D02*
D03*
Y-181500D02*
D03*
X-726500D02*
D03*
X-929500Y193500D02*
D03*
Y-181500D02*
D03*
X-1072500Y253500D02*
D03*
X-1275500Y628500D02*
D03*
Y253500D02*
D03*
X-726500D02*
D03*
X-929500Y628500D02*
D03*
Y253500D02*
D03*
D99*
X232000Y634200D02*
D03*
X226000Y164200D02*
D03*
X220000Y-305800D02*
D03*
X-150000Y-225000D02*
D03*
D100*
X741000Y-420800D02*
D03*
X757000Y-451800D02*
D03*
X733000D02*
D03*
X741000D02*
D03*
X749000D02*
D03*
X757000Y-420800D02*
D03*
X749000D02*
D03*
X733000D02*
D03*
X741000Y49200D02*
D03*
X757000Y18200D02*
D03*
X733000D02*
D03*
X741000D02*
D03*
X749000D02*
D03*
X757000Y49200D02*
D03*
X749000D02*
D03*
X733000D02*
D03*
X741000Y519200D02*
D03*
X757000Y488200D02*
D03*
X733000D02*
D03*
X741000D02*
D03*
X749000D02*
D03*
X757000Y519200D02*
D03*
X749000D02*
D03*
X733000D02*
D03*
D101*
X605000Y-291300D02*
D03*
X626500D02*
D03*
X605000Y-91300D02*
D03*
X626500D02*
D03*
X648000D02*
D03*
Y-291300D02*
D03*
D102*
X-1180000Y720000D02*
D03*
X-1100000D02*
D03*
X-1020000D02*
D03*
D103*
X480000Y-730000D02*
D03*
Y730000D02*
D03*
X750000Y593700D02*
D03*
Y433700D02*
D03*
Y-36300D02*
D03*
Y123700D02*
D03*
Y-346300D02*
D03*
Y-506300D02*
D03*
Y-730000D02*
D03*
Y730000D02*
D03*
X-1300000Y-730000D02*
D03*
Y730000D02*
D03*
X420000Y0D02*
D03*
X-400000D02*
D03*
Y-375000D02*
D03*
Y375000D02*
D03*
D104*
X562500Y513700D02*
D03*
Y43700D02*
D03*
Y-426300D02*
D03*
X-582500Y563700D02*
D03*
Y373700D02*
D03*
Y93700D02*
D03*
Y-96300D02*
D03*
Y-376300D02*
D03*
Y-566300D02*
D03*
D105*
X98500Y664200D02*
D03*
X173500D02*
D03*
X251500Y409200D02*
D03*
Y368700D02*
D03*
X278500Y291200D02*
D03*
X98500Y194200D02*
D03*
X173500D02*
D03*
X251500Y-60800D02*
D03*
Y-101300D02*
D03*
X278500Y-178800D02*
D03*
X98500Y-275800D02*
D03*
X173500D02*
D03*
X278500Y-648800D02*
D03*
X251500Y-530800D02*
D03*
Y-571300D02*
D03*
X-231500Y632700D02*
D03*
Y-39800D02*
D03*
Y41200D02*
D03*
Y470700D02*
D03*
Y511200D02*
D03*
Y430200D02*
D03*
Y308700D02*
D03*
Y162700D02*
D03*
Y-428800D02*
D03*
Y-469300D02*
D03*
Y700D02*
D03*
Y-161300D02*
D03*
Y-631300D02*
D03*
Y-307300D02*
D03*
Y-509800D02*
D03*
D107*
X-200000Y200000D02*
D03*
X-216000D02*
D03*
X-200000Y236000D02*
D03*
X-298000Y256000D02*
D03*
Y230000D02*
D03*
X-219000Y264000D02*
D03*
X-49000Y201000D02*
D03*
X-66000Y-705000D02*
D03*
X7000Y-738000D02*
D03*
X-54000Y-510000D02*
D03*
X65000Y-247000D02*
D03*
X13000Y76000D02*
D03*
X-53500Y351451D02*
D03*
X63000Y685000D02*
D03*
X-12000Y-96000D02*
D03*
X48000Y-91000D02*
D03*
X-19000Y-686000D02*
D03*
X-40000Y656000D02*
D03*
X-58000Y186000D02*
D03*
X47000Y-316000D02*
D03*
X69000Y-23000D02*
D03*
X50000Y271000D02*
D03*
X-25000Y143000D02*
D03*
X57000Y-38000D02*
D03*
X-40000Y-293000D02*
D03*
X-19000Y-664000D02*
D03*
X251000Y485000D02*
D03*
Y15000D02*
D03*
Y-455000D02*
D03*
X-279000Y481000D02*
D03*
Y11000D02*
D03*
Y-458000D02*
D03*
X-198000Y417000D02*
D03*
X158000Y285000D02*
D03*
X-198000Y-53000D02*
D03*
X158000Y-185000D02*
D03*
X-198000Y-523000D02*
D03*
X158000Y-655000D02*
D03*
X-163000Y477000D02*
D03*
X230000Y561000D02*
D03*
X-163000Y7000D02*
D03*
X230000Y91000D02*
D03*
X-163000Y-463000D02*
D03*
X230000Y-379000D02*
D03*
X-207000Y597000D02*
D03*
X203000Y284000D02*
D03*
X-207000Y127000D02*
D03*
X203000Y-186000D02*
D03*
X-207000Y-343000D02*
D03*
X203000Y-656000D02*
D03*
X-182000Y697000D02*
D03*
X-201000Y710000D02*
D03*
X283500Y425000D02*
D03*
Y-44000D02*
D03*
Y-515000D02*
D03*
X-13000Y-144000D02*
D03*
X41000Y228000D02*
D03*
X8000Y-417000D02*
D03*
X-793600Y-676000D02*
D03*
X-680000Y-738000D02*
D03*
X-1179000Y681000D02*
D03*
X-1099000D02*
D03*
X-1019000D02*
D03*
X-1137000Y-664000D02*
D03*
D108*
X-1134000Y382000D02*
D03*
X-1076000D02*
D03*
D109*
X-1183000Y326800D02*
D03*
D110*
X-1160200Y389800D02*
D03*
X-1205800D02*
D03*
D111*
X-968000Y531000D02*
D03*
X-1112000Y530875D02*
D03*
X-1256000D02*
D03*
X-896000Y530875D02*
D03*
X-1040000Y530875D02*
D03*
X-1184000Y530875D02*
D03*
D112*
X-990860Y467000D02*
D03*
X-945140D02*
D03*
X-1134860Y466875D02*
D03*
X-1089140D02*
D03*
X-1278860D02*
D03*
X-1233140D02*
D03*
X-918860Y466875D02*
D03*
X-873140D02*
D03*
X-1062860Y466875D02*
D03*
X-1017140D02*
D03*
X-1206860Y466875D02*
D03*
X-1161140D02*
D03*
M02*
