G04*
G04 #@! TF.GenerationSoftware,Altium Limited,Altium Designer,24.9.1 (31)*
G04*
G04 Layer_Color=32768*
%FSLAX44Y44*%
%MOMM*%
G71*
G04*
G04 #@! TF.SameCoordinates,25B5EA7A-0A89-4A72-9C9E-8463CCD4450D*
G04*
G04*
G04 #@! TF.FilePolarity,Positive*
G04*
G01*
G75*
%ADD12C,0.2000*%
D12*
X490000Y-221750D02*
Y-210250D01*
Y-221750D02*
X512000D01*
Y-210250D01*
X490000D02*
X512000D01*
X-163500Y263250D02*
Y304750D01*
Y263250D02*
X-86500D01*
Y304750D01*
X-163500D02*
X-86500D01*
X-176250Y771350D02*
X-60250D01*
Y661350D02*
Y771350D01*
X-176250Y661350D02*
X-60250D01*
X-176250D02*
Y771350D01*
X-40500Y-737500D02*
X-9500D01*
X-40500D02*
Y-704500D01*
X-9500D01*
Y-737500D02*
Y-704500D01*
X25500Y667500D02*
X56500D01*
Y634500D02*
Y667500D01*
X25500Y634500D02*
X56500D01*
X25500D02*
Y667500D01*
Y197500D02*
X56500D01*
Y164500D02*
Y197500D01*
X25500Y164500D02*
X56500D01*
X25500D02*
Y197500D01*
Y-305500D02*
Y-272500D01*
Y-305500D02*
X56500D01*
Y-272500D01*
X25500D02*
X56500D01*
X-28750Y-754750D02*
Y-739250D01*
X-21250D01*
Y-754750D02*
Y-739250D01*
X-28750Y-754750D02*
X-21250D01*
X-721800Y-752250D02*
Y-683750D01*
X-829800Y-752250D02*
X-721800D01*
X-829800D02*
Y-683750D01*
X-721800D01*
X-1003000Y-645000D02*
Y-213000D01*
X-1345000Y-645000D02*
X-1003000D01*
X-1345000D02*
Y-213000D01*
X-1003000D01*
X-657000Y-645000D02*
Y-213000D01*
X-999000Y-645000D02*
X-657000D01*
X-999000D02*
Y-213000D01*
X-657000D01*
X-1003000Y-210000D02*
Y222000D01*
X-1345000Y-210000D02*
X-1003000D01*
X-1345000D02*
Y222000D01*
X-1003000D01*
X-657000Y-210000D02*
Y222000D01*
X-999000Y-210000D02*
X-657000D01*
X-999000D02*
Y222000D01*
X-657000D01*
X-1003000Y225000D02*
Y657000D01*
X-1345000Y225000D02*
X-1003000D01*
X-1345000D02*
Y657000D01*
X-1003000D01*
X-657000Y225000D02*
Y657000D01*
X-999000Y225000D02*
X-657000D01*
X-999000D02*
Y657000D01*
X-657000D01*
M02*
