G04*
G04 #@! TF.GenerationSoftware,Altium Limited,Altium Designer,24.9.1 (31)*
G04*
G04 Layer_Color=8388736*
%FSLAX44Y44*%
%MOMM*%
G71*
G04*
G04 #@! TF.SameCoordinates,25B5EA7A-0A89-4A72-9C9E-8463CCD4450D*
G04*
G04*
G04 #@! TF.FilePolarity,Positive*
G04*
G01*
G75*
%ADD12C,0.2000*%
D12*
X492250Y-220750D02*
Y-211250D01*
Y-220750D02*
X509750D01*
Y-211250D01*
X492250D02*
X509750D01*
X-149000Y264250D02*
Y303750D01*
Y264250D02*
X-101000D01*
Y303750D01*
X-149000D02*
X-101000D01*
X-156250Y768850D02*
X-80250D01*
Y663850D02*
Y768850D01*
X-156250Y663850D02*
X-80250D01*
X-156250D02*
Y768850D01*
X-33500Y-736500D02*
X-16500D01*
X-33500D02*
Y-705500D01*
X-16500D01*
Y-736500D02*
Y-705500D01*
X32500Y666500D02*
X49500D01*
Y635500D02*
Y666500D01*
X32500Y635500D02*
X49500D01*
X32500D02*
Y666500D01*
Y196500D02*
X49500D01*
Y165500D02*
Y196500D01*
X32500Y165500D02*
X49500D01*
X32500D02*
Y196500D01*
Y-304500D02*
Y-273500D01*
Y-304500D02*
X49500D01*
Y-273500D01*
X32500D02*
X49500D01*
X-27750Y-752500D02*
Y-741500D01*
X-22250D01*
Y-752500D02*
Y-741500D01*
X-27750Y-752500D02*
X-22250D01*
X-735900Y-751250D02*
Y-684750D01*
X-798100Y-751250D02*
X-735900D01*
X-798100D02*
Y-684750D01*
X-735900D01*
X-1004000Y-644000D02*
Y-214000D01*
X-1344000Y-644000D02*
X-1004000D01*
X-1344000D02*
Y-214000D01*
X-1004000D01*
X-658000Y-644000D02*
Y-214000D01*
X-998000Y-644000D02*
X-658000D01*
X-998000D02*
Y-214000D01*
X-658000D01*
X-1004000Y-209000D02*
Y221000D01*
X-1344000Y-209000D02*
X-1004000D01*
X-1344000D02*
Y221000D01*
X-1004000D01*
X-658000Y-209000D02*
Y221000D01*
X-998000Y-209000D02*
X-658000D01*
X-998000D02*
Y221000D01*
X-658000D01*
X-1004000Y226000D02*
Y656000D01*
X-1344000Y226000D02*
X-1004000D01*
X-1344000D02*
Y656000D01*
X-1004000D01*
X-658000Y226000D02*
Y656000D01*
X-998000Y226000D02*
X-658000D01*
X-998000D02*
Y656000D01*
X-658000D01*
M02*
