G04*
G04 #@! TF.GenerationSoftware,Altium Limited,Altium Designer,24.9.1 (31)*
G04*
G04 Layer_Physical_Order=2*
G04 Layer_Color=36540*
%FSLAX44Y44*%
%MOMM*%
G71*
G04*
G04 #@! TF.SameCoordinates,25B5EA7A-0A89-4A72-9C9E-8463CCD4450D*
G04*
G04*
G04 #@! TF.FilePolarity,Positive*
G04*
G01*
G75*
%ADD92R,2.1500X2.1500*%
%ADD93C,2.1500*%
%ADD95C,0.1200*%
%ADD97C,0.3000*%
%ADD98C,0.4000*%
%ADD99C,5.0000*%
%ADD100R,0.5000X1.0000*%
%ADD101C,2.0000*%
%ADD102R,4.0000X4.0000*%
%ADD103C,6.0000*%
%ADD104C,12.0000*%
%ADD105C,3.0000*%
%ADD106C,0.6000*%
G36*
X-150000Y480007D02*
X-150866Y479672D01*
X-151270Y479634D01*
X-152451Y480815D01*
X-154105Y481500D01*
X-155895D01*
X-157549Y480815D01*
X-158170Y480194D01*
X-159000Y479667D01*
X-159830Y480194D01*
X-160451Y480815D01*
X-162105Y481500D01*
X-163895D01*
X-165549Y480815D01*
X-166815Y479549D01*
X-167500Y477895D01*
Y476105D01*
X-166815Y474451D01*
X-165864Y473500D01*
X-166815Y472549D01*
X-167500Y470895D01*
Y469105D01*
X-166815Y467451D01*
X-165864Y466500D01*
X-166815Y465549D01*
X-167500Y463895D01*
Y462105D01*
X-166815Y460451D01*
X-165864Y459500D01*
X-166815Y458549D01*
X-167500Y456895D01*
Y455105D01*
X-166815Y453451D01*
X-165549Y452185D01*
X-163895Y451500D01*
X-162105D01*
X-160451Y452185D01*
X-159830Y452806D01*
X-159000Y453333D01*
X-158170Y452806D01*
X-157549Y452185D01*
X-155895Y451500D01*
X-154105D01*
X-152451Y452185D01*
X-151270Y453366D01*
X-150866Y453328D01*
X-150000Y452993D01*
Y305000D01*
X-204000D01*
Y323000D01*
X-213993D01*
X-214328Y323867D01*
X-214366Y324270D01*
X-213185Y325451D01*
X-212500Y327105D01*
Y328895D01*
X-213185Y330549D01*
X-214451Y331815D01*
X-216105Y332500D01*
X-217895D01*
X-219549Y331815D01*
X-220170Y331194D01*
X-221000Y330667D01*
X-221830Y331194D01*
X-222451Y331815D01*
X-224105Y332500D01*
X-225895D01*
X-227549Y331815D01*
X-228815Y330549D01*
X-229500Y328895D01*
Y327105D01*
X-229191Y326359D01*
X-229593Y325678D01*
X-230086Y325200D01*
X-233125D01*
X-236313Y324566D01*
X-239316Y323322D01*
X-239798Y323000D01*
X-269000D01*
Y606000D01*
X-212000D01*
Y630997D01*
X-210730Y631846D01*
X-209895Y631500D01*
X-208105D01*
X-206451Y632185D01*
X-205185Y633451D01*
X-204500Y635105D01*
Y636895D01*
X-205185Y638549D01*
X-206451Y639815D01*
X-208105Y640500D01*
X-209895D01*
X-210730Y640154D01*
X-212000Y641003D01*
Y650000D01*
X-150000D01*
Y480007D01*
D02*
G37*
G36*
X92000Y679367D02*
X90684Y678822D01*
X87982Y677016D01*
X85684Y674718D01*
X83878Y672016D01*
X82634Y669013D01*
X82000Y665825D01*
Y662575D01*
X82634Y659387D01*
X83878Y656384D01*
X85684Y653682D01*
X87982Y651384D01*
X90684Y649578D01*
X92000Y649033D01*
Y615007D01*
X91133Y614672D01*
X90730Y614634D01*
X89549Y615815D01*
X87895Y616500D01*
X86105D01*
X84451Y615815D01*
X83185Y614549D01*
X82500Y612895D01*
Y611105D01*
X83185Y609451D01*
X84451Y608185D01*
X86105Y607500D01*
X87895D01*
X89549Y608185D01*
X90730Y609366D01*
X91133Y609328D01*
X92000Y608993D01*
Y209367D01*
X90684Y208822D01*
X87982Y207016D01*
X85684Y204718D01*
X83878Y202016D01*
X82634Y199013D01*
X82000Y195825D01*
Y192575D01*
X82634Y189387D01*
X83878Y186384D01*
X85684Y183682D01*
X87982Y181384D01*
X90684Y179578D01*
X92000Y179033D01*
Y-260633D01*
X90684Y-261178D01*
X87982Y-262984D01*
X85684Y-265282D01*
X83878Y-267984D01*
X82634Y-270987D01*
X82000Y-274175D01*
Y-277425D01*
X82634Y-280613D01*
X83878Y-283616D01*
X85684Y-286318D01*
X87982Y-288616D01*
X90684Y-290422D01*
X92000Y-290967D01*
Y-774000D01*
X-565000D01*
Y-698000D01*
X-495000D01*
Y-768000D01*
X-86000D01*
Y-666003D01*
X-84730Y-665154D01*
X-83895Y-665500D01*
X-82105D01*
X-80451Y-664815D01*
X-79830Y-664194D01*
X-79000Y-663667D01*
X-78170Y-664194D01*
X-77549Y-664815D01*
X-75895Y-665500D01*
X-74105D01*
X-72451Y-664815D01*
X-71185Y-663549D01*
X-70500Y-661895D01*
Y-660105D01*
X-71185Y-658451D01*
X-72451Y-657185D01*
X-74105Y-656500D01*
X-75895D01*
X-77549Y-657185D01*
X-78170Y-657806D01*
X-79000Y-658333D01*
X-79830Y-657806D01*
X-80451Y-657185D01*
X-82105Y-656500D01*
X-83895D01*
X-84730Y-656846D01*
X-86000Y-655997D01*
Y-628003D01*
X-84730Y-627154D01*
X-83895Y-627500D01*
X-82105D01*
X-80451Y-626815D01*
X-79500Y-625864D01*
X-78549Y-626815D01*
X-76895Y-627500D01*
X-75105D01*
X-73451Y-626815D01*
X-72185Y-625549D01*
X-71500Y-623895D01*
Y-622105D01*
X-72185Y-620451D01*
X-73451Y-619185D01*
X-75105Y-618500D01*
X-76895D01*
X-78549Y-619185D01*
X-79500Y-620136D01*
X-80451Y-619185D01*
X-82105Y-618500D01*
X-83895D01*
X-84730Y-618846D01*
X-86000Y-617997D01*
Y-197003D01*
X-84730Y-196154D01*
X-83895Y-196500D01*
X-82105D01*
X-80451Y-195815D01*
X-79830Y-195194D01*
X-79000Y-194667D01*
X-78170Y-195194D01*
X-77549Y-195815D01*
X-75895Y-196500D01*
X-74105D01*
X-72451Y-195815D01*
X-71185Y-194549D01*
X-70500Y-192895D01*
Y-191105D01*
X-71185Y-189451D01*
X-72451Y-188185D01*
X-74105Y-187500D01*
X-75895D01*
X-77549Y-188185D01*
X-78170Y-188806D01*
X-79000Y-189333D01*
X-79830Y-188806D01*
X-80451Y-188185D01*
X-82105Y-187500D01*
X-83895D01*
X-84730Y-187846D01*
X-86000Y-186997D01*
Y-159003D01*
X-84730Y-158154D01*
X-83895Y-158500D01*
X-82105D01*
X-80451Y-157815D01*
X-79500Y-156864D01*
X-78549Y-157815D01*
X-76895Y-158500D01*
X-75105D01*
X-73451Y-157815D01*
X-72185Y-156549D01*
X-71500Y-154895D01*
Y-153105D01*
X-72185Y-151451D01*
X-73451Y-150185D01*
X-75105Y-149500D01*
X-76895D01*
X-78549Y-150185D01*
X-79500Y-151136D01*
X-80451Y-150185D01*
X-82105Y-149500D01*
X-83895D01*
X-84730Y-149846D01*
X-86000Y-148997D01*
Y310997D01*
X-84730Y311846D01*
X-83895Y311500D01*
X-82105D01*
X-80451Y312185D01*
X-79500Y313136D01*
X-78549Y312185D01*
X-76895Y311500D01*
X-75105D01*
X-73451Y312185D01*
X-72185Y313451D01*
X-71500Y315105D01*
Y316895D01*
X-72185Y318549D01*
X-73451Y319815D01*
X-75105Y320500D01*
X-76895D01*
X-78549Y319815D01*
X-79500Y318864D01*
X-80451Y319815D01*
X-82105Y320500D01*
X-83895D01*
X-84730Y320154D01*
X-86000Y321003D01*
Y765000D01*
X92000D01*
Y679367D01*
D02*
G37*
G36*
X350000Y273000D02*
X281000D01*
Y230000D01*
X155000D01*
Y416993D01*
X155866Y417328D01*
X156270Y417366D01*
X157451Y416185D01*
X159105Y415500D01*
X160895D01*
X162549Y416185D01*
X163170Y416806D01*
X164000Y417333D01*
X164830Y416806D01*
X165451Y416185D01*
X167105Y415500D01*
X168895D01*
X170549Y416185D01*
X171815Y417451D01*
X172500Y419105D01*
Y420895D01*
X171815Y422549D01*
X171194Y423170D01*
X170667Y424000D01*
X171194Y424830D01*
X171815Y425451D01*
X172500Y427105D01*
Y428895D01*
X171815Y430549D01*
X171194Y431170D01*
X170667Y432000D01*
X171194Y432830D01*
X171815Y433451D01*
X172500Y435105D01*
Y436895D01*
X171815Y438549D01*
X170549Y439815D01*
X168895Y440500D01*
X167105D01*
X165451Y439815D01*
X164830Y439194D01*
X164000Y438667D01*
X163170Y439194D01*
X162549Y439815D01*
X160895Y440500D01*
X159105D01*
X157451Y439815D01*
X156270Y438634D01*
X155866Y438672D01*
X155000Y439007D01*
Y585000D01*
X350000D01*
Y273000D01*
D02*
G37*
G36*
X-164000Y192000D02*
X-291000D01*
Y276000D01*
X-209000D01*
Y290000D01*
X-185007D01*
X-184672Y289133D01*
X-184634Y288730D01*
X-185815Y287549D01*
X-186500Y285895D01*
Y284105D01*
X-185815Y282451D01*
X-184549Y281185D01*
X-182895Y280500D01*
X-181105D01*
X-179451Y281185D01*
X-178185Y282451D01*
X-177500Y284105D01*
Y285895D01*
X-178185Y287549D01*
X-179366Y288730D01*
X-179328Y289133D01*
X-178993Y290000D01*
X-164000D01*
X-164000Y192000D01*
D02*
G37*
G36*
X-150000Y10007D02*
X-150866Y9672D01*
X-151270Y9634D01*
X-152451Y10815D01*
X-154105Y11500D01*
X-155895D01*
X-157549Y10815D01*
X-158170Y10194D01*
X-159000Y9667D01*
X-159830Y10194D01*
X-160451Y10815D01*
X-162105Y11500D01*
X-163895D01*
X-165549Y10815D01*
X-166815Y9549D01*
X-167500Y7895D01*
Y6105D01*
X-166815Y4451D01*
X-165864Y3500D01*
X-166815Y2549D01*
X-167500Y895D01*
Y-895D01*
X-166815Y-2549D01*
X-165864Y-3500D01*
X-166815Y-4451D01*
X-167500Y-6105D01*
Y-7895D01*
X-166815Y-9549D01*
X-165864Y-10500D01*
X-166815Y-11451D01*
X-167500Y-13105D01*
Y-14895D01*
X-166815Y-16549D01*
X-165549Y-17815D01*
X-163895Y-18500D01*
X-162105D01*
X-160451Y-17815D01*
X-159830Y-17194D01*
X-159000Y-16667D01*
X-158170Y-17194D01*
X-157549Y-17815D01*
X-155895Y-18500D01*
X-154105D01*
X-152451Y-17815D01*
X-151270Y-16634D01*
X-150866Y-16672D01*
X-150000Y-17007D01*
Y-165000D01*
X-204000D01*
Y-147000D01*
X-213993D01*
X-214328Y-146133D01*
X-214366Y-145730D01*
X-213185Y-144549D01*
X-212500Y-142895D01*
Y-141105D01*
X-213185Y-139451D01*
X-214451Y-138185D01*
X-216105Y-137500D01*
X-217895D01*
X-219549Y-138185D01*
X-220170Y-138806D01*
X-221000Y-139333D01*
X-221830Y-138806D01*
X-222451Y-138185D01*
X-224105Y-137500D01*
X-225895D01*
X-227549Y-138185D01*
X-228815Y-139451D01*
X-229500Y-141105D01*
Y-142895D01*
X-229191Y-143641D01*
X-229593Y-144322D01*
X-230086Y-144800D01*
X-233125D01*
X-236313Y-145434D01*
X-239316Y-146678D01*
X-239798Y-147000D01*
X-269000D01*
Y136000D01*
X-212000D01*
Y160997D01*
X-210730Y161846D01*
X-209895Y161500D01*
X-208105D01*
X-206451Y162185D01*
X-205185Y163451D01*
X-204500Y165105D01*
Y166895D01*
X-205185Y168549D01*
X-206451Y169815D01*
X-208105Y170500D01*
X-209895D01*
X-210730Y170154D01*
X-212000Y171003D01*
Y180000D01*
X-150000D01*
Y10007D01*
D02*
G37*
G36*
X350000Y-197000D02*
X281000D01*
Y-240000D01*
X155000D01*
Y-53007D01*
X155866Y-52672D01*
X156270Y-52634D01*
X157451Y-53815D01*
X159105Y-54500D01*
X160895D01*
X162549Y-53815D01*
X163170Y-53194D01*
X164000Y-52667D01*
X164830Y-53194D01*
X165451Y-53815D01*
X167105Y-54500D01*
X168895D01*
X170549Y-53815D01*
X171815Y-52549D01*
X172500Y-50895D01*
Y-49105D01*
X171815Y-47451D01*
X171194Y-46830D01*
X170667Y-46000D01*
X171194Y-45170D01*
X171815Y-44549D01*
X172500Y-42895D01*
Y-41105D01*
X171815Y-39451D01*
X171194Y-38830D01*
X170667Y-38000D01*
X171194Y-37170D01*
X171815Y-36549D01*
X172500Y-34895D01*
Y-33105D01*
X171815Y-31451D01*
X170549Y-30185D01*
X168895Y-29500D01*
X167105D01*
X165451Y-30185D01*
X164830Y-30806D01*
X164000Y-31333D01*
X163170Y-30806D01*
X162549Y-30185D01*
X160895Y-29500D01*
X159105D01*
X157451Y-30185D01*
X156270Y-31366D01*
X155866Y-31328D01*
X155000Y-30993D01*
Y115000D01*
X350000D01*
Y-197000D01*
D02*
G37*
G36*
X787000Y-474000D02*
X663000D01*
Y-307000D01*
X489000D01*
Y-297160D01*
X490270Y-296634D01*
X490451Y-296815D01*
X492105Y-297500D01*
X493895D01*
X495549Y-296815D01*
X496815Y-295549D01*
X497500Y-293895D01*
Y-292105D01*
X496815Y-290451D01*
X495549Y-289185D01*
X493895Y-288500D01*
X492105D01*
X490451Y-289185D01*
X490270Y-289366D01*
X489000Y-288840D01*
Y-57000D01*
X663000D01*
Y562000D01*
X787000D01*
Y-474000D01*
D02*
G37*
G36*
X-150000Y-459993D02*
X-150866Y-460328D01*
X-151270Y-460366D01*
X-152451Y-459185D01*
X-154105Y-458500D01*
X-155895D01*
X-157549Y-459185D01*
X-158170Y-459806D01*
X-159000Y-460333D01*
X-159830Y-459806D01*
X-160451Y-459185D01*
X-162105Y-458500D01*
X-163895D01*
X-165549Y-459185D01*
X-166815Y-460451D01*
X-167500Y-462105D01*
Y-463895D01*
X-166815Y-465549D01*
X-165864Y-466500D01*
X-166815Y-467451D01*
X-167500Y-469105D01*
Y-470895D01*
X-166815Y-472549D01*
X-165864Y-473500D01*
X-166815Y-474451D01*
X-167500Y-476105D01*
Y-477895D01*
X-166815Y-479549D01*
X-165864Y-480500D01*
X-166815Y-481451D01*
X-167500Y-483105D01*
Y-484895D01*
X-166815Y-486549D01*
X-165549Y-487815D01*
X-163895Y-488500D01*
X-162105D01*
X-160451Y-487815D01*
X-159830Y-487194D01*
X-159000Y-486667D01*
X-158170Y-487194D01*
X-157549Y-487815D01*
X-155895Y-488500D01*
X-154105D01*
X-152451Y-487815D01*
X-151270Y-486634D01*
X-150866Y-486672D01*
X-150000Y-487007D01*
Y-635000D01*
X-204000D01*
Y-617000D01*
X-213993D01*
X-214328Y-616133D01*
X-214366Y-615730D01*
X-213185Y-614549D01*
X-212500Y-612895D01*
Y-611105D01*
X-213185Y-609451D01*
X-214451Y-608185D01*
X-216105Y-607500D01*
X-217895D01*
X-219549Y-608185D01*
X-220170Y-608806D01*
X-221000Y-609333D01*
X-221830Y-608806D01*
X-222451Y-608185D01*
X-224105Y-607500D01*
X-225895D01*
X-227549Y-608185D01*
X-228815Y-609451D01*
X-229500Y-611105D01*
Y-612895D01*
X-229191Y-613641D01*
X-229593Y-614322D01*
X-230086Y-614800D01*
X-233125D01*
X-236313Y-615434D01*
X-239316Y-616678D01*
X-239798Y-617000D01*
X-269000D01*
Y-334000D01*
X-212000D01*
Y-309003D01*
X-210730Y-308154D01*
X-209895Y-308500D01*
X-208105D01*
X-206451Y-307815D01*
X-205185Y-306549D01*
X-204500Y-304895D01*
Y-303105D01*
X-205185Y-301451D01*
X-206451Y-300185D01*
X-208105Y-299500D01*
X-209895D01*
X-210730Y-299846D01*
X-212000Y-298997D01*
Y-290000D01*
X-150000D01*
Y-459993D01*
D02*
G37*
G36*
X350000Y-667000D02*
X281000D01*
Y-710000D01*
X155000D01*
Y-523007D01*
X155866Y-522672D01*
X156270Y-522634D01*
X157451Y-523815D01*
X159105Y-524500D01*
X160895D01*
X162549Y-523815D01*
X163170Y-523194D01*
X164000Y-522667D01*
X164830Y-523194D01*
X165451Y-523815D01*
X167105Y-524500D01*
X168895D01*
X170549Y-523815D01*
X171815Y-522549D01*
X172500Y-520895D01*
Y-519105D01*
X171815Y-517451D01*
X171194Y-516830D01*
X170667Y-516000D01*
X171194Y-515170D01*
X171815Y-514549D01*
X172500Y-512895D01*
Y-511105D01*
X171815Y-509451D01*
X171194Y-508830D01*
X170667Y-508000D01*
X171194Y-507170D01*
X171815Y-506549D01*
X172500Y-504895D01*
Y-503105D01*
X171815Y-501451D01*
X170549Y-500185D01*
X168895Y-499500D01*
X167105D01*
X165451Y-500185D01*
X164830Y-500806D01*
X164000Y-501333D01*
X163170Y-500806D01*
X162549Y-500185D01*
X160895Y-499500D01*
X159105D01*
X157451Y-500185D01*
X156270Y-501366D01*
X155866Y-501328D01*
X155000Y-500993D01*
Y-355000D01*
X350000D01*
Y-667000D01*
D02*
G37*
%LPC*%
G36*
X-198105Y601500D02*
X-199895D01*
X-201549Y600815D01*
X-202170Y600194D01*
X-203000Y599667D01*
X-203830Y600194D01*
X-204451Y600815D01*
X-206105Y601500D01*
X-207895D01*
X-209549Y600815D01*
X-210815Y599549D01*
X-211500Y597895D01*
Y596105D01*
X-210815Y594451D01*
X-210194Y593830D01*
X-209667Y593000D01*
X-210194Y592170D01*
X-210815Y591549D01*
X-211500Y589895D01*
Y588105D01*
X-210815Y586451D01*
X-209549Y585185D01*
X-207895Y584500D01*
X-206105D01*
X-204451Y585185D01*
X-203830Y585806D01*
X-203000Y586333D01*
X-202170Y585806D01*
X-201549Y585185D01*
X-199895Y584500D01*
X-198105D01*
X-196451Y585185D01*
X-195185Y586451D01*
X-194500Y588105D01*
Y589895D01*
X-195185Y591549D01*
X-195806Y592170D01*
X-196333Y593000D01*
X-195806Y593830D01*
X-195185Y594451D01*
X-194500Y596105D01*
Y597895D01*
X-195185Y599549D01*
X-196451Y600815D01*
X-198105Y601500D01*
D02*
G37*
G36*
X-202105Y539350D02*
X-203895D01*
X-205549Y538665D01*
X-206815Y537399D01*
X-207500Y535745D01*
Y533955D01*
X-206815Y532301D01*
X-205549Y531035D01*
X-203895Y530350D01*
X-202105D01*
X-200451Y531035D01*
X-199185Y532301D01*
X-198500Y533955D01*
Y535745D01*
X-199185Y537399D01*
X-200451Y538665D01*
X-202105Y539350D01*
D02*
G37*
G36*
X-229875Y527700D02*
X-233125D01*
X-236313Y527066D01*
X-239316Y525822D01*
X-242018Y524016D01*
X-244316Y521718D01*
X-246122Y519016D01*
X-247366Y516013D01*
X-248000Y512825D01*
Y509575D01*
X-247366Y506387D01*
X-246122Y503384D01*
X-244316Y500682D01*
X-242018Y498384D01*
X-239316Y496578D01*
X-236313Y495334D01*
X-233125Y494700D01*
X-229875D01*
X-226687Y495334D01*
X-223684Y496578D01*
X-220982Y498384D01*
X-218684Y500682D01*
X-216878Y503384D01*
X-215634Y506387D01*
X-215000Y509575D01*
Y512825D01*
X-215634Y516013D01*
X-216878Y519016D01*
X-218684Y521718D01*
X-220982Y524016D01*
X-223684Y525822D01*
X-226687Y527066D01*
X-229875Y527700D01*
D02*
G37*
G36*
X-189105Y515500D02*
X-190895D01*
X-192549Y514815D01*
X-193815Y513549D01*
X-194500Y511895D01*
Y510105D01*
X-193815Y508451D01*
X-192864Y507500D01*
X-193815Y506549D01*
X-194500Y504895D01*
Y503105D01*
X-193815Y501451D01*
X-193194Y500830D01*
X-192667Y500000D01*
X-193194Y499170D01*
X-193815Y498549D01*
X-194500Y496895D01*
Y495105D01*
X-193815Y493451D01*
X-192549Y492185D01*
X-190895Y491500D01*
X-189105D01*
X-187451Y492185D01*
X-186185Y493451D01*
X-185500Y495105D01*
Y496895D01*
X-186185Y498549D01*
X-186806Y499170D01*
X-187333Y500000D01*
X-186806Y500830D01*
X-186185Y501451D01*
X-185500Y503105D01*
Y504895D01*
X-186185Y506549D01*
X-187136Y507500D01*
X-186185Y508451D01*
X-185500Y510105D01*
Y511895D01*
X-186185Y513549D01*
X-187451Y514815D01*
X-189105Y515500D01*
D02*
G37*
G36*
X-229875Y487200D02*
X-233125D01*
X-236313Y486566D01*
X-239316Y485322D01*
X-242018Y483516D01*
X-244316Y481218D01*
X-246122Y478516D01*
X-247366Y475513D01*
X-248000Y472325D01*
Y469075D01*
X-247366Y465887D01*
X-246122Y462884D01*
X-244316Y460182D01*
X-242018Y457884D01*
X-239316Y456078D01*
X-236313Y454834D01*
X-233125Y454200D01*
X-229875D01*
X-226687Y454834D01*
X-223684Y456078D01*
X-220982Y457884D01*
X-218684Y460182D01*
X-216878Y462884D01*
X-215634Y465887D01*
X-215000Y469075D01*
Y472325D01*
X-215634Y475513D01*
X-216878Y478516D01*
X-218684Y481218D01*
X-220982Y483516D01*
X-223684Y485322D01*
X-226687Y486566D01*
X-229875Y487200D01*
D02*
G37*
G36*
Y446700D02*
X-233125D01*
X-236313Y446066D01*
X-239316Y444822D01*
X-242018Y443016D01*
X-244316Y440718D01*
X-246122Y438016D01*
X-247366Y435013D01*
X-248000Y431825D01*
Y428575D01*
X-247366Y425387D01*
X-246122Y422384D01*
X-244316Y419682D01*
X-242018Y417384D01*
X-239316Y415578D01*
X-236313Y414334D01*
X-233125Y413700D01*
X-229875D01*
X-226687Y414334D01*
X-223684Y415578D01*
X-220982Y417384D01*
X-218684Y419682D01*
X-216878Y422384D01*
X-215634Y425387D01*
X-215000Y428575D01*
Y431825D01*
X-215634Y435013D01*
X-216878Y438016D01*
X-218684Y440718D01*
X-220982Y443016D01*
X-223684Y444822D01*
X-226687Y446066D01*
X-229875Y446700D01*
D02*
G37*
G36*
X-242105Y408500D02*
X-243895D01*
X-245549Y407815D01*
X-246815Y406549D01*
X-247500Y404895D01*
Y403105D01*
X-246815Y401451D01*
X-246194Y400830D01*
X-245667Y400000D01*
X-246194Y399170D01*
X-246815Y398549D01*
X-247500Y396895D01*
Y395105D01*
X-246815Y393451D01*
X-246194Y392830D01*
X-245667Y392000D01*
X-246194Y391170D01*
X-246815Y390549D01*
X-247500Y388895D01*
Y387105D01*
X-246815Y385451D01*
X-246194Y384830D01*
X-245667Y384000D01*
X-246194Y383170D01*
X-246815Y382549D01*
X-247500Y380895D01*
Y379105D01*
X-246815Y377451D01*
X-245549Y376185D01*
X-243895Y375500D01*
X-242105D01*
X-240451Y376185D01*
X-239185Y377451D01*
X-238500Y379105D01*
Y380895D01*
X-239185Y382549D01*
X-239806Y383170D01*
X-240333Y384000D01*
X-239806Y384830D01*
X-239185Y385451D01*
X-238500Y387105D01*
Y388895D01*
X-239185Y390549D01*
X-239806Y391170D01*
X-240333Y392000D01*
X-239806Y392830D01*
X-239185Y393451D01*
X-238500Y395105D01*
Y396895D01*
X-239185Y398549D01*
X-239806Y399170D01*
X-240333Y400000D01*
X-239806Y400830D01*
X-239185Y401451D01*
X-238500Y403105D01*
Y404895D01*
X-239185Y406549D01*
X-240451Y407815D01*
X-242105Y408500D01*
D02*
G37*
G36*
X-185105Y381500D02*
X-186895D01*
X-188549Y380815D01*
X-189815Y379549D01*
X-190500Y377895D01*
Y376105D01*
X-189815Y374451D01*
X-188549Y373185D01*
X-187517Y372758D01*
X-186500Y371895D01*
Y370105D01*
X-185815Y368451D01*
X-184549Y367185D01*
X-182895Y366500D01*
X-181105D01*
X-179451Y367185D01*
X-178185Y368451D01*
X-177500Y370105D01*
Y371895D01*
X-178185Y373549D01*
X-179451Y374815D01*
X-180483Y375242D01*
X-181500Y376105D01*
Y377895D01*
X-182185Y379549D01*
X-183451Y380815D01*
X-185105Y381500D01*
D02*
G37*
G36*
X-215105Y364500D02*
X-216895D01*
X-218549Y363815D01*
X-219815Y362549D01*
X-220500Y360895D01*
Y359105D01*
X-219815Y357451D01*
X-218864Y356500D01*
X-219815Y355549D01*
X-220500Y353895D01*
Y352105D01*
X-219815Y350451D01*
X-218549Y349185D01*
X-216895Y348500D01*
X-215105D01*
X-213451Y349185D01*
X-212185Y350451D01*
X-211500Y352105D01*
Y353895D01*
X-212185Y355549D01*
X-213136Y356500D01*
X-212185Y357451D01*
X-211500Y359105D01*
Y360895D01*
X-212185Y362549D01*
X-213451Y363815D01*
X-215105Y364500D01*
D02*
G37*
G36*
X-207105Y349500D02*
X-208895D01*
X-210549Y348815D01*
X-211815Y347549D01*
X-212500Y345895D01*
Y344105D01*
X-211815Y342451D01*
X-210549Y341185D01*
X-208895Y340500D01*
X-207105D01*
X-205451Y341185D01*
X-204185Y342451D01*
X-203500Y344105D01*
Y345895D01*
X-204185Y347549D01*
X-205451Y348815D01*
X-207105Y349500D01*
D02*
G37*
G36*
X-183105Y348500D02*
X-184895D01*
X-186549Y347815D01*
X-187815Y346549D01*
X-188500Y344895D01*
Y343105D01*
X-187815Y341451D01*
X-186549Y340185D01*
X-184895Y339500D01*
X-183105D01*
X-181451Y340185D01*
X-180185Y341451D01*
X-179500Y343105D01*
Y344895D01*
X-180185Y346549D01*
X-181451Y347815D01*
X-183105Y348500D01*
D02*
G37*
G36*
X-165105Y315500D02*
X-166895D01*
X-168549Y314815D01*
X-169500Y313864D01*
X-170451Y314815D01*
X-172105Y315500D01*
X-173895D01*
X-175549Y314815D01*
X-176815Y313549D01*
X-177500Y311895D01*
Y310105D01*
X-176815Y308451D01*
X-175549Y307185D01*
X-173895Y306500D01*
X-172105D01*
X-170451Y307185D01*
X-169500Y308136D01*
X-168549Y307185D01*
X-166895Y306500D01*
X-165105D01*
X-163451Y307185D01*
X-162185Y308451D01*
X-161500Y310105D01*
Y311895D01*
X-162185Y313549D01*
X-163451Y314815D01*
X-165105Y315500D01*
D02*
G37*
G36*
X-48105Y731500D02*
X-49895D01*
X-51549Y730815D01*
X-52815Y729549D01*
X-53500Y727895D01*
Y726105D01*
X-52815Y724451D01*
X-51549Y723185D01*
X-49895Y722500D01*
X-48105D01*
X-46451Y723185D01*
X-45185Y724451D01*
X-44500Y726105D01*
Y727895D01*
X-45185Y729549D01*
X-46451Y730815D01*
X-48105Y731500D01*
D02*
G37*
G36*
X-30105Y741500D02*
X-31895D01*
X-33549Y740815D01*
X-34815Y739549D01*
X-35500Y737895D01*
Y736105D01*
X-34815Y734451D01*
X-33864Y733500D01*
X-34815Y732549D01*
X-35500Y730895D01*
Y729105D01*
X-34815Y727451D01*
X-33864Y726500D01*
X-34815Y725549D01*
X-35500Y723895D01*
Y722105D01*
X-34815Y720451D01*
X-33549Y719185D01*
X-31895Y718500D01*
X-30105D01*
X-28451Y719185D01*
X-27185Y720451D01*
X-26500Y722105D01*
Y723895D01*
X-27185Y725549D01*
X-28136Y726500D01*
X-27185Y727451D01*
X-26500Y729105D01*
Y730895D01*
X-27185Y732549D01*
X-28136Y733500D01*
X-27185Y734451D01*
X-26500Y736105D01*
Y737895D01*
X-27185Y739549D01*
X-28451Y740815D01*
X-30105Y741500D01*
D02*
G37*
G36*
X-56105Y714500D02*
X-57895D01*
X-59549Y713815D01*
X-60815Y712549D01*
X-61500Y710895D01*
Y709105D01*
X-60815Y707451D01*
X-59549Y706185D01*
X-57895Y705500D01*
X-56105D01*
X-54451Y706185D01*
X-53185Y707451D01*
X-52500Y709105D01*
Y710895D01*
X-53185Y712549D01*
X-54451Y713815D01*
X-56105Y714500D01*
D02*
G37*
G36*
X-30000Y694000D02*
X-31790D01*
X-33444Y693315D01*
X-34710Y692049D01*
X-35395Y690395D01*
Y688605D01*
X-34710Y686951D01*
X-33444Y685685D01*
X-31790Y685000D01*
X-30000D01*
X-28346Y685685D01*
X-27080Y686951D01*
X-26395Y688605D01*
Y690395D01*
X-27080Y692049D01*
X-28346Y693315D01*
X-30000Y694000D01*
D02*
G37*
G36*
X-35105Y669500D02*
X-36895D01*
X-38549Y668815D01*
X-39815Y667549D01*
X-40500Y665895D01*
Y664105D01*
X-39815Y662451D01*
X-39134Y661770D01*
X-39660Y660500D01*
X-40895D01*
X-42549Y659815D01*
X-43815Y658549D01*
X-44500Y656895D01*
Y655105D01*
X-43815Y653451D01*
X-42549Y652185D01*
X-40895Y651500D01*
X-39105D01*
X-37451Y652185D01*
X-36185Y653451D01*
X-35500Y655105D01*
Y656895D01*
X-36185Y658549D01*
X-36866Y659230D01*
X-36340Y660500D01*
X-35105D01*
X-33451Y661185D01*
X-32185Y662451D01*
X-31500Y664105D01*
Y665895D01*
X-32185Y667549D01*
X-33451Y668815D01*
X-35105Y669500D01*
D02*
G37*
G36*
X37490Y645905D02*
X35700D01*
X34046Y645220D01*
X32780Y643954D01*
X32095Y642300D01*
Y640510D01*
X32780Y638856D01*
X34046Y637590D01*
X35700Y636905D01*
X37490D01*
X39144Y637590D01*
X40410Y638856D01*
X41095Y640510D01*
Y642300D01*
X40410Y643954D01*
X39144Y645220D01*
X37490Y645905D01*
D02*
G37*
G36*
X-10105Y636500D02*
X-11895D01*
X-13549Y635815D01*
X-14815Y634549D01*
X-15500Y632895D01*
Y631210D01*
X-15861Y630807D01*
X-16524Y630260D01*
X-17105Y630500D01*
X-18895D01*
X-20549Y629815D01*
X-21815Y628549D01*
X-22500Y626895D01*
Y625105D01*
X-21815Y623451D01*
X-20549Y622185D01*
X-18895Y621500D01*
X-17105D01*
X-15451Y622185D01*
X-14185Y623451D01*
X-13500Y625105D01*
Y626790D01*
X-13140Y627192D01*
X-12476Y627740D01*
X-11895Y627500D01*
X-10105D01*
X-8451Y628185D01*
X-7185Y629451D01*
X-6500Y631105D01*
Y632895D01*
X-7185Y634549D01*
X-8451Y635815D01*
X-10105Y636500D01*
D02*
G37*
G36*
X-14105Y617500D02*
X-15895D01*
X-17549Y616815D01*
X-18815Y615549D01*
X-19500Y613895D01*
Y612105D01*
X-18815Y610451D01*
X-17549Y609185D01*
X-15895Y608500D01*
X-14105D01*
X-12451Y609185D01*
X-11185Y610451D01*
X-10500Y612105D01*
Y613895D01*
X-11185Y615549D01*
X-12451Y616815D01*
X-14105Y617500D01*
D02*
G37*
G36*
X75895Y616500D02*
X74105D01*
X72451Y615815D01*
X71185Y614549D01*
X70500Y612895D01*
Y611105D01*
X71185Y609451D01*
X72451Y608185D01*
X74105Y607500D01*
X75895D01*
X77549Y608185D01*
X78815Y609451D01*
X79500Y611105D01*
Y612895D01*
X78815Y614549D01*
X77549Y615815D01*
X75895Y616500D01*
D02*
G37*
G36*
X28895Y619500D02*
X27105D01*
X25451Y618815D01*
X24185Y617549D01*
X23500Y615895D01*
Y614105D01*
X24185Y612451D01*
X24806Y611830D01*
X25333Y611000D01*
X24806Y610170D01*
X24185Y609549D01*
X23500Y607895D01*
Y606105D01*
X24185Y604451D01*
X24806Y603830D01*
X25333Y603000D01*
X24806Y602170D01*
X24185Y601549D01*
X23500Y599895D01*
Y598105D01*
X24185Y596451D01*
X25451Y595185D01*
X27105Y594500D01*
X28895D01*
X30549Y595185D01*
X31815Y596451D01*
X32500Y598105D01*
Y599895D01*
X31815Y601549D01*
X31194Y602170D01*
X30667Y603000D01*
X31194Y603830D01*
X31815Y604451D01*
X32500Y606105D01*
Y607895D01*
X31815Y609549D01*
X31194Y610170D01*
X30667Y611000D01*
X31194Y611830D01*
X31815Y612451D01*
X32500Y614105D01*
Y615895D01*
X31815Y617549D01*
X30549Y618815D01*
X28895Y619500D01*
D02*
G37*
G36*
X-11105Y595500D02*
X-12895D01*
X-14549Y594815D01*
X-15815Y593549D01*
X-16500Y591895D01*
Y590105D01*
X-15815Y588451D01*
X-14549Y587185D01*
X-12895Y586500D01*
X-11105D01*
X-9451Y587185D01*
X-8185Y588451D01*
X-7500Y590105D01*
Y591895D01*
X-8185Y593549D01*
X-9451Y594815D01*
X-11105Y595500D01*
D02*
G37*
G36*
X-52105Y591500D02*
X-53895D01*
X-55549Y590815D01*
X-56815Y589549D01*
X-57500Y587895D01*
Y586105D01*
X-56815Y584451D01*
X-55549Y583185D01*
X-53895Y582500D01*
X-52105D01*
X-50451Y583185D01*
X-49185Y584451D01*
X-48500Y586105D01*
Y587895D01*
X-49185Y589549D01*
X-50451Y590815D01*
X-52105Y591500D01*
D02*
G37*
G36*
X80895Y577500D02*
X79105D01*
X77451Y576815D01*
X76830Y576194D01*
X76000Y575667D01*
X75170Y576194D01*
X74549Y576815D01*
X72895Y577500D01*
X71105D01*
X69451Y576815D01*
X68185Y575549D01*
X67500Y573895D01*
Y572105D01*
X68185Y570451D01*
X69451Y569185D01*
X71105Y568500D01*
X72895D01*
X74549Y569185D01*
X75170Y569806D01*
X76000Y570333D01*
X76830Y569806D01*
X77451Y569185D01*
X79105Y568500D01*
X80895D01*
X82549Y569185D01*
X83815Y570451D01*
X84500Y572105D01*
Y573895D01*
X83815Y575549D01*
X82549Y576815D01*
X80895Y577500D01*
D02*
G37*
G36*
X1895Y574500D02*
X105D01*
X-1549Y573815D01*
X-2815Y572549D01*
X-3500Y570895D01*
Y569105D01*
X-3904Y568500D01*
X-4895D01*
X-6549Y567815D01*
X-7815Y566549D01*
X-8500Y564895D01*
Y563105D01*
X-7815Y561451D01*
X-6549Y560185D01*
X-4895Y559500D01*
X-3105D01*
X-1451Y560185D01*
X-185Y561451D01*
X500Y563105D01*
Y564895D01*
X904Y565500D01*
X1895D01*
X3549Y566185D01*
X4815Y567451D01*
X5500Y569105D01*
Y570895D01*
X4815Y572549D01*
X3549Y573815D01*
X1895Y574500D01*
D02*
G37*
G36*
X-16105Y561500D02*
X-17895D01*
X-19549Y560815D01*
X-20815Y559549D01*
X-21500Y557895D01*
Y556105D01*
X-20815Y554451D01*
X-19549Y553185D01*
X-17895Y552500D01*
X-16105D01*
X-14451Y553185D01*
X-13185Y554451D01*
X-12500Y556105D01*
Y557895D01*
X-13185Y559549D01*
X-14451Y560815D01*
X-16105Y561500D01*
D02*
G37*
G36*
X2895Y551500D02*
X1105D01*
X-549Y550815D01*
X-1815Y549549D01*
X-2500Y547895D01*
Y546105D01*
X-1815Y544451D01*
X-549Y543185D01*
X1105Y542500D01*
X2895D01*
X4549Y543185D01*
X5815Y544451D01*
X6500Y546105D01*
Y547895D01*
X5815Y549549D01*
X4549Y550815D01*
X2895Y551500D01*
D02*
G37*
G36*
X10895Y544500D02*
X9105D01*
X7451Y543815D01*
X6185Y542549D01*
X5500Y540895D01*
Y539105D01*
X6185Y537451D01*
X7451Y536185D01*
X9105Y535500D01*
X10895D01*
X12549Y536185D01*
X13815Y537451D01*
X14500Y539105D01*
Y540895D01*
X13815Y542549D01*
X12549Y543815D01*
X10895Y544500D01*
D02*
G37*
G36*
X61895Y532500D02*
X60105D01*
X58451Y531815D01*
X57185Y530549D01*
X56500Y528895D01*
Y527105D01*
X57185Y525451D01*
X58451Y524185D01*
X60105Y523500D01*
X61895D01*
X63549Y524185D01*
X64815Y525451D01*
X65500Y527105D01*
Y528895D01*
X64815Y530549D01*
X63549Y531815D01*
X61895Y532500D01*
D02*
G37*
G36*
X-53105Y366500D02*
X-54895D01*
X-56549Y365815D01*
X-57815Y364549D01*
X-58500Y362895D01*
Y361105D01*
X-57815Y359451D01*
X-56549Y358185D01*
X-54895Y357500D01*
X-53105D01*
X-51451Y358185D01*
X-50185Y359451D01*
X-49500Y361105D01*
Y362895D01*
X-50185Y364549D01*
X-51451Y365815D01*
X-53105Y366500D01*
D02*
G37*
G36*
X1895Y347500D02*
X105D01*
X-1549Y346815D01*
X-2815Y345549D01*
X-3500Y343895D01*
Y342624D01*
X-3893Y341893D01*
X-4624Y341500D01*
X-5895D01*
X-7549Y340815D01*
X-8815Y339549D01*
X-9500Y337895D01*
Y336105D01*
X-8815Y334451D01*
X-7549Y333185D01*
X-5895Y332500D01*
X-4105D01*
X-2451Y333185D01*
X-1185Y334451D01*
X-500Y336105D01*
Y337376D01*
X-107Y338107D01*
X624Y338500D01*
X1895D01*
X3549Y339185D01*
X4815Y340451D01*
X5500Y342105D01*
Y343895D01*
X4815Y345549D01*
X3549Y346815D01*
X1895Y347500D01*
D02*
G37*
G36*
X34895Y327500D02*
X33105D01*
X31451Y326815D01*
X30185Y325549D01*
X29500Y323895D01*
Y322105D01*
X30185Y320451D01*
X31451Y319185D01*
X33105Y318500D01*
X34895D01*
X36549Y319185D01*
X37815Y320451D01*
X38500Y322105D01*
Y323895D01*
X37815Y325549D01*
X36549Y326815D01*
X34895Y327500D01*
D02*
G37*
G36*
X43895Y318500D02*
X42105D01*
X40451Y317815D01*
X39185Y316549D01*
X38500Y314895D01*
Y313105D01*
X39185Y311451D01*
X39806Y310830D01*
X40333Y310000D01*
X39806Y309170D01*
X39185Y308549D01*
X38500Y306895D01*
Y305105D01*
X39185Y303451D01*
X40451Y302185D01*
X42105Y301500D01*
X43895D01*
X45549Y302185D01*
X46815Y303451D01*
X47500Y305105D01*
Y306895D01*
X46815Y308549D01*
X46194Y309170D01*
X45667Y310000D01*
X46194Y310830D01*
X46815Y311451D01*
X47500Y313105D01*
Y314895D01*
X46815Y316549D01*
X45549Y317815D01*
X43895Y318500D01*
D02*
G37*
G36*
X59895Y297500D02*
X58105D01*
X56451Y296815D01*
X55185Y295549D01*
X54500Y293895D01*
Y292105D01*
X55185Y290451D01*
X56451Y289185D01*
X58105Y288500D01*
X59895D01*
X61549Y289185D01*
X62815Y290451D01*
X63500Y292105D01*
Y293895D01*
X62815Y295549D01*
X61549Y296815D01*
X59895Y297500D01*
D02*
G37*
G36*
X-33105Y292500D02*
X-34895D01*
X-36549Y291815D01*
X-37815Y290549D01*
X-38500Y288895D01*
Y287105D01*
X-37815Y285451D01*
X-36549Y284185D01*
X-34895Y283500D01*
X-33105D01*
X-31451Y284185D01*
X-30185Y285451D01*
X-29500Y287105D01*
Y288895D01*
X-30185Y290549D01*
X-31451Y291815D01*
X-33105Y292500D01*
D02*
G37*
G36*
X-70105Y281500D02*
X-71895D01*
X-73549Y280815D01*
X-74500Y279864D01*
X-75451Y280815D01*
X-77105Y281500D01*
X-78895D01*
X-80549Y280815D01*
X-81815Y279549D01*
X-82500Y277895D01*
Y276105D01*
X-81815Y274451D01*
X-80549Y273185D01*
X-78895Y272500D01*
X-77105D01*
X-75451Y273185D01*
X-74500Y274136D01*
X-73549Y273185D01*
X-71895Y272500D01*
X-70105D01*
X-68451Y273185D01*
X-67185Y274451D01*
X-66500Y276105D01*
Y277895D01*
X-67185Y279549D01*
X-68451Y280815D01*
X-70105Y281500D01*
D02*
G37*
G36*
X60895Y285500D02*
X59105D01*
X57451Y284815D01*
X56185Y283549D01*
X55500Y281895D01*
Y280105D01*
X56185Y278451D01*
X57451Y277185D01*
X59105Y276500D01*
X60895D01*
X62549Y277185D01*
X63815Y278451D01*
X64500Y280105D01*
Y281895D01*
X63815Y283549D01*
X62549Y284815D01*
X60895Y285500D01*
D02*
G37*
G36*
X29895D02*
X28105D01*
X26451Y284815D01*
X25185Y283549D01*
X24500Y281895D01*
Y280105D01*
X25185Y278451D01*
X26451Y277185D01*
X28105Y276500D01*
X29895D01*
X31549Y277185D01*
X32815Y278451D01*
X33500Y280105D01*
Y281895D01*
X32815Y283549D01*
X31549Y284815D01*
X29895Y285500D01*
D02*
G37*
G36*
X50895Y275500D02*
X49105D01*
X47451Y274815D01*
X46185Y273549D01*
X45500Y271895D01*
Y270105D01*
X46185Y268451D01*
X47451Y267185D01*
X49105Y266500D01*
X50895D01*
X52549Y267185D01*
X53815Y268451D01*
X54500Y270105D01*
Y271895D01*
X53815Y273549D01*
X52549Y274815D01*
X50895Y275500D01*
D02*
G37*
G36*
X-33105Y269500D02*
X-34895D01*
X-36549Y268815D01*
X-37815Y267549D01*
X-38500Y265895D01*
Y264105D01*
X-37815Y262451D01*
X-36549Y261185D01*
X-34895Y260500D01*
X-33105D01*
X-31451Y261185D01*
X-30185Y262451D01*
X-29500Y264105D01*
Y265895D01*
X-30185Y267549D01*
X-31451Y268815D01*
X-33105Y269500D01*
D02*
G37*
G36*
X59895Y264500D02*
X58105D01*
X56451Y263815D01*
X55185Y262549D01*
X54500Y260895D01*
Y259105D01*
X55185Y257451D01*
X56451Y256185D01*
X58105Y255500D01*
X59895D01*
X61549Y256185D01*
X62815Y257451D01*
X63500Y259105D01*
Y260895D01*
X62815Y262549D01*
X61549Y263815D01*
X59895Y264500D01*
D02*
G37*
G36*
X13895Y278500D02*
X12105D01*
X10451Y277815D01*
X9185Y276549D01*
X8500Y274895D01*
Y273105D01*
X9185Y271451D01*
X10451Y270185D01*
X12105Y269500D01*
X13096D01*
X13500Y268895D01*
Y267105D01*
X14185Y265451D01*
X15451Y264185D01*
X17105Y263500D01*
X18895D01*
X19655Y263815D01*
X20374Y262738D01*
X20185Y262549D01*
X19500Y260895D01*
Y259105D01*
X20185Y257451D01*
X21451Y256185D01*
X23105Y255500D01*
X24895D01*
X26549Y256185D01*
X27815Y257451D01*
X28500Y259105D01*
Y260895D01*
X27815Y262549D01*
X26549Y263815D01*
X24895Y264500D01*
X23105D01*
X22345Y264185D01*
X21626Y265262D01*
X21815Y265451D01*
X22500Y267105D01*
Y268895D01*
X21815Y270549D01*
X20549Y271815D01*
X18895Y272500D01*
X17904D01*
X17500Y273105D01*
Y274895D01*
X16815Y276549D01*
X15549Y277815D01*
X13895Y278500D01*
D02*
G37*
G36*
X-38105Y237500D02*
X-39895D01*
X-41549Y236815D01*
X-42500Y235864D01*
X-43451Y236815D01*
X-45105Y237500D01*
X-46895D01*
X-48549Y236815D01*
X-49815Y235549D01*
X-50500Y233895D01*
Y232105D01*
X-49815Y230451D01*
X-48549Y229185D01*
X-46895Y228500D01*
X-45105D01*
X-43451Y229185D01*
X-42500Y230136D01*
X-41549Y229185D01*
X-39895Y228500D01*
X-38105D01*
X-36451Y229185D01*
X-35185Y230451D01*
X-34500Y232105D01*
Y233895D01*
X-35185Y235549D01*
X-36451Y236815D01*
X-38105Y237500D01*
D02*
G37*
G36*
X37895Y249500D02*
X36105D01*
X34451Y248815D01*
X33185Y247549D01*
X32500Y245895D01*
Y244105D01*
X33185Y242451D01*
X34136Y241500D01*
X33185Y240549D01*
X32500Y238895D01*
Y237105D01*
X33185Y235451D01*
X34451Y234185D01*
X36105Y233500D01*
X37895D01*
X39549Y234185D01*
X40815Y235451D01*
X41500Y237105D01*
Y238895D01*
X40815Y240549D01*
X39864Y241500D01*
X40815Y242451D01*
X41500Y244105D01*
Y245895D01*
X40815Y247549D01*
X39549Y248815D01*
X37895Y249500D01*
D02*
G37*
G36*
X41895Y232500D02*
X40105D01*
X38451Y231815D01*
X37185Y230549D01*
X36500Y228895D01*
Y227105D01*
X37185Y225451D01*
X38451Y224185D01*
X40105Y223500D01*
X41895D01*
X43549Y224185D01*
X44815Y225451D01*
X45500Y227105D01*
Y228895D01*
X44815Y230549D01*
X43549Y231815D01*
X41895Y232500D01*
D02*
G37*
G36*
X1895Y221500D02*
X105D01*
X-1549Y220815D01*
X-2815Y219549D01*
X-3500Y217895D01*
Y216105D01*
X-2815Y214451D01*
X-1549Y213185D01*
X105Y212500D01*
X1895D01*
X3549Y213185D01*
X4815Y214451D01*
X5500Y216105D01*
Y217895D01*
X4815Y219549D01*
X3549Y220815D01*
X1895Y221500D01*
D02*
G37*
G36*
X-48105Y205500D02*
X-49895D01*
X-51549Y204815D01*
X-52815Y203549D01*
X-53500Y201895D01*
Y200105D01*
X-52815Y198451D01*
X-51549Y197185D01*
X-49895Y196500D01*
X-48105D01*
X-46451Y197185D01*
X-45185Y198451D01*
X-44500Y200105D01*
Y201895D01*
X-45185Y203549D01*
X-46451Y204815D01*
X-48105Y205500D01*
D02*
G37*
G36*
X-31105Y199500D02*
X-32895D01*
X-34549Y198815D01*
X-35815Y197549D01*
X-36500Y195895D01*
Y194105D01*
X-35815Y192451D01*
X-34549Y191185D01*
X-32895Y190500D01*
X-31105D01*
X-29451Y191185D01*
X-28185Y192451D01*
X-27500Y194105D01*
Y195895D01*
X-28185Y197549D01*
X-29451Y198815D01*
X-31105Y199500D01*
D02*
G37*
G36*
X-57105Y190500D02*
X-58895D01*
X-60549Y189815D01*
X-61815Y188549D01*
X-62500Y186895D01*
Y185105D01*
X-61815Y183451D01*
X-60549Y182185D01*
X-58895Y181500D01*
X-57105D01*
X-55451Y182185D01*
X-54185Y183451D01*
X-53500Y185105D01*
Y186895D01*
X-54185Y188549D01*
X-55451Y189815D01*
X-57105Y190500D01*
D02*
G37*
G36*
X38895Y175500D02*
X37105D01*
X35451Y174815D01*
X34185Y173549D01*
X33500Y171895D01*
Y170105D01*
X34185Y168451D01*
X35451Y167185D01*
X37105Y166500D01*
X38895D01*
X40549Y167185D01*
X41815Y168451D01*
X42500Y170105D01*
Y171895D01*
X41815Y173549D01*
X40549Y174815D01*
X38895Y175500D01*
D02*
G37*
G36*
X24895Y166500D02*
X23105D01*
X21451Y165815D01*
X20185Y164549D01*
X19500Y162895D01*
Y161624D01*
X19107Y160893D01*
X18376Y160500D01*
X17105D01*
X15451Y159815D01*
X14185Y158549D01*
X13500Y156895D01*
Y155105D01*
X13639Y154770D01*
X12790Y153500D01*
X12105D01*
X10451Y152815D01*
X9185Y151549D01*
X8500Y149895D01*
Y148105D01*
X9185Y146451D01*
X10451Y145185D01*
X12105Y144500D01*
X13895D01*
X15549Y145185D01*
X16815Y146451D01*
X17500Y148105D01*
Y149895D01*
X17361Y150230D01*
X18210Y151500D01*
X18895D01*
X20549Y152185D01*
X21815Y153451D01*
X22500Y155105D01*
Y156376D01*
X22893Y157107D01*
X23624Y157500D01*
X24895D01*
X26549Y158185D01*
X27815Y159451D01*
X28500Y161105D01*
Y162895D01*
X27815Y164549D01*
X26549Y165815D01*
X24895Y166500D01*
D02*
G37*
G36*
X-55105Y153500D02*
X-56895D01*
X-58549Y152815D01*
X-59815Y151549D01*
X-60500Y149895D01*
Y148105D01*
X-59815Y146451D01*
X-58549Y145185D01*
X-56895Y144500D01*
X-55105D01*
X-53451Y145185D01*
X-52185Y146451D01*
X-51500Y148105D01*
Y149895D01*
X-52185Y151549D01*
X-53451Y152815D01*
X-55105Y153500D01*
D02*
G37*
G36*
X-24105Y147500D02*
X-25895D01*
X-27549Y146815D01*
X-28815Y145549D01*
X-29500Y143895D01*
Y142105D01*
X-29185Y141345D01*
X-30262Y140626D01*
X-30451Y140815D01*
X-32105Y141500D01*
X-33895D01*
X-35549Y140815D01*
X-36815Y139549D01*
X-37500Y137895D01*
Y136105D01*
X-36815Y134451D01*
X-35549Y133185D01*
X-33895Y132500D01*
X-32105D01*
X-30451Y133185D01*
X-29185Y134451D01*
X-28500Y136105D01*
Y137895D01*
X-28815Y138655D01*
X-27738Y139374D01*
X-27549Y139185D01*
X-25895Y138500D01*
X-24105D01*
X-22451Y139185D01*
X-21185Y140451D01*
X-20500Y142105D01*
Y143895D01*
X-21185Y145549D01*
X-22451Y146815D01*
X-24105Y147500D01*
D02*
G37*
G36*
X-11105Y148500D02*
X-12895D01*
X-14549Y147815D01*
X-15815Y146549D01*
X-16500Y144895D01*
Y143105D01*
X-15815Y141451D01*
X-14549Y140185D01*
X-12895Y139500D01*
X-11105D01*
X-9451Y140185D01*
X-8185Y141451D01*
X-7500Y143105D01*
Y144895D01*
X-8185Y146549D01*
X-9451Y147815D01*
X-11105Y148500D01*
D02*
G37*
G36*
X79895Y153500D02*
X78105D01*
X76451Y152815D01*
X75185Y151549D01*
X74500Y149895D01*
Y148105D01*
X75185Y146451D01*
X76136Y145500D01*
X75185Y144549D01*
X74500Y142895D01*
Y141105D01*
X75185Y139451D01*
X76451Y138185D01*
X78105Y137500D01*
X79895D01*
X81549Y138185D01*
X82815Y139451D01*
X83500Y141105D01*
Y142895D01*
X82815Y144549D01*
X81864Y145500D01*
X82815Y146451D01*
X83500Y148105D01*
Y149895D01*
X82815Y151549D01*
X81549Y152815D01*
X79895Y153500D01*
D02*
G37*
G36*
X-53105Y121500D02*
X-54895D01*
X-56549Y120815D01*
X-57815Y119549D01*
X-58500Y117895D01*
Y116105D01*
X-57815Y114451D01*
X-56549Y113185D01*
X-54895Y112500D01*
X-53105D01*
X-51451Y113185D01*
X-50185Y114451D01*
X-49500Y116105D01*
Y117895D01*
X-50185Y119549D01*
X-51451Y120815D01*
X-53105Y121500D01*
D02*
G37*
G36*
X31895Y127500D02*
X30105D01*
X28451Y126815D01*
X27185Y125549D01*
X26500Y123895D01*
Y122105D01*
X27185Y120451D01*
X28451Y119185D01*
X29453Y118770D01*
X29200Y117500D01*
X28105D01*
X26451Y116815D01*
X25185Y115549D01*
X24500Y113895D01*
Y112105D01*
X25185Y110451D01*
X26451Y109185D01*
X28105Y108500D01*
X29895D01*
X31549Y109185D01*
X32815Y110451D01*
X33500Y112105D01*
Y113895D01*
X32815Y115549D01*
X31549Y116815D01*
X30547Y117230D01*
X30800Y118500D01*
X31895D01*
X33549Y119185D01*
X34815Y120451D01*
X35500Y122105D01*
Y123895D01*
X34815Y125549D01*
X33549Y126815D01*
X31895Y127500D01*
D02*
G37*
G36*
X80895Y109500D02*
X79105D01*
X77451Y108815D01*
X76185Y107549D01*
X75500Y105895D01*
Y104105D01*
X76185Y102451D01*
X77451Y101185D01*
X79105Y100500D01*
X80895D01*
X82549Y101185D01*
X83815Y102451D01*
X84500Y104105D01*
Y105895D01*
X83815Y107549D01*
X82549Y108815D01*
X80895Y109500D01*
D02*
G37*
G36*
X-19013Y116270D02*
X-20987D01*
X-22895Y115759D01*
X-24605Y114771D01*
X-26002Y113375D01*
X-26989Y111665D01*
X-27500Y109757D01*
Y107783D01*
X-26989Y105875D01*
X-26002Y104165D01*
X-24605Y102768D01*
X-22895Y101781D01*
X-20987Y101270D01*
X-20305D01*
X-19457Y100000D01*
X-19500Y99895D01*
Y98105D01*
X-18815Y96451D01*
X-17549Y95185D01*
X-15895Y94500D01*
X-14105D01*
X-12451Y95185D01*
X-11185Y96451D01*
X-10500Y98105D01*
Y99895D01*
X-11185Y101549D01*
X-12451Y102815D01*
X-13230Y103138D01*
X-13385Y103345D01*
X-13705Y104673D01*
X-13011Y105875D01*
X-12500Y107783D01*
Y109757D01*
X-13011Y111665D01*
X-13999Y113375D01*
X-15395Y114771D01*
X-17105Y115759D01*
X-19013Y116270D01*
D02*
G37*
G36*
X-105Y103500D02*
X-1895D01*
X-3549Y102815D01*
X-4815Y101549D01*
X-5500Y99895D01*
Y98105D01*
X-4815Y96451D01*
X-3549Y95185D01*
X-3322Y94042D01*
X-3815Y93549D01*
X-4500Y91895D01*
Y90105D01*
X-3815Y88451D01*
X-2549Y87185D01*
X-895Y86500D01*
X895D01*
X2549Y87185D01*
X3815Y88451D01*
X4500Y90105D01*
Y91895D01*
X3815Y93549D01*
X2549Y94815D01*
X2322Y95958D01*
X2815Y96451D01*
X3500Y98105D01*
Y99895D01*
X2815Y101549D01*
X1549Y102815D01*
X-105Y103500D01*
D02*
G37*
G36*
X60895Y63500D02*
X59105D01*
X57451Y62815D01*
X56185Y61549D01*
X55500Y59895D01*
Y58105D01*
X56185Y56451D01*
X57451Y55185D01*
X59105Y54500D01*
X60895D01*
X62549Y55185D01*
X63815Y56451D01*
X64500Y58105D01*
Y59895D01*
X63815Y61549D01*
X62549Y62815D01*
X60895Y63500D01*
D02*
G37*
G36*
X-52105Y44500D02*
X-53895D01*
X-55549Y43815D01*
X-56815Y42549D01*
X-57500Y40895D01*
Y39105D01*
X-56815Y37451D01*
X-55549Y36185D01*
X-53895Y35500D01*
X-52105D01*
X-50451Y36185D01*
X-49185Y37451D01*
X-48500Y39105D01*
Y40895D01*
X-49185Y42549D01*
X-50451Y43815D01*
X-52105Y44500D01*
D02*
G37*
G36*
X-47105Y31500D02*
X-48895D01*
X-50549Y30815D01*
X-51815Y29549D01*
X-52500Y27895D01*
Y26105D01*
X-51815Y24451D01*
X-50549Y23185D01*
X-48895Y22500D01*
X-47105D01*
X-45451Y23185D01*
X-44185Y24451D01*
X-43500Y26105D01*
Y27895D01*
X-44185Y29549D01*
X-45451Y30815D01*
X-47105Y31500D01*
D02*
G37*
G36*
X12895Y52500D02*
X11105D01*
X9451Y51815D01*
X8185Y50549D01*
X7500Y48895D01*
Y47105D01*
X8185Y45451D01*
X9451Y44185D01*
X9678Y43042D01*
X9185Y42549D01*
X8500Y40895D01*
Y39105D01*
X9185Y37451D01*
X10451Y36185D01*
Y34815D01*
X9185Y33549D01*
X8500Y31895D01*
Y30105D01*
X9185Y28451D01*
X10451Y27185D01*
X11453Y26770D01*
X11200Y25500D01*
X11105D01*
X9451Y24815D01*
X8185Y23549D01*
X7500Y21895D01*
Y20105D01*
X8185Y18451D01*
X9451Y17185D01*
X11105Y16500D01*
X12895D01*
X14549Y17185D01*
X15815Y18451D01*
X16500Y20105D01*
Y21895D01*
X15815Y23549D01*
X14549Y24815D01*
X13547Y25230D01*
X13800Y26500D01*
X13895D01*
X15549Y27185D01*
X16815Y28451D01*
X17500Y30105D01*
Y31895D01*
X16815Y33549D01*
X15549Y34815D01*
Y36185D01*
X16815Y37451D01*
X17500Y39105D01*
Y40895D01*
X16815Y42549D01*
X15549Y43815D01*
X15322Y44958D01*
X15815Y45451D01*
X16500Y47105D01*
Y48895D01*
X15815Y50549D01*
X14549Y51815D01*
X12895Y52500D01*
D02*
G37*
G36*
X-40105Y20500D02*
X-41895D01*
X-43549Y19815D01*
X-44815Y18549D01*
X-45500Y16895D01*
Y15105D01*
X-44815Y13451D01*
X-43549Y12185D01*
X-41895Y11500D01*
X-40105D01*
X-38451Y12185D01*
X-37185Y13451D01*
X-36500Y15105D01*
Y16895D01*
X-37185Y18549D01*
X-38451Y19815D01*
X-40105Y20500D01*
D02*
G37*
G36*
X40895Y27500D02*
X39105D01*
X37451Y26815D01*
X36185Y25549D01*
X35500Y23895D01*
Y22105D01*
X36185Y20451D01*
X36806Y19830D01*
X37333Y19000D01*
X36806Y18170D01*
X36185Y17549D01*
X35500Y15895D01*
Y14105D01*
X36185Y12451D01*
X37451Y11185D01*
X39105Y10500D01*
X40096D01*
X40500Y9895D01*
Y8105D01*
X41185Y6451D01*
X42451Y5185D01*
X44105Y4500D01*
X45895D01*
X47549Y5185D01*
X48815Y6451D01*
X49500Y8105D01*
Y9895D01*
X48815Y11549D01*
X47549Y12815D01*
X45895Y13500D01*
X44904D01*
X44500Y14105D01*
Y15895D01*
X43815Y17549D01*
X43194Y18170D01*
X42667Y19000D01*
X43194Y19830D01*
X43815Y20451D01*
X44500Y22105D01*
Y23895D01*
X43815Y25549D01*
X42549Y26815D01*
X40895Y27500D01*
D02*
G37*
G36*
X-47105Y1500D02*
X-48895D01*
X-50549Y815D01*
X-51815Y-451D01*
X-52500Y-2105D01*
Y-3895D01*
X-51815Y-5549D01*
X-50549Y-6815D01*
X-48895Y-7500D01*
X-47624D01*
X-46893Y-7893D01*
X-46500Y-8624D01*
Y-9895D01*
X-45815Y-11549D01*
X-44549Y-12815D01*
X-42895Y-13500D01*
X-41105D01*
X-39451Y-12815D01*
X-38185Y-11549D01*
X-37500Y-9895D01*
Y-8105D01*
X-38185Y-6451D01*
X-39451Y-5185D01*
X-41105Y-4500D01*
X-42376D01*
X-43107Y-4107D01*
X-43500Y-3376D01*
Y-2105D01*
X-44185Y-451D01*
X-45451Y815D01*
X-47105Y1500D01*
D02*
G37*
G36*
X-69105Y-13500D02*
X-70895D01*
X-72549Y-14185D01*
X-73815Y-15451D01*
X-74500Y-17105D01*
Y-18895D01*
X-73815Y-20549D01*
X-72549Y-21815D01*
X-70895Y-22500D01*
X-69105D01*
X-67451Y-21815D01*
X-66185Y-20549D01*
X-65500Y-18895D01*
Y-17105D01*
X-66185Y-15451D01*
X-67451Y-14185D01*
X-69105Y-13500D01*
D02*
G37*
G36*
X56895Y-14500D02*
X55105D01*
X53451Y-15185D01*
X52185Y-16451D01*
X51500Y-18105D01*
Y-19895D01*
X52185Y-21549D01*
X53451Y-22815D01*
X55105Y-23500D01*
X56895D01*
X58549Y-22815D01*
X59815Y-21549D01*
X60500Y-19895D01*
Y-18105D01*
X59815Y-16451D01*
X58549Y-15185D01*
X56895Y-14500D01*
D02*
G37*
G36*
X69895Y-18500D02*
X68105D01*
X66451Y-19185D01*
X65185Y-20451D01*
X64500Y-22105D01*
Y-23895D01*
X65185Y-25549D01*
X66451Y-26815D01*
X68105Y-27500D01*
X69895D01*
X71549Y-26815D01*
X72815Y-25549D01*
X73500Y-23895D01*
Y-22105D01*
X72815Y-20451D01*
X71549Y-19185D01*
X69895Y-18500D01*
D02*
G37*
G36*
X-39105Y-21500D02*
X-40895D01*
X-42549Y-22185D01*
X-43815Y-23451D01*
X-44500Y-25105D01*
Y-26895D01*
X-43815Y-28549D01*
X-42549Y-29815D01*
X-40895Y-30500D01*
X-39105D01*
X-37451Y-29815D01*
X-36185Y-28549D01*
X-35500Y-26895D01*
Y-25105D01*
X-36185Y-23451D01*
X-37451Y-22185D01*
X-39105Y-21500D01*
D02*
G37*
G36*
X-53105Y-17500D02*
X-54895D01*
X-56549Y-18185D01*
X-57815Y-19451D01*
X-58500Y-21105D01*
Y-22895D01*
X-57815Y-24549D01*
X-56549Y-25815D01*
X-56428Y-25865D01*
Y-27135D01*
X-56549Y-27185D01*
X-57815Y-28451D01*
X-58500Y-30105D01*
Y-31895D01*
X-57815Y-33549D01*
X-56549Y-34815D01*
X-54895Y-35500D01*
X-53105D01*
X-51451Y-34815D01*
X-50185Y-33549D01*
X-49500Y-31895D01*
Y-30105D01*
X-50185Y-28451D01*
X-51451Y-27185D01*
X-51572Y-27135D01*
Y-25865D01*
X-51451Y-25815D01*
X-50185Y-24549D01*
X-49500Y-22895D01*
Y-21105D01*
X-50185Y-19451D01*
X-51451Y-18185D01*
X-53105Y-17500D01*
D02*
G37*
G36*
X-12105Y3500D02*
X-13895D01*
X-15549Y2815D01*
X-16815Y1549D01*
X-17500Y-105D01*
Y-1895D01*
X-16815Y-3549D01*
X-15549Y-4815D01*
Y-6185D01*
X-16815Y-7451D01*
X-17500Y-9105D01*
Y-10895D01*
X-16815Y-12549D01*
X-15549Y-13815D01*
X-15322Y-14958D01*
X-15815Y-15451D01*
X-16500Y-17105D01*
Y-18895D01*
X-15815Y-20549D01*
X-14549Y-21815D01*
Y-23185D01*
X-15815Y-24451D01*
X-16500Y-26105D01*
Y-27895D01*
X-15815Y-29549D01*
X-15378Y-29986D01*
X-15762Y-31398D01*
X-16815Y-32451D01*
X-17500Y-34105D01*
Y-35895D01*
X-16815Y-37549D01*
X-15549Y-38815D01*
X-13895Y-39500D01*
X-12105D01*
X-10451Y-38815D01*
X-9185Y-37549D01*
X-8500Y-35895D01*
Y-34105D01*
X-9185Y-32451D01*
X-9622Y-32014D01*
X-9238Y-30602D01*
X-8185Y-29549D01*
X-7500Y-27895D01*
Y-26105D01*
X-8185Y-24451D01*
X-9451Y-23185D01*
Y-21815D01*
X-8185Y-20549D01*
X-7500Y-18895D01*
Y-17105D01*
X-8185Y-15451D01*
X-9451Y-14185D01*
X-9678Y-13042D01*
X-9185Y-12549D01*
X-8500Y-10895D01*
Y-9105D01*
X-9185Y-7451D01*
X-10451Y-6185D01*
Y-4815D01*
X-9185Y-3549D01*
X-8500Y-1895D01*
Y-105D01*
X-9185Y1549D01*
X-10451Y2815D01*
X-12105Y3500D01*
D02*
G37*
G36*
X57895Y-33500D02*
X56105D01*
X54451Y-34185D01*
X53185Y-35451D01*
X52500Y-37105D01*
Y-38895D01*
X53185Y-40549D01*
X54451Y-41815D01*
X56105Y-42500D01*
X57895D01*
X59549Y-41815D01*
X60815Y-40549D01*
X61500Y-38895D01*
Y-37105D01*
X60815Y-35451D01*
X59549Y-34185D01*
X57895Y-33500D01*
D02*
G37*
G36*
X895Y-37500D02*
X-895D01*
X-2549Y-38185D01*
X-3815Y-39451D01*
X-4500Y-41105D01*
Y-42895D01*
X-3815Y-44549D01*
X-2549Y-45815D01*
X-895Y-46500D01*
X895D01*
X2549Y-45815D01*
X3815Y-44549D01*
X4500Y-42895D01*
Y-41105D01*
X3815Y-39451D01*
X2549Y-38185D01*
X895Y-37500D01*
D02*
G37*
G36*
X63895Y-42500D02*
X62105D01*
X60451Y-43185D01*
X59185Y-44451D01*
X58500Y-46105D01*
Y-47895D01*
X59185Y-49549D01*
X60451Y-50815D01*
X62105Y-51500D01*
X63895D01*
X65549Y-50815D01*
X66815Y-49549D01*
X67500Y-47895D01*
Y-46105D01*
X66815Y-44451D01*
X65549Y-43185D01*
X63895Y-42500D01*
D02*
G37*
G36*
X51895Y-46500D02*
X50105D01*
X48451Y-47185D01*
X47185Y-48451D01*
X46500Y-50105D01*
Y-51895D01*
X47185Y-53549D01*
X48451Y-54815D01*
X50105Y-55500D01*
X51895D01*
X53549Y-54815D01*
X54815Y-53549D01*
X55500Y-51895D01*
Y-50105D01*
X54815Y-48451D01*
X53549Y-47185D01*
X51895Y-46500D01*
D02*
G37*
G36*
X-40105Y-49500D02*
X-41895D01*
X-43549Y-50185D01*
X-44815Y-51451D01*
X-45500Y-53105D01*
Y-54895D01*
X-44815Y-56549D01*
X-43864Y-57500D01*
X-44815Y-58451D01*
X-45500Y-60105D01*
Y-61895D01*
X-44815Y-63549D01*
X-43864Y-64500D01*
X-44815Y-65451D01*
X-45500Y-67105D01*
Y-68895D01*
X-44815Y-70549D01*
X-43864Y-71500D01*
X-44815Y-72451D01*
X-45500Y-74105D01*
Y-75895D01*
X-44815Y-77549D01*
X-43864Y-78500D01*
X-44815Y-79451D01*
X-45500Y-81105D01*
Y-82895D01*
X-44815Y-84549D01*
X-43549Y-85815D01*
X-41895Y-86500D01*
X-40105D01*
X-38451Y-85815D01*
X-37185Y-84549D01*
X-36500Y-82895D01*
Y-81105D01*
X-37185Y-79451D01*
X-38136Y-78500D01*
X-37185Y-77549D01*
X-36500Y-75895D01*
Y-74105D01*
X-37185Y-72451D01*
X-38136Y-71500D01*
X-37185Y-70549D01*
X-36500Y-68895D01*
Y-67105D01*
X-37185Y-65451D01*
X-38136Y-64500D01*
X-37185Y-63549D01*
X-36500Y-61895D01*
Y-60105D01*
X-37185Y-58451D01*
X-38136Y-57500D01*
X-37185Y-56549D01*
X-36500Y-54895D01*
Y-53105D01*
X-37185Y-51451D01*
X-38451Y-50185D01*
X-40105Y-49500D01*
D02*
G37*
G36*
X-11105D02*
X-12895D01*
X-14549Y-50185D01*
X-15815Y-51451D01*
X-16500Y-53105D01*
Y-54895D01*
X-15815Y-56549D01*
X-14864Y-57500D01*
X-15815Y-58451D01*
X-16500Y-60105D01*
Y-61895D01*
X-15815Y-63549D01*
X-14864Y-64500D01*
X-15815Y-65451D01*
X-16500Y-67105D01*
Y-68895D01*
X-15815Y-70549D01*
X-14864Y-71500D01*
X-15815Y-72451D01*
X-16500Y-74105D01*
Y-75895D01*
X-15815Y-77549D01*
X-14864Y-78500D01*
X-15815Y-79451D01*
X-16500Y-81105D01*
Y-82895D01*
X-15815Y-84549D01*
X-14864Y-85500D01*
X-15815Y-86451D01*
X-16500Y-88105D01*
Y-89895D01*
X-15815Y-91549D01*
X-14864Y-92500D01*
X-15815Y-93451D01*
X-16276Y-94564D01*
X-17249Y-95078D01*
X-17752Y-95061D01*
X-19105Y-94500D01*
X-20895D01*
X-22549Y-95185D01*
X-23815Y-96451D01*
X-24500Y-98105D01*
Y-99895D01*
X-23815Y-101549D01*
X-23152Y-102212D01*
X-23399Y-103688D01*
X-25087Y-105376D01*
X-26000Y-107582D01*
Y-109969D01*
X-25087Y-112174D01*
X-23399Y-113862D01*
X-21193Y-114775D01*
X-18807D01*
X-16601Y-113862D01*
X-14914Y-112174D01*
X-14000Y-109969D01*
Y-107582D01*
X-14914Y-105376D01*
X-16601Y-103688D01*
X-16848Y-102212D01*
X-16185Y-101549D01*
X-15724Y-100436D01*
X-14751Y-99922D01*
X-14248Y-99939D01*
X-12895Y-100500D01*
X-11105D01*
X-9451Y-99815D01*
X-8185Y-98549D01*
X-7500Y-96895D01*
Y-95105D01*
X-8185Y-93451D01*
X-9136Y-92500D01*
X-8185Y-91549D01*
X-7500Y-89895D01*
Y-88105D01*
X-8185Y-86451D01*
X-9136Y-85500D01*
X-8185Y-84549D01*
X-7500Y-82895D01*
Y-81105D01*
X-8185Y-79451D01*
X-9136Y-78500D01*
X-8185Y-77549D01*
X-7500Y-75895D01*
Y-74105D01*
X-8185Y-72451D01*
X-9136Y-71500D01*
X-8185Y-70549D01*
X-7500Y-68895D01*
Y-67105D01*
X-8185Y-65451D01*
X-9136Y-64500D01*
X-8185Y-63549D01*
X-7500Y-61895D01*
Y-60105D01*
X-8185Y-58451D01*
X-9136Y-57500D01*
X-8185Y-56549D01*
X-7500Y-54895D01*
Y-53105D01*
X-8185Y-51451D01*
X-9451Y-50185D01*
X-11105Y-49500D01*
D02*
G37*
G36*
X-53105Y-103500D02*
X-54895D01*
X-56549Y-104185D01*
X-57815Y-105451D01*
X-58500Y-107105D01*
Y-108895D01*
X-57815Y-110549D01*
X-56549Y-111815D01*
X-54895Y-112500D01*
X-53105D01*
X-51451Y-111815D01*
X-50185Y-110549D01*
X-49500Y-108895D01*
Y-107105D01*
X-50185Y-105451D01*
X-51451Y-104185D01*
X-53105Y-103500D01*
D02*
G37*
G36*
X2895Y-112500D02*
X1105D01*
X-549Y-113185D01*
X-1815Y-114451D01*
X-2500Y-116105D01*
Y-117895D01*
X-1815Y-119549D01*
X-549Y-120815D01*
X1105Y-121500D01*
X2895D01*
X4549Y-120815D01*
X5815Y-119549D01*
X6500Y-117895D01*
Y-116105D01*
X5815Y-114451D01*
X4549Y-113185D01*
X2895Y-112500D01*
D02*
G37*
G36*
X48895Y-58500D02*
X47105D01*
X45451Y-59185D01*
X44185Y-60451D01*
X43500Y-62105D01*
Y-63895D01*
X44185Y-65549D01*
X45136Y-66500D01*
X44185Y-67451D01*
X43500Y-69105D01*
Y-70895D01*
X44185Y-72549D01*
X45136Y-73500D01*
X44185Y-74451D01*
X43500Y-76105D01*
Y-77895D01*
X44185Y-79549D01*
X45136Y-80500D01*
X44185Y-81451D01*
X43500Y-83105D01*
Y-84895D01*
X44185Y-86549D01*
X45136Y-87500D01*
X44185Y-88451D01*
X43500Y-90105D01*
Y-91895D01*
X44185Y-93549D01*
X45136Y-94500D01*
X44185Y-95451D01*
X43500Y-97105D01*
Y-98895D01*
X44185Y-100549D01*
X45136Y-101500D01*
X44185Y-102451D01*
X43500Y-104105D01*
Y-105895D01*
X44185Y-107549D01*
X45136Y-108500D01*
X44185Y-109451D01*
X43500Y-111105D01*
Y-112895D01*
X44185Y-114549D01*
X45136Y-115500D01*
X44185Y-116451D01*
X43500Y-118105D01*
Y-119895D01*
X44185Y-121549D01*
X45451Y-122815D01*
X47105Y-123500D01*
X48895D01*
X50549Y-122815D01*
X51815Y-121549D01*
X52500Y-119895D01*
Y-118105D01*
X51815Y-116451D01*
X50864Y-115500D01*
X51815Y-114549D01*
X52500Y-112895D01*
Y-111105D01*
X51815Y-109451D01*
X50864Y-108500D01*
X51815Y-107549D01*
X52500Y-105895D01*
Y-104105D01*
X51815Y-102451D01*
X50864Y-101500D01*
X51815Y-100549D01*
X52500Y-98895D01*
Y-97105D01*
X51815Y-95451D01*
X50864Y-94500D01*
X51815Y-93549D01*
X52500Y-91895D01*
Y-90105D01*
X51815Y-88451D01*
X50864Y-87500D01*
X51815Y-86549D01*
X52500Y-84895D01*
Y-83105D01*
X51815Y-81451D01*
X50864Y-80500D01*
X51815Y-79549D01*
X52500Y-77895D01*
Y-76105D01*
X51815Y-74451D01*
X50864Y-73500D01*
X51815Y-72549D01*
X52500Y-70895D01*
Y-69105D01*
X51815Y-67451D01*
X50864Y-66500D01*
X51815Y-65549D01*
X52500Y-63895D01*
Y-62105D01*
X51815Y-60451D01*
X50549Y-59185D01*
X48895Y-58500D01*
D02*
G37*
G36*
X52895Y-126500D02*
X51105D01*
X49451Y-127185D01*
X48185Y-128451D01*
X47500Y-130105D01*
Y-131895D01*
X48185Y-133549D01*
X49451Y-134815D01*
X51105Y-135500D01*
X52895D01*
X54549Y-134815D01*
X55815Y-133549D01*
X56500Y-131895D01*
Y-130105D01*
X55815Y-128451D01*
X54549Y-127185D01*
X52895Y-126500D01*
D02*
G37*
G36*
X-12105Y-139500D02*
X-13895D01*
X-15549Y-140185D01*
X-16815Y-141451D01*
X-17500Y-143105D01*
Y-144895D01*
X-16815Y-146549D01*
X-15549Y-147815D01*
X-13895Y-148500D01*
X-12105D01*
X-10451Y-147815D01*
X-9185Y-146549D01*
X-8500Y-144895D01*
Y-143105D01*
X-9185Y-141451D01*
X-10451Y-140185D01*
X-12105Y-139500D01*
D02*
G37*
G36*
X54895Y-148500D02*
X53105D01*
X51451Y-149185D01*
X50185Y-150451D01*
X49500Y-152105D01*
Y-153895D01*
X50185Y-155549D01*
X50806Y-156170D01*
X51333Y-157000D01*
X50806Y-157830D01*
X50185Y-158451D01*
X49500Y-160105D01*
Y-161895D01*
X50185Y-163549D01*
X51451Y-164815D01*
X53105Y-165500D01*
X54895D01*
X56549Y-164815D01*
X57815Y-163549D01*
X58500Y-161895D01*
Y-160105D01*
X57815Y-158451D01*
X57194Y-157830D01*
X56667Y-157000D01*
X57194Y-156170D01*
X57815Y-155549D01*
X58500Y-153895D01*
Y-152105D01*
X57815Y-150451D01*
X56549Y-149185D01*
X54895Y-148500D01*
D02*
G37*
G36*
X31895Y-168500D02*
X30105D01*
X28451Y-169185D01*
X27185Y-170451D01*
X26500Y-172105D01*
Y-173895D01*
X27185Y-175549D01*
X28451Y-176815D01*
X30105Y-177500D01*
X31895D01*
X33549Y-176815D01*
X34815Y-175549D01*
X35500Y-173895D01*
Y-172105D01*
X34815Y-170451D01*
X33549Y-169185D01*
X31895Y-168500D01*
D02*
G37*
G36*
X17869Y-169744D02*
X16079D01*
X14425Y-170429D01*
X13159Y-171695D01*
X12474Y-173349D01*
Y-175139D01*
X13159Y-176793D01*
X14425Y-178059D01*
X16079Y-178744D01*
X17869D01*
X19523Y-178059D01*
X20789Y-176793D01*
X21474Y-175139D01*
Y-173349D01*
X20789Y-171695D01*
X19523Y-170429D01*
X17869Y-169744D01*
D02*
G37*
G36*
X59895Y-172500D02*
X58105D01*
X56451Y-173185D01*
X55185Y-174451D01*
X54500Y-176105D01*
Y-177895D01*
X55185Y-179549D01*
X56451Y-180815D01*
X58105Y-181500D01*
X59895D01*
X61549Y-180815D01*
X62815Y-179549D01*
X63500Y-177895D01*
Y-176105D01*
X62815Y-174451D01*
X61549Y-173185D01*
X59895Y-172500D01*
D02*
G37*
G36*
X-20105Y-166500D02*
X-21895D01*
X-23549Y-167185D01*
X-24815Y-168451D01*
X-25500Y-170105D01*
Y-171895D01*
X-24815Y-173549D01*
X-24134Y-174230D01*
X-24660Y-175500D01*
X-24895D01*
X-26549Y-176185D01*
X-27815Y-177451D01*
X-28500Y-179105D01*
Y-180895D01*
X-27815Y-182549D01*
X-26549Y-183815D01*
X-24895Y-184500D01*
X-23105D01*
X-21451Y-183815D01*
X-20185Y-182549D01*
X-19500Y-180895D01*
Y-179105D01*
X-20185Y-177451D01*
X-20866Y-176770D01*
X-20340Y-175500D01*
X-20105D01*
X-18451Y-174815D01*
X-17185Y-173549D01*
X-16500Y-171895D01*
Y-170105D01*
X-17185Y-168451D01*
X-18451Y-167185D01*
X-20105Y-166500D01*
D02*
G37*
G36*
X-1105Y-171500D02*
X-2895D01*
X-4549Y-172185D01*
X-5815Y-173451D01*
X-6500Y-175105D01*
Y-176895D01*
X-5894Y-178358D01*
X-5832Y-178589D01*
X-6345Y-179815D01*
X-7240Y-180185D01*
X-8505Y-181451D01*
X-9190Y-183105D01*
Y-184895D01*
X-8505Y-186549D01*
X-7240Y-187815D01*
X-7107Y-188483D01*
X-7897Y-189272D01*
X-8582Y-190926D01*
Y-192717D01*
X-7897Y-194370D01*
X-6631Y-195636D01*
X-4977Y-196321D01*
X-3187D01*
X-1533Y-195636D01*
X-267Y-194370D01*
X418Y-192717D01*
Y-190926D01*
X-267Y-189272D01*
X-1532Y-188006D01*
X-1665Y-187339D01*
X-876Y-186549D01*
X-191Y-184895D01*
Y-183105D01*
X-796Y-181642D01*
X-859Y-181411D01*
X-345Y-180185D01*
X549Y-179815D01*
X1815Y-178549D01*
X2500Y-176895D01*
Y-175105D01*
X1815Y-173451D01*
X549Y-172185D01*
X-1105Y-171500D01*
D02*
G37*
G36*
X59895Y-183500D02*
X58105D01*
X56451Y-184185D01*
X55185Y-185451D01*
X54500Y-187105D01*
Y-188895D01*
X55185Y-190549D01*
X55806Y-191170D01*
X56333Y-192000D01*
X55806Y-192830D01*
X55185Y-193451D01*
X54500Y-195105D01*
Y-196895D01*
X55185Y-198549D01*
X56451Y-199815D01*
X58105Y-200500D01*
X59895D01*
X61549Y-199815D01*
X62815Y-198549D01*
X63500Y-196895D01*
Y-195105D01*
X62815Y-193451D01*
X62194Y-192830D01*
X61667Y-192000D01*
X62194Y-191170D01*
X62815Y-190549D01*
X63500Y-188895D01*
Y-187105D01*
X62815Y-185451D01*
X61549Y-184185D01*
X59895Y-183500D01*
D02*
G37*
G36*
X18895Y-181500D02*
X17105D01*
X15451Y-182185D01*
X14185Y-183451D01*
X13500Y-185105D01*
Y-186895D01*
X14185Y-188549D01*
X15451Y-189815D01*
X17105Y-190500D01*
X18096D01*
X18500Y-191105D01*
Y-192895D01*
X19185Y-194549D01*
X20451Y-195815D01*
X22105Y-196500D01*
X23895D01*
X24500Y-196904D01*
Y-197895D01*
X25185Y-199549D01*
X26451Y-200815D01*
X28105Y-201500D01*
X29895D01*
X31549Y-200815D01*
X32815Y-199549D01*
X33500Y-197895D01*
Y-196105D01*
X32815Y-194451D01*
X31549Y-193185D01*
X29895Y-192500D01*
X28105D01*
X27500Y-192096D01*
Y-191105D01*
X26815Y-189451D01*
X25549Y-188185D01*
X23895Y-187500D01*
X22904D01*
X22500Y-186895D01*
Y-185105D01*
X21815Y-183451D01*
X20549Y-182185D01*
X18895Y-181500D01*
D02*
G37*
G36*
X-23105Y-196500D02*
X-24895D01*
X-26549Y-197185D01*
X-27815Y-198451D01*
X-28500Y-200105D01*
Y-201895D01*
X-27815Y-203549D01*
X-26549Y-204815D01*
X-24895Y-205500D01*
X-23105D01*
X-22524Y-205260D01*
X-21860Y-205807D01*
X-21500Y-206210D01*
Y-207895D01*
X-20815Y-209549D01*
X-19549Y-210815D01*
X-17895Y-211500D01*
X-16105D01*
X-14451Y-210815D01*
X-13185Y-209549D01*
X-12500Y-207895D01*
Y-206105D01*
X-13185Y-204451D01*
X-14451Y-203185D01*
X-16105Y-202500D01*
X-17895D01*
X-18476Y-202740D01*
X-19139Y-202192D01*
X-19500Y-201790D01*
Y-200105D01*
X-20185Y-198451D01*
X-21451Y-197185D01*
X-23105Y-196500D01*
D02*
G37*
G36*
X-46105Y-206500D02*
X-47895D01*
X-49549Y-207185D01*
X-50815Y-208451D01*
X-51500Y-210105D01*
Y-211895D01*
X-50815Y-213549D01*
X-49549Y-214815D01*
X-47895Y-215500D01*
X-46105D01*
X-44451Y-214815D01*
X-43185Y-213549D01*
X-42500Y-211895D01*
Y-210105D01*
X-43185Y-208451D01*
X-44451Y-207185D01*
X-46105Y-206500D01*
D02*
G37*
G36*
X55895Y-210500D02*
X54105D01*
X52451Y-211185D01*
X51185Y-212451D01*
X50500Y-214105D01*
Y-215895D01*
X51185Y-217549D01*
X52451Y-218815D01*
X54105Y-219500D01*
X54759Y-220479D01*
X54500Y-221105D01*
Y-222895D01*
X55185Y-224549D01*
X56451Y-225815D01*
X58105Y-226500D01*
X59895D01*
X61549Y-225815D01*
X62815Y-224549D01*
X63500Y-222895D01*
Y-221105D01*
X62815Y-219451D01*
X61549Y-218185D01*
X59895Y-217500D01*
X59241Y-216521D01*
X59500Y-215895D01*
Y-214105D01*
X58815Y-212451D01*
X57549Y-211185D01*
X55895Y-210500D01*
D02*
G37*
G36*
X34895Y-215500D02*
X33105D01*
X31451Y-216185D01*
X30185Y-217451D01*
X29500Y-219105D01*
Y-220895D01*
X30185Y-222549D01*
X31451Y-223815D01*
X31954Y-224023D01*
X32087Y-224336D01*
X32155Y-225481D01*
X31185Y-226451D01*
X30500Y-228105D01*
Y-229895D01*
X31185Y-231549D01*
X32451Y-232815D01*
X34105Y-233500D01*
X35895D01*
X37549Y-232815D01*
X38815Y-231549D01*
X39500Y-229895D01*
Y-228105D01*
X38815Y-226451D01*
X37549Y-225185D01*
X37046Y-224977D01*
X36913Y-224664D01*
X36845Y-223519D01*
X37815Y-222549D01*
X38500Y-220895D01*
Y-219105D01*
X37815Y-217451D01*
X36549Y-216185D01*
X34895Y-215500D01*
D02*
G37*
G36*
X-23105Y-224500D02*
X-24895D01*
X-26549Y-225185D01*
X-27815Y-226451D01*
X-28500Y-228105D01*
Y-229895D01*
X-27815Y-231549D01*
X-26549Y-232815D01*
X-24895Y-233500D01*
X-23105D01*
X-21451Y-232815D01*
X-20185Y-231549D01*
X-19500Y-229895D01*
Y-228105D01*
X-20185Y-226451D01*
X-21451Y-225185D01*
X-23105Y-224500D01*
D02*
G37*
G36*
X-46105D02*
X-47895D01*
X-49549Y-225185D01*
X-50815Y-226451D01*
X-51500Y-228105D01*
Y-229895D01*
X-50815Y-231549D01*
X-49549Y-232815D01*
X-47895Y-233500D01*
X-46105D01*
X-44451Y-232815D01*
X-43185Y-231549D01*
X-42500Y-229895D01*
Y-228105D01*
X-43185Y-226451D01*
X-44451Y-225185D01*
X-46105Y-224500D01*
D02*
G37*
G36*
X54895Y-243500D02*
X53105D01*
X51451Y-244185D01*
X50185Y-245451D01*
X49500Y-247105D01*
Y-248096D01*
X48895Y-248500D01*
X47105D01*
X45451Y-249185D01*
X44185Y-250451D01*
X43500Y-252105D01*
Y-253895D01*
X44185Y-255549D01*
X45451Y-256815D01*
X47105Y-257500D01*
X48895D01*
X50549Y-256815D01*
X51815Y-255549D01*
X52500Y-253895D01*
Y-252904D01*
X53105Y-252500D01*
X54895D01*
X56549Y-251815D01*
X57815Y-250549D01*
X58500Y-248895D01*
Y-247105D01*
X57815Y-245451D01*
X56549Y-244185D01*
X54895Y-243500D01*
D02*
G37*
G36*
X57895Y-254500D02*
X56105D01*
X54451Y-255185D01*
X53185Y-256451D01*
X52500Y-258105D01*
Y-258790D01*
X51230Y-259639D01*
X50895Y-259500D01*
X49105D01*
X47451Y-260185D01*
X46185Y-261451D01*
X45500Y-263105D01*
Y-264895D01*
X46185Y-266549D01*
X47451Y-267815D01*
X49105Y-268500D01*
X50895D01*
X52549Y-267815D01*
X53815Y-266549D01*
X54500Y-264895D01*
Y-264210D01*
X55770Y-263361D01*
X56105Y-263500D01*
X57895D01*
X59549Y-262815D01*
X60815Y-261549D01*
X61500Y-259895D01*
Y-258105D01*
X60815Y-256451D01*
X59549Y-255185D01*
X57895Y-254500D01*
D02*
G37*
G36*
X-21105Y-253500D02*
X-22895D01*
X-24549Y-254185D01*
X-25815Y-255451D01*
X-26500Y-257105D01*
Y-258895D01*
X-25815Y-260549D01*
X-24549Y-261815D01*
X-22895Y-262500D01*
X-21105D01*
X-19451Y-261815D01*
X-18185Y-260549D01*
X-17500Y-258895D01*
Y-257105D01*
X-18185Y-255451D01*
X-19451Y-254185D01*
X-21105Y-253500D01*
D02*
G37*
G36*
X-41105D02*
X-42895D01*
X-44549Y-254185D01*
X-45815Y-255451D01*
X-46500Y-257105D01*
Y-258895D01*
X-45815Y-260549D01*
X-44549Y-261815D01*
X-42895Y-262500D01*
X-41105D01*
X-39451Y-261815D01*
X-38185Y-260549D01*
X-37500Y-258895D01*
Y-257105D01*
X-38185Y-255451D01*
X-39451Y-254185D01*
X-41105Y-253500D01*
D02*
G37*
G36*
X-22105Y-288500D02*
X-23895D01*
X-25549Y-289185D01*
X-26815Y-290451D01*
X-27500Y-292105D01*
Y-293895D01*
X-26815Y-295549D01*
X-25549Y-296815D01*
X-23895Y-297500D01*
X-22105D01*
X-20451Y-296815D01*
X-19185Y-295549D01*
X-18500Y-293895D01*
Y-292105D01*
X-19185Y-290451D01*
X-20451Y-289185D01*
X-22105Y-288500D01*
D02*
G37*
G36*
X37490Y-294095D02*
X35700D01*
X34046Y-294780D01*
X32780Y-296046D01*
X32095Y-297700D01*
Y-299490D01*
X32780Y-301144D01*
X34046Y-302410D01*
X35700Y-303095D01*
X37490D01*
X39144Y-302410D01*
X40410Y-301144D01*
X41095Y-299490D01*
Y-297700D01*
X40410Y-296046D01*
X39144Y-294780D01*
X37490Y-294095D01*
D02*
G37*
G36*
X-52105Y-310500D02*
X-53895D01*
X-55549Y-311185D01*
X-56815Y-312451D01*
X-57500Y-314105D01*
Y-315895D01*
X-56815Y-317549D01*
X-55549Y-318815D01*
X-53895Y-319500D01*
X-52105D01*
X-50451Y-318815D01*
X-49185Y-317549D01*
X-48500Y-315895D01*
Y-314105D01*
X-49185Y-312451D01*
X-50451Y-311185D01*
X-52105Y-310500D01*
D02*
G37*
G36*
X47895Y-311500D02*
X46105D01*
X44451Y-312185D01*
X43185Y-313451D01*
X42500Y-315105D01*
Y-316895D01*
X43185Y-318549D01*
X44451Y-319815D01*
X46105Y-320500D01*
X47895D01*
X49549Y-319815D01*
X50815Y-318549D01*
X51500Y-316895D01*
Y-315105D01*
X50815Y-313451D01*
X49549Y-312185D01*
X47895Y-311500D01*
D02*
G37*
G36*
X68895Y-305500D02*
X67105D01*
X65451Y-306185D01*
X64185Y-307451D01*
X63500Y-309105D01*
Y-310895D01*
X64185Y-312549D01*
X64806Y-313170D01*
X65333Y-314000D01*
X64806Y-314830D01*
X64185Y-315451D01*
X63500Y-317105D01*
Y-318895D01*
X64185Y-320549D01*
X65451Y-321815D01*
X67105Y-322500D01*
X68895D01*
X70549Y-321815D01*
X71815Y-320549D01*
X72500Y-318895D01*
Y-317105D01*
X71815Y-315451D01*
X71194Y-314830D01*
X70667Y-314000D01*
X71194Y-313170D01*
X71815Y-312549D01*
X72500Y-310895D01*
Y-309105D01*
X71815Y-307451D01*
X70549Y-306185D01*
X68895Y-305500D01*
D02*
G37*
G36*
X31895Y-307201D02*
X30105D01*
X28451Y-307886D01*
X27185Y-309152D01*
X26500Y-310806D01*
Y-312596D01*
X26762Y-313230D01*
X25914Y-314500D01*
X25105D01*
X23451Y-315185D01*
X22185Y-316451D01*
X21500Y-318105D01*
Y-319895D01*
X22185Y-321549D01*
X23451Y-322815D01*
X25105Y-323500D01*
X26895D01*
X28549Y-322815D01*
X29815Y-321549D01*
X30500Y-319895D01*
Y-318105D01*
X30238Y-317471D01*
X31086Y-316201D01*
X31895D01*
X33549Y-315516D01*
X34815Y-314250D01*
X35500Y-312596D01*
Y-310806D01*
X34815Y-309152D01*
X33549Y-307886D01*
X31895Y-307201D01*
D02*
G37*
G36*
X80895Y-324500D02*
X79105D01*
X77451Y-325185D01*
X76830Y-325806D01*
X76000Y-326333D01*
X75170Y-325806D01*
X74549Y-325185D01*
X72895Y-324500D01*
X71105D01*
X69451Y-325185D01*
X68185Y-326451D01*
X67500Y-328105D01*
Y-329895D01*
X68185Y-331549D01*
X69451Y-332815D01*
X71105Y-333500D01*
X72895D01*
X74549Y-332815D01*
X75170Y-332194D01*
X76000Y-331667D01*
X76830Y-332194D01*
X77451Y-332815D01*
X79105Y-333500D01*
X80895D01*
X82549Y-332815D01*
X83815Y-331549D01*
X84500Y-329895D01*
Y-328105D01*
X83815Y-326451D01*
X82549Y-325185D01*
X80895Y-324500D01*
D02*
G37*
G36*
X8895Y-321500D02*
X7105D01*
X5451Y-322185D01*
X4185Y-323451D01*
X3500Y-325105D01*
Y-326895D01*
X4185Y-328549D01*
X5451Y-329815D01*
X7105Y-330500D01*
X8895D01*
X10549Y-329815D01*
X11815Y-328549D01*
X12500Y-326895D01*
Y-325105D01*
X11815Y-323451D01*
X10549Y-322185D01*
X8895Y-321500D01*
D02*
G37*
G36*
X19895Y-322500D02*
X18105D01*
X16451Y-323185D01*
X15185Y-324451D01*
X14500Y-326105D01*
Y-327895D01*
X15185Y-329549D01*
X16451Y-330815D01*
X18105Y-331500D01*
X19895D01*
X21549Y-330815D01*
X22815Y-329549D01*
X23500Y-327895D01*
Y-326105D01*
X22815Y-324451D01*
X21549Y-323185D01*
X19895Y-322500D01*
D02*
G37*
G36*
X-39105Y-324500D02*
X-40895D01*
X-42549Y-325185D01*
X-43815Y-326451D01*
X-44500Y-328105D01*
Y-329895D01*
X-43815Y-331549D01*
X-42549Y-332815D01*
X-40895Y-333500D01*
X-40858Y-333555D01*
X-41500Y-335105D01*
Y-336895D01*
X-40815Y-338549D01*
X-39549Y-339815D01*
X-37895Y-340500D01*
X-36105D01*
X-34451Y-339815D01*
X-33185Y-338549D01*
X-32500Y-336895D01*
Y-335105D01*
X-33185Y-333451D01*
X-34451Y-332185D01*
X-36105Y-331500D01*
X-36142Y-331445D01*
X-35500Y-329895D01*
Y-328105D01*
X-36185Y-326451D01*
X-37451Y-325185D01*
X-39105Y-324500D01*
D02*
G37*
G36*
X-54105Y-347500D02*
X-55895D01*
X-57549Y-348185D01*
X-58815Y-349451D01*
X-59500Y-351105D01*
Y-352895D01*
X-58815Y-354549D01*
X-57549Y-355815D01*
X-55895Y-356500D01*
X-54105D01*
X-52451Y-355815D01*
X-51185Y-354549D01*
X-50500Y-352895D01*
Y-351105D01*
X-51185Y-349451D01*
X-52451Y-348185D01*
X-54105Y-347500D01*
D02*
G37*
G36*
X-20105Y-339500D02*
X-21895D01*
X-23549Y-340185D01*
X-24815Y-341451D01*
X-25500Y-343105D01*
Y-344895D01*
X-24815Y-346549D01*
X-23549Y-347815D01*
X-21895Y-348500D01*
X-20904D01*
X-20500Y-349105D01*
Y-350895D01*
X-19940Y-352248D01*
X-19922Y-352751D01*
X-20436Y-353724D01*
X-21549Y-354185D01*
X-22815Y-355451D01*
X-23500Y-357105D01*
Y-358895D01*
X-22815Y-360549D01*
X-21549Y-361815D01*
X-19895Y-362500D01*
X-18105D01*
X-16451Y-361815D01*
X-15185Y-360549D01*
X-14500Y-358895D01*
Y-357105D01*
X-15060Y-355752D01*
X-15078Y-355249D01*
X-14564Y-354276D01*
X-13451Y-353815D01*
X-12185Y-352549D01*
X-11500Y-350895D01*
Y-349105D01*
X-12185Y-347451D01*
X-13451Y-346185D01*
X-15105Y-345500D01*
X-16096D01*
X-16500Y-344895D01*
Y-343105D01*
X-17185Y-341451D01*
X-18451Y-340185D01*
X-20105Y-339500D01*
D02*
G37*
G36*
X80895Y-362500D02*
X79105D01*
X77451Y-363185D01*
X76830Y-363806D01*
X76000Y-364333D01*
X75170Y-363806D01*
X74549Y-363185D01*
X72895Y-362500D01*
X71105D01*
X69451Y-363185D01*
X68185Y-364451D01*
X67500Y-366105D01*
Y-367895D01*
X68185Y-369549D01*
X69451Y-370815D01*
X71105Y-371500D01*
X72895D01*
X74549Y-370815D01*
X75170Y-370194D01*
X76000Y-369667D01*
X76830Y-370194D01*
X77451Y-370815D01*
X79105Y-371500D01*
X80895D01*
X82549Y-370815D01*
X83815Y-369549D01*
X84500Y-367895D01*
Y-366105D01*
X83815Y-364451D01*
X82549Y-363185D01*
X80895Y-362500D01*
D02*
G37*
G36*
X-35105Y-360500D02*
X-36895D01*
X-38549Y-361185D01*
X-39815Y-362451D01*
X-40500Y-364105D01*
Y-365895D01*
X-39815Y-367549D01*
X-39194Y-368170D01*
X-38667Y-369000D01*
X-39194Y-369830D01*
X-39815Y-370451D01*
X-40500Y-372105D01*
Y-373895D01*
X-39815Y-375549D01*
X-38549Y-376815D01*
X-36895Y-377500D01*
X-35105D01*
X-33451Y-376815D01*
X-32185Y-375549D01*
X-31673Y-374314D01*
X-30327D01*
X-29815Y-375549D01*
X-28549Y-376815D01*
X-26895Y-377500D01*
X-25105D01*
X-23451Y-376815D01*
X-22185Y-375549D01*
X-21500Y-373895D01*
Y-372105D01*
X-22185Y-370451D01*
X-23451Y-369185D01*
X-25105Y-368500D01*
X-26895D01*
X-28549Y-369185D01*
X-29815Y-370451D01*
X-30327Y-371687D01*
X-31673D01*
X-32185Y-370451D01*
X-32806Y-369830D01*
X-33333Y-369000D01*
X-32806Y-368170D01*
X-32185Y-367549D01*
X-31500Y-365895D01*
Y-364105D01*
X-32185Y-362451D01*
X-33451Y-361185D01*
X-35105Y-360500D01*
D02*
G37*
G36*
X14895Y-378500D02*
X13105D01*
X11451Y-379185D01*
X10185Y-380451D01*
X9500Y-382105D01*
Y-383895D01*
X10185Y-385549D01*
X10806Y-386170D01*
X11333Y-387000D01*
X10806Y-387830D01*
X10185Y-388451D01*
X9500Y-390105D01*
Y-391027D01*
X8230Y-391875D01*
X7835Y-391711D01*
X6673D01*
X6044Y-391711D01*
X5500Y-390562D01*
Y-390105D01*
X4815Y-388451D01*
X3762Y-387398D01*
X3378Y-385986D01*
X3815Y-385549D01*
X4500Y-383895D01*
Y-382105D01*
X3815Y-380451D01*
X2549Y-379185D01*
X895Y-378500D01*
X-895D01*
X-2549Y-379185D01*
X-3815Y-380451D01*
X-4500Y-382105D01*
Y-383895D01*
X-3815Y-385549D01*
X-2762Y-386602D01*
X-2378Y-388014D01*
X-2815Y-388451D01*
X-3500Y-390105D01*
Y-391895D01*
X-2815Y-393549D01*
X-1549Y-394815D01*
X105Y-395500D01*
X1266D01*
X1895Y-395500D01*
X2440Y-396649D01*
Y-397107D01*
X3125Y-398760D01*
X4390Y-400026D01*
X6044Y-400711D01*
X7835D01*
X9489Y-400026D01*
X10754Y-398760D01*
X11440Y-397107D01*
Y-396185D01*
X12710Y-395336D01*
X13105Y-395500D01*
X14895D01*
X16549Y-394815D01*
X17815Y-393549D01*
X18500Y-391895D01*
Y-390105D01*
X17815Y-388451D01*
X17194Y-387830D01*
X16667Y-387000D01*
X17194Y-386170D01*
X17815Y-385549D01*
X18500Y-383895D01*
Y-382105D01*
X17815Y-380451D01*
X16549Y-379185D01*
X14895Y-378500D01*
D02*
G37*
G36*
X16895Y-400500D02*
X15105D01*
X13451Y-401185D01*
X12185Y-402451D01*
X11500Y-404105D01*
Y-405895D01*
X12185Y-407549D01*
X13451Y-408815D01*
X15105Y-409500D01*
X16895D01*
X18549Y-408815D01*
X19815Y-407549D01*
X20500Y-405895D01*
Y-404105D01*
X19815Y-402451D01*
X18549Y-401185D01*
X16895Y-400500D01*
D02*
G37*
G36*
X60895Y-407500D02*
X59105D01*
X57451Y-408185D01*
X56185Y-409451D01*
X55500Y-411105D01*
Y-412895D01*
X56185Y-414549D01*
X57451Y-415815D01*
X59105Y-416500D01*
X60895D01*
X62549Y-415815D01*
X63815Y-414549D01*
X64500Y-412895D01*
Y-411105D01*
X63815Y-409451D01*
X62549Y-408185D01*
X60895Y-407500D01*
D02*
G37*
G36*
X-2105Y-410500D02*
X-3895D01*
X-5549Y-411185D01*
X-6815Y-412451D01*
X-7500Y-414105D01*
Y-415895D01*
X-6815Y-417549D01*
X-5549Y-418815D01*
X-3895Y-419500D01*
X-2105D01*
X-451Y-418815D01*
X815Y-417549D01*
X1500Y-415895D01*
Y-414105D01*
X815Y-412451D01*
X-451Y-411185D01*
X-2105Y-410500D01*
D02*
G37*
G36*
X8895Y-412500D02*
X7105D01*
X5451Y-413185D01*
X4185Y-414451D01*
X3500Y-416105D01*
Y-417895D01*
X4185Y-419549D01*
X5451Y-420815D01*
X7105Y-421500D01*
X8895D01*
X10549Y-420815D01*
X11815Y-419549D01*
X12500Y-417895D01*
Y-416105D01*
X11815Y-414451D01*
X10549Y-413185D01*
X8895Y-412500D01*
D02*
G37*
G36*
X-59105Y-414500D02*
X-60895D01*
X-62549Y-415185D01*
X-63815Y-416451D01*
X-64500Y-418105D01*
Y-419895D01*
X-63815Y-421549D01*
X-62549Y-422815D01*
X-60895Y-423500D01*
X-59105D01*
X-57451Y-422815D01*
X-56185Y-421549D01*
X-55500Y-419895D01*
Y-418105D01*
X-56185Y-416451D01*
X-57451Y-415185D01*
X-59105Y-414500D01*
D02*
G37*
G36*
X8895Y-433500D02*
X7105D01*
X5451Y-434185D01*
X4185Y-435451D01*
X3500Y-437105D01*
Y-438895D01*
X4185Y-440549D01*
X5451Y-441815D01*
X7105Y-442500D01*
X8895D01*
X10549Y-441815D01*
X11815Y-440549D01*
X12500Y-438895D01*
Y-437105D01*
X11815Y-435451D01*
X10549Y-434185D01*
X8895Y-433500D01*
D02*
G37*
G36*
X37895Y-444500D02*
X36105D01*
X34451Y-445185D01*
X33185Y-446451D01*
X32500Y-448105D01*
Y-449895D01*
X33185Y-451549D01*
X34451Y-452815D01*
X36105Y-453500D01*
X37895D01*
X39549Y-452815D01*
X40815Y-451549D01*
X41500Y-449895D01*
Y-448105D01*
X40815Y-446451D01*
X39549Y-445185D01*
X37895Y-444500D01*
D02*
G37*
G36*
X-24105Y-459500D02*
X-25895D01*
X-27549Y-460185D01*
X-28815Y-461451D01*
X-29500Y-463105D01*
Y-464895D01*
X-28815Y-466549D01*
X-27549Y-467815D01*
X-25895Y-468500D01*
X-24105D01*
X-22451Y-467815D01*
X-21185Y-466549D01*
X-20500Y-464895D01*
Y-463105D01*
X-21185Y-461451D01*
X-22451Y-460185D01*
X-24105Y-459500D01*
D02*
G37*
G36*
X15895Y-473500D02*
X14105D01*
X12451Y-474185D01*
X11185Y-475451D01*
X10500Y-477105D01*
Y-478895D01*
X11185Y-480549D01*
X12451Y-481815D01*
X14105Y-482500D01*
X15895D01*
X17549Y-481815D01*
X18815Y-480549D01*
X19500Y-478895D01*
Y-477105D01*
X18815Y-475451D01*
X17549Y-474185D01*
X15895Y-473500D01*
D02*
G37*
G36*
X-71105Y-474500D02*
X-72895D01*
X-74549Y-475185D01*
X-75815Y-476451D01*
X-76500Y-478105D01*
Y-479895D01*
X-75815Y-481549D01*
X-74549Y-482815D01*
X-72895Y-483500D01*
X-71105D01*
X-69451Y-482815D01*
X-68185Y-481549D01*
X-67500Y-479895D01*
Y-478105D01*
X-68185Y-476451D01*
X-69451Y-475185D01*
X-71105Y-474500D01*
D02*
G37*
G36*
X21895Y-483500D02*
X20105D01*
X18451Y-484185D01*
X17185Y-485451D01*
X16500Y-487105D01*
Y-488895D01*
X17185Y-490549D01*
X18451Y-491815D01*
X20105Y-492500D01*
X21895D01*
X23549Y-491815D01*
X24815Y-490549D01*
X25500Y-488895D01*
Y-487105D01*
X24815Y-485451D01*
X23549Y-484185D01*
X21895Y-483500D01*
D02*
G37*
G36*
X-30105Y-511500D02*
X-31895D01*
X-33549Y-512185D01*
X-34815Y-513451D01*
X-35500Y-515105D01*
Y-516895D01*
X-34815Y-518549D01*
X-33549Y-519815D01*
X-31895Y-520500D01*
X-30105D01*
X-28451Y-519815D01*
X-27185Y-518549D01*
X-26500Y-516895D01*
Y-515105D01*
X-27185Y-513451D01*
X-28451Y-512185D01*
X-30105Y-511500D01*
D02*
G37*
G36*
X-45317Y-520713D02*
X-47108D01*
X-48762Y-521398D01*
X-50027Y-522663D01*
X-50712Y-524317D01*
Y-526108D01*
X-50027Y-527761D01*
X-48762Y-529027D01*
X-47108Y-529712D01*
X-45317D01*
X-43663Y-529027D01*
X-42398Y-527761D01*
X-41712Y-526108D01*
Y-524317D01*
X-42398Y-522663D01*
X-43663Y-521398D01*
X-45317Y-520713D01*
D02*
G37*
G36*
X-40105Y-532500D02*
X-41895D01*
X-43549Y-533185D01*
X-44815Y-534451D01*
X-45500Y-536105D01*
Y-537895D01*
X-44815Y-539549D01*
X-43549Y-540815D01*
X-41895Y-541500D01*
X-40105D01*
X-38451Y-540815D01*
X-37185Y-539549D01*
X-36500Y-537895D01*
Y-536105D01*
X-37185Y-534451D01*
X-38451Y-533185D01*
X-40105Y-532500D01*
D02*
G37*
G36*
X-53105Y-573500D02*
X-54895D01*
X-56549Y-574185D01*
X-57815Y-575451D01*
X-58500Y-577105D01*
Y-578895D01*
X-57815Y-580549D01*
X-56549Y-581815D01*
X-54895Y-582500D01*
X-53105D01*
X-51451Y-581815D01*
X-50185Y-580549D01*
X-49500Y-578895D01*
Y-577105D01*
X-50185Y-575451D01*
X-51451Y-574185D01*
X-53105Y-573500D01*
D02*
G37*
G36*
X2895Y-590500D02*
X1105D01*
X-549Y-591185D01*
X-1815Y-592451D01*
X-2500Y-594105D01*
Y-595790D01*
X-2860Y-596193D01*
X-3525Y-596740D01*
X-4105Y-596500D01*
X-5895D01*
X-7549Y-597185D01*
X-8815Y-598451D01*
X-9500Y-600105D01*
Y-601895D01*
X-8815Y-603549D01*
X-7549Y-604815D01*
X-5895Y-605500D01*
X-4105D01*
X-2451Y-604815D01*
X-1185Y-603549D01*
X-500Y-601895D01*
Y-600210D01*
X-139Y-599807D01*
X525Y-599260D01*
X1105Y-599500D01*
X2895D01*
X4549Y-598815D01*
X5815Y-597549D01*
X6500Y-595895D01*
Y-594105D01*
X5815Y-592451D01*
X4549Y-591185D01*
X2895Y-590500D01*
D02*
G37*
G36*
X37895Y-597500D02*
X36105D01*
X34451Y-598185D01*
X33185Y-599451D01*
X32500Y-601105D01*
Y-602895D01*
X33185Y-604549D01*
X34451Y-605815D01*
X36105Y-606500D01*
X37895D01*
X39549Y-605815D01*
X40815Y-604549D01*
X41500Y-602895D01*
Y-601105D01*
X40815Y-599451D01*
X39549Y-598185D01*
X37895Y-597500D01*
D02*
G37*
G36*
X45895Y-616500D02*
X44105D01*
X42451Y-617185D01*
X41185Y-618451D01*
X40500Y-620105D01*
Y-621376D01*
X40107Y-622107D01*
X39376Y-622500D01*
X38105D01*
X36451Y-623185D01*
X35185Y-624451D01*
X34500Y-626105D01*
Y-627895D01*
X35185Y-629549D01*
X36451Y-630815D01*
X38105Y-631500D01*
X39895D01*
X41549Y-630815D01*
X42815Y-629549D01*
X43500Y-627895D01*
Y-626624D01*
X43893Y-625893D01*
X44624Y-625500D01*
X45895D01*
X47549Y-624815D01*
X48815Y-623549D01*
X49500Y-621895D01*
Y-620105D01*
X48815Y-618451D01*
X47549Y-617185D01*
X45895Y-616500D01*
D02*
G37*
G36*
X1895Y-610500D02*
X105D01*
X-1549Y-611185D01*
X-2815Y-612451D01*
X-3500Y-614105D01*
Y-615895D01*
X-2815Y-617549D01*
X-2194Y-618170D01*
X-1667Y-619000D01*
X-2194Y-619830D01*
X-2815Y-620451D01*
X-3500Y-622105D01*
Y-623895D01*
X-2815Y-625549D01*
X-2194Y-626170D01*
X-1667Y-627000D01*
X-2194Y-627830D01*
X-2815Y-628451D01*
X-3500Y-630105D01*
Y-631895D01*
X-2815Y-633549D01*
X-1549Y-634815D01*
X105Y-635500D01*
X1895D01*
X3549Y-634815D01*
X4815Y-633549D01*
X5500Y-631895D01*
Y-630105D01*
X4815Y-628451D01*
X4194Y-627830D01*
X3667Y-627000D01*
X4194Y-626170D01*
X4815Y-625549D01*
X5500Y-623895D01*
Y-622105D01*
X4815Y-620451D01*
X4194Y-619830D01*
X3667Y-619000D01*
X4194Y-618170D01*
X4815Y-617549D01*
X5500Y-615895D01*
Y-614105D01*
X4815Y-612451D01*
X3549Y-611185D01*
X1895Y-610500D01*
D02*
G37*
G36*
X60895Y-640500D02*
X59105D01*
X57451Y-641185D01*
X56185Y-642451D01*
X55500Y-644105D01*
Y-645895D01*
X56185Y-647549D01*
X57451Y-648815D01*
X59105Y-649500D01*
X60895D01*
X62549Y-648815D01*
X63815Y-647549D01*
X64500Y-645895D01*
Y-644105D01*
X63815Y-642451D01*
X62549Y-641185D01*
X60895Y-640500D01*
D02*
G37*
G36*
X-24105Y-649500D02*
X-25895D01*
X-27549Y-650185D01*
X-28815Y-651451D01*
X-29500Y-653105D01*
Y-654895D01*
X-28815Y-656549D01*
X-27549Y-657815D01*
X-25895Y-658500D01*
X-24105D01*
X-22451Y-657815D01*
X-21185Y-656549D01*
X-20500Y-654895D01*
Y-653105D01*
X-21185Y-651451D01*
X-22451Y-650185D01*
X-24105Y-649500D01*
D02*
G37*
G36*
X28895Y-653500D02*
X27105D01*
X25451Y-654185D01*
X24185Y-655451D01*
X23500Y-657105D01*
Y-658895D01*
X24185Y-660549D01*
X25451Y-661815D01*
X27105Y-662500D01*
X28895D01*
X30549Y-661815D01*
X31815Y-660549D01*
X32500Y-658895D01*
Y-657105D01*
X31815Y-655451D01*
X30549Y-654185D01*
X28895Y-653500D01*
D02*
G37*
G36*
X-18105Y-659500D02*
X-19895D01*
X-21549Y-660185D01*
X-22815Y-661451D01*
X-23500Y-663105D01*
Y-664895D01*
X-22815Y-666549D01*
X-21549Y-667815D01*
X-19895Y-668500D01*
X-18105D01*
X-16451Y-667815D01*
X-15185Y-666549D01*
X-14500Y-664895D01*
Y-663105D01*
X-15185Y-661451D01*
X-16451Y-660185D01*
X-18105Y-659500D01*
D02*
G37*
G36*
X8895Y-668500D02*
X7105D01*
X5451Y-669185D01*
X4185Y-670451D01*
X3500Y-672105D01*
Y-673895D01*
X4185Y-675549D01*
X5451Y-676815D01*
X7105Y-677500D01*
X8895D01*
X10549Y-676815D01*
X11815Y-675549D01*
X12500Y-673895D01*
Y-672105D01*
X11815Y-670451D01*
X10549Y-669185D01*
X8895Y-668500D01*
D02*
G37*
G36*
X-10105Y-674500D02*
X-11895D01*
X-13549Y-675185D01*
X-14815Y-676451D01*
X-15500Y-678105D01*
Y-679895D01*
X-14815Y-681549D01*
X-13549Y-682815D01*
X-11895Y-683500D01*
X-10105D01*
X-8451Y-682815D01*
X-7185Y-681549D01*
X-6500Y-679895D01*
Y-678105D01*
X-7185Y-676451D01*
X-8451Y-675185D01*
X-10105Y-674500D01*
D02*
G37*
G36*
X-18105Y-681500D02*
X-19895D01*
X-21549Y-682185D01*
X-22815Y-683451D01*
X-23500Y-685105D01*
Y-686895D01*
X-22815Y-688549D01*
X-21549Y-689815D01*
X-19895Y-690500D01*
X-18105D01*
X-16451Y-689815D01*
X-15185Y-688549D01*
X-14500Y-686895D01*
Y-685105D01*
X-15185Y-683451D01*
X-16451Y-682185D01*
X-18105Y-681500D01*
D02*
G37*
G36*
X15813Y-680582D02*
X14023D01*
X12369Y-681267D01*
X11104Y-682533D01*
X10418Y-684186D01*
Y-685977D01*
X11104Y-687631D01*
X12369Y-688896D01*
X14023Y-689582D01*
X15813D01*
X16717Y-690582D01*
X16500Y-691105D01*
Y-692895D01*
X17185Y-694549D01*
X18451Y-695815D01*
X20105Y-696500D01*
X21895D01*
X23549Y-695815D01*
X24815Y-694549D01*
X25500Y-692895D01*
Y-691105D01*
X24815Y-689451D01*
X23549Y-688185D01*
X21895Y-687500D01*
X20105D01*
X19202Y-686499D01*
X19418Y-685977D01*
Y-684186D01*
X18733Y-682533D01*
X17467Y-681267D01*
X15813Y-680582D01*
D02*
G37*
G36*
X-65105Y-700500D02*
X-66895D01*
X-68549Y-701185D01*
X-69815Y-702451D01*
X-70500Y-704105D01*
Y-705895D01*
X-69815Y-707549D01*
X-68549Y-708815D01*
X-66895Y-709500D01*
X-65105D01*
X-63451Y-708815D01*
X-62185Y-707549D01*
X-61500Y-705895D01*
Y-704105D01*
X-62185Y-702451D01*
X-63451Y-701185D01*
X-65105Y-700500D01*
D02*
G37*
G36*
X-19700Y-706905D02*
X-21490D01*
X-23144Y-707590D01*
X-24410Y-708856D01*
X-25095Y-710510D01*
Y-712300D01*
X-24410Y-713954D01*
X-23144Y-715220D01*
X-21490Y-715905D01*
X-19700D01*
X-18046Y-715220D01*
X-16780Y-713954D01*
X-16095Y-712300D01*
Y-710510D01*
X-16780Y-708856D01*
X-18046Y-707590D01*
X-19700Y-706905D01*
D02*
G37*
G36*
X-541105Y-710500D02*
X-542895D01*
X-544549Y-711185D01*
X-545815Y-712451D01*
X-546500Y-714105D01*
Y-715895D01*
X-545815Y-717549D01*
X-544549Y-718815D01*
X-542895Y-719500D01*
X-541105D01*
X-539451Y-718815D01*
X-538185Y-717549D01*
X-537500Y-715895D01*
Y-714105D01*
X-538185Y-712451D01*
X-539451Y-711185D01*
X-541105Y-710500D01*
D02*
G37*
G36*
X-54105Y-727500D02*
X-55895D01*
X-57549Y-728185D01*
X-58815Y-729451D01*
X-59500Y-731105D01*
Y-732895D01*
X-58815Y-734549D01*
X-58194Y-735170D01*
X-57667Y-736000D01*
X-58194Y-736830D01*
X-58815Y-737451D01*
X-59500Y-739105D01*
Y-740895D01*
X-58815Y-742549D01*
X-57549Y-743815D01*
X-55895Y-744500D01*
X-54105D01*
X-52451Y-743815D01*
X-51185Y-742549D01*
X-50500Y-740895D01*
Y-739105D01*
X-51185Y-737451D01*
X-51806Y-736830D01*
X-52333Y-736000D01*
X-51806Y-735170D01*
X-51185Y-734549D01*
X-50500Y-732895D01*
Y-731105D01*
X-51185Y-729451D01*
X-52451Y-728185D01*
X-54105Y-727500D01*
D02*
G37*
G36*
X190895Y583500D02*
X189105D01*
X187451Y582815D01*
X186185Y581549D01*
X185500Y579895D01*
Y578105D01*
X186185Y576451D01*
X187451Y575185D01*
X189105Y574500D01*
X190895D01*
X192549Y575185D01*
X193815Y576451D01*
X194500Y578105D01*
Y579895D01*
X193815Y581549D01*
X192549Y582815D01*
X190895Y583500D01*
D02*
G37*
G36*
X230895Y565500D02*
X229105D01*
X227451Y564815D01*
X226500Y563864D01*
X225549Y564815D01*
X223895Y565500D01*
X222105D01*
X220451Y564815D01*
X219185Y563549D01*
X218500Y561895D01*
Y560105D01*
X219185Y558451D01*
X220451Y557185D01*
X222105Y556500D01*
X223895D01*
X225549Y557185D01*
X226500Y558136D01*
X227451Y557185D01*
X229105Y556500D01*
X230895D01*
X232549Y557185D01*
X233815Y558451D01*
X234500Y560105D01*
Y561895D01*
X233815Y563549D01*
X232549Y564815D01*
X230895Y565500D01*
D02*
G37*
G36*
X214895Y549500D02*
X213105D01*
X211451Y548815D01*
X210185Y547549D01*
X209500Y545895D01*
Y544105D01*
X210185Y542451D01*
X211451Y541185D01*
X213105Y540500D01*
X214895D01*
X216549Y541185D01*
X217815Y542451D01*
X218500Y544105D01*
Y545895D01*
X217815Y547549D01*
X216549Y548815D01*
X214895Y549500D01*
D02*
G37*
G36*
X190895D02*
X189105D01*
X187451Y548815D01*
X186185Y547549D01*
X185500Y545895D01*
Y544105D01*
X186185Y542451D01*
X187451Y541185D01*
X189105Y540500D01*
X190895D01*
X192549Y541185D01*
X193815Y542451D01*
X194500Y544105D01*
Y545895D01*
X193815Y547549D01*
X192549Y548815D01*
X190895Y549500D01*
D02*
G37*
G36*
X223895Y541500D02*
X222105D01*
X220451Y540815D01*
X219185Y539549D01*
X218500Y537895D01*
Y536105D01*
X219185Y534451D01*
X219636Y534000D01*
X219185Y533549D01*
X218500Y531895D01*
Y530105D01*
X219185Y528451D01*
X220451Y527185D01*
X222105Y526500D01*
X223895D01*
X225549Y527185D01*
X226815Y528451D01*
X227500Y530105D01*
Y531895D01*
X226815Y533549D01*
X226364Y534000D01*
X226815Y534451D01*
X227500Y536105D01*
Y537895D01*
X226815Y539549D01*
X225549Y540815D01*
X223895Y541500D01*
D02*
G37*
G36*
X191895Y521500D02*
X190105D01*
X188451Y520815D01*
X187185Y519549D01*
X186500Y517895D01*
Y516105D01*
X187185Y514451D01*
X188451Y513185D01*
X190105Y512500D01*
X191895D01*
X193549Y513185D01*
X194815Y514451D01*
X195500Y516105D01*
Y517895D01*
X194815Y519549D01*
X193549Y520815D01*
X191895Y521500D01*
D02*
G37*
G36*
X251895Y513500D02*
X250105D01*
X248451Y512815D01*
X247185Y511549D01*
X246500Y509895D01*
Y508105D01*
X247185Y506451D01*
X247806Y505830D01*
X248333Y505000D01*
X247806Y504170D01*
X247185Y503549D01*
X246500Y501895D01*
Y500105D01*
X247185Y498451D01*
X247806Y497830D01*
X248333Y497000D01*
X247806Y496170D01*
X247185Y495549D01*
X246500Y493895D01*
Y492105D01*
X247185Y490451D01*
X247806Y489830D01*
X248333Y489000D01*
X247806Y488170D01*
X247185Y487549D01*
X246500Y485895D01*
Y484105D01*
X247185Y482451D01*
X248451Y481185D01*
X250105Y480500D01*
X251895D01*
X253549Y481185D01*
X254815Y482451D01*
X255500Y484105D01*
Y485895D01*
X254815Y487549D01*
X254194Y488170D01*
X253667Y489000D01*
X254194Y489830D01*
X254815Y490451D01*
X255500Y492105D01*
Y493895D01*
X254815Y495549D01*
X254194Y496170D01*
X253667Y497000D01*
X254194Y497830D01*
X254815Y498451D01*
X255500Y500105D01*
Y501895D01*
X254815Y503549D01*
X254194Y504170D01*
X253667Y505000D01*
X254194Y505830D01*
X254815Y506451D01*
X255500Y508105D01*
Y509895D01*
X254815Y511549D01*
X253549Y512815D01*
X251895Y513500D01*
D02*
G37*
G36*
X284395Y429500D02*
X282605D01*
X280951Y428815D01*
X279685Y427549D01*
X279000Y425895D01*
Y424105D01*
X279685Y422451D01*
X280951Y421185D01*
X282605Y420500D01*
X284395D01*
X286049Y421185D01*
X287315Y422451D01*
X288000Y424105D01*
Y425895D01*
X287315Y427549D01*
X286049Y428815D01*
X284395Y429500D01*
D02*
G37*
G36*
X253125Y425700D02*
X249875D01*
X246687Y425066D01*
X243684Y423822D01*
X240982Y422016D01*
X238684Y419718D01*
X236878Y417016D01*
X235634Y414013D01*
X235000Y410825D01*
Y407575D01*
X235634Y404387D01*
X236878Y401384D01*
X238684Y398682D01*
X240982Y396384D01*
X243684Y394578D01*
X246687Y393334D01*
X249875Y392700D01*
X253125D01*
X256313Y393334D01*
X259316Y394578D01*
X262018Y396384D01*
X264316Y398682D01*
X266122Y401384D01*
X267366Y404387D01*
X268000Y407575D01*
Y410825D01*
X267366Y414013D01*
X266122Y417016D01*
X264316Y419718D01*
X262018Y422016D01*
X259316Y423822D01*
X256313Y425066D01*
X253125Y425700D01*
D02*
G37*
G36*
X215895Y374500D02*
X214105D01*
X212451Y373815D01*
X211500Y372864D01*
X210549Y373815D01*
X208895Y374500D01*
X207105D01*
X205451Y373815D01*
X204185Y372549D01*
X203500Y370895D01*
Y369105D01*
X204185Y367451D01*
X205451Y366185D01*
X207105Y365500D01*
X208895D01*
X210549Y366185D01*
X211500Y367136D01*
X212451Y366185D01*
X214105Y365500D01*
X215895D01*
X217549Y366185D01*
X218815Y367451D01*
X219500Y369105D01*
Y370895D01*
X218815Y372549D01*
X217549Y373815D01*
X215895Y374500D01*
D02*
G37*
G36*
X253125Y385200D02*
X249875D01*
X246687Y384566D01*
X243684Y383322D01*
X240982Y381516D01*
X238684Y379218D01*
X236878Y376516D01*
X235634Y373513D01*
X235000Y370325D01*
Y367075D01*
X235634Y363887D01*
X236878Y360884D01*
X238684Y358182D01*
X240982Y355884D01*
X243684Y354078D01*
X246687Y352834D01*
X249875Y352200D01*
X253125D01*
X256313Y352834D01*
X259316Y354078D01*
X262018Y355884D01*
X264316Y358182D01*
X266122Y360884D01*
X267366Y363887D01*
X268000Y367075D01*
Y370325D01*
X267366Y373513D01*
X266122Y376516D01*
X264316Y379218D01*
X262018Y381516D01*
X259316Y383322D01*
X256313Y384566D01*
X253125Y385200D01*
D02*
G37*
G36*
X224895Y326000D02*
X223105D01*
X221451Y325315D01*
X220185Y324049D01*
X219500Y322395D01*
Y320605D01*
X220185Y318951D01*
X221451Y317685D01*
X223105Y317000D01*
X224895D01*
X226549Y317685D01*
X227815Y318951D01*
X228500Y320605D01*
Y322395D01*
X227815Y324049D01*
X226549Y325315D01*
X224895Y326000D01*
D02*
G37*
G36*
X203895Y296500D02*
X202105D01*
X200451Y295815D01*
X199185Y294549D01*
X198500Y292895D01*
Y291105D01*
X199185Y289451D01*
X199806Y288830D01*
X200333Y288000D01*
X199806Y287170D01*
X199185Y286549D01*
X198500Y284895D01*
Y283105D01*
X199185Y281451D01*
X200451Y280185D01*
X202105Y279500D01*
X203895D01*
X205549Y280185D01*
X206815Y281451D01*
X207500Y283105D01*
Y284895D01*
X206815Y286549D01*
X206194Y287170D01*
X205667Y288000D01*
X206194Y288830D01*
X206815Y289451D01*
X207500Y291105D01*
Y292895D01*
X206815Y294549D01*
X205549Y295815D01*
X203895Y296500D01*
D02*
G37*
G36*
X280125Y307700D02*
X276875D01*
X273687Y307066D01*
X270684Y305822D01*
X267982Y304016D01*
X265684Y301718D01*
X263878Y299016D01*
X262634Y296013D01*
X262000Y292825D01*
Y289575D01*
X262634Y286387D01*
X263878Y283384D01*
X265684Y280682D01*
X267982Y278384D01*
X270684Y276578D01*
X273687Y275334D01*
X276875Y274700D01*
X280125D01*
X283313Y275334D01*
X286316Y276578D01*
X289018Y278384D01*
X291316Y280682D01*
X293122Y283384D01*
X294366Y286387D01*
X295000Y289575D01*
Y292825D01*
X294366Y296013D01*
X293122Y299016D01*
X291316Y301718D01*
X289018Y304016D01*
X286316Y305822D01*
X283313Y307066D01*
X280125Y307700D01*
D02*
G37*
G36*
X214895Y248500D02*
X213105D01*
X211451Y247815D01*
X210185Y246549D01*
X209500Y244895D01*
Y243105D01*
X210185Y241451D01*
X211451Y240185D01*
X213105Y239500D01*
X214895D01*
X216549Y240185D01*
X217815Y241451D01*
X218500Y243105D01*
Y244895D01*
X217815Y246549D01*
X216549Y247815D01*
X214895Y248500D01*
D02*
G37*
G36*
X-218105Y268500D02*
X-219895D01*
X-221549Y267815D01*
X-222815Y266549D01*
X-223500Y264895D01*
Y263105D01*
X-222815Y261451D01*
X-221549Y260185D01*
X-219895Y259500D01*
X-218105D01*
X-216451Y260185D01*
X-215185Y261451D01*
X-214500Y263105D01*
Y264895D01*
X-215185Y266549D01*
X-216451Y267815D01*
X-218105Y268500D01*
D02*
G37*
G36*
X-216105Y252500D02*
X-217895D01*
X-219549Y251815D01*
X-220815Y250549D01*
X-221500Y248895D01*
Y247105D01*
X-220815Y245451D01*
X-219549Y244185D01*
X-217895Y243500D01*
X-216105D01*
X-214451Y244185D01*
X-213185Y245451D01*
X-212500Y247105D01*
Y248895D01*
X-213185Y250549D01*
X-214451Y251815D01*
X-216105Y252500D01*
D02*
G37*
G36*
X-199105Y240500D02*
X-200895D01*
X-202549Y239815D01*
X-203815Y238549D01*
X-204500Y236895D01*
Y235105D01*
X-203815Y233451D01*
X-202549Y232185D01*
X-200895Y231500D01*
X-199105D01*
X-197451Y232185D01*
X-196185Y233451D01*
X-195500Y235105D01*
Y236895D01*
X-196185Y238549D01*
X-197451Y239815D01*
X-199105Y240500D01*
D02*
G37*
G36*
Y229500D02*
X-200895D01*
X-202549Y228815D01*
X-203815Y227549D01*
X-204500Y225895D01*
Y224105D01*
X-203815Y222451D01*
X-202549Y221185D01*
X-200895Y220500D01*
X-199105D01*
X-197451Y221185D01*
X-196185Y222451D01*
X-195500Y224105D01*
Y225895D01*
X-196185Y227549D01*
X-197451Y228815D01*
X-199105Y229500D01*
D02*
G37*
G36*
X-215105Y204500D02*
X-216895D01*
X-218549Y203815D01*
X-219815Y202549D01*
X-220500Y200895D01*
Y199105D01*
X-219815Y197451D01*
X-218549Y196185D01*
X-216895Y195500D01*
X-215105D01*
X-213451Y196185D01*
X-212185Y197451D01*
X-211500Y199105D01*
Y200895D01*
X-212185Y202549D01*
X-213451Y203815D01*
X-215105Y204500D01*
D02*
G37*
G36*
X-238105Y204500D02*
X-239895D01*
X-241549Y203815D01*
X-242815Y202549D01*
X-243500Y200895D01*
Y199105D01*
X-242815Y197451D01*
X-241549Y196185D01*
X-239895Y195500D01*
X-238105D01*
X-236451Y196185D01*
X-235185Y197451D01*
X-234500Y199105D01*
Y200895D01*
X-235185Y202549D01*
X-236451Y203815D01*
X-238105Y204500D01*
D02*
G37*
G36*
X-256105D02*
X-257895D01*
X-259549Y203815D01*
X-260815Y202549D01*
X-261500Y200895D01*
Y199105D01*
X-260815Y197451D01*
X-259549Y196185D01*
X-257895Y195500D01*
X-256105D01*
X-254451Y196185D01*
X-253185Y197451D01*
X-252500Y199105D01*
Y200895D01*
X-253185Y202549D01*
X-254451Y203815D01*
X-256105Y204500D01*
D02*
G37*
G36*
X-283105Y204500D02*
X-284895D01*
X-286549Y203815D01*
X-287815Y202549D01*
X-288500Y200895D01*
Y199105D01*
X-287815Y197451D01*
X-286549Y196185D01*
X-284895Y195500D01*
X-283105D01*
X-281451Y196185D01*
X-280185Y197451D01*
X-278815Y197451D01*
X-277549Y196185D01*
X-275895Y195500D01*
X-274105D01*
X-272451Y196185D01*
X-271185Y197451D01*
X-270500Y199105D01*
Y200895D01*
X-271185Y202549D01*
X-272451Y203815D01*
X-274105Y204500D01*
X-275895D01*
X-277549Y203815D01*
X-278815Y202549D01*
X-280185Y202549D01*
X-281451Y203815D01*
X-283105Y204500D01*
D02*
G37*
G36*
X-198105Y131500D02*
X-199895D01*
X-201549Y130815D01*
X-202170Y130194D01*
X-203000Y129667D01*
X-203830Y130194D01*
X-204451Y130815D01*
X-206105Y131500D01*
X-207895D01*
X-209549Y130815D01*
X-210815Y129549D01*
X-211500Y127895D01*
Y126105D01*
X-210815Y124451D01*
X-210194Y123830D01*
X-209667Y123000D01*
X-210194Y122170D01*
X-210815Y121549D01*
X-211500Y119895D01*
Y118105D01*
X-210815Y116451D01*
X-209549Y115185D01*
X-207895Y114500D01*
X-206105D01*
X-204451Y115185D01*
X-203830Y115806D01*
X-203000Y116333D01*
X-202170Y115806D01*
X-201549Y115185D01*
X-199895Y114500D01*
X-198105D01*
X-196451Y115185D01*
X-195185Y116451D01*
X-194500Y118105D01*
Y119895D01*
X-195185Y121549D01*
X-195806Y122170D01*
X-196333Y123000D01*
X-195806Y123830D01*
X-195185Y124451D01*
X-194500Y126105D01*
Y127895D01*
X-195185Y129549D01*
X-196451Y130815D01*
X-198105Y131500D01*
D02*
G37*
G36*
X-202105Y69350D02*
X-203895D01*
X-205549Y68665D01*
X-206815Y67399D01*
X-207500Y65745D01*
Y63955D01*
X-206815Y62301D01*
X-205549Y61035D01*
X-203895Y60350D01*
X-202105D01*
X-200451Y61035D01*
X-199185Y62301D01*
X-198500Y63955D01*
Y65745D01*
X-199185Y67399D01*
X-200451Y68665D01*
X-202105Y69350D01*
D02*
G37*
G36*
X-229875Y57700D02*
X-233125D01*
X-236313Y57066D01*
X-239316Y55822D01*
X-242018Y54016D01*
X-244316Y51718D01*
X-246122Y49016D01*
X-247366Y46013D01*
X-248000Y42825D01*
Y39575D01*
X-247366Y36387D01*
X-246122Y33384D01*
X-244316Y30682D01*
X-242018Y28384D01*
X-239316Y26578D01*
X-236313Y25334D01*
X-233125Y24700D01*
X-229875D01*
X-226687Y25334D01*
X-223684Y26578D01*
X-220982Y28384D01*
X-218684Y30682D01*
X-216878Y33384D01*
X-215634Y36387D01*
X-215000Y39575D01*
Y42825D01*
X-215634Y46013D01*
X-216878Y49016D01*
X-218684Y51718D01*
X-220982Y54016D01*
X-223684Y55822D01*
X-226687Y57066D01*
X-229875Y57700D01*
D02*
G37*
G36*
X-189105Y45500D02*
X-190895D01*
X-192549Y44815D01*
X-193815Y43549D01*
X-194500Y41895D01*
Y40105D01*
X-193815Y38451D01*
X-192864Y37500D01*
X-193815Y36549D01*
X-194500Y34895D01*
Y33105D01*
X-193815Y31451D01*
X-193194Y30830D01*
X-192667Y30000D01*
X-193194Y29170D01*
X-193815Y28549D01*
X-194500Y26895D01*
Y25105D01*
X-193815Y23451D01*
X-192549Y22185D01*
X-190895Y21500D01*
X-189105D01*
X-187451Y22185D01*
X-186185Y23451D01*
X-185500Y25105D01*
Y26895D01*
X-186185Y28549D01*
X-186806Y29170D01*
X-187333Y30000D01*
X-186806Y30830D01*
X-186185Y31451D01*
X-185500Y33105D01*
Y34895D01*
X-186185Y36549D01*
X-187136Y37500D01*
X-186185Y38451D01*
X-185500Y40105D01*
Y41895D01*
X-186185Y43549D01*
X-187451Y44815D01*
X-189105Y45500D01*
D02*
G37*
G36*
X-229875Y17200D02*
X-233125D01*
X-236313Y16566D01*
X-239316Y15322D01*
X-242018Y13516D01*
X-244316Y11218D01*
X-246122Y8516D01*
X-247366Y5513D01*
X-248000Y2325D01*
Y-925D01*
X-247366Y-4113D01*
X-246122Y-7116D01*
X-244316Y-9818D01*
X-242018Y-12116D01*
X-239316Y-13922D01*
X-236313Y-15166D01*
X-233125Y-15800D01*
X-229875D01*
X-226687Y-15166D01*
X-223684Y-13922D01*
X-220982Y-12116D01*
X-218684Y-9818D01*
X-216878Y-7116D01*
X-215634Y-4113D01*
X-215000Y-925D01*
Y2325D01*
X-215634Y5513D01*
X-216878Y8516D01*
X-218684Y11218D01*
X-220982Y13516D01*
X-223684Y15322D01*
X-226687Y16566D01*
X-229875Y17200D01*
D02*
G37*
G36*
Y-23300D02*
X-233125D01*
X-236313Y-23934D01*
X-239316Y-25178D01*
X-242018Y-26984D01*
X-244316Y-29282D01*
X-246122Y-31984D01*
X-247366Y-34987D01*
X-248000Y-38175D01*
Y-41425D01*
X-247366Y-44613D01*
X-246122Y-47616D01*
X-244316Y-50318D01*
X-242018Y-52616D01*
X-239316Y-54422D01*
X-236313Y-55666D01*
X-233125Y-56300D01*
X-229875D01*
X-226687Y-55666D01*
X-223684Y-54422D01*
X-220982Y-52616D01*
X-218684Y-50318D01*
X-216878Y-47616D01*
X-215634Y-44613D01*
X-215000Y-41425D01*
Y-38175D01*
X-215634Y-34987D01*
X-216878Y-31984D01*
X-218684Y-29282D01*
X-220982Y-26984D01*
X-223684Y-25178D01*
X-226687Y-23934D01*
X-229875Y-23300D01*
D02*
G37*
G36*
X-242105Y-61500D02*
X-243895D01*
X-245549Y-62185D01*
X-246815Y-63451D01*
X-247500Y-65105D01*
Y-66895D01*
X-246815Y-68549D01*
X-246194Y-69170D01*
X-245667Y-70000D01*
X-246194Y-70830D01*
X-246815Y-71451D01*
X-247500Y-73105D01*
Y-74895D01*
X-246815Y-76549D01*
X-246194Y-77170D01*
X-245667Y-78000D01*
X-246194Y-78830D01*
X-246815Y-79451D01*
X-247500Y-81105D01*
Y-82895D01*
X-246815Y-84549D01*
X-246194Y-85170D01*
X-245667Y-86000D01*
X-246194Y-86830D01*
X-246815Y-87451D01*
X-247500Y-89105D01*
Y-90895D01*
X-246815Y-92549D01*
X-245549Y-93815D01*
X-243895Y-94500D01*
X-242105D01*
X-240451Y-93815D01*
X-239185Y-92549D01*
X-238500Y-90895D01*
Y-89105D01*
X-239185Y-87451D01*
X-239806Y-86830D01*
X-240333Y-86000D01*
X-239806Y-85170D01*
X-239185Y-84549D01*
X-238500Y-82895D01*
Y-81105D01*
X-239185Y-79451D01*
X-239806Y-78830D01*
X-240333Y-78000D01*
X-239806Y-77170D01*
X-239185Y-76549D01*
X-238500Y-74895D01*
Y-73105D01*
X-239185Y-71451D01*
X-239806Y-70830D01*
X-240333Y-70000D01*
X-239806Y-69170D01*
X-239185Y-68549D01*
X-238500Y-66895D01*
Y-65105D01*
X-239185Y-63451D01*
X-240451Y-62185D01*
X-242105Y-61500D01*
D02*
G37*
G36*
X-185105Y-88500D02*
X-186895D01*
X-188549Y-89185D01*
X-189815Y-90451D01*
X-190500Y-92105D01*
Y-93895D01*
X-189815Y-95549D01*
X-188549Y-96815D01*
X-187517Y-97242D01*
X-186500Y-98105D01*
Y-99895D01*
X-185815Y-101549D01*
X-184549Y-102815D01*
X-182895Y-103500D01*
X-181105D01*
X-179451Y-102815D01*
X-178185Y-101549D01*
X-177500Y-99895D01*
Y-98105D01*
X-178185Y-96451D01*
X-179451Y-95185D01*
X-180483Y-94758D01*
X-181500Y-93895D01*
Y-92105D01*
X-182185Y-90451D01*
X-183451Y-89185D01*
X-185105Y-88500D01*
D02*
G37*
G36*
X-215105Y-105500D02*
X-216895D01*
X-218549Y-106185D01*
X-219815Y-107451D01*
X-220500Y-109105D01*
Y-110895D01*
X-219815Y-112549D01*
X-218864Y-113500D01*
X-219815Y-114451D01*
X-220500Y-116105D01*
Y-117895D01*
X-219815Y-119549D01*
X-218549Y-120815D01*
X-216895Y-121500D01*
X-215105D01*
X-213451Y-120815D01*
X-212185Y-119549D01*
X-211500Y-117895D01*
Y-116105D01*
X-212185Y-114451D01*
X-213136Y-113500D01*
X-212185Y-112549D01*
X-211500Y-110895D01*
Y-109105D01*
X-212185Y-107451D01*
X-213451Y-106185D01*
X-215105Y-105500D01*
D02*
G37*
G36*
X-207105Y-120500D02*
X-208895D01*
X-210549Y-121185D01*
X-211815Y-122451D01*
X-212500Y-124105D01*
Y-125895D01*
X-211815Y-127549D01*
X-210549Y-128815D01*
X-208895Y-129500D01*
X-207105D01*
X-205451Y-128815D01*
X-204185Y-127549D01*
X-203500Y-125895D01*
Y-124105D01*
X-204185Y-122451D01*
X-205451Y-121185D01*
X-207105Y-120500D01*
D02*
G37*
G36*
X-183105Y-121500D02*
X-184895D01*
X-186549Y-122185D01*
X-187815Y-123451D01*
X-188500Y-125105D01*
Y-126895D01*
X-187815Y-128549D01*
X-186549Y-129815D01*
X-184895Y-130500D01*
X-183105D01*
X-181451Y-129815D01*
X-180185Y-128549D01*
X-179500Y-126895D01*
Y-125105D01*
X-180185Y-123451D01*
X-181451Y-122185D01*
X-183105Y-121500D01*
D02*
G37*
G36*
X-165105Y-154500D02*
X-166895D01*
X-168549Y-155185D01*
X-169500Y-156136D01*
X-170451Y-155185D01*
X-172105Y-154500D01*
X-173895D01*
X-175549Y-155185D01*
X-176815Y-156451D01*
X-177500Y-158105D01*
Y-159895D01*
X-176815Y-161549D01*
X-175549Y-162815D01*
X-173895Y-163500D01*
X-172105D01*
X-170451Y-162815D01*
X-169500Y-161864D01*
X-168549Y-162815D01*
X-166895Y-163500D01*
X-165105D01*
X-163451Y-162815D01*
X-162185Y-161549D01*
X-161500Y-159895D01*
Y-158105D01*
X-162185Y-156451D01*
X-163451Y-155185D01*
X-165105Y-154500D01*
D02*
G37*
G36*
X190895Y113500D02*
X189105D01*
X187451Y112815D01*
X186185Y111549D01*
X185500Y109895D01*
Y108105D01*
X186185Y106451D01*
X187451Y105185D01*
X189105Y104500D01*
X190895D01*
X192549Y105185D01*
X193815Y106451D01*
X194500Y108105D01*
Y109895D01*
X193815Y111549D01*
X192549Y112815D01*
X190895Y113500D01*
D02*
G37*
G36*
X230895Y95500D02*
X229105D01*
X227451Y94815D01*
X226500Y93864D01*
X225549Y94815D01*
X223895Y95500D01*
X222105D01*
X220451Y94815D01*
X219185Y93549D01*
X218500Y91895D01*
Y90105D01*
X219185Y88451D01*
X220451Y87185D01*
X222105Y86500D01*
X223895D01*
X225549Y87185D01*
X226500Y88136D01*
X227451Y87185D01*
X229105Y86500D01*
X230895D01*
X232549Y87185D01*
X233815Y88451D01*
X234500Y90105D01*
Y91895D01*
X233815Y93549D01*
X232549Y94815D01*
X230895Y95500D01*
D02*
G37*
G36*
X214895Y79500D02*
X213105D01*
X211451Y78815D01*
X210185Y77549D01*
X209500Y75895D01*
Y74105D01*
X210185Y72451D01*
X211451Y71185D01*
X213105Y70500D01*
X214895D01*
X216549Y71185D01*
X217815Y72451D01*
X218500Y74105D01*
Y75895D01*
X217815Y77549D01*
X216549Y78815D01*
X214895Y79500D01*
D02*
G37*
G36*
X190895D02*
X189105D01*
X187451Y78815D01*
X186185Y77549D01*
X185500Y75895D01*
Y74105D01*
X186185Y72451D01*
X187451Y71185D01*
X189105Y70500D01*
X190895D01*
X192549Y71185D01*
X193815Y72451D01*
X194500Y74105D01*
Y75895D01*
X193815Y77549D01*
X192549Y78815D01*
X190895Y79500D01*
D02*
G37*
G36*
X223895Y71500D02*
X222105D01*
X220451Y70815D01*
X219185Y69549D01*
X218500Y67895D01*
Y66105D01*
X219185Y64451D01*
X219636Y64000D01*
X219185Y63549D01*
X218500Y61895D01*
Y60105D01*
X219185Y58451D01*
X220451Y57185D01*
X222105Y56500D01*
X223895D01*
X225549Y57185D01*
X226815Y58451D01*
X227500Y60105D01*
Y61895D01*
X226815Y63549D01*
X226364Y64000D01*
X226815Y64451D01*
X227500Y66105D01*
Y67895D01*
X226815Y69549D01*
X225549Y70815D01*
X223895Y71500D01*
D02*
G37*
G36*
X191895Y51500D02*
X190105D01*
X188451Y50815D01*
X187185Y49549D01*
X186500Y47895D01*
Y46105D01*
X187185Y44451D01*
X188451Y43185D01*
X190105Y42500D01*
X191895D01*
X193549Y43185D01*
X194815Y44451D01*
X195500Y46105D01*
Y47895D01*
X194815Y49549D01*
X193549Y50815D01*
X191895Y51500D01*
D02*
G37*
G36*
X251895Y43500D02*
X250105D01*
X248451Y42815D01*
X247185Y41549D01*
X246500Y39895D01*
Y38105D01*
X247185Y36451D01*
X247806Y35830D01*
X248333Y35000D01*
X247806Y34170D01*
X247185Y33549D01*
X246500Y31895D01*
Y30105D01*
X247185Y28451D01*
X247806Y27830D01*
X248333Y27000D01*
X247806Y26170D01*
X247185Y25549D01*
X246500Y23895D01*
Y22105D01*
X247185Y20451D01*
X247806Y19830D01*
X248333Y19000D01*
X247806Y18170D01*
X247185Y17549D01*
X246500Y15895D01*
Y14105D01*
X247185Y12451D01*
X248451Y11185D01*
X250105Y10500D01*
X251895D01*
X253549Y11185D01*
X254815Y12451D01*
X255500Y14105D01*
Y15895D01*
X254815Y17549D01*
X254194Y18170D01*
X253667Y19000D01*
X254194Y19830D01*
X254815Y20451D01*
X255500Y22105D01*
Y23895D01*
X254815Y25549D01*
X254194Y26170D01*
X253667Y27000D01*
X254194Y27830D01*
X254815Y28451D01*
X255500Y30105D01*
Y31895D01*
X254815Y33549D01*
X254194Y34170D01*
X253667Y35000D01*
X254194Y35830D01*
X254815Y36451D01*
X255500Y38105D01*
Y39895D01*
X254815Y41549D01*
X253549Y42815D01*
X251895Y43500D01*
D02*
G37*
G36*
X284395Y-39500D02*
X282605D01*
X280951Y-40185D01*
X279685Y-41451D01*
X279000Y-43105D01*
Y-44895D01*
X279685Y-46549D01*
X280951Y-47815D01*
X282605Y-48500D01*
X284395D01*
X286049Y-47815D01*
X287315Y-46549D01*
X288000Y-44895D01*
Y-43105D01*
X287315Y-41451D01*
X286049Y-40185D01*
X284395Y-39500D01*
D02*
G37*
G36*
X253125Y-44300D02*
X249875D01*
X246687Y-44934D01*
X243684Y-46178D01*
X240982Y-47984D01*
X238684Y-50282D01*
X236878Y-52984D01*
X235634Y-55987D01*
X235000Y-59175D01*
Y-62425D01*
X235634Y-65613D01*
X236878Y-68616D01*
X238684Y-71318D01*
X240982Y-73616D01*
X243684Y-75422D01*
X246687Y-76666D01*
X249875Y-77300D01*
X253125D01*
X256313Y-76666D01*
X259316Y-75422D01*
X262018Y-73616D01*
X264316Y-71318D01*
X266122Y-68616D01*
X267366Y-65613D01*
X268000Y-62425D01*
Y-59175D01*
X267366Y-55987D01*
X266122Y-52984D01*
X264316Y-50282D01*
X262018Y-47984D01*
X259316Y-46178D01*
X256313Y-44934D01*
X253125Y-44300D01*
D02*
G37*
G36*
X215895Y-95500D02*
X214105D01*
X212451Y-96185D01*
X211500Y-97136D01*
X210549Y-96185D01*
X208895Y-95500D01*
X207105D01*
X205451Y-96185D01*
X204185Y-97451D01*
X203500Y-99105D01*
Y-100895D01*
X204185Y-102549D01*
X205451Y-103815D01*
X207105Y-104500D01*
X208895D01*
X210549Y-103815D01*
X211500Y-102864D01*
X212451Y-103815D01*
X214105Y-104500D01*
X215895D01*
X217549Y-103815D01*
X218815Y-102549D01*
X219500Y-100895D01*
Y-99105D01*
X218815Y-97451D01*
X217549Y-96185D01*
X215895Y-95500D01*
D02*
G37*
G36*
X253125Y-84800D02*
X249875D01*
X246687Y-85434D01*
X243684Y-86678D01*
X240982Y-88484D01*
X238684Y-90782D01*
X236878Y-93484D01*
X235634Y-96487D01*
X235000Y-99675D01*
Y-102925D01*
X235634Y-106113D01*
X236878Y-109116D01*
X238684Y-111818D01*
X240982Y-114116D01*
X243684Y-115922D01*
X246687Y-117166D01*
X249875Y-117800D01*
X253125D01*
X256313Y-117166D01*
X259316Y-115922D01*
X262018Y-114116D01*
X264316Y-111818D01*
X266122Y-109116D01*
X267366Y-106113D01*
X268000Y-102925D01*
Y-99675D01*
X267366Y-96487D01*
X266122Y-93484D01*
X264316Y-90782D01*
X262018Y-88484D01*
X259316Y-86678D01*
X256313Y-85434D01*
X253125Y-84800D01*
D02*
G37*
G36*
X224895Y-144000D02*
X223105D01*
X221451Y-144685D01*
X220185Y-145951D01*
X219500Y-147605D01*
Y-149395D01*
X220185Y-151049D01*
X221451Y-152315D01*
X223105Y-153000D01*
X224895D01*
X226549Y-152315D01*
X227815Y-151049D01*
X228500Y-149395D01*
Y-147605D01*
X227815Y-145951D01*
X226549Y-144685D01*
X224895Y-144000D01*
D02*
G37*
G36*
X203895Y-173500D02*
X202105D01*
X200451Y-174185D01*
X199185Y-175451D01*
X198500Y-177105D01*
Y-178895D01*
X199185Y-180549D01*
X199806Y-181170D01*
X200333Y-182000D01*
X199806Y-182830D01*
X199185Y-183451D01*
X198500Y-185105D01*
Y-186895D01*
X199185Y-188549D01*
X200451Y-189815D01*
X202105Y-190500D01*
X203895D01*
X205549Y-189815D01*
X206815Y-188549D01*
X207500Y-186895D01*
Y-185105D01*
X206815Y-183451D01*
X206194Y-182830D01*
X205667Y-182000D01*
X206194Y-181170D01*
X206815Y-180549D01*
X207500Y-178895D01*
Y-177105D01*
X206815Y-175451D01*
X205549Y-174185D01*
X203895Y-173500D01*
D02*
G37*
G36*
X280125Y-162300D02*
X276875D01*
X273687Y-162934D01*
X270684Y-164178D01*
X267982Y-165984D01*
X265684Y-168282D01*
X263878Y-170984D01*
X262634Y-173987D01*
X262000Y-177175D01*
Y-180425D01*
X262634Y-183613D01*
X263878Y-186616D01*
X265684Y-189318D01*
X267982Y-191616D01*
X270684Y-193422D01*
X273687Y-194666D01*
X276875Y-195300D01*
X280125D01*
X283313Y-194666D01*
X286316Y-193422D01*
X289018Y-191616D01*
X291316Y-189318D01*
X293122Y-186616D01*
X294366Y-183613D01*
X295000Y-180425D01*
Y-177175D01*
X294366Y-173987D01*
X293122Y-170984D01*
X291316Y-168282D01*
X289018Y-165984D01*
X286316Y-164178D01*
X283313Y-162934D01*
X280125Y-162300D01*
D02*
G37*
G36*
X214895Y-221500D02*
X213105D01*
X211451Y-222185D01*
X210185Y-223451D01*
X209500Y-225105D01*
Y-226895D01*
X210185Y-228549D01*
X211451Y-229815D01*
X213105Y-230500D01*
X214895D01*
X216549Y-229815D01*
X217815Y-228549D01*
X218500Y-226895D01*
Y-225105D01*
X217815Y-223451D01*
X216549Y-222185D01*
X214895Y-221500D01*
D02*
G37*
G36*
X749895Y533500D02*
X748105D01*
X746451Y532815D01*
X745185Y531549D01*
X744500Y529895D01*
Y528105D01*
X744975Y526959D01*
X745000Y525700D01*
X745000Y525700D01*
X745000Y525700D01*
Y512700D01*
X745292D01*
X745609Y511934D01*
X746734Y510809D01*
X748204Y510200D01*
X749796D01*
X751266Y510809D01*
X752280Y511823D01*
X753000Y511883D01*
X753720Y511823D01*
X754734Y510809D01*
X756204Y510200D01*
X757796D01*
X759266Y510809D01*
X760391Y511934D01*
X760708Y512700D01*
X761000D01*
Y525700D01*
X753774Y525700D01*
X753686Y525769D01*
X753030Y526970D01*
X753500Y528105D01*
Y529895D01*
X752815Y531549D01*
X751549Y532815D01*
X749895Y533500D01*
D02*
G37*
G36*
X757796Y497200D02*
X756204D01*
X754734Y496591D01*
X753720Y495577D01*
X753000Y495517D01*
X752280Y495577D01*
X751266Y496591D01*
X749796Y497200D01*
X748204D01*
X746734Y496591D01*
X745720Y495577D01*
X745000Y495517D01*
X744280Y495577D01*
X743266Y496591D01*
X741796Y497200D01*
X740204D01*
X738734Y496591D01*
X737720Y495577D01*
X737000Y495517D01*
X736280Y495577D01*
X735266Y496591D01*
X733796Y497200D01*
X732204D01*
X730734Y496591D01*
X729609Y495466D01*
X729292Y494700D01*
X729000D01*
Y481700D01*
X735730D01*
X737000Y481700D01*
X738270Y481700D01*
X751730D01*
X753000Y481700D01*
X754270Y481700D01*
X761000D01*
Y494700D01*
X760708D01*
X760391Y495466D01*
X759266Y496591D01*
X757796Y497200D01*
D02*
G37*
G36*
X777895Y490500D02*
X776105D01*
X774451Y489815D01*
X773185Y488549D01*
X772500Y486895D01*
Y485105D01*
X773185Y483451D01*
X774451Y482185D01*
X776105Y481500D01*
X777895D01*
X779549Y482185D01*
X780815Y483451D01*
X781500Y485105D01*
Y486895D01*
X780815Y488549D01*
X779549Y489815D01*
X777895Y490500D01*
D02*
G37*
G36*
X752479Y465200D02*
X747521D01*
X742624Y464424D01*
X737908Y462892D01*
X733490Y460641D01*
X729479Y457727D01*
X725973Y454221D01*
X723059Y450210D01*
X720808Y445792D01*
X719276Y441076D01*
X718500Y436179D01*
Y431221D01*
X719276Y426324D01*
X720808Y421608D01*
X723059Y417190D01*
X725973Y413179D01*
X729479Y409673D01*
X733490Y406759D01*
X737908Y404508D01*
X742624Y402976D01*
X747521Y402200D01*
X752479D01*
X757376Y402976D01*
X762092Y404508D01*
X766510Y406759D01*
X770521Y409673D01*
X774027Y413179D01*
X776941Y417190D01*
X779192Y421608D01*
X780724Y426324D01*
X781500Y431221D01*
Y436179D01*
X780724Y441076D01*
X779192Y445792D01*
X776941Y450210D01*
X774027Y454221D01*
X770521Y457727D01*
X766510Y460641D01*
X762092Y462892D01*
X757376Y464424D01*
X752479Y465200D01*
D02*
G37*
G36*
Y155200D02*
X747521D01*
X742624Y154424D01*
X737908Y152892D01*
X733490Y150641D01*
X729479Y147727D01*
X725973Y144221D01*
X723059Y140210D01*
X720808Y135792D01*
X719276Y131076D01*
X718500Y126179D01*
Y121221D01*
X719276Y116324D01*
X720808Y111608D01*
X723059Y107190D01*
X725973Y103179D01*
X729479Y99673D01*
X733490Y96759D01*
X737908Y94508D01*
X742624Y92976D01*
X747521Y92200D01*
X752479D01*
X757376Y92976D01*
X762092Y94508D01*
X766510Y96759D01*
X770521Y99673D01*
X774027Y103179D01*
X776941Y107190D01*
X779192Y111608D01*
X780724Y116324D01*
X781500Y121221D01*
Y126179D01*
X780724Y131076D01*
X779192Y135792D01*
X776941Y140210D01*
X774027Y144221D01*
X770521Y147727D01*
X766510Y150641D01*
X762092Y152892D01*
X757376Y154424D01*
X752479Y155200D01*
D02*
G37*
G36*
X749895Y63500D02*
X748105D01*
X746451Y62815D01*
X745185Y61549D01*
X744500Y59895D01*
Y58105D01*
X744975Y56959D01*
X745000Y55700D01*
X745000Y55700D01*
X745000Y55700D01*
Y42700D01*
X745292D01*
X745609Y41934D01*
X746734Y40809D01*
X748204Y40200D01*
X749796D01*
X751266Y40809D01*
X752280Y41823D01*
X753000Y41883D01*
X753720Y41823D01*
X754734Y40809D01*
X756204Y40200D01*
X757796D01*
X759266Y40809D01*
X760391Y41934D01*
X760708Y42700D01*
X761000D01*
Y55700D01*
X753774Y55700D01*
X753686Y55769D01*
X753030Y56970D01*
X753500Y58105D01*
Y59895D01*
X752815Y61549D01*
X751549Y62815D01*
X749895Y63500D01*
D02*
G37*
G36*
X757796Y27200D02*
X756204D01*
X754734Y26591D01*
X753720Y25577D01*
X753000Y25517D01*
X752280Y25577D01*
X751266Y26591D01*
X749796Y27200D01*
X748204D01*
X746734Y26591D01*
X745720Y25577D01*
X745000Y25517D01*
X744280Y25577D01*
X743266Y26591D01*
X741796Y27200D01*
X740204D01*
X738734Y26591D01*
X737720Y25577D01*
X737000Y25517D01*
X736280Y25577D01*
X735266Y26591D01*
X733796Y27200D01*
X732204D01*
X730734Y26591D01*
X729609Y25466D01*
X729292Y24700D01*
X729000D01*
Y11700D01*
X735730D01*
X737000Y11700D01*
X738270Y11700D01*
X751730D01*
X753000Y11700D01*
X754270Y11700D01*
X761000D01*
Y24700D01*
X760708D01*
X760391Y25466D01*
X759266Y26591D01*
X757796Y27200D01*
D02*
G37*
G36*
X777895Y21500D02*
X776105D01*
X774451Y20815D01*
X773185Y19549D01*
X772500Y17895D01*
Y16105D01*
X773185Y14451D01*
X774451Y13185D01*
X776105Y12500D01*
X777895D01*
X779549Y13185D01*
X780815Y14451D01*
X781500Y16105D01*
Y17895D01*
X780815Y19549D01*
X779549Y20815D01*
X777895Y21500D01*
D02*
G37*
G36*
X752479Y-4800D02*
X747521D01*
X742624Y-5576D01*
X737908Y-7108D01*
X733490Y-9359D01*
X729479Y-12273D01*
X725973Y-15779D01*
X723059Y-19790D01*
X720808Y-24208D01*
X719276Y-28924D01*
X718500Y-33821D01*
Y-38779D01*
X719276Y-43676D01*
X720808Y-48392D01*
X723059Y-52810D01*
X725973Y-56821D01*
X729479Y-60327D01*
X733490Y-63241D01*
X737908Y-65492D01*
X742624Y-67024D01*
X747521Y-67800D01*
X752479D01*
X757376Y-67024D01*
X762092Y-65492D01*
X766510Y-63241D01*
X770521Y-60327D01*
X774027Y-56821D01*
X776941Y-52810D01*
X779192Y-48392D01*
X780724Y-43676D01*
X781500Y-38779D01*
Y-33821D01*
X780724Y-28924D01*
X779192Y-24208D01*
X776941Y-19790D01*
X774027Y-15779D01*
X770521Y-12273D01*
X766510Y-9359D01*
X762092Y-7108D01*
X757376Y-5576D01*
X752479Y-4800D01*
D02*
G37*
G36*
X537895Y-115500D02*
X536105D01*
X534451Y-116185D01*
X533500Y-117136D01*
X532549Y-116185D01*
X530895Y-115500D01*
X529105D01*
X527451Y-116185D01*
X526185Y-117451D01*
X525500Y-119105D01*
Y-120895D01*
X526185Y-122549D01*
X527451Y-123815D01*
X529105Y-124500D01*
X530895D01*
X532549Y-123815D01*
X533500Y-122864D01*
X534451Y-123815D01*
X536105Y-124500D01*
X537895D01*
X539549Y-123815D01*
X540815Y-122549D01*
X541500Y-120895D01*
Y-119105D01*
X540815Y-117451D01*
X539549Y-116185D01*
X537895Y-115500D01*
D02*
G37*
G36*
X536895Y-126500D02*
X535105D01*
X533451Y-127185D01*
X532500Y-128136D01*
X531549Y-127185D01*
X529895Y-126500D01*
X528105D01*
X526451Y-127185D01*
X525185Y-128451D01*
X524500Y-130105D01*
Y-131895D01*
X525185Y-133549D01*
X526451Y-134815D01*
X528105Y-135500D01*
X529895D01*
X531549Y-134815D01*
X532500Y-133864D01*
X533451Y-134815D01*
X535105Y-135500D01*
X536895D01*
X538549Y-134815D01*
X539815Y-133549D01*
X540500Y-131895D01*
Y-130105D01*
X539815Y-128451D01*
X538549Y-127185D01*
X536895Y-126500D01*
D02*
G37*
G36*
X574895Y-176500D02*
X573105D01*
X571451Y-177185D01*
X570185Y-178451D01*
X569500Y-180105D01*
Y-181895D01*
X570185Y-183549D01*
X571451Y-184815D01*
X573105Y-185500D01*
X574895D01*
X576549Y-184815D01*
X577815Y-183549D01*
X578500Y-181895D01*
Y-180105D01*
X577815Y-178451D01*
X576549Y-177185D01*
X574895Y-176500D01*
D02*
G37*
G36*
X523895Y-198500D02*
X522105D01*
X520451Y-199185D01*
X519830Y-199806D01*
X519000Y-200333D01*
X518170Y-199806D01*
X517549Y-199185D01*
X515895Y-198500D01*
X514105D01*
X512451Y-199185D01*
X511830Y-199806D01*
X511000Y-200333D01*
X510170Y-199806D01*
X509549Y-199185D01*
X507895Y-198500D01*
X506105D01*
X504451Y-199185D01*
X503185Y-200451D01*
X502500Y-202105D01*
Y-203895D01*
X503185Y-205549D01*
X504451Y-206815D01*
X506105Y-207500D01*
X507895D01*
X509549Y-206815D01*
X510170Y-206194D01*
X511000Y-205667D01*
X511830Y-206194D01*
X512451Y-206815D01*
X514105Y-207500D01*
X515895D01*
X517549Y-206815D01*
X518170Y-206194D01*
X519000Y-205667D01*
X519830Y-206194D01*
X520451Y-206815D01*
X522105Y-207500D01*
X523895D01*
X525549Y-206815D01*
X526815Y-205549D01*
X527500Y-203895D01*
Y-202105D01*
X526815Y-200451D01*
X525549Y-199185D01*
X523895Y-198500D01*
D02*
G37*
G36*
X574895Y-196500D02*
X573105D01*
X571451Y-197185D01*
X570185Y-198451D01*
X569500Y-200105D01*
Y-201895D01*
X570185Y-203549D01*
X571451Y-204815D01*
X573105Y-205500D01*
X574895D01*
X576549Y-204815D01*
X577815Y-203549D01*
X578500Y-201895D01*
Y-200105D01*
X577815Y-198451D01*
X576549Y-197185D01*
X574895Y-196500D01*
D02*
G37*
G36*
Y-216500D02*
X573105D01*
X571451Y-217185D01*
X570185Y-218451D01*
X569500Y-220105D01*
Y-221895D01*
X570185Y-223549D01*
X571451Y-224815D01*
X572687Y-225327D01*
Y-226673D01*
X571451Y-227185D01*
X570185Y-228451D01*
X569500Y-230105D01*
Y-231895D01*
X570185Y-233549D01*
X571451Y-234815D01*
X572687Y-235327D01*
Y-236673D01*
X571451Y-237185D01*
X570185Y-238451D01*
X569500Y-240105D01*
Y-241895D01*
X570185Y-243549D01*
X571451Y-244815D01*
X572687Y-245327D01*
Y-246673D01*
X571451Y-247185D01*
X570185Y-248451D01*
X569500Y-250105D01*
Y-251895D01*
X570185Y-253549D01*
X571451Y-254815D01*
X573105Y-255500D01*
X574895D01*
X576549Y-254815D01*
X577815Y-253549D01*
X578500Y-251895D01*
Y-250105D01*
X577815Y-248451D01*
X576549Y-247185D01*
X575313Y-246673D01*
Y-245327D01*
X576549Y-244815D01*
X577815Y-243549D01*
X578500Y-241895D01*
Y-240105D01*
X577815Y-238451D01*
X576549Y-237185D01*
X575313Y-236673D01*
Y-235327D01*
X576549Y-234815D01*
X577815Y-233549D01*
X578500Y-231895D01*
Y-230105D01*
X577815Y-228451D01*
X576549Y-227185D01*
X575313Y-226673D01*
Y-225327D01*
X576549Y-224815D01*
X577815Y-223549D01*
X578500Y-221895D01*
Y-220105D01*
X577815Y-218451D01*
X576549Y-217185D01*
X574895Y-216500D01*
D02*
G37*
G36*
X510895Y-249500D02*
X509105D01*
X507451Y-250185D01*
X506185Y-251451D01*
X505500Y-253105D01*
Y-254895D01*
X506185Y-256549D01*
X506806Y-257170D01*
X507333Y-258000D01*
X506806Y-258830D01*
X506185Y-259451D01*
X505500Y-261105D01*
Y-262895D01*
X506185Y-264549D01*
X506806Y-265170D01*
X507333Y-266000D01*
X506806Y-266830D01*
X506185Y-267451D01*
X505500Y-269105D01*
Y-270895D01*
X506185Y-272549D01*
X507451Y-273815D01*
X509105Y-274500D01*
X510895D01*
X512549Y-273815D01*
X513815Y-272549D01*
X514500Y-270895D01*
Y-269105D01*
X513815Y-267451D01*
X513194Y-266830D01*
X512667Y-266000D01*
X513194Y-265170D01*
X513815Y-264549D01*
X514500Y-262895D01*
Y-261105D01*
X513815Y-259451D01*
X513194Y-258830D01*
X512667Y-258000D01*
X513194Y-257170D01*
X513815Y-256549D01*
X514500Y-254895D01*
Y-253105D01*
X513815Y-251451D01*
X512549Y-250185D01*
X510895Y-249500D01*
D02*
G37*
G36*
X723895Y-241500D02*
X722105D01*
X720451Y-242185D01*
X719185Y-243451D01*
X718500Y-245105D01*
Y-246895D01*
X719185Y-248549D01*
X719806Y-249170D01*
X720333Y-250000D01*
X719806Y-250830D01*
X719185Y-251451D01*
X718500Y-253105D01*
Y-254895D01*
X719185Y-256549D01*
X719806Y-257170D01*
X720333Y-258000D01*
X719806Y-258830D01*
X719185Y-259451D01*
X718500Y-261105D01*
Y-262895D01*
X719185Y-264549D01*
X719806Y-265170D01*
X720333Y-266000D01*
X719806Y-266830D01*
X719185Y-267451D01*
X718500Y-269105D01*
Y-270895D01*
X719185Y-272549D01*
X719806Y-273170D01*
X720333Y-274000D01*
X719806Y-274830D01*
X719185Y-275451D01*
X718500Y-277105D01*
Y-278895D01*
X719185Y-280549D01*
X720451Y-281815D01*
X722105Y-282500D01*
X723895D01*
X725549Y-281815D01*
X726815Y-280549D01*
X727500Y-278895D01*
Y-277105D01*
X726815Y-275451D01*
X726194Y-274830D01*
X725667Y-274000D01*
X726194Y-273170D01*
X726815Y-272549D01*
X727500Y-270895D01*
Y-269105D01*
X726815Y-267451D01*
X726194Y-266830D01*
X725667Y-266000D01*
X726194Y-265170D01*
X726815Y-264549D01*
X727500Y-262895D01*
Y-261105D01*
X726815Y-259451D01*
X726194Y-258830D01*
X725667Y-258000D01*
X726194Y-257170D01*
X726815Y-256549D01*
X727500Y-254895D01*
Y-253105D01*
X726815Y-251451D01*
X726194Y-250830D01*
X725667Y-250000D01*
X726194Y-249170D01*
X726815Y-248549D01*
X727500Y-246895D01*
Y-245105D01*
X726815Y-243451D01*
X725549Y-242185D01*
X723895Y-241500D01*
D02*
G37*
G36*
X686895D02*
X685105D01*
X683451Y-242185D01*
X682185Y-243451D01*
X681500Y-245105D01*
Y-246895D01*
X682185Y-248549D01*
X682806Y-249170D01*
X683333Y-250000D01*
X682806Y-250830D01*
X682185Y-251451D01*
X681500Y-253105D01*
Y-254895D01*
X682185Y-256549D01*
X682806Y-257170D01*
X683333Y-258000D01*
X682806Y-258830D01*
X682185Y-259451D01*
X681500Y-261105D01*
Y-262895D01*
X682185Y-264549D01*
X682806Y-265170D01*
X683333Y-266000D01*
X682806Y-266830D01*
X682185Y-267451D01*
X681500Y-269105D01*
Y-270895D01*
X682185Y-272549D01*
X682806Y-273170D01*
X683333Y-274000D01*
X682806Y-274830D01*
X682185Y-275451D01*
X681500Y-277105D01*
Y-278895D01*
X682185Y-280549D01*
X683451Y-281815D01*
X685105Y-282500D01*
X686895D01*
X688549Y-281815D01*
X689815Y-280549D01*
X690500Y-278895D01*
Y-277105D01*
X689815Y-275451D01*
X689194Y-274830D01*
X688667Y-274000D01*
X689194Y-273170D01*
X689815Y-272549D01*
X690500Y-270895D01*
Y-269105D01*
X689815Y-267451D01*
X689194Y-266830D01*
X688667Y-266000D01*
X689194Y-265170D01*
X689815Y-264549D01*
X690500Y-262895D01*
Y-261105D01*
X689815Y-259451D01*
X689194Y-258830D01*
X688667Y-258000D01*
X689194Y-257170D01*
X689815Y-256549D01*
X690500Y-254895D01*
Y-253105D01*
X689815Y-251451D01*
X689194Y-250830D01*
X688667Y-250000D01*
X689194Y-249170D01*
X689815Y-248549D01*
X690500Y-246895D01*
Y-245105D01*
X689815Y-243451D01*
X688549Y-242185D01*
X686895Y-241500D01*
D02*
G37*
G36*
X752479Y-314800D02*
X747521D01*
X742624Y-315576D01*
X737908Y-317108D01*
X733490Y-319359D01*
X729479Y-322273D01*
X725973Y-325779D01*
X723059Y-329790D01*
X720808Y-334208D01*
X719276Y-338924D01*
X718500Y-343821D01*
Y-348779D01*
X719276Y-353676D01*
X720808Y-358392D01*
X723059Y-362810D01*
X725973Y-366821D01*
X729479Y-370327D01*
X733490Y-373241D01*
X737908Y-375492D01*
X742624Y-377024D01*
X747521Y-377800D01*
X752479D01*
X757376Y-377024D01*
X762092Y-375492D01*
X766510Y-373241D01*
X770521Y-370327D01*
X774027Y-366821D01*
X776941Y-362810D01*
X779192Y-358392D01*
X780724Y-353676D01*
X781500Y-348779D01*
Y-343821D01*
X780724Y-338924D01*
X779192Y-334208D01*
X776941Y-329790D01*
X774027Y-325779D01*
X770521Y-322273D01*
X766510Y-319359D01*
X762092Y-317108D01*
X757376Y-315576D01*
X752479Y-314800D01*
D02*
G37*
G36*
X749895Y-406500D02*
X748105D01*
X746451Y-407185D01*
X745185Y-408451D01*
X744500Y-410105D01*
Y-411895D01*
X744975Y-413041D01*
X745000Y-414300D01*
X745000Y-414300D01*
X745000Y-414300D01*
Y-427300D01*
X745292D01*
X745609Y-428066D01*
X746734Y-429191D01*
X748204Y-429800D01*
X749796D01*
X751266Y-429191D01*
X752280Y-428177D01*
X753000Y-428117D01*
X753720Y-428177D01*
X754734Y-429191D01*
X756204Y-429800D01*
X757796D01*
X759266Y-429191D01*
X760391Y-428066D01*
X760708Y-427300D01*
X761000D01*
Y-414300D01*
X753774Y-414300D01*
X753686Y-414231D01*
X753030Y-413030D01*
X753500Y-411895D01*
Y-410105D01*
X752815Y-408451D01*
X751549Y-407185D01*
X749895Y-406500D01*
D02*
G37*
G36*
X757796Y-442800D02*
X756204D01*
X754734Y-443409D01*
X753720Y-444423D01*
X753000Y-444483D01*
X752280Y-444423D01*
X751266Y-443409D01*
X749796Y-442800D01*
X748204D01*
X746734Y-443409D01*
X745720Y-444423D01*
X745000Y-444483D01*
X744280Y-444423D01*
X743266Y-443409D01*
X741796Y-442800D01*
X740204D01*
X738734Y-443409D01*
X737720Y-444423D01*
X737000Y-444483D01*
X736280Y-444423D01*
X735266Y-443409D01*
X733796Y-442800D01*
X732204D01*
X730734Y-443409D01*
X729609Y-444534D01*
X729292Y-445300D01*
X729000D01*
Y-458300D01*
X735730D01*
X737000Y-458300D01*
X738270Y-458300D01*
X751730D01*
X753000Y-458300D01*
X754270Y-458300D01*
X761000D01*
Y-445300D01*
X760708D01*
X760391Y-444534D01*
X759266Y-443409D01*
X757796Y-442800D01*
D02*
G37*
G36*
X777895Y-448500D02*
X776105D01*
X774451Y-449185D01*
X773185Y-450451D01*
X772500Y-452105D01*
Y-453895D01*
X773185Y-455549D01*
X774451Y-456815D01*
X776105Y-457500D01*
X777895D01*
X779549Y-456815D01*
X780815Y-455549D01*
X781500Y-453895D01*
Y-452105D01*
X780815Y-450451D01*
X779549Y-449185D01*
X777895Y-448500D01*
D02*
G37*
G36*
X-198105Y-338500D02*
X-199895D01*
X-201549Y-339185D01*
X-202170Y-339806D01*
X-203000Y-340333D01*
X-203830Y-339806D01*
X-204451Y-339185D01*
X-206105Y-338500D01*
X-207895D01*
X-209549Y-339185D01*
X-210815Y-340451D01*
X-211500Y-342105D01*
Y-343895D01*
X-210815Y-345549D01*
X-210194Y-346170D01*
X-209667Y-347000D01*
X-210194Y-347830D01*
X-210815Y-348451D01*
X-211500Y-350105D01*
Y-351895D01*
X-210815Y-353549D01*
X-209549Y-354815D01*
X-207895Y-355500D01*
X-206105D01*
X-204451Y-354815D01*
X-203830Y-354194D01*
X-203000Y-353667D01*
X-202170Y-354194D01*
X-201549Y-354815D01*
X-199895Y-355500D01*
X-198105D01*
X-196451Y-354815D01*
X-195185Y-353549D01*
X-194500Y-351895D01*
Y-350105D01*
X-195185Y-348451D01*
X-195806Y-347830D01*
X-196333Y-347000D01*
X-195806Y-346170D01*
X-195185Y-345549D01*
X-194500Y-343895D01*
Y-342105D01*
X-195185Y-340451D01*
X-196451Y-339185D01*
X-198105Y-338500D01*
D02*
G37*
G36*
X-202105Y-400650D02*
X-203895D01*
X-205549Y-401335D01*
X-206815Y-402601D01*
X-207500Y-404255D01*
Y-406045D01*
X-206815Y-407699D01*
X-205549Y-408965D01*
X-203895Y-409650D01*
X-202105D01*
X-200451Y-408965D01*
X-199185Y-407699D01*
X-198500Y-406045D01*
Y-404255D01*
X-199185Y-402601D01*
X-200451Y-401335D01*
X-202105Y-400650D01*
D02*
G37*
G36*
X-229875Y-412300D02*
X-233125D01*
X-236313Y-412934D01*
X-239316Y-414178D01*
X-242018Y-415984D01*
X-244316Y-418282D01*
X-246122Y-420984D01*
X-247366Y-423987D01*
X-248000Y-427175D01*
Y-430425D01*
X-247366Y-433613D01*
X-246122Y-436616D01*
X-244316Y-439318D01*
X-242018Y-441616D01*
X-239316Y-443422D01*
X-236313Y-444666D01*
X-233125Y-445300D01*
X-229875D01*
X-226687Y-444666D01*
X-223684Y-443422D01*
X-220982Y-441616D01*
X-218684Y-439318D01*
X-216878Y-436616D01*
X-215634Y-433613D01*
X-215000Y-430425D01*
Y-427175D01*
X-215634Y-423987D01*
X-216878Y-420984D01*
X-218684Y-418282D01*
X-220982Y-415984D01*
X-223684Y-414178D01*
X-226687Y-412934D01*
X-229875Y-412300D01*
D02*
G37*
G36*
X-189105Y-424500D02*
X-190895D01*
X-192549Y-425185D01*
X-193815Y-426451D01*
X-194500Y-428105D01*
Y-429895D01*
X-193815Y-431549D01*
X-192864Y-432500D01*
X-193815Y-433451D01*
X-194500Y-435105D01*
Y-436895D01*
X-193815Y-438549D01*
X-193194Y-439170D01*
X-192667Y-440000D01*
X-193194Y-440830D01*
X-193815Y-441451D01*
X-194500Y-443105D01*
Y-444895D01*
X-193815Y-446549D01*
X-192549Y-447815D01*
X-190895Y-448500D01*
X-189105D01*
X-187451Y-447815D01*
X-186185Y-446549D01*
X-185500Y-444895D01*
Y-443105D01*
X-186185Y-441451D01*
X-186806Y-440830D01*
X-187333Y-440000D01*
X-186806Y-439170D01*
X-186185Y-438549D01*
X-185500Y-436895D01*
Y-435105D01*
X-186185Y-433451D01*
X-187136Y-432500D01*
X-186185Y-431549D01*
X-185500Y-429895D01*
Y-428105D01*
X-186185Y-426451D01*
X-187451Y-425185D01*
X-189105Y-424500D01*
D02*
G37*
G36*
X-229875Y-452800D02*
X-233125D01*
X-236313Y-453434D01*
X-239316Y-454678D01*
X-242018Y-456484D01*
X-244316Y-458782D01*
X-246122Y-461484D01*
X-247366Y-464487D01*
X-248000Y-467675D01*
Y-470925D01*
X-247366Y-474113D01*
X-246122Y-477116D01*
X-244316Y-479818D01*
X-242018Y-482116D01*
X-239316Y-483922D01*
X-236313Y-485166D01*
X-233125Y-485800D01*
X-229875D01*
X-226687Y-485166D01*
X-223684Y-483922D01*
X-220982Y-482116D01*
X-218684Y-479818D01*
X-216878Y-477116D01*
X-215634Y-474113D01*
X-215000Y-470925D01*
Y-467675D01*
X-215634Y-464487D01*
X-216878Y-461484D01*
X-218684Y-458782D01*
X-220982Y-456484D01*
X-223684Y-454678D01*
X-226687Y-453434D01*
X-229875Y-452800D01*
D02*
G37*
G36*
Y-493300D02*
X-233125D01*
X-236313Y-493934D01*
X-239316Y-495178D01*
X-242018Y-496984D01*
X-244316Y-499282D01*
X-246122Y-501984D01*
X-247366Y-504987D01*
X-248000Y-508175D01*
Y-511425D01*
X-247366Y-514613D01*
X-246122Y-517616D01*
X-244316Y-520318D01*
X-242018Y-522616D01*
X-239316Y-524422D01*
X-236313Y-525666D01*
X-233125Y-526300D01*
X-229875D01*
X-226687Y-525666D01*
X-223684Y-524422D01*
X-220982Y-522616D01*
X-218684Y-520318D01*
X-216878Y-517616D01*
X-215634Y-514613D01*
X-215000Y-511425D01*
Y-508175D01*
X-215634Y-504987D01*
X-216878Y-501984D01*
X-218684Y-499282D01*
X-220982Y-496984D01*
X-223684Y-495178D01*
X-226687Y-493934D01*
X-229875Y-493300D01*
D02*
G37*
G36*
X-242105Y-531500D02*
X-243895D01*
X-245549Y-532185D01*
X-246815Y-533451D01*
X-247500Y-535105D01*
Y-536895D01*
X-246815Y-538549D01*
X-246194Y-539170D01*
X-245667Y-540000D01*
X-246194Y-540830D01*
X-246815Y-541451D01*
X-247500Y-543105D01*
Y-544895D01*
X-246815Y-546549D01*
X-246194Y-547170D01*
X-245667Y-548000D01*
X-246194Y-548830D01*
X-246815Y-549451D01*
X-247500Y-551105D01*
Y-552895D01*
X-246815Y-554549D01*
X-246194Y-555170D01*
X-245667Y-556000D01*
X-246194Y-556830D01*
X-246815Y-557451D01*
X-247500Y-559105D01*
Y-560895D01*
X-246815Y-562549D01*
X-245549Y-563815D01*
X-243895Y-564500D01*
X-242105D01*
X-240451Y-563815D01*
X-239185Y-562549D01*
X-238500Y-560895D01*
Y-559105D01*
X-239185Y-557451D01*
X-239806Y-556830D01*
X-240333Y-556000D01*
X-239806Y-555170D01*
X-239185Y-554549D01*
X-238500Y-552895D01*
Y-551105D01*
X-239185Y-549451D01*
X-239806Y-548830D01*
X-240333Y-548000D01*
X-239806Y-547170D01*
X-239185Y-546549D01*
X-238500Y-544895D01*
Y-543105D01*
X-239185Y-541451D01*
X-239806Y-540830D01*
X-240333Y-540000D01*
X-239806Y-539170D01*
X-239185Y-538549D01*
X-238500Y-536895D01*
Y-535105D01*
X-239185Y-533451D01*
X-240451Y-532185D01*
X-242105Y-531500D01*
D02*
G37*
G36*
X-185105Y-558500D02*
X-186895D01*
X-188549Y-559185D01*
X-189815Y-560451D01*
X-190500Y-562105D01*
Y-563895D01*
X-189815Y-565549D01*
X-188549Y-566815D01*
X-187517Y-567242D01*
X-186500Y-568105D01*
Y-569895D01*
X-185815Y-571549D01*
X-184549Y-572815D01*
X-182895Y-573500D01*
X-181105D01*
X-179451Y-572815D01*
X-178185Y-571549D01*
X-177500Y-569895D01*
Y-568105D01*
X-178185Y-566451D01*
X-179451Y-565185D01*
X-180483Y-564758D01*
X-181500Y-563895D01*
Y-562105D01*
X-182185Y-560451D01*
X-183451Y-559185D01*
X-185105Y-558500D01*
D02*
G37*
G36*
X-215105Y-575500D02*
X-216895D01*
X-218549Y-576185D01*
X-219815Y-577451D01*
X-220500Y-579105D01*
Y-580895D01*
X-219815Y-582549D01*
X-218864Y-583500D01*
X-219815Y-584451D01*
X-220500Y-586105D01*
Y-587895D01*
X-219815Y-589549D01*
X-218549Y-590815D01*
X-216895Y-591500D01*
X-215105D01*
X-213451Y-590815D01*
X-212185Y-589549D01*
X-211500Y-587895D01*
Y-586105D01*
X-212185Y-584451D01*
X-213136Y-583500D01*
X-212185Y-582549D01*
X-211500Y-580895D01*
Y-579105D01*
X-212185Y-577451D01*
X-213451Y-576185D01*
X-215105Y-575500D01*
D02*
G37*
G36*
X-207105Y-590500D02*
X-208895D01*
X-210549Y-591185D01*
X-211815Y-592451D01*
X-212500Y-594105D01*
Y-595895D01*
X-211815Y-597549D01*
X-210549Y-598815D01*
X-208895Y-599500D01*
X-207105D01*
X-205451Y-598815D01*
X-204185Y-597549D01*
X-203500Y-595895D01*
Y-594105D01*
X-204185Y-592451D01*
X-205451Y-591185D01*
X-207105Y-590500D01*
D02*
G37*
G36*
X-182105Y-591500D02*
X-183895D01*
X-185549Y-592185D01*
X-186815Y-593451D01*
X-187500Y-595105D01*
Y-596895D01*
X-186815Y-598549D01*
X-185549Y-599815D01*
X-183895Y-600500D01*
X-182105D01*
X-180451Y-599815D01*
X-179185Y-598549D01*
X-178500Y-596895D01*
Y-595105D01*
X-179185Y-593451D01*
X-180451Y-592185D01*
X-182105Y-591500D01*
D02*
G37*
G36*
X-165105Y-624500D02*
X-166895D01*
X-168549Y-625185D01*
X-169500Y-626136D01*
X-170451Y-625185D01*
X-172105Y-624500D01*
X-173895D01*
X-175549Y-625185D01*
X-176815Y-626451D01*
X-177500Y-628105D01*
Y-629895D01*
X-176815Y-631549D01*
X-175549Y-632815D01*
X-173895Y-633500D01*
X-172105D01*
X-170451Y-632815D01*
X-169500Y-631864D01*
X-168549Y-632815D01*
X-166895Y-633500D01*
X-165105D01*
X-163451Y-632815D01*
X-162185Y-631549D01*
X-161500Y-629895D01*
Y-628105D01*
X-162185Y-626451D01*
X-163451Y-625185D01*
X-165105Y-624500D01*
D02*
G37*
G36*
X190895Y-356500D02*
X189105D01*
X187451Y-357185D01*
X186185Y-358451D01*
X185500Y-360105D01*
Y-361895D01*
X186185Y-363549D01*
X187451Y-364815D01*
X189105Y-365500D01*
X190895D01*
X192549Y-364815D01*
X193815Y-363549D01*
X194500Y-361895D01*
Y-360105D01*
X193815Y-358451D01*
X192549Y-357185D01*
X190895Y-356500D01*
D02*
G37*
G36*
X230895Y-374500D02*
X229105D01*
X227451Y-375185D01*
X226500Y-376136D01*
X225549Y-375185D01*
X223895Y-374500D01*
X222105D01*
X220451Y-375185D01*
X219185Y-376451D01*
X218500Y-378105D01*
Y-379895D01*
X219185Y-381549D01*
X220451Y-382815D01*
X222105Y-383500D01*
X223895D01*
X225549Y-382815D01*
X226500Y-381864D01*
X227451Y-382815D01*
X229105Y-383500D01*
X230895D01*
X232549Y-382815D01*
X233815Y-381549D01*
X234500Y-379895D01*
Y-378105D01*
X233815Y-376451D01*
X232549Y-375185D01*
X230895Y-374500D01*
D02*
G37*
G36*
X214895Y-390500D02*
X213105D01*
X211451Y-391185D01*
X210185Y-392451D01*
X209500Y-394105D01*
Y-395895D01*
X210185Y-397549D01*
X211451Y-398815D01*
X213105Y-399500D01*
X214895D01*
X216549Y-398815D01*
X217815Y-397549D01*
X218500Y-395895D01*
Y-394105D01*
X217815Y-392451D01*
X216549Y-391185D01*
X214895Y-390500D01*
D02*
G37*
G36*
X190895D02*
X189105D01*
X187451Y-391185D01*
X186185Y-392451D01*
X185500Y-394105D01*
Y-395895D01*
X186185Y-397549D01*
X187451Y-398815D01*
X189105Y-399500D01*
X190895D01*
X192549Y-398815D01*
X193815Y-397549D01*
X194500Y-395895D01*
Y-394105D01*
X193815Y-392451D01*
X192549Y-391185D01*
X190895Y-390500D01*
D02*
G37*
G36*
X223895Y-398500D02*
X222105D01*
X220451Y-399185D01*
X219185Y-400451D01*
X218500Y-402105D01*
Y-403895D01*
X219185Y-405549D01*
X219636Y-406000D01*
X219185Y-406451D01*
X218500Y-408105D01*
Y-409895D01*
X219185Y-411549D01*
X220451Y-412815D01*
X222105Y-413500D01*
X223895D01*
X225549Y-412815D01*
X226815Y-411549D01*
X227500Y-409895D01*
Y-408105D01*
X226815Y-406451D01*
X226364Y-406000D01*
X226815Y-405549D01*
X227500Y-403895D01*
Y-402105D01*
X226815Y-400451D01*
X225549Y-399185D01*
X223895Y-398500D01*
D02*
G37*
G36*
X191895Y-418500D02*
X190105D01*
X188451Y-419185D01*
X187185Y-420451D01*
X186500Y-422105D01*
Y-423895D01*
X187185Y-425549D01*
X188451Y-426815D01*
X190105Y-427500D01*
X191895D01*
X193549Y-426815D01*
X194815Y-425549D01*
X195500Y-423895D01*
Y-422105D01*
X194815Y-420451D01*
X193549Y-419185D01*
X191895Y-418500D01*
D02*
G37*
G36*
X251895Y-426500D02*
X250105D01*
X248451Y-427185D01*
X247185Y-428451D01*
X246500Y-430105D01*
Y-431895D01*
X247185Y-433549D01*
X247806Y-434170D01*
X248333Y-435000D01*
X247806Y-435830D01*
X247185Y-436451D01*
X246500Y-438105D01*
Y-439895D01*
X247185Y-441549D01*
X247806Y-442170D01*
X248333Y-443000D01*
X247806Y-443830D01*
X247185Y-444451D01*
X246500Y-446105D01*
Y-447895D01*
X247185Y-449549D01*
X247806Y-450170D01*
X248333Y-451000D01*
X247806Y-451830D01*
X247185Y-452451D01*
X246500Y-454105D01*
Y-455895D01*
X247185Y-457549D01*
X248451Y-458815D01*
X250105Y-459500D01*
X251895D01*
X253549Y-458815D01*
X254815Y-457549D01*
X255500Y-455895D01*
Y-454105D01*
X254815Y-452451D01*
X254194Y-451830D01*
X253667Y-451000D01*
X254194Y-450170D01*
X254815Y-449549D01*
X255500Y-447895D01*
Y-446105D01*
X254815Y-444451D01*
X254194Y-443830D01*
X253667Y-443000D01*
X254194Y-442170D01*
X254815Y-441549D01*
X255500Y-439895D01*
Y-438105D01*
X254815Y-436451D01*
X254194Y-435830D01*
X253667Y-435000D01*
X254194Y-434170D01*
X254815Y-433549D01*
X255500Y-431895D01*
Y-430105D01*
X254815Y-428451D01*
X253549Y-427185D01*
X251895Y-426500D01*
D02*
G37*
G36*
X284395Y-510500D02*
X282605D01*
X280951Y-511185D01*
X279685Y-512451D01*
X279000Y-514105D01*
Y-515895D01*
X279685Y-517549D01*
X280951Y-518815D01*
X282605Y-519500D01*
X284395D01*
X286049Y-518815D01*
X287315Y-517549D01*
X288000Y-515895D01*
Y-514105D01*
X287315Y-512451D01*
X286049Y-511185D01*
X284395Y-510500D01*
D02*
G37*
G36*
X253125Y-514300D02*
X249875D01*
X246687Y-514934D01*
X243684Y-516178D01*
X240982Y-517984D01*
X238684Y-520282D01*
X236878Y-522984D01*
X235634Y-525987D01*
X235000Y-529175D01*
Y-532425D01*
X235634Y-535613D01*
X236878Y-538616D01*
X238684Y-541318D01*
X240982Y-543616D01*
X243684Y-545422D01*
X246687Y-546666D01*
X249875Y-547300D01*
X253125D01*
X256313Y-546666D01*
X259316Y-545422D01*
X262018Y-543616D01*
X264316Y-541318D01*
X266122Y-538616D01*
X267366Y-535613D01*
X268000Y-532425D01*
Y-529175D01*
X267366Y-525987D01*
X266122Y-522984D01*
X264316Y-520282D01*
X262018Y-517984D01*
X259316Y-516178D01*
X256313Y-514934D01*
X253125Y-514300D01*
D02*
G37*
G36*
X215895Y-565500D02*
X214105D01*
X212451Y-566185D01*
X211500Y-567136D01*
X210549Y-566185D01*
X208895Y-565500D01*
X207105D01*
X205451Y-566185D01*
X204185Y-567451D01*
X203500Y-569105D01*
Y-570895D01*
X204185Y-572549D01*
X205451Y-573815D01*
X207105Y-574500D01*
X208895D01*
X210549Y-573815D01*
X211500Y-572864D01*
X212451Y-573815D01*
X214105Y-574500D01*
X215895D01*
X217549Y-573815D01*
X218815Y-572549D01*
X219500Y-570895D01*
Y-569105D01*
X218815Y-567451D01*
X217549Y-566185D01*
X215895Y-565500D01*
D02*
G37*
G36*
X253125Y-554800D02*
X249875D01*
X246687Y-555434D01*
X243684Y-556678D01*
X240982Y-558484D01*
X238684Y-560782D01*
X236878Y-563484D01*
X235634Y-566487D01*
X235000Y-569675D01*
Y-572925D01*
X235634Y-576113D01*
X236878Y-579116D01*
X238684Y-581818D01*
X240982Y-584116D01*
X243684Y-585922D01*
X246687Y-587166D01*
X249875Y-587800D01*
X253125D01*
X256313Y-587166D01*
X259316Y-585922D01*
X262018Y-584116D01*
X264316Y-581818D01*
X266122Y-579116D01*
X267366Y-576113D01*
X268000Y-572925D01*
Y-569675D01*
X267366Y-566487D01*
X266122Y-563484D01*
X264316Y-560782D01*
X262018Y-558484D01*
X259316Y-556678D01*
X256313Y-555434D01*
X253125Y-554800D01*
D02*
G37*
G36*
X224895Y-614000D02*
X223105D01*
X221451Y-614685D01*
X220185Y-615951D01*
X219500Y-617605D01*
Y-619395D01*
X220185Y-621049D01*
X221451Y-622315D01*
X223105Y-623000D01*
X224895D01*
X226549Y-622315D01*
X227815Y-621049D01*
X228500Y-619395D01*
Y-617605D01*
X227815Y-615951D01*
X226549Y-614685D01*
X224895Y-614000D01*
D02*
G37*
G36*
X203895Y-643500D02*
X202105D01*
X200451Y-644185D01*
X199185Y-645451D01*
X198500Y-647105D01*
Y-648895D01*
X199185Y-650549D01*
X199806Y-651170D01*
X200333Y-652000D01*
X199806Y-652830D01*
X199185Y-653451D01*
X198500Y-655105D01*
Y-656895D01*
X199185Y-658549D01*
X200451Y-659815D01*
X202105Y-660500D01*
X203895D01*
X205549Y-659815D01*
X206815Y-658549D01*
X207500Y-656895D01*
Y-655105D01*
X206815Y-653451D01*
X206194Y-652830D01*
X205667Y-652000D01*
X206194Y-651170D01*
X206815Y-650549D01*
X207500Y-648895D01*
Y-647105D01*
X206815Y-645451D01*
X205549Y-644185D01*
X203895Y-643500D01*
D02*
G37*
G36*
X280125Y-632300D02*
X276875D01*
X273687Y-632934D01*
X270684Y-634178D01*
X267982Y-635984D01*
X265684Y-638282D01*
X263878Y-640984D01*
X262634Y-643987D01*
X262000Y-647175D01*
Y-650425D01*
X262634Y-653613D01*
X263878Y-656616D01*
X265684Y-659318D01*
X267982Y-661616D01*
X270684Y-663422D01*
X273687Y-664666D01*
X276875Y-665300D01*
X280125D01*
X283313Y-664666D01*
X286316Y-663422D01*
X289018Y-661616D01*
X291316Y-659318D01*
X293122Y-656616D01*
X294366Y-653613D01*
X295000Y-650425D01*
Y-647175D01*
X294366Y-643987D01*
X293122Y-640984D01*
X291316Y-638282D01*
X289018Y-635984D01*
X286316Y-634178D01*
X283313Y-632934D01*
X280125Y-632300D01*
D02*
G37*
G36*
X214895Y-691500D02*
X213105D01*
X211451Y-692185D01*
X210185Y-693451D01*
X209500Y-695105D01*
Y-696895D01*
X210185Y-698549D01*
X211451Y-699815D01*
X213105Y-700500D01*
X214895D01*
X216549Y-699815D01*
X217815Y-698549D01*
X218500Y-696895D01*
Y-695105D01*
X217815Y-693451D01*
X216549Y-692185D01*
X214895Y-691500D01*
D02*
G37*
%LPD*%
D92*
X-1072500Y-241500D02*
D03*
X-726500D02*
D03*
X-1072500Y193500D02*
D03*
X-726500D02*
D03*
X-1072500Y628500D02*
D03*
X-726500D02*
D03*
D93*
X-1072500Y-616500D02*
D03*
X-1275500Y-241500D02*
D03*
Y-616500D02*
D03*
X-726500D02*
D03*
X-929500Y-241500D02*
D03*
Y-616500D02*
D03*
X-1072500Y-181500D02*
D03*
X-1275500Y193500D02*
D03*
Y-181500D02*
D03*
X-726500D02*
D03*
X-929500Y193500D02*
D03*
Y-181500D02*
D03*
X-1072500Y253500D02*
D03*
X-1275500Y628500D02*
D03*
Y253500D02*
D03*
X-726500D02*
D03*
X-929500Y628500D02*
D03*
Y253500D02*
D03*
D95*
X-1108000Y342000D02*
Y342788D01*
X-1105000Y345788D02*
Y354818D01*
X-1108000Y342788D02*
X-1105000Y345788D01*
Y354818D02*
X-1099818Y360000D01*
X-1102000Y344788D02*
Y354000D01*
X-1099000Y341000D02*
Y341788D01*
X-1102000Y344788D02*
X-1099000Y341788D01*
X-1102000Y354000D02*
X-1099000Y357000D01*
X-756818D01*
X-1099818Y360000D02*
X-756000D01*
X-676000Y280000D02*
X-340182D01*
X-756818Y357000D02*
X-677118Y277300D01*
X-756000Y360000D02*
X-676000Y280000D01*
X-677118Y277300D02*
X-341300D01*
X-340182Y280000D02*
X-304182Y244000D01*
X-341300Y277300D02*
X-305000Y241000D01*
X-301103D01*
X-304182Y244000D02*
X-301000D01*
X-299103Y239000D02*
X-298000D01*
X-301103Y241000D02*
X-299103Y239000D01*
X-301000Y244000D02*
X-298000Y247000D01*
D97*
X-656636Y293000D02*
X-333000D01*
X-734636Y371000D02*
X-656636Y293000D01*
X-1173000Y371000D02*
X-734636D01*
X-1191000Y389000D02*
X-1173000Y371000D01*
D98*
X-318000Y303000D02*
X-287617Y272617D01*
X-650000Y303000D02*
X-318000D01*
X-282617Y272617D02*
X-281000Y271000D01*
X-287617Y272617D02*
X-282617D01*
X-739000Y392000D02*
X-650000Y303000D01*
X-991000Y392000D02*
X-739000D01*
D99*
X232000Y634200D02*
D03*
X226000Y164200D02*
D03*
X220000Y-305800D02*
D03*
X-150000Y-225000D02*
D03*
D100*
X741000Y-420800D02*
D03*
X757000Y-451800D02*
D03*
X733000D02*
D03*
X741000D02*
D03*
X749000D02*
D03*
X757000Y-420800D02*
D03*
X749000D02*
D03*
X733000D02*
D03*
X741000Y49200D02*
D03*
X757000Y18200D02*
D03*
X733000D02*
D03*
X741000D02*
D03*
X749000D02*
D03*
X757000Y49200D02*
D03*
X749000D02*
D03*
X733000D02*
D03*
X741000Y519200D02*
D03*
X757000Y488200D02*
D03*
X733000D02*
D03*
X741000D02*
D03*
X749000D02*
D03*
X757000Y519200D02*
D03*
X749000D02*
D03*
X733000D02*
D03*
D101*
X605000Y-291300D02*
D03*
X626500D02*
D03*
X605000Y-91300D02*
D03*
X626500D02*
D03*
X648000D02*
D03*
Y-291300D02*
D03*
D102*
X-1180000Y720000D02*
D03*
X-1100000D02*
D03*
X-1020000D02*
D03*
D103*
X480000Y-730000D02*
D03*
Y730000D02*
D03*
X750000Y593700D02*
D03*
Y433700D02*
D03*
Y-36300D02*
D03*
Y123700D02*
D03*
Y-346300D02*
D03*
Y-506300D02*
D03*
Y-730000D02*
D03*
Y730000D02*
D03*
X-1300000Y-730000D02*
D03*
Y730000D02*
D03*
X420000Y0D02*
D03*
X-400000D02*
D03*
Y-375000D02*
D03*
Y375000D02*
D03*
D104*
X562500Y513700D02*
D03*
Y43700D02*
D03*
Y-426300D02*
D03*
X-582500Y563700D02*
D03*
Y373700D02*
D03*
Y93700D02*
D03*
Y-96300D02*
D03*
Y-376300D02*
D03*
Y-566300D02*
D03*
D105*
X98500Y664200D02*
D03*
X173500D02*
D03*
X251500Y409200D02*
D03*
Y368700D02*
D03*
X278500Y291200D02*
D03*
X98500Y194200D02*
D03*
X173500D02*
D03*
X251500Y-60800D02*
D03*
Y-101300D02*
D03*
X278500Y-178800D02*
D03*
X98500Y-275800D02*
D03*
X173500D02*
D03*
X278500Y-648800D02*
D03*
X251500Y-530800D02*
D03*
Y-571300D02*
D03*
X-231500Y632700D02*
D03*
Y-39800D02*
D03*
Y41200D02*
D03*
Y470700D02*
D03*
Y511200D02*
D03*
Y430200D02*
D03*
Y308700D02*
D03*
Y162700D02*
D03*
Y-428800D02*
D03*
Y-469300D02*
D03*
Y700D02*
D03*
Y-161300D02*
D03*
Y-631300D02*
D03*
Y-307300D02*
D03*
Y-509800D02*
D03*
D106*
X-17000Y-207000D02*
D03*
X-52000Y-590000D02*
D03*
X723000Y-246000D02*
D03*
Y-254000D02*
D03*
Y-262000D02*
D03*
Y-270000D02*
D03*
Y-278000D02*
D03*
X686000D02*
D03*
Y-270000D02*
D03*
Y-262000D02*
D03*
Y-254000D02*
D03*
Y-246000D02*
D03*
X509000Y-163000D02*
D03*
Y-151000D02*
D03*
Y-139000D02*
D03*
X777000Y486000D02*
D03*
Y17000D02*
D03*
Y-453000D02*
D03*
X574000Y-181000D02*
D03*
Y-201000D02*
D03*
Y-221000D02*
D03*
Y-231000D02*
D03*
Y-241000D02*
D03*
Y-251000D02*
D03*
X523000Y-203000D02*
D03*
X515000D02*
D03*
X507000D02*
D03*
X536000Y-131000D02*
D03*
X529000D02*
D03*
X510000Y-254000D02*
D03*
Y-262000D02*
D03*
Y-270000D02*
D03*
X493000Y-293000D02*
D03*
X519000D02*
D03*
X511000D02*
D03*
X503000D02*
D03*
X567000Y-278000D02*
D03*
X559000D02*
D03*
X551000D02*
D03*
X567000Y-270000D02*
D03*
X559000D02*
D03*
X551000D02*
D03*
X537000Y-107000D02*
D03*
X530000D02*
D03*
X537000Y-120000D02*
D03*
X530000D02*
D03*
X749000Y-411000D02*
D03*
X741000D02*
D03*
X749000Y59000D02*
D03*
X741000D02*
D03*
Y529000D02*
D03*
X749000D02*
D03*
X769000Y472000D02*
D03*
Y3000D02*
D03*
Y-468000D02*
D03*
X-1099000Y342000D02*
D03*
X-1108000D02*
D03*
X-19000Y-686000D02*
D03*
X-42000Y-9000D02*
D03*
X-48000Y-3000D02*
D03*
X-49000Y201000D02*
D03*
X-32000Y195000D02*
D03*
X38000Y171000D02*
D03*
X29000Y113000D02*
D03*
X31000Y123000D02*
D03*
X21000Y-692000D02*
D03*
X39000Y-627000D02*
D03*
X45000Y-621000D02*
D03*
X37000Y-602000D02*
D03*
X18000Y-186000D02*
D03*
X16974Y-174244D02*
D03*
X14000Y-391000D02*
D03*
X16000Y-405000D02*
D03*
X-34000Y288000D02*
D03*
Y265000D02*
D03*
X-93500Y288000D02*
D03*
X-39000Y233000D02*
D03*
X-58000Y186000D02*
D03*
X-46000Y233000D02*
D03*
X-37000Y212000D02*
D03*
X-78000Y277000D02*
D03*
X1000Y-631000D02*
D03*
Y-623000D02*
D03*
Y-615000D02*
D03*
X78000Y-552000D02*
D03*
Y-544000D02*
D03*
Y-536000D02*
D03*
Y-528000D02*
D03*
X-31000Y-516000D02*
D03*
X-66000Y-705000D02*
D03*
X-54000Y-22000D02*
D03*
Y-31000D02*
D03*
X-53000Y-315000D02*
D03*
X-72000Y-479000D02*
D03*
X-41000Y-537000D02*
D03*
X-46213Y-525213D02*
D03*
X-60000Y-419000D02*
D03*
X-48000Y-43000D02*
D03*
X-40000Y-26000D02*
D03*
X8000Y-326000D02*
D03*
X-41000Y16000D02*
D03*
X-48000Y27000D02*
D03*
X-22000Y-258000D02*
D03*
X-182000Y285000D02*
D03*
X-216000Y200000D02*
D03*
X-200000Y236000D02*
D03*
Y200000D02*
D03*
X-298000Y247000D02*
D03*
Y239000D02*
D03*
X-991000Y392000D02*
D03*
X-333000Y293000D02*
D03*
X-1191000Y389000D02*
D03*
X-219000Y264000D02*
D03*
X-249000Y271000D02*
D03*
X-257000Y200000D02*
D03*
X-203000Y266000D02*
D03*
X-200000Y225000D02*
D03*
X-173000Y199000D02*
D03*
X-217000Y226000D02*
D03*
Y248000D02*
D03*
X-284000Y200000D02*
D03*
X-275000Y200000D02*
D03*
X-239000D02*
D03*
X-230000Y200000D02*
D03*
X-248000D02*
D03*
X-266000D02*
D03*
X-56000Y149000D02*
D03*
X-53000Y40000D02*
D03*
X-55000Y-740000D02*
D03*
Y-732000D02*
D03*
X-94000Y-756000D02*
D03*
Y-763000D02*
D03*
X-24000Y-201000D02*
D03*
Y-180000D02*
D03*
X-21000Y-171000D02*
D03*
X35000Y-229000D02*
D03*
X0Y91000D02*
D03*
X29000Y281000D02*
D03*
X13000Y149000D02*
D03*
X18000Y156000D02*
D03*
X24000Y162000D02*
D03*
X-1000Y99000D02*
D03*
X-15000D02*
D03*
X-52000Y109000D02*
D03*
X69000Y-23000D02*
D03*
X-40000Y656000D02*
D03*
X-25000Y-654000D02*
D03*
X37000Y245000D02*
D03*
X68000Y-318000D02*
D03*
Y-310000D02*
D03*
X65000Y-247000D02*
D03*
X-19000Y-664000D02*
D03*
X-279000Y481000D02*
D03*
Y-458000D02*
D03*
Y11000D02*
D03*
X-182000Y697000D02*
D03*
X47000Y-316000D02*
D03*
X251000Y15000D02*
D03*
X283500Y-515000D02*
D03*
Y-44000D02*
D03*
Y425000D02*
D03*
X-209000Y636000D02*
D03*
X-207000Y589000D02*
D03*
Y597000D02*
D03*
X-203000Y534850D02*
D03*
X-202000Y727000D02*
D03*
Y744000D02*
D03*
X-199000Y589000D02*
D03*
Y597000D02*
D03*
X-198000Y417000D02*
D03*
Y425000D02*
D03*
Y433000D02*
D03*
Y441000D02*
D03*
X-191000Y710000D02*
D03*
X-190000Y496000D02*
D03*
Y504000D02*
D03*
Y511000D02*
D03*
X-243000Y-552000D02*
D03*
Y-544000D02*
D03*
Y-536000D02*
D03*
X-198000Y-499000D02*
D03*
Y-515000D02*
D03*
Y-507000D02*
D03*
X-225000Y-612000D02*
D03*
X-217000D02*
D03*
X-216000Y-587000D02*
D03*
Y-580000D02*
D03*
X-208000Y-595000D02*
D03*
X-198000Y-523000D02*
D03*
Y-37000D02*
D03*
Y-53000D02*
D03*
X-225000Y-142000D02*
D03*
X-217000D02*
D03*
X-216000Y-110000D02*
D03*
Y-117000D02*
D03*
X-208000Y-125000D02*
D03*
X-189000Y-523000D02*
D03*
Y-515000D02*
D03*
Y-507000D02*
D03*
Y-499000D02*
D03*
X-186000Y-563000D02*
D03*
X-183000Y-596000D02*
D03*
X-182000Y-569000D02*
D03*
Y-613000D02*
D03*
X-173000Y-629000D02*
D03*
X-166000D02*
D03*
X-163000Y-484000D02*
D03*
Y-477000D02*
D03*
Y-470000D02*
D03*
Y-463000D02*
D03*
X-155000Y-484000D02*
D03*
Y-477000D02*
D03*
X-198000Y-45000D02*
D03*
X-190000Y-444000D02*
D03*
Y-436000D02*
D03*
Y-429000D02*
D03*
X-189000Y-29000D02*
D03*
Y-45000D02*
D03*
Y-37000D02*
D03*
Y-53000D02*
D03*
X-186000Y-93000D02*
D03*
X-184000Y-126000D02*
D03*
X-183000Y-294000D02*
D03*
X-182000Y-143000D02*
D03*
Y-99000D02*
D03*
X-173000Y-159000D02*
D03*
X-166000D02*
D03*
X-153000Y-366000D02*
D03*
X-225000Y328000D02*
D03*
X-217000D02*
D03*
X-216000Y353000D02*
D03*
Y360000D02*
D03*
X-209000Y166000D02*
D03*
X-208000Y345000D02*
D03*
X-207000Y119000D02*
D03*
Y127000D02*
D03*
X-199000D02*
D03*
Y119000D02*
D03*
X-190000Y41000D02*
D03*
Y34000D02*
D03*
X-186000Y377000D02*
D03*
X-184000Y344000D02*
D03*
X-183000Y176000D02*
D03*
X-182000Y327000D02*
D03*
Y371000D02*
D03*
X-173000Y311000D02*
D03*
X-166000D02*
D03*
X-163000Y-14000D02*
D03*
Y7000D02*
D03*
Y0D02*
D03*
Y-7000D02*
D03*
X-155000Y-14000D02*
D03*
Y-7000D02*
D03*
Y0D02*
D03*
X-199000Y-343000D02*
D03*
X-209000Y-304000D02*
D03*
X-207000Y-351000D02*
D03*
Y-343000D02*
D03*
X-203000Y-405150D02*
D03*
X-199000Y-351000D02*
D03*
X-198000Y-29000D02*
D03*
X-190000Y26000D02*
D03*
X-203000Y64850D02*
D03*
X-41000Y-54000D02*
D03*
X-42000Y-46000D02*
D03*
X-54000D02*
D03*
Y-39000D02*
D03*
X-26000Y-729000D02*
D03*
Y-722000D02*
D03*
X-20595Y-711405D02*
D03*
X-11000Y-679000D02*
D03*
X-51000Y-619000D02*
D03*
X-44000D02*
D03*
X-51000Y-612000D02*
D03*
X-44000D02*
D03*
X-54000Y-545000D02*
D03*
Y-510000D02*
D03*
X-25000Y-464000D02*
D03*
X-17000Y-458000D02*
D03*
X-29000Y-451000D02*
D03*
X-25000Y-407000D02*
D03*
X-19000Y-385000D02*
D03*
X-23000Y-293000D02*
D03*
X-36000Y-373000D02*
D03*
Y-365000D02*
D03*
X-19000Y-358000D02*
D03*
X-37480Y-355466D02*
D03*
X-16000Y-350000D02*
D03*
X-21000Y-344000D02*
D03*
X-40000Y-329000D02*
D03*
X-26000Y-373000D02*
D03*
X-23000Y-280000D02*
D03*
X-37000Y-336000D02*
D03*
X-24000Y-229000D02*
D03*
X-47000D02*
D03*
Y-220000D02*
D03*
Y-211000D02*
D03*
X-53000Y-152000D02*
D03*
X-13000Y-144000D02*
D03*
X-53000Y-138000D02*
D03*
Y-145000D02*
D03*
X-53500Y-118549D02*
D03*
X-42000Y-258000D02*
D03*
X-54000Y-108000D02*
D03*
X-20000Y-99000D02*
D03*
X-54000Y-98000D02*
D03*
Y-91000D02*
D03*
X-41000Y-82000D02*
D03*
Y-75000D02*
D03*
Y-68000D02*
D03*
Y-61000D02*
D03*
X-54000Y117000D02*
D03*
X-33000Y137000D02*
D03*
X-1000Y132000D02*
D03*
X-12000Y144000D02*
D03*
X-25000Y143000D02*
D03*
X45000Y9000D02*
D03*
X40000Y15000D02*
D03*
X12000Y21000D02*
D03*
X40000Y23000D02*
D03*
X13000Y31000D02*
D03*
Y40000D02*
D03*
X12000Y48000D02*
D03*
X6000Y62000D02*
D03*
X13000D02*
D03*
X6000Y69000D02*
D03*
X13000D02*
D03*
X59767Y69602D02*
D03*
X13000Y76000D02*
D03*
X6000D02*
D03*
X10000Y82000D02*
D03*
X57000Y97000D02*
D03*
Y104000D02*
D03*
X50000D02*
D03*
X42000Y182000D02*
D03*
Y189000D02*
D03*
X37000Y212000D02*
D03*
X58000Y214000D02*
D03*
X1000Y217000D02*
D03*
X37000Y219000D02*
D03*
X58000Y224000D02*
D03*
X-45000Y269000D02*
D03*
Y255000D02*
D03*
Y262000D02*
D03*
X-44000Y320000D02*
D03*
X-51000D02*
D03*
Y327000D02*
D03*
X-44000D02*
D03*
X-53500Y351451D02*
D03*
X-54000Y415000D02*
D03*
Y422000D02*
D03*
Y429000D02*
D03*
Y436000D02*
D03*
X-17000Y557000D02*
D03*
X-38000Y579000D02*
D03*
X-53000Y587000D02*
D03*
X-12000Y591000D02*
D03*
X-54000Y750000D02*
D03*
Y647000D02*
D03*
X-49000Y727000D02*
D03*
X-47000Y750000D02*
D03*
X-40000D02*
D03*
X41000Y228000D02*
D03*
X37000Y238000D02*
D03*
X1000Y343000D02*
D03*
X59000Y260000D02*
D03*
X24000D02*
D03*
X18000Y268000D02*
D03*
X50000Y271000D02*
D03*
X13000Y274000D02*
D03*
X59000Y293000D02*
D03*
X45000Y295000D02*
D03*
X43000Y306000D02*
D03*
Y314000D02*
D03*
X34000Y323000D02*
D03*
X-5000Y337000D02*
D03*
X59000Y347000D02*
D03*
Y354000D02*
D03*
X10000Y540000D02*
D03*
X2000Y547000D02*
D03*
X-4000Y564000D02*
D03*
X51000Y566000D02*
D03*
X58000D02*
D03*
X1000Y570000D02*
D03*
X51000Y573000D02*
D03*
X58000D02*
D03*
X28000Y599000D02*
D03*
Y607000D02*
D03*
Y615000D02*
D03*
X36595Y641405D02*
D03*
X42000Y652000D02*
D03*
Y659000D02*
D03*
X79000Y142000D02*
D03*
X60000Y59000D02*
D03*
Y48000D02*
D03*
Y41000D02*
D03*
X80000Y105000D02*
D03*
X79000Y149000D02*
D03*
X60000Y281000D02*
D03*
X88000Y3000D02*
D03*
Y10000D02*
D03*
Y17000D02*
D03*
Y-4000D02*
D03*
Y24000D02*
D03*
Y31000D02*
D03*
X158000Y285000D02*
D03*
Y292000D02*
D03*
X199000Y-6000D02*
D03*
X208000D02*
D03*
X199000Y2000D02*
D03*
X208000D02*
D03*
X199000Y10000D02*
D03*
X208000D02*
D03*
X251000Y23000D02*
D03*
Y31000D02*
D03*
Y39000D02*
D03*
X214000Y75000D02*
D03*
X191000Y47000D02*
D03*
X223000Y61000D02*
D03*
Y67000D02*
D03*
X190000Y75000D02*
D03*
X223000Y91000D02*
D03*
X230000D02*
D03*
X190000Y109000D02*
D03*
X188000Y234000D02*
D03*
X214000Y244000D02*
D03*
X203000Y284000D02*
D03*
Y292000D02*
D03*
X158000Y299000D02*
D03*
Y306000D02*
D03*
X224000Y321500D02*
D03*
X230000Y561000D02*
D03*
X160000Y420000D02*
D03*
X168000D02*
D03*
X160000Y428000D02*
D03*
X168000D02*
D03*
X160000Y436000D02*
D03*
X168000D02*
D03*
X199000Y456000D02*
D03*
Y464000D02*
D03*
Y472000D02*
D03*
Y480000D02*
D03*
X223000Y561000D02*
D03*
X61000Y496000D02*
D03*
Y503000D02*
D03*
Y510000D02*
D03*
Y517000D02*
D03*
X191000D02*
D03*
X61000Y528000D02*
D03*
X60767Y538602D02*
D03*
X190000Y545000D02*
D03*
X72000Y573000D02*
D03*
X80000D02*
D03*
X190000Y579000D02*
D03*
X75000Y612000D02*
D03*
X87000D02*
D03*
X63000Y685000D02*
D03*
X208000Y370000D02*
D03*
X215000D02*
D03*
X214000Y545000D02*
D03*
X208000Y456000D02*
D03*
Y464000D02*
D03*
Y472000D02*
D03*
Y480000D02*
D03*
X251000Y485000D02*
D03*
Y493000D02*
D03*
Y501000D02*
D03*
Y509000D02*
D03*
X223000Y537000D02*
D03*
Y531000D02*
D03*
X61000Y461000D02*
D03*
Y468000D02*
D03*
Y475000D02*
D03*
Y482000D02*
D03*
Y489000D02*
D03*
X-15000Y613000D02*
D03*
X-18000Y626000D02*
D03*
X-11000Y632000D02*
D03*
X-36000Y665000D02*
D03*
X-30895Y689500D02*
D03*
X-31000Y711000D02*
D03*
Y723000D02*
D03*
Y730000D02*
D03*
Y737000D02*
D03*
X-33000Y750000D02*
D03*
X-13000Y-1000D02*
D03*
X-39000Y3000D02*
D03*
X-243000Y-560000D02*
D03*
Y-82000D02*
D03*
Y-90000D02*
D03*
Y-66000D02*
D03*
Y-74000D02*
D03*
X-155000Y-470000D02*
D03*
Y-463000D02*
D03*
X-83000Y-661000D02*
D03*
Y-623000D02*
D03*
X-76000D02*
D03*
X-75000Y-661000D02*
D03*
X-54000Y-531000D02*
D03*
Y-578000D02*
D03*
Y-538000D02*
D03*
Y-559000D02*
D03*
Y-524000D02*
D03*
Y-566000D02*
D03*
Y-517000D02*
D03*
X-153000Y-359000D02*
D03*
Y-352000D02*
D03*
Y-345000D02*
D03*
X-83000Y-154000D02*
D03*
Y-192000D02*
D03*
X-76000Y-154000D02*
D03*
X-75000Y-192000D02*
D03*
X-74000Y-418000D02*
D03*
Y-411000D02*
D03*
X-55000Y-352000D02*
D03*
Y-285000D02*
D03*
Y-292000D02*
D03*
X-243000Y380000D02*
D03*
Y388000D02*
D03*
Y404000D02*
D03*
Y396000D02*
D03*
X-155000Y7000D02*
D03*
X-153000Y104000D02*
D03*
Y111000D02*
D03*
Y125000D02*
D03*
Y118000D02*
D03*
X-83000Y316000D02*
D03*
X-76000D02*
D03*
X-71000Y277000D02*
D03*
X-73000Y57000D02*
D03*
Y50000D02*
D03*
X-70000Y-18000D02*
D03*
X-55467Y176387D02*
D03*
X-54000Y362000D02*
D03*
Y373000D02*
D03*
X-189000Y417000D02*
D03*
Y425000D02*
D03*
Y433000D02*
D03*
Y441000D02*
D03*
Y673000D02*
D03*
X-187000Y747000D02*
D03*
X-183000Y646000D02*
D03*
X-181000Y673000D02*
D03*
X-163000Y456000D02*
D03*
Y463000D02*
D03*
Y470000D02*
D03*
Y477000D02*
D03*
X-155000Y456000D02*
D03*
Y463000D02*
D03*
Y470000D02*
D03*
Y477000D02*
D03*
X-153000Y581000D02*
D03*
Y595000D02*
D03*
Y588000D02*
D03*
Y574000D02*
D03*
X-75000Y663000D02*
D03*
Y654000D02*
D03*
X-74000Y527000D02*
D03*
X-67000Y654000D02*
D03*
Y663000D02*
D03*
X-63000Y527000D02*
D03*
X-57000Y710000D02*
D03*
X-54000Y380000D02*
D03*
Y387000D02*
D03*
Y394000D02*
D03*
Y401000D02*
D03*
Y408000D02*
D03*
X61000Y-714000D02*
D03*
X53000D02*
D03*
X188000Y-706000D02*
D03*
X158000Y-655000D02*
D03*
Y-648000D02*
D03*
X60000Y-645000D02*
D03*
X158000Y-641000D02*
D03*
Y-634000D02*
D03*
X60000Y-594000D02*
D03*
Y-587000D02*
D03*
X160000Y-520000D02*
D03*
X168000D02*
D03*
X160000Y-512000D02*
D03*
X168000D02*
D03*
X160000Y-504000D02*
D03*
X168000D02*
D03*
X7000Y-738000D02*
D03*
X14918Y-685082D02*
D03*
X8000Y-673000D02*
D03*
X28000Y-658000D02*
D03*
X43000Y-638000D02*
D03*
X8000Y-417000D02*
D03*
X2000Y-595000D02*
D03*
X21000Y-488000D02*
D03*
X15000Y-478000D02*
D03*
X37000Y-449000D02*
D03*
X8000Y-438000D02*
D03*
X-5000Y-601000D02*
D03*
X-3000Y-415000D02*
D03*
X6940Y-396211D02*
D03*
X1000Y-391000D02*
D03*
X-0Y-383000D02*
D03*
X14000D02*
D03*
X6000Y-361000D02*
D03*
X19000Y-327000D02*
D03*
X26000Y-319000D02*
D03*
X31000Y-311701D02*
D03*
X36595Y-298595D02*
D03*
X42000Y-288000D02*
D03*
Y-281000D02*
D03*
X37000Y-237000D02*
D03*
X10000Y-235000D02*
D03*
Y-229000D02*
D03*
Y-223000D02*
D03*
X34000Y-220000D02*
D03*
X10000Y-217000D02*
D03*
X29000Y-197000D02*
D03*
X23000Y-192000D02*
D03*
X-4082Y-191821D02*
D03*
X-4690Y-184000D02*
D03*
X-2000Y-176000D02*
D03*
X31000Y-173000D02*
D03*
X-3000Y-136000D02*
D03*
X-13000Y-10000D02*
D03*
X-12000Y-68000D02*
D03*
Y-61000D02*
D03*
Y-54000D02*
D03*
X-0Y-42000D02*
D03*
X-13000Y-35000D02*
D03*
X-12000Y-27000D02*
D03*
Y-18000D02*
D03*
X60000Y-486000D02*
D03*
Y-479000D02*
D03*
Y-472000D02*
D03*
Y-465000D02*
D03*
Y-458000D02*
D03*
Y-451000D02*
D03*
Y-444000D02*
D03*
Y-437000D02*
D03*
Y-430000D02*
D03*
Y-423000D02*
D03*
Y-412000D02*
D03*
X59767Y-401398D02*
D03*
X52000Y-374000D02*
D03*
X59000D02*
D03*
X72000Y-367000D02*
D03*
X80000D02*
D03*
X208000Y-476000D02*
D03*
X214000Y-696000D02*
D03*
X203000Y-656000D02*
D03*
Y-648000D02*
D03*
X224000Y-618500D02*
D03*
X199000Y-476000D02*
D03*
X208000Y-570000D02*
D03*
X215000D02*
D03*
X199000Y-484000D02*
D03*
X208000D02*
D03*
X199000Y-468000D02*
D03*
X208000D02*
D03*
X199000Y-460000D02*
D03*
X208000D02*
D03*
X251000Y-455000D02*
D03*
Y-447000D02*
D03*
Y-439000D02*
D03*
Y-431000D02*
D03*
X230000Y-379000D02*
D03*
X191000Y-423000D02*
D03*
X223000Y-409000D02*
D03*
Y-403000D02*
D03*
X190000Y-395000D02*
D03*
X214000D02*
D03*
X223000Y-379000D02*
D03*
X59000Y-367000D02*
D03*
X52000D02*
D03*
X72000Y-329000D02*
D03*
X50000Y-264000D02*
D03*
X57000Y-259000D02*
D03*
X65000Y-256000D02*
D03*
X48000Y-253000D02*
D03*
X54000Y-248000D02*
D03*
X60000Y-239000D02*
D03*
X59000Y-222000D02*
D03*
X55000Y-215000D02*
D03*
X59000Y-196000D02*
D03*
Y-188000D02*
D03*
Y-177000D02*
D03*
X-3000Y-128000D02*
D03*
X2000Y-117000D02*
D03*
X-12000Y-96000D02*
D03*
Y-89000D02*
D03*
X48000Y-84000D02*
D03*
X-12000Y-82000D02*
D03*
X48000Y-77000D02*
D03*
X-12000Y-75000D02*
D03*
X190000Y-361000D02*
D03*
X80000Y-329000D02*
D03*
X188000Y-236000D02*
D03*
X224000Y-148500D02*
D03*
X214000Y-226000D02*
D03*
X203000Y-186000D02*
D03*
X158000Y-185000D02*
D03*
Y-178000D02*
D03*
X203000D02*
D03*
X158000Y-171000D02*
D03*
Y-164000D02*
D03*
X89000Y-122000D02*
D03*
Y-115000D02*
D03*
X88000Y-11000D02*
D03*
X208000Y-100000D02*
D03*
X215000D02*
D03*
X160000Y-50000D02*
D03*
X168000D02*
D03*
X160000Y-42000D02*
D03*
X168000D02*
D03*
X160000Y-34000D02*
D03*
X168000D02*
D03*
X199000Y-14000D02*
D03*
X208000D02*
D03*
X58000Y-169000D02*
D03*
X54000Y-161000D02*
D03*
Y-153000D02*
D03*
X52000Y-131000D02*
D03*
X48000Y-119000D02*
D03*
Y-112000D02*
D03*
Y-105000D02*
D03*
Y-98000D02*
D03*
Y-91000D02*
D03*
Y-70000D02*
D03*
Y-63000D02*
D03*
X51000Y-51000D02*
D03*
X56000Y-19000D02*
D03*
X63000Y-47000D02*
D03*
X57000Y-38000D02*
D03*
X-542000Y-715000D02*
D03*
X-519000Y-727000D02*
D03*
Y-715000D02*
D03*
X-679000Y-756000D02*
D03*
X-688000D02*
D03*
X-697000D02*
D03*
X-706000D02*
D03*
X-715000D02*
D03*
X-680000Y-738000D02*
D03*
X-689000D02*
D03*
X-793600Y-676000D02*
D03*
X-825000Y-756000D02*
D03*
X-816000D02*
D03*
X-807000D02*
D03*
X-798000D02*
D03*
X-789000D02*
D03*
X-1137000Y-664000D02*
D03*
X-668000Y741000D02*
D03*
X-675000D02*
D03*
X-661000D02*
D03*
X-882000Y516875D02*
D03*
Y523875D02*
D03*
Y530875D02*
D03*
Y537875D02*
D03*
X-889000Y516875D02*
D03*
Y523875D02*
D03*
Y530875D02*
D03*
Y537875D02*
D03*
X-896000D02*
D03*
Y530875D02*
D03*
Y523875D02*
D03*
Y516875D02*
D03*
X-903000Y523875D02*
D03*
Y530875D02*
D03*
Y537875D02*
D03*
Y516875D02*
D03*
X-882000Y544875D02*
D03*
X-889000D02*
D03*
X-896000D02*
D03*
X-903000D02*
D03*
X-910000D02*
D03*
Y537875D02*
D03*
Y530875D02*
D03*
Y523875D02*
D03*
Y516875D02*
D03*
X-1026000Y516875D02*
D03*
Y523875D02*
D03*
Y530875D02*
D03*
Y537875D02*
D03*
X-1033000Y516875D02*
D03*
Y523875D02*
D03*
Y530875D02*
D03*
Y537875D02*
D03*
X-1040000D02*
D03*
Y530875D02*
D03*
Y523875D02*
D03*
Y516875D02*
D03*
X-1047000Y523875D02*
D03*
Y530875D02*
D03*
Y537875D02*
D03*
Y516875D02*
D03*
X-1026000Y544875D02*
D03*
X-1033000D02*
D03*
X-1040000D02*
D03*
X-1047000D02*
D03*
X-1054000D02*
D03*
Y537875D02*
D03*
Y530875D02*
D03*
Y523875D02*
D03*
Y516875D02*
D03*
X-1170000Y516875D02*
D03*
Y523875D02*
D03*
Y530875D02*
D03*
Y537875D02*
D03*
X-1177000Y516875D02*
D03*
Y523875D02*
D03*
Y530875D02*
D03*
Y537875D02*
D03*
X-1184000D02*
D03*
Y530875D02*
D03*
Y523875D02*
D03*
Y516875D02*
D03*
X-1191000Y523875D02*
D03*
Y530875D02*
D03*
Y537875D02*
D03*
Y516875D02*
D03*
X-1170000Y544875D02*
D03*
X-1177000D02*
D03*
X-1184000D02*
D03*
X-1191000D02*
D03*
X-1198000D02*
D03*
Y537875D02*
D03*
Y530875D02*
D03*
Y523875D02*
D03*
Y516875D02*
D03*
M02*
