G04*
G04 #@! TF.GenerationSoftware,Altium Limited,Altium Designer,24.9.1 (31)*
G04*
G04 Layer_Color=16711935*
%FSLAX44Y44*%
%MOMM*%
G71*
G04*
G04 #@! TF.SameCoordinates,25B5EA7A-0A89-4A72-9C9E-8463CCD4450D*
G04*
G04*
G04 #@! TF.FilePolarity,Positive*
G04*
G01*
G75*
%ADD106C,0.6000*%
D106*
X-661000Y741000D02*
D03*
X-675000D02*
D03*
X-668000D02*
D03*
X-789000Y-756000D02*
D03*
X-798000D02*
D03*
X-807000D02*
D03*
X-816000D02*
D03*
X-825000D02*
D03*
X-715000D02*
D03*
X-706000D02*
D03*
X-697000D02*
D03*
X-688000D02*
D03*
X-679000D02*
D03*
X57000Y-38000D02*
D03*
X63000Y-47000D02*
D03*
X56000Y-19000D02*
D03*
X51000Y-51000D02*
D03*
X48000Y-63000D02*
D03*
Y-70000D02*
D03*
Y-91000D02*
D03*
Y-98000D02*
D03*
Y-105000D02*
D03*
Y-112000D02*
D03*
Y-119000D02*
D03*
X52000Y-131000D02*
D03*
X54000Y-153000D02*
D03*
Y-161000D02*
D03*
X58000Y-169000D02*
D03*
X208000Y-14000D02*
D03*
X199000D02*
D03*
X168000Y-34000D02*
D03*
X160000D02*
D03*
X168000Y-42000D02*
D03*
X160000D02*
D03*
X168000Y-50000D02*
D03*
X160000D02*
D03*
X215000Y-100000D02*
D03*
X208000D02*
D03*
X88000Y-11000D02*
D03*
X89000Y-115000D02*
D03*
Y-122000D02*
D03*
X158000Y-164000D02*
D03*
Y-171000D02*
D03*
X203000Y-178000D02*
D03*
X158000D02*
D03*
Y-185000D02*
D03*
X203000Y-186000D02*
D03*
X214000Y-226000D02*
D03*
X224000Y-148500D02*
D03*
X188000Y-236000D02*
D03*
X80000Y-329000D02*
D03*
X190000Y-361000D02*
D03*
X-12000Y-75000D02*
D03*
X48000Y-77000D02*
D03*
X-12000Y-82000D02*
D03*
X48000Y-84000D02*
D03*
X-12000Y-89000D02*
D03*
Y-96000D02*
D03*
X2000Y-117000D02*
D03*
X-3000Y-128000D02*
D03*
X59000Y-177000D02*
D03*
Y-188000D02*
D03*
Y-196000D02*
D03*
X55000Y-215000D02*
D03*
X59000Y-222000D02*
D03*
X60000Y-239000D02*
D03*
X54000Y-248000D02*
D03*
X48000Y-253000D02*
D03*
X65000Y-256000D02*
D03*
X57000Y-259000D02*
D03*
X50000Y-264000D02*
D03*
X72000Y-329000D02*
D03*
X52000Y-367000D02*
D03*
X59000D02*
D03*
X223000Y-379000D02*
D03*
X214000Y-395000D02*
D03*
X190000D02*
D03*
X223000Y-403000D02*
D03*
Y-409000D02*
D03*
X191000Y-423000D02*
D03*
X230000Y-379000D02*
D03*
X251000Y-431000D02*
D03*
Y-439000D02*
D03*
Y-447000D02*
D03*
Y-455000D02*
D03*
X208000Y-460000D02*
D03*
X199000D02*
D03*
X208000Y-468000D02*
D03*
X199000D02*
D03*
X208000Y-484000D02*
D03*
X199000D02*
D03*
X215000Y-570000D02*
D03*
X208000D02*
D03*
X199000Y-476000D02*
D03*
X224000Y-618500D02*
D03*
X203000Y-648000D02*
D03*
Y-656000D02*
D03*
X214000Y-696000D02*
D03*
X208000Y-476000D02*
D03*
X80000Y-367000D02*
D03*
X72000D02*
D03*
X59000Y-374000D02*
D03*
X52000D02*
D03*
X59767Y-401398D02*
D03*
X60000Y-412000D02*
D03*
Y-423000D02*
D03*
Y-430000D02*
D03*
Y-437000D02*
D03*
Y-444000D02*
D03*
Y-451000D02*
D03*
Y-458000D02*
D03*
Y-465000D02*
D03*
Y-472000D02*
D03*
Y-479000D02*
D03*
Y-486000D02*
D03*
X-12000Y-18000D02*
D03*
Y-27000D02*
D03*
X-13000Y-35000D02*
D03*
X-0Y-42000D02*
D03*
X-12000Y-54000D02*
D03*
Y-61000D02*
D03*
Y-68000D02*
D03*
X-13000Y-10000D02*
D03*
X-3000Y-136000D02*
D03*
X31000Y-173000D02*
D03*
X-2000Y-176000D02*
D03*
X-4690Y-184000D02*
D03*
X-4082Y-191821D02*
D03*
X23000Y-192000D02*
D03*
X29000Y-197000D02*
D03*
X10000Y-217000D02*
D03*
X34000Y-220000D02*
D03*
X10000Y-223000D02*
D03*
Y-229000D02*
D03*
Y-235000D02*
D03*
X37000Y-237000D02*
D03*
X42000Y-281000D02*
D03*
Y-288000D02*
D03*
X36595Y-298595D02*
D03*
X31000Y-311701D02*
D03*
X26000Y-319000D02*
D03*
X19000Y-327000D02*
D03*
X6000Y-361000D02*
D03*
X14000Y-383000D02*
D03*
X-0D02*
D03*
X1000Y-391000D02*
D03*
X6940Y-396211D02*
D03*
X-3000Y-415000D02*
D03*
X-5000Y-601000D02*
D03*
X8000Y-438000D02*
D03*
X37000Y-449000D02*
D03*
X15000Y-478000D02*
D03*
X21000Y-488000D02*
D03*
X2000Y-595000D02*
D03*
X8000Y-417000D02*
D03*
X43000Y-638000D02*
D03*
X28000Y-658000D02*
D03*
X8000Y-673000D02*
D03*
X14918Y-685082D02*
D03*
X7000Y-738000D02*
D03*
X168000Y-504000D02*
D03*
X160000D02*
D03*
X168000Y-512000D02*
D03*
X160000D02*
D03*
X168000Y-520000D02*
D03*
X160000D02*
D03*
X60000Y-587000D02*
D03*
Y-594000D02*
D03*
X158000Y-634000D02*
D03*
Y-641000D02*
D03*
X60000Y-645000D02*
D03*
X158000Y-648000D02*
D03*
Y-655000D02*
D03*
X188000Y-706000D02*
D03*
X53000Y-714000D02*
D03*
X61000D02*
D03*
X-54000Y408000D02*
D03*
Y401000D02*
D03*
Y394000D02*
D03*
Y387000D02*
D03*
Y380000D02*
D03*
X-57000Y710000D02*
D03*
X-63000Y527000D02*
D03*
X-67000Y663000D02*
D03*
Y654000D02*
D03*
X-74000Y527000D02*
D03*
X-75000Y654000D02*
D03*
Y663000D02*
D03*
X-153000Y574000D02*
D03*
Y588000D02*
D03*
Y595000D02*
D03*
Y581000D02*
D03*
X-155000Y477000D02*
D03*
Y470000D02*
D03*
Y463000D02*
D03*
Y456000D02*
D03*
X-163000Y477000D02*
D03*
Y470000D02*
D03*
Y463000D02*
D03*
Y456000D02*
D03*
X-181000Y673000D02*
D03*
X-183000Y646000D02*
D03*
X-187000Y747000D02*
D03*
X-189000Y673000D02*
D03*
Y441000D02*
D03*
Y433000D02*
D03*
Y425000D02*
D03*
Y417000D02*
D03*
X-54000Y373000D02*
D03*
Y362000D02*
D03*
X-55467Y176387D02*
D03*
X-70000Y-18000D02*
D03*
X-73000Y50000D02*
D03*
Y57000D02*
D03*
X-71000Y277000D02*
D03*
X-76000Y316000D02*
D03*
X-83000D02*
D03*
X-153000Y118000D02*
D03*
Y125000D02*
D03*
Y111000D02*
D03*
Y104000D02*
D03*
X-155000Y7000D02*
D03*
X-243000Y396000D02*
D03*
Y404000D02*
D03*
Y388000D02*
D03*
Y380000D02*
D03*
X-55000Y-292000D02*
D03*
Y-285000D02*
D03*
Y-352000D02*
D03*
X-74000Y-411000D02*
D03*
Y-418000D02*
D03*
X-75000Y-192000D02*
D03*
X-76000Y-154000D02*
D03*
X-83000Y-192000D02*
D03*
Y-154000D02*
D03*
X-153000Y-345000D02*
D03*
Y-352000D02*
D03*
Y-359000D02*
D03*
X-54000Y-517000D02*
D03*
Y-566000D02*
D03*
Y-524000D02*
D03*
Y-559000D02*
D03*
Y-538000D02*
D03*
Y-578000D02*
D03*
Y-531000D02*
D03*
X-75000Y-661000D02*
D03*
X-76000Y-623000D02*
D03*
X-83000D02*
D03*
Y-661000D02*
D03*
X-155000Y-463000D02*
D03*
Y-470000D02*
D03*
X-243000Y-74000D02*
D03*
Y-66000D02*
D03*
Y-90000D02*
D03*
Y-82000D02*
D03*
Y-560000D02*
D03*
X-39000Y3000D02*
D03*
X-13000Y-1000D02*
D03*
X-33000Y750000D02*
D03*
X-31000Y737000D02*
D03*
Y730000D02*
D03*
Y723000D02*
D03*
Y711000D02*
D03*
X-30895Y689500D02*
D03*
X-36000Y665000D02*
D03*
X-11000Y632000D02*
D03*
X-18000Y626000D02*
D03*
X-15000Y613000D02*
D03*
X61000Y489000D02*
D03*
Y482000D02*
D03*
Y475000D02*
D03*
Y468000D02*
D03*
Y461000D02*
D03*
X223000Y531000D02*
D03*
Y537000D02*
D03*
X251000Y509000D02*
D03*
Y501000D02*
D03*
Y493000D02*
D03*
Y485000D02*
D03*
X208000Y480000D02*
D03*
Y472000D02*
D03*
Y464000D02*
D03*
Y456000D02*
D03*
X214000Y545000D02*
D03*
X215000Y370000D02*
D03*
X208000D02*
D03*
X63000Y685000D02*
D03*
X87000Y612000D02*
D03*
X75000D02*
D03*
X190000Y579000D02*
D03*
X80000Y573000D02*
D03*
X72000D02*
D03*
X190000Y545000D02*
D03*
X60767Y538602D02*
D03*
X61000Y528000D02*
D03*
X191000Y517000D02*
D03*
X61000D02*
D03*
Y510000D02*
D03*
Y503000D02*
D03*
Y496000D02*
D03*
X223000Y561000D02*
D03*
X199000Y480000D02*
D03*
Y472000D02*
D03*
Y464000D02*
D03*
Y456000D02*
D03*
X168000Y436000D02*
D03*
X160000D02*
D03*
X168000Y428000D02*
D03*
X160000D02*
D03*
X168000Y420000D02*
D03*
X160000D02*
D03*
X230000Y561000D02*
D03*
X224000Y321500D02*
D03*
X158000Y306000D02*
D03*
Y299000D02*
D03*
X203000Y292000D02*
D03*
Y284000D02*
D03*
X214000Y244000D02*
D03*
X188000Y234000D02*
D03*
X190000Y109000D02*
D03*
X230000Y91000D02*
D03*
X223000D02*
D03*
X190000Y75000D02*
D03*
X223000Y67000D02*
D03*
Y61000D02*
D03*
X191000Y47000D02*
D03*
X214000Y75000D02*
D03*
X251000Y39000D02*
D03*
Y31000D02*
D03*
Y23000D02*
D03*
X208000Y10000D02*
D03*
X199000D02*
D03*
X208000Y2000D02*
D03*
X199000D02*
D03*
X208000Y-6000D02*
D03*
X199000D02*
D03*
X158000Y292000D02*
D03*
Y285000D02*
D03*
X88000Y31000D02*
D03*
Y24000D02*
D03*
Y-4000D02*
D03*
Y17000D02*
D03*
Y10000D02*
D03*
Y3000D02*
D03*
X60000Y281000D02*
D03*
X79000Y149000D02*
D03*
X80000Y105000D02*
D03*
X60000Y41000D02*
D03*
Y48000D02*
D03*
Y59000D02*
D03*
X79000Y142000D02*
D03*
X42000Y659000D02*
D03*
Y652000D02*
D03*
X36595Y641405D02*
D03*
X28000Y615000D02*
D03*
Y607000D02*
D03*
Y599000D02*
D03*
X58000Y573000D02*
D03*
X51000D02*
D03*
X1000Y570000D02*
D03*
X58000Y566000D02*
D03*
X51000D02*
D03*
X-4000Y564000D02*
D03*
X2000Y547000D02*
D03*
X10000Y540000D02*
D03*
X59000Y354000D02*
D03*
Y347000D02*
D03*
X-5000Y337000D02*
D03*
X34000Y323000D02*
D03*
X43000Y314000D02*
D03*
Y306000D02*
D03*
X45000Y295000D02*
D03*
X59000Y293000D02*
D03*
X13000Y274000D02*
D03*
X50000Y271000D02*
D03*
X18000Y268000D02*
D03*
X24000Y260000D02*
D03*
X59000D02*
D03*
X1000Y343000D02*
D03*
X37000Y238000D02*
D03*
X41000Y228000D02*
D03*
X-40000Y750000D02*
D03*
X-47000D02*
D03*
X-49000Y727000D02*
D03*
X-54000Y647000D02*
D03*
Y750000D02*
D03*
X-12000Y591000D02*
D03*
X-53000Y587000D02*
D03*
X-38000Y579000D02*
D03*
X-17000Y557000D02*
D03*
X-54000Y436000D02*
D03*
Y429000D02*
D03*
Y422000D02*
D03*
Y415000D02*
D03*
X-53500Y351451D02*
D03*
X-44000Y327000D02*
D03*
X-51000D02*
D03*
Y320000D02*
D03*
X-44000D02*
D03*
X-45000Y262000D02*
D03*
Y255000D02*
D03*
Y269000D02*
D03*
X58000Y224000D02*
D03*
X37000Y219000D02*
D03*
X1000Y217000D02*
D03*
X58000Y214000D02*
D03*
X37000Y212000D02*
D03*
X42000Y189000D02*
D03*
Y182000D02*
D03*
X50000Y104000D02*
D03*
X57000D02*
D03*
Y97000D02*
D03*
X10000Y82000D02*
D03*
X6000Y76000D02*
D03*
X13000D02*
D03*
X59767Y69602D02*
D03*
X13000Y69000D02*
D03*
X6000D02*
D03*
X13000Y62000D02*
D03*
X6000D02*
D03*
X12000Y48000D02*
D03*
X13000Y40000D02*
D03*
Y31000D02*
D03*
X40000Y23000D02*
D03*
X12000Y21000D02*
D03*
X40000Y15000D02*
D03*
X45000Y9000D02*
D03*
X-25000Y143000D02*
D03*
X-12000Y144000D02*
D03*
X-1000Y132000D02*
D03*
X-33000Y137000D02*
D03*
X-54000Y117000D02*
D03*
X-41000Y-61000D02*
D03*
Y-68000D02*
D03*
Y-75000D02*
D03*
Y-82000D02*
D03*
X-54000Y-91000D02*
D03*
Y-98000D02*
D03*
X-20000Y-99000D02*
D03*
X-54000Y-108000D02*
D03*
X-42000Y-258000D02*
D03*
X-53500Y-118549D02*
D03*
X-53000Y-145000D02*
D03*
Y-138000D02*
D03*
X-13000Y-144000D02*
D03*
X-53000Y-152000D02*
D03*
X-47000Y-211000D02*
D03*
Y-220000D02*
D03*
Y-229000D02*
D03*
X-24000D02*
D03*
X-37000Y-336000D02*
D03*
X-23000Y-280000D02*
D03*
X-26000Y-373000D02*
D03*
X-40000Y-329000D02*
D03*
X-21000Y-344000D02*
D03*
X-16000Y-350000D02*
D03*
X-37480Y-355466D02*
D03*
X-19000Y-358000D02*
D03*
X-36000Y-365000D02*
D03*
Y-373000D02*
D03*
X-23000Y-293000D02*
D03*
X-19000Y-385000D02*
D03*
X-25000Y-407000D02*
D03*
X-29000Y-451000D02*
D03*
X-17000Y-458000D02*
D03*
X-25000Y-464000D02*
D03*
X-54000Y-510000D02*
D03*
Y-545000D02*
D03*
X-44000Y-612000D02*
D03*
X-51000D02*
D03*
X-44000Y-619000D02*
D03*
X-51000D02*
D03*
X-11000Y-679000D02*
D03*
X-20595Y-711405D02*
D03*
X-26000Y-722000D02*
D03*
Y-729000D02*
D03*
X-54000Y-39000D02*
D03*
Y-46000D02*
D03*
X-42000D02*
D03*
X-41000Y-54000D02*
D03*
X-203000Y64850D02*
D03*
X-190000Y26000D02*
D03*
X-198000Y-29000D02*
D03*
X-199000Y-351000D02*
D03*
X-203000Y-405150D02*
D03*
X-207000Y-343000D02*
D03*
Y-351000D02*
D03*
X-209000Y-304000D02*
D03*
X-199000Y-343000D02*
D03*
X-155000Y0D02*
D03*
Y-7000D02*
D03*
Y-14000D02*
D03*
X-163000Y-7000D02*
D03*
Y0D02*
D03*
Y7000D02*
D03*
Y-14000D02*
D03*
X-166000Y311000D02*
D03*
X-173000D02*
D03*
X-182000Y371000D02*
D03*
Y327000D02*
D03*
X-183000Y176000D02*
D03*
X-184000Y344000D02*
D03*
X-186000Y377000D02*
D03*
X-190000Y34000D02*
D03*
Y41000D02*
D03*
X-199000Y119000D02*
D03*
Y127000D02*
D03*
X-207000D02*
D03*
Y119000D02*
D03*
X-208000Y345000D02*
D03*
X-209000Y166000D02*
D03*
X-216000Y360000D02*
D03*
Y353000D02*
D03*
X-217000Y328000D02*
D03*
X-225000D02*
D03*
X-153000Y-366000D02*
D03*
X-166000Y-159000D02*
D03*
X-173000D02*
D03*
X-182000Y-99000D02*
D03*
Y-143000D02*
D03*
X-183000Y-294000D02*
D03*
X-184000Y-126000D02*
D03*
X-186000Y-93000D02*
D03*
X-189000Y-53000D02*
D03*
Y-37000D02*
D03*
Y-45000D02*
D03*
Y-29000D02*
D03*
X-190000Y-429000D02*
D03*
Y-436000D02*
D03*
Y-444000D02*
D03*
X-198000Y-45000D02*
D03*
X-155000Y-477000D02*
D03*
Y-484000D02*
D03*
X-163000Y-463000D02*
D03*
Y-470000D02*
D03*
Y-477000D02*
D03*
Y-484000D02*
D03*
X-166000Y-629000D02*
D03*
X-173000D02*
D03*
X-182000Y-613000D02*
D03*
Y-569000D02*
D03*
X-183000Y-596000D02*
D03*
X-186000Y-563000D02*
D03*
X-189000Y-499000D02*
D03*
Y-507000D02*
D03*
Y-515000D02*
D03*
Y-523000D02*
D03*
X-208000Y-125000D02*
D03*
X-216000Y-117000D02*
D03*
Y-110000D02*
D03*
X-217000Y-142000D02*
D03*
X-225000D02*
D03*
X-198000Y-53000D02*
D03*
Y-37000D02*
D03*
Y-523000D02*
D03*
X-208000Y-595000D02*
D03*
X-216000Y-580000D02*
D03*
Y-587000D02*
D03*
X-217000Y-612000D02*
D03*
X-225000D02*
D03*
X-198000Y-507000D02*
D03*
Y-515000D02*
D03*
Y-499000D02*
D03*
X-243000Y-536000D02*
D03*
Y-544000D02*
D03*
Y-552000D02*
D03*
X-190000Y511000D02*
D03*
Y504000D02*
D03*
Y496000D02*
D03*
X-191000Y710000D02*
D03*
X-198000Y441000D02*
D03*
Y433000D02*
D03*
Y425000D02*
D03*
Y417000D02*
D03*
X-199000Y597000D02*
D03*
Y589000D02*
D03*
X-202000Y744000D02*
D03*
Y727000D02*
D03*
X-203000Y534850D02*
D03*
X-207000Y597000D02*
D03*
Y589000D02*
D03*
X-209000Y636000D02*
D03*
X251000Y15000D02*
D03*
X47000Y-316000D02*
D03*
X-19000Y-664000D02*
D03*
X68000Y-310000D02*
D03*
Y-318000D02*
D03*
X37000Y245000D02*
D03*
X-25000Y-654000D02*
D03*
X-40000Y656000D02*
D03*
X69000Y-23000D02*
D03*
X-52000Y109000D02*
D03*
X-15000Y99000D02*
D03*
X-1000D02*
D03*
X24000Y162000D02*
D03*
X18000Y156000D02*
D03*
X13000Y149000D02*
D03*
X29000Y281000D02*
D03*
X0Y91000D02*
D03*
X35000Y-229000D02*
D03*
X-21000Y-171000D02*
D03*
X-24000Y-180000D02*
D03*
Y-201000D02*
D03*
X-56000Y149000D02*
D03*
X-22000Y-258000D02*
D03*
X8000Y-326000D02*
D03*
X-40000Y-26000D02*
D03*
X-48000Y-43000D02*
D03*
X-60000Y-419000D02*
D03*
X-72000Y-479000D02*
D03*
X-53000Y-315000D02*
D03*
X-54000Y-31000D02*
D03*
X-31000Y-516000D02*
D03*
X-78000Y277000D02*
D03*
X-58000Y186000D02*
D03*
X16000Y-405000D02*
D03*
X14000Y-391000D02*
D03*
X16974Y-174244D02*
D03*
X18000Y-186000D02*
D03*
X37000Y-602000D02*
D03*
X45000Y-621000D02*
D03*
X39000Y-627000D02*
D03*
X21000Y-692000D02*
D03*
X31000Y123000D02*
D03*
X29000Y113000D02*
D03*
X38000Y171000D02*
D03*
X-32000Y195000D02*
D03*
X-19000Y-686000D02*
D03*
X-52000Y-590000D02*
D03*
X-17000Y-207000D02*
D03*
M02*
