G04*
G04 #@! TF.GenerationSoftware,Altium Limited,Altium Designer,24.9.1 (31)*
G04*
G04 Layer_Color=16711935*
%FSLAX44Y44*%
%MOMM*%
G71*
G04*
G04 #@! TF.SameCoordinates,25B5EA7A-0A89-4A72-9C9E-8463CCD4450D*
G04*
G04*
G04 #@! TF.FilePolarity,Positive*
G04*
G01*
G75*
%ADD12C,0.2000*%
D12*
X-1217250Y293800D02*
Y401800D01*
X-1148750D01*
Y293800D02*
Y401800D01*
X-1217250Y293800D02*
X-1148750D01*
X-933350Y451750D02*
Y564500D01*
X-1002650Y451750D02*
X-933350D01*
X-1002650D02*
Y564500D01*
X-933350D01*
X-1077350Y451625D02*
Y564375D01*
X-1146650Y451625D02*
X-1077350D01*
X-1146650D02*
Y564375D01*
X-1077350D01*
X-1221350Y451625D02*
Y564375D01*
X-1290650Y451625D02*
X-1221350D01*
X-1290650D02*
Y564375D01*
X-1221350D01*
X-861350Y451625D02*
Y564375D01*
X-930650Y451625D02*
X-861350D01*
X-930650D02*
Y564375D01*
X-861350D01*
X-1005350Y451625D02*
Y564375D01*
X-1074650Y451625D02*
X-1005350D01*
X-1074650D02*
Y564375D01*
X-1005350D01*
X-1149350Y451625D02*
Y564375D01*
X-1218650Y451625D02*
X-1149350D01*
X-1218650D02*
Y564375D01*
X-1149350D01*
M02*
