M48
;Layer_Color=9474304
;FILE_FORMAT=4:4
METRIC,LZ
;TYPE=PLATED
T01F00S00C0.3000
T02F00S00C0.5000
T03F00S00C1.0000
T04F00S00C1.3000
T05F00S00C1.4000
T06F00S00C2.7000
T07F00S00C3.0000
T08F00S00C3.3000
T09F00S00C6.0000
;TYPE=NON_PLATED
T10F00S00C0.9000
T11F00S00C1.2000
T12F00S00C4.5000
T13F00S00C4.6000
T14F00S00C5.5000
T15F00S00C5.6000
%
T01
X-01137Y-00664
X-007936Y-00676
X-00798Y-00756
X-00789
X-00807
X-00816
X-00825
X-00715
X-00706
X-00697
X-00688
X-00679
X-0068Y-00738
X-00689
X-00542Y-00715
X-00519
Y-00727
X-00225Y-00612
X-00217
X-00216Y-00587
Y-0058
X-00208Y-00595
X-00183Y-00596
X-00182Y-00613
X-00173Y-00629
X-00166
X-00182Y-00569
X-00186Y-00563
X-00243Y-0056
Y-00552
Y-00544
X-00054Y-00545
Y-00559
Y-00566
Y-00578
X-00052Y-0059
X-00051Y-00612
Y-00619
X-00044
Y-00612
X-00076Y-00623
X-00083
Y-00661
X-00075
X-00066Y-00705
X-00055Y-00732
Y-0074
X-00026Y-00729
Y-00722
X-00020595Y-00711405
X-00019Y-00686
X-00011Y-00679
X-00019Y-00664
X-00025Y-00654
X00001Y-00631
Y-00623
Y-00615
X-00005Y-00601
X00002Y-00595
X00037Y-00602
X00039Y-00627
X00045Y-00621
X00043Y-00638
X0006Y-00645
X00028Y-00658
X00008Y-00673
X00014918Y-00685082
X00021Y-00692
X00053Y-00714
X00061
X00007Y-00738
X-00094Y-00756
Y-00763
X0006Y-00594
Y-00587
X00078Y-00552
Y-00544
X00208Y-0057
X00215
X00224Y-006185
X00203Y-00648
Y-00656
X00158Y-00655
Y-00648
Y-00641
Y-00634
X00188Y-00706
X00214Y-00696
X00769Y-00468
X00777Y-00453
X00749Y-00411
X00741
X00723Y-00278
Y-0027
Y-00262
Y-00254
Y-00246
X00686
Y-00254
Y-00262
Y-0027
Y-00278
X00567
X00559
X00551
Y-0027
X00559
X00567
X00574Y-00251
Y-00241
Y-00231
Y-00221
Y-00201
Y-00181
X00523Y-00203
X00515
X00507
X00509Y-00163
Y-00151
X0051Y-00254
Y-00262
Y-0027
X00511Y-00293
X00503
X00493
X00519
X00214Y-00226
X00188Y-00236
X00203Y-00186
Y-00178
X00158
Y-00171
Y-00164
Y-00185
X00059Y-00188
Y-00196
Y-00177
X00058Y-00169
X00054Y-00161
Y-00153
X00031Y-00173
X00016974Y-00174244
X00018Y-00186
X00023Y-00192
X00029Y-00197
X00034Y-0022
X00035Y-00229
X00037Y-00237
X0006Y-00239
X00065Y-00247
X00065Y-00256
X00057Y-00259
X0005Y-00264
X00048Y-00253
X00054Y-00248
X00059Y-00222
X00055Y-00215
X0001Y-00217
Y-00223
Y-00229
Y-00235
X-00024Y-00229
X-00047
Y-0022
Y-00211
X-00024Y-00201
X-00017Y-00207
X-00004082Y-00191821
X-0000469Y-00184
X-00002Y-00176
X-00021Y-00171
X-00024Y-0018
X-00013Y-00144
X-00053Y-00145
Y-00152
X-00076Y-00154
X-00083
Y-00192
X-00075
X-00042Y-00258
X-00022
X-00023Y-0028
Y-00293
X-00055Y-00292
Y-00285
X-00053Y-00315
X-0004Y-00329
X-00037Y-00336
X-0003748Y-00355466
X-00036Y-00365
Y-00373
X-00026
X-00019Y-00385
X-0Y-00383
X00001Y-00391
X0000694Y-00396211
X00014Y-00391
X00014Y-00383
X00016Y-00405
X00008Y-00417
X-00003Y-00415
X-00025Y-00407
X-0006Y-00419
X-00074Y-00418
Y-00411
X-00072Y-00479
X-00054Y-0051
Y-00517
Y-00524
Y-00531
Y-00538
X-00041Y-00537
X-00046213Y-00525213
X-00031Y-00516
X-00025Y-00464
X-00017Y-00458
X-00029Y-00451
X00008Y-00438
X00037Y-00449
X0006Y-00451
Y-00444
Y-00437
Y-0043
Y-00423
Y-00412
X00059767Y-00401398
X00059Y-00374
Y-00367
X00052
Y-00374
X00072Y-00367
X0008
Y-00329
X00072
X00068Y-00318
Y-0031
X00047Y-00316
X00031Y-00311701
X00026Y-00319
X00019Y-00327
X00008Y-00326
X00006Y-00361
X-00019Y-00358
X-00016Y-0035
X-00021Y-00344
X-00055Y-00352
X00036595Y-00298595
X00042Y-00288
Y-00281
X0006Y-00458
Y-00465
Y-00472
Y-00479
Y-00486
X00021Y-00488
X00015Y-00478
X00078Y-00528
Y-00536
X0016Y-0052
X00168
Y-00512
Y-00504
X0016
Y-00512
X00199Y-00484
Y-00476
Y-00468
Y-0046
X00208
Y-00468
Y-00476
Y-00484
X00251Y-00455
Y-00447
Y-00439
Y-00431
X00223Y-00409
Y-00403
X00214Y-00395
X0019
X00191Y-00423
X0019Y-00361
X00223Y-00379
X0023
X002835Y-00515
X00224Y-001485
X-00166Y-00159
X-00173
X-00183Y-00294
X-00209Y-00304
X-00207Y-00343
X-00199
Y-00351
X-00207
X-00153Y-00352
Y-00359
Y-00366
Y-00345
X-00203Y-0040515
X-0019Y-00429
Y-00436
Y-00444
X-00163Y-00463
Y-0047
Y-00477
Y-00484
X-00155
Y-00477
Y-0047
Y-00463
X-00189Y-00499
Y-00507
Y-00515
Y-00523
X-00198
Y-00515
Y-00507
Y-00499
X-00243Y-00536
X-00279Y-00458
X-00225Y-00142
X-00217
X-00216Y-00117
Y-0011
X-00208Y-00125
X-00184Y-00126
X-00182Y-00143
Y-00099
X-00186Y-00093
X-00189Y-00053
Y-00045
Y-00037
Y-00029
X-00198
Y-00037
Y-00045
Y-00053
X-00243Y-00066
Y-00074
Y-00082
Y-0009
X-00279Y00011
X-0019Y00026
Y00034
Y00041
X-00203Y0006485
X-00207Y00119
Y00127
X-00199
Y00119
X-00153Y00118
Y00111
Y00104
Y00125
X-00183Y00176
X-00173Y00199
X-002Y002
X-00216
X-0023
X-00239Y002
X-00248Y002
X-00257Y002
X-00266Y002
X-00275Y002
X-00284Y002
X-00298Y00239
Y00247
X-00217Y00248
Y00226
X-002Y00225
Y00236
X-00209Y00166
X-00163Y00007
Y0
Y-00007
Y-00014
X-00155
Y-00007
Y0
Y00007
X-0007Y-00018
X-00054Y-00022
Y-00031
X-00054Y-00039
Y-00046
X-00048Y-00043
X-00042Y-00046
X-00041Y-00054
Y-00061
Y-00068
Y-00075
Y-00082
X-00054Y-00091
Y-00098
Y-00108
X-000535Y-00118549
X-00053Y-00138
X-00003Y-00136
Y-00128
X00002Y-00117
X-00012Y-00096
Y-00089
Y-00082
Y-00075
Y-00068
Y-00061
Y-00054
X-00013Y-00035
X-00012Y-00027
Y-00018
X-00013Y-0001
Y-00001
X-00039Y00003
X-00042Y-00009
X-00048Y-00003
X-00041Y00016
X-00048Y00027
X-00053Y0004
X-00073Y0005
Y00057
X-00052Y00109
X-00054Y00117
X-00056Y00149
X-00055467Y00176387
X-00058Y00186
X-00049Y00201
X-00032Y00195
X-00037Y00212
X-00039Y00233
X-00046
X00001Y00217
X00037Y00219
Y00212
X00041Y00228
X00037Y00238
Y00245
X00058Y00224
Y00214
X00042Y00189
Y00182
X00038Y00171
X00024Y00162
X00018Y00156
X00013Y00149
X-00012Y00144
X-00025Y00143
X-00033Y00137
X-00001Y00132
X-00001Y00099
X0Y00091
X0001Y00082
X00013Y00076
X00006
Y00069
Y00062
X00013
Y00069
X00012Y00048
X00013Y0004
Y00031
X00012Y00021
X0004Y00023
Y00015
X00045Y00009
X00056Y-00019
X00069Y-00023
X00057Y-00038
X00063Y-00047
X00051Y-00051
X00048Y-00063
Y-0007
Y-00077
Y-00084
Y-00091
Y-00098
Y-00105
Y-00112
Y-00119
X00052Y-00131
X00089Y-00122
Y-00115
X00088Y-00011
Y-00004
Y00003
Y0001
Y00017
Y00024
Y00031
X0006Y00041
Y00048
Y00059
X00059767Y00069602
X00057Y00097
Y00104
X0005
X00029Y00113
X00031Y00123
X00079Y00142
Y00149
X0008Y00105
X-00015Y00099
X-0004Y-00026
X-0Y-00042
X-0002Y-00099
X00208Y-001
X00215
X00208Y-00014
Y-00006
Y00002
Y0001
X00199
Y00002
Y-00006
Y-00014
X00168Y-00034
Y-00042
Y-0005
X0016
Y-00042
Y-00034
X00191Y00047
X0019Y00075
X00214
X00223Y00067
Y00061
Y00091
X0023
X0019Y00109
X00188Y00234
X00214Y00244
X00251Y00039
Y00031
Y00023
Y00015
X002835Y-00044
X0053Y-00107
X00537
Y-0012
X0053
X00529Y-00131
X00536
X00509Y-00139
X00769Y00003
X00777Y00017
X00749Y00059
X00741
X00769Y00472
X00777Y00486
X00749Y00529
X00741
X00251Y00509
Y00501
Y00493
Y00485
X00208Y0048
Y00472
Y00464
Y00456
X00199
Y00464
Y00472
Y0048
X00191Y00517
X0019Y00545
X00214
X00223Y00537
Y00531
Y00561
X0023
X0019Y00579
X0008Y00573
X00072
X00058
Y00566
X00051
Y00573
X00060767Y00538602
X00061Y00528
Y00517
Y0051
Y00503
Y00496
Y00489
Y00482
Y00475
Y00468
Y00461
X00059Y00354
Y00347
X00043Y00314
Y00306
X00045Y00295
X00059Y00293
X0006Y00281
X0005Y00271
X00059Y0026
X00024
X00018Y00268
X00013Y00274
X00029Y00281
X00034Y00323
X00001Y00343
X-00005Y00337
X-00044Y00327
Y0032
X-00051
Y00327
X-000535Y00351451
X-00054Y00362
Y00373
Y0038
Y00387
Y00394
Y00401
Y00408
Y00415
Y00422
Y00429
Y00436
X-00063Y00527
X-00074
X-00053Y00587
X-00038Y00579
X-00012Y00591
X-00015Y00613
X-00018Y00626
X-00011Y00632
X00028Y00615
Y00607
Y00599
X00036595Y00641405
X00075Y00612
X00087
X00001Y0057
X-00004Y00564
X-00017Y00557
X00002Y00547
X0001Y0054
X-00054Y00647
X-00076Y00316
X-00083
X-000935Y00288
X-00078Y00277
X-00071
X-00045Y00269
Y00262
Y00255
X-00034Y00265
Y00288
X00158Y00285
Y00292
Y00299
Y00306
X00203Y00292
Y00284
X00224Y003215
X00215Y0037
X00208
X00168Y0042
X0016
Y00428
Y00436
X00168
Y00428
X002835Y00425
X-00155Y00456
Y00463
Y0047
Y00477
X-00163
Y0047
Y00463
Y00456
X-00189Y00441
Y00433
Y00425
Y00417
X-00198
Y00425
Y00433
Y00441
X-0019Y00496
Y00504
Y00511
X-00203Y0053485
X-00207Y00589
Y00597
X-00199
Y00589
X-00153Y00588
Y00581
Y00574
Y00595
X-00183Y00646
X-00209Y00636
X-00279Y00481
X-00243Y00404
Y00396
Y00388
Y0038
X-00216Y0036
Y00353
X-00208Y00345
X-00184Y00344
X-00182Y00327
X-00173Y00311
X-00166
X-00182Y00285
X-00203Y00266
X-00219Y00264
X-00249Y00271
X-00225Y00328
X-00217
X-00182Y00371
X-00186Y00377
X-00333Y00293
X-00882Y00516875
Y00523875
Y00530875
Y00537875
Y00544875
X-00889
Y00537875
Y00530875
Y00523875
Y00516875
X-00896
Y00523875
Y00530875
Y00537875
Y00544875
X-00903
Y00537875
Y00530875
Y00523875
Y00516875
X-0091
Y00523875
Y00530875
Y00537875
Y00544875
X-01026Y00544875
Y00537875
Y00530875
Y00523875
Y00516875
X-01033
Y00523875
Y00530875
Y00537875
Y00544875
X-0104
Y00537875
X-01047
Y00544875
X-01054
Y00537875
Y00530875
Y00523875
X-01047
X-0104
Y00530875
X-01047
Y00516875
X-0104
X-01054
X-0117Y00516875
Y00523875
Y00530875
Y00537875
Y00544875
X-01177
Y00537875
Y00530875
Y00523875
Y00516875
X-01184
X-01191
Y00523875
X-01184
Y00530875
X-01191
Y00537875
X-01184
Y00544875
X-01191
X-01198
Y00537875
Y00530875
Y00523875
Y00516875
X-01191Y00389
X-01108Y00342
X-01099
X-00991Y00392
X-00675Y00741
X-00668
X-00661
X-00202Y00744
Y00727
X-00191Y0071
X-00182Y00697
X-00181Y00673
X-00189
X-00187Y00747
X-00054Y0075
X-00047
X-0004
X-00033
X-00031Y00737
Y0073
Y00723
Y00711
X-00030895Y006895
X-00036Y00665
X-0004Y00656
X-00067Y00654
X-00075
Y00663
X-00067
X-00057Y0071
X-00049Y00727
X00063Y00685
X00042Y00659
Y00652
T02
X00733Y-004468
X00741
X00749
X00757
Y-004258
X00749
X00741
X00733
Y000232
X00741
X00749
X00757
Y000442
X00749
X00741
X00733
Y004932
X00741
X00749
X00757
Y005142
X00749
X00741
X00733
T03
X-002315Y-006313
X002785Y-006488
X002515Y-005713
Y-005308
X001735Y-002758
X000985
X002785Y-001788
X-002315Y-001613
Y-003073
Y-004288
Y-004693
Y-005098
Y-000398
Y000007
Y000412
Y001627
X000985Y001942
X001735
X002515Y-000608
Y-001013
X002785Y002912
X002515Y003687
Y004092
X-002315Y004302
Y004707
Y005112
Y006327
Y003087
X000985Y006642
X001735
T04
X00605Y-002913
X006265
X00648
Y-000913
X006265
X00605
T05
X-012755Y-006165
X-010725
X-009295
X-007265
Y-002415
Y-001815
X-009295
Y-002415
X-010725
Y-001815
X-012755
Y-002415
Y001935
X-010725
X-009295
X-007265
Y002535
Y006285
X-009295
X-010725
X-012755
Y002535
X-010725
X-009295
T06
X0022Y-003058
X-0015Y-00225
X00226Y001642
X00232Y006342
T07
X-0118Y0072
X-011
X-0102
T08
X-013Y-0073
X0048
X0075
Y-005063
Y-003463
X-004Y-00375
Y0
X0042
X0075Y-000363
Y001237
Y004337
Y005937
X-004Y00375
X-013Y0073
X0048
X0075
T09
X-005825Y-005663
X005625Y-004263
X-005825Y-003763
Y-000963
Y000937
X005625Y000437
Y005137
X-005825Y005637
Y003737
T10
X-0002Y-00108775
T11
X-0002Y0010877
T12
X-0034Y-007418
X00321
Y-002358
X-0034
Y002372
X00321
X-0034Y007432
X00321
T13
X004Y003607
T14
X-0042Y-007093
X004
Y-00236
X-0042
Y002374
X004
X-0042Y007107
X004
T15
X-0042Y-005093
M30
