G04*
G04 #@! TF.GenerationSoftware,Altium Limited,Altium Designer,24.9.1 (31)*
G04*
G04 Layer_Color=128*
%FSLAX44Y44*%
%MOMM*%
G71*
G04*
G04 #@! TF.SameCoordinates,25B5EA7A-0A89-4A72-9C9E-8463CCD4450D*
G04*
G04*
G04 #@! TF.FilePolarity,Positive*
G04*
G01*
G75*
%ADD123C,0.1270*%
D123*
X218500Y634200D02*
X245500D01*
X232000Y620700D02*
Y647700D01*
X212500Y164200D02*
X239500D01*
X226000Y150700D02*
Y177700D01*
X206500Y-305800D02*
X233500D01*
X220000Y-319300D02*
Y-292300D01*
X-163500Y-225000D02*
X-136500D01*
X-150000Y-238500D02*
Y-211500D01*
X738500Y-425800D02*
X743500D01*
X741000Y-428300D02*
Y-423300D01*
X754500Y-446800D02*
X759500D01*
X757000Y-449300D02*
Y-444300D01*
X730500Y-446800D02*
X735500D01*
X733000Y-449300D02*
Y-444300D01*
X738500Y-446800D02*
X743500D01*
X741000Y-449300D02*
Y-444300D01*
X746500Y-446800D02*
X751500D01*
X749000Y-449300D02*
Y-444300D01*
X754500Y-425800D02*
X759500D01*
X757000Y-428300D02*
Y-423300D01*
X746500Y-425800D02*
X751500D01*
X749000Y-428300D02*
Y-423300D01*
X730500Y-425800D02*
X735500D01*
X733000Y-428300D02*
Y-423300D01*
X738500Y44200D02*
X743500D01*
X741000Y41700D02*
Y46700D01*
X754500Y23200D02*
X759500D01*
X757000Y20700D02*
Y25700D01*
X730500Y23200D02*
X735500D01*
X733000Y20700D02*
Y25700D01*
X738500Y23200D02*
X743500D01*
X741000Y20700D02*
Y25700D01*
X746500Y23200D02*
X751500D01*
X749000Y20700D02*
Y25700D01*
X754500Y44200D02*
X759500D01*
X757000Y41700D02*
Y46700D01*
X746500Y44200D02*
X751500D01*
X749000Y41700D02*
Y46700D01*
X730500Y44200D02*
X735500D01*
X733000Y41700D02*
Y46700D01*
X738500Y514200D02*
X743500D01*
X741000Y511700D02*
Y516700D01*
X754500Y493200D02*
X759500D01*
X757000Y490700D02*
Y495700D01*
X730500Y493200D02*
X735500D01*
X733000Y490700D02*
Y495700D01*
X738500Y493200D02*
X743500D01*
X741000Y490700D02*
Y495700D01*
X746500Y493200D02*
X751500D01*
X749000Y490700D02*
Y495700D01*
X754500Y514200D02*
X759500D01*
X757000Y511700D02*
Y516700D01*
X746500Y514200D02*
X751500D01*
X749000Y511700D02*
Y516700D01*
X730500Y514200D02*
X735500D01*
X733000Y511700D02*
Y516700D01*
X598500Y-291300D02*
X611500D01*
X605000Y-297800D02*
Y-284800D01*
X620000Y-291300D02*
X633000D01*
X626500Y-297800D02*
Y-284800D01*
X598500Y-91300D02*
X611500D01*
X605000Y-97800D02*
Y-84800D01*
X620000Y-91300D02*
X633000D01*
X626500Y-97800D02*
Y-84800D01*
X641500Y-91300D02*
X654500D01*
X648000Y-97800D02*
Y-84800D01*
X641500Y-291300D02*
X654500D01*
X648000Y-297800D02*
Y-284800D01*
X-24500Y-108775D02*
X-15500D01*
X-20000Y-113275D02*
Y-104275D01*
X-26000Y108770D02*
X-14000D01*
X-20000Y102770D02*
Y114770D01*
X-1195000Y720000D02*
X-1165000D01*
X-1180000Y705000D02*
Y735000D01*
X-1115000Y720000D02*
X-1085000D01*
X-1100000Y705000D02*
Y735000D01*
X-1035000Y720000D02*
X-1005000D01*
X-1020000Y705000D02*
Y735000D01*
X463500Y-730000D02*
X496500D01*
X480000Y-746500D02*
Y-713500D01*
X463500Y730000D02*
X496500D01*
X480000Y713500D02*
Y746500D01*
X733500Y593700D02*
X766500D01*
X750000Y577200D02*
Y610200D01*
X733500Y433700D02*
X766500D01*
X750000Y417200D02*
Y450200D01*
X733500Y-36300D02*
X766500D01*
X750000Y-52800D02*
Y-19800D01*
X733500Y123700D02*
X766500D01*
X750000Y107200D02*
Y140200D01*
X733500Y-346300D02*
X766500D01*
X750000Y-362800D02*
Y-329800D01*
X733500Y-506300D02*
X766500D01*
X750000Y-522800D02*
Y-489800D01*
X733500Y-730000D02*
X766500D01*
X750000Y-746500D02*
Y-713500D01*
X733500Y730000D02*
X766500D01*
X750000Y713500D02*
Y746500D01*
X-1316500Y-730000D02*
X-1283500D01*
X-1300000Y-746500D02*
Y-713500D01*
X-1316500Y730000D02*
X-1283500D01*
X-1300000Y713500D02*
Y746500D01*
X403500Y0D02*
X436500D01*
X420000Y-16500D02*
Y16500D01*
X-416500Y0D02*
X-383500D01*
X-400000Y-16500D02*
Y16500D01*
X-416500Y-375000D02*
X-383500D01*
X-400000Y-391500D02*
Y-358500D01*
X-416500Y375000D02*
X-383500D01*
X-400000Y358500D02*
Y391500D01*
X532500Y513700D02*
X592500D01*
X562500Y483700D02*
Y543700D01*
X532500Y43700D02*
X592500D01*
X562500Y13700D02*
Y73700D01*
X532500Y-426300D02*
X592500D01*
X562500Y-456300D02*
Y-396300D01*
X-612500Y563700D02*
X-552500D01*
X-582500Y533700D02*
Y593700D01*
X-612500Y373700D02*
X-552500D01*
X-582500Y343700D02*
Y403700D01*
X-612500Y93700D02*
X-552500D01*
X-582500Y63700D02*
Y123700D01*
X-612500Y-96300D02*
X-552500D01*
X-582500Y-126300D02*
Y-66300D01*
X-612500Y-376300D02*
X-552500D01*
X-582500Y-406300D02*
Y-346300D01*
X-612500Y-566300D02*
X-552500D01*
X-582500Y-596300D02*
Y-536300D01*
X93500Y664200D02*
X103500D01*
X98500Y659200D02*
Y669200D01*
X168500Y664200D02*
X178500D01*
X173500Y659200D02*
Y669200D01*
X246500Y409200D02*
X256500D01*
X251500Y404200D02*
Y414200D01*
X246500Y368700D02*
X256500D01*
X251500Y363700D02*
Y373700D01*
X273500Y291200D02*
X283500D01*
X278500Y286200D02*
Y296200D01*
X93500Y194200D02*
X103500D01*
X98500Y189200D02*
Y199200D01*
X168500Y194200D02*
X178500D01*
X173500Y189200D02*
Y199200D01*
X246500Y-60800D02*
X256500D01*
X251500Y-65800D02*
Y-55800D01*
X246500Y-101300D02*
X256500D01*
X251500Y-106300D02*
Y-96300D01*
X273500Y-178800D02*
X283500D01*
X278500Y-183800D02*
Y-173800D01*
X93500Y-275800D02*
X103500D01*
X98500Y-280800D02*
Y-270800D01*
X168500Y-275800D02*
X178500D01*
X173500Y-280800D02*
Y-270800D01*
X273500Y-648800D02*
X283500D01*
X278500Y-653800D02*
Y-643800D01*
X246500Y-530800D02*
X256500D01*
X251500Y-535800D02*
Y-525800D01*
X246500Y-571300D02*
X256500D01*
X251500Y-576300D02*
Y-566300D01*
X-236500Y632700D02*
X-226500D01*
X-231500Y627700D02*
Y637700D01*
X-236500Y-39800D02*
X-226500D01*
X-231500Y-44800D02*
Y-34800D01*
X-236500Y41200D02*
X-226500D01*
X-231500Y36200D02*
Y46200D01*
X-236500Y470700D02*
X-226500D01*
X-231500Y465700D02*
Y475700D01*
X-236500Y511200D02*
X-226500D01*
X-231500Y506200D02*
Y516200D01*
X-236500Y430200D02*
X-226500D01*
X-231500Y425200D02*
Y435200D01*
X-236500Y308700D02*
X-226500D01*
X-231500Y303700D02*
Y313700D01*
X-236500Y162700D02*
X-226500D01*
X-231500Y157700D02*
Y167700D01*
X-236500Y-428800D02*
X-226500D01*
X-231500Y-433800D02*
Y-423800D01*
X-236500Y-469300D02*
X-226500D01*
X-231500Y-474300D02*
Y-464300D01*
X-236500Y700D02*
X-226500D01*
X-231500Y-4300D02*
Y5700D01*
X-236500Y-161300D02*
X-226500D01*
X-231500Y-166300D02*
Y-156300D01*
X-236500Y-631300D02*
X-226500D01*
X-231500Y-636300D02*
Y-626300D01*
X-236500Y-307300D02*
X-226500D01*
X-231500Y-312300D02*
Y-302300D01*
X-236500Y-509800D02*
X-226500D01*
X-231500Y-514800D02*
Y-504800D01*
X-448000Y-509300D02*
X-392000D01*
X-420000Y-537300D02*
Y-481300D01*
X-362500Y743200D02*
X-317500D01*
X-340000Y720700D02*
Y765700D01*
X-362500Y237200D02*
X-317500D01*
X-340000Y214700D02*
Y259700D01*
X298500Y237200D02*
X343500D01*
X321000Y214700D02*
Y259700D01*
X-362500Y-235800D02*
X-317500D01*
X-340000Y-258300D02*
Y-213300D01*
X-362500Y-741800D02*
X-317500D01*
X-340000Y-764300D02*
Y-719300D01*
X298500Y-741800D02*
X343500D01*
X321000Y-764300D02*
Y-719300D01*
X298500Y-235800D02*
X343500D01*
X321000Y-258300D02*
Y-213300D01*
X298500Y743200D02*
X343500D01*
X321000Y720700D02*
Y765700D01*
X377000Y360700D02*
X423000D01*
X400000Y337700D02*
Y383700D01*
X-447500Y-709300D02*
X-392500D01*
X-420000Y-736800D02*
Y-681800D01*
X372500Y-709300D02*
X427500D01*
X400000Y-736800D02*
Y-681800D01*
X-447500Y-236000D02*
X-392500D01*
X-420000Y-263500D02*
Y-208500D01*
X372500Y-236000D02*
X427500D01*
X400000Y-263500D02*
Y-208500D01*
X-447500Y237400D02*
X-392500D01*
X-420000Y209900D02*
Y264900D01*
X372500Y237400D02*
X427500D01*
X400000Y209900D02*
Y264900D01*
X-447500Y710700D02*
X-392500D01*
X-420000Y683200D02*
Y738200D01*
X372500Y710700D02*
X427500D01*
X400000Y683200D02*
Y738200D01*
X-1079500Y-241500D02*
X-1065500D01*
X-1072500Y-248500D02*
Y-234500D01*
X-1079500Y-616500D02*
X-1065500D01*
X-1072500Y-623500D02*
Y-609500D01*
X-1282500Y-241500D02*
X-1268500D01*
X-1275500Y-248500D02*
Y-234500D01*
X-1282500Y-616500D02*
X-1268500D01*
X-1275500Y-623500D02*
Y-609500D01*
X-733500Y-241500D02*
X-719500D01*
X-726500Y-248500D02*
Y-234500D01*
X-733500Y-616500D02*
X-719500D01*
X-726500Y-623500D02*
Y-609500D01*
X-936500Y-241500D02*
X-922500D01*
X-929500Y-248500D02*
Y-234500D01*
X-936500Y-616500D02*
X-922500D01*
X-929500Y-623500D02*
Y-609500D01*
X-1079500Y193500D02*
X-1065500D01*
X-1072500Y186500D02*
Y200500D01*
X-1079500Y-181500D02*
X-1065500D01*
X-1072500Y-188500D02*
Y-174500D01*
X-1282500Y193500D02*
X-1268500D01*
X-1275500Y186500D02*
Y200500D01*
X-1282500Y-181500D02*
X-1268500D01*
X-1275500Y-188500D02*
Y-174500D01*
X-733500Y193500D02*
X-719500D01*
X-726500Y186500D02*
Y200500D01*
X-733500Y-181500D02*
X-719500D01*
X-726500Y-188500D02*
Y-174500D01*
X-936500Y193500D02*
X-922500D01*
X-929500Y186500D02*
Y200500D01*
X-936500Y-181500D02*
X-922500D01*
X-929500Y-188500D02*
Y-174500D01*
X-1079500Y628500D02*
X-1065500D01*
X-1072500Y621500D02*
Y635500D01*
X-1079500Y253500D02*
X-1065500D01*
X-1072500Y246500D02*
Y260500D01*
X-1282500Y628500D02*
X-1268500D01*
X-1275500Y621500D02*
Y635500D01*
X-1282500Y253500D02*
X-1268500D01*
X-1275500Y246500D02*
Y260500D01*
X-733500Y628500D02*
X-719500D01*
X-726500Y621500D02*
Y635500D01*
X-733500Y253500D02*
X-719500D01*
X-726500Y246500D02*
Y260500D01*
X-936500Y628500D02*
X-922500D01*
X-929500Y621500D02*
Y635500D01*
X-936500Y253500D02*
X-922500D01*
X-929500Y246500D02*
Y260500D01*
X-18500Y-207000D02*
X-15500D01*
X-17000Y-208500D02*
Y-205500D01*
X-53500Y-590000D02*
X-50500D01*
X-52000Y-591500D02*
Y-588500D01*
X721500Y-246000D02*
X724500D01*
X723000Y-247500D02*
Y-244500D01*
X721500Y-254000D02*
X724500D01*
X723000Y-255500D02*
Y-252500D01*
X721500Y-262000D02*
X724500D01*
X723000Y-263500D02*
Y-260500D01*
X721500Y-270000D02*
X724500D01*
X723000Y-271500D02*
Y-268500D01*
X721500Y-278000D02*
X724500D01*
X723000Y-279500D02*
Y-276500D01*
X684500Y-278000D02*
X687500D01*
X686000Y-279500D02*
Y-276500D01*
X684500Y-270000D02*
X687500D01*
X686000Y-271500D02*
Y-268500D01*
X684500Y-262000D02*
X687500D01*
X686000Y-263500D02*
Y-260500D01*
X684500Y-254000D02*
X687500D01*
X686000Y-255500D02*
Y-252500D01*
X684500Y-246000D02*
X687500D01*
X686000Y-247500D02*
Y-244500D01*
X507500Y-163000D02*
X510500D01*
X509000Y-164500D02*
Y-161500D01*
X507500Y-151000D02*
X510500D01*
X509000Y-152500D02*
Y-149500D01*
X507500Y-139000D02*
X510500D01*
X509000Y-140500D02*
Y-137500D01*
X775500Y486000D02*
X778500D01*
X777000Y484500D02*
Y487500D01*
X775500Y17000D02*
X778500D01*
X777000Y15500D02*
Y18500D01*
X775500Y-453000D02*
X778500D01*
X777000Y-454500D02*
Y-451500D01*
X572500Y-181000D02*
X575500D01*
X574000Y-182500D02*
Y-179500D01*
X572500Y-201000D02*
X575500D01*
X574000Y-202500D02*
Y-199500D01*
X572500Y-221000D02*
X575500D01*
X574000Y-222500D02*
Y-219500D01*
X572500Y-231000D02*
X575500D01*
X574000Y-232500D02*
Y-229500D01*
X572500Y-241000D02*
X575500D01*
X574000Y-242500D02*
Y-239500D01*
X572500Y-251000D02*
X575500D01*
X574000Y-252500D02*
Y-249500D01*
X521500Y-203000D02*
X524500D01*
X523000Y-204500D02*
Y-201500D01*
X513500Y-203000D02*
X516500D01*
X515000Y-204500D02*
Y-201500D01*
X505500Y-203000D02*
X508500D01*
X507000Y-204500D02*
Y-201500D01*
X534500Y-131000D02*
X537500D01*
X536000Y-132500D02*
Y-129500D01*
X527500Y-131000D02*
X530500D01*
X529000Y-132500D02*
Y-129500D01*
X508500Y-254000D02*
X511500D01*
X510000Y-255500D02*
Y-252500D01*
X508500Y-262000D02*
X511500D01*
X510000Y-263500D02*
Y-260500D01*
X508500Y-270000D02*
X511500D01*
X510000Y-271500D02*
Y-268500D01*
X491500Y-293000D02*
X494500D01*
X493000Y-294500D02*
Y-291500D01*
X517500Y-293000D02*
X520500D01*
X519000Y-294500D02*
Y-291500D01*
X509500Y-293000D02*
X512500D01*
X511000Y-294500D02*
Y-291500D01*
X501500Y-293000D02*
X504500D01*
X503000Y-294500D02*
Y-291500D01*
X565500Y-278000D02*
X568500D01*
X567000Y-279500D02*
Y-276500D01*
X557500Y-278000D02*
X560500D01*
X559000Y-279500D02*
Y-276500D01*
X549500Y-278000D02*
X552500D01*
X551000Y-279500D02*
Y-276500D01*
X565500Y-270000D02*
X568500D01*
X567000Y-271500D02*
Y-268500D01*
X557500Y-270000D02*
X560500D01*
X559000Y-271500D02*
Y-268500D01*
X549500Y-270000D02*
X552500D01*
X551000Y-271500D02*
Y-268500D01*
X535500Y-107000D02*
X538500D01*
X537000Y-108500D02*
Y-105500D01*
X528500Y-107000D02*
X531500D01*
X530000Y-108500D02*
Y-105500D01*
X535500Y-120000D02*
X538500D01*
X537000Y-121500D02*
Y-118500D01*
X528500Y-120000D02*
X531500D01*
X530000Y-121500D02*
Y-118500D01*
X747500Y-411000D02*
X750500D01*
X749000Y-412500D02*
Y-409500D01*
X739500Y-411000D02*
X742500D01*
X741000Y-412500D02*
Y-409500D01*
X747500Y59000D02*
X750500D01*
X749000Y57500D02*
Y60500D01*
X739500Y59000D02*
X742500D01*
X741000Y57500D02*
Y60500D01*
X739500Y529000D02*
X742500D01*
X741000Y527500D02*
Y530500D01*
X747500Y529000D02*
X750500D01*
X749000Y527500D02*
Y530500D01*
X767500Y472000D02*
X770500D01*
X769000Y470500D02*
Y473500D01*
X767500Y3000D02*
X770500D01*
X769000Y1500D02*
Y4500D01*
X767500Y-468000D02*
X770500D01*
X769000Y-469500D02*
Y-466500D01*
X-1100500Y342000D02*
X-1097500D01*
X-1099000Y340500D02*
Y343500D01*
X-1109500Y342000D02*
X-1106500D01*
X-1108000Y340500D02*
Y343500D01*
X-20500Y-686000D02*
X-17500D01*
X-19000Y-687500D02*
Y-684500D01*
X-43500Y-9000D02*
X-40500D01*
X-42000Y-10500D02*
Y-7500D01*
X-49500Y-3000D02*
X-46500D01*
X-48000Y-4500D02*
Y-1500D01*
X-50500Y201000D02*
X-47500D01*
X-49000Y199500D02*
Y202500D01*
X-33500Y195000D02*
X-30500D01*
X-32000Y193500D02*
Y196500D01*
X36500Y171000D02*
X39500D01*
X38000Y169500D02*
Y172500D01*
X27500Y113000D02*
X30500D01*
X29000Y111500D02*
Y114500D01*
X29500Y123000D02*
X32500D01*
X31000Y121500D02*
Y124500D01*
X19500Y-692000D02*
X22500D01*
X21000Y-693500D02*
Y-690500D01*
X37500Y-627000D02*
X40500D01*
X39000Y-628500D02*
Y-625500D01*
X43500Y-621000D02*
X46500D01*
X45000Y-622500D02*
Y-619500D01*
X35500Y-602000D02*
X38500D01*
X37000Y-603500D02*
Y-600500D01*
X16500Y-186000D02*
X19500D01*
X18000Y-187500D02*
Y-184500D01*
X15474Y-174244D02*
X18474D01*
X16974Y-175744D02*
Y-172744D01*
X12500Y-391000D02*
X15500D01*
X14000Y-392500D02*
Y-389500D01*
X14500Y-405000D02*
X17500D01*
X16000Y-406500D02*
Y-403500D01*
X-35500Y288000D02*
X-32500D01*
X-34000Y286500D02*
Y289500D01*
X-35500Y265000D02*
X-32500D01*
X-34000Y263500D02*
Y266500D01*
X-95000Y288000D02*
X-92000D01*
X-93500Y286500D02*
Y289500D01*
X-40500Y233000D02*
X-37500D01*
X-39000Y231500D02*
Y234500D01*
X-59500Y186000D02*
X-56500D01*
X-58000Y184500D02*
Y187500D01*
X-47500Y233000D02*
X-44500D01*
X-46000Y231500D02*
Y234500D01*
X-38500Y212000D02*
X-35500D01*
X-37000Y210500D02*
Y213500D01*
X-79500Y277000D02*
X-76500D01*
X-78000Y275500D02*
Y278500D01*
X-500Y-631000D02*
X2500D01*
X1000Y-632500D02*
Y-629500D01*
X-500Y-623000D02*
X2500D01*
X1000Y-624500D02*
Y-621500D01*
X-500Y-615000D02*
X2500D01*
X1000Y-616500D02*
Y-613500D01*
X76500Y-552000D02*
X79500D01*
X78000Y-553500D02*
Y-550500D01*
X76500Y-544000D02*
X79500D01*
X78000Y-545500D02*
Y-542500D01*
X76500Y-536000D02*
X79500D01*
X78000Y-537500D02*
Y-534500D01*
X76500Y-528000D02*
X79500D01*
X78000Y-529500D02*
Y-526500D01*
X-32500Y-516000D02*
X-29500D01*
X-31000Y-517500D02*
Y-514500D01*
X-67500Y-705000D02*
X-64500D01*
X-66000Y-706500D02*
Y-703500D01*
X-55500Y-22000D02*
X-52500D01*
X-54000Y-23500D02*
Y-20500D01*
X-55500Y-31000D02*
X-52500D01*
X-54000Y-32500D02*
Y-29500D01*
X-54500Y-315000D02*
X-51500D01*
X-53000Y-316500D02*
Y-313500D01*
X-73500Y-479000D02*
X-70500D01*
X-72000Y-480500D02*
Y-477500D01*
X-42500Y-537000D02*
X-39500D01*
X-41000Y-538500D02*
Y-535500D01*
X-47712Y-525213D02*
X-44713D01*
X-46213Y-526712D02*
Y-523713D01*
X-61500Y-419000D02*
X-58500D01*
X-60000Y-420500D02*
Y-417500D01*
X-49500Y-43000D02*
X-46500D01*
X-48000Y-44500D02*
Y-41500D01*
X-41500Y-26000D02*
X-38500D01*
X-40000Y-27500D02*
Y-24500D01*
X6500Y-326000D02*
X9500D01*
X8000Y-327500D02*
Y-324500D01*
X-42500Y16000D02*
X-39500D01*
X-41000Y14500D02*
Y17500D01*
X-49500Y27000D02*
X-46500D01*
X-48000Y25500D02*
Y28500D01*
X-23500Y-258000D02*
X-20500D01*
X-22000Y-259500D02*
Y-256500D01*
X-183500Y285000D02*
X-180500D01*
X-182000Y283500D02*
Y286500D01*
X-217500Y200000D02*
X-214500D01*
X-216000Y198500D02*
Y201500D01*
X-201500Y236000D02*
X-198500D01*
X-200000Y234500D02*
Y237500D01*
X-201500Y200000D02*
X-198500D01*
X-200000Y198500D02*
Y201500D01*
X-299500Y247000D02*
X-296500D01*
X-298000Y245500D02*
Y248500D01*
X-299500Y239000D02*
X-296500D01*
X-298000Y237500D02*
Y240500D01*
X-992500Y392000D02*
X-989500D01*
X-991000Y390500D02*
Y393500D01*
X-334500Y293000D02*
X-331500D01*
X-333000Y291500D02*
Y294500D01*
X-1192500Y389000D02*
X-1189500D01*
X-1191000Y387500D02*
Y390500D01*
X-220500Y264000D02*
X-217500D01*
X-219000Y262500D02*
Y265500D01*
X-250500Y271000D02*
X-247500D01*
X-249000Y269500D02*
Y272500D01*
X-258500Y200000D02*
X-255500D01*
X-257000Y198500D02*
Y201500D01*
X-204500Y266000D02*
X-201500D01*
X-203000Y264500D02*
Y267500D01*
X-201500Y225000D02*
X-198500D01*
X-200000Y223500D02*
Y226500D01*
X-174500Y199000D02*
X-171500D01*
X-173000Y197500D02*
Y200500D01*
X-218500Y226000D02*
X-215500D01*
X-217000Y224500D02*
Y227500D01*
X-218500Y248000D02*
X-215500D01*
X-217000Y246500D02*
Y249500D01*
X-285500Y200000D02*
X-282500D01*
X-284000Y198500D02*
Y201500D01*
X-276500Y200000D02*
X-273500D01*
X-275000Y198500D02*
Y201500D01*
X-240500Y200000D02*
X-237500D01*
X-239000Y198500D02*
Y201500D01*
X-231500Y200000D02*
X-228500D01*
X-230000Y198500D02*
Y201500D01*
X-249500Y200000D02*
X-246500D01*
X-248000Y198500D02*
Y201500D01*
X-267500Y200000D02*
X-264500D01*
X-266000Y198500D02*
Y201500D01*
X-57500Y149000D02*
X-54500D01*
X-56000Y147500D02*
Y150500D01*
X-54500Y40000D02*
X-51500D01*
X-53000Y38500D02*
Y41500D01*
X-56500Y-740000D02*
X-53500D01*
X-55000Y-741500D02*
Y-738500D01*
X-56500Y-732000D02*
X-53500D01*
X-55000Y-733500D02*
Y-730500D01*
X-95500Y-756000D02*
X-92500D01*
X-94000Y-757500D02*
Y-754500D01*
X-95500Y-763000D02*
X-92500D01*
X-94000Y-764500D02*
Y-761500D01*
X-25500Y-201000D02*
X-22500D01*
X-24000Y-202500D02*
Y-199500D01*
X-25500Y-180000D02*
X-22500D01*
X-24000Y-181500D02*
Y-178500D01*
X-22500Y-171000D02*
X-19500D01*
X-21000Y-172500D02*
Y-169500D01*
X33500Y-229000D02*
X36500D01*
X35000Y-230500D02*
Y-227500D01*
X-1500Y91000D02*
X1500D01*
X0Y89500D02*
Y92500D01*
X27500Y281000D02*
X30500D01*
X29000Y279500D02*
Y282500D01*
X11500Y149000D02*
X14500D01*
X13000Y147500D02*
Y150500D01*
X16500Y156000D02*
X19500D01*
X18000Y154500D02*
Y157500D01*
X22500Y162000D02*
X25500D01*
X24000Y160500D02*
Y163500D01*
X-2500Y99000D02*
X500D01*
X-1000Y97500D02*
Y100500D01*
X-16500Y99000D02*
X-13500D01*
X-15000Y97500D02*
Y100500D01*
X-53500Y109000D02*
X-50500D01*
X-52000Y107500D02*
Y110500D01*
X67500Y-23000D02*
X70500D01*
X69000Y-24500D02*
Y-21500D01*
X-41500Y656000D02*
X-38500D01*
X-40000Y654500D02*
Y657500D01*
X-26500Y-654000D02*
X-23500D01*
X-25000Y-655500D02*
Y-652500D01*
X35500Y245000D02*
X38500D01*
X37000Y243500D02*
Y246500D01*
X66500Y-318000D02*
X69500D01*
X68000Y-319500D02*
Y-316500D01*
X66500Y-310000D02*
X69500D01*
X68000Y-311500D02*
Y-308500D01*
X63500Y-247000D02*
X66500D01*
X65000Y-248500D02*
Y-245500D01*
X-20500Y-664000D02*
X-17500D01*
X-19000Y-665500D02*
Y-662500D01*
X-280500Y481000D02*
X-277500D01*
X-279000Y479500D02*
Y482500D01*
X-280500Y-458000D02*
X-277500D01*
X-279000Y-459500D02*
Y-456500D01*
X-280500Y11000D02*
X-277500D01*
X-279000Y9500D02*
Y12500D01*
X-183500Y697000D02*
X-180500D01*
X-182000Y695500D02*
Y698500D01*
X45500Y-316000D02*
X48500D01*
X47000Y-317500D02*
Y-314500D01*
X249500Y15000D02*
X252500D01*
X251000Y13500D02*
Y16500D01*
X282000Y-515000D02*
X285000D01*
X283500Y-516500D02*
Y-513500D01*
X282000Y-44000D02*
X285000D01*
X283500Y-45500D02*
Y-42500D01*
X282000Y425000D02*
X285000D01*
X283500Y423500D02*
Y426500D01*
X-210500Y636000D02*
X-207500D01*
X-209000Y634500D02*
Y637500D01*
X-208500Y589000D02*
X-205500D01*
X-207000Y587500D02*
Y590500D01*
X-208500Y597000D02*
X-205500D01*
X-207000Y595500D02*
Y598500D01*
X-204500Y534850D02*
X-201500D01*
X-203000Y533350D02*
Y536350D01*
X-203500Y727000D02*
X-200500D01*
X-202000Y725500D02*
Y728500D01*
X-203500Y744000D02*
X-200500D01*
X-202000Y742500D02*
Y745500D01*
X-200500Y589000D02*
X-197500D01*
X-199000Y587500D02*
Y590500D01*
X-200500Y597000D02*
X-197500D01*
X-199000Y595500D02*
Y598500D01*
X-199500Y417000D02*
X-196500D01*
X-198000Y415500D02*
Y418500D01*
X-199500Y425000D02*
X-196500D01*
X-198000Y423500D02*
Y426500D01*
X-199500Y433000D02*
X-196500D01*
X-198000Y431500D02*
Y434500D01*
X-199500Y441000D02*
X-196500D01*
X-198000Y439500D02*
Y442500D01*
X-192500Y710000D02*
X-189500D01*
X-191000Y708500D02*
Y711500D01*
X-191500Y496000D02*
X-188500D01*
X-190000Y494500D02*
Y497500D01*
X-191500Y504000D02*
X-188500D01*
X-190000Y502500D02*
Y505500D01*
X-191500Y511000D02*
X-188500D01*
X-190000Y509500D02*
Y512500D01*
X-244500Y-552000D02*
X-241500D01*
X-243000Y-553500D02*
Y-550500D01*
X-244500Y-544000D02*
X-241500D01*
X-243000Y-545500D02*
Y-542500D01*
X-244500Y-536000D02*
X-241500D01*
X-243000Y-537500D02*
Y-534500D01*
X-199500Y-499000D02*
X-196500D01*
X-198000Y-500500D02*
Y-497500D01*
X-199500Y-515000D02*
X-196500D01*
X-198000Y-516500D02*
Y-513500D01*
X-199500Y-507000D02*
X-196500D01*
X-198000Y-508500D02*
Y-505500D01*
X-226500Y-612000D02*
X-223500D01*
X-225000Y-613500D02*
Y-610500D01*
X-218500Y-612000D02*
X-215500D01*
X-217000Y-613500D02*
Y-610500D01*
X-217500Y-587000D02*
X-214500D01*
X-216000Y-588500D02*
Y-585500D01*
X-217500Y-580000D02*
X-214500D01*
X-216000Y-581500D02*
Y-578500D01*
X-209500Y-595000D02*
X-206500D01*
X-208000Y-596500D02*
Y-593500D01*
X-199500Y-523000D02*
X-196500D01*
X-198000Y-524500D02*
Y-521500D01*
X-199500Y-37000D02*
X-196500D01*
X-198000Y-38500D02*
Y-35500D01*
X-199500Y-53000D02*
X-196500D01*
X-198000Y-54500D02*
Y-51500D01*
X-226500Y-142000D02*
X-223500D01*
X-225000Y-143500D02*
Y-140500D01*
X-218500Y-142000D02*
X-215500D01*
X-217000Y-143500D02*
Y-140500D01*
X-217500Y-110000D02*
X-214500D01*
X-216000Y-111500D02*
Y-108500D01*
X-217500Y-117000D02*
X-214500D01*
X-216000Y-118500D02*
Y-115500D01*
X-209500Y-125000D02*
X-206500D01*
X-208000Y-126500D02*
Y-123500D01*
X-190500Y-523000D02*
X-187500D01*
X-189000Y-524500D02*
Y-521500D01*
X-190500Y-515000D02*
X-187500D01*
X-189000Y-516500D02*
Y-513500D01*
X-190500Y-507000D02*
X-187500D01*
X-189000Y-508500D02*
Y-505500D01*
X-190500Y-499000D02*
X-187500D01*
X-189000Y-500500D02*
Y-497500D01*
X-187500Y-563000D02*
X-184500D01*
X-186000Y-564500D02*
Y-561500D01*
X-184500Y-596000D02*
X-181500D01*
X-183000Y-597500D02*
Y-594500D01*
X-183500Y-569000D02*
X-180500D01*
X-182000Y-570500D02*
Y-567500D01*
X-183500Y-613000D02*
X-180500D01*
X-182000Y-614500D02*
Y-611500D01*
X-174500Y-629000D02*
X-171500D01*
X-173000Y-630500D02*
Y-627500D01*
X-167500Y-629000D02*
X-164500D01*
X-166000Y-630500D02*
Y-627500D01*
X-164500Y-484000D02*
X-161500D01*
X-163000Y-485500D02*
Y-482500D01*
X-164500Y-477000D02*
X-161500D01*
X-163000Y-478500D02*
Y-475500D01*
X-164500Y-470000D02*
X-161500D01*
X-163000Y-471500D02*
Y-468500D01*
X-164500Y-463000D02*
X-161500D01*
X-163000Y-464500D02*
Y-461500D01*
X-156500Y-484000D02*
X-153500D01*
X-155000Y-485500D02*
Y-482500D01*
X-156500Y-477000D02*
X-153500D01*
X-155000Y-478500D02*
Y-475500D01*
X-199500Y-45000D02*
X-196500D01*
X-198000Y-46500D02*
Y-43500D01*
X-191500Y-444000D02*
X-188500D01*
X-190000Y-445500D02*
Y-442500D01*
X-191500Y-436000D02*
X-188500D01*
X-190000Y-437500D02*
Y-434500D01*
X-191500Y-429000D02*
X-188500D01*
X-190000Y-430500D02*
Y-427500D01*
X-190500Y-29000D02*
X-187500D01*
X-189000Y-30500D02*
Y-27500D01*
X-190500Y-45000D02*
X-187500D01*
X-189000Y-46500D02*
Y-43500D01*
X-190500Y-37000D02*
X-187500D01*
X-189000Y-38500D02*
Y-35500D01*
X-190500Y-53000D02*
X-187500D01*
X-189000Y-54500D02*
Y-51500D01*
X-187500Y-93000D02*
X-184500D01*
X-186000Y-94500D02*
Y-91500D01*
X-185500Y-126000D02*
X-182500D01*
X-184000Y-127500D02*
Y-124500D01*
X-184500Y-294000D02*
X-181500D01*
X-183000Y-295500D02*
Y-292500D01*
X-183500Y-143000D02*
X-180500D01*
X-182000Y-144500D02*
Y-141500D01*
X-183500Y-99000D02*
X-180500D01*
X-182000Y-100500D02*
Y-97500D01*
X-174500Y-159000D02*
X-171500D01*
X-173000Y-160500D02*
Y-157500D01*
X-167500Y-159000D02*
X-164500D01*
X-166000Y-160500D02*
Y-157500D01*
X-154500Y-366000D02*
X-151500D01*
X-153000Y-367500D02*
Y-364500D01*
X-226500Y328000D02*
X-223500D01*
X-225000Y326500D02*
Y329500D01*
X-218500Y328000D02*
X-215500D01*
X-217000Y326500D02*
Y329500D01*
X-217500Y353000D02*
X-214500D01*
X-216000Y351500D02*
Y354500D01*
X-217500Y360000D02*
X-214500D01*
X-216000Y358500D02*
Y361500D01*
X-210500Y166000D02*
X-207500D01*
X-209000Y164500D02*
Y167500D01*
X-209500Y345000D02*
X-206500D01*
X-208000Y343500D02*
Y346500D01*
X-208500Y119000D02*
X-205500D01*
X-207000Y117500D02*
Y120500D01*
X-208500Y127000D02*
X-205500D01*
X-207000Y125500D02*
Y128500D01*
X-200500Y127000D02*
X-197500D01*
X-199000Y125500D02*
Y128500D01*
X-200500Y119000D02*
X-197500D01*
X-199000Y117500D02*
Y120500D01*
X-191500Y41000D02*
X-188500D01*
X-190000Y39500D02*
Y42500D01*
X-191500Y34000D02*
X-188500D01*
X-190000Y32500D02*
Y35500D01*
X-187500Y377000D02*
X-184500D01*
X-186000Y375500D02*
Y378500D01*
X-185500Y344000D02*
X-182500D01*
X-184000Y342500D02*
Y345500D01*
X-184500Y176000D02*
X-181500D01*
X-183000Y174500D02*
Y177500D01*
X-183500Y327000D02*
X-180500D01*
X-182000Y325500D02*
Y328500D01*
X-183500Y371000D02*
X-180500D01*
X-182000Y369500D02*
Y372500D01*
X-174500Y311000D02*
X-171500D01*
X-173000Y309500D02*
Y312500D01*
X-167500Y311000D02*
X-164500D01*
X-166000Y309500D02*
Y312500D01*
X-164500Y-14000D02*
X-161500D01*
X-163000Y-15500D02*
Y-12500D01*
X-164500Y7000D02*
X-161500D01*
X-163000Y5500D02*
Y8500D01*
X-164500Y0D02*
X-161500D01*
X-163000Y-1500D02*
Y1500D01*
X-164500Y-7000D02*
X-161500D01*
X-163000Y-8500D02*
Y-5500D01*
X-156500Y-14000D02*
X-153500D01*
X-155000Y-15500D02*
Y-12500D01*
X-156500Y-7000D02*
X-153500D01*
X-155000Y-8500D02*
Y-5500D01*
X-156500Y0D02*
X-153500D01*
X-155000Y-1500D02*
Y1500D01*
X-200500Y-343000D02*
X-197500D01*
X-199000Y-344500D02*
Y-341500D01*
X-210500Y-304000D02*
X-207500D01*
X-209000Y-305500D02*
Y-302500D01*
X-208500Y-351000D02*
X-205500D01*
X-207000Y-352500D02*
Y-349500D01*
X-208500Y-343000D02*
X-205500D01*
X-207000Y-344500D02*
Y-341500D01*
X-204500Y-405150D02*
X-201500D01*
X-203000Y-406650D02*
Y-403650D01*
X-200500Y-351000D02*
X-197500D01*
X-199000Y-352500D02*
Y-349500D01*
X-199500Y-29000D02*
X-196500D01*
X-198000Y-30500D02*
Y-27500D01*
X-191500Y26000D02*
X-188500D01*
X-190000Y24500D02*
Y27500D01*
X-204500Y64850D02*
X-201500D01*
X-203000Y63350D02*
Y66350D01*
X-42500Y-54000D02*
X-39500D01*
X-41000Y-55500D02*
Y-52500D01*
X-43500Y-46000D02*
X-40500D01*
X-42000Y-47500D02*
Y-44500D01*
X-55500Y-46000D02*
X-52500D01*
X-54000Y-47500D02*
Y-44500D01*
X-55500Y-39000D02*
X-52500D01*
X-54000Y-40500D02*
Y-37500D01*
X-27500Y-729000D02*
X-24500D01*
X-26000Y-730500D02*
Y-727500D01*
X-27500Y-722000D02*
X-24500D01*
X-26000Y-723500D02*
Y-720500D01*
X-22095Y-711405D02*
X-19095D01*
X-20595Y-712905D02*
Y-709905D01*
X-12500Y-679000D02*
X-9500D01*
X-11000Y-680500D02*
Y-677500D01*
X-52500Y-619000D02*
X-49500D01*
X-51000Y-620500D02*
Y-617500D01*
X-45500Y-619000D02*
X-42500D01*
X-44000Y-620500D02*
Y-617500D01*
X-52500Y-612000D02*
X-49500D01*
X-51000Y-613500D02*
Y-610500D01*
X-45500Y-612000D02*
X-42500D01*
X-44000Y-613500D02*
Y-610500D01*
X-55500Y-545000D02*
X-52500D01*
X-54000Y-546500D02*
Y-543500D01*
X-55500Y-510000D02*
X-52500D01*
X-54000Y-511500D02*
Y-508500D01*
X-26500Y-464000D02*
X-23500D01*
X-25000Y-465500D02*
Y-462500D01*
X-18500Y-458000D02*
X-15500D01*
X-17000Y-459500D02*
Y-456500D01*
X-30500Y-451000D02*
X-27500D01*
X-29000Y-452500D02*
Y-449500D01*
X-26500Y-407000D02*
X-23500D01*
X-25000Y-408500D02*
Y-405500D01*
X-20500Y-385000D02*
X-17500D01*
X-19000Y-386500D02*
Y-383500D01*
X-24500Y-293000D02*
X-21500D01*
X-23000Y-294500D02*
Y-291500D01*
X-37500Y-373000D02*
X-34500D01*
X-36000Y-374500D02*
Y-371500D01*
X-37500Y-365000D02*
X-34500D01*
X-36000Y-366500D02*
Y-363500D01*
X-20500Y-358000D02*
X-17500D01*
X-19000Y-359500D02*
Y-356500D01*
X-38980Y-355466D02*
X-35980D01*
X-37480Y-356966D02*
Y-353966D01*
X-17500Y-350000D02*
X-14500D01*
X-16000Y-351500D02*
Y-348500D01*
X-22500Y-344000D02*
X-19500D01*
X-21000Y-345500D02*
Y-342500D01*
X-41500Y-329000D02*
X-38500D01*
X-40000Y-330500D02*
Y-327500D01*
X-27500Y-373000D02*
X-24500D01*
X-26000Y-374500D02*
Y-371500D01*
X-24500Y-280000D02*
X-21500D01*
X-23000Y-281500D02*
Y-278500D01*
X-38500Y-336000D02*
X-35500D01*
X-37000Y-337500D02*
Y-334500D01*
X-25500Y-229000D02*
X-22500D01*
X-24000Y-230500D02*
Y-227500D01*
X-48500Y-229000D02*
X-45500D01*
X-47000Y-230500D02*
Y-227500D01*
X-48500Y-220000D02*
X-45500D01*
X-47000Y-221500D02*
Y-218500D01*
X-48500Y-211000D02*
X-45500D01*
X-47000Y-212500D02*
Y-209500D01*
X-54500Y-152000D02*
X-51500D01*
X-53000Y-153500D02*
Y-150500D01*
X-14500Y-144000D02*
X-11500D01*
X-13000Y-145500D02*
Y-142500D01*
X-54500Y-138000D02*
X-51500D01*
X-53000Y-139500D02*
Y-136500D01*
X-54500Y-145000D02*
X-51500D01*
X-53000Y-146500D02*
Y-143500D01*
X-55000Y-118549D02*
X-52000D01*
X-53500Y-120049D02*
Y-117049D01*
X-43500Y-258000D02*
X-40500D01*
X-42000Y-259500D02*
Y-256500D01*
X-55500Y-108000D02*
X-52500D01*
X-54000Y-109500D02*
Y-106500D01*
X-21500Y-99000D02*
X-18500D01*
X-20000Y-100500D02*
Y-97500D01*
X-55500Y-98000D02*
X-52500D01*
X-54000Y-99500D02*
Y-96500D01*
X-55500Y-91000D02*
X-52500D01*
X-54000Y-92500D02*
Y-89500D01*
X-42500Y-82000D02*
X-39500D01*
X-41000Y-83500D02*
Y-80500D01*
X-42500Y-75000D02*
X-39500D01*
X-41000Y-76500D02*
Y-73500D01*
X-42500Y-68000D02*
X-39500D01*
X-41000Y-69500D02*
Y-66500D01*
X-42500Y-61000D02*
X-39500D01*
X-41000Y-62500D02*
Y-59500D01*
X-55500Y117000D02*
X-52500D01*
X-54000Y115500D02*
Y118500D01*
X-34500Y137000D02*
X-31500D01*
X-33000Y135500D02*
Y138500D01*
X-2500Y132000D02*
X500D01*
X-1000Y130500D02*
Y133500D01*
X-13500Y144000D02*
X-10500D01*
X-12000Y142500D02*
Y145500D01*
X-26500Y143000D02*
X-23500D01*
X-25000Y141500D02*
Y144500D01*
X43500Y9000D02*
X46500D01*
X45000Y7500D02*
Y10500D01*
X38500Y15000D02*
X41500D01*
X40000Y13500D02*
Y16500D01*
X10500Y21000D02*
X13500D01*
X12000Y19500D02*
Y22500D01*
X38500Y23000D02*
X41500D01*
X40000Y21500D02*
Y24500D01*
X11500Y31000D02*
X14500D01*
X13000Y29500D02*
Y32500D01*
X11500Y40000D02*
X14500D01*
X13000Y38500D02*
Y41500D01*
X10500Y48000D02*
X13500D01*
X12000Y46500D02*
Y49500D01*
X4500Y62000D02*
X7500D01*
X6000Y60500D02*
Y63500D01*
X11500Y62000D02*
X14500D01*
X13000Y60500D02*
Y63500D01*
X4500Y69000D02*
X7500D01*
X6000Y67500D02*
Y70500D01*
X11500Y69000D02*
X14500D01*
X13000Y67500D02*
Y70500D01*
X58267Y69602D02*
X61267D01*
X59767Y68102D02*
Y71102D01*
X11500Y76000D02*
X14500D01*
X13000Y74500D02*
Y77500D01*
X4500Y76000D02*
X7500D01*
X6000Y74500D02*
Y77500D01*
X8500Y82000D02*
X11500D01*
X10000Y80500D02*
Y83500D01*
X55500Y97000D02*
X58500D01*
X57000Y95500D02*
Y98500D01*
X55500Y104000D02*
X58500D01*
X57000Y102500D02*
Y105500D01*
X48500Y104000D02*
X51500D01*
X50000Y102500D02*
Y105500D01*
X40500Y182000D02*
X43500D01*
X42000Y180500D02*
Y183500D01*
X40500Y189000D02*
X43500D01*
X42000Y187500D02*
Y190500D01*
X35500Y212000D02*
X38500D01*
X37000Y210500D02*
Y213500D01*
X56500Y214000D02*
X59500D01*
X58000Y212500D02*
Y215500D01*
X-500Y217000D02*
X2500D01*
X1000Y215500D02*
Y218500D01*
X35500Y219000D02*
X38500D01*
X37000Y217500D02*
Y220500D01*
X56500Y224000D02*
X59500D01*
X58000Y222500D02*
Y225500D01*
X-46500Y269000D02*
X-43500D01*
X-45000Y267500D02*
Y270500D01*
X-46500Y255000D02*
X-43500D01*
X-45000Y253500D02*
Y256500D01*
X-46500Y262000D02*
X-43500D01*
X-45000Y260500D02*
Y263500D01*
X-45500Y320000D02*
X-42500D01*
X-44000Y318500D02*
Y321500D01*
X-52500Y320000D02*
X-49500D01*
X-51000Y318500D02*
Y321500D01*
X-52500Y327000D02*
X-49500D01*
X-51000Y325500D02*
Y328500D01*
X-45500Y327000D02*
X-42500D01*
X-44000Y325500D02*
Y328500D01*
X-55000Y351451D02*
X-52000D01*
X-53500Y349951D02*
Y352951D01*
X-55500Y415000D02*
X-52500D01*
X-54000Y413500D02*
Y416500D01*
X-55500Y422000D02*
X-52500D01*
X-54000Y420500D02*
Y423500D01*
X-55500Y429000D02*
X-52500D01*
X-54000Y427500D02*
Y430500D01*
X-55500Y436000D02*
X-52500D01*
X-54000Y434500D02*
Y437500D01*
X-18500Y557000D02*
X-15500D01*
X-17000Y555500D02*
Y558500D01*
X-39500Y579000D02*
X-36500D01*
X-38000Y577500D02*
Y580500D01*
X-54500Y587000D02*
X-51500D01*
X-53000Y585500D02*
Y588500D01*
X-13500Y591000D02*
X-10500D01*
X-12000Y589500D02*
Y592500D01*
X-55500Y750000D02*
X-52500D01*
X-54000Y748500D02*
Y751500D01*
X-55500Y647000D02*
X-52500D01*
X-54000Y645500D02*
Y648500D01*
X-50500Y727000D02*
X-47500D01*
X-49000Y725500D02*
Y728500D01*
X-48500Y750000D02*
X-45500D01*
X-47000Y748500D02*
Y751500D01*
X-41500Y750000D02*
X-38500D01*
X-40000Y748500D02*
Y751500D01*
X39500Y228000D02*
X42500D01*
X41000Y226500D02*
Y229500D01*
X35500Y238000D02*
X38500D01*
X37000Y236500D02*
Y239500D01*
X-500Y343000D02*
X2500D01*
X1000Y341500D02*
Y344500D01*
X57500Y260000D02*
X60500D01*
X59000Y258500D02*
Y261500D01*
X22500Y260000D02*
X25500D01*
X24000Y258500D02*
Y261500D01*
X16500Y268000D02*
X19500D01*
X18000Y266500D02*
Y269500D01*
X48500Y271000D02*
X51500D01*
X50000Y269500D02*
Y272500D01*
X11500Y274000D02*
X14500D01*
X13000Y272500D02*
Y275500D01*
X57500Y293000D02*
X60500D01*
X59000Y291500D02*
Y294500D01*
X43500Y295000D02*
X46500D01*
X45000Y293500D02*
Y296500D01*
X41500Y306000D02*
X44500D01*
X43000Y304500D02*
Y307500D01*
X41500Y314000D02*
X44500D01*
X43000Y312500D02*
Y315500D01*
X32500Y323000D02*
X35500D01*
X34000Y321500D02*
Y324500D01*
X-6500Y337000D02*
X-3500D01*
X-5000Y335500D02*
Y338500D01*
X57500Y347000D02*
X60500D01*
X59000Y345500D02*
Y348500D01*
X57500Y354000D02*
X60500D01*
X59000Y352500D02*
Y355500D01*
X8500Y540000D02*
X11500D01*
X10000Y538500D02*
Y541500D01*
X500Y547000D02*
X3500D01*
X2000Y545500D02*
Y548500D01*
X-5500Y564000D02*
X-2500D01*
X-4000Y562500D02*
Y565500D01*
X49500Y566000D02*
X52500D01*
X51000Y564500D02*
Y567500D01*
X56500Y566000D02*
X59500D01*
X58000Y564500D02*
Y567500D01*
X-500Y570000D02*
X2500D01*
X1000Y568500D02*
Y571500D01*
X49500Y573000D02*
X52500D01*
X51000Y571500D02*
Y574500D01*
X56500Y573000D02*
X59500D01*
X58000Y571500D02*
Y574500D01*
X26500Y599000D02*
X29500D01*
X28000Y597500D02*
Y600500D01*
X26500Y607000D02*
X29500D01*
X28000Y605500D02*
Y608500D01*
X26500Y615000D02*
X29500D01*
X28000Y613500D02*
Y616500D01*
X35095Y641405D02*
X38095D01*
X36595Y639905D02*
Y642905D01*
X40500Y652000D02*
X43500D01*
X42000Y650500D02*
Y653500D01*
X40500Y659000D02*
X43500D01*
X42000Y657500D02*
Y660500D01*
X77500Y142000D02*
X80500D01*
X79000Y140500D02*
Y143500D01*
X58500Y59000D02*
X61500D01*
X60000Y57500D02*
Y60500D01*
X58500Y48000D02*
X61500D01*
X60000Y46500D02*
Y49500D01*
X58500Y41000D02*
X61500D01*
X60000Y39500D02*
Y42500D01*
X78500Y105000D02*
X81500D01*
X80000Y103500D02*
Y106500D01*
X77500Y149000D02*
X80500D01*
X79000Y147500D02*
Y150500D01*
X58500Y281000D02*
X61500D01*
X60000Y279500D02*
Y282500D01*
X86500Y3000D02*
X89500D01*
X88000Y1500D02*
Y4500D01*
X86500Y10000D02*
X89500D01*
X88000Y8500D02*
Y11500D01*
X86500Y17000D02*
X89500D01*
X88000Y15500D02*
Y18500D01*
X86500Y-4000D02*
X89500D01*
X88000Y-5500D02*
Y-2500D01*
X86500Y24000D02*
X89500D01*
X88000Y22500D02*
Y25500D01*
X86500Y31000D02*
X89500D01*
X88000Y29500D02*
Y32500D01*
X156500Y285000D02*
X159500D01*
X158000Y283500D02*
Y286500D01*
X156500Y292000D02*
X159500D01*
X158000Y290500D02*
Y293500D01*
X197500Y-6000D02*
X200500D01*
X199000Y-7500D02*
Y-4500D01*
X206500Y-6000D02*
X209500D01*
X208000Y-7500D02*
Y-4500D01*
X197500Y2000D02*
X200500D01*
X199000Y500D02*
Y3500D01*
X206500Y2000D02*
X209500D01*
X208000Y500D02*
Y3500D01*
X197500Y10000D02*
X200500D01*
X199000Y8500D02*
Y11500D01*
X206500Y10000D02*
X209500D01*
X208000Y8500D02*
Y11500D01*
X249500Y23000D02*
X252500D01*
X251000Y21500D02*
Y24500D01*
X249500Y31000D02*
X252500D01*
X251000Y29500D02*
Y32500D01*
X249500Y39000D02*
X252500D01*
X251000Y37500D02*
Y40500D01*
X212500Y75000D02*
X215500D01*
X214000Y73500D02*
Y76500D01*
X189500Y47000D02*
X192500D01*
X191000Y45500D02*
Y48500D01*
X221500Y61000D02*
X224500D01*
X223000Y59500D02*
Y62500D01*
X221500Y67000D02*
X224500D01*
X223000Y65500D02*
Y68500D01*
X188500Y75000D02*
X191500D01*
X190000Y73500D02*
Y76500D01*
X221500Y91000D02*
X224500D01*
X223000Y89500D02*
Y92500D01*
X228500Y91000D02*
X231500D01*
X230000Y89500D02*
Y92500D01*
X188500Y109000D02*
X191500D01*
X190000Y107500D02*
Y110500D01*
X186500Y234000D02*
X189500D01*
X188000Y232500D02*
Y235500D01*
X212500Y244000D02*
X215500D01*
X214000Y242500D02*
Y245500D01*
X201500Y284000D02*
X204500D01*
X203000Y282500D02*
Y285500D01*
X201500Y292000D02*
X204500D01*
X203000Y290500D02*
Y293500D01*
X156500Y299000D02*
X159500D01*
X158000Y297500D02*
Y300500D01*
X156500Y306000D02*
X159500D01*
X158000Y304500D02*
Y307500D01*
X222500Y321500D02*
X225500D01*
X224000Y320000D02*
Y323000D01*
X228500Y561000D02*
X231500D01*
X230000Y559500D02*
Y562500D01*
X158500Y420000D02*
X161500D01*
X160000Y418500D02*
Y421500D01*
X166500Y420000D02*
X169500D01*
X168000Y418500D02*
Y421500D01*
X158500Y428000D02*
X161500D01*
X160000Y426500D02*
Y429500D01*
X166500Y428000D02*
X169500D01*
X168000Y426500D02*
Y429500D01*
X158500Y436000D02*
X161500D01*
X160000Y434500D02*
Y437500D01*
X166500Y436000D02*
X169500D01*
X168000Y434500D02*
Y437500D01*
X197500Y456000D02*
X200500D01*
X199000Y454500D02*
Y457500D01*
X197500Y464000D02*
X200500D01*
X199000Y462500D02*
Y465500D01*
X197500Y472000D02*
X200500D01*
X199000Y470500D02*
Y473500D01*
X197500Y480000D02*
X200500D01*
X199000Y478500D02*
Y481500D01*
X221500Y561000D02*
X224500D01*
X223000Y559500D02*
Y562500D01*
X59500Y496000D02*
X62500D01*
X61000Y494500D02*
Y497500D01*
X59500Y503000D02*
X62500D01*
X61000Y501500D02*
Y504500D01*
X59500Y510000D02*
X62500D01*
X61000Y508500D02*
Y511500D01*
X59500Y517000D02*
X62500D01*
X61000Y515500D02*
Y518500D01*
X189500Y517000D02*
X192500D01*
X191000Y515500D02*
Y518500D01*
X59500Y528000D02*
X62500D01*
X61000Y526500D02*
Y529500D01*
X59267Y538602D02*
X62267D01*
X60767Y537102D02*
Y540102D01*
X188500Y545000D02*
X191500D01*
X190000Y543500D02*
Y546500D01*
X70500Y573000D02*
X73500D01*
X72000Y571500D02*
Y574500D01*
X78500Y573000D02*
X81500D01*
X80000Y571500D02*
Y574500D01*
X188500Y579000D02*
X191500D01*
X190000Y577500D02*
Y580500D01*
X73500Y612000D02*
X76500D01*
X75000Y610500D02*
Y613500D01*
X85500Y612000D02*
X88500D01*
X87000Y610500D02*
Y613500D01*
X61500Y685000D02*
X64500D01*
X63000Y683500D02*
Y686500D01*
X206500Y370000D02*
X209500D01*
X208000Y368500D02*
Y371500D01*
X213500Y370000D02*
X216500D01*
X215000Y368500D02*
Y371500D01*
X212500Y545000D02*
X215500D01*
X214000Y543500D02*
Y546500D01*
X206500Y456000D02*
X209500D01*
X208000Y454500D02*
Y457500D01*
X206500Y464000D02*
X209500D01*
X208000Y462500D02*
Y465500D01*
X206500Y472000D02*
X209500D01*
X208000Y470500D02*
Y473500D01*
X206500Y480000D02*
X209500D01*
X208000Y478500D02*
Y481500D01*
X249500Y485000D02*
X252500D01*
X251000Y483500D02*
Y486500D01*
X249500Y493000D02*
X252500D01*
X251000Y491500D02*
Y494500D01*
X249500Y501000D02*
X252500D01*
X251000Y499500D02*
Y502500D01*
X249500Y509000D02*
X252500D01*
X251000Y507500D02*
Y510500D01*
X221500Y537000D02*
X224500D01*
X223000Y535500D02*
Y538500D01*
X221500Y531000D02*
X224500D01*
X223000Y529500D02*
Y532500D01*
X59500Y461000D02*
X62500D01*
X61000Y459500D02*
Y462500D01*
X59500Y468000D02*
X62500D01*
X61000Y466500D02*
Y469500D01*
X59500Y475000D02*
X62500D01*
X61000Y473500D02*
Y476500D01*
X59500Y482000D02*
X62500D01*
X61000Y480500D02*
Y483500D01*
X59500Y489000D02*
X62500D01*
X61000Y487500D02*
Y490500D01*
X-16500Y613000D02*
X-13500D01*
X-15000Y611500D02*
Y614500D01*
X-19500Y626000D02*
X-16500D01*
X-18000Y624500D02*
Y627500D01*
X-12500Y632000D02*
X-9500D01*
X-11000Y630500D02*
Y633500D01*
X-37500Y665000D02*
X-34500D01*
X-36000Y663500D02*
Y666500D01*
X-32395Y689500D02*
X-29395D01*
X-30895Y688000D02*
Y691000D01*
X-32500Y711000D02*
X-29500D01*
X-31000Y709500D02*
Y712500D01*
X-32500Y723000D02*
X-29500D01*
X-31000Y721500D02*
Y724500D01*
X-32500Y730000D02*
X-29500D01*
X-31000Y728500D02*
Y731500D01*
X-32500Y737000D02*
X-29500D01*
X-31000Y735500D02*
Y738500D01*
X-34500Y750000D02*
X-31500D01*
X-33000Y748500D02*
Y751500D01*
X-14500Y-1000D02*
X-11500D01*
X-13000Y-2500D02*
Y500D01*
X-40500Y3000D02*
X-37500D01*
X-39000Y1500D02*
Y4500D01*
X-244500Y-560000D02*
X-241500D01*
X-243000Y-561500D02*
Y-558500D01*
X-244500Y-82000D02*
X-241500D01*
X-243000Y-83500D02*
Y-80500D01*
X-244500Y-90000D02*
X-241500D01*
X-243000Y-91500D02*
Y-88500D01*
X-244500Y-66000D02*
X-241500D01*
X-243000Y-67500D02*
Y-64500D01*
X-244500Y-74000D02*
X-241500D01*
X-243000Y-75500D02*
Y-72500D01*
X-156500Y-470000D02*
X-153500D01*
X-155000Y-471500D02*
Y-468500D01*
X-156500Y-463000D02*
X-153500D01*
X-155000Y-464500D02*
Y-461500D01*
X-84500Y-661000D02*
X-81500D01*
X-83000Y-662500D02*
Y-659500D01*
X-84500Y-623000D02*
X-81500D01*
X-83000Y-624500D02*
Y-621500D01*
X-77500Y-623000D02*
X-74500D01*
X-76000Y-624500D02*
Y-621500D01*
X-76500Y-661000D02*
X-73500D01*
X-75000Y-662500D02*
Y-659500D01*
X-55500Y-531000D02*
X-52500D01*
X-54000Y-532500D02*
Y-529500D01*
X-55500Y-578000D02*
X-52500D01*
X-54000Y-579500D02*
Y-576500D01*
X-55500Y-538000D02*
X-52500D01*
X-54000Y-539500D02*
Y-536500D01*
X-55500Y-559000D02*
X-52500D01*
X-54000Y-560500D02*
Y-557500D01*
X-55500Y-524000D02*
X-52500D01*
X-54000Y-525500D02*
Y-522500D01*
X-55500Y-566000D02*
X-52500D01*
X-54000Y-567500D02*
Y-564500D01*
X-55500Y-517000D02*
X-52500D01*
X-54000Y-518500D02*
Y-515500D01*
X-154500Y-359000D02*
X-151500D01*
X-153000Y-360500D02*
Y-357500D01*
X-154500Y-352000D02*
X-151500D01*
X-153000Y-353500D02*
Y-350500D01*
X-154500Y-345000D02*
X-151500D01*
X-153000Y-346500D02*
Y-343500D01*
X-84500Y-154000D02*
X-81500D01*
X-83000Y-155500D02*
Y-152500D01*
X-84500Y-192000D02*
X-81500D01*
X-83000Y-193500D02*
Y-190500D01*
X-77500Y-154000D02*
X-74500D01*
X-76000Y-155500D02*
Y-152500D01*
X-76500Y-192000D02*
X-73500D01*
X-75000Y-193500D02*
Y-190500D01*
X-75500Y-418000D02*
X-72500D01*
X-74000Y-419500D02*
Y-416500D01*
X-75500Y-411000D02*
X-72500D01*
X-74000Y-412500D02*
Y-409500D01*
X-56500Y-352000D02*
X-53500D01*
X-55000Y-353500D02*
Y-350500D01*
X-56500Y-285000D02*
X-53500D01*
X-55000Y-286500D02*
Y-283500D01*
X-56500Y-292000D02*
X-53500D01*
X-55000Y-293500D02*
Y-290500D01*
X-244500Y380000D02*
X-241500D01*
X-243000Y378500D02*
Y381500D01*
X-244500Y388000D02*
X-241500D01*
X-243000Y386500D02*
Y389500D01*
X-244500Y404000D02*
X-241500D01*
X-243000Y402500D02*
Y405500D01*
X-244500Y396000D02*
X-241500D01*
X-243000Y394500D02*
Y397500D01*
X-156500Y7000D02*
X-153500D01*
X-155000Y5500D02*
Y8500D01*
X-154500Y104000D02*
X-151500D01*
X-153000Y102500D02*
Y105500D01*
X-154500Y111000D02*
X-151500D01*
X-153000Y109500D02*
Y112500D01*
X-154500Y125000D02*
X-151500D01*
X-153000Y123500D02*
Y126500D01*
X-154500Y118000D02*
X-151500D01*
X-153000Y116500D02*
Y119500D01*
X-84500Y316000D02*
X-81500D01*
X-83000Y314500D02*
Y317500D01*
X-77500Y316000D02*
X-74500D01*
X-76000Y314500D02*
Y317500D01*
X-72500Y277000D02*
X-69500D01*
X-71000Y275500D02*
Y278500D01*
X-74500Y57000D02*
X-71500D01*
X-73000Y55500D02*
Y58500D01*
X-74500Y50000D02*
X-71500D01*
X-73000Y48500D02*
Y51500D01*
X-71500Y-18000D02*
X-68500D01*
X-70000Y-19500D02*
Y-16500D01*
X-56967Y176387D02*
X-53967D01*
X-55467Y174887D02*
Y177887D01*
X-55500Y362000D02*
X-52500D01*
X-54000Y360500D02*
Y363500D01*
X-55500Y373000D02*
X-52500D01*
X-54000Y371500D02*
Y374500D01*
X-190500Y417000D02*
X-187500D01*
X-189000Y415500D02*
Y418500D01*
X-190500Y425000D02*
X-187500D01*
X-189000Y423500D02*
Y426500D01*
X-190500Y433000D02*
X-187500D01*
X-189000Y431500D02*
Y434500D01*
X-190500Y441000D02*
X-187500D01*
X-189000Y439500D02*
Y442500D01*
X-190500Y673000D02*
X-187500D01*
X-189000Y671500D02*
Y674500D01*
X-188500Y747000D02*
X-185500D01*
X-187000Y745500D02*
Y748500D01*
X-184500Y646000D02*
X-181500D01*
X-183000Y644500D02*
Y647500D01*
X-182500Y673000D02*
X-179500D01*
X-181000Y671500D02*
Y674500D01*
X-164500Y456000D02*
X-161500D01*
X-163000Y454500D02*
Y457500D01*
X-164500Y463000D02*
X-161500D01*
X-163000Y461500D02*
Y464500D01*
X-164500Y470000D02*
X-161500D01*
X-163000Y468500D02*
Y471500D01*
X-164500Y477000D02*
X-161500D01*
X-163000Y475500D02*
Y478500D01*
X-156500Y456000D02*
X-153500D01*
X-155000Y454500D02*
Y457500D01*
X-156500Y463000D02*
X-153500D01*
X-155000Y461500D02*
Y464500D01*
X-156500Y470000D02*
X-153500D01*
X-155000Y468500D02*
Y471500D01*
X-156500Y477000D02*
X-153500D01*
X-155000Y475500D02*
Y478500D01*
X-154500Y581000D02*
X-151500D01*
X-153000Y579500D02*
Y582500D01*
X-154500Y595000D02*
X-151500D01*
X-153000Y593500D02*
Y596500D01*
X-154500Y588000D02*
X-151500D01*
X-153000Y586500D02*
Y589500D01*
X-154500Y574000D02*
X-151500D01*
X-153000Y572500D02*
Y575500D01*
X-76500Y663000D02*
X-73500D01*
X-75000Y661500D02*
Y664500D01*
X-76500Y654000D02*
X-73500D01*
X-75000Y652500D02*
Y655500D01*
X-75500Y527000D02*
X-72500D01*
X-74000Y525500D02*
Y528500D01*
X-68500Y654000D02*
X-65500D01*
X-67000Y652500D02*
Y655500D01*
X-68500Y663000D02*
X-65500D01*
X-67000Y661500D02*
Y664500D01*
X-64500Y527000D02*
X-61500D01*
X-63000Y525500D02*
Y528500D01*
X-58500Y710000D02*
X-55500D01*
X-57000Y708500D02*
Y711500D01*
X-55500Y380000D02*
X-52500D01*
X-54000Y378500D02*
Y381500D01*
X-55500Y387000D02*
X-52500D01*
X-54000Y385500D02*
Y388500D01*
X-55500Y394000D02*
X-52500D01*
X-54000Y392500D02*
Y395500D01*
X-55500Y401000D02*
X-52500D01*
X-54000Y399500D02*
Y402500D01*
X-55500Y408000D02*
X-52500D01*
X-54000Y406500D02*
Y409500D01*
X59500Y-714000D02*
X62500D01*
X61000Y-715500D02*
Y-712500D01*
X51500Y-714000D02*
X54500D01*
X53000Y-715500D02*
Y-712500D01*
X186500Y-706000D02*
X189500D01*
X188000Y-707500D02*
Y-704500D01*
X156500Y-655000D02*
X159500D01*
X158000Y-656500D02*
Y-653500D01*
X156500Y-648000D02*
X159500D01*
X158000Y-649500D02*
Y-646500D01*
X58500Y-645000D02*
X61500D01*
X60000Y-646500D02*
Y-643500D01*
X156500Y-641000D02*
X159500D01*
X158000Y-642500D02*
Y-639500D01*
X156500Y-634000D02*
X159500D01*
X158000Y-635500D02*
Y-632500D01*
X58500Y-594000D02*
X61500D01*
X60000Y-595500D02*
Y-592500D01*
X58500Y-587000D02*
X61500D01*
X60000Y-588500D02*
Y-585500D01*
X158500Y-520000D02*
X161500D01*
X160000Y-521500D02*
Y-518500D01*
X166500Y-520000D02*
X169500D01*
X168000Y-521500D02*
Y-518500D01*
X158500Y-512000D02*
X161500D01*
X160000Y-513500D02*
Y-510500D01*
X166500Y-512000D02*
X169500D01*
X168000Y-513500D02*
Y-510500D01*
X158500Y-504000D02*
X161500D01*
X160000Y-505500D02*
Y-502500D01*
X166500Y-504000D02*
X169500D01*
X168000Y-505500D02*
Y-502500D01*
X5500Y-738000D02*
X8500D01*
X7000Y-739500D02*
Y-736500D01*
X13418Y-685082D02*
X16418D01*
X14918Y-686582D02*
Y-683582D01*
X6500Y-673000D02*
X9500D01*
X8000Y-674500D02*
Y-671500D01*
X26500Y-658000D02*
X29500D01*
X28000Y-659500D02*
Y-656500D01*
X41500Y-638000D02*
X44500D01*
X43000Y-639500D02*
Y-636500D01*
X6500Y-417000D02*
X9500D01*
X8000Y-418500D02*
Y-415500D01*
X500Y-595000D02*
X3500D01*
X2000Y-596500D02*
Y-593500D01*
X19500Y-488000D02*
X22500D01*
X21000Y-489500D02*
Y-486500D01*
X13500Y-478000D02*
X16500D01*
X15000Y-479500D02*
Y-476500D01*
X35500Y-449000D02*
X38500D01*
X37000Y-450500D02*
Y-447500D01*
X6500Y-438000D02*
X9500D01*
X8000Y-439500D02*
Y-436500D01*
X-6500Y-601000D02*
X-3500D01*
X-5000Y-602500D02*
Y-599500D01*
X-4500Y-415000D02*
X-1500D01*
X-3000Y-416500D02*
Y-413500D01*
X5440Y-396211D02*
X8440D01*
X6940Y-397711D02*
Y-394711D01*
X-500Y-391000D02*
X2500D01*
X1000Y-392500D02*
Y-389500D01*
X-1500Y-383000D02*
X1500D01*
X-0Y-384500D02*
Y-381500D01*
X12500Y-383000D02*
X15500D01*
X14000Y-384500D02*
Y-381500D01*
X4500Y-361000D02*
X7500D01*
X6000Y-362500D02*
Y-359500D01*
X17500Y-327000D02*
X20500D01*
X19000Y-328500D02*
Y-325500D01*
X24500Y-319000D02*
X27500D01*
X26000Y-320500D02*
Y-317500D01*
X29500Y-311701D02*
X32500D01*
X31000Y-313201D02*
Y-310201D01*
X35095Y-298595D02*
X38095D01*
X36595Y-300095D02*
Y-297095D01*
X40500Y-288000D02*
X43500D01*
X42000Y-289500D02*
Y-286500D01*
X40500Y-281000D02*
X43500D01*
X42000Y-282500D02*
Y-279500D01*
X35500Y-237000D02*
X38500D01*
X37000Y-238500D02*
Y-235500D01*
X8500Y-235000D02*
X11500D01*
X10000Y-236500D02*
Y-233500D01*
X8500Y-229000D02*
X11500D01*
X10000Y-230500D02*
Y-227500D01*
X8500Y-223000D02*
X11500D01*
X10000Y-224500D02*
Y-221500D01*
X32500Y-220000D02*
X35500D01*
X34000Y-221500D02*
Y-218500D01*
X8500Y-217000D02*
X11500D01*
X10000Y-218500D02*
Y-215500D01*
X27500Y-197000D02*
X30500D01*
X29000Y-198500D02*
Y-195500D01*
X21500Y-192000D02*
X24500D01*
X23000Y-193500D02*
Y-190500D01*
X-5582Y-191821D02*
X-2582D01*
X-4082Y-193321D02*
Y-190321D01*
X-6191Y-184000D02*
X-3191D01*
X-4690Y-185500D02*
Y-182500D01*
X-3500Y-176000D02*
X-500D01*
X-2000Y-177500D02*
Y-174500D01*
X29500Y-173000D02*
X32500D01*
X31000Y-174500D02*
Y-171500D01*
X-4500Y-136000D02*
X-1500D01*
X-3000Y-137500D02*
Y-134500D01*
X-14500Y-10000D02*
X-11500D01*
X-13000Y-11500D02*
Y-8500D01*
X-13500Y-68000D02*
X-10500D01*
X-12000Y-69500D02*
Y-66500D01*
X-13500Y-61000D02*
X-10500D01*
X-12000Y-62500D02*
Y-59500D01*
X-13500Y-54000D02*
X-10500D01*
X-12000Y-55500D02*
Y-52500D01*
X-1500Y-42000D02*
X1500D01*
X-0Y-43500D02*
Y-40500D01*
X-14500Y-35000D02*
X-11500D01*
X-13000Y-36500D02*
Y-33500D01*
X-13500Y-27000D02*
X-10500D01*
X-12000Y-28500D02*
Y-25500D01*
X-13500Y-18000D02*
X-10500D01*
X-12000Y-19500D02*
Y-16500D01*
X58500Y-486000D02*
X61500D01*
X60000Y-487500D02*
Y-484500D01*
X58500Y-479000D02*
X61500D01*
X60000Y-480500D02*
Y-477500D01*
X58500Y-472000D02*
X61500D01*
X60000Y-473500D02*
Y-470500D01*
X58500Y-465000D02*
X61500D01*
X60000Y-466500D02*
Y-463500D01*
X58500Y-458000D02*
X61500D01*
X60000Y-459500D02*
Y-456500D01*
X58500Y-451000D02*
X61500D01*
X60000Y-452500D02*
Y-449500D01*
X58500Y-444000D02*
X61500D01*
X60000Y-445500D02*
Y-442500D01*
X58500Y-437000D02*
X61500D01*
X60000Y-438500D02*
Y-435500D01*
X58500Y-430000D02*
X61500D01*
X60000Y-431500D02*
Y-428500D01*
X58500Y-423000D02*
X61500D01*
X60000Y-424500D02*
Y-421500D01*
X58500Y-412000D02*
X61500D01*
X60000Y-413500D02*
Y-410500D01*
X58267Y-401398D02*
X61267D01*
X59767Y-402898D02*
Y-399898D01*
X50500Y-374000D02*
X53500D01*
X52000Y-375500D02*
Y-372500D01*
X57500Y-374000D02*
X60500D01*
X59000Y-375500D02*
Y-372500D01*
X70500Y-367000D02*
X73500D01*
X72000Y-368500D02*
Y-365500D01*
X78500Y-367000D02*
X81500D01*
X80000Y-368500D02*
Y-365500D01*
X206500Y-476000D02*
X209500D01*
X208000Y-477500D02*
Y-474500D01*
X212500Y-696000D02*
X215500D01*
X214000Y-697500D02*
Y-694500D01*
X201500Y-656000D02*
X204500D01*
X203000Y-657500D02*
Y-654500D01*
X201500Y-648000D02*
X204500D01*
X203000Y-649500D02*
Y-646500D01*
X222500Y-618500D02*
X225500D01*
X224000Y-620000D02*
Y-617000D01*
X197500Y-476000D02*
X200500D01*
X199000Y-477500D02*
Y-474500D01*
X206500Y-570000D02*
X209500D01*
X208000Y-571500D02*
Y-568500D01*
X213500Y-570000D02*
X216500D01*
X215000Y-571500D02*
Y-568500D01*
X197500Y-484000D02*
X200500D01*
X199000Y-485500D02*
Y-482500D01*
X206500Y-484000D02*
X209500D01*
X208000Y-485500D02*
Y-482500D01*
X197500Y-468000D02*
X200500D01*
X199000Y-469500D02*
Y-466500D01*
X206500Y-468000D02*
X209500D01*
X208000Y-469500D02*
Y-466500D01*
X197500Y-460000D02*
X200500D01*
X199000Y-461500D02*
Y-458500D01*
X206500Y-460000D02*
X209500D01*
X208000Y-461500D02*
Y-458500D01*
X249500Y-455000D02*
X252500D01*
X251000Y-456500D02*
Y-453500D01*
X249500Y-447000D02*
X252500D01*
X251000Y-448500D02*
Y-445500D01*
X249500Y-439000D02*
X252500D01*
X251000Y-440500D02*
Y-437500D01*
X249500Y-431000D02*
X252500D01*
X251000Y-432500D02*
Y-429500D01*
X228500Y-379000D02*
X231500D01*
X230000Y-380500D02*
Y-377500D01*
X189500Y-423000D02*
X192500D01*
X191000Y-424500D02*
Y-421500D01*
X221500Y-409000D02*
X224500D01*
X223000Y-410500D02*
Y-407500D01*
X221500Y-403000D02*
X224500D01*
X223000Y-404500D02*
Y-401500D01*
X188500Y-395000D02*
X191500D01*
X190000Y-396500D02*
Y-393500D01*
X212500Y-395000D02*
X215500D01*
X214000Y-396500D02*
Y-393500D01*
X221500Y-379000D02*
X224500D01*
X223000Y-380500D02*
Y-377500D01*
X57500Y-367000D02*
X60500D01*
X59000Y-368500D02*
Y-365500D01*
X50500Y-367000D02*
X53500D01*
X52000Y-368500D02*
Y-365500D01*
X70500Y-329000D02*
X73500D01*
X72000Y-330500D02*
Y-327500D01*
X48500Y-264000D02*
X51500D01*
X50000Y-265500D02*
Y-262500D01*
X55500Y-259000D02*
X58500D01*
X57000Y-260500D02*
Y-257500D01*
X63500Y-256000D02*
X66500D01*
X65000Y-257500D02*
Y-254500D01*
X46500Y-253000D02*
X49500D01*
X48000Y-254500D02*
Y-251500D01*
X52500Y-248000D02*
X55500D01*
X54000Y-249500D02*
Y-246500D01*
X58500Y-239000D02*
X61500D01*
X60000Y-240500D02*
Y-237500D01*
X57500Y-222000D02*
X60500D01*
X59000Y-223500D02*
Y-220500D01*
X53500Y-215000D02*
X56500D01*
X55000Y-216500D02*
Y-213500D01*
X57500Y-196000D02*
X60500D01*
X59000Y-197500D02*
Y-194500D01*
X57500Y-188000D02*
X60500D01*
X59000Y-189500D02*
Y-186500D01*
X57500Y-177000D02*
X60500D01*
X59000Y-178500D02*
Y-175500D01*
X-4500Y-128000D02*
X-1500D01*
X-3000Y-129500D02*
Y-126500D01*
X500Y-117000D02*
X3500D01*
X2000Y-118500D02*
Y-115500D01*
X-13500Y-96000D02*
X-10500D01*
X-12000Y-97500D02*
Y-94500D01*
X-13500Y-89000D02*
X-10500D01*
X-12000Y-90500D02*
Y-87500D01*
X46500Y-84000D02*
X49500D01*
X48000Y-85500D02*
Y-82500D01*
X-13500Y-82000D02*
X-10500D01*
X-12000Y-83500D02*
Y-80500D01*
X46500Y-77000D02*
X49500D01*
X48000Y-78500D02*
Y-75500D01*
X-13500Y-75000D02*
X-10500D01*
X-12000Y-76500D02*
Y-73500D01*
X188500Y-361000D02*
X191500D01*
X190000Y-362500D02*
Y-359500D01*
X78500Y-329000D02*
X81500D01*
X80000Y-330500D02*
Y-327500D01*
X186500Y-236000D02*
X189500D01*
X188000Y-237500D02*
Y-234500D01*
X222500Y-148500D02*
X225500D01*
X224000Y-150000D02*
Y-147000D01*
X212500Y-226000D02*
X215500D01*
X214000Y-227500D02*
Y-224500D01*
X201500Y-186000D02*
X204500D01*
X203000Y-187500D02*
Y-184500D01*
X156500Y-185000D02*
X159500D01*
X158000Y-186500D02*
Y-183500D01*
X156500Y-178000D02*
X159500D01*
X158000Y-179500D02*
Y-176500D01*
X201500Y-178000D02*
X204500D01*
X203000Y-179500D02*
Y-176500D01*
X156500Y-171000D02*
X159500D01*
X158000Y-172500D02*
Y-169500D01*
X156500Y-164000D02*
X159500D01*
X158000Y-165500D02*
Y-162500D01*
X87500Y-122000D02*
X90500D01*
X89000Y-123500D02*
Y-120500D01*
X87500Y-115000D02*
X90500D01*
X89000Y-116500D02*
Y-113500D01*
X86500Y-11000D02*
X89500D01*
X88000Y-12500D02*
Y-9500D01*
X206500Y-100000D02*
X209500D01*
X208000Y-101500D02*
Y-98500D01*
X213500Y-100000D02*
X216500D01*
X215000Y-101500D02*
Y-98500D01*
X158500Y-50000D02*
X161500D01*
X160000Y-51500D02*
Y-48500D01*
X166500Y-50000D02*
X169500D01*
X168000Y-51500D02*
Y-48500D01*
X158500Y-42000D02*
X161500D01*
X160000Y-43500D02*
Y-40500D01*
X166500Y-42000D02*
X169500D01*
X168000Y-43500D02*
Y-40500D01*
X158500Y-34000D02*
X161500D01*
X160000Y-35500D02*
Y-32500D01*
X166500Y-34000D02*
X169500D01*
X168000Y-35500D02*
Y-32500D01*
X197500Y-14000D02*
X200500D01*
X199000Y-15500D02*
Y-12500D01*
X206500Y-14000D02*
X209500D01*
X208000Y-15500D02*
Y-12500D01*
X56500Y-169000D02*
X59500D01*
X58000Y-170500D02*
Y-167500D01*
X52500Y-161000D02*
X55500D01*
X54000Y-162500D02*
Y-159500D01*
X52500Y-153000D02*
X55500D01*
X54000Y-154500D02*
Y-151500D01*
X50500Y-131000D02*
X53500D01*
X52000Y-132500D02*
Y-129500D01*
X46500Y-119000D02*
X49500D01*
X48000Y-120500D02*
Y-117500D01*
X46500Y-112000D02*
X49500D01*
X48000Y-113500D02*
Y-110500D01*
X46500Y-105000D02*
X49500D01*
X48000Y-106500D02*
Y-103500D01*
X46500Y-98000D02*
X49500D01*
X48000Y-99500D02*
Y-96500D01*
X46500Y-91000D02*
X49500D01*
X48000Y-92500D02*
Y-89500D01*
X46500Y-70000D02*
X49500D01*
X48000Y-71500D02*
Y-68500D01*
X46500Y-63000D02*
X49500D01*
X48000Y-64500D02*
Y-61500D01*
X49500Y-51000D02*
X52500D01*
X51000Y-52500D02*
Y-49500D01*
X54500Y-19000D02*
X57500D01*
X56000Y-20500D02*
Y-17500D01*
X61500Y-47000D02*
X64500D01*
X63000Y-48500D02*
Y-45500D01*
X55500Y-38000D02*
X58500D01*
X57000Y-39500D02*
Y-36500D01*
X-543500Y-715000D02*
X-540500D01*
X-542000Y-716500D02*
Y-713500D01*
X-520500Y-727000D02*
X-517500D01*
X-519000Y-728500D02*
Y-725500D01*
X-520500Y-715000D02*
X-517500D01*
X-519000Y-716500D02*
Y-713500D01*
X-680500Y-756000D02*
X-677500D01*
X-679000Y-757500D02*
Y-754500D01*
X-689500Y-756000D02*
X-686500D01*
X-688000Y-757500D02*
Y-754500D01*
X-698500Y-756000D02*
X-695500D01*
X-697000Y-757500D02*
Y-754500D01*
X-707500Y-756000D02*
X-704500D01*
X-706000Y-757500D02*
Y-754500D01*
X-716500Y-756000D02*
X-713500D01*
X-715000Y-757500D02*
Y-754500D01*
X-681500Y-738000D02*
X-678500D01*
X-680000Y-739500D02*
Y-736500D01*
X-690500Y-738000D02*
X-687500D01*
X-689000Y-739500D02*
Y-736500D01*
X-795100Y-676000D02*
X-792100D01*
X-793600Y-677500D02*
Y-674500D01*
X-826500Y-756000D02*
X-823500D01*
X-825000Y-757500D02*
Y-754500D01*
X-817500Y-756000D02*
X-814500D01*
X-816000Y-757500D02*
Y-754500D01*
X-808500Y-756000D02*
X-805500D01*
X-807000Y-757500D02*
Y-754500D01*
X-799500Y-756000D02*
X-796500D01*
X-798000Y-757500D02*
Y-754500D01*
X-790500Y-756000D02*
X-787500D01*
X-789000Y-757500D02*
Y-754500D01*
X-1138500Y-664000D02*
X-1135500D01*
X-1137000Y-665500D02*
Y-662500D01*
X-669500Y741000D02*
X-666500D01*
X-668000Y739500D02*
Y742500D01*
X-676500Y741000D02*
X-673500D01*
X-675000Y739500D02*
Y742500D01*
X-662500Y741000D02*
X-659500D01*
X-661000Y739500D02*
Y742500D01*
X-883500Y516875D02*
X-880500D01*
X-882000Y515375D02*
Y518375D01*
X-883500Y523875D02*
X-880500D01*
X-882000Y522375D02*
Y525375D01*
X-883500Y530875D02*
X-880500D01*
X-882000Y529375D02*
Y532375D01*
X-883500Y537875D02*
X-880500D01*
X-882000Y536375D02*
Y539375D01*
X-890500Y516875D02*
X-887500D01*
X-889000Y515375D02*
Y518375D01*
X-890500Y523875D02*
X-887500D01*
X-889000Y522375D02*
Y525375D01*
X-890500Y530875D02*
X-887500D01*
X-889000Y529375D02*
Y532375D01*
X-890500Y537875D02*
X-887500D01*
X-889000Y536375D02*
Y539375D01*
X-897500Y537875D02*
X-894500D01*
X-896000Y536375D02*
Y539375D01*
X-897500Y530875D02*
X-894500D01*
X-896000Y529375D02*
Y532375D01*
X-897500Y523875D02*
X-894500D01*
X-896000Y522375D02*
Y525375D01*
X-897500Y516875D02*
X-894500D01*
X-896000Y515375D02*
Y518375D01*
X-904500Y523875D02*
X-901500D01*
X-903000Y522375D02*
Y525375D01*
X-904500Y530875D02*
X-901500D01*
X-903000Y529375D02*
Y532375D01*
X-904500Y537875D02*
X-901500D01*
X-903000Y536375D02*
Y539375D01*
X-904500Y516875D02*
X-901500D01*
X-903000Y515375D02*
Y518375D01*
X-883500Y544875D02*
X-880500D01*
X-882000Y543375D02*
Y546375D01*
X-890500Y544875D02*
X-887500D01*
X-889000Y543375D02*
Y546375D01*
X-897500Y544875D02*
X-894500D01*
X-896000Y543375D02*
Y546375D01*
X-904500Y544875D02*
X-901500D01*
X-903000Y543375D02*
Y546375D01*
X-911500Y544875D02*
X-908500D01*
X-910000Y543375D02*
Y546375D01*
X-911500Y537875D02*
X-908500D01*
X-910000Y536375D02*
Y539375D01*
X-911500Y530875D02*
X-908500D01*
X-910000Y529375D02*
Y532375D01*
X-911500Y523875D02*
X-908500D01*
X-910000Y522375D02*
Y525375D01*
X-911500Y516875D02*
X-908500D01*
X-910000Y515375D02*
Y518375D01*
X-1027500Y516875D02*
X-1024500D01*
X-1026000Y515375D02*
Y518375D01*
X-1027500Y523875D02*
X-1024500D01*
X-1026000Y522375D02*
Y525375D01*
X-1027500Y530875D02*
X-1024500D01*
X-1026000Y529375D02*
Y532375D01*
X-1027500Y537875D02*
X-1024500D01*
X-1026000Y536375D02*
Y539375D01*
X-1034500Y516875D02*
X-1031500D01*
X-1033000Y515375D02*
Y518375D01*
X-1034500Y523875D02*
X-1031500D01*
X-1033000Y522375D02*
Y525375D01*
X-1034500Y530875D02*
X-1031500D01*
X-1033000Y529375D02*
Y532375D01*
X-1034500Y537875D02*
X-1031500D01*
X-1033000Y536375D02*
Y539375D01*
X-1041500Y537875D02*
X-1038500D01*
X-1040000Y536375D02*
Y539375D01*
X-1041500Y530875D02*
X-1038500D01*
X-1040000Y529375D02*
Y532375D01*
X-1041500Y523875D02*
X-1038500D01*
X-1040000Y522375D02*
Y525375D01*
X-1041500Y516875D02*
X-1038500D01*
X-1040000Y515375D02*
Y518375D01*
X-1048500Y523875D02*
X-1045500D01*
X-1047000Y522375D02*
Y525375D01*
X-1048500Y530875D02*
X-1045500D01*
X-1047000Y529375D02*
Y532375D01*
X-1048500Y537875D02*
X-1045500D01*
X-1047000Y536375D02*
Y539375D01*
X-1048500Y516875D02*
X-1045500D01*
X-1047000Y515375D02*
Y518375D01*
X-1027500Y544875D02*
X-1024500D01*
X-1026000Y543375D02*
Y546375D01*
X-1034500Y544875D02*
X-1031500D01*
X-1033000Y543375D02*
Y546375D01*
X-1041500Y544875D02*
X-1038500D01*
X-1040000Y543375D02*
Y546375D01*
X-1048500Y544875D02*
X-1045500D01*
X-1047000Y543375D02*
Y546375D01*
X-1055500Y544875D02*
X-1052500D01*
X-1054000Y543375D02*
Y546375D01*
X-1055500Y537875D02*
X-1052500D01*
X-1054000Y536375D02*
Y539375D01*
X-1055500Y530875D02*
X-1052500D01*
X-1054000Y529375D02*
Y532375D01*
X-1055500Y523875D02*
X-1052500D01*
X-1054000Y522375D02*
Y525375D01*
X-1055500Y516875D02*
X-1052500D01*
X-1054000Y515375D02*
Y518375D01*
X-1171500Y516875D02*
X-1168500D01*
X-1170000Y515375D02*
Y518375D01*
X-1171500Y523875D02*
X-1168500D01*
X-1170000Y522375D02*
Y525375D01*
X-1171500Y530875D02*
X-1168500D01*
X-1170000Y529375D02*
Y532375D01*
X-1171500Y537875D02*
X-1168500D01*
X-1170000Y536375D02*
Y539375D01*
X-1178500Y516875D02*
X-1175500D01*
X-1177000Y515375D02*
Y518375D01*
X-1178500Y523875D02*
X-1175500D01*
X-1177000Y522375D02*
Y525375D01*
X-1178500Y530875D02*
X-1175500D01*
X-1177000Y529375D02*
Y532375D01*
X-1178500Y537875D02*
X-1175500D01*
X-1177000Y536375D02*
Y539375D01*
X-1185500Y537875D02*
X-1182500D01*
X-1184000Y536375D02*
Y539375D01*
X-1185500Y530875D02*
X-1182500D01*
X-1184000Y529375D02*
Y532375D01*
X-1185500Y523875D02*
X-1182500D01*
X-1184000Y522375D02*
Y525375D01*
X-1185500Y516875D02*
X-1182500D01*
X-1184000Y515375D02*
Y518375D01*
X-1192500Y523875D02*
X-1189500D01*
X-1191000Y522375D02*
Y525375D01*
X-1192500Y530875D02*
X-1189500D01*
X-1191000Y529375D02*
Y532375D01*
X-1192500Y537875D02*
X-1189500D01*
X-1191000Y536375D02*
Y539375D01*
X-1192500Y516875D02*
X-1189500D01*
X-1191000Y515375D02*
Y518375D01*
X-1171500Y544875D02*
X-1168500D01*
X-1170000Y543375D02*
Y546375D01*
X-1178500Y544875D02*
X-1175500D01*
X-1177000Y543375D02*
Y546375D01*
X-1185500Y544875D02*
X-1182500D01*
X-1184000Y543375D02*
Y546375D01*
X-1192500Y544875D02*
X-1189500D01*
X-1191000Y543375D02*
Y546375D01*
X-1199500Y544875D02*
X-1196500D01*
X-1198000Y543375D02*
Y546375D01*
X-1199500Y537875D02*
X-1196500D01*
X-1198000Y536375D02*
Y539375D01*
X-1199500Y530875D02*
X-1196500D01*
X-1198000Y529375D02*
Y532375D01*
X-1199500Y523875D02*
X-1196500D01*
X-1198000Y522375D02*
Y525375D01*
X-1199500Y516875D02*
X-1196500D01*
X-1198000Y515375D02*
Y518375D01*
M02*
