G04*
G04 #@! TF.GenerationSoftware,Altium Limited,Altium Designer,24.9.1 (31)*
G04*
G04 Layer_Color=32768*
%FSLAX44Y44*%
%MOMM*%
G71*
G04*
G04 #@! TF.SameCoordinates,25B5EA7A-0A89-4A72-9C9E-8463CCD4450D*
G04*
G04*
G04 #@! TF.FilePolarity,Positive*
G04*
G01*
G75*
%ADD14C,0.1000*%
%ADD16C,0.0800*%
D14*
X3668Y-327677D02*
X11998D01*
X13664Y-326011D01*
Y-322679D01*
X11998Y-321013D01*
X3668D01*
Y-311016D02*
Y-317681D01*
X8666D01*
X7000Y-314348D01*
Y-312682D01*
X8666Y-311016D01*
X11998D01*
X13664Y-312682D01*
Y-316014D01*
X11998Y-317681D01*
X-151573Y376668D02*
Y384998D01*
X-153239Y386665D01*
X-156571D01*
X-158237Y384998D01*
Y376668D01*
X-168234Y386665D02*
X-161569D01*
X-168234Y380000D01*
Y378334D01*
X-166568Y376668D01*
X-163236D01*
X-161569Y378334D01*
X158073Y512830D02*
Y504500D01*
X159739Y502834D01*
X163071D01*
X164737Y504500D01*
Y512830D01*
X174734Y502834D02*
X168069D01*
X174734Y509498D01*
Y511164D01*
X173068Y512830D01*
X169736D01*
X168069Y511164D01*
X-151573Y-93332D02*
Y-85002D01*
X-153239Y-83336D01*
X-156571D01*
X-158237Y-85002D01*
Y-93332D01*
X-168234Y-83336D02*
X-161569D01*
X-168234Y-90000D01*
Y-91666D01*
X-166568Y-93332D01*
X-163236D01*
X-161569Y-91666D01*
X157073Y43830D02*
Y35500D01*
X158739Y33833D01*
X162071D01*
X163737Y35500D01*
Y43830D01*
X173734Y33833D02*
X167069D01*
X173734Y40498D01*
Y42164D01*
X172068Y43830D01*
X168736D01*
X167069Y42164D01*
X-151573Y-562332D02*
Y-554002D01*
X-153239Y-552335D01*
X-156571D01*
X-158237Y-554002D01*
Y-562332D01*
X-168234Y-552335D02*
X-161569D01*
X-168234Y-559000D01*
Y-560666D01*
X-166568Y-562332D01*
X-163236D01*
X-161569Y-560666D01*
X157073Y-427170D02*
Y-435500D01*
X158739Y-437166D01*
X162071D01*
X163737Y-435500D01*
Y-427170D01*
X173734Y-437166D02*
X167069D01*
X173734Y-430502D01*
Y-428836D01*
X172068Y-427170D01*
X168736D01*
X167069Y-428836D01*
X-155155Y586420D02*
Y594750D01*
X-156821Y596416D01*
X-160153D01*
X-161819Y594750D01*
Y586420D01*
X-165152Y596416D02*
X-168484D01*
X-166818D01*
Y586420D01*
X-165152Y588086D01*
X-155155Y116420D02*
Y124750D01*
X-156821Y126417D01*
X-160153D01*
X-161819Y124750D01*
Y116420D01*
X-165152Y126417D02*
X-168484D01*
X-166818D01*
Y116420D01*
X-165152Y118086D01*
X-155155Y-352580D02*
Y-344250D01*
X-156821Y-342584D01*
X-160153D01*
X-161819Y-344250D01*
Y-352580D01*
X-165152Y-342584D02*
X-168484D01*
X-166818D01*
Y-352580D01*
X-165152Y-350914D01*
X160155Y293580D02*
Y285250D01*
X161821Y283584D01*
X165153D01*
X166819Y285250D01*
Y293580D01*
X170152Y283584D02*
X173484D01*
X171818D01*
Y293580D01*
X170152Y291914D01*
X160155Y-175420D02*
Y-183750D01*
X161821Y-185416D01*
X165153D01*
X166819Y-183750D01*
Y-175420D01*
X170152Y-185416D02*
X173484D01*
X171818D01*
Y-175420D01*
X170152Y-177086D01*
X160155Y-646420D02*
Y-654750D01*
X161821Y-656416D01*
X165153D01*
X166819Y-654750D01*
Y-646420D01*
X170152Y-656416D02*
X173484D01*
X171818D01*
Y-646420D01*
X170152Y-648086D01*
D16*
X-260498Y237999D02*
Y233001D01*
X-259498Y232001D01*
X-257499D01*
X-256499Y233001D01*
Y237999D01*
X-254500Y232001D02*
X-252500D01*
X-253500D01*
Y237999D01*
X-254500Y236999D01*
X-249501Y232001D02*
X-247502D01*
X-248502D01*
Y237999D01*
X-249501Y236999D01*
M02*
