G04*
G04 #@! TF.GenerationSoftware,Altium Limited,Altium Designer,24.9.1 (31)*
G04*
G04 Layer_Color=2752767*
%FSLAX44Y44*%
%MOMM*%
G71*
G04*
G04 #@! TF.SameCoordinates,25B5EA7A-0A89-4A72-9C9E-8463CCD4450D*
G04*
G04*
G04 #@! TF.FilePolarity,Positive*
G04*
G01*
G75*
%ADD123C,0.1270*%
%ADD124C,0.1693*%
%ADD125C,0.1016*%
D123*
X232000Y634200D02*
Y642664D01*
X236232Y646896D01*
X240464Y642664D01*
Y634200D01*
Y640548D01*
X232000D01*
X226000Y164200D02*
Y172664D01*
X230232Y176896D01*
X234464Y172664D01*
Y164200D01*
Y170548D01*
X226000D01*
X220000Y-305800D02*
Y-297336D01*
X224232Y-293104D01*
X228464Y-297336D01*
Y-305800D01*
Y-299452D01*
X220000D01*
X-150000Y-225000D02*
Y-216536D01*
X-145768Y-212304D01*
X-141536Y-216536D01*
Y-225000D01*
Y-218652D01*
X-150000D01*
X735920Y-430880D02*
X738460D01*
X741000Y-428340D01*
X743540Y-430880D01*
X746080D01*
Y-428340D01*
X743540Y-425800D01*
X746080Y-423260D01*
Y-420720D01*
X743540D01*
X741000Y-423260D01*
X738460Y-420720D01*
X735920D01*
Y-423260D01*
X738460Y-425800D01*
X735920Y-428340D01*
Y-430880D01*
X737952Y-428848D02*
X739476D01*
X741000Y-427324D01*
X742524Y-428848D01*
X744048D01*
Y-427324D01*
X742524Y-425800D01*
X744048Y-424276D01*
Y-422752D01*
X742524D01*
X741000Y-424276D01*
X739476Y-422752D01*
X737952D01*
Y-424276D01*
X739476Y-425800D01*
X737952Y-427324D01*
Y-428848D01*
X751920Y-451880D02*
X754460D01*
X757000Y-449340D01*
X759540Y-451880D01*
X762080D01*
Y-449340D01*
X759540Y-446800D01*
X762080Y-444260D01*
Y-441720D01*
X759540D01*
X757000Y-444260D01*
X754460Y-441720D01*
X751920D01*
Y-444260D01*
X754460Y-446800D01*
X751920Y-449340D01*
Y-451880D01*
X753952Y-449848D02*
X755476D01*
X757000Y-448324D01*
X758524Y-449848D01*
X760048D01*
Y-448324D01*
X758524Y-446800D01*
X760048Y-445276D01*
Y-443752D01*
X758524D01*
X757000Y-445276D01*
X755476Y-443752D01*
X753952D01*
Y-445276D01*
X755476Y-446800D01*
X753952Y-448324D01*
Y-449848D01*
X727920Y-451880D02*
X730460D01*
X733000Y-449340D01*
X735540Y-451880D01*
X738080D01*
Y-449340D01*
X735540Y-446800D01*
X738080Y-444260D01*
Y-441720D01*
X735540D01*
X733000Y-444260D01*
X730460Y-441720D01*
X727920D01*
Y-444260D01*
X730460Y-446800D01*
X727920Y-449340D01*
Y-451880D01*
X729952Y-449848D02*
X731476D01*
X733000Y-448324D01*
X734524Y-449848D01*
X736048D01*
Y-448324D01*
X734524Y-446800D01*
X736048Y-445276D01*
Y-443752D01*
X734524D01*
X733000Y-445276D01*
X731476Y-443752D01*
X729952D01*
Y-445276D01*
X731476Y-446800D01*
X729952Y-448324D01*
Y-449848D01*
X735920Y-451880D02*
X738460D01*
X741000Y-449340D01*
X743540Y-451880D01*
X746080D01*
Y-449340D01*
X743540Y-446800D01*
X746080Y-444260D01*
Y-441720D01*
X743540D01*
X741000Y-444260D01*
X738460Y-441720D01*
X735920D01*
Y-444260D01*
X738460Y-446800D01*
X735920Y-449340D01*
Y-451880D01*
X737952Y-449848D02*
X739476D01*
X741000Y-448324D01*
X742524Y-449848D01*
X744048D01*
Y-448324D01*
X742524Y-446800D01*
X744048Y-445276D01*
Y-443752D01*
X742524D01*
X741000Y-445276D01*
X739476Y-443752D01*
X737952D01*
Y-445276D01*
X739476Y-446800D01*
X737952Y-448324D01*
Y-449848D01*
X743920Y-451880D02*
X746460D01*
X749000Y-449340D01*
X751540Y-451880D01*
X754080D01*
Y-449340D01*
X751540Y-446800D01*
X754080Y-444260D01*
Y-441720D01*
X751540D01*
X749000Y-444260D01*
X746460Y-441720D01*
X743920D01*
Y-444260D01*
X746460Y-446800D01*
X743920Y-449340D01*
Y-451880D01*
X745952Y-449848D02*
X747476D01*
X749000Y-448324D01*
X750524Y-449848D01*
X752048D01*
Y-448324D01*
X750524Y-446800D01*
X752048Y-445276D01*
Y-443752D01*
X750524D01*
X749000Y-445276D01*
X747476Y-443752D01*
X745952D01*
Y-445276D01*
X747476Y-446800D01*
X745952Y-448324D01*
Y-449848D01*
X751920Y-430880D02*
X754460D01*
X757000Y-428340D01*
X759540Y-430880D01*
X762080D01*
Y-428340D01*
X759540Y-425800D01*
X762080Y-423260D01*
Y-420720D01*
X759540D01*
X757000Y-423260D01*
X754460Y-420720D01*
X751920D01*
Y-423260D01*
X754460Y-425800D01*
X751920Y-428340D01*
Y-430880D01*
X753952Y-428848D02*
X755476D01*
X757000Y-427324D01*
X758524Y-428848D01*
X760048D01*
Y-427324D01*
X758524Y-425800D01*
X760048Y-424276D01*
Y-422752D01*
X758524D01*
X757000Y-424276D01*
X755476Y-422752D01*
X753952D01*
Y-424276D01*
X755476Y-425800D01*
X753952Y-427324D01*
Y-428848D01*
X743920Y-430880D02*
X746460D01*
X749000Y-428340D01*
X751540Y-430880D01*
X754080D01*
Y-428340D01*
X751540Y-425800D01*
X754080Y-423260D01*
Y-420720D01*
X751540D01*
X749000Y-423260D01*
X746460Y-420720D01*
X743920D01*
Y-423260D01*
X746460Y-425800D01*
X743920Y-428340D01*
Y-430880D01*
X745952Y-428848D02*
X747476D01*
X749000Y-427324D01*
X750524Y-428848D01*
X752048D01*
Y-427324D01*
X750524Y-425800D01*
X752048Y-424276D01*
Y-422752D01*
X750524D01*
X749000Y-424276D01*
X747476Y-422752D01*
X745952D01*
Y-424276D01*
X747476Y-425800D01*
X745952Y-427324D01*
Y-428848D01*
X727920Y-430880D02*
X730460D01*
X733000Y-428340D01*
X735540Y-430880D01*
X738080D01*
Y-428340D01*
X735540Y-425800D01*
X738080Y-423260D01*
Y-420720D01*
X735540D01*
X733000Y-423260D01*
X730460Y-420720D01*
X727920D01*
Y-423260D01*
X730460Y-425800D01*
X727920Y-428340D01*
Y-430880D01*
X729952Y-428848D02*
X731476D01*
X733000Y-427324D01*
X734524Y-428848D01*
X736048D01*
Y-427324D01*
X734524Y-425800D01*
X736048Y-424276D01*
Y-422752D01*
X734524D01*
X733000Y-424276D01*
X731476Y-422752D01*
X729952D01*
Y-424276D01*
X731476Y-425800D01*
X729952Y-427324D01*
Y-428848D01*
X735920Y39120D02*
X738460D01*
X741000Y41660D01*
X743540Y39120D01*
X746080D01*
Y41660D01*
X743540Y44200D01*
X746080Y46740D01*
Y49280D01*
X743540D01*
X741000Y46740D01*
X738460Y49280D01*
X735920D01*
Y46740D01*
X738460Y44200D01*
X735920Y41660D01*
Y39120D01*
X737952Y41152D02*
X739476D01*
X741000Y42676D01*
X742524Y41152D01*
X744048D01*
Y42676D01*
X742524Y44200D01*
X744048Y45724D01*
Y47248D01*
X742524D01*
X741000Y45724D01*
X739476Y47248D01*
X737952D01*
Y45724D01*
X739476Y44200D01*
X737952Y42676D01*
Y41152D01*
X751920Y18120D02*
X754460D01*
X757000Y20660D01*
X759540Y18120D01*
X762080D01*
Y20660D01*
X759540Y23200D01*
X762080Y25740D01*
Y28280D01*
X759540D01*
X757000Y25740D01*
X754460Y28280D01*
X751920D01*
Y25740D01*
X754460Y23200D01*
X751920Y20660D01*
Y18120D01*
X753952Y20152D02*
X755476D01*
X757000Y21676D01*
X758524Y20152D01*
X760048D01*
Y21676D01*
X758524Y23200D01*
X760048Y24724D01*
Y26248D01*
X758524D01*
X757000Y24724D01*
X755476Y26248D01*
X753952D01*
Y24724D01*
X755476Y23200D01*
X753952Y21676D01*
Y20152D01*
X727920Y18120D02*
X730460D01*
X733000Y20660D01*
X735540Y18120D01*
X738080D01*
Y20660D01*
X735540Y23200D01*
X738080Y25740D01*
Y28280D01*
X735540D01*
X733000Y25740D01*
X730460Y28280D01*
X727920D01*
Y25740D01*
X730460Y23200D01*
X727920Y20660D01*
Y18120D01*
X729952Y20152D02*
X731476D01*
X733000Y21676D01*
X734524Y20152D01*
X736048D01*
Y21676D01*
X734524Y23200D01*
X736048Y24724D01*
Y26248D01*
X734524D01*
X733000Y24724D01*
X731476Y26248D01*
X729952D01*
Y24724D01*
X731476Y23200D01*
X729952Y21676D01*
Y20152D01*
X735920Y18120D02*
X738460D01*
X741000Y20660D01*
X743540Y18120D01*
X746080D01*
Y20660D01*
X743540Y23200D01*
X746080Y25740D01*
Y28280D01*
X743540D01*
X741000Y25740D01*
X738460Y28280D01*
X735920D01*
Y25740D01*
X738460Y23200D01*
X735920Y20660D01*
Y18120D01*
X737952Y20152D02*
X739476D01*
X741000Y21676D01*
X742524Y20152D01*
X744048D01*
Y21676D01*
X742524Y23200D01*
X744048Y24724D01*
Y26248D01*
X742524D01*
X741000Y24724D01*
X739476Y26248D01*
X737952D01*
Y24724D01*
X739476Y23200D01*
X737952Y21676D01*
Y20152D01*
X743920Y18120D02*
X746460D01*
X749000Y20660D01*
X751540Y18120D01*
X754080D01*
Y20660D01*
X751540Y23200D01*
X754080Y25740D01*
Y28280D01*
X751540D01*
X749000Y25740D01*
X746460Y28280D01*
X743920D01*
Y25740D01*
X746460Y23200D01*
X743920Y20660D01*
Y18120D01*
X745952Y20152D02*
X747476D01*
X749000Y21676D01*
X750524Y20152D01*
X752048D01*
Y21676D01*
X750524Y23200D01*
X752048Y24724D01*
Y26248D01*
X750524D01*
X749000Y24724D01*
X747476Y26248D01*
X745952D01*
Y24724D01*
X747476Y23200D01*
X745952Y21676D01*
Y20152D01*
X751920Y39120D02*
X754460D01*
X757000Y41660D01*
X759540Y39120D01*
X762080D01*
Y41660D01*
X759540Y44200D01*
X762080Y46740D01*
Y49280D01*
X759540D01*
X757000Y46740D01*
X754460Y49280D01*
X751920D01*
Y46740D01*
X754460Y44200D01*
X751920Y41660D01*
Y39120D01*
X753952Y41152D02*
X755476D01*
X757000Y42676D01*
X758524Y41152D01*
X760048D01*
Y42676D01*
X758524Y44200D01*
X760048Y45724D01*
Y47248D01*
X758524D01*
X757000Y45724D01*
X755476Y47248D01*
X753952D01*
Y45724D01*
X755476Y44200D01*
X753952Y42676D01*
Y41152D01*
X743920Y39120D02*
X746460D01*
X749000Y41660D01*
X751540Y39120D01*
X754080D01*
Y41660D01*
X751540Y44200D01*
X754080Y46740D01*
Y49280D01*
X751540D01*
X749000Y46740D01*
X746460Y49280D01*
X743920D01*
Y46740D01*
X746460Y44200D01*
X743920Y41660D01*
Y39120D01*
X745952Y41152D02*
X747476D01*
X749000Y42676D01*
X750524Y41152D01*
X752048D01*
Y42676D01*
X750524Y44200D01*
X752048Y45724D01*
Y47248D01*
X750524D01*
X749000Y45724D01*
X747476Y47248D01*
X745952D01*
Y45724D01*
X747476Y44200D01*
X745952Y42676D01*
Y41152D01*
X727920Y39120D02*
X730460D01*
X733000Y41660D01*
X735540Y39120D01*
X738080D01*
Y41660D01*
X735540Y44200D01*
X738080Y46740D01*
Y49280D01*
X735540D01*
X733000Y46740D01*
X730460Y49280D01*
X727920D01*
Y46740D01*
X730460Y44200D01*
X727920Y41660D01*
Y39120D01*
X729952Y41152D02*
X731476D01*
X733000Y42676D01*
X734524Y41152D01*
X736048D01*
Y42676D01*
X734524Y44200D01*
X736048Y45724D01*
Y47248D01*
X734524D01*
X733000Y45724D01*
X731476Y47248D01*
X729952D01*
Y45724D01*
X731476Y44200D01*
X729952Y42676D01*
Y41152D01*
X735920Y509120D02*
X738460D01*
X741000Y511660D01*
X743540Y509120D01*
X746080D01*
Y511660D01*
X743540Y514200D01*
X746080Y516740D01*
Y519280D01*
X743540D01*
X741000Y516740D01*
X738460Y519280D01*
X735920D01*
Y516740D01*
X738460Y514200D01*
X735920Y511660D01*
Y509120D01*
X737952Y511152D02*
X739476D01*
X741000Y512676D01*
X742524Y511152D01*
X744048D01*
Y512676D01*
X742524Y514200D01*
X744048Y515724D01*
Y517248D01*
X742524D01*
X741000Y515724D01*
X739476Y517248D01*
X737952D01*
Y515724D01*
X739476Y514200D01*
X737952Y512676D01*
Y511152D01*
X751920Y488120D02*
X754460D01*
X757000Y490660D01*
X759540Y488120D01*
X762080D01*
Y490660D01*
X759540Y493200D01*
X762080Y495740D01*
Y498280D01*
X759540D01*
X757000Y495740D01*
X754460Y498280D01*
X751920D01*
Y495740D01*
X754460Y493200D01*
X751920Y490660D01*
Y488120D01*
X753952Y490152D02*
X755476D01*
X757000Y491676D01*
X758524Y490152D01*
X760048D01*
Y491676D01*
X758524Y493200D01*
X760048Y494724D01*
Y496248D01*
X758524D01*
X757000Y494724D01*
X755476Y496248D01*
X753952D01*
Y494724D01*
X755476Y493200D01*
X753952Y491676D01*
Y490152D01*
X727920Y488120D02*
X730460D01*
X733000Y490660D01*
X735540Y488120D01*
X738080D01*
Y490660D01*
X735540Y493200D01*
X738080Y495740D01*
Y498280D01*
X735540D01*
X733000Y495740D01*
X730460Y498280D01*
X727920D01*
Y495740D01*
X730460Y493200D01*
X727920Y490660D01*
Y488120D01*
X729952Y490152D02*
X731476D01*
X733000Y491676D01*
X734524Y490152D01*
X736048D01*
Y491676D01*
X734524Y493200D01*
X736048Y494724D01*
Y496248D01*
X734524D01*
X733000Y494724D01*
X731476Y496248D01*
X729952D01*
Y494724D01*
X731476Y493200D01*
X729952Y491676D01*
Y490152D01*
X735920Y488120D02*
X738460D01*
X741000Y490660D01*
X743540Y488120D01*
X746080D01*
Y490660D01*
X743540Y493200D01*
X746080Y495740D01*
Y498280D01*
X743540D01*
X741000Y495740D01*
X738460Y498280D01*
X735920D01*
Y495740D01*
X738460Y493200D01*
X735920Y490660D01*
Y488120D01*
X737952Y490152D02*
X739476D01*
X741000Y491676D01*
X742524Y490152D01*
X744048D01*
Y491676D01*
X742524Y493200D01*
X744048Y494724D01*
Y496248D01*
X742524D01*
X741000Y494724D01*
X739476Y496248D01*
X737952D01*
Y494724D01*
X739476Y493200D01*
X737952Y491676D01*
Y490152D01*
X743920Y488120D02*
X746460D01*
X749000Y490660D01*
X751540Y488120D01*
X754080D01*
Y490660D01*
X751540Y493200D01*
X754080Y495740D01*
Y498280D01*
X751540D01*
X749000Y495740D01*
X746460Y498280D01*
X743920D01*
Y495740D01*
X746460Y493200D01*
X743920Y490660D01*
Y488120D01*
X745952Y490152D02*
X747476D01*
X749000Y491676D01*
X750524Y490152D01*
X752048D01*
Y491676D01*
X750524Y493200D01*
X752048Y494724D01*
Y496248D01*
X750524D01*
X749000Y494724D01*
X747476Y496248D01*
X745952D01*
Y494724D01*
X747476Y493200D01*
X745952Y491676D01*
Y490152D01*
X751920Y509120D02*
X754460D01*
X757000Y511660D01*
X759540Y509120D01*
X762080D01*
Y511660D01*
X759540Y514200D01*
X762080Y516740D01*
Y519280D01*
X759540D01*
X757000Y516740D01*
X754460Y519280D01*
X751920D01*
Y516740D01*
X754460Y514200D01*
X751920Y511660D01*
Y509120D01*
X753952Y511152D02*
X755476D01*
X757000Y512676D01*
X758524Y511152D01*
X760048D01*
Y512676D01*
X758524Y514200D01*
X760048Y515724D01*
Y517248D01*
X758524D01*
X757000Y515724D01*
X755476Y517248D01*
X753952D01*
Y515724D01*
X755476Y514200D01*
X753952Y512676D01*
Y511152D01*
X743920Y509120D02*
X746460D01*
X749000Y511660D01*
X751540Y509120D01*
X754080D01*
Y511660D01*
X751540Y514200D01*
X754080Y516740D01*
Y519280D01*
X751540D01*
X749000Y516740D01*
X746460Y519280D01*
X743920D01*
Y516740D01*
X746460Y514200D01*
X743920Y511660D01*
Y509120D01*
X745952Y511152D02*
X747476D01*
X749000Y512676D01*
X750524Y511152D01*
X752048D01*
Y512676D01*
X750524Y514200D01*
X752048Y515724D01*
Y517248D01*
X750524D01*
X749000Y515724D01*
X747476Y517248D01*
X745952D01*
Y515724D01*
X747476Y514200D01*
X745952Y512676D01*
Y511152D01*
X727920Y509120D02*
X730460D01*
X733000Y511660D01*
X735540Y509120D01*
X738080D01*
Y511660D01*
X735540Y514200D01*
X738080Y516740D01*
Y519280D01*
X735540D01*
X733000Y516740D01*
X730460Y519280D01*
X727920D01*
Y516740D01*
X730460Y514200D01*
X727920Y511660D01*
Y509120D01*
X729952Y511152D02*
X731476D01*
X733000Y512676D01*
X734524Y511152D01*
X736048D01*
Y512676D01*
X734524Y514200D01*
X736048Y515724D01*
Y517248D01*
X734524D01*
X733000Y515724D01*
X731476Y517248D01*
X729952D01*
Y515724D01*
X731476Y514200D01*
X729952Y512676D01*
Y511152D01*
X602460Y-293840D02*
Y-296380D01*
X607540D01*
Y-293840D01*
X610080D01*
Y-288760D01*
X607540D01*
Y-286220D01*
X602460D01*
Y-288760D01*
X599920D01*
Y-293840D01*
X602460D01*
X603476Y-292824D02*
Y-294348D01*
X606524D01*
Y-292824D01*
X608048D01*
Y-289776D01*
X606524D01*
Y-288252D01*
X603476D01*
Y-289776D01*
X601952D01*
Y-292824D01*
X603476D01*
X623960Y-293840D02*
Y-296380D01*
X629040D01*
Y-293840D01*
X631580D01*
Y-288760D01*
X629040D01*
Y-286220D01*
X623960D01*
Y-288760D01*
X621420D01*
Y-293840D01*
X623960D01*
X624976Y-292824D02*
Y-294348D01*
X628024D01*
Y-292824D01*
X629548D01*
Y-289776D01*
X628024D01*
Y-288252D01*
X624976D01*
Y-289776D01*
X623452D01*
Y-292824D01*
X624976D01*
X602460Y-93840D02*
Y-96380D01*
X607540D01*
Y-93840D01*
X610080D01*
Y-88760D01*
X607540D01*
Y-86220D01*
X602460D01*
Y-88760D01*
X599920D01*
Y-93840D01*
X602460D01*
X603476Y-92824D02*
Y-94348D01*
X606524D01*
Y-92824D01*
X608048D01*
Y-89776D01*
X606524D01*
Y-88252D01*
X603476D01*
Y-89776D01*
X601952D01*
Y-92824D01*
X603476D01*
X623960Y-93840D02*
Y-96380D01*
X629040D01*
Y-93840D01*
X631580D01*
Y-88760D01*
X629040D01*
Y-86220D01*
X623960D01*
Y-88760D01*
X621420D01*
Y-93840D01*
X623960D01*
X624976Y-92824D02*
Y-94348D01*
X628024D01*
Y-92824D01*
X629548D01*
Y-89776D01*
X628024D01*
Y-88252D01*
X624976D01*
Y-89776D01*
X623452D01*
Y-92824D01*
X624976D01*
X645460Y-93840D02*
Y-96380D01*
X650540D01*
Y-93840D01*
X653080D01*
Y-88760D01*
X650540D01*
Y-86220D01*
X645460D01*
Y-88760D01*
X642920D01*
Y-93840D01*
X645460D01*
X646476Y-92824D02*
Y-94348D01*
X649524D01*
Y-92824D01*
X651048D01*
Y-89776D01*
X649524D01*
Y-88252D01*
X646476D01*
Y-89776D01*
X644952D01*
Y-92824D01*
X646476D01*
X645460Y-293840D02*
Y-296380D01*
X650540D01*
Y-293840D01*
X653080D01*
Y-288760D01*
X650540D01*
Y-286220D01*
X645460D01*
Y-288760D01*
X642920D01*
Y-293840D01*
X645460D01*
X646476Y-292824D02*
Y-294348D01*
X649524D01*
Y-292824D01*
X651048D01*
Y-289776D01*
X649524D01*
Y-288252D01*
X646476D01*
Y-289776D01*
X644952D01*
Y-292824D01*
X646476D01*
X-25080Y-113855D02*
Y-103695D01*
X-14920D01*
Y-113855D01*
X-25080D01*
X-23048Y-111823D02*
Y-105727D01*
X-16952D01*
Y-111823D01*
X-23048D01*
X-1185080Y714920D02*
X-1182540Y720000D01*
X-1185080Y725080D01*
X-1180000Y722540D01*
X-1174920Y725080D01*
X-1177460Y720000D01*
X-1174920Y714920D01*
X-1180000Y717460D01*
X-1185080Y714920D01*
X-1183048Y716952D02*
X-1181524Y720000D01*
X-1183048Y723048D01*
X-1180000Y721524D01*
X-1176952Y723048D01*
X-1178476Y720000D01*
X-1176952Y716952D01*
X-1180000Y718476D01*
X-1183048Y716952D01*
X-1105080Y714920D02*
X-1102540Y720000D01*
X-1105080Y725080D01*
X-1100000Y722540D01*
X-1094920Y725080D01*
X-1097460Y720000D01*
X-1094920Y714920D01*
X-1100000Y717460D01*
X-1105080Y714920D01*
X-1103048Y716952D02*
X-1101524Y720000D01*
X-1103048Y723048D01*
X-1100000Y721524D01*
X-1096952Y723048D01*
X-1098476Y720000D01*
X-1096952Y716952D01*
X-1100000Y718476D01*
X-1103048Y716952D01*
X-1025080Y714920D02*
X-1022540Y720000D01*
X-1025080Y725080D01*
X-1020000Y722540D01*
X-1014920Y725080D01*
X-1017460Y720000D01*
X-1014920Y714920D01*
X-1020000Y717460D01*
X-1025080Y714920D01*
X-1023048Y716952D02*
X-1021524Y720000D01*
X-1023048Y723048D01*
X-1020000Y721524D01*
X-1016952Y723048D01*
X-1018476Y720000D01*
X-1016952Y716952D01*
X-1020000Y718476D01*
X-1023048Y716952D01*
X480000Y-735080D02*
X474920Y-724920D01*
X485080D01*
X480000Y-735080D01*
Y-733048D02*
X476952Y-726952D01*
X483048D01*
X480000Y-733048D01*
Y724920D02*
X474920Y735080D01*
X485080D01*
X480000Y724920D01*
Y726952D02*
X476952Y733048D01*
X483048D01*
X480000Y726952D01*
X750000Y588620D02*
X744920Y598780D01*
X755080D01*
X750000Y588620D01*
Y590652D02*
X746952Y596748D01*
X753048D01*
X750000Y590652D01*
Y428620D02*
X744920Y438780D01*
X755080D01*
X750000Y428620D01*
Y430652D02*
X746952Y436748D01*
X753048D01*
X750000Y430652D01*
Y-41380D02*
X744920Y-31220D01*
X755080D01*
X750000Y-41380D01*
Y-39348D02*
X746952Y-33252D01*
X753048D01*
X750000Y-39348D01*
Y118620D02*
X744920Y128780D01*
X755080D01*
X750000Y118620D01*
Y120652D02*
X746952Y126748D01*
X753048D01*
X750000Y120652D01*
Y-351380D02*
X744920Y-341220D01*
X755080D01*
X750000Y-351380D01*
Y-349348D02*
X746952Y-343252D01*
X753048D01*
X750000Y-349348D01*
Y-511380D02*
X744920Y-501220D01*
X755080D01*
X750000Y-511380D01*
Y-509348D02*
X746952Y-503252D01*
X753048D01*
X750000Y-509348D01*
Y-735080D02*
X744920Y-724920D01*
X755080D01*
X750000Y-735080D01*
Y-733048D02*
X746952Y-726952D01*
X753048D01*
X750000Y-733048D01*
Y724920D02*
X744920Y735080D01*
X755080D01*
X750000Y724920D01*
Y726952D02*
X746952Y733048D01*
X753048D01*
X750000Y726952D01*
X-1300000Y-735080D02*
X-1305080Y-724920D01*
X-1294920D01*
X-1300000Y-735080D01*
Y-733048D02*
X-1303048Y-726952D01*
X-1296952D01*
X-1300000Y-733048D01*
Y724920D02*
X-1305080Y735080D01*
X-1294920D01*
X-1300000Y724920D01*
Y726952D02*
X-1303048Y733048D01*
X-1296952D01*
X-1300000Y726952D01*
X420000Y-5080D02*
X414920Y5080D01*
X425080D01*
X420000Y-5080D01*
Y-3048D02*
X416952Y3048D01*
X423048D01*
X420000Y-3048D01*
X-400000Y-5080D02*
X-405080Y5080D01*
X-394920D01*
X-400000Y-5080D01*
Y-3048D02*
X-403048Y3048D01*
X-396952D01*
X-400000Y-3048D01*
Y-380080D02*
X-405080Y-369920D01*
X-394920D01*
X-400000Y-380080D01*
Y-378048D02*
X-403048Y-371952D01*
X-396952D01*
X-400000Y-378048D01*
Y369920D02*
X-405080Y380080D01*
X-394920D01*
X-400000Y369920D01*
Y371952D02*
X-403048Y378048D01*
X-396952D01*
X-400000Y371952D01*
X557420Y508620D02*
Y518780D01*
X567580D01*
Y508620D01*
X557420D01*
Y38620D02*
Y48780D01*
X567580D01*
Y38620D01*
X557420D01*
Y-431380D02*
Y-421220D01*
X567580D01*
Y-431380D01*
X557420D01*
X-587580Y558620D02*
Y568780D01*
X-577420D01*
Y558620D01*
X-587580D01*
Y368620D02*
Y378780D01*
X-577420D01*
Y368620D01*
X-587580D01*
Y88620D02*
Y98780D01*
X-577420D01*
Y88620D01*
X-587580D01*
Y-101380D02*
Y-91220D01*
X-577420D01*
Y-101380D01*
X-587580D01*
Y-381380D02*
Y-371220D01*
X-577420D01*
Y-381380D01*
X-587580D01*
Y-571380D02*
Y-561220D01*
X-577420D01*
Y-571380D01*
X-587580D01*
X-420000Y-514380D02*
X-425080Y-504220D01*
X-414920D01*
X-420000Y-514380D01*
X-340000Y738120D02*
X-337460Y740660D01*
X-334920D01*
X-337460Y743200D01*
X-334920Y745740D01*
X-337460D01*
X-340000Y748280D01*
X-342540Y745740D01*
X-345080D01*
X-342540Y743200D01*
X-345080Y740660D01*
X-342540D01*
X-340000Y738120D01*
Y232120D02*
X-337460Y234660D01*
X-334920D01*
X-337460Y237200D01*
X-334920Y239740D01*
X-337460D01*
X-340000Y242280D01*
X-342540Y239740D01*
X-345080D01*
X-342540Y237200D01*
X-345080Y234660D01*
X-342540D01*
X-340000Y232120D01*
X321000D02*
X323540Y234660D01*
X326080D01*
X323540Y237200D01*
X326080Y239740D01*
X323540D01*
X321000Y242280D01*
X318460Y239740D01*
X315920D01*
X318460Y237200D01*
X315920Y234660D01*
X318460D01*
X321000Y232120D01*
X-340000Y-240880D02*
X-337460Y-238340D01*
X-334920D01*
X-337460Y-235800D01*
X-334920Y-233260D01*
X-337460D01*
X-340000Y-230720D01*
X-342540Y-233260D01*
X-345080D01*
X-342540Y-235800D01*
X-345080Y-238340D01*
X-342540D01*
X-340000Y-240880D01*
Y-746880D02*
X-337460Y-744340D01*
X-334920D01*
X-337460Y-741800D01*
X-334920Y-739260D01*
X-337460D01*
X-340000Y-736720D01*
X-342540Y-739260D01*
X-345080D01*
X-342540Y-741800D01*
X-345080Y-744340D01*
X-342540D01*
X-340000Y-746880D01*
X321000D02*
X323540Y-744340D01*
X326080D01*
X323540Y-741800D01*
X326080Y-739260D01*
X323540D01*
X321000Y-736720D01*
X318460Y-739260D01*
X315920D01*
X318460Y-741800D01*
X315920Y-744340D01*
X318460D01*
X321000Y-746880D01*
Y-240880D02*
X323540Y-238340D01*
X326080D01*
X323540Y-235800D01*
X326080Y-233260D01*
X323540D01*
X321000Y-230720D01*
X318460Y-233260D01*
X315920D01*
X318460Y-235800D01*
X315920Y-238340D01*
X318460D01*
X321000Y-240880D01*
Y738120D02*
X323540Y740660D01*
X326080D01*
X323540Y743200D01*
X326080Y745740D01*
X323540D01*
X321000Y748280D01*
X318460Y745740D01*
X315920D01*
X318460Y743200D01*
X315920Y740660D01*
X318460D01*
X321000Y738120D01*
X394920Y355620D02*
X397460Y360700D01*
X394920Y365780D01*
X400000Y363240D01*
X405080Y365780D01*
X402540Y360700D01*
X405080Y355620D01*
X400000Y358160D01*
X394920Y355620D01*
X-422540Y-711840D02*
Y-714380D01*
X-417460D01*
Y-711840D01*
X-414920D01*
Y-706760D01*
X-417460D01*
Y-704220D01*
X-422540D01*
Y-706760D01*
X-425080D01*
Y-711840D01*
X-422540D01*
X397460D02*
Y-714380D01*
X402540D01*
Y-711840D01*
X405080D01*
Y-706760D01*
X402540D01*
Y-704220D01*
X397460D01*
Y-706760D01*
X394920D01*
Y-711840D01*
X397460D01*
X-422540Y-238540D02*
Y-241080D01*
X-417460D01*
Y-238540D01*
X-414920D01*
Y-233460D01*
X-417460D01*
Y-230920D01*
X-422540D01*
Y-233460D01*
X-425080D01*
Y-238540D01*
X-422540D01*
X397460D02*
Y-241080D01*
X402540D01*
Y-238540D01*
X405080D01*
Y-233460D01*
X402540D01*
Y-230920D01*
X397460D01*
Y-233460D01*
X394920D01*
Y-238540D01*
X397460D01*
X-422540Y234860D02*
Y232320D01*
X-417460D01*
Y234860D01*
X-414920D01*
Y239940D01*
X-417460D01*
Y242480D01*
X-422540D01*
Y239940D01*
X-425080D01*
Y234860D01*
X-422540D01*
X397460D02*
Y232320D01*
X402540D01*
Y234860D01*
X405080D01*
Y239940D01*
X402540D01*
Y242480D01*
X397460D01*
Y239940D01*
X394920D01*
Y234860D01*
X397460D01*
X-422540Y708160D02*
Y705620D01*
X-417460D01*
Y708160D01*
X-414920D01*
Y713240D01*
X-417460D01*
Y715780D01*
X-422540D01*
Y713240D01*
X-425080D01*
Y708160D01*
X-422540D01*
X397460D02*
Y705620D01*
X402540D01*
Y708160D01*
X405080D01*
Y713240D01*
X402540D01*
Y715780D01*
X397460D01*
Y713240D01*
X394920D01*
Y708160D01*
X397460D01*
X-1072500Y-246580D02*
X-1069960Y-244040D01*
X-1067420D01*
X-1069960Y-241500D01*
X-1067420Y-238960D01*
X-1069960D01*
X-1072500Y-236420D01*
X-1075040Y-238960D01*
X-1077580D01*
X-1075040Y-241500D01*
X-1077580Y-244040D01*
X-1075040D01*
X-1072500Y-246580D01*
Y-244548D02*
X-1070976Y-243024D01*
X-1069452D01*
X-1070976Y-241500D01*
X-1069452Y-239976D01*
X-1070976D01*
X-1072500Y-238452D01*
X-1074024Y-239976D01*
X-1075548D01*
X-1074024Y-241500D01*
X-1075548Y-243024D01*
X-1074024D01*
X-1072500Y-244548D01*
Y-621580D02*
X-1069960Y-619040D01*
X-1067420D01*
X-1069960Y-616500D01*
X-1067420Y-613960D01*
X-1069960D01*
X-1072500Y-611420D01*
X-1075040Y-613960D01*
X-1077580D01*
X-1075040Y-616500D01*
X-1077580Y-619040D01*
X-1075040D01*
X-1072500Y-621580D01*
Y-619548D02*
X-1070976Y-618024D01*
X-1069452D01*
X-1070976Y-616500D01*
X-1069452Y-614976D01*
X-1070976D01*
X-1072500Y-613452D01*
X-1074024Y-614976D01*
X-1075548D01*
X-1074024Y-616500D01*
X-1075548Y-618024D01*
X-1074024D01*
X-1072500Y-619548D01*
X-1275500Y-246580D02*
X-1272960Y-244040D01*
X-1270420D01*
X-1272960Y-241500D01*
X-1270420Y-238960D01*
X-1272960D01*
X-1275500Y-236420D01*
X-1278040Y-238960D01*
X-1280580D01*
X-1278040Y-241500D01*
X-1280580Y-244040D01*
X-1278040D01*
X-1275500Y-246580D01*
Y-244548D02*
X-1273976Y-243024D01*
X-1272452D01*
X-1273976Y-241500D01*
X-1272452Y-239976D01*
X-1273976D01*
X-1275500Y-238452D01*
X-1277024Y-239976D01*
X-1278548D01*
X-1277024Y-241500D01*
X-1278548Y-243024D01*
X-1277024D01*
X-1275500Y-244548D01*
Y-621580D02*
X-1272960Y-619040D01*
X-1270420D01*
X-1272960Y-616500D01*
X-1270420Y-613960D01*
X-1272960D01*
X-1275500Y-611420D01*
X-1278040Y-613960D01*
X-1280580D01*
X-1278040Y-616500D01*
X-1280580Y-619040D01*
X-1278040D01*
X-1275500Y-621580D01*
Y-619548D02*
X-1273976Y-618024D01*
X-1272452D01*
X-1273976Y-616500D01*
X-1272452Y-614976D01*
X-1273976D01*
X-1275500Y-613452D01*
X-1277024Y-614976D01*
X-1278548D01*
X-1277024Y-616500D01*
X-1278548Y-618024D01*
X-1277024D01*
X-1275500Y-619548D01*
X-726500Y-246580D02*
X-723960Y-244040D01*
X-721420D01*
X-723960Y-241500D01*
X-721420Y-238960D01*
X-723960D01*
X-726500Y-236420D01*
X-729040Y-238960D01*
X-731580D01*
X-729040Y-241500D01*
X-731580Y-244040D01*
X-729040D01*
X-726500Y-246580D01*
Y-244548D02*
X-724976Y-243024D01*
X-723452D01*
X-724976Y-241500D01*
X-723452Y-239976D01*
X-724976D01*
X-726500Y-238452D01*
X-728024Y-239976D01*
X-729548D01*
X-728024Y-241500D01*
X-729548Y-243024D01*
X-728024D01*
X-726500Y-244548D01*
Y-621580D02*
X-723960Y-619040D01*
X-721420D01*
X-723960Y-616500D01*
X-721420Y-613960D01*
X-723960D01*
X-726500Y-611420D01*
X-729040Y-613960D01*
X-731580D01*
X-729040Y-616500D01*
X-731580Y-619040D01*
X-729040D01*
X-726500Y-621580D01*
Y-619548D02*
X-724976Y-618024D01*
X-723452D01*
X-724976Y-616500D01*
X-723452Y-614976D01*
X-724976D01*
X-726500Y-613452D01*
X-728024Y-614976D01*
X-729548D01*
X-728024Y-616500D01*
X-729548Y-618024D01*
X-728024D01*
X-726500Y-619548D01*
X-929500Y-246580D02*
X-926960Y-244040D01*
X-924420D01*
X-926960Y-241500D01*
X-924420Y-238960D01*
X-926960D01*
X-929500Y-236420D01*
X-932040Y-238960D01*
X-934580D01*
X-932040Y-241500D01*
X-934580Y-244040D01*
X-932040D01*
X-929500Y-246580D01*
Y-244548D02*
X-927976Y-243024D01*
X-926452D01*
X-927976Y-241500D01*
X-926452Y-239976D01*
X-927976D01*
X-929500Y-238452D01*
X-931024Y-239976D01*
X-932548D01*
X-931024Y-241500D01*
X-932548Y-243024D01*
X-931024D01*
X-929500Y-244548D01*
Y-621580D02*
X-926960Y-619040D01*
X-924420D01*
X-926960Y-616500D01*
X-924420Y-613960D01*
X-926960D01*
X-929500Y-611420D01*
X-932040Y-613960D01*
X-934580D01*
X-932040Y-616500D01*
X-934580Y-619040D01*
X-932040D01*
X-929500Y-621580D01*
Y-619548D02*
X-927976Y-618024D01*
X-926452D01*
X-927976Y-616500D01*
X-926452Y-614976D01*
X-927976D01*
X-929500Y-613452D01*
X-931024Y-614976D01*
X-932548D01*
X-931024Y-616500D01*
X-932548Y-618024D01*
X-931024D01*
X-929500Y-619548D01*
X-1072500Y188420D02*
X-1069960Y190960D01*
X-1067420D01*
X-1069960Y193500D01*
X-1067420Y196040D01*
X-1069960D01*
X-1072500Y198580D01*
X-1075040Y196040D01*
X-1077580D01*
X-1075040Y193500D01*
X-1077580Y190960D01*
X-1075040D01*
X-1072500Y188420D01*
Y190452D02*
X-1070976Y191976D01*
X-1069452D01*
X-1070976Y193500D01*
X-1069452Y195024D01*
X-1070976D01*
X-1072500Y196548D01*
X-1074024Y195024D01*
X-1075548D01*
X-1074024Y193500D01*
X-1075548Y191976D01*
X-1074024D01*
X-1072500Y190452D01*
Y-186580D02*
X-1069960Y-184040D01*
X-1067420D01*
X-1069960Y-181500D01*
X-1067420Y-178960D01*
X-1069960D01*
X-1072500Y-176420D01*
X-1075040Y-178960D01*
X-1077580D01*
X-1075040Y-181500D01*
X-1077580Y-184040D01*
X-1075040D01*
X-1072500Y-186580D01*
Y-184548D02*
X-1070976Y-183024D01*
X-1069452D01*
X-1070976Y-181500D01*
X-1069452Y-179976D01*
X-1070976D01*
X-1072500Y-178452D01*
X-1074024Y-179976D01*
X-1075548D01*
X-1074024Y-181500D01*
X-1075548Y-183024D01*
X-1074024D01*
X-1072500Y-184548D01*
X-1275500Y188420D02*
X-1272960Y190960D01*
X-1270420D01*
X-1272960Y193500D01*
X-1270420Y196040D01*
X-1272960D01*
X-1275500Y198580D01*
X-1278040Y196040D01*
X-1280580D01*
X-1278040Y193500D01*
X-1280580Y190960D01*
X-1278040D01*
X-1275500Y188420D01*
Y190452D02*
X-1273976Y191976D01*
X-1272452D01*
X-1273976Y193500D01*
X-1272452Y195024D01*
X-1273976D01*
X-1275500Y196548D01*
X-1277024Y195024D01*
X-1278548D01*
X-1277024Y193500D01*
X-1278548Y191976D01*
X-1277024D01*
X-1275500Y190452D01*
Y-186580D02*
X-1272960Y-184040D01*
X-1270420D01*
X-1272960Y-181500D01*
X-1270420Y-178960D01*
X-1272960D01*
X-1275500Y-176420D01*
X-1278040Y-178960D01*
X-1280580D01*
X-1278040Y-181500D01*
X-1280580Y-184040D01*
X-1278040D01*
X-1275500Y-186580D01*
Y-184548D02*
X-1273976Y-183024D01*
X-1272452D01*
X-1273976Y-181500D01*
X-1272452Y-179976D01*
X-1273976D01*
X-1275500Y-178452D01*
X-1277024Y-179976D01*
X-1278548D01*
X-1277024Y-181500D01*
X-1278548Y-183024D01*
X-1277024D01*
X-1275500Y-184548D01*
X-726500Y188420D02*
X-723960Y190960D01*
X-721420D01*
X-723960Y193500D01*
X-721420Y196040D01*
X-723960D01*
X-726500Y198580D01*
X-729040Y196040D01*
X-731580D01*
X-729040Y193500D01*
X-731580Y190960D01*
X-729040D01*
X-726500Y188420D01*
Y190452D02*
X-724976Y191976D01*
X-723452D01*
X-724976Y193500D01*
X-723452Y195024D01*
X-724976D01*
X-726500Y196548D01*
X-728024Y195024D01*
X-729548D01*
X-728024Y193500D01*
X-729548Y191976D01*
X-728024D01*
X-726500Y190452D01*
Y-186580D02*
X-723960Y-184040D01*
X-721420D01*
X-723960Y-181500D01*
X-721420Y-178960D01*
X-723960D01*
X-726500Y-176420D01*
X-729040Y-178960D01*
X-731580D01*
X-729040Y-181500D01*
X-731580Y-184040D01*
X-729040D01*
X-726500Y-186580D01*
Y-184548D02*
X-724976Y-183024D01*
X-723452D01*
X-724976Y-181500D01*
X-723452Y-179976D01*
X-724976D01*
X-726500Y-178452D01*
X-728024Y-179976D01*
X-729548D01*
X-728024Y-181500D01*
X-729548Y-183024D01*
X-728024D01*
X-726500Y-184548D01*
X-929500Y188420D02*
X-926960Y190960D01*
X-924420D01*
X-926960Y193500D01*
X-924420Y196040D01*
X-926960D01*
X-929500Y198580D01*
X-932040Y196040D01*
X-934580D01*
X-932040Y193500D01*
X-934580Y190960D01*
X-932040D01*
X-929500Y188420D01*
Y190452D02*
X-927976Y191976D01*
X-926452D01*
X-927976Y193500D01*
X-926452Y195024D01*
X-927976D01*
X-929500Y196548D01*
X-931024Y195024D01*
X-932548D01*
X-931024Y193500D01*
X-932548Y191976D01*
X-931024D01*
X-929500Y190452D01*
Y-186580D02*
X-926960Y-184040D01*
X-924420D01*
X-926960Y-181500D01*
X-924420Y-178960D01*
X-926960D01*
X-929500Y-176420D01*
X-932040Y-178960D01*
X-934580D01*
X-932040Y-181500D01*
X-934580Y-184040D01*
X-932040D01*
X-929500Y-186580D01*
Y-184548D02*
X-927976Y-183024D01*
X-926452D01*
X-927976Y-181500D01*
X-926452Y-179976D01*
X-927976D01*
X-929500Y-178452D01*
X-931024Y-179976D01*
X-932548D01*
X-931024Y-181500D01*
X-932548Y-183024D01*
X-931024D01*
X-929500Y-184548D01*
X-1072500Y623420D02*
X-1069960Y625960D01*
X-1067420D01*
X-1069960Y628500D01*
X-1067420Y631040D01*
X-1069960D01*
X-1072500Y633580D01*
X-1075040Y631040D01*
X-1077580D01*
X-1075040Y628500D01*
X-1077580Y625960D01*
X-1075040D01*
X-1072500Y623420D01*
Y625452D02*
X-1070976Y626976D01*
X-1069452D01*
X-1070976Y628500D01*
X-1069452Y630024D01*
X-1070976D01*
X-1072500Y631548D01*
X-1074024Y630024D01*
X-1075548D01*
X-1074024Y628500D01*
X-1075548Y626976D01*
X-1074024D01*
X-1072500Y625452D01*
Y248420D02*
X-1069960Y250960D01*
X-1067420D01*
X-1069960Y253500D01*
X-1067420Y256040D01*
X-1069960D01*
X-1072500Y258580D01*
X-1075040Y256040D01*
X-1077580D01*
X-1075040Y253500D01*
X-1077580Y250960D01*
X-1075040D01*
X-1072500Y248420D01*
Y250452D02*
X-1070976Y251976D01*
X-1069452D01*
X-1070976Y253500D01*
X-1069452Y255024D01*
X-1070976D01*
X-1072500Y256548D01*
X-1074024Y255024D01*
X-1075548D01*
X-1074024Y253500D01*
X-1075548Y251976D01*
X-1074024D01*
X-1072500Y250452D01*
X-1275500Y623420D02*
X-1272960Y625960D01*
X-1270420D01*
X-1272960Y628500D01*
X-1270420Y631040D01*
X-1272960D01*
X-1275500Y633580D01*
X-1278040Y631040D01*
X-1280580D01*
X-1278040Y628500D01*
X-1280580Y625960D01*
X-1278040D01*
X-1275500Y623420D01*
Y625452D02*
X-1273976Y626976D01*
X-1272452D01*
X-1273976Y628500D01*
X-1272452Y630024D01*
X-1273976D01*
X-1275500Y631548D01*
X-1277024Y630024D01*
X-1278548D01*
X-1277024Y628500D01*
X-1278548Y626976D01*
X-1277024D01*
X-1275500Y625452D01*
Y248420D02*
X-1272960Y250960D01*
X-1270420D01*
X-1272960Y253500D01*
X-1270420Y256040D01*
X-1272960D01*
X-1275500Y258580D01*
X-1278040Y256040D01*
X-1280580D01*
X-1278040Y253500D01*
X-1280580Y250960D01*
X-1278040D01*
X-1275500Y248420D01*
Y250452D02*
X-1273976Y251976D01*
X-1272452D01*
X-1273976Y253500D01*
X-1272452Y255024D01*
X-1273976D01*
X-1275500Y256548D01*
X-1277024Y255024D01*
X-1278548D01*
X-1277024Y253500D01*
X-1278548Y251976D01*
X-1277024D01*
X-1275500Y250452D01*
X-726500Y623420D02*
X-723960Y625960D01*
X-721420D01*
X-723960Y628500D01*
X-721420Y631040D01*
X-723960D01*
X-726500Y633580D01*
X-729040Y631040D01*
X-731580D01*
X-729040Y628500D01*
X-731580Y625960D01*
X-729040D01*
X-726500Y623420D01*
Y625452D02*
X-724976Y626976D01*
X-723452D01*
X-724976Y628500D01*
X-723452Y630024D01*
X-724976D01*
X-726500Y631548D01*
X-728024Y630024D01*
X-729548D01*
X-728024Y628500D01*
X-729548Y626976D01*
X-728024D01*
X-726500Y625452D01*
Y248420D02*
X-723960Y250960D01*
X-721420D01*
X-723960Y253500D01*
X-721420Y256040D01*
X-723960D01*
X-726500Y258580D01*
X-729040Y256040D01*
X-731580D01*
X-729040Y253500D01*
X-731580Y250960D01*
X-729040D01*
X-726500Y248420D01*
Y250452D02*
X-724976Y251976D01*
X-723452D01*
X-724976Y253500D01*
X-723452Y255024D01*
X-724976D01*
X-726500Y256548D01*
X-728024Y255024D01*
X-729548D01*
X-728024Y253500D01*
X-729548Y251976D01*
X-728024D01*
X-726500Y250452D01*
X-929500Y623420D02*
X-926960Y625960D01*
X-924420D01*
X-926960Y628500D01*
X-924420Y631040D01*
X-926960D01*
X-929500Y633580D01*
X-932040Y631040D01*
X-934580D01*
X-932040Y628500D01*
X-934580Y625960D01*
X-932040D01*
X-929500Y623420D01*
Y625452D02*
X-927976Y626976D01*
X-926452D01*
X-927976Y628500D01*
X-926452Y630024D01*
X-927976D01*
X-929500Y631548D01*
X-931024Y630024D01*
X-932548D01*
X-931024Y628500D01*
X-932548Y626976D01*
X-931024D01*
X-929500Y625452D01*
Y248420D02*
X-926960Y250960D01*
X-924420D01*
X-926960Y253500D01*
X-924420Y256040D01*
X-926960D01*
X-929500Y258580D01*
X-932040Y256040D01*
X-934580D01*
X-932040Y253500D01*
X-934580Y250960D01*
X-932040D01*
X-929500Y248420D01*
Y250452D02*
X-927976Y251976D01*
X-926452D01*
X-927976Y253500D01*
X-926452Y255024D01*
X-927976D01*
X-929500Y256548D01*
X-931024Y255024D01*
X-932548D01*
X-931024Y253500D01*
X-932548Y251976D01*
X-931024D01*
X-929500Y250452D01*
X-22080Y-207000D02*
X-17000Y-201920D01*
X-11920Y-207000D01*
X-17000Y-212080D01*
X-22080Y-207000D01*
X-57080Y-590000D02*
X-52000Y-584920D01*
X-46920Y-590000D01*
X-52000Y-595080D01*
X-57080Y-590000D01*
X717920Y-251080D02*
X720460D01*
X723000Y-248540D01*
X725540Y-251080D01*
X728080D01*
Y-248540D01*
X725540Y-246000D01*
X728080Y-243460D01*
Y-240920D01*
X725540D01*
X723000Y-243460D01*
X720460Y-240920D01*
X717920D01*
Y-243460D01*
X720460Y-246000D01*
X717920Y-248540D01*
Y-251080D01*
Y-259080D02*
X720460D01*
X723000Y-256540D01*
X725540Y-259080D01*
X728080D01*
Y-256540D01*
X725540Y-254000D01*
X728080Y-251460D01*
Y-248920D01*
X725540D01*
X723000Y-251460D01*
X720460Y-248920D01*
X717920D01*
Y-251460D01*
X720460Y-254000D01*
X717920Y-256540D01*
Y-259080D01*
Y-267080D02*
X720460D01*
X723000Y-264540D01*
X725540Y-267080D01*
X728080D01*
Y-264540D01*
X725540Y-262000D01*
X728080Y-259460D01*
Y-256920D01*
X725540D01*
X723000Y-259460D01*
X720460Y-256920D01*
X717920D01*
Y-259460D01*
X720460Y-262000D01*
X717920Y-264540D01*
Y-267080D01*
Y-275080D02*
X720460D01*
X723000Y-272540D01*
X725540Y-275080D01*
X728080D01*
Y-272540D01*
X725540Y-270000D01*
X728080Y-267460D01*
Y-264920D01*
X725540D01*
X723000Y-267460D01*
X720460Y-264920D01*
X717920D01*
Y-267460D01*
X720460Y-270000D01*
X717920Y-272540D01*
Y-275080D01*
Y-283080D02*
X720460D01*
X723000Y-280540D01*
X725540Y-283080D01*
X728080D01*
Y-280540D01*
X725540Y-278000D01*
X728080Y-275460D01*
Y-272920D01*
X725540D01*
X723000Y-275460D01*
X720460Y-272920D01*
X717920D01*
Y-275460D01*
X720460Y-278000D01*
X717920Y-280540D01*
Y-283080D01*
X680920D02*
X683460D01*
X686000Y-280540D01*
X688540Y-283080D01*
X691080D01*
Y-280540D01*
X688540Y-278000D01*
X691080Y-275460D01*
Y-272920D01*
X688540D01*
X686000Y-275460D01*
X683460Y-272920D01*
X680920D01*
Y-275460D01*
X683460Y-278000D01*
X680920Y-280540D01*
Y-283080D01*
Y-275080D02*
X683460D01*
X686000Y-272540D01*
X688540Y-275080D01*
X691080D01*
Y-272540D01*
X688540Y-270000D01*
X691080Y-267460D01*
Y-264920D01*
X688540D01*
X686000Y-267460D01*
X683460Y-264920D01*
X680920D01*
Y-267460D01*
X683460Y-270000D01*
X680920Y-272540D01*
Y-275080D01*
Y-267080D02*
X683460D01*
X686000Y-264540D01*
X688540Y-267080D01*
X691080D01*
Y-264540D01*
X688540Y-262000D01*
X691080Y-259460D01*
Y-256920D01*
X688540D01*
X686000Y-259460D01*
X683460Y-256920D01*
X680920D01*
Y-259460D01*
X683460Y-262000D01*
X680920Y-264540D01*
Y-267080D01*
Y-259080D02*
X683460D01*
X686000Y-256540D01*
X688540Y-259080D01*
X691080D01*
Y-256540D01*
X688540Y-254000D01*
X691080Y-251460D01*
Y-248920D01*
X688540D01*
X686000Y-251460D01*
X683460Y-248920D01*
X680920D01*
Y-251460D01*
X683460Y-254000D01*
X680920Y-256540D01*
Y-259080D01*
Y-251080D02*
X683460D01*
X686000Y-248540D01*
X688540Y-251080D01*
X691080D01*
Y-248540D01*
X688540Y-246000D01*
X691080Y-243460D01*
Y-240920D01*
X688540D01*
X686000Y-243460D01*
X683460Y-240920D01*
X680920D01*
Y-243460D01*
X683460Y-246000D01*
X680920Y-248540D01*
Y-251080D01*
X503920Y-168080D02*
X506460D01*
X509000Y-165540D01*
X511540Y-168080D01*
X514080D01*
Y-165540D01*
X511540Y-163000D01*
X514080Y-160460D01*
Y-157920D01*
X511540D01*
X509000Y-160460D01*
X506460Y-157920D01*
X503920D01*
Y-160460D01*
X506460Y-163000D01*
X503920Y-165540D01*
Y-168080D01*
Y-156080D02*
X506460D01*
X509000Y-153540D01*
X511540Y-156080D01*
X514080D01*
Y-153540D01*
X511540Y-151000D01*
X514080Y-148460D01*
Y-145920D01*
X511540D01*
X509000Y-148460D01*
X506460Y-145920D01*
X503920D01*
Y-148460D01*
X506460Y-151000D01*
X503920Y-153540D01*
Y-156080D01*
Y-144080D02*
X506460D01*
X509000Y-141540D01*
X511540Y-144080D01*
X514080D01*
Y-141540D01*
X511540Y-139000D01*
X514080Y-136460D01*
Y-133920D01*
X511540D01*
X509000Y-136460D01*
X506460Y-133920D01*
X503920D01*
Y-136460D01*
X506460Y-139000D01*
X503920Y-141540D01*
Y-144080D01*
X771920Y480920D02*
X774460D01*
X777000Y483460D01*
X779540Y480920D01*
X782080D01*
Y483460D01*
X779540Y486000D01*
X782080Y488540D01*
Y491080D01*
X779540D01*
X777000Y488540D01*
X774460Y491080D01*
X771920D01*
Y488540D01*
X774460Y486000D01*
X771920Y483460D01*
Y480920D01*
Y11920D02*
X774460D01*
X777000Y14460D01*
X779540Y11920D01*
X782080D01*
Y14460D01*
X779540Y17000D01*
X782080Y19540D01*
Y22080D01*
X779540D01*
X777000Y19540D01*
X774460Y22080D01*
X771920D01*
Y19540D01*
X774460Y17000D01*
X771920Y14460D01*
Y11920D01*
Y-458080D02*
X774460D01*
X777000Y-455540D01*
X779540Y-458080D01*
X782080D01*
Y-455540D01*
X779540Y-453000D01*
X782080Y-450460D01*
Y-447920D01*
X779540D01*
X777000Y-450460D01*
X774460Y-447920D01*
X771920D01*
Y-450460D01*
X774460Y-453000D01*
X771920Y-455540D01*
Y-458080D01*
X568920Y-186080D02*
X571460D01*
X574000Y-183540D01*
X576540Y-186080D01*
X579080D01*
Y-183540D01*
X576540Y-181000D01*
X579080Y-178460D01*
Y-175920D01*
X576540D01*
X574000Y-178460D01*
X571460Y-175920D01*
X568920D01*
Y-178460D01*
X571460Y-181000D01*
X568920Y-183540D01*
Y-186080D01*
Y-206080D02*
X571460D01*
X574000Y-203540D01*
X576540Y-206080D01*
X579080D01*
Y-203540D01*
X576540Y-201000D01*
X579080Y-198460D01*
Y-195920D01*
X576540D01*
X574000Y-198460D01*
X571460Y-195920D01*
X568920D01*
Y-198460D01*
X571460Y-201000D01*
X568920Y-203540D01*
Y-206080D01*
Y-226080D02*
X571460D01*
X574000Y-223540D01*
X576540Y-226080D01*
X579080D01*
Y-223540D01*
X576540Y-221000D01*
X579080Y-218460D01*
Y-215920D01*
X576540D01*
X574000Y-218460D01*
X571460Y-215920D01*
X568920D01*
Y-218460D01*
X571460Y-221000D01*
X568920Y-223540D01*
Y-226080D01*
Y-236080D02*
X571460D01*
X574000Y-233540D01*
X576540Y-236080D01*
X579080D01*
Y-233540D01*
X576540Y-231000D01*
X579080Y-228460D01*
Y-225920D01*
X576540D01*
X574000Y-228460D01*
X571460Y-225920D01*
X568920D01*
Y-228460D01*
X571460Y-231000D01*
X568920Y-233540D01*
Y-236080D01*
Y-246080D02*
X571460D01*
X574000Y-243540D01*
X576540Y-246080D01*
X579080D01*
Y-243540D01*
X576540Y-241000D01*
X579080Y-238460D01*
Y-235920D01*
X576540D01*
X574000Y-238460D01*
X571460Y-235920D01*
X568920D01*
Y-238460D01*
X571460Y-241000D01*
X568920Y-243540D01*
Y-246080D01*
Y-256080D02*
X571460D01*
X574000Y-253540D01*
X576540Y-256080D01*
X579080D01*
Y-253540D01*
X576540Y-251000D01*
X579080Y-248460D01*
Y-245920D01*
X576540D01*
X574000Y-248460D01*
X571460Y-245920D01*
X568920D01*
Y-248460D01*
X571460Y-251000D01*
X568920Y-253540D01*
Y-256080D01*
X517920Y-208080D02*
X520460D01*
X523000Y-205540D01*
X525540Y-208080D01*
X528080D01*
Y-205540D01*
X525540Y-203000D01*
X528080Y-200460D01*
Y-197920D01*
X525540D01*
X523000Y-200460D01*
X520460Y-197920D01*
X517920D01*
Y-200460D01*
X520460Y-203000D01*
X517920Y-205540D01*
Y-208080D01*
X509920D02*
X512460D01*
X515000Y-205540D01*
X517540Y-208080D01*
X520080D01*
Y-205540D01*
X517540Y-203000D01*
X520080Y-200460D01*
Y-197920D01*
X517540D01*
X515000Y-200460D01*
X512460Y-197920D01*
X509920D01*
Y-200460D01*
X512460Y-203000D01*
X509920Y-205540D01*
Y-208080D01*
X501920D02*
X504460D01*
X507000Y-205540D01*
X509540Y-208080D01*
X512080D01*
Y-205540D01*
X509540Y-203000D01*
X512080Y-200460D01*
Y-197920D01*
X509540D01*
X507000Y-200460D01*
X504460Y-197920D01*
X501920D01*
Y-200460D01*
X504460Y-203000D01*
X501920Y-205540D01*
Y-208080D01*
X530920Y-136080D02*
X533460D01*
X536000Y-133540D01*
X538540Y-136080D01*
X541080D01*
Y-133540D01*
X538540Y-131000D01*
X541080Y-128460D01*
Y-125920D01*
X538540D01*
X536000Y-128460D01*
X533460Y-125920D01*
X530920D01*
Y-128460D01*
X533460Y-131000D01*
X530920Y-133540D01*
Y-136080D01*
X523920D02*
X526460D01*
X529000Y-133540D01*
X531540Y-136080D01*
X534080D01*
Y-133540D01*
X531540Y-131000D01*
X534080Y-128460D01*
Y-125920D01*
X531540D01*
X529000Y-128460D01*
X526460Y-125920D01*
X523920D01*
Y-128460D01*
X526460Y-131000D01*
X523920Y-133540D01*
Y-136080D01*
X504920Y-259080D02*
X507460D01*
X510000Y-256540D01*
X512540Y-259080D01*
X515080D01*
Y-256540D01*
X512540Y-254000D01*
X515080Y-251460D01*
Y-248920D01*
X512540D01*
X510000Y-251460D01*
X507460Y-248920D01*
X504920D01*
Y-251460D01*
X507460Y-254000D01*
X504920Y-256540D01*
Y-259080D01*
Y-267080D02*
X507460D01*
X510000Y-264540D01*
X512540Y-267080D01*
X515080D01*
Y-264540D01*
X512540Y-262000D01*
X515080Y-259460D01*
Y-256920D01*
X512540D01*
X510000Y-259460D01*
X507460Y-256920D01*
X504920D01*
Y-259460D01*
X507460Y-262000D01*
X504920Y-264540D01*
Y-267080D01*
Y-275080D02*
X507460D01*
X510000Y-272540D01*
X512540Y-275080D01*
X515080D01*
Y-272540D01*
X512540Y-270000D01*
X515080Y-267460D01*
Y-264920D01*
X512540D01*
X510000Y-267460D01*
X507460Y-264920D01*
X504920D01*
Y-267460D01*
X507460Y-270000D01*
X504920Y-272540D01*
Y-275080D01*
X487920Y-298080D02*
X490460D01*
X493000Y-295540D01*
X495540Y-298080D01*
X498080D01*
Y-295540D01*
X495540Y-293000D01*
X498080Y-290460D01*
Y-287920D01*
X495540D01*
X493000Y-290460D01*
X490460Y-287920D01*
X487920D01*
Y-290460D01*
X490460Y-293000D01*
X487920Y-295540D01*
Y-298080D01*
X513920D02*
X516460D01*
X519000Y-295540D01*
X521540Y-298080D01*
X524080D01*
Y-295540D01*
X521540Y-293000D01*
X524080Y-290460D01*
Y-287920D01*
X521540D01*
X519000Y-290460D01*
X516460Y-287920D01*
X513920D01*
Y-290460D01*
X516460Y-293000D01*
X513920Y-295540D01*
Y-298080D01*
X505920D02*
X508460D01*
X511000Y-295540D01*
X513540Y-298080D01*
X516080D01*
Y-295540D01*
X513540Y-293000D01*
X516080Y-290460D01*
Y-287920D01*
X513540D01*
X511000Y-290460D01*
X508460Y-287920D01*
X505920D01*
Y-290460D01*
X508460Y-293000D01*
X505920Y-295540D01*
Y-298080D01*
X497920D02*
X500460D01*
X503000Y-295540D01*
X505540Y-298080D01*
X508080D01*
Y-295540D01*
X505540Y-293000D01*
X508080Y-290460D01*
Y-287920D01*
X505540D01*
X503000Y-290460D01*
X500460Y-287920D01*
X497920D01*
Y-290460D01*
X500460Y-293000D01*
X497920Y-295540D01*
Y-298080D01*
X561920Y-283080D02*
X564460D01*
X567000Y-280540D01*
X569540Y-283080D01*
X572080D01*
Y-280540D01*
X569540Y-278000D01*
X572080Y-275460D01*
Y-272920D01*
X569540D01*
X567000Y-275460D01*
X564460Y-272920D01*
X561920D01*
Y-275460D01*
X564460Y-278000D01*
X561920Y-280540D01*
Y-283080D01*
X553920D02*
X556460D01*
X559000Y-280540D01*
X561540Y-283080D01*
X564080D01*
Y-280540D01*
X561540Y-278000D01*
X564080Y-275460D01*
Y-272920D01*
X561540D01*
X559000Y-275460D01*
X556460Y-272920D01*
X553920D01*
Y-275460D01*
X556460Y-278000D01*
X553920Y-280540D01*
Y-283080D01*
X545920D02*
X548460D01*
X551000Y-280540D01*
X553540Y-283080D01*
X556080D01*
Y-280540D01*
X553540Y-278000D01*
X556080Y-275460D01*
Y-272920D01*
X553540D01*
X551000Y-275460D01*
X548460Y-272920D01*
X545920D01*
Y-275460D01*
X548460Y-278000D01*
X545920Y-280540D01*
Y-283080D01*
X561920Y-275080D02*
X564460D01*
X567000Y-272540D01*
X569540Y-275080D01*
X572080D01*
Y-272540D01*
X569540Y-270000D01*
X572080Y-267460D01*
Y-264920D01*
X569540D01*
X567000Y-267460D01*
X564460Y-264920D01*
X561920D01*
Y-267460D01*
X564460Y-270000D01*
X561920Y-272540D01*
Y-275080D01*
X553920D02*
X556460D01*
X559000Y-272540D01*
X561540Y-275080D01*
X564080D01*
Y-272540D01*
X561540Y-270000D01*
X564080Y-267460D01*
Y-264920D01*
X561540D01*
X559000Y-267460D01*
X556460Y-264920D01*
X553920D01*
Y-267460D01*
X556460Y-270000D01*
X553920Y-272540D01*
Y-275080D01*
X545920D02*
X548460D01*
X551000Y-272540D01*
X553540Y-275080D01*
X556080D01*
Y-272540D01*
X553540Y-270000D01*
X556080Y-267460D01*
Y-264920D01*
X553540D01*
X551000Y-267460D01*
X548460Y-264920D01*
X545920D01*
Y-267460D01*
X548460Y-270000D01*
X545920Y-272540D01*
Y-275080D01*
X531920Y-112080D02*
X534460D01*
X537000Y-109540D01*
X539540Y-112080D01*
X542080D01*
Y-109540D01*
X539540Y-107000D01*
X542080Y-104460D01*
Y-101920D01*
X539540D01*
X537000Y-104460D01*
X534460Y-101920D01*
X531920D01*
Y-104460D01*
X534460Y-107000D01*
X531920Y-109540D01*
Y-112080D01*
X524920D02*
X527460D01*
X530000Y-109540D01*
X532540Y-112080D01*
X535080D01*
Y-109540D01*
X532540Y-107000D01*
X535080Y-104460D01*
Y-101920D01*
X532540D01*
X530000Y-104460D01*
X527460Y-101920D01*
X524920D01*
Y-104460D01*
X527460Y-107000D01*
X524920Y-109540D01*
Y-112080D01*
X531920Y-125080D02*
X534460D01*
X537000Y-122540D01*
X539540Y-125080D01*
X542080D01*
Y-122540D01*
X539540Y-120000D01*
X542080Y-117460D01*
Y-114920D01*
X539540D01*
X537000Y-117460D01*
X534460Y-114920D01*
X531920D01*
Y-117460D01*
X534460Y-120000D01*
X531920Y-122540D01*
Y-125080D01*
X524920D02*
X527460D01*
X530000Y-122540D01*
X532540Y-125080D01*
X535080D01*
Y-122540D01*
X532540Y-120000D01*
X535080Y-117460D01*
Y-114920D01*
X532540D01*
X530000Y-117460D01*
X527460Y-114920D01*
X524920D01*
Y-117460D01*
X527460Y-120000D01*
X524920Y-122540D01*
Y-125080D01*
X743920Y-416080D02*
X746460D01*
X749000Y-413540D01*
X751540Y-416080D01*
X754080D01*
Y-413540D01*
X751540Y-411000D01*
X754080Y-408460D01*
Y-405920D01*
X751540D01*
X749000Y-408460D01*
X746460Y-405920D01*
X743920D01*
Y-408460D01*
X746460Y-411000D01*
X743920Y-413540D01*
Y-416080D01*
X735920D02*
X738460D01*
X741000Y-413540D01*
X743540Y-416080D01*
X746080D01*
Y-413540D01*
X743540Y-411000D01*
X746080Y-408460D01*
Y-405920D01*
X743540D01*
X741000Y-408460D01*
X738460Y-405920D01*
X735920D01*
Y-408460D01*
X738460Y-411000D01*
X735920Y-413540D01*
Y-416080D01*
X743920Y53920D02*
X746460D01*
X749000Y56460D01*
X751540Y53920D01*
X754080D01*
Y56460D01*
X751540Y59000D01*
X754080Y61540D01*
Y64080D01*
X751540D01*
X749000Y61540D01*
X746460Y64080D01*
X743920D01*
Y61540D01*
X746460Y59000D01*
X743920Y56460D01*
Y53920D01*
X735920D02*
X738460D01*
X741000Y56460D01*
X743540Y53920D01*
X746080D01*
Y56460D01*
X743540Y59000D01*
X746080Y61540D01*
Y64080D01*
X743540D01*
X741000Y61540D01*
X738460Y64080D01*
X735920D01*
Y61540D01*
X738460Y59000D01*
X735920Y56460D01*
Y53920D01*
Y523920D02*
X738460D01*
X741000Y526460D01*
X743540Y523920D01*
X746080D01*
Y526460D01*
X743540Y529000D01*
X746080Y531540D01*
Y534080D01*
X743540D01*
X741000Y531540D01*
X738460Y534080D01*
X735920D01*
Y531540D01*
X738460Y529000D01*
X735920Y526460D01*
Y523920D01*
X743920D02*
X746460D01*
X749000Y526460D01*
X751540Y523920D01*
X754080D01*
Y526460D01*
X751540Y529000D01*
X754080Y531540D01*
Y534080D01*
X751540D01*
X749000Y531540D01*
X746460Y534080D01*
X743920D01*
Y531540D01*
X746460Y529000D01*
X743920Y526460D01*
Y523920D01*
X763920Y466920D02*
X766460D01*
X769000Y469460D01*
X771540Y466920D01*
X774080D01*
Y469460D01*
X771540Y472000D01*
X774080Y474540D01*
Y477080D01*
X771540D01*
X769000Y474540D01*
X766460Y477080D01*
X763920D01*
Y474540D01*
X766460Y472000D01*
X763920Y469460D01*
Y466920D01*
Y-2080D02*
X766460D01*
X769000Y460D01*
X771540Y-2080D01*
X774080D01*
Y460D01*
X771540Y3000D01*
X774080Y5540D01*
Y8080D01*
X771540D01*
X769000Y5540D01*
X766460Y8080D01*
X763920D01*
Y5540D01*
X766460Y3000D01*
X763920Y460D01*
Y-2080D01*
Y-473080D02*
X766460D01*
X769000Y-470540D01*
X771540Y-473080D01*
X774080D01*
Y-470540D01*
X771540Y-468000D01*
X774080Y-465460D01*
Y-462920D01*
X771540D01*
X769000Y-465460D01*
X766460Y-462920D01*
X763920D01*
Y-465460D01*
X766460Y-468000D01*
X763920Y-470540D01*
Y-473080D01*
X-1104080Y336920D02*
X-1101540D01*
X-1099000Y339460D01*
X-1096460Y336920D01*
X-1093920D01*
Y339460D01*
X-1096460Y342000D01*
X-1093920Y344540D01*
Y347080D01*
X-1096460D01*
X-1099000Y344540D01*
X-1101540Y347080D01*
X-1104080D01*
Y344540D01*
X-1101540Y342000D01*
X-1104080Y339460D01*
Y336920D01*
X-1113080D02*
X-1110540D01*
X-1108000Y339460D01*
X-1105460Y336920D01*
X-1102920D01*
Y339460D01*
X-1105460Y342000D01*
X-1102920Y344540D01*
Y347080D01*
X-1105460D01*
X-1108000Y344540D01*
X-1110540Y347080D01*
X-1113080D01*
Y344540D01*
X-1110540Y342000D01*
X-1113080Y339460D01*
Y336920D01*
X-24080Y-686000D02*
X-19000Y-680920D01*
X-13920Y-686000D01*
X-19000Y-691080D01*
X-24080Y-686000D01*
X-47080Y-14080D02*
X-44540D01*
X-42000Y-11540D01*
X-39460Y-14080D01*
X-36920D01*
Y-11540D01*
X-39460Y-9000D01*
X-36920Y-6460D01*
Y-3920D01*
X-39460D01*
X-42000Y-6460D01*
X-44540Y-3920D01*
X-47080D01*
Y-6460D01*
X-44540Y-9000D01*
X-47080Y-11540D01*
Y-14080D01*
X-53080Y-8080D02*
X-50540D01*
X-48000Y-5540D01*
X-45460Y-8080D01*
X-42920D01*
Y-5540D01*
X-45460Y-3000D01*
X-42920Y-460D01*
Y2080D01*
X-45460D01*
X-48000Y-460D01*
X-50540Y2080D01*
X-53080D01*
Y-460D01*
X-50540Y-3000D01*
X-53080Y-5540D01*
Y-8080D01*
X-54080Y195920D02*
X-51540D01*
X-49000Y198460D01*
X-46460Y195920D01*
X-43920D01*
Y198460D01*
X-46460Y201000D01*
X-43920Y203540D01*
Y206080D01*
X-46460D01*
X-49000Y203540D01*
X-51540Y206080D01*
X-54080D01*
Y203540D01*
X-51540Y201000D01*
X-54080Y198460D01*
Y195920D01*
X-37080Y195000D02*
X-32000Y200080D01*
X-26920Y195000D01*
X-32000Y189920D01*
X-37080Y195000D01*
X32920Y171000D02*
X38000Y176080D01*
X43080Y171000D01*
X38000Y165920D01*
X32920Y171000D01*
X23920Y113000D02*
X29000Y118080D01*
X34080Y113000D01*
X29000Y107920D01*
X23920Y113000D01*
X25920Y123000D02*
X31000Y128080D01*
X36080Y123000D01*
X31000Y117920D01*
X25920Y123000D01*
X15920Y-692000D02*
X21000Y-686920D01*
X26080Y-692000D01*
X21000Y-697080D01*
X15920Y-692000D01*
X33920Y-627000D02*
X39000Y-621920D01*
X44080Y-627000D01*
X39000Y-632080D01*
X33920Y-627000D01*
X39920Y-621000D02*
X45000Y-615920D01*
X50080Y-621000D01*
X45000Y-626080D01*
X39920Y-621000D01*
X31920Y-602000D02*
X37000Y-596920D01*
X42080Y-602000D01*
X37000Y-607080D01*
X31920Y-602000D01*
X12920Y-186000D02*
X18000Y-180920D01*
X23080Y-186000D01*
X18000Y-191080D01*
X12920Y-186000D01*
X11894Y-174244D02*
X16974Y-169164D01*
X22054Y-174244D01*
X16974Y-179324D01*
X11894Y-174244D01*
X8920Y-391000D02*
X14000Y-385920D01*
X19080Y-391000D01*
X14000Y-396080D01*
X8920Y-391000D01*
X10920Y-405000D02*
X16000Y-399920D01*
X21080Y-405000D01*
X16000Y-410080D01*
X10920Y-405000D01*
X-39080Y282920D02*
X-36540D01*
X-34000Y285460D01*
X-31460Y282920D01*
X-28920D01*
Y285460D01*
X-31460Y288000D01*
X-28920Y290540D01*
Y293080D01*
X-31460D01*
X-34000Y290540D01*
X-36540Y293080D01*
X-39080D01*
Y290540D01*
X-36540Y288000D01*
X-39080Y285460D01*
Y282920D01*
Y259920D02*
X-36540D01*
X-34000Y262460D01*
X-31460Y259920D01*
X-28920D01*
Y262460D01*
X-31460Y265000D01*
X-28920Y267540D01*
Y270080D01*
X-31460D01*
X-34000Y267540D01*
X-36540Y270080D01*
X-39080D01*
Y267540D01*
X-36540Y265000D01*
X-39080Y262460D01*
Y259920D01*
X-98580Y282920D02*
X-96040D01*
X-93500Y285460D01*
X-90960Y282920D01*
X-88420D01*
Y285460D01*
X-90960Y288000D01*
X-88420Y290540D01*
Y293080D01*
X-90960D01*
X-93500Y290540D01*
X-96040Y293080D01*
X-98580D01*
Y290540D01*
X-96040Y288000D01*
X-98580Y285460D01*
Y282920D01*
X-44080Y227920D02*
X-41540D01*
X-39000Y230460D01*
X-36460Y227920D01*
X-33920D01*
Y230460D01*
X-36460Y233000D01*
X-33920Y235540D01*
Y238080D01*
X-36460D01*
X-39000Y235540D01*
X-41540Y238080D01*
X-44080D01*
Y235540D01*
X-41540Y233000D01*
X-44080Y230460D01*
Y227920D01*
X-63080Y186000D02*
X-58000Y191080D01*
X-52920Y186000D01*
X-58000Y180920D01*
X-63080Y186000D01*
X-51080Y227920D02*
X-48540D01*
X-46000Y230460D01*
X-43460Y227920D01*
X-40920D01*
Y230460D01*
X-43460Y233000D01*
X-40920Y235540D01*
Y238080D01*
X-43460D01*
X-46000Y235540D01*
X-48540Y238080D01*
X-51080D01*
Y235540D01*
X-48540Y233000D01*
X-51080Y230460D01*
Y227920D01*
X-42080Y206920D02*
X-39540D01*
X-37000Y209460D01*
X-34460Y206920D01*
X-31920D01*
Y209460D01*
X-34460Y212000D01*
X-31920Y214540D01*
Y217080D01*
X-34460D01*
X-37000Y214540D01*
X-39540Y217080D01*
X-42080D01*
Y214540D01*
X-39540Y212000D01*
X-42080Y209460D01*
Y206920D01*
X-83080Y277000D02*
X-78000Y282080D01*
X-72920Y277000D01*
X-78000Y271920D01*
X-83080Y277000D01*
X-4080Y-636080D02*
X-1540D01*
X1000Y-633540D01*
X3540Y-636080D01*
X6080D01*
Y-633540D01*
X3540Y-631000D01*
X6080Y-628460D01*
Y-625920D01*
X3540D01*
X1000Y-628460D01*
X-1540Y-625920D01*
X-4080D01*
Y-628460D01*
X-1540Y-631000D01*
X-4080Y-633540D01*
Y-636080D01*
Y-628080D02*
X-1540D01*
X1000Y-625540D01*
X3540Y-628080D01*
X6080D01*
Y-625540D01*
X3540Y-623000D01*
X6080Y-620460D01*
Y-617920D01*
X3540D01*
X1000Y-620460D01*
X-1540Y-617920D01*
X-4080D01*
Y-620460D01*
X-1540Y-623000D01*
X-4080Y-625540D01*
Y-628080D01*
Y-620080D02*
X-1540D01*
X1000Y-617540D01*
X3540Y-620080D01*
X6080D01*
Y-617540D01*
X3540Y-615000D01*
X6080Y-612460D01*
Y-609920D01*
X3540D01*
X1000Y-612460D01*
X-1540Y-609920D01*
X-4080D01*
Y-612460D01*
X-1540Y-615000D01*
X-4080Y-617540D01*
Y-620080D01*
X72920Y-557080D02*
X75460D01*
X78000Y-554540D01*
X80540Y-557080D01*
X83080D01*
Y-554540D01*
X80540Y-552000D01*
X83080Y-549460D01*
Y-546920D01*
X80540D01*
X78000Y-549460D01*
X75460Y-546920D01*
X72920D01*
Y-549460D01*
X75460Y-552000D01*
X72920Y-554540D01*
Y-557080D01*
Y-549080D02*
X75460D01*
X78000Y-546540D01*
X80540Y-549080D01*
X83080D01*
Y-546540D01*
X80540Y-544000D01*
X83080Y-541460D01*
Y-538920D01*
X80540D01*
X78000Y-541460D01*
X75460Y-538920D01*
X72920D01*
Y-541460D01*
X75460Y-544000D01*
X72920Y-546540D01*
Y-549080D01*
Y-541080D02*
X75460D01*
X78000Y-538540D01*
X80540Y-541080D01*
X83080D01*
Y-538540D01*
X80540Y-536000D01*
X83080Y-533460D01*
Y-530920D01*
X80540D01*
X78000Y-533460D01*
X75460Y-530920D01*
X72920D01*
Y-533460D01*
X75460Y-536000D01*
X72920Y-538540D01*
Y-541080D01*
Y-533080D02*
X75460D01*
X78000Y-530540D01*
X80540Y-533080D01*
X83080D01*
Y-530540D01*
X80540Y-528000D01*
X83080Y-525460D01*
Y-522920D01*
X80540D01*
X78000Y-525460D01*
X75460Y-522920D01*
X72920D01*
Y-525460D01*
X75460Y-528000D01*
X72920Y-530540D01*
Y-533080D01*
X-36080Y-516000D02*
X-31000Y-510920D01*
X-25920Y-516000D01*
X-31000Y-521080D01*
X-36080Y-516000D01*
X-71080Y-710080D02*
X-68540D01*
X-66000Y-707540D01*
X-63460Y-710080D01*
X-60920D01*
Y-707540D01*
X-63460Y-705000D01*
X-60920Y-702460D01*
Y-699920D01*
X-63460D01*
X-66000Y-702460D01*
X-68540Y-699920D01*
X-71080D01*
Y-702460D01*
X-68540Y-705000D01*
X-71080Y-707540D01*
Y-710080D01*
X-59080Y-27080D02*
X-56540D01*
X-54000Y-24540D01*
X-51460Y-27080D01*
X-48920D01*
Y-24540D01*
X-51460Y-22000D01*
X-48920Y-19460D01*
Y-16920D01*
X-51460D01*
X-54000Y-19460D01*
X-56540Y-16920D01*
X-59080D01*
Y-19460D01*
X-56540Y-22000D01*
X-59080Y-24540D01*
Y-27080D01*
Y-31000D02*
X-54000Y-25920D01*
X-48920Y-31000D01*
X-54000Y-36080D01*
X-59080Y-31000D01*
X-58080Y-315000D02*
X-53000Y-309920D01*
X-47920Y-315000D01*
X-53000Y-320080D01*
X-58080Y-315000D01*
X-77080Y-479000D02*
X-72000Y-473920D01*
X-66920Y-479000D01*
X-72000Y-484080D01*
X-77080Y-479000D01*
X-46080Y-542080D02*
X-43540D01*
X-41000Y-539540D01*
X-38460Y-542080D01*
X-35920D01*
Y-539540D01*
X-38460Y-537000D01*
X-35920Y-534460D01*
Y-531920D01*
X-38460D01*
X-41000Y-534460D01*
X-43540Y-531920D01*
X-46080D01*
Y-534460D01*
X-43540Y-537000D01*
X-46080Y-539540D01*
Y-542080D01*
X-51293Y-530293D02*
X-48752D01*
X-46213Y-527752D01*
X-43672Y-530293D01*
X-41132D01*
Y-527752D01*
X-43672Y-525213D01*
X-41132Y-522673D01*
Y-520132D01*
X-43672D01*
X-46213Y-522673D01*
X-48752Y-520132D01*
X-51293D01*
Y-522673D01*
X-48752Y-525213D01*
X-51293Y-527752D01*
Y-530293D01*
X-65080Y-419000D02*
X-60000Y-413920D01*
X-54920Y-419000D01*
X-60000Y-424080D01*
X-65080Y-419000D01*
X-53080Y-43000D02*
X-48000Y-37920D01*
X-42920Y-43000D01*
X-48000Y-48080D01*
X-53080Y-43000D01*
X-45080Y-26000D02*
X-40000Y-20920D01*
X-34920Y-26000D01*
X-40000Y-31080D01*
X-45080Y-26000D01*
X2920Y-326000D02*
X8000Y-320920D01*
X13080Y-326000D01*
X8000Y-331080D01*
X2920Y-326000D01*
X-46080Y10920D02*
X-43540D01*
X-41000Y13460D01*
X-38460Y10920D01*
X-35920D01*
Y13460D01*
X-38460Y16000D01*
X-35920Y18540D01*
Y21080D01*
X-38460D01*
X-41000Y18540D01*
X-43540Y21080D01*
X-46080D01*
Y18540D01*
X-43540Y16000D01*
X-46080Y13460D01*
Y10920D01*
X-53080Y21920D02*
X-50540D01*
X-48000Y24460D01*
X-45460Y21920D01*
X-42920D01*
Y24460D01*
X-45460Y27000D01*
X-42920Y29540D01*
Y32080D01*
X-45460D01*
X-48000Y29540D01*
X-50540Y32080D01*
X-53080D01*
Y29540D01*
X-50540Y27000D01*
X-53080Y24460D01*
Y21920D01*
X-27080Y-258000D02*
X-22000Y-252920D01*
X-16920Y-258000D01*
X-22000Y-263080D01*
X-27080Y-258000D01*
X-187080Y279920D02*
X-184540D01*
X-182000Y282460D01*
X-179460Y279920D01*
X-176920D01*
Y282460D01*
X-179460Y285000D01*
X-176920Y287540D01*
Y290080D01*
X-179460D01*
X-182000Y287540D01*
X-184540Y290080D01*
X-187080D01*
Y287540D01*
X-184540Y285000D01*
X-187080Y282460D01*
Y279920D01*
X-221080Y194920D02*
X-218540D01*
X-216000Y197460D01*
X-213460Y194920D01*
X-210920D01*
Y197460D01*
X-213460Y200000D01*
X-210920Y202540D01*
Y205080D01*
X-213460D01*
X-216000Y202540D01*
X-218540Y205080D01*
X-221080D01*
Y202540D01*
X-218540Y200000D01*
X-221080Y197460D01*
Y194920D01*
X-205080Y230920D02*
X-202540D01*
X-200000Y233460D01*
X-197460Y230920D01*
X-194920D01*
Y233460D01*
X-197460Y236000D01*
X-194920Y238540D01*
Y241080D01*
X-197460D01*
X-200000Y238540D01*
X-202540Y241080D01*
X-205080D01*
Y238540D01*
X-202540Y236000D01*
X-205080Y233460D01*
Y230920D01*
Y194920D02*
X-202540D01*
X-200000Y197460D01*
X-197460Y194920D01*
X-194920D01*
Y197460D01*
X-197460Y200000D01*
X-194920Y202540D01*
Y205080D01*
X-197460D01*
X-200000Y202540D01*
X-202540Y205080D01*
X-205080D01*
Y202540D01*
X-202540Y200000D01*
X-205080Y197460D01*
Y194920D01*
X-303080Y241920D02*
X-300540D01*
X-298000Y244460D01*
X-295460Y241920D01*
X-292920D01*
Y244460D01*
X-295460Y247000D01*
X-292920Y249540D01*
Y252080D01*
X-295460D01*
X-298000Y249540D01*
X-300540Y252080D01*
X-303080D01*
Y249540D01*
X-300540Y247000D01*
X-303080Y244460D01*
Y241920D01*
Y233920D02*
X-300540D01*
X-298000Y236460D01*
X-295460Y233920D01*
X-292920D01*
Y236460D01*
X-295460Y239000D01*
X-292920Y241540D01*
Y244080D01*
X-295460D01*
X-298000Y241540D01*
X-300540Y244080D01*
X-303080D01*
Y241540D01*
X-300540Y239000D01*
X-303080Y236460D01*
Y233920D01*
X-996080Y386920D02*
X-993540D01*
X-991000Y389460D01*
X-988460Y386920D01*
X-985920D01*
Y389460D01*
X-988460Y392000D01*
X-985920Y394540D01*
Y397080D01*
X-988460D01*
X-991000Y394540D01*
X-993540Y397080D01*
X-996080D01*
Y394540D01*
X-993540Y392000D01*
X-996080Y389460D01*
Y386920D01*
X-338080Y287920D02*
X-335540D01*
X-333000Y290460D01*
X-330460Y287920D01*
X-327920D01*
Y290460D01*
X-330460Y293000D01*
X-327920Y295540D01*
Y298080D01*
X-330460D01*
X-333000Y295540D01*
X-335540Y298080D01*
X-338080D01*
Y295540D01*
X-335540Y293000D01*
X-338080Y290460D01*
Y287920D01*
X-1196080Y383920D02*
X-1193540D01*
X-1191000Y386460D01*
X-1188460Y383920D01*
X-1185920D01*
Y386460D01*
X-1188460Y389000D01*
X-1185920Y391540D01*
Y394080D01*
X-1188460D01*
X-1191000Y391540D01*
X-1193540Y394080D01*
X-1196080D01*
Y391540D01*
X-1193540Y389000D01*
X-1196080Y386460D01*
Y383920D01*
X-224080Y258920D02*
X-221540D01*
X-219000Y261460D01*
X-216460Y258920D01*
X-213920D01*
Y261460D01*
X-216460Y264000D01*
X-213920Y266540D01*
Y269080D01*
X-216460D01*
X-219000Y266540D01*
X-221540Y269080D01*
X-224080D01*
Y266540D01*
X-221540Y264000D01*
X-224080Y261460D01*
Y258920D01*
X-254080Y265920D02*
X-251540D01*
X-249000Y268460D01*
X-246460Y265920D01*
X-243920D01*
Y268460D01*
X-246460Y271000D01*
X-243920Y273540D01*
Y276080D01*
X-246460D01*
X-249000Y273540D01*
X-251540Y276080D01*
X-254080D01*
Y273540D01*
X-251540Y271000D01*
X-254080Y268460D01*
Y265920D01*
X-262080Y194920D02*
X-259540D01*
X-257000Y197460D01*
X-254460Y194920D01*
X-251920D01*
Y197460D01*
X-254460Y200000D01*
X-251920Y202540D01*
Y205080D01*
X-254460D01*
X-257000Y202540D01*
X-259540Y205080D01*
X-262080D01*
Y202540D01*
X-259540Y200000D01*
X-262080Y197460D01*
Y194920D01*
X-208080Y260920D02*
X-205540D01*
X-203000Y263460D01*
X-200460Y260920D01*
X-197920D01*
Y263460D01*
X-200460Y266000D01*
X-197920Y268540D01*
Y271080D01*
X-200460D01*
X-203000Y268540D01*
X-205540Y271080D01*
X-208080D01*
Y268540D01*
X-205540Y266000D01*
X-208080Y263460D01*
Y260920D01*
X-205080Y219920D02*
X-202540D01*
X-200000Y222460D01*
X-197460Y219920D01*
X-194920D01*
Y222460D01*
X-197460Y225000D01*
X-194920Y227540D01*
Y230080D01*
X-197460D01*
X-200000Y227540D01*
X-202540Y230080D01*
X-205080D01*
Y227540D01*
X-202540Y225000D01*
X-205080Y222460D01*
Y219920D01*
X-178080Y193920D02*
X-175540D01*
X-173000Y196460D01*
X-170460Y193920D01*
X-167920D01*
Y196460D01*
X-170460Y199000D01*
X-167920Y201540D01*
Y204080D01*
X-170460D01*
X-173000Y201540D01*
X-175540Y204080D01*
X-178080D01*
Y201540D01*
X-175540Y199000D01*
X-178080Y196460D01*
Y193920D01*
X-222080Y220920D02*
X-219540D01*
X-217000Y223460D01*
X-214460Y220920D01*
X-211920D01*
Y223460D01*
X-214460Y226000D01*
X-211920Y228540D01*
Y231080D01*
X-214460D01*
X-217000Y228540D01*
X-219540Y231080D01*
X-222080D01*
Y228540D01*
X-219540Y226000D01*
X-222080Y223460D01*
Y220920D01*
Y242920D02*
X-219540D01*
X-217000Y245460D01*
X-214460Y242920D01*
X-211920D01*
Y245460D01*
X-214460Y248000D01*
X-211920Y250540D01*
Y253080D01*
X-214460D01*
X-217000Y250540D01*
X-219540Y253080D01*
X-222080D01*
Y250540D01*
X-219540Y248000D01*
X-222080Y245460D01*
Y242920D01*
X-289080Y194920D02*
X-286540D01*
X-284000Y197460D01*
X-281460Y194920D01*
X-278920D01*
Y197460D01*
X-281460Y200000D01*
X-278920Y202540D01*
Y205080D01*
X-281460D01*
X-284000Y202540D01*
X-286540Y205080D01*
X-289080D01*
Y202540D01*
X-286540Y200000D01*
X-289080Y197460D01*
Y194920D01*
X-280080Y194920D02*
X-277540D01*
X-275000Y197460D01*
X-272460Y194920D01*
X-269920D01*
Y197460D01*
X-272460Y200000D01*
X-269920Y202540D01*
Y205080D01*
X-272460D01*
X-275000Y202540D01*
X-277540Y205080D01*
X-280080D01*
Y202540D01*
X-277540Y200000D01*
X-280080Y197460D01*
Y194920D01*
X-244080D02*
X-241540D01*
X-239000Y197460D01*
X-236460Y194920D01*
X-233920D01*
Y197460D01*
X-236460Y200000D01*
X-233920Y202540D01*
Y205080D01*
X-236460D01*
X-239000Y202540D01*
X-241540Y205080D01*
X-244080D01*
Y202540D01*
X-241540Y200000D01*
X-244080Y197460D01*
Y194920D01*
X-235080Y194920D02*
X-232540D01*
X-230000Y197460D01*
X-227460Y194920D01*
X-224920D01*
Y197460D01*
X-227460Y200000D01*
X-224920Y202540D01*
Y205080D01*
X-227460D01*
X-230000Y202540D01*
X-232540Y205080D01*
X-235080D01*
Y202540D01*
X-232540Y200000D01*
X-235080Y197460D01*
Y194920D01*
X-253080D02*
X-250540D01*
X-248000Y197460D01*
X-245460Y194920D01*
X-242920D01*
Y197460D01*
X-245460Y200000D01*
X-242920Y202540D01*
Y205080D01*
X-245460D01*
X-248000Y202540D01*
X-250540Y205080D01*
X-253080D01*
Y202540D01*
X-250540Y200000D01*
X-253080Y197460D01*
Y194920D01*
X-271080D02*
X-268540D01*
X-266000Y197460D01*
X-263460Y194920D01*
X-260920D01*
Y197460D01*
X-263460Y200000D01*
X-260920Y202540D01*
Y205080D01*
X-263460D01*
X-266000Y202540D01*
X-268540Y205080D01*
X-271080D01*
Y202540D01*
X-268540Y200000D01*
X-271080Y197460D01*
Y194920D01*
X-61080Y149000D02*
X-56000Y154080D01*
X-50920Y149000D01*
X-56000Y143920D01*
X-61080Y149000D01*
X-58080Y34920D02*
X-55540D01*
X-53000Y37460D01*
X-50460Y34920D01*
X-47920D01*
Y37460D01*
X-50460Y40000D01*
X-47920Y42540D01*
Y45080D01*
X-50460D01*
X-53000Y42540D01*
X-55540Y45080D01*
X-58080D01*
Y42540D01*
X-55540Y40000D01*
X-58080Y37460D01*
Y34920D01*
X-60080Y-745080D02*
X-57540D01*
X-55000Y-742540D01*
X-52460Y-745080D01*
X-49920D01*
Y-742540D01*
X-52460Y-740000D01*
X-49920Y-737460D01*
Y-734920D01*
X-52460D01*
X-55000Y-737460D01*
X-57540Y-734920D01*
X-60080D01*
Y-737460D01*
X-57540Y-740000D01*
X-60080Y-742540D01*
Y-745080D01*
Y-737080D02*
X-57540D01*
X-55000Y-734540D01*
X-52460Y-737080D01*
X-49920D01*
Y-734540D01*
X-52460Y-732000D01*
X-49920Y-729460D01*
Y-726920D01*
X-52460D01*
X-55000Y-729460D01*
X-57540Y-726920D01*
X-60080D01*
Y-729460D01*
X-57540Y-732000D01*
X-60080Y-734540D01*
Y-737080D01*
X-99080Y-761080D02*
X-96540D01*
X-94000Y-758540D01*
X-91460Y-761080D01*
X-88920D01*
Y-758540D01*
X-91460Y-756000D01*
X-88920Y-753460D01*
Y-750920D01*
X-91460D01*
X-94000Y-753460D01*
X-96540Y-750920D01*
X-99080D01*
Y-753460D01*
X-96540Y-756000D01*
X-99080Y-758540D01*
Y-761080D01*
Y-768080D02*
X-96540D01*
X-94000Y-765540D01*
X-91460Y-768080D01*
X-88920D01*
Y-765540D01*
X-91460Y-763000D01*
X-88920Y-760460D01*
Y-757920D01*
X-91460D01*
X-94000Y-760460D01*
X-96540Y-757920D01*
X-99080D01*
Y-760460D01*
X-96540Y-763000D01*
X-99080Y-765540D01*
Y-768080D01*
X-29080Y-201000D02*
X-24000Y-195920D01*
X-18920Y-201000D01*
X-24000Y-206080D01*
X-29080Y-201000D01*
Y-180000D02*
X-24000Y-174920D01*
X-18920Y-180000D01*
X-24000Y-185080D01*
X-29080Y-180000D01*
X-26080Y-171000D02*
X-21000Y-165920D01*
X-15920Y-171000D01*
X-21000Y-176080D01*
X-26080Y-171000D01*
X29920Y-229000D02*
X35000Y-223920D01*
X40080Y-229000D01*
X35000Y-234080D01*
X29920Y-229000D01*
X-5080Y91000D02*
X0Y96080D01*
X5080Y91000D01*
X0Y85920D01*
X-5080Y91000D01*
X23920Y281000D02*
X29000Y286080D01*
X34080Y281000D01*
X29000Y275920D01*
X23920Y281000D01*
X7920Y149000D02*
X13000Y154080D01*
X18080Y149000D01*
X13000Y143920D01*
X7920Y149000D01*
X12920Y156000D02*
X18000Y161080D01*
X23080Y156000D01*
X18000Y150920D01*
X12920Y156000D01*
X18920Y162000D02*
X24000Y167080D01*
X29080Y162000D01*
X24000Y156920D01*
X18920Y162000D01*
X-6080Y99000D02*
X-1000Y104080D01*
X4080Y99000D01*
X-1000Y93920D01*
X-6080Y99000D01*
X-20080D02*
X-15000Y104080D01*
X-9920Y99000D01*
X-15000Y93920D01*
X-20080Y99000D01*
X-57080Y109000D02*
X-52000Y114080D01*
X-46920Y109000D01*
X-52000Y103920D01*
X-57080Y109000D01*
X63920Y-23000D02*
X69000Y-17920D01*
X74080Y-23000D01*
X69000Y-28080D01*
X63920Y-23000D01*
X-45080Y656000D02*
X-40000Y661080D01*
X-34920Y656000D01*
X-40000Y650920D01*
X-45080Y656000D01*
X-30080Y-654000D02*
X-25000Y-648920D01*
X-19920Y-654000D01*
X-25000Y-659080D01*
X-30080Y-654000D01*
X31920Y245000D02*
X37000Y250080D01*
X42080Y245000D01*
X37000Y239920D01*
X31920Y245000D01*
X62920Y-318000D02*
X68000Y-312920D01*
X73080Y-318000D01*
X68000Y-323080D01*
X62920Y-318000D01*
Y-310000D02*
X68000Y-304920D01*
X73080Y-310000D01*
X68000Y-315080D01*
X62920Y-310000D01*
X59920Y-252080D02*
X62460D01*
X65000Y-249540D01*
X67540Y-252080D01*
X70080D01*
Y-249540D01*
X67540Y-247000D01*
X70080Y-244460D01*
Y-241920D01*
X67540D01*
X65000Y-244460D01*
X62460Y-241920D01*
X59920D01*
Y-244460D01*
X62460Y-247000D01*
X59920Y-249540D01*
Y-252080D01*
X-24080Y-664000D02*
X-19000Y-658920D01*
X-13920Y-664000D01*
X-19000Y-669080D01*
X-24080Y-664000D01*
X-284080Y475920D02*
X-281540D01*
X-279000Y478460D01*
X-276460Y475920D01*
X-273920D01*
Y478460D01*
X-276460Y481000D01*
X-273920Y483540D01*
Y486080D01*
X-276460D01*
X-279000Y483540D01*
X-281540Y486080D01*
X-284080D01*
Y483540D01*
X-281540Y481000D01*
X-284080Y478460D01*
Y475920D01*
Y-463080D02*
X-281540D01*
X-279000Y-460540D01*
X-276460Y-463080D01*
X-273920D01*
Y-460540D01*
X-276460Y-458000D01*
X-273920Y-455460D01*
Y-452920D01*
X-276460D01*
X-279000Y-455460D01*
X-281540Y-452920D01*
X-284080D01*
Y-455460D01*
X-281540Y-458000D01*
X-284080Y-460540D01*
Y-463080D01*
Y5920D02*
X-281540D01*
X-279000Y8460D01*
X-276460Y5920D01*
X-273920D01*
Y8460D01*
X-276460Y11000D01*
X-273920Y13540D01*
Y16080D01*
X-276460D01*
X-279000Y13540D01*
X-281540Y16080D01*
X-284080D01*
Y13540D01*
X-281540Y11000D01*
X-284080Y8460D01*
Y5920D01*
X-187080Y691920D02*
X-184540D01*
X-182000Y694460D01*
X-179460Y691920D01*
X-176920D01*
Y694460D01*
X-179460Y697000D01*
X-176920Y699540D01*
Y702080D01*
X-179460D01*
X-182000Y699540D01*
X-184540Y702080D01*
X-187080D01*
Y699540D01*
X-184540Y697000D01*
X-187080Y694460D01*
Y691920D01*
X41920Y-316000D02*
X47000Y-310920D01*
X52080Y-316000D01*
X47000Y-321080D01*
X41920Y-316000D01*
X245920Y15000D02*
X251000Y20080D01*
X256080Y15000D01*
X251000Y9920D01*
X245920Y15000D01*
X278420Y-520080D02*
X280960D01*
X283500Y-517540D01*
X286040Y-520080D01*
X288580D01*
Y-517540D01*
X286040Y-515000D01*
X288580Y-512460D01*
Y-509920D01*
X286040D01*
X283500Y-512460D01*
X280960Y-509920D01*
X278420D01*
Y-512460D01*
X280960Y-515000D01*
X278420Y-517540D01*
Y-520080D01*
Y-49080D02*
X280960D01*
X283500Y-46540D01*
X286040Y-49080D01*
X288580D01*
Y-46540D01*
X286040Y-44000D01*
X288580Y-41460D01*
Y-38920D01*
X286040D01*
X283500Y-41460D01*
X280960Y-38920D01*
X278420D01*
Y-41460D01*
X280960Y-44000D01*
X278420Y-46540D01*
Y-49080D01*
Y419920D02*
X280960D01*
X283500Y422460D01*
X286040Y419920D01*
X288580D01*
Y422460D01*
X286040Y425000D01*
X288580Y427540D01*
Y430080D01*
X286040D01*
X283500Y427540D01*
X280960Y430080D01*
X278420D01*
Y427540D01*
X280960Y425000D01*
X278420Y422460D01*
Y419920D01*
X-214080Y636000D02*
X-209000Y641080D01*
X-203920Y636000D01*
X-209000Y630920D01*
X-214080Y636000D01*
X-212080Y589000D02*
X-207000Y594080D01*
X-201920Y589000D01*
X-207000Y583920D01*
X-212080Y589000D01*
Y597000D02*
X-207000Y602080D01*
X-201920Y597000D01*
X-207000Y591920D01*
X-212080Y597000D01*
X-208080Y534850D02*
X-203000Y539930D01*
X-197920Y534850D01*
X-203000Y529770D01*
X-208080Y534850D01*
X-207080Y727000D02*
X-202000Y732080D01*
X-196920Y727000D01*
X-202000Y721920D01*
X-207080Y727000D01*
Y744000D02*
X-202000Y749080D01*
X-196920Y744000D01*
X-202000Y738920D01*
X-207080Y744000D01*
X-204080Y589000D02*
X-199000Y594080D01*
X-193920Y589000D01*
X-199000Y583920D01*
X-204080Y589000D01*
Y597000D02*
X-199000Y602080D01*
X-193920Y597000D01*
X-199000Y591920D01*
X-204080Y597000D01*
X-203080Y417000D02*
X-198000Y422080D01*
X-192920Y417000D01*
X-198000Y411920D01*
X-203080Y417000D01*
Y425000D02*
X-198000Y430080D01*
X-192920Y425000D01*
X-198000Y419920D01*
X-203080Y425000D01*
Y433000D02*
X-198000Y438080D01*
X-192920Y433000D01*
X-198000Y427920D01*
X-203080Y433000D01*
Y441000D02*
X-198000Y446080D01*
X-192920Y441000D01*
X-198000Y435920D01*
X-203080Y441000D01*
X-196080Y710000D02*
X-191000Y715080D01*
X-185920Y710000D01*
X-191000Y704920D01*
X-196080Y710000D01*
X-195080Y496000D02*
X-190000Y501080D01*
X-184920Y496000D01*
X-190000Y490920D01*
X-195080Y496000D01*
Y504000D02*
X-190000Y509080D01*
X-184920Y504000D01*
X-190000Y498920D01*
X-195080Y504000D01*
Y511000D02*
X-190000Y516080D01*
X-184920Y511000D01*
X-190000Y505920D01*
X-195080Y511000D01*
X-248080Y-552000D02*
X-243000Y-546920D01*
X-237920Y-552000D01*
X-243000Y-557080D01*
X-248080Y-552000D01*
Y-544000D02*
X-243000Y-538920D01*
X-237920Y-544000D01*
X-243000Y-549080D01*
X-248080Y-544000D01*
Y-536000D02*
X-243000Y-530920D01*
X-237920Y-536000D01*
X-243000Y-541080D01*
X-248080Y-536000D01*
X-203080Y-499000D02*
X-198000Y-493920D01*
X-192920Y-499000D01*
X-198000Y-504080D01*
X-203080Y-499000D01*
Y-515000D02*
X-198000Y-509920D01*
X-192920Y-515000D01*
X-198000Y-520080D01*
X-203080Y-515000D01*
Y-507000D02*
X-198000Y-501920D01*
X-192920Y-507000D01*
X-198000Y-512080D01*
X-203080Y-507000D01*
X-230080Y-612000D02*
X-225000Y-606920D01*
X-219920Y-612000D01*
X-225000Y-617080D01*
X-230080Y-612000D01*
X-222080D02*
X-217000Y-606920D01*
X-211920Y-612000D01*
X-217000Y-617080D01*
X-222080Y-612000D01*
X-221080Y-587000D02*
X-216000Y-581920D01*
X-210920Y-587000D01*
X-216000Y-592080D01*
X-221080Y-587000D01*
Y-580000D02*
X-216000Y-574920D01*
X-210920Y-580000D01*
X-216000Y-585080D01*
X-221080Y-580000D01*
X-213080Y-595000D02*
X-208000Y-589920D01*
X-202920Y-595000D01*
X-208000Y-600080D01*
X-213080Y-595000D01*
X-203080Y-523000D02*
X-198000Y-517920D01*
X-192920Y-523000D01*
X-198000Y-528080D01*
X-203080Y-523000D01*
Y-37000D02*
X-198000Y-31920D01*
X-192920Y-37000D01*
X-198000Y-42080D01*
X-203080Y-37000D01*
Y-53000D02*
X-198000Y-47920D01*
X-192920Y-53000D01*
X-198000Y-58080D01*
X-203080Y-53000D01*
X-230080Y-142000D02*
X-225000Y-136920D01*
X-219920Y-142000D01*
X-225000Y-147080D01*
X-230080Y-142000D01*
X-222080D02*
X-217000Y-136920D01*
X-211920Y-142000D01*
X-217000Y-147080D01*
X-222080Y-142000D01*
X-221080Y-110000D02*
X-216000Y-104920D01*
X-210920Y-110000D01*
X-216000Y-115080D01*
X-221080Y-110000D01*
Y-117000D02*
X-216000Y-111920D01*
X-210920Y-117000D01*
X-216000Y-122080D01*
X-221080Y-117000D01*
X-213080Y-125000D02*
X-208000Y-119920D01*
X-202920Y-125000D01*
X-208000Y-130080D01*
X-213080Y-125000D01*
X-194080Y-523000D02*
X-189000Y-517920D01*
X-183920Y-523000D01*
X-189000Y-528080D01*
X-194080Y-523000D01*
Y-515000D02*
X-189000Y-509920D01*
X-183920Y-515000D01*
X-189000Y-520080D01*
X-194080Y-515000D01*
Y-507000D02*
X-189000Y-501920D01*
X-183920Y-507000D01*
X-189000Y-512080D01*
X-194080Y-507000D01*
Y-499000D02*
X-189000Y-493920D01*
X-183920Y-499000D01*
X-189000Y-504080D01*
X-194080Y-499000D01*
X-191080Y-563000D02*
X-186000Y-557920D01*
X-180920Y-563000D01*
X-186000Y-568080D01*
X-191080Y-563000D01*
X-188080Y-596000D02*
X-183000Y-590920D01*
X-177920Y-596000D01*
X-183000Y-601080D01*
X-188080Y-596000D01*
X-187080Y-569000D02*
X-182000Y-563920D01*
X-176920Y-569000D01*
X-182000Y-574080D01*
X-187080Y-569000D01*
Y-613000D02*
X-182000Y-607920D01*
X-176920Y-613000D01*
X-182000Y-618080D01*
X-187080Y-613000D01*
X-178080Y-629000D02*
X-173000Y-623920D01*
X-167920Y-629000D01*
X-173000Y-634080D01*
X-178080Y-629000D01*
X-171080D02*
X-166000Y-623920D01*
X-160920Y-629000D01*
X-166000Y-634080D01*
X-171080Y-629000D01*
X-168080Y-484000D02*
X-163000Y-478920D01*
X-157920Y-484000D01*
X-163000Y-489080D01*
X-168080Y-484000D01*
Y-477000D02*
X-163000Y-471920D01*
X-157920Y-477000D01*
X-163000Y-482080D01*
X-168080Y-477000D01*
Y-470000D02*
X-163000Y-464920D01*
X-157920Y-470000D01*
X-163000Y-475080D01*
X-168080Y-470000D01*
Y-463000D02*
X-163000Y-457920D01*
X-157920Y-463000D01*
X-163000Y-468080D01*
X-168080Y-463000D01*
X-160080Y-484000D02*
X-155000Y-478920D01*
X-149920Y-484000D01*
X-155000Y-489080D01*
X-160080Y-484000D01*
Y-477000D02*
X-155000Y-471920D01*
X-149920Y-477000D01*
X-155000Y-482080D01*
X-160080Y-477000D01*
X-203080Y-45000D02*
X-198000Y-39920D01*
X-192920Y-45000D01*
X-198000Y-50080D01*
X-203080Y-45000D01*
X-195080Y-444000D02*
X-190000Y-438920D01*
X-184920Y-444000D01*
X-190000Y-449080D01*
X-195080Y-444000D01*
Y-436000D02*
X-190000Y-430920D01*
X-184920Y-436000D01*
X-190000Y-441080D01*
X-195080Y-436000D01*
Y-429000D02*
X-190000Y-423920D01*
X-184920Y-429000D01*
X-190000Y-434080D01*
X-195080Y-429000D01*
X-194080Y-29000D02*
X-189000Y-23920D01*
X-183920Y-29000D01*
X-189000Y-34080D01*
X-194080Y-29000D01*
Y-45000D02*
X-189000Y-39920D01*
X-183920Y-45000D01*
X-189000Y-50080D01*
X-194080Y-45000D01*
Y-37000D02*
X-189000Y-31920D01*
X-183920Y-37000D01*
X-189000Y-42080D01*
X-194080Y-37000D01*
Y-53000D02*
X-189000Y-47920D01*
X-183920Y-53000D01*
X-189000Y-58080D01*
X-194080Y-53000D01*
X-191080Y-93000D02*
X-186000Y-87920D01*
X-180920Y-93000D01*
X-186000Y-98080D01*
X-191080Y-93000D01*
X-189080Y-126000D02*
X-184000Y-120920D01*
X-178920Y-126000D01*
X-184000Y-131080D01*
X-189080Y-126000D01*
X-188080Y-294000D02*
X-183000Y-288920D01*
X-177920Y-294000D01*
X-183000Y-299080D01*
X-188080Y-294000D01*
X-187080Y-143000D02*
X-182000Y-137920D01*
X-176920Y-143000D01*
X-182000Y-148080D01*
X-187080Y-143000D01*
Y-99000D02*
X-182000Y-93920D01*
X-176920Y-99000D01*
X-182000Y-104080D01*
X-187080Y-99000D01*
X-178080Y-159000D02*
X-173000Y-153920D01*
X-167920Y-159000D01*
X-173000Y-164080D01*
X-178080Y-159000D01*
X-171080D02*
X-166000Y-153920D01*
X-160920Y-159000D01*
X-166000Y-164080D01*
X-171080Y-159000D01*
X-158080Y-366000D02*
X-153000Y-360920D01*
X-147920Y-366000D01*
X-153000Y-371080D01*
X-158080Y-366000D01*
X-230080Y328000D02*
X-225000Y333080D01*
X-219920Y328000D01*
X-225000Y322920D01*
X-230080Y328000D01*
X-222080D02*
X-217000Y333080D01*
X-211920Y328000D01*
X-217000Y322920D01*
X-222080Y328000D01*
X-221080Y353000D02*
X-216000Y358080D01*
X-210920Y353000D01*
X-216000Y347920D01*
X-221080Y353000D01*
Y360000D02*
X-216000Y365080D01*
X-210920Y360000D01*
X-216000Y354920D01*
X-221080Y360000D01*
X-214080Y166000D02*
X-209000Y171080D01*
X-203920Y166000D01*
X-209000Y160920D01*
X-214080Y166000D01*
X-213080Y345000D02*
X-208000Y350080D01*
X-202920Y345000D01*
X-208000Y339920D01*
X-213080Y345000D01*
X-212080Y119000D02*
X-207000Y124080D01*
X-201920Y119000D01*
X-207000Y113920D01*
X-212080Y119000D01*
Y127000D02*
X-207000Y132080D01*
X-201920Y127000D01*
X-207000Y121920D01*
X-212080Y127000D01*
X-204080D02*
X-199000Y132080D01*
X-193920Y127000D01*
X-199000Y121920D01*
X-204080Y127000D01*
Y119000D02*
X-199000Y124080D01*
X-193920Y119000D01*
X-199000Y113920D01*
X-204080Y119000D01*
X-195080Y41000D02*
X-190000Y46080D01*
X-184920Y41000D01*
X-190000Y35920D01*
X-195080Y41000D01*
Y34000D02*
X-190000Y39080D01*
X-184920Y34000D01*
X-190000Y28920D01*
X-195080Y34000D01*
X-191080Y377000D02*
X-186000Y382080D01*
X-180920Y377000D01*
X-186000Y371920D01*
X-191080Y377000D01*
X-189080Y344000D02*
X-184000Y349080D01*
X-178920Y344000D01*
X-184000Y338920D01*
X-189080Y344000D01*
X-188080Y176000D02*
X-183000Y181080D01*
X-177920Y176000D01*
X-183000Y170920D01*
X-188080Y176000D01*
X-187080Y327000D02*
X-182000Y332080D01*
X-176920Y327000D01*
X-182000Y321920D01*
X-187080Y327000D01*
Y371000D02*
X-182000Y376080D01*
X-176920Y371000D01*
X-182000Y365920D01*
X-187080Y371000D01*
X-178080Y311000D02*
X-173000Y316080D01*
X-167920Y311000D01*
X-173000Y305920D01*
X-178080Y311000D01*
X-171080D02*
X-166000Y316080D01*
X-160920Y311000D01*
X-166000Y305920D01*
X-171080Y311000D01*
X-168080Y-14000D02*
X-163000Y-8920D01*
X-157920Y-14000D01*
X-163000Y-19080D01*
X-168080Y-14000D01*
Y7000D02*
X-163000Y12080D01*
X-157920Y7000D01*
X-163000Y1920D01*
X-168080Y7000D01*
Y0D02*
X-163000Y5080D01*
X-157920Y0D01*
X-163000Y-5080D01*
X-168080Y0D01*
Y-7000D02*
X-163000Y-1920D01*
X-157920Y-7000D01*
X-163000Y-12080D01*
X-168080Y-7000D01*
X-160080Y-14000D02*
X-155000Y-8920D01*
X-149920Y-14000D01*
X-155000Y-19080D01*
X-160080Y-14000D01*
Y-7000D02*
X-155000Y-1920D01*
X-149920Y-7000D01*
X-155000Y-12080D01*
X-160080Y-7000D01*
Y0D02*
X-155000Y5080D01*
X-149920Y0D01*
X-155000Y-5080D01*
X-160080Y0D01*
X-204080Y-343000D02*
X-199000Y-337920D01*
X-193920Y-343000D01*
X-199000Y-348080D01*
X-204080Y-343000D01*
X-214080Y-304000D02*
X-209000Y-298920D01*
X-203920Y-304000D01*
X-209000Y-309080D01*
X-214080Y-304000D01*
X-212080Y-351000D02*
X-207000Y-345920D01*
X-201920Y-351000D01*
X-207000Y-356080D01*
X-212080Y-351000D01*
Y-343000D02*
X-207000Y-337920D01*
X-201920Y-343000D01*
X-207000Y-348080D01*
X-212080Y-343000D01*
X-208080Y-405150D02*
X-203000Y-400070D01*
X-197920Y-405150D01*
X-203000Y-410230D01*
X-208080Y-405150D01*
X-204080Y-351000D02*
X-199000Y-345920D01*
X-193920Y-351000D01*
X-199000Y-356080D01*
X-204080Y-351000D01*
X-203080Y-29000D02*
X-198000Y-23920D01*
X-192920Y-29000D01*
X-198000Y-34080D01*
X-203080Y-29000D01*
X-195080Y26000D02*
X-190000Y31080D01*
X-184920Y26000D01*
X-190000Y20920D01*
X-195080Y26000D01*
X-208080Y64850D02*
X-203000Y69930D01*
X-197920Y64850D01*
X-203000Y59770D01*
X-208080Y64850D01*
X-46080Y-54000D02*
X-41000Y-48920D01*
X-35920Y-54000D01*
X-41000Y-59080D01*
X-46080Y-54000D01*
X-47080Y-46000D02*
X-42000Y-40920D01*
X-36920Y-46000D01*
X-42000Y-51080D01*
X-47080Y-46000D01*
X-59080D02*
X-54000Y-40920D01*
X-48920Y-46000D01*
X-54000Y-51080D01*
X-59080Y-46000D01*
Y-39000D02*
X-54000Y-33920D01*
X-48920Y-39000D01*
X-54000Y-44080D01*
X-59080Y-39000D01*
X-31080Y-729000D02*
X-26000Y-723920D01*
X-20920Y-729000D01*
X-26000Y-734080D01*
X-31080Y-729000D01*
Y-722000D02*
X-26000Y-716920D01*
X-20920Y-722000D01*
X-26000Y-727080D01*
X-31080Y-722000D01*
X-25675Y-711405D02*
X-20595Y-706325D01*
X-15515Y-711405D01*
X-20595Y-716485D01*
X-25675Y-711405D01*
X-16080Y-679000D02*
X-11000Y-673920D01*
X-5920Y-679000D01*
X-11000Y-684080D01*
X-16080Y-679000D01*
X-56080Y-619000D02*
X-51000Y-613920D01*
X-45920Y-619000D01*
X-51000Y-624080D01*
X-56080Y-619000D01*
X-49080D02*
X-44000Y-613920D01*
X-38920Y-619000D01*
X-44000Y-624080D01*
X-49080Y-619000D01*
X-56080Y-612000D02*
X-51000Y-606920D01*
X-45920Y-612000D01*
X-51000Y-617080D01*
X-56080Y-612000D01*
X-49080D02*
X-44000Y-606920D01*
X-38920Y-612000D01*
X-44000Y-617080D01*
X-49080Y-612000D01*
X-59080Y-545000D02*
X-54000Y-539920D01*
X-48920Y-545000D01*
X-54000Y-550080D01*
X-59080Y-545000D01*
Y-510000D02*
X-54000Y-504920D01*
X-48920Y-510000D01*
X-54000Y-515080D01*
X-59080Y-510000D01*
X-30080Y-464000D02*
X-25000Y-458920D01*
X-19920Y-464000D01*
X-25000Y-469080D01*
X-30080Y-464000D01*
X-22080Y-458000D02*
X-17000Y-452920D01*
X-11920Y-458000D01*
X-17000Y-463080D01*
X-22080Y-458000D01*
X-34080Y-451000D02*
X-29000Y-445920D01*
X-23920Y-451000D01*
X-29000Y-456080D01*
X-34080Y-451000D01*
X-30080Y-407000D02*
X-25000Y-401920D01*
X-19920Y-407000D01*
X-25000Y-412080D01*
X-30080Y-407000D01*
X-24080Y-385000D02*
X-19000Y-379920D01*
X-13920Y-385000D01*
X-19000Y-390080D01*
X-24080Y-385000D01*
X-28080Y-293000D02*
X-23000Y-287920D01*
X-17920Y-293000D01*
X-23000Y-298080D01*
X-28080Y-293000D01*
X-41080Y-373000D02*
X-36000Y-367920D01*
X-30920Y-373000D01*
X-36000Y-378080D01*
X-41080Y-373000D01*
Y-365000D02*
X-36000Y-359920D01*
X-30920Y-365000D01*
X-36000Y-370080D01*
X-41080Y-365000D01*
X-24080Y-358000D02*
X-19000Y-352920D01*
X-13920Y-358000D01*
X-19000Y-363080D01*
X-24080Y-358000D01*
X-42560Y-355466D02*
X-37480Y-350386D01*
X-32400Y-355466D01*
X-37480Y-360546D01*
X-42560Y-355466D01*
X-21080Y-350000D02*
X-16000Y-344920D01*
X-10920Y-350000D01*
X-16000Y-355080D01*
X-21080Y-350000D01*
X-26080Y-344000D02*
X-21000Y-338920D01*
X-15920Y-344000D01*
X-21000Y-349080D01*
X-26080Y-344000D01*
X-45080Y-329000D02*
X-40000Y-323920D01*
X-34920Y-329000D01*
X-40000Y-334080D01*
X-45080Y-329000D01*
X-31080Y-373000D02*
X-26000Y-367920D01*
X-20920Y-373000D01*
X-26000Y-378080D01*
X-31080Y-373000D01*
X-28080Y-280000D02*
X-23000Y-274920D01*
X-17920Y-280000D01*
X-23000Y-285080D01*
X-28080Y-280000D01*
X-42080Y-336000D02*
X-37000Y-330920D01*
X-31920Y-336000D01*
X-37000Y-341080D01*
X-42080Y-336000D01*
X-29080Y-229000D02*
X-24000Y-223920D01*
X-18920Y-229000D01*
X-24000Y-234080D01*
X-29080Y-229000D01*
X-52080D02*
X-47000Y-223920D01*
X-41920Y-229000D01*
X-47000Y-234080D01*
X-52080Y-229000D01*
Y-220000D02*
X-47000Y-214920D01*
X-41920Y-220000D01*
X-47000Y-225080D01*
X-52080Y-220000D01*
Y-211000D02*
X-47000Y-205920D01*
X-41920Y-211000D01*
X-47000Y-216080D01*
X-52080Y-211000D01*
X-58080Y-152000D02*
X-53000Y-146920D01*
X-47920Y-152000D01*
X-53000Y-157080D01*
X-58080Y-152000D01*
X-18080Y-144000D02*
X-13000Y-138920D01*
X-7920Y-144000D01*
X-13000Y-149080D01*
X-18080Y-144000D01*
X-58080Y-138000D02*
X-53000Y-132920D01*
X-47920Y-138000D01*
X-53000Y-143080D01*
X-58080Y-138000D01*
Y-145000D02*
X-53000Y-139920D01*
X-47920Y-145000D01*
X-53000Y-150080D01*
X-58080Y-145000D01*
X-58580Y-118549D02*
X-53500Y-113469D01*
X-48420Y-118549D01*
X-53500Y-123629D01*
X-58580Y-118549D01*
X-47080Y-258000D02*
X-42000Y-252920D01*
X-36920Y-258000D01*
X-42000Y-263080D01*
X-47080Y-258000D01*
X-59080Y-108000D02*
X-54000Y-102920D01*
X-48920Y-108000D01*
X-54000Y-113080D01*
X-59080Y-108000D01*
X-25080Y-99000D02*
X-20000Y-93920D01*
X-14920Y-99000D01*
X-20000Y-104080D01*
X-25080Y-99000D01*
X-59080Y-98000D02*
X-54000Y-92920D01*
X-48920Y-98000D01*
X-54000Y-103080D01*
X-59080Y-98000D01*
Y-91000D02*
X-54000Y-85920D01*
X-48920Y-91000D01*
X-54000Y-96080D01*
X-59080Y-91000D01*
X-46080Y-82000D02*
X-41000Y-76920D01*
X-35920Y-82000D01*
X-41000Y-87080D01*
X-46080Y-82000D01*
Y-75000D02*
X-41000Y-69920D01*
X-35920Y-75000D01*
X-41000Y-80080D01*
X-46080Y-75000D01*
Y-68000D02*
X-41000Y-62920D01*
X-35920Y-68000D01*
X-41000Y-73080D01*
X-46080Y-68000D01*
Y-61000D02*
X-41000Y-55920D01*
X-35920Y-61000D01*
X-41000Y-66080D01*
X-46080Y-61000D01*
X-59080Y117000D02*
X-54000Y122080D01*
X-48920Y117000D01*
X-54000Y111920D01*
X-59080Y117000D01*
X-38080Y137000D02*
X-33000Y142080D01*
X-27920Y137000D01*
X-33000Y131920D01*
X-38080Y137000D01*
X-6080Y132000D02*
X-1000Y137080D01*
X4080Y132000D01*
X-1000Y126920D01*
X-6080Y132000D01*
X-17080Y144000D02*
X-12000Y149080D01*
X-6920Y144000D01*
X-12000Y138920D01*
X-17080Y144000D01*
X-30080Y143000D02*
X-25000Y148080D01*
X-19920Y143000D01*
X-25000Y137920D01*
X-30080Y143000D01*
X39920Y9000D02*
X45000Y14080D01*
X50080Y9000D01*
X45000Y3920D01*
X39920Y9000D01*
X34920Y15000D02*
X40000Y20080D01*
X45080Y15000D01*
X40000Y9920D01*
X34920Y15000D01*
X6920Y21000D02*
X12000Y26080D01*
X17080Y21000D01*
X12000Y15920D01*
X6920Y21000D01*
X34920Y23000D02*
X40000Y28080D01*
X45080Y23000D01*
X40000Y17920D01*
X34920Y23000D01*
X7920Y31000D02*
X13000Y36080D01*
X18080Y31000D01*
X13000Y25920D01*
X7920Y31000D01*
Y40000D02*
X13000Y45080D01*
X18080Y40000D01*
X13000Y34920D01*
X7920Y40000D01*
X6920Y48000D02*
X12000Y53080D01*
X17080Y48000D01*
X12000Y42920D01*
X6920Y48000D01*
X920Y62000D02*
X6000Y67080D01*
X11080Y62000D01*
X6000Y56920D01*
X920Y62000D01*
X7920D02*
X13000Y67080D01*
X18080Y62000D01*
X13000Y56920D01*
X7920Y62000D01*
X920Y69000D02*
X6000Y74080D01*
X11080Y69000D01*
X6000Y63920D01*
X920Y69000D01*
X7920D02*
X13000Y74080D01*
X18080Y69000D01*
X13000Y63920D01*
X7920Y69000D01*
X54687Y69602D02*
X59767Y74682D01*
X64847Y69602D01*
X59767Y64522D01*
X54687Y69602D01*
X7920Y76000D02*
X13000Y81080D01*
X18080Y76000D01*
X13000Y70920D01*
X7920Y76000D01*
X920D02*
X6000Y81080D01*
X11080Y76000D01*
X6000Y70920D01*
X920Y76000D01*
X4920Y82000D02*
X10000Y87080D01*
X15080Y82000D01*
X10000Y76920D01*
X4920Y82000D01*
X51920Y97000D02*
X57000Y102080D01*
X62080Y97000D01*
X57000Y91920D01*
X51920Y97000D01*
Y104000D02*
X57000Y109080D01*
X62080Y104000D01*
X57000Y98920D01*
X51920Y104000D01*
X44920D02*
X50000Y109080D01*
X55080Y104000D01*
X50000Y98920D01*
X44920Y104000D01*
X36920Y182000D02*
X42000Y187080D01*
X47080Y182000D01*
X42000Y176920D01*
X36920Y182000D01*
Y189000D02*
X42000Y194080D01*
X47080Y189000D01*
X42000Y183920D01*
X36920Y189000D01*
X31920Y212000D02*
X37000Y217080D01*
X42080Y212000D01*
X37000Y206920D01*
X31920Y212000D01*
X52920Y214000D02*
X58000Y219080D01*
X63080Y214000D01*
X58000Y208920D01*
X52920Y214000D01*
X-4080Y217000D02*
X1000Y222080D01*
X6080Y217000D01*
X1000Y211920D01*
X-4080Y217000D01*
X31920Y219000D02*
X37000Y224080D01*
X42080Y219000D01*
X37000Y213920D01*
X31920Y219000D01*
X52920Y224000D02*
X58000Y229080D01*
X63080Y224000D01*
X58000Y218920D01*
X52920Y224000D01*
X-50080Y269000D02*
X-45000Y274080D01*
X-39920Y269000D01*
X-45000Y263920D01*
X-50080Y269000D01*
Y255000D02*
X-45000Y260080D01*
X-39920Y255000D01*
X-45000Y249920D01*
X-50080Y255000D01*
Y262000D02*
X-45000Y267080D01*
X-39920Y262000D01*
X-45000Y256920D01*
X-50080Y262000D01*
X-49080Y320000D02*
X-44000Y325080D01*
X-38920Y320000D01*
X-44000Y314920D01*
X-49080Y320000D01*
X-56080D02*
X-51000Y325080D01*
X-45920Y320000D01*
X-51000Y314920D01*
X-56080Y320000D01*
Y327000D02*
X-51000Y332080D01*
X-45920Y327000D01*
X-51000Y321920D01*
X-56080Y327000D01*
X-49080D02*
X-44000Y332080D01*
X-38920Y327000D01*
X-44000Y321920D01*
X-49080Y327000D01*
X-58580Y351451D02*
X-53500Y356531D01*
X-48420Y351451D01*
X-53500Y346371D01*
X-58580Y351451D01*
X-59080Y415000D02*
X-54000Y420080D01*
X-48920Y415000D01*
X-54000Y409920D01*
X-59080Y415000D01*
Y422000D02*
X-54000Y427080D01*
X-48920Y422000D01*
X-54000Y416920D01*
X-59080Y422000D01*
Y429000D02*
X-54000Y434080D01*
X-48920Y429000D01*
X-54000Y423920D01*
X-59080Y429000D01*
Y436000D02*
X-54000Y441080D01*
X-48920Y436000D01*
X-54000Y430920D01*
X-59080Y436000D01*
X-22080Y557000D02*
X-17000Y562080D01*
X-11920Y557000D01*
X-17000Y551920D01*
X-22080Y557000D01*
X-43080Y579000D02*
X-38000Y584080D01*
X-32920Y579000D01*
X-38000Y573920D01*
X-43080Y579000D01*
X-58080Y587000D02*
X-53000Y592080D01*
X-47920Y587000D01*
X-53000Y581920D01*
X-58080Y587000D01*
X-17080Y591000D02*
X-12000Y596080D01*
X-6920Y591000D01*
X-12000Y585920D01*
X-17080Y591000D01*
X-59080Y750000D02*
X-54000Y755080D01*
X-48920Y750000D01*
X-54000Y744920D01*
X-59080Y750000D01*
Y647000D02*
X-54000Y652080D01*
X-48920Y647000D01*
X-54000Y641920D01*
X-59080Y647000D01*
X-54080Y727000D02*
X-49000Y732080D01*
X-43920Y727000D01*
X-49000Y721920D01*
X-54080Y727000D01*
X-52080Y750000D02*
X-47000Y755080D01*
X-41920Y750000D01*
X-47000Y744920D01*
X-52080Y750000D01*
X-45080D02*
X-40000Y755080D01*
X-34920Y750000D01*
X-40000Y744920D01*
X-45080Y750000D01*
X35920Y228000D02*
X41000Y233080D01*
X46080Y228000D01*
X41000Y222920D01*
X35920Y228000D01*
X31920Y238000D02*
X37000Y243080D01*
X42080Y238000D01*
X37000Y232920D01*
X31920Y238000D01*
X-4080Y343000D02*
X1000Y348080D01*
X6080Y343000D01*
X1000Y337920D01*
X-4080Y343000D01*
X53920Y260000D02*
X59000Y265080D01*
X64080Y260000D01*
X59000Y254920D01*
X53920Y260000D01*
X18920D02*
X24000Y265080D01*
X29080Y260000D01*
X24000Y254920D01*
X18920Y260000D01*
X12920Y268000D02*
X18000Y273080D01*
X23080Y268000D01*
X18000Y262920D01*
X12920Y268000D01*
X44920Y271000D02*
X50000Y276080D01*
X55080Y271000D01*
X50000Y265920D01*
X44920Y271000D01*
X7920Y274000D02*
X13000Y279080D01*
X18080Y274000D01*
X13000Y268920D01*
X7920Y274000D01*
X53920Y293000D02*
X59000Y298080D01*
X64080Y293000D01*
X59000Y287920D01*
X53920Y293000D01*
X39920Y295000D02*
X45000Y300080D01*
X50080Y295000D01*
X45000Y289920D01*
X39920Y295000D01*
X37920Y306000D02*
X43000Y311080D01*
X48080Y306000D01*
X43000Y300920D01*
X37920Y306000D01*
Y314000D02*
X43000Y319080D01*
X48080Y314000D01*
X43000Y308920D01*
X37920Y314000D01*
X28920Y323000D02*
X34000Y328080D01*
X39080Y323000D01*
X34000Y317920D01*
X28920Y323000D01*
X-10080Y337000D02*
X-5000Y342080D01*
X80Y337000D01*
X-5000Y331920D01*
X-10080Y337000D01*
X53920Y347000D02*
X59000Y352080D01*
X64080Y347000D01*
X59000Y341920D01*
X53920Y347000D01*
Y354000D02*
X59000Y359080D01*
X64080Y354000D01*
X59000Y348920D01*
X53920Y354000D01*
X4920Y540000D02*
X10000Y545080D01*
X15080Y540000D01*
X10000Y534920D01*
X4920Y540000D01*
X-3080Y547000D02*
X2000Y552080D01*
X7080Y547000D01*
X2000Y541920D01*
X-3080Y547000D01*
X-9080Y564000D02*
X-4000Y569080D01*
X1080Y564000D01*
X-4000Y558920D01*
X-9080Y564000D01*
X45920Y566000D02*
X51000Y571080D01*
X56080Y566000D01*
X51000Y560920D01*
X45920Y566000D01*
X52920D02*
X58000Y571080D01*
X63080Y566000D01*
X58000Y560920D01*
X52920Y566000D01*
X-4080Y570000D02*
X1000Y575080D01*
X6080Y570000D01*
X1000Y564920D01*
X-4080Y570000D01*
X45920Y573000D02*
X51000Y578080D01*
X56080Y573000D01*
X51000Y567920D01*
X45920Y573000D01*
X52920D02*
X58000Y578080D01*
X63080Y573000D01*
X58000Y567920D01*
X52920Y573000D01*
X22920Y599000D02*
X28000Y604080D01*
X33080Y599000D01*
X28000Y593920D01*
X22920Y599000D01*
Y607000D02*
X28000Y612080D01*
X33080Y607000D01*
X28000Y601920D01*
X22920Y607000D01*
Y615000D02*
X28000Y620080D01*
X33080Y615000D01*
X28000Y609920D01*
X22920Y615000D01*
X31515Y641405D02*
X36595Y646485D01*
X41675Y641405D01*
X36595Y636325D01*
X31515Y641405D01*
X36920Y652000D02*
X42000Y657080D01*
X47080Y652000D01*
X42000Y646920D01*
X36920Y652000D01*
Y659000D02*
X42000Y664080D01*
X47080Y659000D01*
X42000Y653920D01*
X36920Y659000D01*
X73920Y142000D02*
X79000Y147080D01*
X84080Y142000D01*
X79000Y136920D01*
X73920Y142000D01*
X54920Y59000D02*
X60000Y64080D01*
X65080Y59000D01*
X60000Y53920D01*
X54920Y59000D01*
Y48000D02*
X60000Y53080D01*
X65080Y48000D01*
X60000Y42920D01*
X54920Y48000D01*
Y41000D02*
X60000Y46080D01*
X65080Y41000D01*
X60000Y35920D01*
X54920Y41000D01*
X74920Y105000D02*
X80000Y110080D01*
X85080Y105000D01*
X80000Y99920D01*
X74920Y105000D01*
X73920Y149000D02*
X79000Y154080D01*
X84080Y149000D01*
X79000Y143920D01*
X73920Y149000D01*
X54920Y281000D02*
X60000Y286080D01*
X65080Y281000D01*
X60000Y275920D01*
X54920Y281000D01*
X82920Y3000D02*
X88000Y8080D01*
X93080Y3000D01*
X88000Y-2080D01*
X82920Y3000D01*
Y10000D02*
X88000Y15080D01*
X93080Y10000D01*
X88000Y4920D01*
X82920Y10000D01*
Y17000D02*
X88000Y22080D01*
X93080Y17000D01*
X88000Y11920D01*
X82920Y17000D01*
Y-4000D02*
X88000Y1080D01*
X93080Y-4000D01*
X88000Y-9080D01*
X82920Y-4000D01*
Y24000D02*
X88000Y29080D01*
X93080Y24000D01*
X88000Y18920D01*
X82920Y24000D01*
Y31000D02*
X88000Y36080D01*
X93080Y31000D01*
X88000Y25920D01*
X82920Y31000D01*
X152920Y285000D02*
X158000Y290080D01*
X163080Y285000D01*
X158000Y279920D01*
X152920Y285000D01*
Y292000D02*
X158000Y297080D01*
X163080Y292000D01*
X158000Y286920D01*
X152920Y292000D01*
X193920Y-6000D02*
X199000Y-920D01*
X204080Y-6000D01*
X199000Y-11080D01*
X193920Y-6000D01*
X202920D02*
X208000Y-920D01*
X213080Y-6000D01*
X208000Y-11080D01*
X202920Y-6000D01*
X193920Y2000D02*
X199000Y7080D01*
X204080Y2000D01*
X199000Y-3080D01*
X193920Y2000D01*
X202920D02*
X208000Y7080D01*
X213080Y2000D01*
X208000Y-3080D01*
X202920Y2000D01*
X193920Y10000D02*
X199000Y15080D01*
X204080Y10000D01*
X199000Y4920D01*
X193920Y10000D01*
X202920D02*
X208000Y15080D01*
X213080Y10000D01*
X208000Y4920D01*
X202920Y10000D01*
X245920Y23000D02*
X251000Y28080D01*
X256080Y23000D01*
X251000Y17920D01*
X245920Y23000D01*
Y31000D02*
X251000Y36080D01*
X256080Y31000D01*
X251000Y25920D01*
X245920Y31000D01*
Y39000D02*
X251000Y44080D01*
X256080Y39000D01*
X251000Y33920D01*
X245920Y39000D01*
X208920Y75000D02*
X214000Y80080D01*
X219080Y75000D01*
X214000Y69920D01*
X208920Y75000D01*
X185920Y47000D02*
X191000Y52080D01*
X196080Y47000D01*
X191000Y41920D01*
X185920Y47000D01*
X217920Y61000D02*
X223000Y66080D01*
X228080Y61000D01*
X223000Y55920D01*
X217920Y61000D01*
Y67000D02*
X223000Y72080D01*
X228080Y67000D01*
X223000Y61920D01*
X217920Y67000D01*
X184920Y75000D02*
X190000Y80080D01*
X195080Y75000D01*
X190000Y69920D01*
X184920Y75000D01*
X217920Y91000D02*
X223000Y96080D01*
X228080Y91000D01*
X223000Y85920D01*
X217920Y91000D01*
X224920D02*
X230000Y96080D01*
X235080Y91000D01*
X230000Y85920D01*
X224920Y91000D01*
X184920Y109000D02*
X190000Y114080D01*
X195080Y109000D01*
X190000Y103920D01*
X184920Y109000D01*
X182920Y234000D02*
X188000Y239080D01*
X193080Y234000D01*
X188000Y228920D01*
X182920Y234000D01*
X208920Y244000D02*
X214000Y249080D01*
X219080Y244000D01*
X214000Y238920D01*
X208920Y244000D01*
X197920Y284000D02*
X203000Y289080D01*
X208080Y284000D01*
X203000Y278920D01*
X197920Y284000D01*
Y292000D02*
X203000Y297080D01*
X208080Y292000D01*
X203000Y286920D01*
X197920Y292000D01*
X152920Y299000D02*
X158000Y304080D01*
X163080Y299000D01*
X158000Y293920D01*
X152920Y299000D01*
Y306000D02*
X158000Y311080D01*
X163080Y306000D01*
X158000Y300920D01*
X152920Y306000D01*
X218920Y321500D02*
X224000Y326580D01*
X229080Y321500D01*
X224000Y316420D01*
X218920Y321500D01*
X224920Y561000D02*
X230000Y566080D01*
X235080Y561000D01*
X230000Y555920D01*
X224920Y561000D01*
X154920Y420000D02*
X160000Y425080D01*
X165080Y420000D01*
X160000Y414920D01*
X154920Y420000D01*
X162920D02*
X168000Y425080D01*
X173080Y420000D01*
X168000Y414920D01*
X162920Y420000D01*
X154920Y428000D02*
X160000Y433080D01*
X165080Y428000D01*
X160000Y422920D01*
X154920Y428000D01*
X162920D02*
X168000Y433080D01*
X173080Y428000D01*
X168000Y422920D01*
X162920Y428000D01*
X154920Y436000D02*
X160000Y441080D01*
X165080Y436000D01*
X160000Y430920D01*
X154920Y436000D01*
X162920D02*
X168000Y441080D01*
X173080Y436000D01*
X168000Y430920D01*
X162920Y436000D01*
X193920Y456000D02*
X199000Y461080D01*
X204080Y456000D01*
X199000Y450920D01*
X193920Y456000D01*
Y464000D02*
X199000Y469080D01*
X204080Y464000D01*
X199000Y458920D01*
X193920Y464000D01*
Y472000D02*
X199000Y477080D01*
X204080Y472000D01*
X199000Y466920D01*
X193920Y472000D01*
Y480000D02*
X199000Y485080D01*
X204080Y480000D01*
X199000Y474920D01*
X193920Y480000D01*
X217920Y561000D02*
X223000Y566080D01*
X228080Y561000D01*
X223000Y555920D01*
X217920Y561000D01*
X55920Y496000D02*
X61000Y501080D01*
X66080Y496000D01*
X61000Y490920D01*
X55920Y496000D01*
Y503000D02*
X61000Y508080D01*
X66080Y503000D01*
X61000Y497920D01*
X55920Y503000D01*
Y510000D02*
X61000Y515080D01*
X66080Y510000D01*
X61000Y504920D01*
X55920Y510000D01*
Y517000D02*
X61000Y522080D01*
X66080Y517000D01*
X61000Y511920D01*
X55920Y517000D01*
X185920D02*
X191000Y522080D01*
X196080Y517000D01*
X191000Y511920D01*
X185920Y517000D01*
X55920Y528000D02*
X61000Y533080D01*
X66080Y528000D01*
X61000Y522920D01*
X55920Y528000D01*
X55687Y538602D02*
X60767Y543682D01*
X65847Y538602D01*
X60767Y533522D01*
X55687Y538602D01*
X184920Y545000D02*
X190000Y550080D01*
X195080Y545000D01*
X190000Y539920D01*
X184920Y545000D01*
X66920Y573000D02*
X72000Y578080D01*
X77080Y573000D01*
X72000Y567920D01*
X66920Y573000D01*
X74920D02*
X80000Y578080D01*
X85080Y573000D01*
X80000Y567920D01*
X74920Y573000D01*
X184920Y579000D02*
X190000Y584080D01*
X195080Y579000D01*
X190000Y573920D01*
X184920Y579000D01*
X69920Y612000D02*
X75000Y617080D01*
X80080Y612000D01*
X75000Y606920D01*
X69920Y612000D01*
X81920D02*
X87000Y617080D01*
X92080Y612000D01*
X87000Y606920D01*
X81920Y612000D01*
X57920Y685000D02*
X63000Y690080D01*
X68080Y685000D01*
X63000Y679920D01*
X57920Y685000D01*
X202920Y370000D02*
X208000Y375080D01*
X213080Y370000D01*
X208000Y364920D01*
X202920Y370000D01*
X209920D02*
X215000Y375080D01*
X220080Y370000D01*
X215000Y364920D01*
X209920Y370000D01*
X208920Y545000D02*
X214000Y550080D01*
X219080Y545000D01*
X214000Y539920D01*
X208920Y545000D01*
X202920Y456000D02*
X208000Y461080D01*
X213080Y456000D01*
X208000Y450920D01*
X202920Y456000D01*
Y464000D02*
X208000Y469080D01*
X213080Y464000D01*
X208000Y458920D01*
X202920Y464000D01*
Y472000D02*
X208000Y477080D01*
X213080Y472000D01*
X208000Y466920D01*
X202920Y472000D01*
Y480000D02*
X208000Y485080D01*
X213080Y480000D01*
X208000Y474920D01*
X202920Y480000D01*
X245920Y485000D02*
X251000Y490080D01*
X256080Y485000D01*
X251000Y479920D01*
X245920Y485000D01*
Y493000D02*
X251000Y498080D01*
X256080Y493000D01*
X251000Y487920D01*
X245920Y493000D01*
Y501000D02*
X251000Y506080D01*
X256080Y501000D01*
X251000Y495920D01*
X245920Y501000D01*
Y509000D02*
X251000Y514080D01*
X256080Y509000D01*
X251000Y503920D01*
X245920Y509000D01*
X217920Y537000D02*
X223000Y542080D01*
X228080Y537000D01*
X223000Y531920D01*
X217920Y537000D01*
Y531000D02*
X223000Y536080D01*
X228080Y531000D01*
X223000Y525920D01*
X217920Y531000D01*
X55920Y461000D02*
X61000Y466080D01*
X66080Y461000D01*
X61000Y455920D01*
X55920Y461000D01*
Y468000D02*
X61000Y473080D01*
X66080Y468000D01*
X61000Y462920D01*
X55920Y468000D01*
Y475000D02*
X61000Y480080D01*
X66080Y475000D01*
X61000Y469920D01*
X55920Y475000D01*
Y482000D02*
X61000Y487080D01*
X66080Y482000D01*
X61000Y476920D01*
X55920Y482000D01*
Y489000D02*
X61000Y494080D01*
X66080Y489000D01*
X61000Y483920D01*
X55920Y489000D01*
X-20080Y613000D02*
X-15000Y618080D01*
X-9920Y613000D01*
X-15000Y607920D01*
X-20080Y613000D01*
X-23080Y626000D02*
X-18000Y631080D01*
X-12920Y626000D01*
X-18000Y620920D01*
X-23080Y626000D01*
X-16080Y632000D02*
X-11000Y637080D01*
X-5920Y632000D01*
X-11000Y626920D01*
X-16080Y632000D01*
X-41080Y665000D02*
X-36000Y670080D01*
X-30920Y665000D01*
X-36000Y659920D01*
X-41080Y665000D01*
X-35975Y689500D02*
X-30895Y694580D01*
X-25815Y689500D01*
X-30895Y684420D01*
X-35975Y689500D01*
X-36080Y711000D02*
X-31000Y716080D01*
X-25920Y711000D01*
X-31000Y705920D01*
X-36080Y711000D01*
Y723000D02*
X-31000Y728080D01*
X-25920Y723000D01*
X-31000Y717920D01*
X-36080Y723000D01*
Y730000D02*
X-31000Y735080D01*
X-25920Y730000D01*
X-31000Y724920D01*
X-36080Y730000D01*
Y737000D02*
X-31000Y742080D01*
X-25920Y737000D01*
X-31000Y731920D01*
X-36080Y737000D01*
X-38080Y750000D02*
X-33000Y755080D01*
X-27920Y750000D01*
X-33000Y744920D01*
X-38080Y750000D01*
X-18080Y-1000D02*
X-13000Y4080D01*
X-7920Y-1000D01*
X-13000Y-6080D01*
X-18080Y-1000D01*
X-44080Y3000D02*
X-39000Y8080D01*
X-33920Y3000D01*
X-39000Y-2080D01*
X-44080Y3000D01*
X-248080Y-560000D02*
X-243000Y-554920D01*
X-237920Y-560000D01*
X-243000Y-565080D01*
X-248080Y-560000D01*
Y-82000D02*
X-243000Y-76920D01*
X-237920Y-82000D01*
X-243000Y-87080D01*
X-248080Y-82000D01*
Y-90000D02*
X-243000Y-84920D01*
X-237920Y-90000D01*
X-243000Y-95080D01*
X-248080Y-90000D01*
Y-66000D02*
X-243000Y-60920D01*
X-237920Y-66000D01*
X-243000Y-71080D01*
X-248080Y-66000D01*
Y-74000D02*
X-243000Y-68920D01*
X-237920Y-74000D01*
X-243000Y-79080D01*
X-248080Y-74000D01*
X-160080Y-470000D02*
X-155000Y-464920D01*
X-149920Y-470000D01*
X-155000Y-475080D01*
X-160080Y-470000D01*
Y-463000D02*
X-155000Y-457920D01*
X-149920Y-463000D01*
X-155000Y-468080D01*
X-160080Y-463000D01*
X-88080Y-661000D02*
X-83000Y-655920D01*
X-77920Y-661000D01*
X-83000Y-666080D01*
X-88080Y-661000D01*
Y-623000D02*
X-83000Y-617920D01*
X-77920Y-623000D01*
X-83000Y-628080D01*
X-88080Y-623000D01*
X-81080D02*
X-76000Y-617920D01*
X-70920Y-623000D01*
X-76000Y-628080D01*
X-81080Y-623000D01*
X-80080Y-661000D02*
X-75000Y-655920D01*
X-69920Y-661000D01*
X-75000Y-666080D01*
X-80080Y-661000D01*
X-59080Y-531000D02*
X-54000Y-525920D01*
X-48920Y-531000D01*
X-54000Y-536080D01*
X-59080Y-531000D01*
Y-578000D02*
X-54000Y-572920D01*
X-48920Y-578000D01*
X-54000Y-583080D01*
X-59080Y-578000D01*
Y-538000D02*
X-54000Y-532920D01*
X-48920Y-538000D01*
X-54000Y-543080D01*
X-59080Y-538000D01*
Y-559000D02*
X-54000Y-553920D01*
X-48920Y-559000D01*
X-54000Y-564080D01*
X-59080Y-559000D01*
Y-524000D02*
X-54000Y-518920D01*
X-48920Y-524000D01*
X-54000Y-529080D01*
X-59080Y-524000D01*
Y-566000D02*
X-54000Y-560920D01*
X-48920Y-566000D01*
X-54000Y-571080D01*
X-59080Y-566000D01*
Y-517000D02*
X-54000Y-511920D01*
X-48920Y-517000D01*
X-54000Y-522080D01*
X-59080Y-517000D01*
X-158080Y-359000D02*
X-153000Y-353920D01*
X-147920Y-359000D01*
X-153000Y-364080D01*
X-158080Y-359000D01*
Y-352000D02*
X-153000Y-346920D01*
X-147920Y-352000D01*
X-153000Y-357080D01*
X-158080Y-352000D01*
Y-345000D02*
X-153000Y-339920D01*
X-147920Y-345000D01*
X-153000Y-350080D01*
X-158080Y-345000D01*
X-88080Y-154000D02*
X-83000Y-148920D01*
X-77920Y-154000D01*
X-83000Y-159080D01*
X-88080Y-154000D01*
Y-192000D02*
X-83000Y-186920D01*
X-77920Y-192000D01*
X-83000Y-197080D01*
X-88080Y-192000D01*
X-81080Y-154000D02*
X-76000Y-148920D01*
X-70920Y-154000D01*
X-76000Y-159080D01*
X-81080Y-154000D01*
X-80080Y-192000D02*
X-75000Y-186920D01*
X-69920Y-192000D01*
X-75000Y-197080D01*
X-80080Y-192000D01*
X-79080Y-418000D02*
X-74000Y-412920D01*
X-68920Y-418000D01*
X-74000Y-423080D01*
X-79080Y-418000D01*
Y-411000D02*
X-74000Y-405920D01*
X-68920Y-411000D01*
X-74000Y-416080D01*
X-79080Y-411000D01*
X-60080Y-352000D02*
X-55000Y-346920D01*
X-49920Y-352000D01*
X-55000Y-357080D01*
X-60080Y-352000D01*
Y-285000D02*
X-55000Y-279920D01*
X-49920Y-285000D01*
X-55000Y-290080D01*
X-60080Y-285000D01*
Y-292000D02*
X-55000Y-286920D01*
X-49920Y-292000D01*
X-55000Y-297080D01*
X-60080Y-292000D01*
X-248080Y380000D02*
X-243000Y385080D01*
X-237920Y380000D01*
X-243000Y374920D01*
X-248080Y380000D01*
Y388000D02*
X-243000Y393080D01*
X-237920Y388000D01*
X-243000Y382920D01*
X-248080Y388000D01*
Y404000D02*
X-243000Y409080D01*
X-237920Y404000D01*
X-243000Y398920D01*
X-248080Y404000D01*
Y396000D02*
X-243000Y401080D01*
X-237920Y396000D01*
X-243000Y390920D01*
X-248080Y396000D01*
X-160080Y7000D02*
X-155000Y12080D01*
X-149920Y7000D01*
X-155000Y1920D01*
X-160080Y7000D01*
X-158080Y104000D02*
X-153000Y109080D01*
X-147920Y104000D01*
X-153000Y98920D01*
X-158080Y104000D01*
Y111000D02*
X-153000Y116080D01*
X-147920Y111000D01*
X-153000Y105920D01*
X-158080Y111000D01*
Y125000D02*
X-153000Y130080D01*
X-147920Y125000D01*
X-153000Y119920D01*
X-158080Y125000D01*
Y118000D02*
X-153000Y123080D01*
X-147920Y118000D01*
X-153000Y112920D01*
X-158080Y118000D01*
X-88080Y316000D02*
X-83000Y321080D01*
X-77920Y316000D01*
X-83000Y310920D01*
X-88080Y316000D01*
X-81080D02*
X-76000Y321080D01*
X-70920Y316000D01*
X-76000Y310920D01*
X-81080Y316000D01*
X-76080Y277000D02*
X-71000Y282080D01*
X-65920Y277000D01*
X-71000Y271920D01*
X-76080Y277000D01*
X-78080Y57000D02*
X-73000Y62080D01*
X-67920Y57000D01*
X-73000Y51920D01*
X-78080Y57000D01*
Y50000D02*
X-73000Y55080D01*
X-67920Y50000D01*
X-73000Y44920D01*
X-78080Y50000D01*
X-75080Y-18000D02*
X-70000Y-12920D01*
X-64920Y-18000D01*
X-70000Y-23080D01*
X-75080Y-18000D01*
X-60547Y176387D02*
X-55467Y181467D01*
X-50387Y176387D01*
X-55467Y171307D01*
X-60547Y176387D01*
X-59080Y362000D02*
X-54000Y367080D01*
X-48920Y362000D01*
X-54000Y356920D01*
X-59080Y362000D01*
Y373000D02*
X-54000Y378080D01*
X-48920Y373000D01*
X-54000Y367920D01*
X-59080Y373000D01*
X-194080Y417000D02*
X-189000Y422080D01*
X-183920Y417000D01*
X-189000Y411920D01*
X-194080Y417000D01*
Y425000D02*
X-189000Y430080D01*
X-183920Y425000D01*
X-189000Y419920D01*
X-194080Y425000D01*
Y433000D02*
X-189000Y438080D01*
X-183920Y433000D01*
X-189000Y427920D01*
X-194080Y433000D01*
Y441000D02*
X-189000Y446080D01*
X-183920Y441000D01*
X-189000Y435920D01*
X-194080Y441000D01*
Y673000D02*
X-189000Y678080D01*
X-183920Y673000D01*
X-189000Y667920D01*
X-194080Y673000D01*
X-192080Y747000D02*
X-187000Y752080D01*
X-181920Y747000D01*
X-187000Y741920D01*
X-192080Y747000D01*
X-188080Y646000D02*
X-183000Y651080D01*
X-177920Y646000D01*
X-183000Y640920D01*
X-188080Y646000D01*
X-186080Y673000D02*
X-181000Y678080D01*
X-175920Y673000D01*
X-181000Y667920D01*
X-186080Y673000D01*
X-168080Y456000D02*
X-163000Y461080D01*
X-157920Y456000D01*
X-163000Y450920D01*
X-168080Y456000D01*
Y463000D02*
X-163000Y468080D01*
X-157920Y463000D01*
X-163000Y457920D01*
X-168080Y463000D01*
Y470000D02*
X-163000Y475080D01*
X-157920Y470000D01*
X-163000Y464920D01*
X-168080Y470000D01*
Y477000D02*
X-163000Y482080D01*
X-157920Y477000D01*
X-163000Y471920D01*
X-168080Y477000D01*
X-160080Y456000D02*
X-155000Y461080D01*
X-149920Y456000D01*
X-155000Y450920D01*
X-160080Y456000D01*
Y463000D02*
X-155000Y468080D01*
X-149920Y463000D01*
X-155000Y457920D01*
X-160080Y463000D01*
Y470000D02*
X-155000Y475080D01*
X-149920Y470000D01*
X-155000Y464920D01*
X-160080Y470000D01*
Y477000D02*
X-155000Y482080D01*
X-149920Y477000D01*
X-155000Y471920D01*
X-160080Y477000D01*
X-158080Y581000D02*
X-153000Y586080D01*
X-147920Y581000D01*
X-153000Y575920D01*
X-158080Y581000D01*
Y595000D02*
X-153000Y600080D01*
X-147920Y595000D01*
X-153000Y589920D01*
X-158080Y595000D01*
Y588000D02*
X-153000Y593080D01*
X-147920Y588000D01*
X-153000Y582920D01*
X-158080Y588000D01*
Y574000D02*
X-153000Y579080D01*
X-147920Y574000D01*
X-153000Y568920D01*
X-158080Y574000D01*
X-80080Y663000D02*
X-75000Y668080D01*
X-69920Y663000D01*
X-75000Y657920D01*
X-80080Y663000D01*
Y654000D02*
X-75000Y659080D01*
X-69920Y654000D01*
X-75000Y648920D01*
X-80080Y654000D01*
X-79080Y527000D02*
X-74000Y532080D01*
X-68920Y527000D01*
X-74000Y521920D01*
X-79080Y527000D01*
X-72080Y654000D02*
X-67000Y659080D01*
X-61920Y654000D01*
X-67000Y648920D01*
X-72080Y654000D01*
Y663000D02*
X-67000Y668080D01*
X-61920Y663000D01*
X-67000Y657920D01*
X-72080Y663000D01*
X-68080Y527000D02*
X-63000Y532080D01*
X-57920Y527000D01*
X-63000Y521920D01*
X-68080Y527000D01*
X-62080Y710000D02*
X-57000Y715080D01*
X-51920Y710000D01*
X-57000Y704920D01*
X-62080Y710000D01*
X-59080Y380000D02*
X-54000Y385080D01*
X-48920Y380000D01*
X-54000Y374920D01*
X-59080Y380000D01*
Y387000D02*
X-54000Y392080D01*
X-48920Y387000D01*
X-54000Y381920D01*
X-59080Y387000D01*
Y394000D02*
X-54000Y399080D01*
X-48920Y394000D01*
X-54000Y388920D01*
X-59080Y394000D01*
Y401000D02*
X-54000Y406080D01*
X-48920Y401000D01*
X-54000Y395920D01*
X-59080Y401000D01*
Y408000D02*
X-54000Y413080D01*
X-48920Y408000D01*
X-54000Y402920D01*
X-59080Y408000D01*
X55920Y-714000D02*
X61000Y-708920D01*
X66080Y-714000D01*
X61000Y-719080D01*
X55920Y-714000D01*
X47920D02*
X53000Y-708920D01*
X58080Y-714000D01*
X53000Y-719080D01*
X47920Y-714000D01*
X182920Y-706000D02*
X188000Y-700920D01*
X193080Y-706000D01*
X188000Y-711080D01*
X182920Y-706000D01*
X152920Y-655000D02*
X158000Y-649920D01*
X163080Y-655000D01*
X158000Y-660080D01*
X152920Y-655000D01*
Y-648000D02*
X158000Y-642920D01*
X163080Y-648000D01*
X158000Y-653080D01*
X152920Y-648000D01*
X54920Y-645000D02*
X60000Y-639920D01*
X65080Y-645000D01*
X60000Y-650080D01*
X54920Y-645000D01*
X152920Y-641000D02*
X158000Y-635920D01*
X163080Y-641000D01*
X158000Y-646080D01*
X152920Y-641000D01*
Y-634000D02*
X158000Y-628920D01*
X163080Y-634000D01*
X158000Y-639080D01*
X152920Y-634000D01*
X54920Y-594000D02*
X60000Y-588920D01*
X65080Y-594000D01*
X60000Y-599080D01*
X54920Y-594000D01*
Y-587000D02*
X60000Y-581920D01*
X65080Y-587000D01*
X60000Y-592080D01*
X54920Y-587000D01*
X154920Y-520000D02*
X160000Y-514920D01*
X165080Y-520000D01*
X160000Y-525080D01*
X154920Y-520000D01*
X162920D02*
X168000Y-514920D01*
X173080Y-520000D01*
X168000Y-525080D01*
X162920Y-520000D01*
X154920Y-512000D02*
X160000Y-506920D01*
X165080Y-512000D01*
X160000Y-517080D01*
X154920Y-512000D01*
X162920D02*
X168000Y-506920D01*
X173080Y-512000D01*
X168000Y-517080D01*
X162920Y-512000D01*
X154920Y-504000D02*
X160000Y-498920D01*
X165080Y-504000D01*
X160000Y-509080D01*
X154920Y-504000D01*
X162920D02*
X168000Y-498920D01*
X173080Y-504000D01*
X168000Y-509080D01*
X162920Y-504000D01*
X1920Y-738000D02*
X7000Y-732920D01*
X12080Y-738000D01*
X7000Y-743080D01*
X1920Y-738000D01*
X9838Y-685082D02*
X14918Y-680002D01*
X19998Y-685082D01*
X14918Y-690162D01*
X9838Y-685082D01*
X2920Y-673000D02*
X8000Y-667920D01*
X13080Y-673000D01*
X8000Y-678080D01*
X2920Y-673000D01*
X22920Y-658000D02*
X28000Y-652920D01*
X33080Y-658000D01*
X28000Y-663080D01*
X22920Y-658000D01*
X37920Y-638000D02*
X43000Y-632920D01*
X48080Y-638000D01*
X43000Y-643080D01*
X37920Y-638000D01*
X2920Y-417000D02*
X8000Y-411920D01*
X13080Y-417000D01*
X8000Y-422080D01*
X2920Y-417000D01*
X-3080Y-595000D02*
X2000Y-589920D01*
X7080Y-595000D01*
X2000Y-600080D01*
X-3080Y-595000D01*
X15920Y-488000D02*
X21000Y-482920D01*
X26080Y-488000D01*
X21000Y-493080D01*
X15920Y-488000D01*
X9920Y-478000D02*
X15000Y-472920D01*
X20080Y-478000D01*
X15000Y-483080D01*
X9920Y-478000D01*
X31920Y-449000D02*
X37000Y-443920D01*
X42080Y-449000D01*
X37000Y-454080D01*
X31920Y-449000D01*
X2920Y-438000D02*
X8000Y-432920D01*
X13080Y-438000D01*
X8000Y-443080D01*
X2920Y-438000D01*
X-10080Y-601000D02*
X-5000Y-595920D01*
X80Y-601000D01*
X-5000Y-606080D01*
X-10080Y-601000D01*
X-8080Y-415000D02*
X-3000Y-409920D01*
X2080Y-415000D01*
X-3000Y-420080D01*
X-8080Y-415000D01*
X1860Y-396211D02*
X6940Y-391131D01*
X12020Y-396211D01*
X6940Y-401291D01*
X1860Y-396211D01*
X-4080Y-391000D02*
X1000Y-385920D01*
X6080Y-391000D01*
X1000Y-396080D01*
X-4080Y-391000D01*
X-5080Y-383000D02*
X-0Y-377920D01*
X5080Y-383000D01*
X-0Y-388080D01*
X-5080Y-383000D01*
X8920D02*
X14000Y-377920D01*
X19080Y-383000D01*
X14000Y-388080D01*
X8920Y-383000D01*
X920Y-361000D02*
X6000Y-355920D01*
X11080Y-361000D01*
X6000Y-366080D01*
X920Y-361000D01*
X13920Y-327000D02*
X19000Y-321920D01*
X24080Y-327000D01*
X19000Y-332080D01*
X13920Y-327000D01*
X20920Y-319000D02*
X26000Y-313920D01*
X31080Y-319000D01*
X26000Y-324080D01*
X20920Y-319000D01*
X25920Y-311701D02*
X31000Y-306621D01*
X36080Y-311701D01*
X31000Y-316781D01*
X25920Y-311701D01*
X31515Y-298595D02*
X36595Y-293515D01*
X41675Y-298595D01*
X36595Y-303675D01*
X31515Y-298595D01*
X36920Y-288000D02*
X42000Y-282920D01*
X47080Y-288000D01*
X42000Y-293080D01*
X36920Y-288000D01*
Y-281000D02*
X42000Y-275920D01*
X47080Y-281000D01*
X42000Y-286080D01*
X36920Y-281000D01*
X31920Y-237000D02*
X37000Y-231920D01*
X42080Y-237000D01*
X37000Y-242080D01*
X31920Y-237000D01*
X4920Y-235000D02*
X10000Y-229920D01*
X15080Y-235000D01*
X10000Y-240080D01*
X4920Y-235000D01*
Y-229000D02*
X10000Y-223920D01*
X15080Y-229000D01*
X10000Y-234080D01*
X4920Y-229000D01*
Y-223000D02*
X10000Y-217920D01*
X15080Y-223000D01*
X10000Y-228080D01*
X4920Y-223000D01*
X28920Y-220000D02*
X34000Y-214920D01*
X39080Y-220000D01*
X34000Y-225080D01*
X28920Y-220000D01*
X4920Y-217000D02*
X10000Y-211920D01*
X15080Y-217000D01*
X10000Y-222080D01*
X4920Y-217000D01*
X23920Y-197000D02*
X29000Y-191920D01*
X34080Y-197000D01*
X29000Y-202080D01*
X23920Y-197000D01*
X17920Y-192000D02*
X23000Y-186920D01*
X28080Y-192000D01*
X23000Y-197080D01*
X17920Y-192000D01*
X-9162Y-191821D02*
X-4082Y-186741D01*
X998Y-191821D01*
X-4082Y-196901D01*
X-9162Y-191821D01*
X-9771Y-184000D02*
X-4690Y-178920D01*
X389Y-184000D01*
X-4690Y-189080D01*
X-9771Y-184000D01*
X-7080Y-176000D02*
X-2000Y-170920D01*
X3080Y-176000D01*
X-2000Y-181080D01*
X-7080Y-176000D01*
X25920Y-173000D02*
X31000Y-167920D01*
X36080Y-173000D01*
X31000Y-178080D01*
X25920Y-173000D01*
X-8080Y-136000D02*
X-3000Y-130920D01*
X2080Y-136000D01*
X-3000Y-141080D01*
X-8080Y-136000D01*
X-18080Y-10000D02*
X-13000Y-4920D01*
X-7920Y-10000D01*
X-13000Y-15080D01*
X-18080Y-10000D01*
X-17080Y-68000D02*
X-12000Y-62920D01*
X-6920Y-68000D01*
X-12000Y-73080D01*
X-17080Y-68000D01*
Y-61000D02*
X-12000Y-55920D01*
X-6920Y-61000D01*
X-12000Y-66080D01*
X-17080Y-61000D01*
Y-54000D02*
X-12000Y-48920D01*
X-6920Y-54000D01*
X-12000Y-59080D01*
X-17080Y-54000D01*
X-5080Y-42000D02*
X-0Y-36920D01*
X5080Y-42000D01*
X-0Y-47080D01*
X-5080Y-42000D01*
X-18080Y-35000D02*
X-13000Y-29920D01*
X-7920Y-35000D01*
X-13000Y-40080D01*
X-18080Y-35000D01*
X-17080Y-27000D02*
X-12000Y-21920D01*
X-6920Y-27000D01*
X-12000Y-32080D01*
X-17080Y-27000D01*
Y-18000D02*
X-12000Y-12920D01*
X-6920Y-18000D01*
X-12000Y-23080D01*
X-17080Y-18000D01*
X54920Y-486000D02*
X60000Y-480920D01*
X65080Y-486000D01*
X60000Y-491080D01*
X54920Y-486000D01*
Y-479000D02*
X60000Y-473920D01*
X65080Y-479000D01*
X60000Y-484080D01*
X54920Y-479000D01*
Y-472000D02*
X60000Y-466920D01*
X65080Y-472000D01*
X60000Y-477080D01*
X54920Y-472000D01*
Y-465000D02*
X60000Y-459920D01*
X65080Y-465000D01*
X60000Y-470080D01*
X54920Y-465000D01*
Y-458000D02*
X60000Y-452920D01*
X65080Y-458000D01*
X60000Y-463080D01*
X54920Y-458000D01*
Y-451000D02*
X60000Y-445920D01*
X65080Y-451000D01*
X60000Y-456080D01*
X54920Y-451000D01*
Y-444000D02*
X60000Y-438920D01*
X65080Y-444000D01*
X60000Y-449080D01*
X54920Y-444000D01*
Y-437000D02*
X60000Y-431920D01*
X65080Y-437000D01*
X60000Y-442080D01*
X54920Y-437000D01*
Y-430000D02*
X60000Y-424920D01*
X65080Y-430000D01*
X60000Y-435080D01*
X54920Y-430000D01*
Y-423000D02*
X60000Y-417920D01*
X65080Y-423000D01*
X60000Y-428080D01*
X54920Y-423000D01*
Y-412000D02*
X60000Y-406920D01*
X65080Y-412000D01*
X60000Y-417080D01*
X54920Y-412000D01*
X54687Y-401398D02*
X59767Y-396318D01*
X64847Y-401398D01*
X59767Y-406478D01*
X54687Y-401398D01*
X46920Y-374000D02*
X52000Y-368920D01*
X57080Y-374000D01*
X52000Y-379080D01*
X46920Y-374000D01*
X53920D02*
X59000Y-368920D01*
X64080Y-374000D01*
X59000Y-379080D01*
X53920Y-374000D01*
X66920Y-367000D02*
X72000Y-361920D01*
X77080Y-367000D01*
X72000Y-372080D01*
X66920Y-367000D01*
X74920D02*
X80000Y-361920D01*
X85080Y-367000D01*
X80000Y-372080D01*
X74920Y-367000D01*
X202920Y-476000D02*
X208000Y-470920D01*
X213080Y-476000D01*
X208000Y-481080D01*
X202920Y-476000D01*
X208920Y-696000D02*
X214000Y-690920D01*
X219080Y-696000D01*
X214000Y-701080D01*
X208920Y-696000D01*
X197920Y-656000D02*
X203000Y-650920D01*
X208080Y-656000D01*
X203000Y-661080D01*
X197920Y-656000D01*
Y-648000D02*
X203000Y-642920D01*
X208080Y-648000D01*
X203000Y-653080D01*
X197920Y-648000D01*
X218920Y-618500D02*
X224000Y-613420D01*
X229080Y-618500D01*
X224000Y-623580D01*
X218920Y-618500D01*
X193920Y-476000D02*
X199000Y-470920D01*
X204080Y-476000D01*
X199000Y-481080D01*
X193920Y-476000D01*
X202920Y-570000D02*
X208000Y-564920D01*
X213080Y-570000D01*
X208000Y-575080D01*
X202920Y-570000D01*
X209920D02*
X215000Y-564920D01*
X220080Y-570000D01*
X215000Y-575080D01*
X209920Y-570000D01*
X193920Y-484000D02*
X199000Y-478920D01*
X204080Y-484000D01*
X199000Y-489080D01*
X193920Y-484000D01*
X202920D02*
X208000Y-478920D01*
X213080Y-484000D01*
X208000Y-489080D01*
X202920Y-484000D01*
X193920Y-468000D02*
X199000Y-462920D01*
X204080Y-468000D01*
X199000Y-473080D01*
X193920Y-468000D01*
X202920D02*
X208000Y-462920D01*
X213080Y-468000D01*
X208000Y-473080D01*
X202920Y-468000D01*
X193920Y-460000D02*
X199000Y-454920D01*
X204080Y-460000D01*
X199000Y-465080D01*
X193920Y-460000D01*
X202920D02*
X208000Y-454920D01*
X213080Y-460000D01*
X208000Y-465080D01*
X202920Y-460000D01*
X245920Y-455000D02*
X251000Y-449920D01*
X256080Y-455000D01*
X251000Y-460080D01*
X245920Y-455000D01*
Y-447000D02*
X251000Y-441920D01*
X256080Y-447000D01*
X251000Y-452080D01*
X245920Y-447000D01*
Y-439000D02*
X251000Y-433920D01*
X256080Y-439000D01*
X251000Y-444080D01*
X245920Y-439000D01*
Y-431000D02*
X251000Y-425920D01*
X256080Y-431000D01*
X251000Y-436080D01*
X245920Y-431000D01*
X224920Y-379000D02*
X230000Y-373920D01*
X235080Y-379000D01*
X230000Y-384080D01*
X224920Y-379000D01*
X185920Y-423000D02*
X191000Y-417920D01*
X196080Y-423000D01*
X191000Y-428080D01*
X185920Y-423000D01*
X217920Y-409000D02*
X223000Y-403920D01*
X228080Y-409000D01*
X223000Y-414080D01*
X217920Y-409000D01*
Y-403000D02*
X223000Y-397920D01*
X228080Y-403000D01*
X223000Y-408080D01*
X217920Y-403000D01*
X184920Y-395000D02*
X190000Y-389920D01*
X195080Y-395000D01*
X190000Y-400080D01*
X184920Y-395000D01*
X208920D02*
X214000Y-389920D01*
X219080Y-395000D01*
X214000Y-400080D01*
X208920Y-395000D01*
X217920Y-379000D02*
X223000Y-373920D01*
X228080Y-379000D01*
X223000Y-384080D01*
X217920Y-379000D01*
X53920Y-367000D02*
X59000Y-361920D01*
X64080Y-367000D01*
X59000Y-372080D01*
X53920Y-367000D01*
X46920D02*
X52000Y-361920D01*
X57080Y-367000D01*
X52000Y-372080D01*
X46920Y-367000D01*
X66920Y-329000D02*
X72000Y-323920D01*
X77080Y-329000D01*
X72000Y-334080D01*
X66920Y-329000D01*
X44920Y-264000D02*
X50000Y-258920D01*
X55080Y-264000D01*
X50000Y-269080D01*
X44920Y-264000D01*
X51920Y-259000D02*
X57000Y-253920D01*
X62080Y-259000D01*
X57000Y-264080D01*
X51920Y-259000D01*
X59920Y-256000D02*
X65000Y-250920D01*
X70080Y-256000D01*
X65000Y-261080D01*
X59920Y-256000D01*
X42920Y-253000D02*
X48000Y-247920D01*
X53080Y-253000D01*
X48000Y-258080D01*
X42920Y-253000D01*
X48920Y-248000D02*
X54000Y-242920D01*
X59080Y-248000D01*
X54000Y-253080D01*
X48920Y-248000D01*
X54920Y-239000D02*
X60000Y-233920D01*
X65080Y-239000D01*
X60000Y-244080D01*
X54920Y-239000D01*
X53920Y-222000D02*
X59000Y-216920D01*
X64080Y-222000D01*
X59000Y-227080D01*
X53920Y-222000D01*
X49920Y-215000D02*
X55000Y-209920D01*
X60080Y-215000D01*
X55000Y-220080D01*
X49920Y-215000D01*
X53920Y-196000D02*
X59000Y-190920D01*
X64080Y-196000D01*
X59000Y-201080D01*
X53920Y-196000D01*
Y-188000D02*
X59000Y-182920D01*
X64080Y-188000D01*
X59000Y-193080D01*
X53920Y-188000D01*
Y-177000D02*
X59000Y-171920D01*
X64080Y-177000D01*
X59000Y-182080D01*
X53920Y-177000D01*
X-8080Y-128000D02*
X-3000Y-122920D01*
X2080Y-128000D01*
X-3000Y-133080D01*
X-8080Y-128000D01*
X-3080Y-117000D02*
X2000Y-111920D01*
X7080Y-117000D01*
X2000Y-122080D01*
X-3080Y-117000D01*
X-17080Y-96000D02*
X-12000Y-90920D01*
X-6920Y-96000D01*
X-12000Y-101080D01*
X-17080Y-96000D01*
Y-89000D02*
X-12000Y-83920D01*
X-6920Y-89000D01*
X-12000Y-94080D01*
X-17080Y-89000D01*
X42920Y-84000D02*
X48000Y-78920D01*
X53080Y-84000D01*
X48000Y-89080D01*
X42920Y-84000D01*
X-17080Y-82000D02*
X-12000Y-76920D01*
X-6920Y-82000D01*
X-12000Y-87080D01*
X-17080Y-82000D01*
X42920Y-77000D02*
X48000Y-71920D01*
X53080Y-77000D01*
X48000Y-82080D01*
X42920Y-77000D01*
X-17080Y-75000D02*
X-12000Y-69920D01*
X-6920Y-75000D01*
X-12000Y-80080D01*
X-17080Y-75000D01*
X184920Y-361000D02*
X190000Y-355920D01*
X195080Y-361000D01*
X190000Y-366080D01*
X184920Y-361000D01*
X74920Y-329000D02*
X80000Y-323920D01*
X85080Y-329000D01*
X80000Y-334080D01*
X74920Y-329000D01*
X182920Y-236000D02*
X188000Y-230920D01*
X193080Y-236000D01*
X188000Y-241080D01*
X182920Y-236000D01*
X218920Y-148500D02*
X224000Y-143420D01*
X229080Y-148500D01*
X224000Y-153580D01*
X218920Y-148500D01*
X208920Y-226000D02*
X214000Y-220920D01*
X219080Y-226000D01*
X214000Y-231080D01*
X208920Y-226000D01*
X197920Y-186000D02*
X203000Y-180920D01*
X208080Y-186000D01*
X203000Y-191080D01*
X197920Y-186000D01*
X152920Y-185000D02*
X158000Y-179920D01*
X163080Y-185000D01*
X158000Y-190080D01*
X152920Y-185000D01*
Y-178000D02*
X158000Y-172920D01*
X163080Y-178000D01*
X158000Y-183080D01*
X152920Y-178000D01*
X197920D02*
X203000Y-172920D01*
X208080Y-178000D01*
X203000Y-183080D01*
X197920Y-178000D01*
X152920Y-171000D02*
X158000Y-165920D01*
X163080Y-171000D01*
X158000Y-176080D01*
X152920Y-171000D01*
Y-164000D02*
X158000Y-158920D01*
X163080Y-164000D01*
X158000Y-169080D01*
X152920Y-164000D01*
X83920Y-122000D02*
X89000Y-116920D01*
X94080Y-122000D01*
X89000Y-127080D01*
X83920Y-122000D01*
Y-115000D02*
X89000Y-109920D01*
X94080Y-115000D01*
X89000Y-120080D01*
X83920Y-115000D01*
X82920Y-11000D02*
X88000Y-5920D01*
X93080Y-11000D01*
X88000Y-16080D01*
X82920Y-11000D01*
X202920Y-100000D02*
X208000Y-94920D01*
X213080Y-100000D01*
X208000Y-105080D01*
X202920Y-100000D01*
X209920D02*
X215000Y-94920D01*
X220080Y-100000D01*
X215000Y-105080D01*
X209920Y-100000D01*
X154920Y-50000D02*
X160000Y-44920D01*
X165080Y-50000D01*
X160000Y-55080D01*
X154920Y-50000D01*
X162920D02*
X168000Y-44920D01*
X173080Y-50000D01*
X168000Y-55080D01*
X162920Y-50000D01*
X154920Y-42000D02*
X160000Y-36920D01*
X165080Y-42000D01*
X160000Y-47080D01*
X154920Y-42000D01*
X162920D02*
X168000Y-36920D01*
X173080Y-42000D01*
X168000Y-47080D01*
X162920Y-42000D01*
X154920Y-34000D02*
X160000Y-28920D01*
X165080Y-34000D01*
X160000Y-39080D01*
X154920Y-34000D01*
X162920D02*
X168000Y-28920D01*
X173080Y-34000D01*
X168000Y-39080D01*
X162920Y-34000D01*
X193920Y-14000D02*
X199000Y-8920D01*
X204080Y-14000D01*
X199000Y-19080D01*
X193920Y-14000D01*
X202920D02*
X208000Y-8920D01*
X213080Y-14000D01*
X208000Y-19080D01*
X202920Y-14000D01*
X52920Y-169000D02*
X58000Y-163920D01*
X63080Y-169000D01*
X58000Y-174080D01*
X52920Y-169000D01*
X48920Y-161000D02*
X54000Y-155920D01*
X59080Y-161000D01*
X54000Y-166080D01*
X48920Y-161000D01*
Y-153000D02*
X54000Y-147920D01*
X59080Y-153000D01*
X54000Y-158080D01*
X48920Y-153000D01*
X46920Y-131000D02*
X52000Y-125920D01*
X57080Y-131000D01*
X52000Y-136080D01*
X46920Y-131000D01*
X42920Y-119000D02*
X48000Y-113920D01*
X53080Y-119000D01*
X48000Y-124080D01*
X42920Y-119000D01*
Y-112000D02*
X48000Y-106920D01*
X53080Y-112000D01*
X48000Y-117080D01*
X42920Y-112000D01*
Y-105000D02*
X48000Y-99920D01*
X53080Y-105000D01*
X48000Y-110080D01*
X42920Y-105000D01*
Y-98000D02*
X48000Y-92920D01*
X53080Y-98000D01*
X48000Y-103080D01*
X42920Y-98000D01*
Y-91000D02*
X48000Y-85920D01*
X53080Y-91000D01*
X48000Y-96080D01*
X42920Y-91000D01*
Y-70000D02*
X48000Y-64920D01*
X53080Y-70000D01*
X48000Y-75080D01*
X42920Y-70000D01*
Y-63000D02*
X48000Y-57920D01*
X53080Y-63000D01*
X48000Y-68080D01*
X42920Y-63000D01*
X45920Y-51000D02*
X51000Y-45920D01*
X56080Y-51000D01*
X51000Y-56080D01*
X45920Y-51000D01*
X50920Y-19000D02*
X56000Y-13920D01*
X61080Y-19000D01*
X56000Y-24080D01*
X50920Y-19000D01*
X57920Y-47000D02*
X63000Y-41920D01*
X68080Y-47000D01*
X63000Y-52080D01*
X57920Y-47000D01*
X51920Y-38000D02*
X57000Y-32920D01*
X62080Y-38000D01*
X57000Y-43080D01*
X51920Y-38000D01*
X-547080Y-720080D02*
X-544540D01*
X-542000Y-717540D01*
X-539460Y-720080D01*
X-536920D01*
Y-717540D01*
X-539460Y-715000D01*
X-536920Y-712460D01*
Y-709920D01*
X-539460D01*
X-542000Y-712460D01*
X-544540Y-709920D01*
X-547080D01*
Y-712460D01*
X-544540Y-715000D01*
X-547080Y-717540D01*
Y-720080D01*
X-524080Y-732080D02*
X-521540D01*
X-519000Y-729540D01*
X-516460Y-732080D01*
X-513920D01*
Y-729540D01*
X-516460Y-727000D01*
X-513920Y-724460D01*
Y-721920D01*
X-516460D01*
X-519000Y-724460D01*
X-521540Y-721920D01*
X-524080D01*
Y-724460D01*
X-521540Y-727000D01*
X-524080Y-729540D01*
Y-732080D01*
Y-720080D02*
X-521540D01*
X-519000Y-717540D01*
X-516460Y-720080D01*
X-513920D01*
Y-717540D01*
X-516460Y-715000D01*
X-513920Y-712460D01*
Y-709920D01*
X-516460D01*
X-519000Y-712460D01*
X-521540Y-709920D01*
X-524080D01*
Y-712460D01*
X-521540Y-715000D01*
X-524080Y-717540D01*
Y-720080D01*
X-684080Y-756000D02*
X-679000Y-750920D01*
X-673920Y-756000D01*
X-679000Y-761080D01*
X-684080Y-756000D01*
X-693080D02*
X-688000Y-750920D01*
X-682920Y-756000D01*
X-688000Y-761080D01*
X-693080Y-756000D01*
X-702080D02*
X-697000Y-750920D01*
X-691920Y-756000D01*
X-697000Y-761080D01*
X-702080Y-756000D01*
X-711080D02*
X-706000Y-750920D01*
X-700920Y-756000D01*
X-706000Y-761080D01*
X-711080Y-756000D01*
X-720080D02*
X-715000Y-750920D01*
X-709920Y-756000D01*
X-715000Y-761080D01*
X-720080Y-756000D01*
X-685080Y-743080D02*
X-682540D01*
X-680000Y-740540D01*
X-677460Y-743080D01*
X-674920D01*
Y-740540D01*
X-677460Y-738000D01*
X-674920Y-735460D01*
Y-732920D01*
X-677460D01*
X-680000Y-735460D01*
X-682540Y-732920D01*
X-685080D01*
Y-735460D01*
X-682540Y-738000D01*
X-685080Y-740540D01*
Y-743080D01*
X-694080D02*
X-691540D01*
X-689000Y-740540D01*
X-686460Y-743080D01*
X-683920D01*
Y-740540D01*
X-686460Y-738000D01*
X-683920Y-735460D01*
Y-732920D01*
X-686460D01*
X-689000Y-735460D01*
X-691540Y-732920D01*
X-694080D01*
Y-735460D01*
X-691540Y-738000D01*
X-694080Y-740540D01*
Y-743080D01*
X-798680Y-681080D02*
X-796140D01*
X-793600Y-678540D01*
X-791060Y-681080D01*
X-788520D01*
Y-678540D01*
X-791060Y-676000D01*
X-788520Y-673460D01*
Y-670920D01*
X-791060D01*
X-793600Y-673460D01*
X-796140Y-670920D01*
X-798680D01*
Y-673460D01*
X-796140Y-676000D01*
X-798680Y-678540D01*
Y-681080D01*
X-830080Y-756000D02*
X-825000Y-750920D01*
X-819920Y-756000D01*
X-825000Y-761080D01*
X-830080Y-756000D01*
X-821080D02*
X-816000Y-750920D01*
X-810920Y-756000D01*
X-816000Y-761080D01*
X-821080Y-756000D01*
X-812080D02*
X-807000Y-750920D01*
X-801920Y-756000D01*
X-807000Y-761080D01*
X-812080Y-756000D01*
X-803080D02*
X-798000Y-750920D01*
X-792920Y-756000D01*
X-798000Y-761080D01*
X-803080Y-756000D01*
X-794080D02*
X-789000Y-750920D01*
X-783920Y-756000D01*
X-789000Y-761080D01*
X-794080Y-756000D01*
X-1142080Y-669080D02*
X-1139540D01*
X-1137000Y-666540D01*
X-1134460Y-669080D01*
X-1131920D01*
Y-666540D01*
X-1134460Y-664000D01*
X-1131920Y-661460D01*
Y-658920D01*
X-1134460D01*
X-1137000Y-661460D01*
X-1139540Y-658920D01*
X-1142080D01*
Y-661460D01*
X-1139540Y-664000D01*
X-1142080Y-666540D01*
Y-669080D01*
X-673080Y741000D02*
X-668000Y746080D01*
X-662920Y741000D01*
X-668000Y735920D01*
X-673080Y741000D01*
X-680080D02*
X-675000Y746080D01*
X-669920Y741000D01*
X-675000Y735920D01*
X-680080Y741000D01*
X-666080D02*
X-661000Y746080D01*
X-655920Y741000D01*
X-661000Y735920D01*
X-666080Y741000D01*
X-887080Y511795D02*
X-884540D01*
X-882000Y514335D01*
X-879460Y511795D01*
X-876920D01*
Y514335D01*
X-879460Y516875D01*
X-876920Y519415D01*
Y521955D01*
X-879460D01*
X-882000Y519415D01*
X-884540Y521955D01*
X-887080D01*
Y519415D01*
X-884540Y516875D01*
X-887080Y514335D01*
Y511795D01*
Y518795D02*
X-884540D01*
X-882000Y521335D01*
X-879460Y518795D01*
X-876920D01*
Y521335D01*
X-879460Y523875D01*
X-876920Y526415D01*
Y528955D01*
X-879460D01*
X-882000Y526415D01*
X-884540Y528955D01*
X-887080D01*
Y526415D01*
X-884540Y523875D01*
X-887080Y521335D01*
Y518795D01*
Y525795D02*
X-884540D01*
X-882000Y528335D01*
X-879460Y525795D01*
X-876920D01*
Y528335D01*
X-879460Y530875D01*
X-876920Y533415D01*
Y535955D01*
X-879460D01*
X-882000Y533415D01*
X-884540Y535955D01*
X-887080D01*
Y533415D01*
X-884540Y530875D01*
X-887080Y528335D01*
Y525795D01*
Y532795D02*
X-884540D01*
X-882000Y535335D01*
X-879460Y532795D01*
X-876920D01*
Y535335D01*
X-879460Y537875D01*
X-876920Y540415D01*
Y542955D01*
X-879460D01*
X-882000Y540415D01*
X-884540Y542955D01*
X-887080D01*
Y540415D01*
X-884540Y537875D01*
X-887080Y535335D01*
Y532795D01*
X-894080Y511795D02*
X-891540D01*
X-889000Y514335D01*
X-886460Y511795D01*
X-883920D01*
Y514335D01*
X-886460Y516875D01*
X-883920Y519415D01*
Y521955D01*
X-886460D01*
X-889000Y519415D01*
X-891540Y521955D01*
X-894080D01*
Y519415D01*
X-891540Y516875D01*
X-894080Y514335D01*
Y511795D01*
Y518795D02*
X-891540D01*
X-889000Y521335D01*
X-886460Y518795D01*
X-883920D01*
Y521335D01*
X-886460Y523875D01*
X-883920Y526415D01*
Y528955D01*
X-886460D01*
X-889000Y526415D01*
X-891540Y528955D01*
X-894080D01*
Y526415D01*
X-891540Y523875D01*
X-894080Y521335D01*
Y518795D01*
Y525795D02*
X-891540D01*
X-889000Y528335D01*
X-886460Y525795D01*
X-883920D01*
Y528335D01*
X-886460Y530875D01*
X-883920Y533415D01*
Y535955D01*
X-886460D01*
X-889000Y533415D01*
X-891540Y535955D01*
X-894080D01*
Y533415D01*
X-891540Y530875D01*
X-894080Y528335D01*
Y525795D01*
Y532795D02*
X-891540D01*
X-889000Y535335D01*
X-886460Y532795D01*
X-883920D01*
Y535335D01*
X-886460Y537875D01*
X-883920Y540415D01*
Y542955D01*
X-886460D01*
X-889000Y540415D01*
X-891540Y542955D01*
X-894080D01*
Y540415D01*
X-891540Y537875D01*
X-894080Y535335D01*
Y532795D01*
X-901080D02*
X-898540D01*
X-896000Y535335D01*
X-893460Y532795D01*
X-890920D01*
Y535335D01*
X-893460Y537875D01*
X-890920Y540415D01*
Y542955D01*
X-893460D01*
X-896000Y540415D01*
X-898540Y542955D01*
X-901080D01*
Y540415D01*
X-898540Y537875D01*
X-901080Y535335D01*
Y532795D01*
Y525795D02*
X-898540D01*
X-896000Y528335D01*
X-893460Y525795D01*
X-890920D01*
Y528335D01*
X-893460Y530875D01*
X-890920Y533415D01*
Y535955D01*
X-893460D01*
X-896000Y533415D01*
X-898540Y535955D01*
X-901080D01*
Y533415D01*
X-898540Y530875D01*
X-901080Y528335D01*
Y525795D01*
Y518795D02*
X-898540D01*
X-896000Y521335D01*
X-893460Y518795D01*
X-890920D01*
Y521335D01*
X-893460Y523875D01*
X-890920Y526415D01*
Y528955D01*
X-893460D01*
X-896000Y526415D01*
X-898540Y528955D01*
X-901080D01*
Y526415D01*
X-898540Y523875D01*
X-901080Y521335D01*
Y518795D01*
Y511795D02*
X-898540D01*
X-896000Y514335D01*
X-893460Y511795D01*
X-890920D01*
Y514335D01*
X-893460Y516875D01*
X-890920Y519415D01*
Y521955D01*
X-893460D01*
X-896000Y519415D01*
X-898540Y521955D01*
X-901080D01*
Y519415D01*
X-898540Y516875D01*
X-901080Y514335D01*
Y511795D01*
X-908080Y518795D02*
X-905540D01*
X-903000Y521335D01*
X-900460Y518795D01*
X-897920D01*
Y521335D01*
X-900460Y523875D01*
X-897920Y526415D01*
Y528955D01*
X-900460D01*
X-903000Y526415D01*
X-905540Y528955D01*
X-908080D01*
Y526415D01*
X-905540Y523875D01*
X-908080Y521335D01*
Y518795D01*
Y525795D02*
X-905540D01*
X-903000Y528335D01*
X-900460Y525795D01*
X-897920D01*
Y528335D01*
X-900460Y530875D01*
X-897920Y533415D01*
Y535955D01*
X-900460D01*
X-903000Y533415D01*
X-905540Y535955D01*
X-908080D01*
Y533415D01*
X-905540Y530875D01*
X-908080Y528335D01*
Y525795D01*
Y532795D02*
X-905540D01*
X-903000Y535335D01*
X-900460Y532795D01*
X-897920D01*
Y535335D01*
X-900460Y537875D01*
X-897920Y540415D01*
Y542955D01*
X-900460D01*
X-903000Y540415D01*
X-905540Y542955D01*
X-908080D01*
Y540415D01*
X-905540Y537875D01*
X-908080Y535335D01*
Y532795D01*
Y511795D02*
X-905540D01*
X-903000Y514335D01*
X-900460Y511795D01*
X-897920D01*
Y514335D01*
X-900460Y516875D01*
X-897920Y519415D01*
Y521955D01*
X-900460D01*
X-903000Y519415D01*
X-905540Y521955D01*
X-908080D01*
Y519415D01*
X-905540Y516875D01*
X-908080Y514335D01*
Y511795D01*
X-887080Y539795D02*
X-884540D01*
X-882000Y542335D01*
X-879460Y539795D01*
X-876920D01*
Y542335D01*
X-879460Y544875D01*
X-876920Y547415D01*
Y549955D01*
X-879460D01*
X-882000Y547415D01*
X-884540Y549955D01*
X-887080D01*
Y547415D01*
X-884540Y544875D01*
X-887080Y542335D01*
Y539795D01*
X-894080D02*
X-891540D01*
X-889000Y542335D01*
X-886460Y539795D01*
X-883920D01*
Y542335D01*
X-886460Y544875D01*
X-883920Y547415D01*
Y549955D01*
X-886460D01*
X-889000Y547415D01*
X-891540Y549955D01*
X-894080D01*
Y547415D01*
X-891540Y544875D01*
X-894080Y542335D01*
Y539795D01*
X-901080D02*
X-898540D01*
X-896000Y542335D01*
X-893460Y539795D01*
X-890920D01*
Y542335D01*
X-893460Y544875D01*
X-890920Y547415D01*
Y549955D01*
X-893460D01*
X-896000Y547415D01*
X-898540Y549955D01*
X-901080D01*
Y547415D01*
X-898540Y544875D01*
X-901080Y542335D01*
Y539795D01*
X-908080D02*
X-905540D01*
X-903000Y542335D01*
X-900460Y539795D01*
X-897920D01*
Y542335D01*
X-900460Y544875D01*
X-897920Y547415D01*
Y549955D01*
X-900460D01*
X-903000Y547415D01*
X-905540Y549955D01*
X-908080D01*
Y547415D01*
X-905540Y544875D01*
X-908080Y542335D01*
Y539795D01*
X-915080D02*
X-912540D01*
X-910000Y542335D01*
X-907460Y539795D01*
X-904920D01*
Y542335D01*
X-907460Y544875D01*
X-904920Y547415D01*
Y549955D01*
X-907460D01*
X-910000Y547415D01*
X-912540Y549955D01*
X-915080D01*
Y547415D01*
X-912540Y544875D01*
X-915080Y542335D01*
Y539795D01*
Y532795D02*
X-912540D01*
X-910000Y535335D01*
X-907460Y532795D01*
X-904920D01*
Y535335D01*
X-907460Y537875D01*
X-904920Y540415D01*
Y542955D01*
X-907460D01*
X-910000Y540415D01*
X-912540Y542955D01*
X-915080D01*
Y540415D01*
X-912540Y537875D01*
X-915080Y535335D01*
Y532795D01*
Y525795D02*
X-912540D01*
X-910000Y528335D01*
X-907460Y525795D01*
X-904920D01*
Y528335D01*
X-907460Y530875D01*
X-904920Y533415D01*
Y535955D01*
X-907460D01*
X-910000Y533415D01*
X-912540Y535955D01*
X-915080D01*
Y533415D01*
X-912540Y530875D01*
X-915080Y528335D01*
Y525795D01*
Y518795D02*
X-912540D01*
X-910000Y521335D01*
X-907460Y518795D01*
X-904920D01*
Y521335D01*
X-907460Y523875D01*
X-904920Y526415D01*
Y528955D01*
X-907460D01*
X-910000Y526415D01*
X-912540Y528955D01*
X-915080D01*
Y526415D01*
X-912540Y523875D01*
X-915080Y521335D01*
Y518795D01*
Y511795D02*
X-912540D01*
X-910000Y514335D01*
X-907460Y511795D01*
X-904920D01*
Y514335D01*
X-907460Y516875D01*
X-904920Y519415D01*
Y521955D01*
X-907460D01*
X-910000Y519415D01*
X-912540Y521955D01*
X-915080D01*
Y519415D01*
X-912540Y516875D01*
X-915080Y514335D01*
Y511795D01*
X-1031080Y511795D02*
X-1028540D01*
X-1026000Y514335D01*
X-1023460Y511795D01*
X-1020920D01*
Y514335D01*
X-1023460Y516875D01*
X-1020920Y519415D01*
Y521955D01*
X-1023460D01*
X-1026000Y519415D01*
X-1028540Y521955D01*
X-1031080D01*
Y519415D01*
X-1028540Y516875D01*
X-1031080Y514335D01*
Y511795D01*
Y518795D02*
X-1028540D01*
X-1026000Y521335D01*
X-1023460Y518795D01*
X-1020920D01*
Y521335D01*
X-1023460Y523875D01*
X-1020920Y526415D01*
Y528955D01*
X-1023460D01*
X-1026000Y526415D01*
X-1028540Y528955D01*
X-1031080D01*
Y526415D01*
X-1028540Y523875D01*
X-1031080Y521335D01*
Y518795D01*
Y525795D02*
X-1028540D01*
X-1026000Y528335D01*
X-1023460Y525795D01*
X-1020920D01*
Y528335D01*
X-1023460Y530875D01*
X-1020920Y533415D01*
Y535955D01*
X-1023460D01*
X-1026000Y533415D01*
X-1028540Y535955D01*
X-1031080D01*
Y533415D01*
X-1028540Y530875D01*
X-1031080Y528335D01*
Y525795D01*
Y532795D02*
X-1028540D01*
X-1026000Y535335D01*
X-1023460Y532795D01*
X-1020920D01*
Y535335D01*
X-1023460Y537875D01*
X-1020920Y540415D01*
Y542955D01*
X-1023460D01*
X-1026000Y540415D01*
X-1028540Y542955D01*
X-1031080D01*
Y540415D01*
X-1028540Y537875D01*
X-1031080Y535335D01*
Y532795D01*
X-1038080Y511795D02*
X-1035540D01*
X-1033000Y514335D01*
X-1030460Y511795D01*
X-1027920D01*
Y514335D01*
X-1030460Y516875D01*
X-1027920Y519415D01*
Y521955D01*
X-1030460D01*
X-1033000Y519415D01*
X-1035540Y521955D01*
X-1038080D01*
Y519415D01*
X-1035540Y516875D01*
X-1038080Y514335D01*
Y511795D01*
Y518795D02*
X-1035540D01*
X-1033000Y521335D01*
X-1030460Y518795D01*
X-1027920D01*
Y521335D01*
X-1030460Y523875D01*
X-1027920Y526415D01*
Y528955D01*
X-1030460D01*
X-1033000Y526415D01*
X-1035540Y528955D01*
X-1038080D01*
Y526415D01*
X-1035540Y523875D01*
X-1038080Y521335D01*
Y518795D01*
Y525795D02*
X-1035540D01*
X-1033000Y528335D01*
X-1030460Y525795D01*
X-1027920D01*
Y528335D01*
X-1030460Y530875D01*
X-1027920Y533415D01*
Y535955D01*
X-1030460D01*
X-1033000Y533415D01*
X-1035540Y535955D01*
X-1038080D01*
Y533415D01*
X-1035540Y530875D01*
X-1038080Y528335D01*
Y525795D01*
Y532795D02*
X-1035540D01*
X-1033000Y535335D01*
X-1030460Y532795D01*
X-1027920D01*
Y535335D01*
X-1030460Y537875D01*
X-1027920Y540415D01*
Y542955D01*
X-1030460D01*
X-1033000Y540415D01*
X-1035540Y542955D01*
X-1038080D01*
Y540415D01*
X-1035540Y537875D01*
X-1038080Y535335D01*
Y532795D01*
X-1045080D02*
X-1042540D01*
X-1040000Y535335D01*
X-1037460Y532795D01*
X-1034920D01*
Y535335D01*
X-1037460Y537875D01*
X-1034920Y540415D01*
Y542955D01*
X-1037460D01*
X-1040000Y540415D01*
X-1042540Y542955D01*
X-1045080D01*
Y540415D01*
X-1042540Y537875D01*
X-1045080Y535335D01*
Y532795D01*
Y525795D02*
X-1042540D01*
X-1040000Y528335D01*
X-1037460Y525795D01*
X-1034920D01*
Y528335D01*
X-1037460Y530875D01*
X-1034920Y533415D01*
Y535955D01*
X-1037460D01*
X-1040000Y533415D01*
X-1042540Y535955D01*
X-1045080D01*
Y533415D01*
X-1042540Y530875D01*
X-1045080Y528335D01*
Y525795D01*
Y518795D02*
X-1042540D01*
X-1040000Y521335D01*
X-1037460Y518795D01*
X-1034920D01*
Y521335D01*
X-1037460Y523875D01*
X-1034920Y526415D01*
Y528955D01*
X-1037460D01*
X-1040000Y526415D01*
X-1042540Y528955D01*
X-1045080D01*
Y526415D01*
X-1042540Y523875D01*
X-1045080Y521335D01*
Y518795D01*
Y511795D02*
X-1042540D01*
X-1040000Y514335D01*
X-1037460Y511795D01*
X-1034920D01*
Y514335D01*
X-1037460Y516875D01*
X-1034920Y519415D01*
Y521955D01*
X-1037460D01*
X-1040000Y519415D01*
X-1042540Y521955D01*
X-1045080D01*
Y519415D01*
X-1042540Y516875D01*
X-1045080Y514335D01*
Y511795D01*
X-1052080Y518795D02*
X-1049540D01*
X-1047000Y521335D01*
X-1044460Y518795D01*
X-1041920D01*
Y521335D01*
X-1044460Y523875D01*
X-1041920Y526415D01*
Y528955D01*
X-1044460D01*
X-1047000Y526415D01*
X-1049540Y528955D01*
X-1052080D01*
Y526415D01*
X-1049540Y523875D01*
X-1052080Y521335D01*
Y518795D01*
Y525795D02*
X-1049540D01*
X-1047000Y528335D01*
X-1044460Y525795D01*
X-1041920D01*
Y528335D01*
X-1044460Y530875D01*
X-1041920Y533415D01*
Y535955D01*
X-1044460D01*
X-1047000Y533415D01*
X-1049540Y535955D01*
X-1052080D01*
Y533415D01*
X-1049540Y530875D01*
X-1052080Y528335D01*
Y525795D01*
Y532795D02*
X-1049540D01*
X-1047000Y535335D01*
X-1044460Y532795D01*
X-1041920D01*
Y535335D01*
X-1044460Y537875D01*
X-1041920Y540415D01*
Y542955D01*
X-1044460D01*
X-1047000Y540415D01*
X-1049540Y542955D01*
X-1052080D01*
Y540415D01*
X-1049540Y537875D01*
X-1052080Y535335D01*
Y532795D01*
Y511795D02*
X-1049540D01*
X-1047000Y514335D01*
X-1044460Y511795D01*
X-1041920D01*
Y514335D01*
X-1044460Y516875D01*
X-1041920Y519415D01*
Y521955D01*
X-1044460D01*
X-1047000Y519415D01*
X-1049540Y521955D01*
X-1052080D01*
Y519415D01*
X-1049540Y516875D01*
X-1052080Y514335D01*
Y511795D01*
X-1031080Y539795D02*
X-1028540D01*
X-1026000Y542335D01*
X-1023460Y539795D01*
X-1020920D01*
Y542335D01*
X-1023460Y544875D01*
X-1020920Y547415D01*
Y549955D01*
X-1023460D01*
X-1026000Y547415D01*
X-1028540Y549955D01*
X-1031080D01*
Y547415D01*
X-1028540Y544875D01*
X-1031080Y542335D01*
Y539795D01*
X-1038080D02*
X-1035540D01*
X-1033000Y542335D01*
X-1030460Y539795D01*
X-1027920D01*
Y542335D01*
X-1030460Y544875D01*
X-1027920Y547415D01*
Y549955D01*
X-1030460D01*
X-1033000Y547415D01*
X-1035540Y549955D01*
X-1038080D01*
Y547415D01*
X-1035540Y544875D01*
X-1038080Y542335D01*
Y539795D01*
X-1045080D02*
X-1042540D01*
X-1040000Y542335D01*
X-1037460Y539795D01*
X-1034920D01*
Y542335D01*
X-1037460Y544875D01*
X-1034920Y547415D01*
Y549955D01*
X-1037460D01*
X-1040000Y547415D01*
X-1042540Y549955D01*
X-1045080D01*
Y547415D01*
X-1042540Y544875D01*
X-1045080Y542335D01*
Y539795D01*
X-1052080D02*
X-1049540D01*
X-1047000Y542335D01*
X-1044460Y539795D01*
X-1041920D01*
Y542335D01*
X-1044460Y544875D01*
X-1041920Y547415D01*
Y549955D01*
X-1044460D01*
X-1047000Y547415D01*
X-1049540Y549955D01*
X-1052080D01*
Y547415D01*
X-1049540Y544875D01*
X-1052080Y542335D01*
Y539795D01*
X-1059080D02*
X-1056540D01*
X-1054000Y542335D01*
X-1051460Y539795D01*
X-1048920D01*
Y542335D01*
X-1051460Y544875D01*
X-1048920Y547415D01*
Y549955D01*
X-1051460D01*
X-1054000Y547415D01*
X-1056540Y549955D01*
X-1059080D01*
Y547415D01*
X-1056540Y544875D01*
X-1059080Y542335D01*
Y539795D01*
Y532795D02*
X-1056540D01*
X-1054000Y535335D01*
X-1051460Y532795D01*
X-1048920D01*
Y535335D01*
X-1051460Y537875D01*
X-1048920Y540415D01*
Y542955D01*
X-1051460D01*
X-1054000Y540415D01*
X-1056540Y542955D01*
X-1059080D01*
Y540415D01*
X-1056540Y537875D01*
X-1059080Y535335D01*
Y532795D01*
Y525795D02*
X-1056540D01*
X-1054000Y528335D01*
X-1051460Y525795D01*
X-1048920D01*
Y528335D01*
X-1051460Y530875D01*
X-1048920Y533415D01*
Y535955D01*
X-1051460D01*
X-1054000Y533415D01*
X-1056540Y535955D01*
X-1059080D01*
Y533415D01*
X-1056540Y530875D01*
X-1059080Y528335D01*
Y525795D01*
Y518795D02*
X-1056540D01*
X-1054000Y521335D01*
X-1051460Y518795D01*
X-1048920D01*
Y521335D01*
X-1051460Y523875D01*
X-1048920Y526415D01*
Y528955D01*
X-1051460D01*
X-1054000Y526415D01*
X-1056540Y528955D01*
X-1059080D01*
Y526415D01*
X-1056540Y523875D01*
X-1059080Y521335D01*
Y518795D01*
Y511795D02*
X-1056540D01*
X-1054000Y514335D01*
X-1051460Y511795D01*
X-1048920D01*
Y514335D01*
X-1051460Y516875D01*
X-1048920Y519415D01*
Y521955D01*
X-1051460D01*
X-1054000Y519415D01*
X-1056540Y521955D01*
X-1059080D01*
Y519415D01*
X-1056540Y516875D01*
X-1059080Y514335D01*
Y511795D01*
X-1175080Y511795D02*
X-1172540D01*
X-1170000Y514335D01*
X-1167460Y511795D01*
X-1164920D01*
Y514335D01*
X-1167460Y516875D01*
X-1164920Y519415D01*
Y521955D01*
X-1167460D01*
X-1170000Y519415D01*
X-1172540Y521955D01*
X-1175080D01*
Y519415D01*
X-1172540Y516875D01*
X-1175080Y514335D01*
Y511795D01*
Y518795D02*
X-1172540D01*
X-1170000Y521335D01*
X-1167460Y518795D01*
X-1164920D01*
Y521335D01*
X-1167460Y523875D01*
X-1164920Y526415D01*
Y528955D01*
X-1167460D01*
X-1170000Y526415D01*
X-1172540Y528955D01*
X-1175080D01*
Y526415D01*
X-1172540Y523875D01*
X-1175080Y521335D01*
Y518795D01*
Y525795D02*
X-1172540D01*
X-1170000Y528335D01*
X-1167460Y525795D01*
X-1164920D01*
Y528335D01*
X-1167460Y530875D01*
X-1164920Y533415D01*
Y535955D01*
X-1167460D01*
X-1170000Y533415D01*
X-1172540Y535955D01*
X-1175080D01*
Y533415D01*
X-1172540Y530875D01*
X-1175080Y528335D01*
Y525795D01*
Y532795D02*
X-1172540D01*
X-1170000Y535335D01*
X-1167460Y532795D01*
X-1164920D01*
Y535335D01*
X-1167460Y537875D01*
X-1164920Y540415D01*
Y542955D01*
X-1167460D01*
X-1170000Y540415D01*
X-1172540Y542955D01*
X-1175080D01*
Y540415D01*
X-1172540Y537875D01*
X-1175080Y535335D01*
Y532795D01*
X-1182080Y511795D02*
X-1179540D01*
X-1177000Y514335D01*
X-1174460Y511795D01*
X-1171920D01*
Y514335D01*
X-1174460Y516875D01*
X-1171920Y519415D01*
Y521955D01*
X-1174460D01*
X-1177000Y519415D01*
X-1179540Y521955D01*
X-1182080D01*
Y519415D01*
X-1179540Y516875D01*
X-1182080Y514335D01*
Y511795D01*
Y518795D02*
X-1179540D01*
X-1177000Y521335D01*
X-1174460Y518795D01*
X-1171920D01*
Y521335D01*
X-1174460Y523875D01*
X-1171920Y526415D01*
Y528955D01*
X-1174460D01*
X-1177000Y526415D01*
X-1179540Y528955D01*
X-1182080D01*
Y526415D01*
X-1179540Y523875D01*
X-1182080Y521335D01*
Y518795D01*
Y525795D02*
X-1179540D01*
X-1177000Y528335D01*
X-1174460Y525795D01*
X-1171920D01*
Y528335D01*
X-1174460Y530875D01*
X-1171920Y533415D01*
Y535955D01*
X-1174460D01*
X-1177000Y533415D01*
X-1179540Y535955D01*
X-1182080D01*
Y533415D01*
X-1179540Y530875D01*
X-1182080Y528335D01*
Y525795D01*
Y532795D02*
X-1179540D01*
X-1177000Y535335D01*
X-1174460Y532795D01*
X-1171920D01*
Y535335D01*
X-1174460Y537875D01*
X-1171920Y540415D01*
Y542955D01*
X-1174460D01*
X-1177000Y540415D01*
X-1179540Y542955D01*
X-1182080D01*
Y540415D01*
X-1179540Y537875D01*
X-1182080Y535335D01*
Y532795D01*
X-1189080D02*
X-1186540D01*
X-1184000Y535335D01*
X-1181460Y532795D01*
X-1178920D01*
Y535335D01*
X-1181460Y537875D01*
X-1178920Y540415D01*
Y542955D01*
X-1181460D01*
X-1184000Y540415D01*
X-1186540Y542955D01*
X-1189080D01*
Y540415D01*
X-1186540Y537875D01*
X-1189080Y535335D01*
Y532795D01*
Y525795D02*
X-1186540D01*
X-1184000Y528335D01*
X-1181460Y525795D01*
X-1178920D01*
Y528335D01*
X-1181460Y530875D01*
X-1178920Y533415D01*
Y535955D01*
X-1181460D01*
X-1184000Y533415D01*
X-1186540Y535955D01*
X-1189080D01*
Y533415D01*
X-1186540Y530875D01*
X-1189080Y528335D01*
Y525795D01*
Y518795D02*
X-1186540D01*
X-1184000Y521335D01*
X-1181460Y518795D01*
X-1178920D01*
Y521335D01*
X-1181460Y523875D01*
X-1178920Y526415D01*
Y528955D01*
X-1181460D01*
X-1184000Y526415D01*
X-1186540Y528955D01*
X-1189080D01*
Y526415D01*
X-1186540Y523875D01*
X-1189080Y521335D01*
Y518795D01*
Y511795D02*
X-1186540D01*
X-1184000Y514335D01*
X-1181460Y511795D01*
X-1178920D01*
Y514335D01*
X-1181460Y516875D01*
X-1178920Y519415D01*
Y521955D01*
X-1181460D01*
X-1184000Y519415D01*
X-1186540Y521955D01*
X-1189080D01*
Y519415D01*
X-1186540Y516875D01*
X-1189080Y514335D01*
Y511795D01*
X-1196080Y518795D02*
X-1193540D01*
X-1191000Y521335D01*
X-1188460Y518795D01*
X-1185920D01*
Y521335D01*
X-1188460Y523875D01*
X-1185920Y526415D01*
Y528955D01*
X-1188460D01*
X-1191000Y526415D01*
X-1193540Y528955D01*
X-1196080D01*
Y526415D01*
X-1193540Y523875D01*
X-1196080Y521335D01*
Y518795D01*
Y525795D02*
X-1193540D01*
X-1191000Y528335D01*
X-1188460Y525795D01*
X-1185920D01*
Y528335D01*
X-1188460Y530875D01*
X-1185920Y533415D01*
Y535955D01*
X-1188460D01*
X-1191000Y533415D01*
X-1193540Y535955D01*
X-1196080D01*
Y533415D01*
X-1193540Y530875D01*
X-1196080Y528335D01*
Y525795D01*
Y532795D02*
X-1193540D01*
X-1191000Y535335D01*
X-1188460Y532795D01*
X-1185920D01*
Y535335D01*
X-1188460Y537875D01*
X-1185920Y540415D01*
Y542955D01*
X-1188460D01*
X-1191000Y540415D01*
X-1193540Y542955D01*
X-1196080D01*
Y540415D01*
X-1193540Y537875D01*
X-1196080Y535335D01*
Y532795D01*
Y511795D02*
X-1193540D01*
X-1191000Y514335D01*
X-1188460Y511795D01*
X-1185920D01*
Y514335D01*
X-1188460Y516875D01*
X-1185920Y519415D01*
Y521955D01*
X-1188460D01*
X-1191000Y519415D01*
X-1193540Y521955D01*
X-1196080D01*
Y519415D01*
X-1193540Y516875D01*
X-1196080Y514335D01*
Y511795D01*
X-1175080Y539795D02*
X-1172540D01*
X-1170000Y542335D01*
X-1167460Y539795D01*
X-1164920D01*
Y542335D01*
X-1167460Y544875D01*
X-1164920Y547415D01*
Y549955D01*
X-1167460D01*
X-1170000Y547415D01*
X-1172540Y549955D01*
X-1175080D01*
Y547415D01*
X-1172540Y544875D01*
X-1175080Y542335D01*
Y539795D01*
X-1182080D02*
X-1179540D01*
X-1177000Y542335D01*
X-1174460Y539795D01*
X-1171920D01*
Y542335D01*
X-1174460Y544875D01*
X-1171920Y547415D01*
Y549955D01*
X-1174460D01*
X-1177000Y547415D01*
X-1179540Y549955D01*
X-1182080D01*
Y547415D01*
X-1179540Y544875D01*
X-1182080Y542335D01*
Y539795D01*
X-1189080D02*
X-1186540D01*
X-1184000Y542335D01*
X-1181460Y539795D01*
X-1178920D01*
Y542335D01*
X-1181460Y544875D01*
X-1178920Y547415D01*
Y549955D01*
X-1181460D01*
X-1184000Y547415D01*
X-1186540Y549955D01*
X-1189080D01*
Y547415D01*
X-1186540Y544875D01*
X-1189080Y542335D01*
Y539795D01*
X-1196080D02*
X-1193540D01*
X-1191000Y542335D01*
X-1188460Y539795D01*
X-1185920D01*
Y542335D01*
X-1188460Y544875D01*
X-1185920Y547415D01*
Y549955D01*
X-1188460D01*
X-1191000Y547415D01*
X-1193540Y549955D01*
X-1196080D01*
Y547415D01*
X-1193540Y544875D01*
X-1196080Y542335D01*
Y539795D01*
X-1203080D02*
X-1200540D01*
X-1198000Y542335D01*
X-1195460Y539795D01*
X-1192920D01*
Y542335D01*
X-1195460Y544875D01*
X-1192920Y547415D01*
Y549955D01*
X-1195460D01*
X-1198000Y547415D01*
X-1200540Y549955D01*
X-1203080D01*
Y547415D01*
X-1200540Y544875D01*
X-1203080Y542335D01*
Y539795D01*
Y532795D02*
X-1200540D01*
X-1198000Y535335D01*
X-1195460Y532795D01*
X-1192920D01*
Y535335D01*
X-1195460Y537875D01*
X-1192920Y540415D01*
Y542955D01*
X-1195460D01*
X-1198000Y540415D01*
X-1200540Y542955D01*
X-1203080D01*
Y540415D01*
X-1200540Y537875D01*
X-1203080Y535335D01*
Y532795D01*
Y525795D02*
X-1200540D01*
X-1198000Y528335D01*
X-1195460Y525795D01*
X-1192920D01*
Y528335D01*
X-1195460Y530875D01*
X-1192920Y533415D01*
Y535955D01*
X-1195460D01*
X-1198000Y533415D01*
X-1200540Y535955D01*
X-1203080D01*
Y533415D01*
X-1200540Y530875D01*
X-1203080Y528335D01*
Y525795D01*
Y518795D02*
X-1200540D01*
X-1198000Y521335D01*
X-1195460Y518795D01*
X-1192920D01*
Y521335D01*
X-1195460Y523875D01*
X-1192920Y526415D01*
Y528955D01*
X-1195460D01*
X-1198000Y526415D01*
X-1200540Y528955D01*
X-1203080D01*
Y526415D01*
X-1200540Y523875D01*
X-1203080Y521335D01*
Y518795D01*
Y511795D02*
X-1200540D01*
X-1198000Y514335D01*
X-1195460Y511795D01*
X-1192920D01*
Y514335D01*
X-1195460Y516875D01*
X-1192920Y519415D01*
Y521955D01*
X-1195460D01*
X-1198000Y519415D01*
X-1200540Y521955D01*
X-1203080D01*
Y519415D01*
X-1200540Y516875D01*
X-1203080Y514335D01*
Y511795D01*
D124*
X-14920Y108770D02*
G03*
X-14920Y108770I-5080J0D01*
G01*
X103580Y664200D02*
G03*
X103580Y664200I-5080J0D01*
G01*
X178580D02*
G03*
X178580Y664200I-5080J0D01*
G01*
X256580Y409200D02*
G03*
X256580Y409200I-5080J0D01*
G01*
Y368700D02*
G03*
X256580Y368700I-5080J0D01*
G01*
X283580Y291200D02*
G03*
X283580Y291200I-5080J0D01*
G01*
X103580Y194200D02*
G03*
X103580Y194200I-5080J0D01*
G01*
X178580D02*
G03*
X178580Y194200I-5080J0D01*
G01*
X256580Y-60800D02*
G03*
X256580Y-60800I-5080J0D01*
G01*
Y-101300D02*
G03*
X256580Y-101300I-5080J0D01*
G01*
X283580Y-178800D02*
G03*
X283580Y-178800I-5080J0D01*
G01*
X103580Y-275800D02*
G03*
X103580Y-275800I-5080J0D01*
G01*
X178580D02*
G03*
X178580Y-275800I-5080J0D01*
G01*
X283580Y-648800D02*
G03*
X283580Y-648800I-5080J0D01*
G01*
X256580Y-530800D02*
G03*
X256580Y-530800I-5080J0D01*
G01*
Y-571300D02*
G03*
X256580Y-571300I-5080J0D01*
G01*
X-226420Y632700D02*
G03*
X-226420Y632700I-5080J0D01*
G01*
Y-39800D02*
G03*
X-226420Y-39800I-5080J0D01*
G01*
Y41200D02*
G03*
X-226420Y41200I-5080J0D01*
G01*
Y470700D02*
G03*
X-226420Y470700I-5080J0D01*
G01*
Y511200D02*
G03*
X-226420Y511200I-5080J0D01*
G01*
Y430200D02*
G03*
X-226420Y430200I-5080J0D01*
G01*
Y308700D02*
G03*
X-226420Y308700I-5080J0D01*
G01*
Y162700D02*
G03*
X-226420Y162700I-5080J0D01*
G01*
Y-428800D02*
G03*
X-226420Y-428800I-5080J0D01*
G01*
Y-469300D02*
G03*
X-226420Y-469300I-5080J0D01*
G01*
Y700D02*
G03*
X-226420Y700I-5080J0D01*
G01*
Y-161300D02*
G03*
X-226420Y-161300I-5080J0D01*
G01*
Y-631300D02*
G03*
X-226420Y-631300I-5080J0D01*
G01*
Y-307300D02*
G03*
X-226420Y-307300I-5080J0D01*
G01*
Y-509800D02*
G03*
X-226420Y-509800I-5080J0D01*
G01*
D125*
X-16952Y108770D02*
G03*
X-16952Y108770I-3048J0D01*
G01*
M02*
