G04*
G04 #@! TF.GenerationSoftware,Altium Limited,Altium Designer,24.9.1 (31)*
G04*
G04 Layer_Color=65535*
%FSLAX44Y44*%
%MOMM*%
G71*
G04*
G04 #@! TF.SameCoordinates,25B5EA7A-0A89-4A72-9C9E-8463CCD4450D*
G04*
G04*
G04 #@! TF.FilePolarity,Positive*
G04*
G01*
G75*
%ADD10C,0.2500*%
%ADD11C,0.6000*%
%ADD12C,0.2000*%
%ADD13C,0.2540*%
%ADD14C,0.1000*%
%ADD15C,0.5000*%
%ADD16C,0.0800*%
D10*
X492650Y-256900D02*
G03*
X492650Y-256900I-1250J0D01*
G01*
X58250Y-570550D02*
G03*
X58250Y-570550I-1250J0D01*
G01*
X-42250Y-266000D02*
G03*
X-42250Y-266000I-1250J0D01*
G01*
X-187750Y285500D02*
G03*
X-187750Y285500I-1250J0D01*
G01*
X-166750Y296950D02*
G03*
X-166750Y296950I-1250J0D01*
G01*
X-9250Y244750D02*
G03*
X-9250Y244750I-1250J0D01*
G01*
X-179500Y760800D02*
G03*
X-179500Y760800I-1250J0D01*
G01*
X-10750Y-437500D02*
G03*
X-10750Y-437500I-1250J0D01*
G01*
X-11750Y-739000D02*
G03*
X-11750Y-739000I-1250J0D01*
G01*
X29250Y669000D02*
G03*
X29250Y669000I-1250J0D01*
G01*
Y199000D02*
G03*
X29250Y199000I-1250J0D01*
G01*
Y-270000D02*
G03*
X29250Y-270000I-1250J0D01*
G01*
X-1071250Y-208000D02*
G03*
X-1071250Y-208000I-1250J0D01*
G01*
X-725250D02*
G03*
X-725250Y-208000I-1250J0D01*
G01*
X-1071250Y227000D02*
G03*
X-1071250Y227000I-1250J0D01*
G01*
X-725250D02*
G03*
X-725250Y227000I-1250J0D01*
G01*
X-1071250Y662000D02*
G03*
X-1071250Y662000I-1250J0D01*
G01*
X-725250D02*
G03*
X-725250Y662000I-1250J0D01*
G01*
D11*
X35000Y-559500D02*
G03*
X35000Y-559500I-3000J0D01*
G01*
D12*
X-273000Y250000D02*
G03*
X-273000Y250000I-1000J0D01*
G01*
X-14500Y-245500D02*
G03*
X-14500Y-245500I-1000J0D01*
G01*
X36560Y-97790D02*
G03*
X36560Y-97790I-1000J0D01*
G01*
X516400Y-240400D02*
X524400D01*
Y-243400D02*
Y-240400D01*
X494400D02*
X502400D01*
X494400Y-243400D02*
Y-240400D01*
X500750Y-220750D02*
X501250D01*
X500750Y-211250D02*
X501250D01*
X42000Y-569500D02*
Y-516500D01*
X4000Y-569500D02*
Y-516500D01*
Y-569500D02*
X42000D01*
X4000Y-516500D02*
X42000D01*
X-25000Y-254500D02*
X-22000D01*
Y-258500D02*
Y-254500D01*
X-40000D02*
X-37000D01*
X-40000Y-258500D02*
Y-254500D01*
X-177500Y264000D02*
Y267000D01*
X-181500Y264000D02*
X-177500D01*
Y279000D02*
Y282000D01*
X-181500D02*
X-177500D01*
X-149000Y279050D02*
Y288950D01*
X-146750Y264250D02*
X-103250D01*
X-101000Y279050D02*
Y288950D01*
X-146750Y303750D02*
X-103250D01*
X-297000Y564500D02*
X-270000D01*
X-297000Y589500D02*
X-270000D01*
X-297000Y493500D02*
X-270000D01*
X-297000Y468500D02*
X-270000D01*
X-297000Y525500D02*
X-270000D01*
X-297000Y500500D02*
X-270000D01*
X-297000Y532500D02*
X-270000D01*
X-297000Y557500D02*
X-270000D01*
X-213000Y537500D02*
Y554500D01*
X-225000Y537500D02*
Y554500D01*
X-209750Y542000D02*
Y550000D01*
X-196250Y542000D02*
Y550000D01*
X-209750Y542000D02*
X-196250D01*
X-209750Y550000D02*
X-196250D01*
X-200500Y497000D02*
X-183500D01*
X-200500Y509000D02*
X-183500D01*
X-247250Y383500D02*
X-239250D01*
X-247250Y408500D02*
X-239250D01*
X-191750Y380000D02*
Y388000D01*
X-216750Y380000D02*
Y388000D01*
X-247250Y376500D02*
X-239250D01*
X-247250Y351500D02*
X-239250D01*
X-297000Y94500D02*
X-270000D01*
X-297000Y119500D02*
X-270000D01*
X-297000Y23500D02*
X-270000D01*
X-297000Y-1500D02*
X-270000D01*
X-297000Y55500D02*
X-270000D01*
X-297000Y30500D02*
X-270000D01*
X-297000Y62500D02*
X-270000D01*
X-297000Y87500D02*
X-270000D01*
X-225000Y67500D02*
Y84500D01*
X-213000Y67500D02*
Y84500D01*
X-209750Y72000D02*
Y80000D01*
X-196250Y72000D02*
Y80000D01*
X-209750Y72000D02*
X-196250D01*
X-209750Y80000D02*
X-196250D01*
X-200500Y39000D02*
X-183500D01*
X-200500Y27000D02*
X-183500D01*
X-247250Y-86500D02*
X-239250D01*
X-247250Y-61500D02*
X-239250D01*
X-191750Y-90000D02*
Y-82000D01*
X-216750Y-90000D02*
Y-82000D01*
X-247250Y-93500D02*
X-239250D01*
X-247250Y-118500D02*
X-239250D01*
X-750Y242000D02*
X9250D01*
X-750Y211000D02*
X9250D01*
X-750D02*
Y242000D01*
X9250Y211000D02*
Y242000D01*
X-153250Y768850D02*
X-83250D01*
Y663850D02*
Y768850D01*
X-153250Y663850D02*
X-83250D01*
X-153250D02*
Y768850D01*
X-44500Y-466000D02*
Y-450000D01*
X-13500Y-466000D02*
Y-450000D01*
X-44500Y-466000D02*
X-13500D01*
X-44500Y-450000D02*
X-13500D01*
X-33500Y-736500D02*
X-16500D01*
X-33500Y-705750D02*
Y-705500D01*
Y-736500D02*
Y-736250D01*
Y-705500D02*
X-16500D01*
Y-705750D02*
Y-705500D01*
Y-736500D02*
Y-736250D01*
X32500Y666500D02*
X49500D01*
Y635500D02*
Y635750D01*
Y666250D02*
Y666500D01*
X32500Y635500D02*
X49500D01*
X32500D02*
Y635750D01*
Y666250D02*
Y666500D01*
Y196500D02*
X49500D01*
Y165500D02*
Y165750D01*
Y196250D02*
Y196500D01*
X32500Y165500D02*
X49500D01*
X32500D02*
Y165750D01*
Y196250D02*
Y196500D01*
Y-273750D02*
Y-273500D01*
Y-304500D02*
Y-304250D01*
Y-304500D02*
X49500D01*
Y-273750D02*
Y-273500D01*
Y-304500D02*
Y-304250D01*
X32500Y-273500D02*
X49500D01*
X-297000Y-374500D02*
X-270000D01*
X-297000Y-349500D02*
X-270000D01*
X293500Y341500D02*
X320500D01*
X293500Y316500D02*
X320500D01*
X293500Y-127500D02*
X320500D01*
X293500Y-152500D02*
X320500D01*
X293500Y-598500D02*
X320500D01*
X293500Y-623500D02*
X320500D01*
X-297000Y-445500D02*
X-270000D01*
X-297000Y-470500D02*
X-270000D01*
X293500Y412500D02*
X320500D01*
X293500Y437500D02*
X320500D01*
X293500Y-56500D02*
X320500D01*
X293500Y-31500D02*
X320500D01*
X293500Y-527500D02*
X320500D01*
X293500Y-502500D02*
X320500D01*
X-297000Y-413500D02*
X-270000D01*
X-297000Y-438500D02*
X-270000D01*
X293500Y380500D02*
X320500D01*
X293500Y405500D02*
X320500D01*
X293500Y-88500D02*
X320500D01*
X293500Y-63500D02*
X320500D01*
X293500Y-559500D02*
X320500D01*
X293500Y-534500D02*
X320500D01*
X-297000Y-406500D02*
X-270000D01*
X-297000Y-381500D02*
X-270000D01*
X293500Y373500D02*
X320500D01*
X293500Y348500D02*
X320500D01*
X293500Y-95500D02*
X320500D01*
X293500Y-120500D02*
X320500D01*
X293500Y-566500D02*
X320500D01*
X293500Y-591500D02*
X320500D01*
X-30750Y-752500D02*
Y-741500D01*
X-19267Y-752447D02*
Y-741447D01*
X-213000Y-401500D02*
Y-384500D01*
X-225000Y-401500D02*
Y-384500D01*
X218000Y325500D02*
Y342500D01*
X230000Y325500D02*
Y342500D01*
Y-143500D02*
Y-126500D01*
X218000Y-143500D02*
Y-126500D01*
X230000Y-614500D02*
Y-597500D01*
X218000Y-614500D02*
Y-597500D01*
X-209750Y-397000D02*
Y-389000D01*
X-196250Y-397000D02*
Y-389000D01*
X-209750Y-397000D02*
X-196250D01*
X-209750Y-389000D02*
X-196250D01*
X214750Y330000D02*
Y338000D01*
X201250Y330000D02*
Y338000D01*
X214750D01*
X201250Y330000D02*
X214750D01*
Y-139000D02*
Y-131000D01*
X201250Y-139000D02*
Y-131000D01*
X214750D01*
X201250Y-139000D02*
X214750D01*
Y-610000D02*
Y-602000D01*
X201250Y-610000D02*
Y-602000D01*
X214750D01*
X201250Y-610000D02*
X214750D01*
X-200500Y-442000D02*
X-183500D01*
X-200500Y-430000D02*
X-183500D01*
X188500Y383000D02*
X205500D01*
X188500Y371000D02*
X205500D01*
X188500Y-98000D02*
X205500D01*
X188500Y-86000D02*
X205500D01*
X188500Y-569000D02*
X205500D01*
X188500Y-557000D02*
X205500D01*
X245750Y505998D02*
X253750D01*
X245750Y480998D02*
X253750D01*
X244750Y36998D02*
X252750D01*
X244750Y11998D02*
X252750D01*
X-247250Y-555500D02*
X-239250D01*
X-247250Y-530500D02*
X-239250D01*
X244750Y-434002D02*
X252750D01*
X244750Y-459002D02*
X252750D01*
X-65000Y284500D02*
X-57000D01*
X-65000Y309500D02*
X-57000D01*
X63000Y604500D02*
X71000D01*
X63000Y579500D02*
X71000D01*
X-65000Y-185500D02*
X-57000D01*
X-65000Y-160500D02*
X-57000D01*
X62000Y135500D02*
X70000D01*
X62000Y110500D02*
X70000D01*
X-65000Y-654500D02*
X-57000D01*
X-65000Y-629500D02*
X-57000D01*
X62000Y-335500D02*
X70000D01*
X62000Y-360500D02*
X70000D01*
X198250Y501498D02*
Y509498D01*
X223250Y501498D02*
Y509498D01*
X197250Y32498D02*
Y40498D01*
X222250Y32498D02*
Y40498D01*
X-191750Y-559000D02*
Y-551000D01*
X-216750Y-559000D02*
Y-551000D01*
X197250Y-438502D02*
Y-430502D01*
X222250Y-438502D02*
Y-430502D01*
X245750Y512998D02*
X253750D01*
X245750Y537998D02*
X253750D01*
X244750Y43998D02*
X252750D01*
X244750Y68998D02*
X252750D01*
X-247250Y-562500D02*
X-239250D01*
X-247250Y-587500D02*
X-239250D01*
X244750Y-427002D02*
X252750D01*
X244750Y-402002D02*
X252750D01*
X-1149500Y-731500D02*
Y-704500D01*
X-1124500Y-731500D02*
Y-704500D01*
X-1113500Y-731500D02*
Y-704500D01*
X-1088500Y-731500D02*
Y-704500D01*
X-933500Y-731500D02*
Y-704500D01*
X-908500Y-731500D02*
Y-704500D01*
X-944500Y-731500D02*
Y-704500D01*
X-969500Y-731500D02*
Y-704500D01*
X-1005500Y-731500D02*
Y-704500D01*
X-980500Y-731500D02*
Y-704500D01*
X-1016500Y-731500D02*
Y-704500D01*
X-1041500Y-731500D02*
Y-704500D01*
X-1077500Y-731500D02*
Y-704500D01*
X-1052500Y-731500D02*
Y-704500D01*
X-861500Y-731500D02*
Y-704500D01*
X-836500Y-731500D02*
Y-704500D01*
X-872500Y-731500D02*
Y-704500D01*
X-897500Y-731500D02*
Y-704500D01*
X-735900Y-685250D02*
Y-684750D01*
Y-751250D02*
Y-750750D01*
X-798100Y-751250D02*
X-735900D01*
X-798100D02*
Y-684750D01*
X-735900D01*
X-682500Y704500D02*
Y731500D01*
X-707500Y704500D02*
Y731500D01*
X-743500Y704500D02*
Y731500D01*
X-718500Y704500D02*
Y731500D01*
X-754500Y704500D02*
Y731500D01*
X-779500Y704500D02*
Y731500D01*
X-815500Y704500D02*
Y731500D01*
X-790500Y704500D02*
Y731500D01*
X-826500Y704500D02*
Y731500D01*
X-851500Y704500D02*
Y731500D01*
X-887500Y704500D02*
Y731500D01*
X-862500Y704500D02*
Y731500D01*
X-898500Y704500D02*
Y731500D01*
X-923500Y704500D02*
Y731500D01*
X-1004000Y-644000D02*
Y-214000D01*
X-1344000Y-644000D02*
X-1004000D01*
X-1344000D02*
Y-214000D01*
X-1004000D01*
X-658000Y-644000D02*
Y-214000D01*
X-998000Y-644000D02*
X-658000D01*
X-998000D02*
Y-214000D01*
X-658000D01*
X-1004000Y-209000D02*
Y221000D01*
X-1344000Y-209000D02*
X-1004000D01*
X-1344000D02*
Y221000D01*
X-1004000D01*
X-658000Y-209000D02*
Y221000D01*
X-998000Y-209000D02*
X-658000D01*
X-998000D02*
Y221000D01*
X-658000D01*
X-1004000Y226000D02*
Y656000D01*
X-1344000Y226000D02*
X-1004000D01*
X-1344000D02*
Y656000D01*
X-1004000D01*
X-658000Y226000D02*
Y656000D01*
X-998000Y226000D02*
X-658000D01*
X-998000D02*
Y656000D01*
X-658000D01*
D13*
X-62000Y200000D02*
G03*
X-62000Y200000I-1000J0D01*
G01*
X-554000Y-748000D02*
G03*
X-554000Y-748000I-1000J0D01*
G01*
D14*
X-218500Y527000D02*
G03*
X-218500Y527000I-500J0D01*
G01*
X-209150Y534850D02*
G03*
X-209150Y534850I-500J0D01*
G01*
X-210500Y503000D02*
G03*
X-210500Y503000I-500J0D01*
G01*
X-218500Y57000D02*
G03*
X-218500Y57000I-500J0D01*
G01*
X-209150Y64850D02*
G03*
X-209150Y64850I-500J0D01*
G01*
X-210500Y33000D02*
G03*
X-210500Y33000I-500J0D01*
G01*
X-9500Y-373000D02*
G03*
X-9500Y-373000I-500J0D01*
G01*
X-218500Y-412000D02*
G03*
X-218500Y-412000I-500J0D01*
G01*
X224500Y353000D02*
G03*
X224500Y353000I-500J0D01*
G01*
Y-116000D02*
G03*
X224500Y-116000I-500J0D01*
G01*
Y-587000D02*
G03*
X224500Y-587000I-500J0D01*
G01*
X-209500Y-404000D02*
G03*
X-209500Y-404000I-500J0D01*
G01*
X215500Y345000D02*
G03*
X215500Y345000I-500J0D01*
G01*
Y-124000D02*
G03*
X215500Y-124000I-500J0D01*
G01*
Y-595000D02*
G03*
X215500Y-595000I-500J0D01*
G01*
X-210500Y-436000D02*
G03*
X-210500Y-436000I-500J0D01*
G01*
X216500Y377000D02*
G03*
X216500Y377000I-500J0D01*
G01*
Y-92000D02*
G03*
X216500Y-92000I-500J0D01*
G01*
Y-563000D02*
G03*
X216500Y-563000I-500J0D01*
G01*
D15*
X-142500Y760600D02*
G03*
X-142500Y760600I-2500J0D01*
G01*
X-67250Y318000D02*
G03*
X-67250Y318000I-1000J0D01*
G01*
X75750Y571498D02*
G03*
X75750Y571498I-1000J0D01*
G01*
X-67250Y-152000D02*
G03*
X-67250Y-152000I-1000J0D01*
G01*
X74750Y102498D02*
G03*
X74750Y102498I-1000J0D01*
G01*
X-67250Y-621000D02*
G03*
X-67250Y-621000I-1000J0D01*
G01*
X74750Y-368502D02*
G03*
X74750Y-368502I-1000J0D01*
G01*
X-67500Y527752D02*
G03*
X-67500Y527752I-1000J0D01*
G01*
Y57752D02*
G03*
X-67500Y57752I-1000J0D01*
G01*
Y-411248D02*
G03*
X-67500Y-411248I-1000J0D01*
G01*
X74500Y352248D02*
G03*
X74500Y352248I-1000J0D01*
G01*
Y-116752D02*
G03*
X74500Y-116752I-1000J0D01*
G01*
Y-587752D02*
G03*
X74500Y-587752I-1000J0D01*
G01*
D16*
X488503Y-232001D02*
Y-236999D01*
X489502Y-237999D01*
X491502D01*
X492501Y-236999D01*
Y-232001D01*
X494501Y-237999D02*
X496500D01*
X495500D01*
Y-232001D01*
X494501Y-233001D01*
X499499D02*
X500499Y-232001D01*
X502498D01*
X503498Y-233001D01*
Y-234000D01*
X502498Y-235000D01*
X501498D01*
X502498D01*
X503498Y-236000D01*
Y-236999D01*
X502498Y-237999D01*
X500499D01*
X499499Y-236999D01*
X504999Y-304997D02*
X499001D01*
Y-301998D01*
X500001Y-300999D01*
X502000D01*
X503000Y-301998D01*
Y-304997D01*
Y-302998D02*
X504999Y-300999D01*
X499001Y-295001D02*
X500001Y-297000D01*
X502000Y-298999D01*
X503999D01*
X504999Y-298000D01*
Y-296000D01*
X503999Y-295001D01*
X503000D01*
X502000Y-296000D01*
Y-298999D01*
X504999Y-289003D02*
Y-293001D01*
X501000Y-289003D01*
X500001D01*
X499001Y-290002D01*
Y-292002D01*
X500001Y-293001D01*
X495999Y-304998D02*
X490001D01*
Y-301999D01*
X491001Y-300999D01*
X493000D01*
X494000Y-301999D01*
Y-304998D01*
Y-302998D02*
X495999Y-300999D01*
X490001Y-295001D02*
X491001Y-297000D01*
X493000Y-299000D01*
X494999D01*
X495999Y-298000D01*
Y-296001D01*
X494999Y-295001D01*
X494000D01*
X493000Y-296001D01*
Y-299000D01*
X495999Y-293002D02*
Y-291002D01*
Y-292002D01*
X490001D01*
X491001Y-293002D01*
X498001Y-203001D02*
X494002D01*
Y-206000D01*
X496002D01*
X494002D01*
Y-208999D01*
X500000Y-203001D02*
Y-208999D01*
X502999D01*
X503999Y-207999D01*
Y-207000D01*
X502999Y-206000D01*
X500000D01*
X502999D01*
X503999Y-205000D01*
Y-204001D01*
X502999Y-203001D01*
X500000D01*
X505998Y-208999D02*
X507998D01*
X506998D01*
Y-203001D01*
X505998Y-204001D01*
X758001Y536999D02*
X757002Y537999D01*
X755002D01*
X754003Y536999D01*
Y533001D01*
X755002Y532001D01*
X757002D01*
X758001Y533001D01*
X763999Y537999D02*
X760001D01*
Y535000D01*
X762000Y536000D01*
X763000D01*
X763999Y535000D01*
Y533001D01*
X763000Y532001D01*
X761000D01*
X760001Y533001D01*
X765999D02*
X766998Y532001D01*
X768998D01*
X769997Y533001D01*
Y536999D01*
X768998Y537999D01*
X766998D01*
X765999Y536999D01*
Y536000D01*
X766998Y535000D01*
X769997D01*
X498001Y-161001D02*
X497002Y-160001D01*
X495002D01*
X494003Y-161001D01*
Y-164999D01*
X495002Y-165999D01*
X497002D01*
X498001Y-164999D01*
X503999Y-160001D02*
X500001D01*
Y-163000D01*
X502000Y-162000D01*
X503000D01*
X503999Y-163000D01*
Y-164999D01*
X503000Y-165999D01*
X501000D01*
X500001Y-164999D01*
X505999Y-161001D02*
X506998Y-160001D01*
X508998D01*
X509997Y-161001D01*
Y-162000D01*
X508998Y-163000D01*
X509997Y-164000D01*
Y-164999D01*
X508998Y-165999D01*
X506998D01*
X505999Y-164999D01*
Y-164000D01*
X506998Y-163000D01*
X505999Y-162000D01*
Y-161001D01*
X506998Y-163000D02*
X508998D01*
X758001Y66999D02*
X757002Y67999D01*
X755002D01*
X754003Y66999D01*
Y63001D01*
X755002Y62001D01*
X757002D01*
X758001Y63001D01*
X763999Y67999D02*
X760001D01*
Y65000D01*
X762000Y66000D01*
X763000D01*
X763999Y65000D01*
Y63001D01*
X763000Y62001D01*
X761000D01*
X760001Y63001D01*
X765999Y67999D02*
X769997D01*
Y66999D01*
X765999Y63001D01*
Y62001D01*
X498001Y-149001D02*
X497002Y-148001D01*
X495002D01*
X494003Y-149001D01*
Y-152999D01*
X495002Y-153999D01*
X497002D01*
X498001Y-152999D01*
X503999Y-148001D02*
X500001D01*
Y-151000D01*
X502000Y-150000D01*
X503000D01*
X503999Y-151000D01*
Y-152999D01*
X503000Y-153999D01*
X501000D01*
X500001Y-152999D01*
X509997Y-148001D02*
X507998Y-149001D01*
X505999Y-151000D01*
Y-152999D01*
X506998Y-153999D01*
X508998D01*
X509997Y-152999D01*
Y-152000D01*
X508998Y-151000D01*
X505999D01*
X507001Y-118999D02*
X506001Y-119998D01*
Y-121998D01*
X507001Y-122997D01*
X510999D01*
X511999Y-121998D01*
Y-119998D01*
X510999Y-118999D01*
X506001Y-113001D02*
Y-116999D01*
X509000D01*
X508000Y-115000D01*
Y-114000D01*
X509000Y-113001D01*
X510999D01*
X511999Y-114000D01*
Y-116000D01*
X510999Y-116999D01*
X506001Y-107003D02*
Y-111001D01*
X509000D01*
X508000Y-109002D01*
Y-108002D01*
X509000Y-107003D01*
X510999D01*
X511999Y-108002D01*
Y-110002D01*
X510999Y-111001D01*
X758001Y-403001D02*
X757002Y-402001D01*
X755002D01*
X754003Y-403001D01*
Y-406999D01*
X755002Y-407999D01*
X757002D01*
X758001Y-406999D01*
X763999Y-402001D02*
X760001D01*
Y-405000D01*
X762000Y-404000D01*
X763000D01*
X763999Y-405000D01*
Y-406999D01*
X763000Y-407999D01*
X761000D01*
X760001Y-406999D01*
X768998Y-407999D02*
Y-402001D01*
X765999Y-405000D01*
X769997D01*
X498001Y-137001D02*
X497002Y-136001D01*
X495002D01*
X494003Y-137001D01*
Y-140999D01*
X495002Y-141999D01*
X497002D01*
X498001Y-140999D01*
X503999Y-136001D02*
X500001D01*
Y-139000D01*
X502000Y-138000D01*
X503000D01*
X503999Y-139000D01*
Y-140999D01*
X503000Y-141999D01*
X501000D01*
X500001Y-140999D01*
X505999Y-137001D02*
X506998Y-136001D01*
X508998D01*
X509997Y-137001D01*
Y-138000D01*
X508998Y-139000D01*
X507998D01*
X508998D01*
X509997Y-140000D01*
Y-140999D01*
X508998Y-141999D01*
X506998D01*
X505999Y-140999D01*
X775001Y478001D02*
X774001Y477002D01*
Y475002D01*
X775001Y474003D01*
X778999D01*
X779999Y475002D01*
Y477002D01*
X778999Y478001D01*
X774001Y483999D02*
Y480001D01*
X777000D01*
X776000Y482000D01*
Y483000D01*
X777000Y483999D01*
X778999D01*
X779999Y483000D01*
Y481000D01*
X778999Y480001D01*
X779999Y489997D02*
Y485999D01*
X776000Y489997D01*
X775001D01*
X774001Y488998D01*
Y486998D01*
X775001Y485999D01*
Y10001D02*
X774001Y9001D01*
Y7002D01*
X775001Y6002D01*
X778999D01*
X779999Y7002D01*
Y9001D01*
X778999Y10001D01*
X774001Y15999D02*
Y12000D01*
X777000D01*
X776000Y14000D01*
Y14999D01*
X777000Y15999D01*
X778999D01*
X779999Y14999D01*
Y13000D01*
X778999Y12000D01*
X779999Y17998D02*
Y19998D01*
Y18998D01*
X774001D01*
X775001Y17998D01*
Y-459999D02*
X774001Y-460998D01*
Y-462998D01*
X775001Y-463997D01*
X778999D01*
X779999Y-462998D01*
Y-460998D01*
X778999Y-459999D01*
X774001Y-454001D02*
Y-457999D01*
X777000D01*
X776000Y-456000D01*
Y-455000D01*
X777000Y-454001D01*
X778999D01*
X779999Y-455000D01*
Y-457000D01*
X778999Y-457999D01*
X775001Y-452001D02*
X774001Y-451002D01*
Y-449002D01*
X775001Y-448003D01*
X778999D01*
X779999Y-449002D01*
Y-451002D01*
X778999Y-452001D01*
X775001D01*
X518001Y-206001D02*
X517002Y-205001D01*
X515002D01*
X514003Y-206001D01*
Y-209999D01*
X515002Y-210999D01*
X517002D01*
X518001Y-209999D01*
X523000Y-210999D02*
Y-205001D01*
X520001Y-208000D01*
X523999D01*
X525999Y-209999D02*
X526998Y-210999D01*
X528998D01*
X529997Y-209999D01*
Y-206001D01*
X528998Y-205001D01*
X526998D01*
X525999Y-206001D01*
Y-207000D01*
X526998Y-208000D01*
X529997D01*
X515001Y-287001D02*
X514002Y-286001D01*
X512002D01*
X511003Y-287001D01*
Y-290999D01*
X512002Y-291999D01*
X514002D01*
X515001Y-290999D01*
X520000Y-291999D02*
Y-286001D01*
X517001Y-289000D01*
X520999D01*
X522999Y-287001D02*
X523998Y-286001D01*
X525998D01*
X526997Y-287001D01*
Y-288000D01*
X525998Y-289000D01*
X526997Y-290000D01*
Y-290999D01*
X525998Y-291999D01*
X523998D01*
X522999Y-290999D01*
Y-290000D01*
X523998Y-289000D01*
X522999Y-288000D01*
Y-287001D01*
X523998Y-289000D02*
X525998D01*
X600002Y-77299D02*
Y-71301D01*
X603001D01*
X604000Y-72301D01*
Y-74300D01*
X603001Y-75300D01*
X600002D01*
X609998Y-77299D02*
X606000D01*
X609998Y-73300D01*
Y-72301D01*
X608999Y-71301D01*
X606999D01*
X606000Y-72301D01*
X14503Y-508001D02*
Y-512999D01*
X15502Y-513999D01*
X17501D01*
X18501Y-512999D01*
Y-508001D01*
X20501Y-513999D02*
X22500D01*
X21500D01*
Y-508001D01*
X20501Y-509001D01*
X29498Y-513999D02*
X25499D01*
X29498Y-510000D01*
Y-509001D01*
X28498Y-508001D01*
X26499D01*
X25499Y-509001D01*
X17001Y-589001D02*
X16002Y-588001D01*
X14002D01*
X13003Y-589001D01*
Y-592999D01*
X14002Y-593999D01*
X16002D01*
X17001Y-592999D01*
X22000Y-593999D02*
Y-588001D01*
X19001Y-591000D01*
X22999D01*
X24999Y-588001D02*
X28997D01*
Y-589001D01*
X24999Y-592999D01*
Y-593999D01*
X-270498Y256999D02*
Y252001D01*
X-269498Y251001D01*
X-267499D01*
X-266499Y252001D01*
Y256999D01*
X-264500Y251001D02*
X-262500D01*
X-263500D01*
Y256999D01*
X-264500Y255999D01*
X-259501Y251001D02*
X-257502D01*
X-258502D01*
Y256999D01*
X-259501Y255999D01*
X-246001Y268003D02*
X-251999D01*
Y271002D01*
X-250999Y272001D01*
X-249000D01*
X-248000Y271002D01*
Y268003D01*
Y270002D02*
X-246001Y272001D01*
X-251999Y277999D02*
X-250999Y276000D01*
X-249000Y274001D01*
X-247001D01*
X-246001Y275000D01*
Y277000D01*
X-247001Y277999D01*
X-248000D01*
X-249000Y277000D01*
Y274001D01*
X-250999Y279999D02*
X-251999Y280998D01*
Y282998D01*
X-250999Y283997D01*
X-247001D01*
X-246001Y282998D01*
Y280998D01*
X-247001Y279999D01*
X-250999D01*
X-245001Y186003D02*
X-250999D01*
Y189002D01*
X-249999Y190001D01*
X-248000D01*
X-247000Y189002D01*
Y186003D01*
Y188002D02*
X-245001Y190001D01*
X-250999Y195999D02*
Y192001D01*
X-248000D01*
X-249000Y194000D01*
Y195000D01*
X-248000Y195999D01*
X-246001D01*
X-245001Y195000D01*
Y193000D01*
X-246001Y192001D01*
Y197999D02*
X-245001Y198998D01*
Y200998D01*
X-246001Y201997D01*
X-249999D01*
X-250999Y200998D01*
Y198998D01*
X-249999Y197999D01*
X-249000D01*
X-248000Y198998D01*
Y201997D01*
X-263001Y186003D02*
X-268999D01*
Y189002D01*
X-267999Y190001D01*
X-266000D01*
X-265000Y189002D01*
Y186003D01*
Y188002D02*
X-263001Y190001D01*
X-268999Y195999D02*
Y192001D01*
X-266000D01*
X-267000Y194000D01*
Y195000D01*
X-266000Y195999D01*
X-264001D01*
X-263001Y195000D01*
Y193000D01*
X-264001Y192001D01*
X-267999Y197999D02*
X-268999Y198998D01*
Y200998D01*
X-267999Y201997D01*
X-267000D01*
X-266000Y200998D01*
X-265000Y201997D01*
X-264001D01*
X-263001Y200998D01*
Y198998D01*
X-264001Y197999D01*
X-265000D01*
X-266000Y198998D01*
X-267000Y197999D01*
X-267999D01*
X-266000Y198998D02*
Y200998D01*
X-227001Y186003D02*
X-232999D01*
Y189002D01*
X-231999Y190001D01*
X-230000D01*
X-229000Y189002D01*
Y186003D01*
Y188002D02*
X-227001Y190001D01*
X-232999Y195999D02*
Y192001D01*
X-230000D01*
X-231000Y194000D01*
Y195000D01*
X-230000Y195999D01*
X-228001D01*
X-227001Y195000D01*
Y193000D01*
X-228001Y192001D01*
X-232999Y197999D02*
Y201997D01*
X-231999D01*
X-228001Y197999D01*
X-227001D01*
X-254001Y186003D02*
X-259999D01*
Y189002D01*
X-258999Y190001D01*
X-257000D01*
X-256000Y189002D01*
Y186003D01*
Y188002D02*
X-254001Y190001D01*
X-259999Y195999D02*
Y192001D01*
X-257000D01*
X-258000Y194000D01*
Y195000D01*
X-257000Y195999D01*
X-255001D01*
X-254001Y195000D01*
Y193000D01*
X-255001Y192001D01*
X-259999Y201997D02*
X-258999Y199998D01*
X-257000Y197999D01*
X-255001D01*
X-254001Y198998D01*
Y200998D01*
X-255001Y201997D01*
X-256000D01*
X-257000Y200998D01*
Y197999D01*
X-272001Y186003D02*
X-277999D01*
Y189002D01*
X-276999Y190001D01*
X-275000D01*
X-274000Y189002D01*
Y186003D01*
Y188002D02*
X-272001Y190001D01*
X-277999Y195999D02*
Y192001D01*
X-275000D01*
X-276000Y194000D01*
Y195000D01*
X-275000Y195999D01*
X-273001D01*
X-272001Y195000D01*
Y193000D01*
X-273001Y192001D01*
X-277999Y201997D02*
Y197999D01*
X-275000D01*
X-276000Y199998D01*
Y200998D01*
X-275000Y201997D01*
X-273001D01*
X-272001Y200998D01*
Y198998D01*
X-273001Y197999D01*
X-236001Y186003D02*
X-241999D01*
Y189002D01*
X-240999Y190001D01*
X-239000D01*
X-238000Y189002D01*
Y186003D01*
Y188002D02*
X-236001Y190001D01*
X-241999Y195999D02*
Y192001D01*
X-239000D01*
X-240000Y194000D01*
Y195000D01*
X-239000Y195999D01*
X-237001D01*
X-236001Y195000D01*
Y193000D01*
X-237001Y192001D01*
X-236001Y200998D02*
X-241999D01*
X-239000Y197999D01*
Y201997D01*
X-281001Y187003D02*
X-286999D01*
Y190002D01*
X-285999Y191001D01*
X-284000D01*
X-283000Y190002D01*
Y187003D01*
Y189002D02*
X-281001Y191001D01*
X-286999Y196999D02*
Y193001D01*
X-284000D01*
X-285000Y195000D01*
Y196000D01*
X-284000Y196999D01*
X-282001D01*
X-281001Y196000D01*
Y194000D01*
X-282001Y193001D01*
X-285999Y198999D02*
X-286999Y199998D01*
Y201998D01*
X-285999Y202997D01*
X-285000D01*
X-284000Y201998D01*
Y200998D01*
Y201998D01*
X-283000Y202997D01*
X-282001D01*
X-281001Y201998D01*
Y199998D01*
X-282001Y198999D01*
X-47997Y209001D02*
Y214999D01*
X-44998D01*
X-43999Y213999D01*
Y212000D01*
X-44998Y211000D01*
X-47997D01*
X-45998D02*
X-43999Y209001D01*
X-38001Y214999D02*
X-41999D01*
Y212000D01*
X-40000Y213000D01*
X-39000D01*
X-38001Y212000D01*
Y210001D01*
X-39000Y209001D01*
X-41000D01*
X-41999Y210001D01*
X-32003Y209001D02*
X-36001D01*
X-32003Y213000D01*
Y213999D01*
X-33002Y214999D01*
X-35002D01*
X-36001Y213999D01*
X-237001Y268003D02*
X-242999D01*
Y271002D01*
X-241999Y272001D01*
X-240000D01*
X-239000Y271002D01*
Y268003D01*
Y270002D02*
X-237001Y272001D01*
X-242999Y277999D02*
Y274001D01*
X-240000D01*
X-241000Y276000D01*
Y277000D01*
X-240000Y277999D01*
X-238001D01*
X-237001Y277000D01*
Y275000D01*
X-238001Y274001D01*
X-241999Y279999D02*
X-242999Y280998D01*
Y282998D01*
X-241999Y283997D01*
X-238001D01*
X-237001Y282998D01*
Y280998D01*
X-238001Y279999D01*
X-241999D01*
X-196001Y238003D02*
X-201999D01*
Y241002D01*
X-200999Y242001D01*
X-199000D01*
X-198000Y241002D01*
Y238003D01*
Y240002D02*
X-196001Y242001D01*
Y247000D02*
X-201999D01*
X-199000Y244001D01*
Y247999D01*
X-200999Y249999D02*
X-201999Y250998D01*
Y252998D01*
X-200999Y253997D01*
X-200000D01*
X-199000Y252998D01*
X-198000Y253997D01*
X-197001D01*
X-196001Y252998D01*
Y250998D01*
X-197001Y249999D01*
X-198000D01*
X-199000Y250998D01*
X-200000Y249999D01*
X-200999D01*
X-199000Y250998D02*
Y252998D01*
X-218999Y249001D02*
X-219999Y248002D01*
Y246002D01*
X-218999Y245003D01*
X-215001D01*
X-214001Y246002D01*
Y248002D01*
X-215001Y249001D01*
X-214001Y254000D02*
X-219999D01*
X-217000Y251001D01*
Y254999D01*
X-219999Y260997D02*
X-218999Y258998D01*
X-217000Y256999D01*
X-215001D01*
X-214001Y257998D01*
Y259998D01*
X-215001Y260997D01*
X-216000D01*
X-217000Y259998D01*
Y256999D01*
X-290999Y256001D02*
X-291999Y255002D01*
Y253002D01*
X-290999Y252003D01*
X-287001D01*
X-286001Y253002D01*
Y255002D01*
X-287001Y256001D01*
X-286001Y261000D02*
X-291999D01*
X-289000Y258001D01*
Y261999D01*
X-291999Y267997D02*
Y263999D01*
X-289000D01*
X-290000Y265998D01*
Y266998D01*
X-289000Y267997D01*
X-287001D01*
X-286001Y266998D01*
Y264998D01*
X-287001Y263999D01*
X-90498Y195999D02*
Y191001D01*
X-89498Y190001D01*
X-87499D01*
X-86499Y191001D01*
Y195999D01*
X-84500Y190001D02*
X-82500D01*
X-83500D01*
Y195999D01*
X-84500Y194999D01*
X-79501D02*
X-78502Y195999D01*
X-76502D01*
X-75502Y194999D01*
Y191001D01*
X-76502Y190001D01*
X-78502D01*
X-79501Y191001D01*
Y194999D01*
X-31001Y284003D02*
X-36999D01*
Y287002D01*
X-35999Y288001D01*
X-34000D01*
X-33000Y287002D01*
Y284003D01*
Y286002D02*
X-31001Y288001D01*
Y293000D02*
X-36999D01*
X-34000Y290001D01*
Y293999D01*
X-36999Y299997D02*
X-35999Y297998D01*
X-34000Y295999D01*
X-32001D01*
X-31001Y296998D01*
Y298998D01*
X-32001Y299997D01*
X-33000D01*
X-34000Y298998D01*
Y295999D01*
X-184997Y301001D02*
Y306999D01*
X-181998D01*
X-180999Y305999D01*
Y304000D01*
X-181998Y303000D01*
X-184997D01*
X-182998D02*
X-180999Y301001D01*
X-176000D02*
Y306999D01*
X-178999Y304000D01*
X-175001D01*
X-169003Y306999D02*
X-173001D01*
Y304000D01*
X-171002Y305000D01*
X-170002D01*
X-169003Y304000D01*
Y302001D01*
X-170002Y301001D01*
X-172002D01*
X-173001Y302001D01*
X-39999Y234001D02*
X-40999Y233002D01*
Y231002D01*
X-39999Y230003D01*
X-36001D01*
X-35001Y231002D01*
Y233002D01*
X-36001Y234001D01*
X-35001Y239000D02*
X-40999D01*
X-38000Y236001D01*
Y239999D01*
X-35001Y244998D02*
X-40999D01*
X-38000Y241999D01*
Y245997D01*
X-200999Y208001D02*
X-201999Y207002D01*
Y205002D01*
X-200999Y204003D01*
X-197001D01*
X-196001Y205002D01*
Y207002D01*
X-197001Y208001D01*
X-196001Y213000D02*
X-201999D01*
X-199000Y210001D01*
Y213999D01*
X-200999Y215999D02*
X-201999Y216998D01*
Y218998D01*
X-200999Y219997D01*
X-200000D01*
X-199000Y218998D01*
Y217998D01*
Y218998D01*
X-198000Y219997D01*
X-197001D01*
X-196001Y218998D01*
Y216998D01*
X-197001Y215999D01*
X-200999Y225001D02*
X-201999Y224002D01*
Y222002D01*
X-200999Y221003D01*
X-197001D01*
X-196001Y222002D01*
Y224002D01*
X-197001Y225001D01*
X-196001Y230000D02*
X-201999D01*
X-199000Y227001D01*
Y230999D01*
X-196001Y236997D02*
Y232999D01*
X-200000Y236997D01*
X-200999D01*
X-201999Y235998D01*
Y233998D01*
X-200999Y232999D01*
X-197001Y293503D02*
X-202999D01*
Y296502D01*
X-201999Y297501D01*
X-200000D01*
X-199000Y296502D01*
Y293503D01*
Y295502D02*
X-197001Y297501D01*
Y299501D02*
Y301500D01*
Y300500D01*
X-202999D01*
X-201999Y299501D01*
X-202999Y308498D02*
Y304499D01*
X-200000D01*
X-201000Y306498D01*
Y307498D01*
X-200000Y308498D01*
X-198001D01*
X-197001Y307498D01*
Y305499D01*
X-198001Y304499D01*
X-222001Y326502D02*
X-227999D01*
Y329501D01*
X-226999Y330501D01*
X-225000D01*
X-224000Y329501D01*
Y326502D01*
Y328502D02*
X-222001Y330501D01*
Y332500D02*
Y334500D01*
Y333500D01*
X-227999D01*
X-226999Y332500D01*
X-222001Y340498D02*
X-227999D01*
X-225000Y337499D01*
Y341498D01*
X-218498Y344001D02*
Y349999D01*
X-215499D01*
X-214499Y348999D01*
Y347000D01*
X-215499Y346000D01*
X-218498D01*
X-216498D02*
X-214499Y344001D01*
X-212500D02*
X-210500D01*
X-211500D01*
Y349999D01*
X-212500Y348999D01*
X-207501D02*
X-206502Y349999D01*
X-204502D01*
X-203502Y348999D01*
Y348000D01*
X-204502Y347000D01*
X-205502D01*
X-204502D01*
X-203502Y346000D01*
Y345001D01*
X-204502Y344001D01*
X-206502D01*
X-207501Y345001D01*
X-230001Y326502D02*
X-235999D01*
Y329501D01*
X-234999Y330501D01*
X-233000D01*
X-232000Y329501D01*
Y326502D01*
Y328502D02*
X-230001Y330501D01*
Y332500D02*
Y334500D01*
Y333500D01*
X-235999D01*
X-234999Y332500D01*
X-230001Y341498D02*
Y337499D01*
X-234000Y341498D01*
X-234999D01*
X-235999Y340498D01*
Y338498D01*
X-234999Y337499D01*
X-218498Y353001D02*
Y358999D01*
X-215499D01*
X-214499Y357999D01*
Y356000D01*
X-215499Y355000D01*
X-218498D01*
X-216499D02*
X-214499Y353001D01*
X-212500D02*
X-210501D01*
X-211500D01*
Y358999D01*
X-212500Y357999D01*
X-207502Y353001D02*
X-205502D01*
X-206502D01*
Y358999D01*
X-207502Y357999D01*
X-316001Y573002D02*
X-321999D01*
Y576001D01*
X-320999Y577000D01*
X-319000D01*
X-318000Y576001D01*
Y573002D01*
Y575001D02*
X-316001Y577000D01*
X-317001Y579000D02*
X-316001Y579999D01*
Y581999D01*
X-317001Y582998D01*
X-320999D01*
X-321999Y581999D01*
Y579999D01*
X-320999Y579000D01*
X-320000D01*
X-319000Y579999D01*
Y582998D01*
X-316001Y474502D02*
X-321999D01*
Y477501D01*
X-320999Y478501D01*
X-319000D01*
X-318000Y477501D01*
Y474502D01*
Y476502D02*
X-316001Y478501D01*
Y480500D02*
Y482500D01*
Y481500D01*
X-321999D01*
X-320999Y480500D01*
Y485499D02*
X-321999Y486498D01*
Y488498D01*
X-320999Y489497D01*
X-317001D01*
X-316001Y488498D01*
Y486498D01*
X-317001Y485499D01*
X-320999D01*
X-316001Y508002D02*
X-321999D01*
Y511001D01*
X-320999Y512000D01*
X-319000D01*
X-318000Y511001D01*
Y508002D01*
Y510001D02*
X-316001Y512000D01*
X-320999Y514000D02*
X-321999Y514999D01*
Y516999D01*
X-320999Y517998D01*
X-320000D01*
X-319000Y516999D01*
X-318000Y517998D01*
X-317001D01*
X-316001Y516999D01*
Y514999D01*
X-317001Y514000D01*
X-318000D01*
X-319000Y514999D01*
X-320000Y514000D01*
X-320999D01*
X-319000Y514999D02*
Y516999D01*
X-316001Y540002D02*
X-321999D01*
Y543001D01*
X-320999Y544000D01*
X-319000D01*
X-318000Y543001D01*
Y540002D01*
Y542001D02*
X-316001Y544000D01*
X-321999Y546000D02*
Y549998D01*
X-320999D01*
X-317001Y546000D01*
X-316001D01*
X-172998Y524001D02*
Y529999D01*
X-169999D01*
X-169000Y528999D01*
Y527000D01*
X-169999Y526000D01*
X-172998D01*
X-170999D02*
X-169000Y524001D01*
X-164001D02*
Y529999D01*
X-167000Y527000D01*
X-163002D01*
X-189001Y531002D02*
X-194999D01*
Y534001D01*
X-193999Y535000D01*
X-192000D01*
X-191000Y534001D01*
Y531002D01*
Y533001D02*
X-189001Y535000D01*
X-193999Y537000D02*
X-194999Y537999D01*
Y539999D01*
X-193999Y540998D01*
X-193000D01*
X-192000Y539999D01*
Y538999D01*
Y539999D01*
X-191000Y540998D01*
X-190001D01*
X-189001Y539999D01*
Y537999D01*
X-190001Y537000D01*
X-221999Y565002D02*
X-216001D01*
Y568001D01*
X-217001Y569000D01*
X-220999D01*
X-221999Y568001D01*
Y565002D01*
X-220999Y571000D02*
X-221999Y571999D01*
Y573999D01*
X-220999Y574998D01*
X-220000D01*
X-219000Y573999D01*
Y572999D01*
Y573999D01*
X-218000Y574998D01*
X-217001D01*
X-216001Y573999D01*
Y571999D01*
X-217001Y571000D01*
X-205999Y563002D02*
X-200001D01*
Y566001D01*
X-201001Y567000D01*
X-204999D01*
X-205999Y566001D01*
Y563002D01*
X-200001Y572998D02*
Y569000D01*
X-204000Y572998D01*
X-204999D01*
X-205999Y571999D01*
Y569999D01*
X-204999Y569000D01*
X-195999Y493999D02*
Y488001D01*
X-193000D01*
X-192000Y489001D01*
Y492999D01*
X-193000Y493999D01*
X-195999D01*
X-190001Y488001D02*
X-188001D01*
X-189001D01*
Y493999D01*
X-190001Y492999D01*
X-192999Y297501D02*
X-193999Y296502D01*
Y294502D01*
X-192999Y293503D01*
X-189001D01*
X-188001Y294502D01*
Y296502D01*
X-189001Y297501D01*
X-188001Y299501D02*
Y301500D01*
Y300500D01*
X-193999D01*
X-192999Y299501D01*
X-189001Y304499D02*
X-188001Y305499D01*
Y307498D01*
X-189001Y308498D01*
X-192999D01*
X-193999Y307498D01*
Y305499D01*
X-192999Y304499D01*
X-192000D01*
X-191000Y305499D01*
Y308498D01*
X-218999Y330501D02*
X-219999Y329501D01*
Y327502D01*
X-218999Y326502D01*
X-215001D01*
X-214001Y327502D01*
Y329501D01*
X-215001Y330501D01*
X-214001Y332500D02*
Y334500D01*
Y333500D01*
X-219999D01*
X-218999Y332500D01*
Y337499D02*
X-219999Y338498D01*
Y340498D01*
X-218999Y341498D01*
X-218000D01*
X-217000Y340498D01*
X-216000Y341498D01*
X-215001D01*
X-214001Y340498D01*
Y338498D01*
X-215001Y337499D01*
X-216000D01*
X-217000Y338498D01*
X-218000Y337499D01*
X-218999D01*
X-217000Y338498D02*
Y340498D01*
X-270999Y393501D02*
X-271999Y392501D01*
Y390502D01*
X-270999Y389502D01*
X-267001D01*
X-266001Y390502D01*
Y392501D01*
X-267001Y393501D01*
X-266001Y395500D02*
Y397500D01*
Y396500D01*
X-271999D01*
X-270999Y395500D01*
X-271999Y400499D02*
Y404497D01*
X-270999D01*
X-267001Y400499D01*
X-266001D01*
X-207499Y411999D02*
X-208498Y412999D01*
X-210498D01*
X-211497Y411999D01*
Y408001D01*
X-210498Y407001D01*
X-208498D01*
X-207499Y408001D01*
X-205499Y407001D02*
X-203500D01*
X-204500D01*
Y412999D01*
X-205499Y411999D01*
X-197502Y407001D02*
Y412999D01*
X-200501Y410000D01*
X-196502D01*
X-270999Y360501D02*
X-271999Y359501D01*
Y357502D01*
X-270999Y356502D01*
X-267001D01*
X-266001Y357502D01*
Y359501D01*
X-267001Y360501D01*
X-266001Y362500D02*
Y364500D01*
Y363500D01*
X-271999D01*
X-270999Y362500D01*
Y367499D02*
X-271999Y368498D01*
Y370498D01*
X-270999Y371498D01*
X-270000D01*
X-269000Y370498D01*
Y369498D01*
Y370498D01*
X-268000Y371498D01*
X-267001D01*
X-266001Y370498D01*
Y368498D01*
X-267001Y367499D01*
X-203999Y653501D02*
X-204999Y652502D01*
Y650502D01*
X-203999Y649502D01*
X-200001D01*
X-199001Y650502D01*
Y652502D01*
X-200001Y653501D01*
X-199001Y655500D02*
Y657500D01*
Y656500D01*
X-204999D01*
X-203999Y655500D01*
X-199001Y664498D02*
Y660499D01*
X-203000Y664498D01*
X-203999D01*
X-204999Y663498D01*
Y661498D01*
X-203999Y660499D01*
X-194999Y653501D02*
X-195999Y652501D01*
Y650502D01*
X-194999Y649502D01*
X-191001D01*
X-190001Y650502D01*
Y652501D01*
X-191001Y653501D01*
X-190001Y655500D02*
Y657499D01*
Y656500D01*
X-195999D01*
X-194999Y655500D01*
X-190001Y660499D02*
Y662498D01*
Y661498D01*
X-195999D01*
X-194999Y660499D01*
X-206000Y631999D02*
X-206999Y632999D01*
X-208999D01*
X-209998Y631999D01*
Y628001D01*
X-208999Y627001D01*
X-206999D01*
X-206000Y628001D01*
X-204000Y631999D02*
X-203001Y632999D01*
X-201001D01*
X-200002Y631999D01*
Y631000D01*
X-201001Y630000D01*
X-200002Y629000D01*
Y628001D01*
X-201001Y627001D01*
X-203001D01*
X-204000Y628001D01*
Y629000D01*
X-203001Y630000D01*
X-204000Y631000D01*
Y631999D01*
X-203001Y630000D02*
X-201001D01*
X-190000Y631999D02*
X-190999Y632999D01*
X-192999D01*
X-193998Y631999D01*
Y628001D01*
X-192999Y627001D01*
X-190999D01*
X-190000Y628001D01*
X-188000Y632999D02*
X-184002D01*
Y631999D01*
X-188000Y628001D01*
Y627001D01*
X-172499Y479999D02*
X-173498Y480999D01*
X-175498D01*
X-176497Y479999D01*
Y476001D01*
X-175498Y475001D01*
X-173498D01*
X-172499Y476001D01*
X-170499Y475001D02*
X-168500D01*
X-169500D01*
Y480999D01*
X-170499Y479999D01*
X-165501D02*
X-164501Y480999D01*
X-162502D01*
X-161502Y479999D01*
Y476001D01*
X-162502Y475001D01*
X-164501D01*
X-165501Y476001D01*
Y479999D01*
X-157999Y510000D02*
X-158999Y509001D01*
Y507001D01*
X-157999Y506002D01*
X-154001D01*
X-153001Y507001D01*
Y509001D01*
X-154001Y510000D01*
Y512000D02*
X-153001Y512999D01*
Y514999D01*
X-154001Y515998D01*
X-157999D01*
X-158999Y514999D01*
Y512999D01*
X-157999Y512000D01*
X-157000D01*
X-156000Y512999D01*
Y515998D01*
X-198999Y589000D02*
X-199999Y588001D01*
Y586001D01*
X-198999Y585002D01*
X-195001D01*
X-194001Y586001D01*
Y588001D01*
X-195001Y589000D01*
X-194001Y593999D02*
X-199999D01*
X-197000Y591000D01*
Y594998D01*
X-187999Y570000D02*
X-188999Y569001D01*
Y567001D01*
X-187999Y566002D01*
X-184001D01*
X-183001Y567001D01*
Y569001D01*
X-184001Y570000D01*
X-187999Y572000D02*
X-188999Y572999D01*
Y574999D01*
X-187999Y575998D01*
X-187000D01*
X-186000Y574999D01*
Y573999D01*
Y574999D01*
X-185000Y575998D01*
X-184001D01*
X-183001Y574999D01*
Y572999D01*
X-184001Y572000D01*
X-185999Y535000D02*
X-186999Y534001D01*
Y532001D01*
X-185999Y531002D01*
X-182001D01*
X-181001Y532001D01*
Y534001D01*
X-182001Y535000D01*
X-181001Y540998D02*
Y537000D01*
X-185000Y540998D01*
X-185999D01*
X-186999Y539999D01*
Y537999D01*
X-185999Y537000D01*
X-214999Y522000D02*
X-215999Y521000D01*
Y519001D01*
X-214999Y518001D01*
X-211001D01*
X-210001Y519001D01*
Y521000D01*
X-211001Y522000D01*
X-210001Y523999D02*
Y525999D01*
Y524999D01*
X-215999D01*
X-214999Y523999D01*
X-197001Y-176498D02*
X-202999D01*
Y-173498D01*
X-201999Y-172499D01*
X-200000D01*
X-199000Y-173498D01*
Y-176498D01*
Y-174498D02*
X-197001Y-172499D01*
Y-170499D02*
Y-168500D01*
Y-169500D01*
X-202999D01*
X-201999Y-170499D01*
X-202999Y-161502D02*
Y-165501D01*
X-200000D01*
X-201000Y-163502D01*
Y-162502D01*
X-200000Y-161502D01*
X-198001D01*
X-197001Y-162502D01*
Y-164501D01*
X-198001Y-165501D01*
X-222001Y-143498D02*
X-227999D01*
Y-140499D01*
X-226999Y-139499D01*
X-225000D01*
X-224000Y-140499D01*
Y-143498D01*
Y-141498D02*
X-222001Y-139499D01*
Y-137500D02*
Y-135500D01*
Y-136500D01*
X-227999D01*
X-226999Y-137500D01*
X-222001Y-129502D02*
X-227999D01*
X-225000Y-132501D01*
Y-128503D01*
X-218498Y-125999D02*
Y-120001D01*
X-215499D01*
X-214499Y-121001D01*
Y-123000D01*
X-215499Y-124000D01*
X-218498D01*
X-216498D02*
X-214499Y-125999D01*
X-212500D02*
X-210500D01*
X-211500D01*
Y-120001D01*
X-212500Y-121001D01*
X-207501D02*
X-206502Y-120001D01*
X-204502D01*
X-203502Y-121001D01*
Y-122000D01*
X-204502Y-123000D01*
X-205502D01*
X-204502D01*
X-203502Y-124000D01*
Y-124999D01*
X-204502Y-125999D01*
X-206502D01*
X-207501Y-124999D01*
X-230001Y-143498D02*
X-235999D01*
Y-140499D01*
X-234999Y-139499D01*
X-233000D01*
X-232000Y-140499D01*
Y-143498D01*
Y-141498D02*
X-230001Y-139499D01*
Y-137500D02*
Y-135500D01*
Y-136500D01*
X-235999D01*
X-234999Y-137500D01*
X-230001Y-128503D02*
Y-132501D01*
X-234000Y-128503D01*
X-234999D01*
X-235999Y-129502D01*
Y-131502D01*
X-234999Y-132501D01*
X-218498Y-116999D02*
Y-111001D01*
X-215499D01*
X-214499Y-112001D01*
Y-114000D01*
X-215499Y-115000D01*
X-218498D01*
X-216499D02*
X-214499Y-116999D01*
X-212500D02*
X-210501D01*
X-211500D01*
Y-111001D01*
X-212500Y-112001D01*
X-207502Y-116999D02*
X-205502D01*
X-206502D01*
Y-111001D01*
X-207502Y-112001D01*
X-316001Y103002D02*
X-321999D01*
Y106001D01*
X-320999Y107000D01*
X-319000D01*
X-318000Y106001D01*
Y103002D01*
Y105001D02*
X-316001Y107000D01*
X-317001Y109000D02*
X-316001Y109999D01*
Y111999D01*
X-317001Y112998D01*
X-320999D01*
X-321999Y111999D01*
Y109999D01*
X-320999Y109000D01*
X-320000D01*
X-319000Y109999D01*
Y112998D01*
X-316001Y2503D02*
X-321999D01*
Y5501D01*
X-320999Y6501D01*
X-319000D01*
X-318000Y5501D01*
Y2503D01*
Y4502D02*
X-316001Y6501D01*
Y8500D02*
Y10500D01*
Y9500D01*
X-321999D01*
X-320999Y8500D01*
Y13499D02*
X-321999Y14498D01*
Y16498D01*
X-320999Y17498D01*
X-317001D01*
X-316001Y16498D01*
Y14498D01*
X-317001Y13499D01*
X-320999D01*
X-316001Y39002D02*
X-321999D01*
Y42001D01*
X-320999Y43000D01*
X-319000D01*
X-318000Y42001D01*
Y39002D01*
Y41001D02*
X-316001Y43000D01*
X-320999Y45000D02*
X-321999Y45999D01*
Y47999D01*
X-320999Y48998D01*
X-320000D01*
X-319000Y47999D01*
X-318000Y48998D01*
X-317001D01*
X-316001Y47999D01*
Y45999D01*
X-317001Y45000D01*
X-318000D01*
X-319000Y45999D01*
X-320000Y45000D01*
X-320999D01*
X-319000Y45999D02*
Y47999D01*
X-316001Y71002D02*
X-321999D01*
Y74001D01*
X-320999Y75000D01*
X-319000D01*
X-318000Y74001D01*
Y71002D01*
Y73001D02*
X-316001Y75000D01*
X-321999Y77000D02*
Y80998D01*
X-320999D01*
X-317001Y77000D01*
X-316001D01*
X-172998Y54001D02*
Y59999D01*
X-169999D01*
X-169000Y58999D01*
Y57000D01*
X-169999Y56000D01*
X-172998D01*
X-170999D02*
X-169000Y54001D01*
X-164001D02*
Y59999D01*
X-167000Y57000D01*
X-163002D01*
X-190001Y60002D02*
X-195999D01*
Y63001D01*
X-194999Y64000D01*
X-193000D01*
X-192000Y63001D01*
Y60002D01*
Y62001D02*
X-190001Y64000D01*
X-194999Y66000D02*
X-195999Y66999D01*
Y68999D01*
X-194999Y69998D01*
X-194000D01*
X-193000Y68999D01*
Y67999D01*
Y68999D01*
X-192000Y69998D01*
X-191001D01*
X-190001Y68999D01*
Y66999D01*
X-191001Y66000D01*
X-221999Y95002D02*
X-216001D01*
Y98001D01*
X-217001Y99000D01*
X-220999D01*
X-221999Y98001D01*
Y95002D01*
X-220999Y101000D02*
X-221999Y101999D01*
Y103999D01*
X-220999Y104998D01*
X-220000D01*
X-219000Y103999D01*
Y102999D01*
Y103999D01*
X-218000Y104998D01*
X-217001D01*
X-216001Y103999D01*
Y101999D01*
X-217001Y101000D01*
X-205999Y92002D02*
X-200001D01*
Y95001D01*
X-201001Y96000D01*
X-204999D01*
X-205999Y95001D01*
Y92002D01*
X-200001Y101998D02*
Y98000D01*
X-204000Y101998D01*
X-204999D01*
X-205999Y100999D01*
Y98999D01*
X-204999Y98000D01*
X-195999Y24999D02*
Y19001D01*
X-193000D01*
X-192000Y20001D01*
Y23999D01*
X-193000Y24999D01*
X-195999D01*
X-190001Y19001D02*
X-188001D01*
X-189001D01*
Y24999D01*
X-190001Y23999D01*
X-192999Y-172499D02*
X-193999Y-173498D01*
Y-175498D01*
X-192999Y-176498D01*
X-189001D01*
X-188001Y-175498D01*
Y-173498D01*
X-189001Y-172499D01*
X-188001Y-170499D02*
Y-168500D01*
Y-169500D01*
X-193999D01*
X-192999Y-170499D01*
X-189001Y-165501D02*
X-188001Y-164501D01*
Y-162502D01*
X-189001Y-161502D01*
X-192999D01*
X-193999Y-162502D01*
Y-164501D01*
X-192999Y-165501D01*
X-192000D01*
X-191000Y-164501D01*
Y-161502D01*
X-218999Y-139499D02*
X-219999Y-140499D01*
Y-142498D01*
X-218999Y-143498D01*
X-215001D01*
X-214001Y-142498D01*
Y-140499D01*
X-215001Y-139499D01*
X-214001Y-137500D02*
Y-135500D01*
Y-136500D01*
X-219999D01*
X-218999Y-137500D01*
Y-132501D02*
X-219999Y-131502D01*
Y-129502D01*
X-218999Y-128503D01*
X-218000D01*
X-217000Y-129502D01*
X-216000Y-128503D01*
X-215001D01*
X-214001Y-129502D01*
Y-131502D01*
X-215001Y-132501D01*
X-216000D01*
X-217000Y-131502D01*
X-218000Y-132501D01*
X-218999D01*
X-217000Y-131502D02*
Y-129502D01*
X-270999Y-76499D02*
X-271999Y-77498D01*
Y-79498D01*
X-270999Y-80498D01*
X-267001D01*
X-266001Y-79498D01*
Y-77498D01*
X-267001Y-76499D01*
X-266001Y-74500D02*
Y-72500D01*
Y-73500D01*
X-271999D01*
X-270999Y-74500D01*
X-271999Y-69501D02*
Y-65502D01*
X-270999D01*
X-267001Y-69501D01*
X-266001D01*
X-207499Y-58001D02*
X-208498Y-57001D01*
X-210498D01*
X-211497Y-58001D01*
Y-61999D01*
X-210498Y-62999D01*
X-208498D01*
X-207499Y-61999D01*
X-205499Y-62999D02*
X-203500D01*
X-204500D01*
Y-57001D01*
X-205499Y-58001D01*
X-197502Y-62999D02*
Y-57001D01*
X-200501Y-60000D01*
X-196502D01*
X-270999Y-109499D02*
X-271999Y-110499D01*
Y-112498D01*
X-270999Y-113497D01*
X-267001D01*
X-266001Y-112498D01*
Y-110499D01*
X-267001Y-109499D01*
X-266001Y-107500D02*
Y-105500D01*
Y-106500D01*
X-271999D01*
X-270999Y-107500D01*
Y-102501D02*
X-271999Y-101501D01*
Y-99502D01*
X-270999Y-98502D01*
X-270000D01*
X-269000Y-99502D01*
Y-100502D01*
Y-99502D01*
X-268000Y-98502D01*
X-267001D01*
X-266001Y-99502D01*
Y-101501D01*
X-267001Y-102501D01*
X-203999Y183501D02*
X-204999Y182502D01*
Y180502D01*
X-203999Y179503D01*
X-200001D01*
X-199001Y180502D01*
Y182502D01*
X-200001Y183501D01*
X-199001Y185501D02*
Y187500D01*
Y186500D01*
X-204999D01*
X-203999Y185501D01*
X-199001Y194498D02*
Y190499D01*
X-203000Y194498D01*
X-203999D01*
X-204999Y193498D01*
Y191499D01*
X-203999Y190499D01*
X-194999Y183501D02*
X-195999Y182501D01*
Y180502D01*
X-194999Y179502D01*
X-191001D01*
X-190001Y180502D01*
Y182501D01*
X-191001Y183501D01*
X-190001Y185500D02*
Y187500D01*
Y186500D01*
X-195999D01*
X-194999Y185500D01*
X-190001Y190499D02*
Y192498D01*
Y191498D01*
X-195999D01*
X-194999Y190499D01*
X-206000Y161999D02*
X-206999Y162999D01*
X-208999D01*
X-209998Y161999D01*
Y158001D01*
X-208999Y157001D01*
X-206999D01*
X-206000Y158001D01*
X-204000Y161999D02*
X-203001Y162999D01*
X-201001D01*
X-200002Y161999D01*
Y161000D01*
X-201001Y160000D01*
X-200002Y159000D01*
Y158001D01*
X-201001Y157001D01*
X-203001D01*
X-204000Y158001D01*
Y159000D01*
X-203001Y160000D01*
X-204000Y161000D01*
Y161999D01*
X-203001Y160000D02*
X-201001D01*
X-191000Y161999D02*
X-191999Y162999D01*
X-193999D01*
X-194998Y161999D01*
Y158001D01*
X-193999Y157001D01*
X-191999D01*
X-191000Y158001D01*
X-189000Y162999D02*
X-185002D01*
Y161999D01*
X-189000Y158001D01*
Y157001D01*
X-172499Y9999D02*
X-173498Y10999D01*
X-175498D01*
X-176497Y9999D01*
Y6001D01*
X-175498Y5001D01*
X-173498D01*
X-172499Y6001D01*
X-170499Y5001D02*
X-168500D01*
X-169500D01*
Y10999D01*
X-170499Y9999D01*
X-165501D02*
X-164501Y10999D01*
X-162502D01*
X-161502Y9999D01*
Y6001D01*
X-162502Y5001D01*
X-164501D01*
X-165501Y6001D01*
Y9999D01*
X-157999Y40000D02*
X-158999Y39001D01*
Y37001D01*
X-157999Y36002D01*
X-154001D01*
X-153001Y37001D01*
Y39001D01*
X-154001Y40000D01*
Y42000D02*
X-153001Y42999D01*
Y44999D01*
X-154001Y45998D01*
X-157999D01*
X-158999Y44999D01*
Y42999D01*
X-157999Y42000D01*
X-157000D01*
X-156000Y42999D01*
Y45998D01*
X-197999Y119000D02*
X-198999Y118001D01*
Y116001D01*
X-197999Y115002D01*
X-194001D01*
X-193001Y116001D01*
Y118001D01*
X-194001Y119000D01*
X-193001Y123999D02*
X-198999D01*
X-196000Y121000D01*
Y124998D01*
X-187999Y99000D02*
X-188999Y98001D01*
Y96001D01*
X-187999Y95002D01*
X-184001D01*
X-183001Y96001D01*
Y98001D01*
X-184001Y99000D01*
X-187999Y101000D02*
X-188999Y101999D01*
Y103999D01*
X-187999Y104998D01*
X-187000D01*
X-186000Y103999D01*
Y102999D01*
Y103999D01*
X-185000Y104998D01*
X-184001D01*
X-183001Y103999D01*
Y101999D01*
X-184001Y101000D01*
X-186999Y64000D02*
X-187999Y63001D01*
Y61001D01*
X-186999Y60002D01*
X-183001D01*
X-182001Y61001D01*
Y63001D01*
X-183001Y64000D01*
X-182001Y69998D02*
Y66000D01*
X-186000Y69998D01*
X-186999D01*
X-187999Y68999D01*
Y66999D01*
X-186999Y66000D01*
X-214999Y52000D02*
X-215999Y51000D01*
Y49001D01*
X-214999Y48001D01*
X-211001D01*
X-210001Y49001D01*
Y51000D01*
X-211001Y52000D01*
X-210001Y53999D02*
Y55999D01*
Y54999D01*
X-215999D01*
X-214999Y53999D01*
X-36001Y556002D02*
X-41999D01*
Y559001D01*
X-40999Y560000D01*
X-39000D01*
X-38000Y559001D01*
Y556002D01*
Y558001D02*
X-36001Y560000D01*
X-41999Y565998D02*
X-40999Y563999D01*
X-39000Y562000D01*
X-37001D01*
X-36001Y562999D01*
Y564999D01*
X-37001Y565998D01*
X-38000D01*
X-39000Y564999D01*
Y562000D01*
X-44001Y72002D02*
X-49999D01*
Y75001D01*
X-48999Y76000D01*
X-47000D01*
X-46000Y75001D01*
Y72002D01*
Y74001D02*
X-44001Y76000D01*
X-49999Y81998D02*
X-48999Y79999D01*
X-47000Y78000D01*
X-45001D01*
X-44001Y78999D01*
Y80999D01*
X-45001Y81998D01*
X-46000D01*
X-47000Y80999D01*
Y78000D01*
X-36001Y-382998D02*
X-41999D01*
Y-379999D01*
X-40999Y-379000D01*
X-39000D01*
X-38000Y-379999D01*
Y-382998D01*
Y-380999D02*
X-36001Y-379000D01*
X-41999Y-373002D02*
X-40999Y-375001D01*
X-39000Y-377000D01*
X-37001D01*
X-36001Y-376001D01*
Y-374001D01*
X-37001Y-373002D01*
X-38000D01*
X-39000Y-374001D01*
Y-377000D01*
X46999Y313002D02*
X41001D01*
Y316001D01*
X42001Y317000D01*
X44000D01*
X45000Y316001D01*
Y313002D01*
Y315001D02*
X46999Y317000D01*
X41001Y322998D02*
X42001Y320999D01*
X44000Y319000D01*
X45999D01*
X46999Y319999D01*
Y321999D01*
X45999Y322998D01*
X45000D01*
X44000Y321999D01*
Y319000D01*
X46999Y-146998D02*
X41001D01*
Y-143999D01*
X42001Y-143000D01*
X44000D01*
X45000Y-143999D01*
Y-146998D01*
Y-144999D02*
X46999Y-143000D01*
X41001Y-137002D02*
X42001Y-139001D01*
X44000Y-141000D01*
X45999D01*
X46999Y-140001D01*
Y-138001D01*
X45999Y-137002D01*
X45000D01*
X44000Y-138001D01*
Y-141000D01*
X46999Y-625998D02*
X41001D01*
Y-622999D01*
X42001Y-622000D01*
X44000D01*
X45000Y-622999D01*
Y-625998D01*
Y-623999D02*
X46999Y-622000D01*
X41001Y-616002D02*
X42001Y-618001D01*
X44000Y-620000D01*
X45999D01*
X46999Y-619001D01*
Y-617001D01*
X45999Y-616002D01*
X45000D01*
X44000Y-617001D01*
Y-620000D01*
X-36001Y593002D02*
X-41999D01*
Y596001D01*
X-40999Y597000D01*
X-39000D01*
X-38000Y596001D01*
Y593002D01*
Y595001D02*
X-36001Y597000D01*
X-41999Y602998D02*
Y599000D01*
X-39000D01*
X-40000Y600999D01*
Y601999D01*
X-39000Y602998D01*
X-37001D01*
X-36001Y601999D01*
Y599999D01*
X-37001Y599000D01*
X-36001Y123002D02*
X-41999D01*
Y126001D01*
X-40999Y127000D01*
X-39000D01*
X-38000Y126001D01*
Y123002D01*
Y125001D02*
X-36001Y127000D01*
X-41999Y132998D02*
Y129000D01*
X-39000D01*
X-40000Y130999D01*
Y131999D01*
X-39000Y132998D01*
X-37001D01*
X-36001Y131999D01*
Y129999D01*
X-37001Y129000D01*
X-36001Y-345998D02*
X-41999D01*
Y-342999D01*
X-40999Y-342000D01*
X-39000D01*
X-38000Y-342999D01*
Y-345998D01*
Y-343999D02*
X-36001Y-342000D01*
X-41999Y-336002D02*
Y-340000D01*
X-39000D01*
X-40000Y-338001D01*
Y-337001D01*
X-39000Y-336002D01*
X-37001D01*
X-36001Y-337001D01*
Y-339001D01*
X-37001Y-340000D01*
X46999Y278002D02*
X41001D01*
Y281001D01*
X42001Y282000D01*
X44000D01*
X45000Y281001D01*
Y278002D01*
Y280001D02*
X46999Y282000D01*
X41001Y287998D02*
Y284000D01*
X44000D01*
X43000Y285999D01*
Y286999D01*
X44000Y287998D01*
X45999D01*
X46999Y286999D01*
Y284999D01*
X45999Y284000D01*
X46999Y-193998D02*
X41001D01*
Y-190999D01*
X42001Y-190000D01*
X44000D01*
X45000Y-190999D01*
Y-193998D01*
Y-191999D02*
X46999Y-190000D01*
X41001Y-184002D02*
Y-188000D01*
X44000D01*
X43000Y-186001D01*
Y-185001D01*
X44000Y-184002D01*
X45999D01*
X46999Y-185001D01*
Y-187001D01*
X45999Y-188000D01*
X46999Y-661998D02*
X41001D01*
Y-658999D01*
X42001Y-658000D01*
X44000D01*
X45000Y-658999D01*
Y-661998D01*
Y-659999D02*
X46999Y-658000D01*
X41001Y-652002D02*
Y-656000D01*
X44000D01*
X43000Y-654001D01*
Y-653001D01*
X44000Y-652002D01*
X45999D01*
X46999Y-653001D01*
Y-655001D01*
X45999Y-656000D01*
X16002Y228999D02*
Y224001D01*
X17001Y223001D01*
X19001D01*
X20000Y224001D01*
Y228999D01*
X22000Y224001D02*
X22999Y223001D01*
X24999D01*
X25998Y224001D01*
Y227999D01*
X24999Y228999D01*
X22999D01*
X22000Y227999D01*
Y227000D01*
X22999Y226000D01*
X25998D01*
X-22997Y257001D02*
Y262999D01*
X-19998D01*
X-18999Y261999D01*
Y260000D01*
X-19998Y259000D01*
X-22997D01*
X-20998D02*
X-18999Y257001D01*
X-14000D02*
Y262999D01*
X-16999Y260000D01*
X-13001D01*
X-8002Y257001D02*
Y262999D01*
X-11001Y260000D01*
X-7003D01*
X-4997Y257001D02*
Y262999D01*
X-1998D01*
X-999Y261999D01*
Y260000D01*
X-1998Y259000D01*
X-4997D01*
X-2998D02*
X-999Y257001D01*
X4000D02*
Y262999D01*
X1001Y260000D01*
X4999D01*
X6999Y261999D02*
X7998Y262999D01*
X9998D01*
X10997Y261999D01*
Y261000D01*
X9998Y260000D01*
X8998D01*
X9998D01*
X10997Y259000D01*
Y258001D01*
X9998Y257001D01*
X7998D01*
X6999Y258001D01*
X-40000Y-250999D02*
Y-247001D01*
X-41000Y-246001D01*
X-42999D01*
X-43999Y-247001D01*
Y-250999D01*
X-42999Y-251999D01*
X-41000D01*
X-41999Y-250000D02*
X-40000Y-251999D01*
X-41000D02*
X-40000Y-250999D01*
X-38001Y-251999D02*
X-36001D01*
X-37001D01*
Y-246001D01*
X-38001Y-247001D01*
X18001Y261999D02*
X17001Y262999D01*
X15002D01*
X14002Y261999D01*
Y258001D01*
X15002Y257001D01*
X17001D01*
X18001Y258001D01*
X22999Y257001D02*
Y262999D01*
X20000Y260000D01*
X23999D01*
X25998Y257001D02*
X27998D01*
X26998D01*
Y262999D01*
X25998Y261999D01*
X-172998Y770999D02*
Y766001D01*
X-171999Y765001D01*
X-169999D01*
X-169000Y766001D01*
Y770999D01*
X-167000D02*
X-163002D01*
Y769999D01*
X-167000Y766001D01*
Y765001D01*
X-14998Y-427001D02*
Y-431999D01*
X-13999Y-432999D01*
X-11999D01*
X-11000Y-431999D01*
Y-427001D01*
X-5002D02*
X-7001Y-428001D01*
X-9000Y-430000D01*
Y-431999D01*
X-8001Y-432999D01*
X-6001D01*
X-5002Y-431999D01*
Y-431000D01*
X-6001Y-430000D01*
X-9000D01*
X-9998Y-377001D02*
Y-381999D01*
X-8999Y-382999D01*
X-6999D01*
X-6000Y-381999D01*
Y-377001D01*
X-2D02*
X-4000D01*
Y-380000D01*
X-2001Y-379000D01*
X-1001D01*
X-2Y-380000D01*
Y-381999D01*
X-1001Y-382999D01*
X-3001D01*
X-4000Y-381999D01*
X-14998Y-253001D02*
Y-257999D01*
X-13999Y-258999D01*
X-11999D01*
X-11000Y-257999D01*
Y-253001D01*
X-6001Y-258999D02*
Y-253001D01*
X-9000Y-256000D01*
X-5002D01*
X-33998Y-697001D02*
Y-701999D01*
X-32999Y-702999D01*
X-30999D01*
X-30000Y-701999D01*
Y-697001D01*
X-28000Y-698001D02*
X-27001Y-697001D01*
X-25001D01*
X-24002Y-698001D01*
Y-699000D01*
X-25001Y-700000D01*
X-26001D01*
X-25001D01*
X-24002Y-701000D01*
Y-701999D01*
X-25001Y-702999D01*
X-27001D01*
X-28000Y-701999D01*
X33002Y674999D02*
Y670001D01*
X34001Y669001D01*
X36001D01*
X37000Y670001D01*
Y674999D01*
X39000Y673999D02*
X39999Y674999D01*
X41999D01*
X42998Y673999D01*
Y673000D01*
X41999Y672000D01*
X40999D01*
X41999D01*
X42998Y671000D01*
Y670001D01*
X41999Y669001D01*
X39999D01*
X39000Y670001D01*
X32002Y204999D02*
Y200001D01*
X33001Y199001D01*
X35001D01*
X36000Y200001D01*
Y204999D01*
X38000Y203999D02*
X38999Y204999D01*
X40999D01*
X41998Y203999D01*
Y203000D01*
X40999Y202000D01*
X39999D01*
X40999D01*
X41998Y201000D01*
Y200001D01*
X40999Y199001D01*
X38999D01*
X38000Y200001D01*
X33002Y-265001D02*
Y-269999D01*
X34001Y-270999D01*
X36001D01*
X37000Y-269999D01*
Y-265001D01*
X39000Y-266001D02*
X39999Y-265001D01*
X41999D01*
X42998Y-266001D01*
Y-267000D01*
X41999Y-268000D01*
X40999D01*
X41999D01*
X42998Y-269000D01*
Y-269999D01*
X41999Y-270999D01*
X39999D01*
X39000Y-269999D01*
X-93998Y312999D02*
Y308001D01*
X-92999Y307001D01*
X-90999D01*
X-90000Y308001D01*
Y312999D01*
X-84002Y307001D02*
X-88000D01*
X-84002Y311000D01*
Y311999D01*
X-85001Y312999D01*
X-87001D01*
X-88000Y311999D01*
X91002Y581999D02*
Y577001D01*
X92001Y576001D01*
X94001D01*
X95000Y577001D01*
Y581999D01*
X100998Y576001D02*
X97000D01*
X100998Y580000D01*
Y580999D01*
X99999Y581999D01*
X97999D01*
X97000Y580999D01*
X-93998Y-157001D02*
Y-161999D01*
X-92999Y-162999D01*
X-90999D01*
X-90000Y-161999D01*
Y-157001D01*
X-84002Y-162999D02*
X-88000D01*
X-84002Y-159000D01*
Y-158001D01*
X-85001Y-157001D01*
X-87001D01*
X-88000Y-158001D01*
X90002Y112999D02*
Y108001D01*
X91001Y107001D01*
X93001D01*
X94000Y108001D01*
Y112999D01*
X99998Y107001D02*
X96000D01*
X99998Y111000D01*
Y111999D01*
X98999Y112999D01*
X96999D01*
X96000Y111999D01*
X-93998Y-626001D02*
Y-630999D01*
X-92999Y-631999D01*
X-90999D01*
X-90000Y-630999D01*
Y-626001D01*
X-84002Y-631999D02*
X-88000D01*
X-84002Y-628000D01*
Y-627001D01*
X-85001Y-626001D01*
X-87001D01*
X-88000Y-627001D01*
X90002Y-358001D02*
Y-362999D01*
X91001Y-363999D01*
X93001D01*
X94000Y-362999D01*
Y-358001D01*
X99998Y-363999D02*
X96000D01*
X99998Y-360000D01*
Y-359001D01*
X98999Y-358001D01*
X96999D01*
X96000Y-359001D01*
X-88999Y522999D02*
Y518001D01*
X-87999Y517001D01*
X-86000D01*
X-85000Y518001D01*
Y522999D01*
X-83001Y517001D02*
X-81001D01*
X-82001D01*
Y522999D01*
X-83001Y521999D01*
X-88999Y51999D02*
Y47001D01*
X-87999Y46001D01*
X-86000D01*
X-85000Y47001D01*
Y51999D01*
X-83001Y46001D02*
X-81001D01*
X-82001D01*
Y51999D01*
X-83001Y50999D01*
X-87999Y-416001D02*
Y-420999D01*
X-86999Y-421999D01*
X-85000D01*
X-84000Y-420999D01*
Y-416001D01*
X-82001Y-421999D02*
X-80001D01*
X-81001D01*
Y-416001D01*
X-82001Y-417001D01*
X92001Y362999D02*
Y358001D01*
X93001Y357001D01*
X95000D01*
X96000Y358001D01*
Y362999D01*
X97999Y357001D02*
X99999D01*
X98999D01*
Y362999D01*
X97999Y361999D01*
X87001Y-106001D02*
Y-110999D01*
X88001Y-111999D01*
X90000D01*
X91000Y-110999D01*
Y-106001D01*
X92999Y-111999D02*
X94999D01*
X93999D01*
Y-106001D01*
X92999Y-107001D01*
X86001Y-578001D02*
Y-582999D01*
X87001Y-583999D01*
X89000D01*
X90000Y-582999D01*
Y-578001D01*
X91999Y-583999D02*
X93999D01*
X92999D01*
Y-578001D01*
X91999Y-579001D01*
X-34997Y670001D02*
Y675999D01*
X-31998D01*
X-30999Y674999D01*
Y673000D01*
X-31998Y672000D01*
X-34997D01*
X-32998D02*
X-30999Y670001D01*
X-28999Y674999D02*
X-28000Y675999D01*
X-26000D01*
X-25001Y674999D01*
Y674000D01*
X-26000Y673000D01*
X-27000D01*
X-26000D01*
X-25001Y672000D01*
Y671001D01*
X-26000Y670001D01*
X-28000D01*
X-28999Y671001D01*
X-23001Y674999D02*
X-22002Y675999D01*
X-20002D01*
X-19003Y674999D01*
Y671001D01*
X-20002Y670001D01*
X-22002D01*
X-23001Y671001D01*
Y674999D01*
X-34997Y695001D02*
Y700999D01*
X-31998D01*
X-30999Y699999D01*
Y698000D01*
X-31998Y697000D01*
X-34997D01*
X-32998D02*
X-30999Y695001D01*
X-25001D02*
X-28999D01*
X-25001Y699000D01*
Y699999D01*
X-26000Y700999D01*
X-28000D01*
X-28999Y699999D01*
X-23001Y700999D02*
X-19003D01*
Y699999D01*
X-23001Y696001D01*
Y695001D01*
X-219997Y682001D02*
Y687999D01*
X-216998D01*
X-215999Y686999D01*
Y685000D01*
X-216998Y684000D01*
X-219997D01*
X-217998D02*
X-215999Y682001D01*
X-210001D02*
X-213999D01*
X-210001Y686000D01*
Y686999D01*
X-211000Y687999D01*
X-213000D01*
X-213999Y686999D01*
X-208001Y683001D02*
X-207002Y682001D01*
X-205002D01*
X-204003Y683001D01*
Y686999D01*
X-205002Y687999D01*
X-207002D01*
X-208001Y686999D01*
Y686000D01*
X-207002Y685000D01*
X-204003D01*
X-34998Y732001D02*
Y737999D01*
X-31999D01*
X-30999Y736999D01*
Y735000D01*
X-31999Y734000D01*
X-34998D01*
X-32998D02*
X-30999Y732001D01*
X-25001D02*
X-29000D01*
X-25001Y736000D01*
Y736999D01*
X-26001Y737999D01*
X-28000D01*
X-29000Y736999D01*
X-23002Y732001D02*
X-21002D01*
X-22002D01*
Y737999D01*
X-23002Y736999D01*
X-58997Y-213999D02*
Y-208001D01*
X-55998D01*
X-54999Y-209001D01*
Y-211000D01*
X-55998Y-212000D01*
X-58997D01*
X-56998D02*
X-54999Y-213999D01*
X-49001D02*
X-52999D01*
X-49001Y-210000D01*
Y-209001D01*
X-50000Y-208001D01*
X-52000D01*
X-52999Y-209001D01*
X-47001D02*
X-46002Y-208001D01*
X-44002D01*
X-43003Y-209001D01*
Y-212999D01*
X-44002Y-213999D01*
X-46002D01*
X-47001Y-212999D01*
Y-209001D01*
X-58498Y-240999D02*
Y-235001D01*
X-55498D01*
X-54499Y-236001D01*
Y-238000D01*
X-55498Y-239000D01*
X-58498D01*
X-56498D02*
X-54499Y-240999D01*
X-52499D02*
X-50500D01*
X-51500D01*
Y-235001D01*
X-52499Y-236001D01*
X-47501Y-239999D02*
X-46501Y-240999D01*
X-44502D01*
X-43502Y-239999D01*
Y-236001D01*
X-44502Y-235001D01*
X-46501D01*
X-47501Y-236001D01*
Y-237000D01*
X-46501Y-238000D01*
X-43502D01*
X-58498Y-231999D02*
Y-226001D01*
X-55498D01*
X-54499Y-227001D01*
Y-229000D01*
X-55498Y-230000D01*
X-58498D01*
X-56498D02*
X-54499Y-231999D01*
X-52499D02*
X-50500D01*
X-51500D01*
Y-226001D01*
X-52499Y-227001D01*
X-47501D02*
X-46501Y-226001D01*
X-44502D01*
X-43502Y-227001D01*
Y-228000D01*
X-44502Y-229000D01*
X-43502Y-230000D01*
Y-230999D01*
X-44502Y-231999D01*
X-46501D01*
X-47501Y-230999D01*
Y-230000D01*
X-46501Y-229000D01*
X-47501Y-228000D01*
Y-227001D01*
X-46501Y-229000D02*
X-44502D01*
X7999Y-737498D02*
X2001D01*
Y-734499D01*
X3001Y-733499D01*
X5000D01*
X6000Y-734499D01*
Y-737498D01*
Y-735498D02*
X7999Y-733499D01*
Y-731499D02*
Y-729500D01*
Y-730500D01*
X2001D01*
X3001Y-731499D01*
X2001Y-726501D02*
Y-722502D01*
X3001D01*
X6999Y-726501D01*
X7999D01*
X13999Y653503D02*
X8001D01*
Y656501D01*
X9001Y657501D01*
X11000D01*
X12000Y656501D01*
Y653503D01*
Y655502D02*
X13999Y657501D01*
Y659501D02*
Y661500D01*
Y660500D01*
X8001D01*
X9001Y659501D01*
X8001Y664499D02*
Y668498D01*
X9001D01*
X12999Y664499D01*
X13999D01*
X13999Y183502D02*
X8001D01*
Y186502D01*
X9001Y187501D01*
X11000D01*
X12000Y186502D01*
Y183502D01*
Y185502D02*
X13999Y187501D01*
Y189501D02*
Y191500D01*
Y190500D01*
X8001D01*
X9001Y189501D01*
X8001Y194499D02*
Y198498D01*
X9001D01*
X12999Y194499D01*
X13999D01*
Y-286498D02*
X8001D01*
Y-283498D01*
X9001Y-282499D01*
X11000D01*
X12000Y-283498D01*
Y-286498D01*
Y-284498D02*
X13999Y-282499D01*
Y-280499D02*
Y-278500D01*
Y-279500D01*
X8001D01*
X9001Y-280499D01*
X8001Y-275501D02*
Y-271502D01*
X9001D01*
X12999Y-275501D01*
X13999D01*
X-52001Y-737498D02*
X-57999D01*
Y-734499D01*
X-56999Y-733499D01*
X-55000D01*
X-54000Y-734499D01*
Y-737498D01*
Y-735498D02*
X-52001Y-733499D01*
Y-731499D02*
Y-729500D01*
Y-730500D01*
X-57999D01*
X-56999Y-731499D01*
X-57999Y-722502D02*
X-56999Y-724502D01*
X-55000Y-726501D01*
X-53001D01*
X-52001Y-725501D01*
Y-723502D01*
X-53001Y-722502D01*
X-54000D01*
X-55000Y-723502D01*
Y-726501D01*
X74999Y653503D02*
X69001D01*
Y656501D01*
X70001Y657501D01*
X72000D01*
X73000Y656501D01*
Y653503D01*
Y655502D02*
X74999Y657501D01*
Y659501D02*
Y661500D01*
Y660500D01*
X69001D01*
X70001Y659501D01*
X69001Y668498D02*
X70001Y666498D01*
X72000Y664499D01*
X73999D01*
X74999Y665499D01*
Y667498D01*
X73999Y668498D01*
X73000D01*
X72000Y667498D01*
Y664499D01*
X73999Y183502D02*
X68001D01*
Y186502D01*
X69001Y187501D01*
X71000D01*
X72000Y186502D01*
Y183502D01*
Y185502D02*
X73999Y187501D01*
Y189501D02*
Y191500D01*
Y190500D01*
X68001D01*
X69001Y189501D01*
X68001Y198498D02*
X69001Y196498D01*
X71000Y194499D01*
X72999D01*
X73999Y195499D01*
Y197498D01*
X72999Y198498D01*
X72000D01*
X71000Y197498D01*
Y194499D01*
X73999Y-286498D02*
X68001D01*
Y-283498D01*
X69001Y-282499D01*
X71000D01*
X72000Y-283498D01*
Y-286498D01*
Y-284498D02*
X73999Y-282499D01*
Y-280499D02*
Y-278500D01*
Y-279500D01*
X68001D01*
X69001Y-280499D01*
X68001Y-271502D02*
X69001Y-273502D01*
X71000Y-275501D01*
X72999D01*
X73999Y-274501D01*
Y-272502D01*
X72999Y-271502D01*
X72000D01*
X71000Y-272502D01*
Y-275501D01*
X217999Y565502D02*
X212001D01*
Y568502D01*
X213001Y569501D01*
X215000D01*
X216000Y568502D01*
Y565502D01*
Y567502D02*
X217999Y569501D01*
Y571501D02*
Y573500D01*
Y572500D01*
X212001D01*
X213001Y571501D01*
X212001Y580498D02*
Y576499D01*
X215000D01*
X214000Y578498D01*
Y579498D01*
X215000Y580498D01*
X216999D01*
X217999Y579498D01*
Y577499D01*
X216999Y576499D01*
X216999Y96502D02*
X211001D01*
Y99501D01*
X212001Y100501D01*
X214000D01*
X215000Y99501D01*
Y96502D01*
Y98502D02*
X216999Y100501D01*
Y102500D02*
Y104500D01*
Y103500D01*
X211001D01*
X212001Y102500D01*
X211001Y111498D02*
Y107499D01*
X214000D01*
X213000Y109498D01*
Y110498D01*
X214000Y111498D01*
X215999D01*
X216999Y110498D01*
Y108498D01*
X215999Y107499D01*
X-197001Y-645498D02*
X-202999D01*
Y-642498D01*
X-201999Y-641499D01*
X-200000D01*
X-199000Y-642498D01*
Y-645498D01*
Y-643498D02*
X-197001Y-641499D01*
Y-639500D02*
Y-637500D01*
Y-638500D01*
X-202999D01*
X-201999Y-639500D01*
X-202999Y-630502D02*
Y-634501D01*
X-200000D01*
X-201000Y-632502D01*
Y-631502D01*
X-200000Y-630502D01*
X-198001D01*
X-197001Y-631502D01*
Y-633502D01*
X-198001Y-634501D01*
X215999Y-374497D02*
X210001D01*
Y-371498D01*
X211001Y-370499D01*
X213000D01*
X214000Y-371498D01*
Y-374497D01*
Y-372498D02*
X215999Y-370499D01*
Y-368499D02*
Y-366500D01*
Y-367500D01*
X210001D01*
X211001Y-368499D01*
X210001Y-359502D02*
Y-363501D01*
X213000D01*
X212000Y-361502D01*
Y-360502D01*
X213000Y-359502D01*
X214999D01*
X215999Y-360502D01*
Y-362501D01*
X214999Y-363501D01*
X234999Y549502D02*
X229001D01*
Y552501D01*
X230001Y553501D01*
X232000D01*
X233000Y552501D01*
Y549502D01*
Y551502D02*
X234999Y553501D01*
Y555500D02*
Y557500D01*
Y556500D01*
X229001D01*
X230001Y555500D01*
X234999Y563498D02*
X229001D01*
X232000Y560499D01*
Y564498D01*
X233999Y80502D02*
X228001D01*
Y83502D01*
X229001Y84501D01*
X231000D01*
X232000Y83502D01*
Y80502D01*
Y82502D02*
X233999Y84501D01*
Y86501D02*
Y88500D01*
Y87500D01*
X228001D01*
X229001Y86501D01*
X233999Y94498D02*
X228001D01*
X231000Y91499D01*
Y95498D01*
X-222001Y-613498D02*
X-227999D01*
Y-610499D01*
X-226999Y-609499D01*
X-225000D01*
X-224000Y-610499D01*
Y-613498D01*
Y-611498D02*
X-222001Y-609499D01*
Y-607500D02*
Y-605500D01*
Y-606500D01*
X-227999D01*
X-226999Y-607500D01*
X-222001Y-599502D02*
X-227999D01*
X-225000Y-602501D01*
Y-598502D01*
X232999Y-390498D02*
X227001D01*
Y-387499D01*
X228001Y-386499D01*
X230000D01*
X231000Y-387499D01*
Y-390498D01*
Y-388498D02*
X232999Y-386499D01*
Y-384500D02*
Y-382500D01*
Y-383500D01*
X227001D01*
X228001Y-384500D01*
X232999Y-376502D02*
X227001D01*
X230000Y-379501D01*
Y-375502D01*
X210502Y539001D02*
Y544999D01*
X213501D01*
X214501Y543999D01*
Y542000D01*
X213501Y541000D01*
X210502D01*
X212502D02*
X214501Y539001D01*
X216500D02*
X218500D01*
X217500D01*
Y544999D01*
X216500Y543999D01*
X221499D02*
X222498Y544999D01*
X224498D01*
X225498Y543999D01*
Y543000D01*
X224498Y542000D01*
X223498D01*
X224498D01*
X225498Y541000D01*
Y540001D01*
X224498Y539001D01*
X222498D01*
X221499Y540001D01*
X209503Y71001D02*
Y76999D01*
X212502D01*
X213501Y75999D01*
Y74000D01*
X212502Y73000D01*
X209503D01*
X211502D02*
X213501Y71001D01*
X215501D02*
X217500D01*
X216500D01*
Y76999D01*
X215501Y75999D01*
X220499D02*
X221499Y76999D01*
X223498D01*
X224498Y75999D01*
Y75000D01*
X223498Y74000D01*
X222498D01*
X223498D01*
X224498Y73000D01*
Y72001D01*
X223498Y71001D01*
X221499D01*
X220499Y72001D01*
X-218498Y-594999D02*
Y-589001D01*
X-215499D01*
X-214499Y-590001D01*
Y-592000D01*
X-215499Y-593000D01*
X-218498D01*
X-216498D02*
X-214499Y-594999D01*
X-212500D02*
X-210500D01*
X-211500D01*
Y-589001D01*
X-212500Y-590001D01*
X-207501D02*
X-206502Y-589001D01*
X-204502D01*
X-203502Y-590001D01*
Y-591000D01*
X-204502Y-592000D01*
X-205502D01*
X-204502D01*
X-203502Y-593000D01*
Y-593999D01*
X-204502Y-594999D01*
X-206502D01*
X-207501Y-593999D01*
X209503Y-399999D02*
Y-394001D01*
X212502D01*
X213501Y-395001D01*
Y-397000D01*
X212502Y-398000D01*
X209503D01*
X211502D02*
X213501Y-399999D01*
X215501D02*
X217500D01*
X216500D01*
Y-394001D01*
X215501Y-395001D01*
X220499D02*
X221499Y-394001D01*
X223498D01*
X224498Y-395001D01*
Y-396000D01*
X223498Y-397000D01*
X222498D01*
X223498D01*
X224498Y-398000D01*
Y-398999D01*
X223498Y-399999D01*
X221499D01*
X220499Y-398999D01*
X242999Y549502D02*
X237001D01*
Y552501D01*
X238001Y553501D01*
X240000D01*
X241000Y552501D01*
Y549502D01*
Y551502D02*
X242999Y553501D01*
Y555500D02*
Y557500D01*
Y556500D01*
X237001D01*
X238001Y555500D01*
X242999Y564498D02*
Y560499D01*
X239000Y564498D01*
X238001D01*
X237001Y563498D01*
Y561498D01*
X238001Y560499D01*
X241999Y80502D02*
X236001D01*
Y83502D01*
X237001Y84501D01*
X239000D01*
X240000Y83502D01*
Y80502D01*
Y82502D02*
X241999Y84501D01*
Y86501D02*
Y88500D01*
Y87500D01*
X236001D01*
X237001Y86501D01*
X241999Y95498D02*
Y91499D01*
X238000Y95498D01*
X237001D01*
X236001Y94498D01*
Y92499D01*
X237001Y91499D01*
X-230001Y-613498D02*
X-235999D01*
Y-610499D01*
X-234999Y-609499D01*
X-233000D01*
X-232000Y-610499D01*
Y-613498D01*
Y-611498D02*
X-230001Y-609499D01*
Y-607500D02*
Y-605500D01*
Y-606500D01*
X-235999D01*
X-234999Y-607500D01*
X-230001Y-598502D02*
Y-602501D01*
X-234000Y-598502D01*
X-234999D01*
X-235999Y-599502D01*
Y-601502D01*
X-234999Y-602501D01*
X240999Y-390498D02*
X235001D01*
Y-387499D01*
X236001Y-386499D01*
X238000D01*
X239000Y-387499D01*
Y-390498D01*
Y-388498D02*
X240999Y-386499D01*
Y-384500D02*
Y-382500D01*
Y-383500D01*
X235001D01*
X236001Y-384500D01*
X240999Y-375502D02*
Y-379501D01*
X237000Y-375502D01*
X236001D01*
X235001Y-376502D01*
Y-378502D01*
X236001Y-379501D01*
X210502Y530001D02*
Y535999D01*
X213501D01*
X214501Y534999D01*
Y533000D01*
X213501Y532000D01*
X210502D01*
X212502D02*
X214501Y530001D01*
X216500D02*
X218500D01*
X217500D01*
Y535999D01*
X216500Y534999D01*
X221499Y530001D02*
X223498D01*
X222498D01*
Y535999D01*
X221499Y534999D01*
X209502Y61001D02*
Y66999D01*
X212501D01*
X213501Y65999D01*
Y64000D01*
X212501Y63000D01*
X209502D01*
X211502D02*
X213501Y61001D01*
X215500D02*
X217500D01*
X216500D01*
Y66999D01*
X215500Y65999D01*
X220499Y61001D02*
X222498D01*
X221498D01*
Y66999D01*
X220499Y65999D01*
X-218498Y-585999D02*
Y-580001D01*
X-215499D01*
X-214499Y-581001D01*
Y-583000D01*
X-215499Y-584000D01*
X-218498D01*
X-216499D02*
X-214499Y-585999D01*
X-212500D02*
X-210501D01*
X-211500D01*
Y-580001D01*
X-212500Y-581001D01*
X-207502Y-585999D02*
X-205502D01*
X-206502D01*
Y-580001D01*
X-207502Y-581001D01*
X209502Y-409999D02*
Y-404001D01*
X212501D01*
X213501Y-405001D01*
Y-407000D01*
X212501Y-408000D01*
X209502D01*
X211502D02*
X213501Y-409999D01*
X215500D02*
X217500D01*
X216500D01*
Y-404001D01*
X215500Y-405001D01*
X220499Y-409999D02*
X222498D01*
X221498D01*
Y-404001D01*
X220499Y-405001D01*
X-316001Y-366998D02*
X-321999D01*
Y-363999D01*
X-320999Y-363000D01*
X-319000D01*
X-318000Y-363999D01*
Y-366998D01*
Y-364999D02*
X-316001Y-363000D01*
X-317001Y-361000D02*
X-316001Y-360001D01*
Y-358001D01*
X-317001Y-357002D01*
X-320999D01*
X-321999Y-358001D01*
Y-360001D01*
X-320999Y-361000D01*
X-320000D01*
X-319000Y-360001D01*
Y-357002D01*
X344999Y324002D02*
X339001D01*
Y327001D01*
X340001Y328000D01*
X342000D01*
X343000Y327001D01*
Y324002D01*
Y326001D02*
X344999Y328000D01*
X343999Y330000D02*
X344999Y330999D01*
Y332999D01*
X343999Y333998D01*
X340001D01*
X339001Y332999D01*
Y330999D01*
X340001Y330000D01*
X341000D01*
X342000Y330999D01*
Y333998D01*
X345999Y-144998D02*
X340001D01*
Y-141999D01*
X341001Y-141000D01*
X343000D01*
X344000Y-141999D01*
Y-144998D01*
Y-142999D02*
X345999Y-141000D01*
X344999Y-139000D02*
X345999Y-138001D01*
Y-136001D01*
X344999Y-135002D01*
X341001D01*
X340001Y-136001D01*
Y-138001D01*
X341001Y-139000D01*
X342000D01*
X343000Y-138001D01*
Y-135002D01*
X345999Y-615998D02*
X340001D01*
Y-612999D01*
X341001Y-612000D01*
X343000D01*
X344000Y-612999D01*
Y-615998D01*
Y-613999D02*
X345999Y-612000D01*
X344999Y-610000D02*
X345999Y-609001D01*
Y-607001D01*
X344999Y-606002D01*
X341001D01*
X340001Y-607001D01*
Y-609001D01*
X341001Y-610000D01*
X342000D01*
X343000Y-609001D01*
Y-606002D01*
X-316001Y-464497D02*
X-321999D01*
Y-461498D01*
X-320999Y-460499D01*
X-319000D01*
X-318000Y-461498D01*
Y-464497D01*
Y-462498D02*
X-316001Y-460499D01*
Y-458499D02*
Y-456500D01*
Y-457500D01*
X-321999D01*
X-320999Y-458499D01*
Y-453501D02*
X-321999Y-452501D01*
Y-450502D01*
X-320999Y-449502D01*
X-317001D01*
X-316001Y-450502D01*
Y-452501D01*
X-317001Y-453501D01*
X-320999D01*
X344999Y417502D02*
X339001D01*
Y420502D01*
X340001Y421501D01*
X342000D01*
X343000Y420502D01*
Y417502D01*
Y419502D02*
X344999Y421501D01*
Y423501D02*
Y425500D01*
Y424500D01*
X339001D01*
X340001Y423501D01*
Y428499D02*
X339001Y429498D01*
Y431498D01*
X340001Y432498D01*
X343999D01*
X344999Y431498D01*
Y429498D01*
X343999Y428499D01*
X340001D01*
X345999Y-51498D02*
X340001D01*
Y-48499D01*
X341001Y-47499D01*
X343000D01*
X344000Y-48499D01*
Y-51498D01*
Y-49498D02*
X345999Y-47499D01*
Y-45500D02*
Y-43500D01*
Y-44500D01*
X340001D01*
X341001Y-45500D01*
Y-40501D02*
X340001Y-39501D01*
Y-37502D01*
X341001Y-36502D01*
X344999D01*
X345999Y-37502D01*
Y-39501D01*
X344999Y-40501D01*
X341001D01*
X345999Y-521497D02*
X340001D01*
Y-518498D01*
X341001Y-517499D01*
X343000D01*
X344000Y-518498D01*
Y-521497D01*
Y-519498D02*
X345999Y-517499D01*
Y-515499D02*
Y-513500D01*
Y-514500D01*
X340001D01*
X341001Y-515499D01*
Y-510501D02*
X340001Y-509501D01*
Y-507502D01*
X341001Y-506502D01*
X344999D01*
X345999Y-507502D01*
Y-509501D01*
X344999Y-510501D01*
X341001D01*
X-316001Y-429998D02*
X-321999D01*
Y-426999D01*
X-320999Y-426000D01*
X-319000D01*
X-318000Y-426999D01*
Y-429998D01*
Y-427999D02*
X-316001Y-426000D01*
X-320999Y-424000D02*
X-321999Y-423001D01*
Y-421001D01*
X-320999Y-420002D01*
X-320000D01*
X-319000Y-421001D01*
X-318000Y-420002D01*
X-317001D01*
X-316001Y-421001D01*
Y-423001D01*
X-317001Y-424000D01*
X-318000D01*
X-319000Y-423001D01*
X-320000Y-424000D01*
X-320999D01*
X-319000Y-423001D02*
Y-421001D01*
X344999Y389002D02*
X339001D01*
Y392001D01*
X340001Y393000D01*
X342000D01*
X343000Y392001D01*
Y389002D01*
Y391001D02*
X344999Y393000D01*
X340001Y395000D02*
X339001Y395999D01*
Y397999D01*
X340001Y398998D01*
X341000D01*
X342000Y397999D01*
X343000Y398998D01*
X343999D01*
X344999Y397999D01*
Y395999D01*
X343999Y395000D01*
X343000D01*
X342000Y395999D01*
X341000Y395000D01*
X340001D01*
X342000Y395999D02*
Y397999D01*
X345999Y-80998D02*
X340001D01*
Y-77999D01*
X341001Y-77000D01*
X343000D01*
X344000Y-77999D01*
Y-80998D01*
Y-78999D02*
X345999Y-77000D01*
X341001Y-75000D02*
X340001Y-74001D01*
Y-72001D01*
X341001Y-71002D01*
X342000D01*
X343000Y-72001D01*
X344000Y-71002D01*
X344999D01*
X345999Y-72001D01*
Y-74001D01*
X344999Y-75000D01*
X344000D01*
X343000Y-74001D01*
X342000Y-75000D01*
X341001D01*
X343000Y-74001D02*
Y-72001D01*
X345999Y-551998D02*
X340001D01*
Y-548999D01*
X341001Y-548000D01*
X343000D01*
X344000Y-548999D01*
Y-551998D01*
Y-549999D02*
X345999Y-548000D01*
X341001Y-546000D02*
X340001Y-545001D01*
Y-543001D01*
X341001Y-542002D01*
X342000D01*
X343000Y-543001D01*
X344000Y-542002D01*
X344999D01*
X345999Y-543001D01*
Y-545001D01*
X344999Y-546000D01*
X344000D01*
X343000Y-545001D01*
X342000Y-546000D01*
X341001D01*
X343000Y-545001D02*
Y-543001D01*
X-316001Y-396998D02*
X-321999D01*
Y-393999D01*
X-320999Y-393000D01*
X-319000D01*
X-318000Y-393999D01*
Y-396998D01*
Y-394999D02*
X-316001Y-393000D01*
X-321999Y-391000D02*
Y-387002D01*
X-320999D01*
X-317001Y-391000D01*
X-316001D01*
X344999Y356002D02*
X339001D01*
Y359001D01*
X340001Y360000D01*
X342000D01*
X343000Y359001D01*
Y356002D01*
Y358001D02*
X344999Y360000D01*
X339001Y362000D02*
Y365998D01*
X340001D01*
X343999Y362000D01*
X344999D01*
X345999Y-113998D02*
X340001D01*
Y-110999D01*
X341001Y-110000D01*
X343000D01*
X344000Y-110999D01*
Y-113998D01*
Y-111999D02*
X345999Y-110000D01*
X340001Y-108000D02*
Y-104002D01*
X341001D01*
X344999Y-108000D01*
X345999D01*
Y-582998D02*
X340001D01*
Y-579999D01*
X341001Y-579000D01*
X343000D01*
X344000Y-579999D01*
Y-582998D01*
Y-580999D02*
X345999Y-579000D01*
X340001Y-577000D02*
Y-573002D01*
X341001D01*
X344999Y-577000D01*
X345999D01*
X-172998Y-414999D02*
Y-409001D01*
X-169999D01*
X-169000Y-410001D01*
Y-412000D01*
X-169999Y-413000D01*
X-172998D01*
X-170999D02*
X-169000Y-414999D01*
X-164001D02*
Y-409001D01*
X-167000Y-412000D01*
X-163002D01*
X168002Y350001D02*
Y355999D01*
X171001D01*
X172000Y354999D01*
Y353000D01*
X171001Y352000D01*
X168002D01*
X170001D02*
X172000Y350001D01*
X176999D02*
Y355999D01*
X174000Y353000D01*
X177998D01*
X169002Y-118999D02*
Y-113001D01*
X172001D01*
X173000Y-114001D01*
Y-116000D01*
X172001Y-117000D01*
X169002D01*
X171001D02*
X173000Y-118999D01*
X177999D02*
Y-113001D01*
X175000Y-116000D01*
X178998D01*
X168002Y-589999D02*
Y-584001D01*
X171001D01*
X172000Y-585001D01*
Y-587000D01*
X171001Y-588000D01*
X168002D01*
X170001D02*
X172000Y-589999D01*
X176999D02*
Y-584001D01*
X174000Y-587000D01*
X177998D01*
X-190001Y-408998D02*
X-195999D01*
Y-405999D01*
X-194999Y-405000D01*
X-193000D01*
X-192000Y-405999D01*
Y-408998D01*
Y-406999D02*
X-190001Y-405000D01*
X-194999Y-403000D02*
X-195999Y-402001D01*
Y-400001D01*
X-194999Y-399002D01*
X-194000D01*
X-193000Y-400001D01*
Y-401001D01*
Y-400001D01*
X-192000Y-399002D01*
X-191001D01*
X-190001Y-400001D01*
Y-402001D01*
X-191001Y-403000D01*
X200999Y340002D02*
X195001D01*
Y343001D01*
X196001Y344000D01*
X198000D01*
X199000Y343001D01*
Y340002D01*
Y342001D02*
X200999Y344000D01*
X196001Y346000D02*
X195001Y346999D01*
Y348999D01*
X196001Y349998D01*
X197000D01*
X198000Y348999D01*
Y347999D01*
Y348999D01*
X199000Y349998D01*
X199999D01*
X200999Y348999D01*
Y346999D01*
X199999Y346000D01*
X201999Y-128998D02*
X196001D01*
Y-125999D01*
X197001Y-125000D01*
X199000D01*
X200000Y-125999D01*
Y-128998D01*
Y-126999D02*
X201999Y-125000D01*
X197001Y-123000D02*
X196001Y-122001D01*
Y-120001D01*
X197001Y-119002D01*
X198000D01*
X199000Y-120001D01*
Y-121001D01*
Y-120001D01*
X200000Y-119002D01*
X200999D01*
X201999Y-120001D01*
Y-122001D01*
X200999Y-123000D01*
X201999Y-599998D02*
X196001D01*
Y-596999D01*
X197001Y-596000D01*
X199000D01*
X200000Y-596999D01*
Y-599998D01*
Y-597999D02*
X201999Y-596000D01*
X197001Y-594000D02*
X196001Y-593001D01*
Y-591001D01*
X197001Y-590002D01*
X198000D01*
X199000Y-591001D01*
Y-592001D01*
Y-591001D01*
X200000Y-590002D01*
X200999D01*
X201999Y-591001D01*
Y-593001D01*
X200999Y-594000D01*
X-22001Y-764998D02*
X-27999D01*
Y-761999D01*
X-26999Y-761000D01*
X-25000D01*
X-24000Y-761999D01*
Y-764998D01*
Y-762999D02*
X-22001Y-761000D01*
Y-755002D02*
Y-759000D01*
X-26000Y-755002D01*
X-26999D01*
X-27999Y-756001D01*
Y-758001D01*
X-26999Y-759000D01*
X1Y-157999D02*
Y-152001D01*
X3000D01*
X4000Y-153001D01*
Y-155000D01*
X3000Y-156000D01*
X1D01*
X2001D02*
X4000Y-157999D01*
X5999D02*
X7999D01*
X6999D01*
Y-152001D01*
X5999Y-153001D01*
X-221999Y-373998D02*
X-216001D01*
Y-370999D01*
X-217001Y-370000D01*
X-220999D01*
X-221999Y-370999D01*
Y-373998D01*
X-220999Y-368000D02*
X-221999Y-367001D01*
Y-365001D01*
X-220999Y-364002D01*
X-220000D01*
X-219000Y-365001D01*
Y-366001D01*
Y-365001D01*
X-218000Y-364002D01*
X-217001D01*
X-216001Y-365001D01*
Y-367001D01*
X-217001Y-368000D01*
X221001Y305002D02*
X226999D01*
Y308001D01*
X225999Y309000D01*
X222001D01*
X221001Y308001D01*
Y305002D01*
X222001Y311000D02*
X221001Y311999D01*
Y313999D01*
X222001Y314998D01*
X223000D01*
X224000Y313999D01*
Y312999D01*
Y313999D01*
X225000Y314998D01*
X225999D01*
X226999Y313999D01*
Y311999D01*
X225999Y311000D01*
X221001Y-163998D02*
X226999D01*
Y-160999D01*
X225999Y-160000D01*
X222001D01*
X221001Y-160999D01*
Y-163998D01*
X222001Y-158000D02*
X221001Y-157001D01*
Y-155001D01*
X222001Y-154002D01*
X223000D01*
X224000Y-155001D01*
Y-156001D01*
Y-155001D01*
X225000Y-154002D01*
X225999D01*
X226999Y-155001D01*
Y-157001D01*
X225999Y-158000D01*
X221001Y-633998D02*
X226999D01*
Y-630999D01*
X225999Y-630000D01*
X222001D01*
X221001Y-630999D01*
Y-633998D01*
X222001Y-628000D02*
X221001Y-627001D01*
Y-625001D01*
X222001Y-624002D01*
X223000D01*
X224000Y-625001D01*
Y-626001D01*
Y-625001D01*
X225000Y-624002D01*
X225999D01*
X226999Y-625001D01*
Y-627001D01*
X225999Y-628000D01*
X-205999Y-375998D02*
X-200001D01*
Y-372999D01*
X-201001Y-372000D01*
X-204999D01*
X-205999Y-372999D01*
Y-375998D01*
X-200001Y-366002D02*
Y-370000D01*
X-204000Y-366002D01*
X-204999D01*
X-205999Y-367001D01*
Y-369001D01*
X-204999Y-370000D01*
X205001Y307002D02*
X210999D01*
Y310001D01*
X209999Y311000D01*
X206001D01*
X205001Y310001D01*
Y307002D01*
X210999Y316998D02*
Y313000D01*
X207000Y316998D01*
X206001D01*
X205001Y315999D01*
Y313999D01*
X206001Y313000D01*
X205001Y-161998D02*
X210999D01*
Y-158999D01*
X209999Y-158000D01*
X206001D01*
X205001Y-158999D01*
Y-161998D01*
X210999Y-152002D02*
Y-156000D01*
X207000Y-152002D01*
X206001D01*
X205001Y-153001D01*
Y-155001D01*
X206001Y-156000D01*
X205001Y-632998D02*
X210999D01*
Y-629999D01*
X209999Y-629000D01*
X206001D01*
X205001Y-629999D01*
Y-632998D01*
X210999Y-623002D02*
Y-627000D01*
X207000Y-623002D01*
X206001D01*
X205001Y-624001D01*
Y-626001D01*
X206001Y-627000D01*
X-194999Y-444001D02*
Y-449999D01*
X-192000D01*
X-191000Y-448999D01*
Y-445001D01*
X-192000Y-444001D01*
X-194999D01*
X-189001Y-449999D02*
X-187001D01*
X-188001D01*
Y-444001D01*
X-189001Y-445001D01*
X193001Y391999D02*
Y386001D01*
X196000D01*
X197000Y387001D01*
Y390999D01*
X196000Y391999D01*
X193001D01*
X198999Y386001D02*
X200999D01*
X199999D01*
Y391999D01*
X198999Y390999D01*
X192001Y-78001D02*
Y-83999D01*
X195000D01*
X196000Y-82999D01*
Y-79001D01*
X195000Y-78001D01*
X192001D01*
X197999Y-83999D02*
X199999D01*
X198999D01*
Y-78001D01*
X197999Y-79001D01*
X193001Y-548001D02*
Y-553999D01*
X196000D01*
X197000Y-552999D01*
Y-549001D01*
X196000Y-548001D01*
X193001D01*
X198999Y-553999D02*
X200999D01*
X199999D01*
Y-548001D01*
X198999Y-549001D01*
X-215999Y698999D02*
X-216998Y699999D01*
X-218998D01*
X-219997Y698999D01*
Y695001D01*
X-218998Y694001D01*
X-216998D01*
X-215999Y695001D01*
X-213999Y698999D02*
X-213000Y699999D01*
X-211000D01*
X-210001Y698999D01*
Y698000D01*
X-211000Y697000D01*
X-212000D01*
X-211000D01*
X-210001Y696000D01*
Y695001D01*
X-211000Y694001D01*
X-213000D01*
X-213999Y695001D01*
X-208001Y699999D02*
X-204003D01*
Y698999D01*
X-208001Y695001D01*
Y694001D01*
X-30999Y687999D02*
X-31998Y688999D01*
X-33998D01*
X-34997Y687999D01*
Y684001D01*
X-33998Y683001D01*
X-31998D01*
X-30999Y684001D01*
X-28999Y687999D02*
X-28000Y688999D01*
X-26000D01*
X-25001Y687999D01*
Y687000D01*
X-26000Y686000D01*
X-27000D01*
X-26000D01*
X-25001Y685000D01*
Y684001D01*
X-26000Y683001D01*
X-28000D01*
X-28999Y684001D01*
X-19003Y688999D02*
X-21002Y687999D01*
X-23001Y686000D01*
Y684001D01*
X-22002Y683001D01*
X-20002D01*
X-19003Y684001D01*
Y685000D01*
X-20002Y686000D01*
X-23001D01*
X-215999Y721999D02*
X-216998Y722999D01*
X-218998D01*
X-219997Y721999D01*
Y718001D01*
X-218998Y717001D01*
X-216998D01*
X-215999Y718001D01*
X-210001Y717001D02*
X-213999D01*
X-210001Y721000D01*
Y721999D01*
X-211000Y722999D01*
X-213000D01*
X-213999Y721999D01*
X-208001Y718001D02*
X-207002Y717001D01*
X-205002D01*
X-204003Y718001D01*
Y721999D01*
X-205002Y722999D01*
X-207002D01*
X-208001Y721999D01*
Y721000D01*
X-207002Y720000D01*
X-204003D01*
X-30999Y711999D02*
X-31998Y712999D01*
X-33998D01*
X-34997Y711999D01*
Y708001D01*
X-33998Y707001D01*
X-31998D01*
X-30999Y708001D01*
X-25001Y707001D02*
X-28999D01*
X-25001Y711000D01*
Y711999D01*
X-26000Y712999D01*
X-28000D01*
X-28999Y711999D01*
X-23001D02*
X-22002Y712999D01*
X-20002D01*
X-19003Y711999D01*
Y711000D01*
X-20002Y710000D01*
X-19003Y709000D01*
Y708001D01*
X-20002Y707001D01*
X-22002D01*
X-23001Y708001D01*
Y709000D01*
X-22002Y710000D01*
X-23001Y711000D01*
Y711999D01*
X-22002Y710000D02*
X-20002D01*
X-30999Y762999D02*
X-31998Y763999D01*
X-33998D01*
X-34997Y762999D01*
Y759001D01*
X-33998Y758001D01*
X-31998D01*
X-30999Y759001D01*
X-25001Y758001D02*
X-28999D01*
X-25001Y762000D01*
Y762999D01*
X-26000Y763999D01*
X-28000D01*
X-28999Y762999D01*
X-23001Y763999D02*
X-19003D01*
Y762999D01*
X-23001Y759001D01*
Y758001D01*
X-215999Y736999D02*
X-216998Y737999D01*
X-218998D01*
X-219997Y736999D01*
Y733001D01*
X-218998Y732001D01*
X-216998D01*
X-215999Y733001D01*
X-210001Y732001D02*
X-213999D01*
X-210001Y736000D01*
Y736999D01*
X-211000Y737999D01*
X-213000D01*
X-213999Y736999D01*
X-204003Y737999D02*
X-206002Y736999D01*
X-208001Y735000D01*
Y733001D01*
X-207002Y732001D01*
X-205002D01*
X-204003Y733001D01*
Y734000D01*
X-205002Y735000D01*
X-208001D01*
X1001Y-460999D02*
X1Y-461998D01*
Y-463998D01*
X1001Y-464997D01*
X4999D01*
X5999Y-463998D01*
Y-461998D01*
X4999Y-460999D01*
X5999Y-455001D02*
Y-458999D01*
X2000Y-455001D01*
X1001D01*
X1Y-456000D01*
Y-458000D01*
X1001Y-458999D01*
X1Y-449003D02*
Y-453001D01*
X3000D01*
X2000Y-451002D01*
Y-450002D01*
X3000Y-449003D01*
X4999D01*
X5999Y-450002D01*
Y-452002D01*
X4999Y-453001D01*
X-20999Y-359999D02*
X-21999Y-360998D01*
Y-362998D01*
X-20999Y-363997D01*
X-17001D01*
X-16001Y-362998D01*
Y-360998D01*
X-17001Y-359999D01*
X-16001Y-354001D02*
Y-357999D01*
X-20000Y-354001D01*
X-20999D01*
X-21999Y-355000D01*
Y-357000D01*
X-20999Y-357999D01*
X-16001Y-349002D02*
X-21999D01*
X-19000Y-352001D01*
Y-348003D01*
X-54999Y-218001D02*
X-55998Y-217001D01*
X-57998D01*
X-58997Y-218001D01*
Y-221999D01*
X-57998Y-222999D01*
X-55998D01*
X-54999Y-221999D01*
X-49001Y-222999D02*
X-52999D01*
X-49001Y-219000D01*
Y-218001D01*
X-50000Y-217001D01*
X-52000D01*
X-52999Y-218001D01*
X-47001D02*
X-46002Y-217001D01*
X-44002D01*
X-43003Y-218001D01*
Y-219000D01*
X-44002Y-220000D01*
X-45002D01*
X-44002D01*
X-43003Y-221000D01*
Y-221999D01*
X-44002Y-222999D01*
X-46002D01*
X-47001Y-221999D01*
X-33999Y-519999D02*
X-34999Y-520998D01*
Y-522998D01*
X-33999Y-523997D01*
X-30001D01*
X-29001Y-522998D01*
Y-520998D01*
X-30001Y-519999D01*
X-29001Y-514001D02*
Y-517999D01*
X-33000Y-514001D01*
X-33999D01*
X-34999Y-515000D01*
Y-517000D01*
X-33999Y-517999D01*
X-29001Y-508003D02*
Y-512001D01*
X-33000Y-508003D01*
X-33999D01*
X-34999Y-509002D01*
Y-511002D01*
X-33999Y-512001D01*
X-43999Y-519999D02*
X-44999Y-520998D01*
Y-522998D01*
X-43999Y-523997D01*
X-40001D01*
X-39001Y-522998D01*
Y-520998D01*
X-40001Y-519999D01*
X-39001Y-514001D02*
Y-517999D01*
X-43000Y-514001D01*
X-43999D01*
X-44999Y-515000D01*
Y-517000D01*
X-43999Y-517999D01*
X-39001Y-508003D02*
Y-512001D01*
X-43000Y-508003D01*
X-43999D01*
X-44999Y-509002D01*
Y-511002D01*
X-43999Y-512001D01*
Y-401999D02*
X-44999Y-402998D01*
Y-404998D01*
X-43999Y-405997D01*
X-40001D01*
X-39001Y-404998D01*
Y-402998D01*
X-40001Y-401999D01*
X-39001Y-396001D02*
Y-399999D01*
X-43000Y-396001D01*
X-43999D01*
X-44999Y-397000D01*
Y-399000D01*
X-43999Y-399999D01*
X-39001Y-390003D02*
Y-394001D01*
X-43000Y-390003D01*
X-43999D01*
X-44999Y-391002D01*
Y-393002D01*
X-43999Y-394001D01*
X-33999Y-401999D02*
X-34999Y-402998D01*
Y-404998D01*
X-33999Y-405997D01*
X-30001D01*
X-29001Y-404998D01*
Y-402998D01*
X-30001Y-401999D01*
X-29001Y-396001D02*
Y-399999D01*
X-33000Y-396001D01*
X-33999D01*
X-34999Y-397000D01*
Y-399000D01*
X-33999Y-399999D01*
X-29001Y-390003D02*
Y-394001D01*
X-33000Y-390003D01*
X-33999D01*
X-34999Y-391002D01*
Y-393002D01*
X-33999Y-394001D01*
X3001Y-715999D02*
X2001Y-716999D01*
Y-718998D01*
X3001Y-719998D01*
X6999D01*
X7999Y-718998D01*
Y-716999D01*
X6999Y-715999D01*
X7999Y-710001D02*
Y-714000D01*
X4000Y-710001D01*
X3001D01*
X2001Y-711001D01*
Y-713000D01*
X3001Y-714000D01*
X7999Y-708002D02*
Y-706002D01*
Y-707002D01*
X2001D01*
X3001Y-708002D01*
X9001Y641001D02*
X8001Y640001D01*
Y638002D01*
X9001Y637002D01*
X12999D01*
X13999Y638002D01*
Y640001D01*
X12999Y641001D01*
X13999Y646999D02*
Y643000D01*
X10000Y646999D01*
X9001D01*
X8001Y645999D01*
Y644000D01*
X9001Y643000D01*
X13999Y648998D02*
Y650998D01*
Y649998D01*
X8001D01*
X9001Y648998D01*
X9001Y171001D02*
X8001Y170001D01*
Y168002D01*
X9001Y167002D01*
X12999D01*
X13999Y168002D01*
Y170001D01*
X12999Y171001D01*
X13999Y176999D02*
Y173000D01*
X10000Y176999D01*
X9001D01*
X8001Y175999D01*
Y174000D01*
X9001Y173000D01*
X13999Y178998D02*
Y180998D01*
Y179998D01*
X8001D01*
X9001Y178998D01*
Y-298999D02*
X8001Y-299999D01*
Y-301998D01*
X9001Y-302998D01*
X12999D01*
X13999Y-301998D01*
Y-299999D01*
X12999Y-298999D01*
X13999Y-293001D02*
Y-297000D01*
X10000Y-293001D01*
X9001D01*
X8001Y-294001D01*
Y-296000D01*
X9001Y-297000D01*
X13999Y-291002D02*
Y-289002D01*
Y-290002D01*
X8001D01*
X9001Y-291002D01*
X-56999Y-715999D02*
X-57999Y-716998D01*
Y-718998D01*
X-56999Y-719997D01*
X-53001D01*
X-52001Y-718998D01*
Y-716998D01*
X-53001Y-715999D01*
X-52001Y-710001D02*
Y-713999D01*
X-56000Y-710001D01*
X-56999D01*
X-57999Y-711000D01*
Y-713000D01*
X-56999Y-713999D01*
Y-708001D02*
X-57999Y-707002D01*
Y-705002D01*
X-56999Y-704003D01*
X-53001D01*
X-52001Y-705002D01*
Y-707002D01*
X-53001Y-708001D01*
X-56999D01*
X70001Y638001D02*
X69001Y637002D01*
Y635002D01*
X70001Y634003D01*
X73999D01*
X74999Y635002D01*
Y637002D01*
X73999Y638001D01*
X74999Y643999D02*
Y640001D01*
X71000Y643999D01*
X70001D01*
X69001Y643000D01*
Y641000D01*
X70001Y640001D01*
Y645999D02*
X69001Y646998D01*
Y648998D01*
X70001Y649997D01*
X73999D01*
X74999Y648998D01*
Y646998D01*
X73999Y645999D01*
X70001D01*
X69001Y169001D02*
X68001Y168002D01*
Y166002D01*
X69001Y165003D01*
X72999D01*
X73999Y166002D01*
Y168002D01*
X72999Y169001D01*
X73999Y174999D02*
Y171001D01*
X70000Y174999D01*
X69001D01*
X68001Y174000D01*
Y172000D01*
X69001Y171001D01*
Y176999D02*
X68001Y177998D01*
Y179998D01*
X69001Y180997D01*
X72999D01*
X73999Y179998D01*
Y177998D01*
X72999Y176999D01*
X69001D01*
Y-300999D02*
X68001Y-301998D01*
Y-303998D01*
X69001Y-304997D01*
X72999D01*
X73999Y-303998D01*
Y-301998D01*
X72999Y-300999D01*
X73999Y-295001D02*
Y-298999D01*
X70000Y-295001D01*
X69001D01*
X68001Y-296000D01*
Y-298000D01*
X69001Y-298999D01*
Y-293001D02*
X68001Y-292002D01*
Y-290002D01*
X69001Y-289003D01*
X72999D01*
X73999Y-290002D01*
Y-292002D01*
X72999Y-293001D01*
X69001D01*
X188001Y569501D02*
X187001Y568502D01*
Y566502D01*
X188001Y565502D01*
X191999D01*
X192999Y566502D01*
Y568502D01*
X191999Y569501D01*
X192999Y571501D02*
Y573500D01*
Y572500D01*
X187001D01*
X188001Y571501D01*
X191999Y576499D02*
X192999Y577499D01*
Y579498D01*
X191999Y580498D01*
X188001D01*
X187001Y579498D01*
Y577499D01*
X188001Y576499D01*
X189000D01*
X190000Y577499D01*
Y580498D01*
X187001Y100501D02*
X186001Y99501D01*
Y97502D01*
X187001Y96502D01*
X190999D01*
X191999Y97502D01*
Y99501D01*
X190999Y100501D01*
X191999Y102500D02*
Y104500D01*
Y103500D01*
X186001D01*
X187001Y102500D01*
X190999Y107499D02*
X191999Y108498D01*
Y110498D01*
X190999Y111498D01*
X187001D01*
X186001Y110498D01*
Y108498D01*
X187001Y107499D01*
X188000D01*
X189000Y108498D01*
Y111498D01*
X-192999Y-641499D02*
X-193999Y-642498D01*
Y-644498D01*
X-192999Y-645498D01*
X-189001D01*
X-188001Y-644498D01*
Y-642498D01*
X-189001Y-641499D01*
X-188001Y-639500D02*
Y-637500D01*
Y-638500D01*
X-193999D01*
X-192999Y-639500D01*
X-189001Y-634501D02*
X-188001Y-633502D01*
Y-631502D01*
X-189001Y-630502D01*
X-192999D01*
X-193999Y-631502D01*
Y-633502D01*
X-192999Y-634501D01*
X-192000D01*
X-191000Y-633502D01*
Y-630502D01*
X187001Y-370499D02*
X186001Y-371498D01*
Y-373498D01*
X187001Y-374497D01*
X190999D01*
X191999Y-373498D01*
Y-371498D01*
X190999Y-370499D01*
X191999Y-368499D02*
Y-366500D01*
Y-367500D01*
X186001D01*
X187001Y-368499D01*
X190999Y-363501D02*
X191999Y-362501D01*
Y-360502D01*
X190999Y-359502D01*
X187001D01*
X186001Y-360502D01*
Y-362501D01*
X187001Y-363501D01*
X188000D01*
X189000Y-362501D01*
Y-359502D01*
X222001Y553501D02*
X221001Y552501D01*
Y550502D01*
X222001Y549502D01*
X225999D01*
X226999Y550502D01*
Y552501D01*
X225999Y553501D01*
X226999Y555500D02*
Y557500D01*
Y556500D01*
X221001D01*
X222001Y555500D01*
Y560499D02*
X221001Y561498D01*
Y563498D01*
X222001Y564498D01*
X223000D01*
X224000Y563498D01*
X225000Y564498D01*
X225999D01*
X226999Y563498D01*
Y561498D01*
X225999Y560499D01*
X225000D01*
X224000Y561498D01*
X223000Y560499D01*
X222001D01*
X224000Y561498D02*
Y563498D01*
X221001Y84501D02*
X220001Y83502D01*
Y81502D01*
X221001Y80502D01*
X224999D01*
X225999Y81502D01*
Y83502D01*
X224999Y84501D01*
X225999Y86501D02*
Y88500D01*
Y87500D01*
X220001D01*
X221001Y86501D01*
Y91499D02*
X220001Y92499D01*
Y94498D01*
X221001Y95498D01*
X222000D01*
X223000Y94498D01*
X224000Y95498D01*
X224999D01*
X225999Y94498D01*
Y92499D01*
X224999Y91499D01*
X224000D01*
X223000Y92499D01*
X222000Y91499D01*
X221001D01*
X223000Y92499D02*
Y94498D01*
X-218999Y-609499D02*
X-219999Y-610499D01*
Y-612498D01*
X-218999Y-613498D01*
X-215001D01*
X-214001Y-612498D01*
Y-610499D01*
X-215001Y-609499D01*
X-214001Y-607500D02*
Y-605500D01*
Y-606500D01*
X-219999D01*
X-218999Y-607500D01*
Y-602501D02*
X-219999Y-601502D01*
Y-599502D01*
X-218999Y-598502D01*
X-218000D01*
X-217000Y-599502D01*
X-216000Y-598502D01*
X-215001D01*
X-214001Y-599502D01*
Y-601502D01*
X-215001Y-602501D01*
X-216000D01*
X-217000Y-601502D01*
X-218000Y-602501D01*
X-218999D01*
X-217000Y-601502D02*
Y-599502D01*
X220001Y-386499D02*
X219001Y-387499D01*
Y-389498D01*
X220001Y-390498D01*
X223999D01*
X224999Y-389498D01*
Y-387499D01*
X223999Y-386499D01*
X224999Y-384500D02*
Y-382500D01*
Y-383500D01*
X219001D01*
X220001Y-384500D01*
Y-379501D02*
X219001Y-378502D01*
Y-376502D01*
X220001Y-375502D01*
X221000D01*
X222000Y-376502D01*
X223000Y-375502D01*
X223999D01*
X224999Y-376502D01*
Y-378502D01*
X223999Y-379501D01*
X223000D01*
X222000Y-378502D01*
X221000Y-379501D01*
X220001D01*
X222000Y-378502D02*
Y-376502D01*
X274001Y490501D02*
X273001Y489501D01*
Y487502D01*
X274001Y486502D01*
X277999D01*
X278999Y487502D01*
Y489501D01*
X277999Y490501D01*
X278999Y492500D02*
Y494500D01*
Y493500D01*
X273001D01*
X274001Y492500D01*
X273001Y497499D02*
Y501497D01*
X274001D01*
X277999Y497499D01*
X278999D01*
X273001Y20501D02*
X272001Y19502D01*
Y17502D01*
X273001Y16502D01*
X276999D01*
X277999Y17502D01*
Y19502D01*
X276999Y20501D01*
X277999Y22501D02*
Y24500D01*
Y23500D01*
X272001D01*
X273001Y22501D01*
X272001Y27499D02*
Y31498D01*
X273001D01*
X276999Y27499D01*
X277999D01*
X-270999Y-545499D02*
X-271999Y-546499D01*
Y-548498D01*
X-270999Y-549498D01*
X-267001D01*
X-266001Y-548498D01*
Y-546499D01*
X-267001Y-545499D01*
X-266001Y-543499D02*
Y-541500D01*
Y-542500D01*
X-271999D01*
X-270999Y-543499D01*
X-271999Y-538501D02*
Y-534502D01*
X-270999D01*
X-267001Y-538501D01*
X-266001D01*
X273001Y-449499D02*
X272001Y-450499D01*
Y-452498D01*
X273001Y-453498D01*
X276999D01*
X277999Y-452498D01*
Y-450499D01*
X276999Y-449499D01*
X277999Y-447500D02*
Y-445500D01*
Y-446500D01*
X272001D01*
X273001Y-447500D01*
X272001Y-442501D02*
Y-438502D01*
X273001D01*
X276999Y-442501D01*
X277999D01*
X-45999Y387501D02*
X-46999Y386502D01*
Y384502D01*
X-45999Y383502D01*
X-42001D01*
X-41001Y384502D01*
Y386502D01*
X-42001Y387501D01*
X-41001Y389501D02*
Y391500D01*
Y390500D01*
X-46999D01*
X-45999Y389501D01*
X-46999Y398498D02*
X-45999Y396498D01*
X-44000Y394499D01*
X-42001D01*
X-41001Y395499D01*
Y397498D01*
X-42001Y398498D01*
X-43000D01*
X-44000Y397498D01*
Y394499D01*
X48001Y536501D02*
X47001Y535502D01*
Y533502D01*
X48001Y532502D01*
X51999D01*
X52999Y533502D01*
Y535502D01*
X51999Y536501D01*
X52999Y538501D02*
Y540500D01*
Y539500D01*
X47001D01*
X48001Y538501D01*
X47001Y547498D02*
X48001Y545498D01*
X50000Y543499D01*
X51999D01*
X52999Y544498D01*
Y546498D01*
X51999Y547498D01*
X51000D01*
X50000Y546498D01*
Y543499D01*
X-45999Y-82499D02*
X-46999Y-83498D01*
Y-85498D01*
X-45999Y-86497D01*
X-42001D01*
X-41001Y-85498D01*
Y-83498D01*
X-42001Y-82499D01*
X-41001Y-80499D02*
Y-78500D01*
Y-79500D01*
X-46999D01*
X-45999Y-80499D01*
X-46999Y-71502D02*
X-45999Y-73502D01*
X-44000Y-75501D01*
X-42001D01*
X-41001Y-74502D01*
Y-72502D01*
X-42001Y-71502D01*
X-43000D01*
X-44000Y-72502D01*
Y-75501D01*
X47001Y67501D02*
X46001Y66501D01*
Y64502D01*
X47001Y63502D01*
X50999D01*
X51999Y64502D01*
Y66501D01*
X50999Y67501D01*
X51999Y69500D02*
Y71500D01*
Y70500D01*
X46001D01*
X47001Y69500D01*
X46001Y78498D02*
X47001Y76498D01*
X49000Y74499D01*
X50999D01*
X51999Y75499D01*
Y77498D01*
X50999Y78498D01*
X50000D01*
X49000Y77498D01*
Y74499D01*
X-45999Y-551499D02*
X-46999Y-552499D01*
Y-554498D01*
X-45999Y-555498D01*
X-42001D01*
X-41001Y-554498D01*
Y-552499D01*
X-42001Y-551499D01*
X-41001Y-549500D02*
Y-547500D01*
Y-548500D01*
X-46999D01*
X-45999Y-549500D01*
X-46999Y-540502D02*
X-45999Y-542502D01*
X-44000Y-544501D01*
X-42001D01*
X-41001Y-543502D01*
Y-541502D01*
X-42001Y-540502D01*
X-43000D01*
X-44000Y-541502D01*
Y-544501D01*
X48001Y-403499D02*
X47001Y-404498D01*
Y-406498D01*
X48001Y-407497D01*
X51999D01*
X52999Y-406498D01*
Y-404498D01*
X51999Y-403499D01*
X52999Y-401499D02*
Y-399500D01*
Y-400500D01*
X47001D01*
X48001Y-401499D01*
X47001Y-392502D02*
X48001Y-394502D01*
X50000Y-396501D01*
X51999D01*
X52999Y-395501D01*
Y-393502D01*
X51999Y-392502D01*
X51000D01*
X50000Y-393502D01*
Y-396501D01*
X-64499Y279999D02*
X-65498Y280999D01*
X-67498D01*
X-68498Y279999D01*
Y276001D01*
X-67498Y275001D01*
X-65498D01*
X-64499Y276001D01*
X-62499Y275001D02*
X-60500D01*
X-61500D01*
Y280999D01*
X-62499Y279999D01*
X-53502Y280999D02*
X-57501D01*
Y278000D01*
X-55502Y279000D01*
X-54502D01*
X-53502Y278000D01*
Y276001D01*
X-54502Y275001D01*
X-56501D01*
X-57501Y276001D01*
X63501Y612999D02*
X62502Y613999D01*
X60502D01*
X59502Y612999D01*
Y609001D01*
X60502Y608001D01*
X62502D01*
X63501Y609001D01*
X65500Y608001D02*
X67500D01*
X66500D01*
Y613999D01*
X65500Y612999D01*
X74498Y613999D02*
X70499D01*
Y611000D01*
X72498Y612000D01*
X73498D01*
X74498Y611000D01*
Y609001D01*
X73498Y608001D01*
X71498D01*
X70499Y609001D01*
X-64499Y-190001D02*
X-65498Y-189001D01*
X-67498D01*
X-68498Y-190001D01*
Y-193999D01*
X-67498Y-194999D01*
X-65498D01*
X-64499Y-193999D01*
X-62499Y-194999D02*
X-60500D01*
X-61500D01*
Y-189001D01*
X-62499Y-190001D01*
X-53502Y-189001D02*
X-57501D01*
Y-192000D01*
X-55502Y-191000D01*
X-54502D01*
X-53502Y-192000D01*
Y-193999D01*
X-54502Y-194999D01*
X-56501D01*
X-57501Y-193999D01*
X62501Y143999D02*
X61501Y144999D01*
X59502D01*
X58502Y143999D01*
Y140001D01*
X59502Y139001D01*
X61501D01*
X62501Y140001D01*
X64500Y139001D02*
X66500D01*
X65500D01*
Y144999D01*
X64500Y143999D01*
X73498Y144999D02*
X69499D01*
Y142000D01*
X71498Y143000D01*
X72498D01*
X73498Y142000D01*
Y140001D01*
X72498Y139001D01*
X70498D01*
X69499Y140001D01*
X-64499Y-659001D02*
X-65498Y-658001D01*
X-67498D01*
X-68498Y-659001D01*
Y-662999D01*
X-67498Y-663999D01*
X-65498D01*
X-64499Y-662999D01*
X-62499Y-663999D02*
X-60500D01*
X-61500D01*
Y-658001D01*
X-62499Y-659001D01*
X-53502Y-658001D02*
X-57501D01*
Y-661000D01*
X-55502Y-660000D01*
X-54502D01*
X-53502Y-661000D01*
Y-662999D01*
X-54502Y-663999D01*
X-56501D01*
X-57501Y-662999D01*
X62501Y-327001D02*
X61501Y-326001D01*
X59502D01*
X58502Y-327001D01*
Y-330999D01*
X59502Y-331999D01*
X61501D01*
X62501Y-330999D01*
X64500Y-331999D02*
X66500D01*
X65500D01*
Y-326001D01*
X64500Y-327001D01*
X73498Y-326001D02*
X69499D01*
Y-329000D01*
X71498Y-328000D01*
X72498D01*
X73498Y-329000D01*
Y-330999D01*
X72498Y-331999D01*
X70498D01*
X69499Y-330999D01*
X207501Y481999D02*
X206502Y482999D01*
X204502D01*
X203503Y481999D01*
Y478001D01*
X204502Y477001D01*
X206502D01*
X207501Y478001D01*
X209501Y477001D02*
X211500D01*
X210500D01*
Y482999D01*
X209501Y481999D01*
X217498Y477001D02*
Y482999D01*
X214499Y480000D01*
X218498D01*
X207501Y11999D02*
X206502Y12999D01*
X204502D01*
X203503Y11999D01*
Y8001D01*
X204502Y7001D01*
X206502D01*
X207501Y8001D01*
X209501Y7001D02*
X211500D01*
X210500D01*
Y12999D01*
X209501Y11999D01*
X217498Y7001D02*
Y12999D01*
X214499Y10000D01*
X218498D01*
X-207499Y-527001D02*
X-208498Y-526001D01*
X-210498D01*
X-211497Y-527001D01*
Y-530999D01*
X-210498Y-531999D01*
X-208498D01*
X-207499Y-530999D01*
X-205499Y-531999D02*
X-203500D01*
X-204500D01*
Y-526001D01*
X-205499Y-527001D01*
X-197502Y-531999D02*
Y-526001D01*
X-200501Y-529000D01*
X-196502D01*
X207501Y-459001D02*
X206502Y-458001D01*
X204502D01*
X203503Y-459001D01*
Y-462999D01*
X204502Y-463999D01*
X206502D01*
X207501Y-462999D01*
X209501Y-463999D02*
X211500D01*
X210500D01*
Y-458001D01*
X209501Y-459001D01*
X217498Y-463999D02*
Y-458001D01*
X214499Y-461000D01*
X218498D01*
X274001Y521501D02*
X273001Y520501D01*
Y518502D01*
X274001Y517502D01*
X277999D01*
X278999Y518502D01*
Y520501D01*
X277999Y521501D01*
X278999Y523501D02*
Y525500D01*
Y524500D01*
X273001D01*
X274001Y523501D01*
Y528499D02*
X273001Y529498D01*
Y531498D01*
X274001Y532497D01*
X275000D01*
X276000Y531498D01*
Y530498D01*
Y531498D01*
X277000Y532497D01*
X277999D01*
X278999Y531498D01*
Y529498D01*
X277999Y528499D01*
X273001Y52501D02*
X272001Y51501D01*
Y49502D01*
X273001Y48502D01*
X276999D01*
X277999Y49502D01*
Y51501D01*
X276999Y52501D01*
X277999Y54500D02*
Y56500D01*
Y55500D01*
X272001D01*
X273001Y54500D01*
Y59499D02*
X272001Y60498D01*
Y62498D01*
X273001Y63498D01*
X274000D01*
X275000Y62498D01*
Y61498D01*
Y62498D01*
X276000Y63498D01*
X276999D01*
X277999Y62498D01*
Y60498D01*
X276999Y59499D01*
X-270999Y-578499D02*
X-271999Y-579498D01*
Y-581498D01*
X-270999Y-582498D01*
X-267001D01*
X-266001Y-581498D01*
Y-579498D01*
X-267001Y-578499D01*
X-266001Y-576499D02*
Y-574500D01*
Y-575500D01*
X-271999D01*
X-270999Y-576499D01*
Y-571501D02*
X-271999Y-570502D01*
Y-568502D01*
X-270999Y-567502D01*
X-270000D01*
X-269000Y-568502D01*
Y-569502D01*
Y-568502D01*
X-268000Y-567502D01*
X-267001D01*
X-266001Y-568502D01*
Y-570502D01*
X-267001Y-571501D01*
X273001Y-416499D02*
X272001Y-417499D01*
Y-419498D01*
X273001Y-420498D01*
X276999D01*
X277999Y-419498D01*
Y-417499D01*
X276999Y-416499D01*
X277999Y-414500D02*
Y-412500D01*
Y-413500D01*
X272001D01*
X273001Y-414500D01*
Y-409501D02*
X272001Y-408502D01*
Y-406502D01*
X273001Y-405502D01*
X274000D01*
X275000Y-406502D01*
Y-407502D01*
Y-406502D01*
X276000Y-405502D01*
X276999D01*
X277999Y-406502D01*
Y-408502D01*
X276999Y-409501D01*
X-203999Y-285499D02*
X-204999Y-286499D01*
Y-288498D01*
X-203999Y-289498D01*
X-200001D01*
X-199001Y-288498D01*
Y-286499D01*
X-200001Y-285499D01*
X-199001Y-283500D02*
Y-281500D01*
Y-282500D01*
X-204999D01*
X-203999Y-283500D01*
X-199001Y-274502D02*
Y-278501D01*
X-203000Y-274502D01*
X-203999D01*
X-204999Y-275502D01*
Y-277502D01*
X-203999Y-278501D01*
X212001Y234501D02*
X211001Y233501D01*
Y231502D01*
X212001Y230502D01*
X215999D01*
X216999Y231502D01*
Y233501D01*
X215999Y234501D01*
X216999Y236500D02*
Y238500D01*
Y237500D01*
X211001D01*
X212001Y236500D01*
X216999Y245498D02*
Y241499D01*
X213000Y245498D01*
X212001D01*
X211001Y244498D01*
Y242498D01*
X212001Y241499D01*
X212001Y-234499D02*
X211001Y-235499D01*
Y-237498D01*
X212001Y-238498D01*
X215999D01*
X216999Y-237498D01*
Y-235499D01*
X215999Y-234499D01*
X216999Y-232500D02*
Y-230500D01*
Y-231500D01*
X211001D01*
X212001Y-232500D01*
X216999Y-223502D02*
Y-227501D01*
X213000Y-223502D01*
X212001D01*
X211001Y-224502D01*
Y-226502D01*
X212001Y-227501D01*
Y-705499D02*
X211001Y-706498D01*
Y-708498D01*
X212001Y-709498D01*
X215999D01*
X216999Y-708498D01*
Y-706498D01*
X215999Y-705499D01*
X216999Y-703500D02*
Y-701500D01*
Y-702500D01*
X211001D01*
X212001Y-703500D01*
X216999Y-694502D02*
Y-698501D01*
X213000Y-694502D01*
X212001D01*
X211001Y-695502D01*
Y-697502D01*
X212001Y-698501D01*
X-194999Y-285499D02*
X-195999Y-286499D01*
Y-288498D01*
X-194999Y-289498D01*
X-191001D01*
X-190001Y-288498D01*
Y-286499D01*
X-191001Y-285499D01*
X-190001Y-283500D02*
Y-281500D01*
Y-282500D01*
X-195999D01*
X-194999Y-283500D01*
X-190001Y-278501D02*
Y-276502D01*
Y-277502D01*
X-195999D01*
X-194999Y-278501D01*
X189001Y235501D02*
X188001Y234501D01*
Y232502D01*
X189001Y231502D01*
X192999D01*
X193999Y232502D01*
Y234501D01*
X192999Y235501D01*
X193999Y237500D02*
Y239499D01*
Y238500D01*
X188001D01*
X189001Y237500D01*
X193999Y242498D02*
Y244498D01*
Y243498D01*
X188001D01*
X189001Y242498D01*
X188001Y-233499D02*
X187001Y-234499D01*
Y-236498D01*
X188001Y-237498D01*
X191999D01*
X192999Y-236498D01*
Y-234499D01*
X191999Y-233499D01*
X192999Y-231500D02*
Y-229501D01*
Y-230500D01*
X187001D01*
X188001Y-231500D01*
X192999Y-226502D02*
Y-224502D01*
Y-225502D01*
X187001D01*
X188001Y-226502D01*
X189001Y-704499D02*
X188001Y-705499D01*
Y-707498D01*
X189001Y-708498D01*
X192999D01*
X193999Y-707498D01*
Y-705499D01*
X192999Y-704499D01*
X193999Y-702500D02*
Y-700500D01*
Y-701500D01*
X188001D01*
X189001Y-702500D01*
X193999Y-697501D02*
Y-695502D01*
Y-696502D01*
X188001D01*
X189001Y-697501D01*
X-206000Y-307001D02*
X-206999Y-306001D01*
X-208999D01*
X-209998Y-307001D01*
Y-310999D01*
X-208999Y-311999D01*
X-206999D01*
X-206000Y-310999D01*
X-204000Y-307001D02*
X-203001Y-306001D01*
X-201001D01*
X-200002Y-307001D01*
Y-308000D01*
X-201001Y-309000D01*
X-200002Y-310000D01*
Y-310999D01*
X-201001Y-311999D01*
X-203001D01*
X-204000Y-310999D01*
Y-310000D01*
X-203001Y-309000D01*
X-204000Y-308000D01*
Y-307001D01*
X-203001Y-309000D02*
X-201001D01*
X209000Y251999D02*
X208001Y252999D01*
X206001D01*
X205002Y251999D01*
Y248001D01*
X206001Y247001D01*
X208001D01*
X209000Y248001D01*
X211000Y251999D02*
X211999Y252999D01*
X213999D01*
X214998Y251999D01*
Y251000D01*
X213999Y250000D01*
X214998Y249000D01*
Y248001D01*
X213999Y247001D01*
X211999D01*
X211000Y248001D01*
Y249000D01*
X211999Y250000D01*
X211000Y251000D01*
Y251999D01*
X211999Y250000D02*
X213999D01*
X209000Y-217001D02*
X208001Y-216001D01*
X206001D01*
X205002Y-217001D01*
Y-220999D01*
X206001Y-221999D01*
X208001D01*
X209000Y-220999D01*
X211000Y-217001D02*
X211999Y-216001D01*
X213999D01*
X214998Y-217001D01*
Y-218000D01*
X213999Y-219000D01*
X214998Y-220000D01*
Y-220999D01*
X213999Y-221999D01*
X211999D01*
X211000Y-220999D01*
Y-220000D01*
X211999Y-219000D01*
X211000Y-218000D01*
Y-217001D01*
X211999Y-219000D02*
X213999D01*
X209000Y-688001D02*
X208001Y-687001D01*
X206001D01*
X205002Y-688001D01*
Y-691999D01*
X206001Y-692999D01*
X208001D01*
X209000Y-691999D01*
X211000Y-688001D02*
X211999Y-687001D01*
X213999D01*
X214998Y-688001D01*
Y-689000D01*
X213999Y-690000D01*
X214998Y-691000D01*
Y-691999D01*
X213999Y-692999D01*
X211999D01*
X211000Y-691999D01*
Y-691000D01*
X211999Y-690000D01*
X211000Y-689000D01*
Y-688001D01*
X211999Y-690000D02*
X213999D01*
X-190000Y-307001D02*
X-190999Y-306001D01*
X-192999D01*
X-193998Y-307001D01*
Y-310999D01*
X-192999Y-311999D01*
X-190999D01*
X-190000Y-310999D01*
X-188000Y-306001D02*
X-184002D01*
Y-307001D01*
X-188000Y-310999D01*
Y-311999D01*
X194000Y251999D02*
X193001Y252999D01*
X191001D01*
X190002Y251999D01*
Y248001D01*
X191001Y247001D01*
X193001D01*
X194000Y248001D01*
X196000Y252999D02*
X199998D01*
Y251999D01*
X196000Y248001D01*
Y247001D01*
X194000Y-217001D02*
X193001Y-216001D01*
X191001D01*
X190002Y-217001D01*
Y-220999D01*
X191001Y-221999D01*
X193001D01*
X194000Y-220999D01*
X196000Y-216001D02*
X199998D01*
Y-217001D01*
X196000Y-220999D01*
Y-221999D01*
X193000Y-688001D02*
X192001Y-687001D01*
X190001D01*
X189002Y-688001D01*
Y-691999D01*
X190001Y-692999D01*
X192001D01*
X193000Y-691999D01*
X195000Y-687001D02*
X198998D01*
Y-688001D01*
X195000Y-691999D01*
Y-692999D01*
X-40999Y642000D02*
X-41999Y641001D01*
Y639001D01*
X-40999Y638002D01*
X-37001D01*
X-36001Y639001D01*
Y641001D01*
X-37001Y642000D01*
X-41999Y647998D02*
X-40999Y645999D01*
X-39000Y644000D01*
X-37001D01*
X-36001Y644999D01*
Y646999D01*
X-37001Y647998D01*
X-38000D01*
X-39000Y646999D01*
Y644000D01*
X-40999Y172000D02*
X-41999Y171001D01*
Y169001D01*
X-40999Y168002D01*
X-37001D01*
X-36001Y169001D01*
Y171001D01*
X-37001Y172000D01*
X-41999Y177998D02*
X-40999Y175999D01*
X-39000Y174000D01*
X-37001D01*
X-36001Y174999D01*
Y176999D01*
X-37001Y177998D01*
X-38000D01*
X-39000Y176999D01*
Y174000D01*
X-40999Y-297000D02*
X-41999Y-297999D01*
Y-299999D01*
X-40999Y-300998D01*
X-37001D01*
X-36001Y-299999D01*
Y-297999D01*
X-37001Y-297000D01*
X-41999Y-291002D02*
X-40999Y-293001D01*
X-39000Y-295000D01*
X-37001D01*
X-36001Y-294001D01*
Y-292001D01*
X-37001Y-291002D01*
X-38000D01*
X-39000Y-292001D01*
Y-295000D01*
X42001Y236000D02*
X41001Y235001D01*
Y233001D01*
X42001Y232002D01*
X45999D01*
X46999Y233001D01*
Y235001D01*
X45999Y236000D01*
X41001Y241998D02*
X42001Y239999D01*
X44000Y238000D01*
X45999D01*
X46999Y238999D01*
Y240999D01*
X45999Y241998D01*
X45000D01*
X44000Y240999D01*
Y238000D01*
X42001Y-233000D02*
X41001Y-233999D01*
Y-235999D01*
X42001Y-236998D01*
X45999D01*
X46999Y-235999D01*
Y-233999D01*
X45999Y-233000D01*
X41001Y-227002D02*
X42001Y-229001D01*
X44000Y-231000D01*
X45999D01*
X46999Y-230001D01*
Y-228001D01*
X45999Y-227002D01*
X45000D01*
X44000Y-228001D01*
Y-231000D01*
X42001Y-704000D02*
X41001Y-704999D01*
Y-706999D01*
X42001Y-707998D01*
X45999D01*
X46999Y-706999D01*
Y-704999D01*
X45999Y-704000D01*
X41001Y-698002D02*
X42001Y-700001D01*
X44000Y-702000D01*
X45999D01*
X46999Y-701001D01*
Y-699001D01*
X45999Y-698002D01*
X45000D01*
X44000Y-699001D01*
Y-702000D01*
X-172499Y-459001D02*
X-173498Y-458001D01*
X-175498D01*
X-176497Y-459001D01*
Y-462999D01*
X-175498Y-463999D01*
X-173498D01*
X-172499Y-462999D01*
X-170499Y-463999D02*
X-168500D01*
X-169500D01*
Y-458001D01*
X-170499Y-459001D01*
X-165501D02*
X-164501Y-458001D01*
X-162502D01*
X-161502Y-459001D01*
Y-462999D01*
X-162502Y-463999D01*
X-164501D01*
X-165501Y-462999D01*
Y-459001D01*
X170501Y403999D02*
X169501Y404999D01*
X167502D01*
X166502Y403999D01*
Y400001D01*
X167502Y399001D01*
X169501D01*
X170501Y400001D01*
X172500Y399001D02*
X174500D01*
X173500D01*
Y404999D01*
X172500Y403999D01*
X177499D02*
X178499Y404999D01*
X180498D01*
X181498Y403999D01*
Y400001D01*
X180498Y399001D01*
X178499D01*
X177499Y400001D01*
Y403999D01*
X171501Y-65001D02*
X170501Y-64001D01*
X168502D01*
X167502Y-65001D01*
Y-68999D01*
X168502Y-69999D01*
X170501D01*
X171501Y-68999D01*
X173500Y-69999D02*
X175500D01*
X174500D01*
Y-64001D01*
X173500Y-65001D01*
X178499D02*
X179499Y-64001D01*
X181498D01*
X182498Y-65001D01*
Y-68999D01*
X181498Y-69999D01*
X179499D01*
X178499Y-68999D01*
Y-65001D01*
X170501Y-536001D02*
X169501Y-535001D01*
X167502D01*
X166502Y-536001D01*
Y-539999D01*
X167502Y-540999D01*
X169501D01*
X170501Y-539999D01*
X172500Y-540999D02*
X174500D01*
X173500D01*
Y-535001D01*
X172500Y-536001D01*
X177499D02*
X178499Y-535001D01*
X180498D01*
X181498Y-536001D01*
Y-539999D01*
X180498Y-540999D01*
X178499D01*
X177499Y-539999D01*
Y-536001D01*
X-157999Y-429000D02*
X-158999Y-429999D01*
Y-431999D01*
X-157999Y-432998D01*
X-154001D01*
X-153001Y-431999D01*
Y-429999D01*
X-154001Y-429000D01*
Y-427000D02*
X-153001Y-426001D01*
Y-424001D01*
X-154001Y-423002D01*
X-157999D01*
X-158999Y-424001D01*
Y-426001D01*
X-157999Y-427000D01*
X-157000D01*
X-156000Y-426001D01*
Y-423002D01*
X159001Y368000D02*
X158001Y367001D01*
Y365001D01*
X159001Y364002D01*
X162999D01*
X163999Y365001D01*
Y367001D01*
X162999Y368000D01*
Y370000D02*
X163999Y370999D01*
Y372999D01*
X162999Y373998D01*
X159001D01*
X158001Y372999D01*
Y370999D01*
X159001Y370000D01*
X160000D01*
X161000Y370999D01*
Y373998D01*
X159001Y-101000D02*
X158001Y-101999D01*
Y-103999D01*
X159001Y-104998D01*
X162999D01*
X163999Y-103999D01*
Y-101999D01*
X162999Y-101000D01*
Y-99000D02*
X163999Y-98001D01*
Y-96001D01*
X162999Y-95002D01*
X159001D01*
X158001Y-96001D01*
Y-98001D01*
X159001Y-99000D01*
X160000D01*
X161000Y-98001D01*
Y-95002D01*
X159001Y-572000D02*
X158001Y-572999D01*
Y-574999D01*
X159001Y-575998D01*
X162999D01*
X163999Y-574999D01*
Y-572999D01*
X162999Y-572000D01*
Y-570000D02*
X163999Y-569001D01*
Y-567001D01*
X162999Y-566002D01*
X159001D01*
X158001Y-567001D01*
Y-569001D01*
X159001Y-570000D01*
X160000D01*
X161000Y-569001D01*
Y-566002D01*
X-40999Y581000D02*
X-41999Y580001D01*
Y578001D01*
X-40999Y577002D01*
X-37001D01*
X-36001Y578001D01*
Y580001D01*
X-37001Y581000D01*
X-41999Y586998D02*
Y583000D01*
X-39000D01*
X-40000Y584999D01*
Y585999D01*
X-39000Y586998D01*
X-37001D01*
X-36001Y585999D01*
Y583999D01*
X-37001Y583000D01*
X-40999Y111000D02*
X-41999Y110001D01*
Y108001D01*
X-40999Y107002D01*
X-37001D01*
X-36001Y108001D01*
Y110001D01*
X-37001Y111000D01*
X-41999Y116998D02*
Y113000D01*
X-39000D01*
X-40000Y114999D01*
Y115999D01*
X-39000Y116998D01*
X-37001D01*
X-36001Y115999D01*
Y113999D01*
X-37001Y113000D01*
X-40999Y-358000D02*
X-41999Y-358999D01*
Y-360999D01*
X-40999Y-361998D01*
X-37001D01*
X-36001Y-360999D01*
Y-358999D01*
X-37001Y-358000D01*
X-41999Y-352002D02*
Y-356000D01*
X-39000D01*
X-40000Y-354001D01*
Y-353001D01*
X-39000Y-352002D01*
X-37001D01*
X-36001Y-353001D01*
Y-355001D01*
X-37001Y-356000D01*
X42001Y298000D02*
X41001Y297001D01*
Y295001D01*
X42001Y294002D01*
X45999D01*
X46999Y295001D01*
Y297001D01*
X45999Y298000D01*
X41001Y303998D02*
Y300000D01*
X44000D01*
X43000Y301999D01*
Y302999D01*
X44000Y303998D01*
X45999D01*
X46999Y302999D01*
Y300999D01*
X45999Y300000D01*
X42001Y-174000D02*
X41001Y-174999D01*
Y-176999D01*
X42001Y-177998D01*
X45999D01*
X46999Y-176999D01*
Y-174999D01*
X45999Y-174000D01*
X41001Y-168002D02*
Y-172000D01*
X44000D01*
X43000Y-170001D01*
Y-169001D01*
X44000Y-168002D01*
X45999D01*
X46999Y-169001D01*
Y-171001D01*
X45999Y-172000D01*
X42001Y-642000D02*
X41001Y-642999D01*
Y-644999D01*
X42001Y-645998D01*
X45999D01*
X46999Y-644999D01*
Y-642999D01*
X45999Y-642000D01*
X41001Y-636002D02*
Y-640000D01*
X44000D01*
X43000Y-638001D01*
Y-637001D01*
X44000Y-636002D01*
X45999D01*
X46999Y-637001D01*
Y-639001D01*
X45999Y-640000D01*
X-197999Y-350000D02*
X-198999Y-350999D01*
Y-352999D01*
X-197999Y-353998D01*
X-194001D01*
X-193001Y-352999D01*
Y-350999D01*
X-194001Y-350000D01*
X-193001Y-345001D02*
X-198999D01*
X-196000Y-348000D01*
Y-344002D01*
X200001Y289000D02*
X199001Y288001D01*
Y286001D01*
X200001Y285002D01*
X203999D01*
X204999Y286001D01*
Y288001D01*
X203999Y289000D01*
X204999Y293999D02*
X199001D01*
X202000Y291000D01*
Y294998D01*
X199856Y-180301D02*
X198857Y-181301D01*
Y-183300D01*
X199856Y-184300D01*
X203855D01*
X204855Y-183300D01*
Y-181301D01*
X203855Y-180301D01*
X204855Y-175303D02*
X198857D01*
X201856Y-178302D01*
Y-174303D01*
X200001Y-651000D02*
X199001Y-651999D01*
Y-653999D01*
X200001Y-654998D01*
X203999D01*
X204999Y-653999D01*
Y-651999D01*
X203999Y-651000D01*
X204999Y-646001D02*
X199001D01*
X202000Y-649000D01*
Y-645002D01*
X-187999Y-370000D02*
X-188999Y-370999D01*
Y-372999D01*
X-187999Y-373998D01*
X-184001D01*
X-183001Y-372999D01*
Y-370999D01*
X-184001Y-370000D01*
X-187999Y-368000D02*
X-188999Y-367001D01*
Y-365001D01*
X-187999Y-364002D01*
X-187000D01*
X-186000Y-365001D01*
Y-366001D01*
Y-365001D01*
X-185000Y-364002D01*
X-184001D01*
X-183001Y-365001D01*
Y-367001D01*
X-184001Y-368000D01*
X189001Y309000D02*
X188001Y308001D01*
Y306001D01*
X189001Y305002D01*
X192999D01*
X193999Y306001D01*
Y308001D01*
X192999Y309000D01*
X189001Y311000D02*
X188001Y311999D01*
Y313999D01*
X189001Y314998D01*
X190000D01*
X191000Y313999D01*
Y312999D01*
Y313999D01*
X192000Y314998D01*
X192999D01*
X193999Y313999D01*
Y311999D01*
X192999Y311000D01*
X189001Y-161000D02*
X188001Y-161999D01*
Y-163999D01*
X189001Y-164998D01*
X192999D01*
X193999Y-163999D01*
Y-161999D01*
X192999Y-161000D01*
X189001Y-159000D02*
X188001Y-158001D01*
Y-156001D01*
X189001Y-155002D01*
X190000D01*
X191000Y-156001D01*
Y-157001D01*
Y-156001D01*
X192000Y-155002D01*
X192999D01*
X193999Y-156001D01*
Y-158001D01*
X192999Y-159000D01*
X189001Y-631000D02*
X188001Y-631999D01*
Y-633999D01*
X189001Y-634998D01*
X192999D01*
X193999Y-633999D01*
Y-631999D01*
X192999Y-631000D01*
X189001Y-629000D02*
X188001Y-628001D01*
Y-626001D01*
X189001Y-625002D01*
X190000D01*
X191000Y-626001D01*
Y-627001D01*
Y-626001D01*
X192000Y-625002D01*
X192999D01*
X193999Y-626001D01*
Y-628001D01*
X192999Y-629000D01*
X-186999Y-405000D02*
X-187999Y-405999D01*
Y-407999D01*
X-186999Y-408998D01*
X-183001D01*
X-182001Y-407999D01*
Y-405999D01*
X-183001Y-405000D01*
X-182001Y-399002D02*
Y-403000D01*
X-186000Y-399002D01*
X-186999D01*
X-187999Y-400001D01*
Y-402001D01*
X-186999Y-403000D01*
X188001Y344000D02*
X187001Y343001D01*
Y341001D01*
X188001Y340002D01*
X191999D01*
X192999Y341001D01*
Y343001D01*
X191999Y344000D01*
X192999Y349998D02*
Y346000D01*
X189000Y349998D01*
X188001D01*
X187001Y348999D01*
Y346999D01*
X188001Y346000D01*
X189001Y-125000D02*
X188001Y-125999D01*
Y-127999D01*
X189001Y-128998D01*
X192999D01*
X193999Y-127999D01*
Y-125999D01*
X192999Y-125000D01*
X193999Y-119002D02*
Y-123000D01*
X190000Y-119002D01*
X189001D01*
X188001Y-120001D01*
Y-122001D01*
X189001Y-123000D01*
Y-596000D02*
X188001Y-596999D01*
Y-598999D01*
X189001Y-599998D01*
X192999D01*
X193999Y-598999D01*
Y-596999D01*
X192999Y-596000D01*
X193999Y-590002D02*
Y-594000D01*
X190000Y-590002D01*
X189001D01*
X188001Y-591001D01*
Y-593001D01*
X189001Y-594000D01*
X-214999Y-417000D02*
X-215999Y-418000D01*
Y-419999D01*
X-214999Y-420999D01*
X-211001D01*
X-210001Y-419999D01*
Y-418000D01*
X-211001Y-417000D01*
X-210001Y-415001D02*
Y-413001D01*
Y-414001D01*
X-215999D01*
X-214999Y-415001D01*
X216001Y358000D02*
X215001Y357000D01*
Y355001D01*
X216001Y354001D01*
X219999D01*
X220999Y355001D01*
Y357000D01*
X219999Y358000D01*
X220999Y359999D02*
Y361999D01*
Y360999D01*
X215001D01*
X216001Y359999D01*
X216001Y-111000D02*
X215001Y-112000D01*
Y-113999D01*
X216001Y-114999D01*
X219999D01*
X220999Y-113999D01*
Y-112000D01*
X219999Y-111000D01*
X220999Y-109001D02*
Y-107001D01*
Y-108001D01*
X215001D01*
X216001Y-109001D01*
Y-582000D02*
X215001Y-583000D01*
Y-584999D01*
X216001Y-585999D01*
X219999D01*
X220999Y-584999D01*
Y-583000D01*
X219999Y-582000D01*
X220999Y-580001D02*
Y-578001D01*
Y-579001D01*
X215001D01*
X216001Y-580001D01*
X38999Y-108999D02*
X33001D01*
Y-106000D01*
X34001Y-105000D01*
X36000D01*
X37000Y-106000D01*
Y-108999D01*
X38999Y-103001D02*
Y-101001D01*
Y-102001D01*
X33001D01*
X34001Y-103001D01*
X-559998Y-753001D02*
Y-757999D01*
X-558999Y-758999D01*
X-556999D01*
X-556000Y-757999D01*
Y-753001D01*
X-554000Y-754001D02*
X-553001Y-753001D01*
X-551001D01*
X-550002Y-754001D01*
Y-755000D01*
X-551001Y-756000D01*
X-550002Y-757000D01*
Y-757999D01*
X-551001Y-758999D01*
X-553001D01*
X-554000Y-757999D01*
Y-757000D01*
X-553001Y-756000D01*
X-554000Y-755000D01*
Y-754001D01*
X-553001Y-756000D02*
X-551001D01*
X-517999Y-713001D02*
X-518998Y-712001D01*
X-520998D01*
X-521997Y-713001D01*
Y-716999D01*
X-520998Y-717999D01*
X-518998D01*
X-517999Y-716999D01*
X-513000Y-717999D02*
Y-712001D01*
X-515999Y-715000D01*
X-512001D01*
X-510001Y-713001D02*
X-509002Y-712001D01*
X-507002D01*
X-506003Y-713001D01*
Y-716999D01*
X-507002Y-717999D01*
X-509002D01*
X-510001Y-716999D01*
Y-713001D01*
X-698999Y-756999D02*
X-699999Y-757998D01*
Y-759998D01*
X-698999Y-760997D01*
X-695001D01*
X-694001Y-759998D01*
Y-757998D01*
X-695001Y-756999D01*
X-698999Y-754999D02*
X-699999Y-754000D01*
Y-752000D01*
X-698999Y-751001D01*
X-698000D01*
X-697000Y-752000D01*
Y-753000D01*
Y-752000D01*
X-696000Y-751001D01*
X-695001D01*
X-694001Y-752000D01*
Y-754000D01*
X-695001Y-754999D01*
Y-749001D02*
X-694001Y-748002D01*
Y-746002D01*
X-695001Y-745003D01*
X-698999D01*
X-699999Y-746002D01*
Y-748002D01*
X-698999Y-749001D01*
X-698000D01*
X-697000Y-748002D01*
Y-745003D01*
X-698999Y-705999D02*
X-699999Y-706998D01*
Y-708998D01*
X-698999Y-709997D01*
X-695001D01*
X-694001Y-708998D01*
Y-706998D01*
X-695001Y-705999D01*
X-698999Y-703999D02*
X-699999Y-703000D01*
Y-701000D01*
X-698999Y-700001D01*
X-698000D01*
X-697000Y-701000D01*
Y-702000D01*
Y-701000D01*
X-696000Y-700001D01*
X-695001D01*
X-694001Y-701000D01*
Y-703000D01*
X-695001Y-703999D01*
X-698999Y-698001D02*
X-699999Y-697002D01*
Y-695002D01*
X-698999Y-694003D01*
X-698000D01*
X-697000Y-695002D01*
X-696000Y-694003D01*
X-695001D01*
X-694001Y-695002D01*
Y-697002D01*
X-695001Y-698001D01*
X-696000D01*
X-697000Y-697002D01*
X-698000Y-698001D01*
X-698999D01*
X-697000Y-697002D02*
Y-695002D01*
X-772998Y-670999D02*
Y-665001D01*
X-769999D01*
X-768999Y-666001D01*
Y-668000D01*
X-769999Y-669000D01*
X-772998D01*
X-770998D02*
X-768999Y-670999D01*
X-764001D02*
Y-665001D01*
X-767000Y-668000D01*
X-763001D01*
X-761002Y-670999D02*
X-759002D01*
X-760002D01*
Y-665001D01*
X-761002Y-666001D01*
X-521997Y-729999D02*
Y-724001D01*
X-518998D01*
X-517999Y-725001D01*
Y-727000D01*
X-518998Y-728000D01*
X-521997D01*
X-519998D02*
X-517999Y-729999D01*
X-513000D02*
Y-724001D01*
X-515999Y-727000D01*
X-512001D01*
X-506003Y-729999D02*
X-510001D01*
X-506003Y-726000D01*
Y-725001D01*
X-507002Y-724001D01*
X-509002D01*
X-510001Y-725001D01*
X-1144997Y-685999D02*
Y-680001D01*
X-1141998D01*
X-1140999Y-681001D01*
Y-683000D01*
X-1141998Y-684000D01*
X-1144997D01*
X-1142998D02*
X-1140999Y-685999D01*
X-1138999Y-681001D02*
X-1138000Y-680001D01*
X-1136000D01*
X-1135001Y-681001D01*
Y-682000D01*
X-1136000Y-683000D01*
X-1137000D01*
X-1136000D01*
X-1135001Y-684000D01*
Y-684999D01*
X-1136000Y-685999D01*
X-1138000D01*
X-1138999Y-684999D01*
X-1129003Y-685999D02*
X-1133001D01*
X-1129003Y-682000D01*
Y-681001D01*
X-1130002Y-680001D01*
X-1132002D01*
X-1133001Y-681001D01*
X-1108997Y-685999D02*
Y-680001D01*
X-1105998D01*
X-1104999Y-681001D01*
Y-683000D01*
X-1105998Y-684000D01*
X-1108997D01*
X-1106998D02*
X-1104999Y-685999D01*
X-1102999Y-681001D02*
X-1102000Y-680001D01*
X-1100000D01*
X-1099001Y-681001D01*
Y-682000D01*
X-1100000Y-683000D01*
X-1101000D01*
X-1100000D01*
X-1099001Y-684000D01*
Y-684999D01*
X-1100000Y-685999D01*
X-1102000D01*
X-1102999Y-684999D01*
X-1097001Y-681001D02*
X-1096002Y-680001D01*
X-1094002D01*
X-1093003Y-681001D01*
Y-682000D01*
X-1094002Y-683000D01*
X-1095002D01*
X-1094002D01*
X-1093003Y-684000D01*
Y-684999D01*
X-1094002Y-685999D01*
X-1096002D01*
X-1097001Y-684999D01*
X-928997Y-685999D02*
Y-680001D01*
X-925998D01*
X-924999Y-681001D01*
Y-683000D01*
X-925998Y-684000D01*
X-928997D01*
X-926998D02*
X-924999Y-685999D01*
X-922999Y-681001D02*
X-922000Y-680001D01*
X-920000D01*
X-919001Y-681001D01*
Y-682000D01*
X-920000Y-683000D01*
X-921000D01*
X-920000D01*
X-919001Y-684000D01*
Y-684999D01*
X-920000Y-685999D01*
X-922000D01*
X-922999Y-684999D01*
X-917001Y-681001D02*
X-916002Y-680001D01*
X-914002D01*
X-913003Y-681001D01*
Y-682000D01*
X-914002Y-683000D01*
X-913003Y-684000D01*
Y-684999D01*
X-914002Y-685999D01*
X-916002D01*
X-917001Y-684999D01*
Y-684000D01*
X-916002Y-683000D01*
X-917001Y-682000D01*
Y-681001D01*
X-916002Y-683000D02*
X-914002D01*
X-964997Y-685999D02*
Y-680001D01*
X-961998D01*
X-960999Y-681001D01*
Y-683000D01*
X-961998Y-684000D01*
X-964997D01*
X-962998D02*
X-960999Y-685999D01*
X-958999Y-681001D02*
X-958000Y-680001D01*
X-956000D01*
X-955001Y-681001D01*
Y-682000D01*
X-956000Y-683000D01*
X-957000D01*
X-956000D01*
X-955001Y-684000D01*
Y-684999D01*
X-956000Y-685999D01*
X-958000D01*
X-958999Y-684999D01*
X-953001Y-680001D02*
X-949003D01*
Y-681001D01*
X-953001Y-684999D01*
Y-685999D01*
X-1000997D02*
Y-680001D01*
X-997998D01*
X-996999Y-681001D01*
Y-683000D01*
X-997998Y-684000D01*
X-1000997D01*
X-998998D02*
X-996999Y-685999D01*
X-994999Y-681001D02*
X-994000Y-680001D01*
X-992000D01*
X-991001Y-681001D01*
Y-682000D01*
X-992000Y-683000D01*
X-993000D01*
X-992000D01*
X-991001Y-684000D01*
Y-684999D01*
X-992000Y-685999D01*
X-994000D01*
X-994999Y-684999D01*
X-985003Y-680001D02*
X-987002Y-681001D01*
X-989001Y-683000D01*
Y-684999D01*
X-988002Y-685999D01*
X-986002D01*
X-985003Y-684999D01*
Y-684000D01*
X-986002Y-683000D01*
X-989001D01*
X-1036997Y-685999D02*
Y-680001D01*
X-1033998D01*
X-1032999Y-681001D01*
Y-683000D01*
X-1033998Y-684000D01*
X-1036997D01*
X-1034998D02*
X-1032999Y-685999D01*
X-1030999Y-681001D02*
X-1030000Y-680001D01*
X-1028000D01*
X-1027001Y-681001D01*
Y-682000D01*
X-1028000Y-683000D01*
X-1029000D01*
X-1028000D01*
X-1027001Y-684000D01*
Y-684999D01*
X-1028000Y-685999D01*
X-1030000D01*
X-1030999Y-684999D01*
X-1021003Y-680001D02*
X-1025001D01*
Y-683000D01*
X-1023002Y-682000D01*
X-1022002D01*
X-1021003Y-683000D01*
Y-684999D01*
X-1022002Y-685999D01*
X-1024002D01*
X-1025001Y-684999D01*
X-1072997Y-685999D02*
Y-680001D01*
X-1069998D01*
X-1068999Y-681001D01*
Y-683000D01*
X-1069998Y-684000D01*
X-1072997D01*
X-1070998D02*
X-1068999Y-685999D01*
X-1066999Y-681001D02*
X-1066000Y-680001D01*
X-1064000D01*
X-1063001Y-681001D01*
Y-682000D01*
X-1064000Y-683000D01*
X-1065000D01*
X-1064000D01*
X-1063001Y-684000D01*
Y-684999D01*
X-1064000Y-685999D01*
X-1066000D01*
X-1066999Y-684999D01*
X-1058002Y-685999D02*
Y-680001D01*
X-1061001Y-683000D01*
X-1057003D01*
X-856997Y-685999D02*
Y-680001D01*
X-853998D01*
X-852999Y-681001D01*
Y-683000D01*
X-853998Y-684000D01*
X-856997D01*
X-854998D02*
X-852999Y-685999D01*
X-848000D02*
Y-680001D01*
X-850999Y-683000D01*
X-847001D01*
X-845001Y-681001D02*
X-844002Y-680001D01*
X-842002D01*
X-841003Y-681001D01*
Y-684999D01*
X-842002Y-685999D01*
X-844002D01*
X-845001Y-684999D01*
Y-681001D01*
X-892997Y-685999D02*
Y-680001D01*
X-889998D01*
X-888999Y-681001D01*
Y-683000D01*
X-889998Y-684000D01*
X-892997D01*
X-890998D02*
X-888999Y-685999D01*
X-886999Y-681001D02*
X-886000Y-680001D01*
X-884000D01*
X-883001Y-681001D01*
Y-682000D01*
X-884000Y-683000D01*
X-885000D01*
X-884000D01*
X-883001Y-684000D01*
Y-684999D01*
X-884000Y-685999D01*
X-886000D01*
X-886999Y-684999D01*
X-881001D02*
X-880002Y-685999D01*
X-878002D01*
X-877003Y-684999D01*
Y-681001D01*
X-878002Y-680001D01*
X-880002D01*
X-881001Y-681001D01*
Y-682000D01*
X-880002Y-683000D01*
X-877003D01*
X-818000Y-685999D02*
Y-682001D01*
X-818999Y-681001D01*
X-820999D01*
X-821998Y-682001D01*
Y-685999D01*
X-820999Y-686999D01*
X-818999D01*
X-819999Y-685000D02*
X-818000Y-686999D01*
X-818999D02*
X-818000Y-685999D01*
X-812002Y-686999D02*
X-816000D01*
X-812002Y-683000D01*
Y-682001D01*
X-813001Y-681001D01*
X-815001D01*
X-816000Y-682001D01*
X-701998Y750001D02*
Y755999D01*
X-698999D01*
X-697999Y754999D01*
Y753000D01*
X-698999Y752000D01*
X-701998D01*
X-699998D02*
X-697999Y750001D01*
X-696000Y754999D02*
X-695000Y755999D01*
X-693001D01*
X-692001Y754999D01*
Y754000D01*
X-693001Y753000D01*
X-694000D01*
X-693001D01*
X-692001Y752000D01*
Y751001D01*
X-693001Y750001D01*
X-695000D01*
X-696000Y751001D01*
X-690002Y750001D02*
X-688002D01*
X-689002D01*
Y755999D01*
X-690002Y754999D01*
X-738997Y750001D02*
Y755999D01*
X-735998D01*
X-734999Y754999D01*
Y753000D01*
X-735998Y752000D01*
X-738997D01*
X-736998D02*
X-734999Y750001D01*
X-729001D02*
X-732999D01*
X-729001Y754000D01*
Y754999D01*
X-730000Y755999D01*
X-732000D01*
X-732999Y754999D01*
X-727001D02*
X-726002Y755999D01*
X-724002D01*
X-723003Y754999D01*
Y754000D01*
X-724002Y753000D01*
X-723003Y752000D01*
Y751001D01*
X-724002Y750001D01*
X-726002D01*
X-727001Y751001D01*
Y752000D01*
X-726002Y753000D01*
X-727001Y754000D01*
Y754999D01*
X-726002Y753000D02*
X-724002D01*
X-773997Y750001D02*
Y755999D01*
X-770998D01*
X-769999Y754999D01*
Y753000D01*
X-770998Y752000D01*
X-773997D01*
X-771998D02*
X-769999Y750001D01*
X-764001D02*
X-767999D01*
X-764001Y754000D01*
Y754999D01*
X-765000Y755999D01*
X-767000D01*
X-767999Y754999D01*
X-758003Y755999D02*
X-760002Y754999D01*
X-762001Y753000D01*
Y751001D01*
X-761002Y750001D01*
X-759002D01*
X-758003Y751001D01*
Y752000D01*
X-759002Y753000D01*
X-762001D01*
X-810997Y750001D02*
Y755999D01*
X-807998D01*
X-806999Y754999D01*
Y753000D01*
X-807998Y752000D01*
X-810997D01*
X-808998D02*
X-806999Y750001D01*
X-801001D02*
X-804999D01*
X-801001Y754000D01*
Y754999D01*
X-802000Y755999D01*
X-804000D01*
X-804999Y754999D01*
X-795003Y755999D02*
X-799001D01*
Y753000D01*
X-797002Y754000D01*
X-796002D01*
X-795003Y753000D01*
Y751001D01*
X-796002Y750001D01*
X-798002D01*
X-799001Y751001D01*
X-846997Y750001D02*
Y755999D01*
X-843998D01*
X-842999Y754999D01*
Y753000D01*
X-843998Y752000D01*
X-846997D01*
X-844998D02*
X-842999Y750001D01*
X-837001D02*
X-840999D01*
X-837001Y754000D01*
Y754999D01*
X-838000Y755999D01*
X-840000D01*
X-840999Y754999D01*
X-832002Y750001D02*
Y755999D01*
X-835001Y753000D01*
X-831003D01*
X-882997Y750001D02*
Y755999D01*
X-879998D01*
X-878999Y754999D01*
Y753000D01*
X-879998Y752000D01*
X-882997D01*
X-880998D02*
X-878999Y750001D01*
X-873001D02*
X-876999D01*
X-873001Y754000D01*
Y754999D01*
X-874000Y755999D01*
X-876000D01*
X-876999Y754999D01*
X-871001D02*
X-870002Y755999D01*
X-868002D01*
X-867003Y754999D01*
Y754000D01*
X-868002Y753000D01*
X-869002D01*
X-868002D01*
X-867003Y752000D01*
Y751001D01*
X-868002Y750001D01*
X-870002D01*
X-871001Y751001D01*
X-918997Y750001D02*
Y755999D01*
X-915998D01*
X-914999Y754999D01*
Y753000D01*
X-915998Y752000D01*
X-918997D01*
X-916998D02*
X-914999Y750001D01*
X-909001D02*
X-912999D01*
X-909001Y754000D01*
Y754999D01*
X-910000Y755999D01*
X-912000D01*
X-912999Y754999D01*
X-903003Y750001D02*
X-907001D01*
X-903003Y754000D01*
Y754999D01*
X-904002Y755999D01*
X-906002D01*
X-907001Y754999D01*
X-169000Y280001D02*
Y283999D01*
X-169999Y284999D01*
X-171999D01*
X-172998Y283999D01*
Y280001D01*
X-171999Y279001D01*
X-169999D01*
X-170999Y281000D02*
X-169000Y279001D01*
X-169999D02*
X-169000Y280001D01*
X-164001Y279001D02*
Y284999D01*
X-167000Y282000D01*
X-163002D01*
X-158000Y304001D02*
Y307999D01*
X-158999Y308999D01*
X-160999D01*
X-161998Y307999D01*
Y304001D01*
X-160999Y303001D01*
X-158999D01*
X-159999Y305000D02*
X-158000Y303001D01*
X-158999D02*
X-158000Y304001D01*
X-156000Y307999D02*
X-155001Y308999D01*
X-153001D01*
X-152002Y307999D01*
Y307000D01*
X-153001Y306000D01*
X-154001D01*
X-153001D01*
X-152002Y305000D01*
Y304001D01*
X-153001Y303001D01*
X-155001D01*
X-156000Y304001D01*
X-1024998Y747999D02*
Y742001D01*
X-1021000D01*
X-1019000Y746999D02*
X-1018001Y747999D01*
X-1016001D01*
X-1015002Y746999D01*
Y746000D01*
X-1016001Y745000D01*
X-1017001D01*
X-1016001D01*
X-1015002Y744000D01*
Y743001D01*
X-1016001Y742001D01*
X-1018001D01*
X-1019000Y743001D01*
X-1103998Y747999D02*
Y742001D01*
X-1100000D01*
X-1094002D02*
X-1098000D01*
X-1094002Y746000D01*
Y746999D01*
X-1095001Y747999D01*
X-1097001D01*
X-1098000Y746999D01*
X-1184999Y747999D02*
Y742001D01*
X-1181000D01*
X-1179001D02*
X-1177001D01*
X-1178001D01*
Y747999D01*
X-1179001Y746999D01*
M02*
