G04*
G04 #@! TF.GenerationSoftware,Altium Limited,Altium Designer,24.9.1 (31)*
G04*
G04 Layer_Color=8421504*
%FSLAX44Y44*%
%MOMM*%
G71*
G04*
G04 #@! TF.SameCoordinates,25B5EA7A-0A89-4A72-9C9E-8463CCD4450D*
G04*
G04*
G04 #@! TF.FilePolarity,Positive*
G04*
G01*
G75*
%ADD17R,2.1000X1.1000*%
%ADD18R,3.0000X2.7000*%
%ADD19R,3.0000X2.7000*%
%ADD20R,0.6000X1.9000*%
%ADD21R,0.6000X0.8000*%
%ADD22R,0.7000X0.8500*%
%ADD23R,0.4500X0.4500*%
%ADD24R,0.4500X0.4500*%
%ADD25R,0.8500X0.7000*%
%ADD26O,3.0000X0.6000*%
%ADD27O,2.2000X0.6000*%
%ADD28R,0.4000X0.7500*%
%ADD29R,0.7500X0.4000*%
%ADD30O,1.4500X0.3000*%
%ADD31R,1.2000X0.8000*%
%ADD32R,1.8000X0.6000*%
%ADD33R,1.2500X2.7000*%
%ADD34R,0.8300X0.6300*%
%ADD35R,0.8000X0.6000*%
%ADD36R,2.7000X1.2500*%
%ADD37R,0.9500X0.8000*%
%ADD38R,0.8000X0.9500*%
G04:AMPARAMS|DCode=39|XSize=0.65mm|YSize=1.2mm|CornerRadius=0.0488mm|HoleSize=0mm|Usage=FLASHONLY|Rotation=90.000|XOffset=0mm|YOffset=0mm|HoleType=Round|Shape=RoundedRectangle|*
%AMROUNDEDRECTD39*
21,1,0.6500,1.1025,0,0,90.0*
21,1,0.5525,1.2000,0,0,90.0*
1,1,0.0975,0.5513,0.2763*
1,1,0.0975,0.5513,-0.2763*
1,1,0.0975,-0.5513,-0.2763*
1,1,0.0975,-0.5513,0.2763*
%
%ADD39ROUNDEDRECTD39*%
%ADD40R,1.6500X0.6000*%
%ADD41O,0.3000X1.7000*%
G04:AMPARAMS|DCode=42|XSize=0.25mm|YSize=0.6mm|CornerRadius=0.0625mm|HoleSize=0mm|Usage=FLASHONLY|Rotation=180.000|XOffset=0mm|YOffset=0mm|HoleType=Round|Shape=RoundedRectangle|*
%AMROUNDEDRECTD42*
21,1,0.2500,0.4750,0,0,180.0*
21,1,0.1250,0.6000,0,0,180.0*
1,1,0.1250,-0.0625,0.2375*
1,1,0.1250,0.0625,0.2375*
1,1,0.1250,0.0625,-0.2375*
1,1,0.1250,-0.0625,-0.2375*
%
%ADD42ROUNDEDRECTD42*%
G04:AMPARAMS|DCode=43|XSize=0.25mm|YSize=0.6mm|CornerRadius=0.0625mm|HoleSize=0mm|Usage=FLASHONLY|Rotation=270.000|XOffset=0mm|YOffset=0mm|HoleType=Round|Shape=RoundedRectangle|*
%AMROUNDEDRECTD43*
21,1,0.2500,0.4750,0,0,270.0*
21,1,0.1250,0.6000,0,0,270.0*
1,1,0.1250,-0.2375,-0.0625*
1,1,0.1250,-0.2375,0.0625*
1,1,0.1250,0.2375,0.0625*
1,1,0.1250,0.2375,-0.0625*
%
%ADD43ROUNDEDRECTD43*%
%ADD44R,2.0000X1.0000*%
%ADD45O,0.2400X0.9000*%
%ADD46O,0.9000X0.2400*%
%ADD47R,0.5000X0.4000*%
%ADD48R,0.5000X0.7500*%
%ADD49R,0.5000X1.3000*%
G04:AMPARAMS|DCode=50|XSize=0.45mm|YSize=1.9mm|CornerRadius=0.1125mm|HoleSize=0mm|Usage=FLASHONLY|Rotation=90.000|XOffset=0mm|YOffset=0mm|HoleType=Round|Shape=RoundedRectangle|*
%AMROUNDEDRECTD50*
21,1,0.4500,1.6750,0,0,90.0*
21,1,0.2250,1.9000,0,0,90.0*
1,1,0.2250,0.8375,0.1125*
1,1,0.2250,0.8375,-0.1125*
1,1,0.2250,-0.8375,-0.1125*
1,1,0.2250,-0.8375,0.1125*
%
%ADD50ROUNDEDRECTD50*%
G04:AMPARAMS|DCode=51|XSize=0.35mm|YSize=1.8mm|CornerRadius=0.0875mm|HoleSize=0mm|Usage=FLASHONLY|Rotation=90.000|XOffset=0mm|YOffset=0mm|HoleType=Round|Shape=RoundedRectangle|*
%AMROUNDEDRECTD51*
21,1,0.3500,1.6250,0,0,90.0*
21,1,0.1750,1.8000,0,0,90.0*
1,1,0.1750,0.8125,0.0875*
1,1,0.1750,0.8125,-0.0875*
1,1,0.1750,-0.8125,-0.0875*
1,1,0.1750,-0.8125,0.0875*
%
%ADD51ROUNDEDRECTD51*%
%ADD52R,2.6000X1.6000*%
G36*
X12000Y-233000D02*
X-3000D01*
Y-218000D01*
X12000D01*
Y-233000D01*
D02*
G37*
D17*
X-817798Y-695201D02*
D03*
X-817798Y-740800D02*
D03*
D18*
X-738304Y-702996D02*
D03*
X-738304Y-732995D02*
D03*
D19*
X-771299Y-702998D02*
D03*
X-771299Y-732998D02*
D03*
D20*
X509400Y-237800D02*
D03*
X519000Y-257000D02*
D03*
X499800D02*
D03*
D21*
X508000Y-216000D02*
D03*
X494000D02*
D03*
X-219000Y558500D02*
D03*
Y533500D02*
D03*
Y63500D02*
D03*
Y88500D02*
D03*
Y-380500D02*
D03*
Y-405500D02*
D03*
X224000Y321500D02*
D03*
Y346500D02*
D03*
Y-122500D02*
D03*
Y-147500D02*
D03*
Y-593500D02*
D03*
Y-618500D02*
D03*
D22*
X512750Y-280000D02*
D03*
X525250D02*
D03*
D23*
X769000Y478000D02*
D03*
Y486000D02*
D03*
Y9000D02*
D03*
Y17000D02*
D03*
X769000Y-461000D02*
D03*
Y-453000D02*
D03*
X493000Y-284000D02*
D03*
Y-276000D02*
D03*
X502000Y-276000D02*
D03*
Y-284000D02*
D03*
X-230000Y207000D02*
D03*
Y215000D02*
D03*
X-239000Y215000D02*
D03*
Y207000D02*
D03*
X-266000Y207000D02*
D03*
Y215000D02*
D03*
X-275000Y215000D02*
D03*
Y207000D02*
D03*
X-248000Y207000D02*
D03*
Y215000D02*
D03*
X-257000Y215000D02*
D03*
Y207000D02*
D03*
X-289000Y239000D02*
D03*
Y247000D02*
D03*
X-217000Y241000D02*
D03*
Y233000D02*
D03*
X-249000Y256000D02*
D03*
Y264000D02*
D03*
X-191000Y249000D02*
D03*
Y241000D02*
D03*
X-240000Y256000D02*
D03*
Y264000D02*
D03*
X-284000Y207000D02*
D03*
Y215000D02*
D03*
X-34000Y272000D02*
D03*
Y280000D02*
D03*
X-30000Y242000D02*
D03*
Y234000D02*
D03*
X-191000Y216000D02*
D03*
Y208000D02*
D03*
Y233000D02*
D03*
Y225000D02*
D03*
X-200250Y313000D02*
D03*
Y321000D02*
D03*
Y337000D02*
D03*
Y329000D02*
D03*
X-209250Y337000D02*
D03*
Y329000D02*
D03*
X-178000Y518000D02*
D03*
Y526000D02*
D03*
X-196000D02*
D03*
Y518000D02*
D03*
X-191250Y321000D02*
D03*
Y313000D02*
D03*
Y329000D02*
D03*
Y337000D02*
D03*
X-202000Y645000D02*
D03*
Y637000D02*
D03*
X-193000Y645000D02*
D03*
Y637000D02*
D03*
X-189000Y594000D02*
D03*
Y586000D02*
D03*
X-186000Y553000D02*
D03*
Y561000D02*
D03*
X-187000Y518000D02*
D03*
Y526000D02*
D03*
X-205000Y518000D02*
D03*
Y526000D02*
D03*
X-200250Y-157000D02*
D03*
Y-149000D02*
D03*
Y-133000D02*
D03*
Y-141000D02*
D03*
X-209250Y-133000D02*
D03*
Y-141000D02*
D03*
X-178000Y48000D02*
D03*
Y56000D02*
D03*
X-196000Y48000D02*
D03*
Y56000D02*
D03*
X-191250Y-149000D02*
D03*
Y-157000D02*
D03*
Y-141000D02*
D03*
Y-133000D02*
D03*
X-202000Y175000D02*
D03*
Y167000D02*
D03*
X-193000Y175000D02*
D03*
Y167000D02*
D03*
X-189000Y124000D02*
D03*
Y116000D02*
D03*
X-186000Y83000D02*
D03*
Y91000D02*
D03*
X-187000Y48000D02*
D03*
Y56000D02*
D03*
X-205000Y48000D02*
D03*
Y56000D02*
D03*
X-47000Y565000D02*
D03*
Y557000D02*
D03*
Y95000D02*
D03*
Y87000D02*
D03*
Y-374000D02*
D03*
Y-382000D02*
D03*
X52000Y315000D02*
D03*
Y323000D02*
D03*
Y-146000D02*
D03*
Y-138000D02*
D03*
Y-625000D02*
D03*
Y-617000D02*
D03*
X-47000Y594000D02*
D03*
Y602000D02*
D03*
Y124000D02*
D03*
Y132000D02*
D03*
Y-345000D02*
D03*
Y-337000D02*
D03*
X52000Y287000D02*
D03*
Y279000D02*
D03*
Y-185000D02*
D03*
Y-193000D02*
D03*
Y-653000D02*
D03*
Y-661000D02*
D03*
X-3000Y-726000D02*
D03*
Y-734000D02*
D03*
X19000Y656000D02*
D03*
Y664000D02*
D03*
Y186000D02*
D03*
Y194000D02*
D03*
Y-276000D02*
D03*
Y-284000D02*
D03*
X-47000Y-734000D02*
D03*
Y-726000D02*
D03*
X63000Y664000D02*
D03*
Y656000D02*
D03*
Y194000D02*
D03*
Y186000D02*
D03*
Y-284000D02*
D03*
Y-276000D02*
D03*
X206750Y576498D02*
D03*
Y568498D02*
D03*
X205750Y107498D02*
D03*
Y99498D02*
D03*
X-200250Y-626000D02*
D03*
Y-618000D02*
D03*
X205750Y-371502D02*
D03*
Y-363502D02*
D03*
X206750Y552498D02*
D03*
Y560498D02*
D03*
X205750Y83498D02*
D03*
Y91498D02*
D03*
X-200250Y-602000D02*
D03*
Y-610000D02*
D03*
X205750Y-379502D02*
D03*
Y-387502D02*
D03*
X215750Y552498D02*
D03*
Y560498D02*
D03*
X214750Y83498D02*
D03*
Y91498D02*
D03*
X-209250Y-602000D02*
D03*
Y-610000D02*
D03*
X214750Y-379502D02*
D03*
Y-387502D02*
D03*
X-178000Y-421000D02*
D03*
Y-413000D02*
D03*
X183000Y362000D02*
D03*
Y354000D02*
D03*
Y-107000D02*
D03*
Y-115000D02*
D03*
Y-578000D02*
D03*
Y-586000D02*
D03*
X-196000Y-413000D02*
D03*
Y-421000D02*
D03*
X201000Y354000D02*
D03*
Y362000D02*
D03*
Y-107000D02*
D03*
Y-115000D02*
D03*
Y-578000D02*
D03*
Y-586000D02*
D03*
X-5000Y-461000D02*
D03*
Y-453000D02*
D03*
X-19000Y-370000D02*
D03*
Y-378000D02*
D03*
X-32000Y-495000D02*
D03*
Y-503000D02*
D03*
X-42000Y-495000D02*
D03*
Y-503000D02*
D03*
Y-419000D02*
D03*
Y-411000D02*
D03*
X-32000D02*
D03*
Y-419000D02*
D03*
X-3000Y-710000D02*
D03*
Y-718000D02*
D03*
X19000Y640000D02*
D03*
Y648000D02*
D03*
Y170000D02*
D03*
Y178000D02*
D03*
Y-292000D02*
D03*
Y-300000D02*
D03*
X-47000Y-709000D02*
D03*
Y-717000D02*
D03*
X63000Y639000D02*
D03*
Y647000D02*
D03*
Y169000D02*
D03*
Y177000D02*
D03*
Y-293000D02*
D03*
Y-301000D02*
D03*
X197750Y568498D02*
D03*
Y576498D02*
D03*
X196750Y99498D02*
D03*
Y107498D02*
D03*
X-191250Y-618000D02*
D03*
Y-626000D02*
D03*
X196750Y-363502D02*
D03*
Y-371502D02*
D03*
X197750Y560498D02*
D03*
Y552498D02*
D03*
X196750Y91498D02*
D03*
Y83498D02*
D03*
X-191250Y-610000D02*
D03*
Y-602000D02*
D03*
X196750Y-387502D02*
D03*
Y-379502D02*
D03*
X-202000Y-294000D02*
D03*
Y-302000D02*
D03*
X207000Y235000D02*
D03*
Y243000D02*
D03*
Y-234000D02*
D03*
Y-226000D02*
D03*
Y-705000D02*
D03*
Y-697000D02*
D03*
X-193000Y-294000D02*
D03*
Y-302000D02*
D03*
X198000Y235000D02*
D03*
Y243000D02*
D03*
Y-234000D02*
D03*
Y-226000D02*
D03*
Y-705000D02*
D03*
Y-697000D02*
D03*
X-47000Y639000D02*
D03*
Y647000D02*
D03*
Y177000D02*
D03*
Y169000D02*
D03*
Y-300000D02*
D03*
Y-292000D02*
D03*
X52000Y241000D02*
D03*
Y233000D02*
D03*
Y-236000D02*
D03*
Y-228000D02*
D03*
Y-707000D02*
D03*
Y-699000D02*
D03*
X-47000Y586000D02*
D03*
Y578000D02*
D03*
Y108000D02*
D03*
Y116000D02*
D03*
Y-353000D02*
D03*
Y-361000D02*
D03*
X52000Y295000D02*
D03*
Y303000D02*
D03*
Y-169000D02*
D03*
Y-177000D02*
D03*
Y-637000D02*
D03*
Y-645000D02*
D03*
X-189000Y-345000D02*
D03*
Y-353000D02*
D03*
X194000Y286000D02*
D03*
Y294000D02*
D03*
Y-183000D02*
D03*
Y-175000D02*
D03*
Y-654000D02*
D03*
Y-646000D02*
D03*
X-186000Y-386000D02*
D03*
Y-378000D02*
D03*
X191000Y327000D02*
D03*
Y319000D02*
D03*
Y-142000D02*
D03*
Y-150000D02*
D03*
Y-613000D02*
D03*
Y-621000D02*
D03*
X-187000Y-421000D02*
D03*
Y-413000D02*
D03*
X192000Y362000D02*
D03*
Y354000D02*
D03*
Y-107000D02*
D03*
Y-115000D02*
D03*
Y-578000D02*
D03*
Y-586000D02*
D03*
X-205000Y-421000D02*
D03*
Y-413000D02*
D03*
X210000Y362000D02*
D03*
Y354000D02*
D03*
Y-107000D02*
D03*
Y-115000D02*
D03*
Y-578000D02*
D03*
Y-586000D02*
D03*
X-697000Y-732000D02*
D03*
Y-740000D02*
D03*
Y-723000D02*
D03*
Y-715000D02*
D03*
D24*
X526000Y-216000D02*
D03*
X518000D02*
D03*
X515000Y-139000D02*
D03*
X523000D02*
D03*
X741000Y-405000D02*
D03*
X749000D02*
D03*
X515000Y-151000D02*
D03*
X523000D02*
D03*
X741000Y65000D02*
D03*
X749000D02*
D03*
X515000Y-163000D02*
D03*
X523000D02*
D03*
X741000Y535000D02*
D03*
X749000D02*
D03*
X24000Y-578000D02*
D03*
X16000D02*
D03*
X-36000Y220000D02*
D03*
X-44000D02*
D03*
X-182000Y297000D02*
D03*
X-174000D02*
D03*
X-191250Y347000D02*
D03*
X-199250D02*
D03*
X-191250Y356000D02*
D03*
X-199250D02*
D03*
X-191250Y-123000D02*
D03*
X-199250D02*
D03*
X-191250Y-114000D02*
D03*
X-199250D02*
D03*
X-9000Y252000D02*
D03*
X-17000D02*
D03*
X7000D02*
D03*
X-1000D02*
D03*
X15000D02*
D03*
X23000D02*
D03*
X-40000Y673000D02*
D03*
X-48000D02*
D03*
X-40000Y698000D02*
D03*
X-48000D02*
D03*
X-191000Y685000D02*
D03*
X-199000D02*
D03*
X-48000Y735000D02*
D03*
X-40000D02*
D03*
X-38000Y-211000D02*
D03*
X-30000D02*
D03*
X-38000Y-238000D02*
D03*
X-30000D02*
D03*
X-38000Y-229000D02*
D03*
X-30000D02*
D03*
X197750Y542498D02*
D03*
X205750D02*
D03*
X196750Y73498D02*
D03*
X204750D02*
D03*
X-191250Y-592000D02*
D03*
X-199250D02*
D03*
X204750Y-397502D02*
D03*
X196750D02*
D03*
X197750Y533498D02*
D03*
X205750D02*
D03*
X196750Y64498D02*
D03*
X204750D02*
D03*
X-191250Y-583000D02*
D03*
X-199250D02*
D03*
X204750Y-406502D02*
D03*
X196750D02*
D03*
X-25000Y-751500D02*
D03*
Y-742500D02*
D03*
X-5000Y-155000D02*
D03*
X-13000D02*
D03*
X-199000Y697000D02*
D03*
X-191000D02*
D03*
X-40000Y686000D02*
D03*
X-48000D02*
D03*
X-199000Y720000D02*
D03*
X-191000D02*
D03*
X-48000Y710000D02*
D03*
X-40000D02*
D03*
X-48000Y761000D02*
D03*
X-40000D02*
D03*
X-199000Y735000D02*
D03*
X-191000D02*
D03*
X-30000Y-220000D02*
D03*
X-38000D02*
D03*
X-527000Y-715000D02*
D03*
X-535000D02*
D03*
X-770000Y-676000D02*
D03*
X-762000D02*
D03*
X-527000Y-727000D02*
D03*
X-535000D02*
D03*
D25*
X519000Y-120250D02*
D03*
Y-107750D02*
D03*
D26*
X555000Y-131300D02*
D03*
Y-151300D02*
D03*
Y-231300D02*
D03*
Y-251300D02*
D03*
Y-121300D02*
D03*
Y-141300D02*
D03*
Y-161300D02*
D03*
Y-181300D02*
D03*
Y-201300D02*
D03*
Y-221300D02*
D03*
Y-241300D02*
D03*
Y-261300D02*
D03*
D27*
X57000Y-562050D02*
D03*
Y-549350D02*
D03*
Y-536650D02*
D03*
Y-523950D02*
D03*
X-11000Y-562050D02*
D03*
Y-549350D02*
D03*
Y-536650D02*
D03*
Y-523950D02*
D03*
D28*
X-31000Y-252000D02*
D03*
X-26000Y-266000D02*
D03*
X-36000D02*
D03*
D29*
X-175000Y273000D02*
D03*
X-189000Y268000D02*
D03*
Y278000D02*
D03*
D30*
X-232000Y245000D02*
D03*
Y240000D02*
D03*
Y235000D02*
D03*
Y230000D02*
D03*
Y225000D02*
D03*
X-276000D02*
D03*
Y230000D02*
D03*
Y235000D02*
D03*
Y240000D02*
D03*
Y245000D02*
D03*
D31*
X-93500Y296700D02*
D03*
Y271300D02*
D03*
X-156500D02*
D03*
Y296700D02*
D03*
D32*
X-63000Y207950D02*
D03*
X-173000D02*
D03*
Y220650D02*
D03*
X-63000D02*
D03*
Y233350D02*
D03*
Y246050D02*
D03*
X-173000D02*
D03*
Y233350D02*
D03*
X-555000Y-740050D02*
D03*
X-665000D02*
D03*
Y-727350D02*
D03*
X-555000D02*
D03*
Y-714650D02*
D03*
Y-701950D02*
D03*
X-665000D02*
D03*
Y-714650D02*
D03*
D33*
X-260000Y577000D02*
D03*
X-307000D02*
D03*
Y481000D02*
D03*
X-260000D02*
D03*
X-307000Y513000D02*
D03*
X-260000D02*
D03*
Y545000D02*
D03*
X-307000D02*
D03*
X-229000Y396000D02*
D03*
X-257500D02*
D03*
X-257500Y364000D02*
D03*
X-229000D02*
D03*
X-260000Y107000D02*
D03*
X-307000D02*
D03*
Y11000D02*
D03*
X-260000D02*
D03*
X-307000Y43000D02*
D03*
X-260000D02*
D03*
Y75000D02*
D03*
X-307000D02*
D03*
X-229000Y-74000D02*
D03*
X-257500D02*
D03*
X-257500Y-106000D02*
D03*
X-229000D02*
D03*
X-260000Y-362000D02*
D03*
X-307000D02*
D03*
X283500Y329000D02*
D03*
X330500D02*
D03*
X283500Y-140000D02*
D03*
X330500D02*
D03*
X283500Y-611000D02*
D03*
X330500D02*
D03*
X-307000Y-458000D02*
D03*
X-260000D02*
D03*
X330500Y425000D02*
D03*
X283500D02*
D03*
X330500Y-44000D02*
D03*
X283500D02*
D03*
X330500Y-515000D02*
D03*
X283500D02*
D03*
X-307000Y-426000D02*
D03*
X-260000D02*
D03*
X330500Y393000D02*
D03*
X283500D02*
D03*
X330500Y-76000D02*
D03*
X283500D02*
D03*
X330500Y-547000D02*
D03*
X283500D02*
D03*
X-260000Y-394000D02*
D03*
X-307000D02*
D03*
X283500Y361000D02*
D03*
X330500D02*
D03*
X283500Y-108000D02*
D03*
X330500D02*
D03*
X283500Y-579000D02*
D03*
X330500D02*
D03*
X235500Y493498D02*
D03*
X264000D02*
D03*
X234500Y24498D02*
D03*
X263000D02*
D03*
X-229000Y-543000D02*
D03*
X-257500D02*
D03*
X234500Y-446502D02*
D03*
X263000D02*
D03*
X-46750Y297000D02*
D03*
X-75250D02*
D03*
X52750Y592000D02*
D03*
X81250D02*
D03*
X-46750Y-173000D02*
D03*
X-75250D02*
D03*
X51750Y123000D02*
D03*
X80250D02*
D03*
X-46750Y-642000D02*
D03*
X-75250D02*
D03*
X51750Y-348000D02*
D03*
X80250D02*
D03*
X264000Y525498D02*
D03*
X235500D02*
D03*
X263000Y56498D02*
D03*
X234500D02*
D03*
X-257500Y-575000D02*
D03*
X-229000D02*
D03*
X263000Y-414502D02*
D03*
X234500D02*
D03*
D34*
X-203000Y534850D02*
D03*
Y557150D02*
D03*
Y64850D02*
D03*
Y87150D02*
D03*
Y-404150D02*
D03*
Y-381850D02*
D03*
X208000Y345150D02*
D03*
Y322850D02*
D03*
Y-123850D02*
D03*
Y-146150D02*
D03*
Y-594850D02*
D03*
Y-617150D02*
D03*
D35*
X-179500Y503000D02*
D03*
X-204500D02*
D03*
X-179500Y33000D02*
D03*
X-204500D02*
D03*
X-179500Y-436000D02*
D03*
X-204500D02*
D03*
X184500Y377000D02*
D03*
X209500D02*
D03*
Y-92000D02*
D03*
X184500D02*
D03*
X209500Y-563000D02*
D03*
X184500D02*
D03*
D36*
X-204250Y398250D02*
D03*
Y369750D02*
D03*
Y-71750D02*
D03*
Y-100250D02*
D03*
X210750Y491248D02*
D03*
Y519748D02*
D03*
X209750Y22248D02*
D03*
Y50748D02*
D03*
X-204250Y-540750D02*
D03*
Y-569250D02*
D03*
X209750Y-448752D02*
D03*
Y-420252D02*
D03*
X-1137000Y-741500D02*
D03*
Y-694500D02*
D03*
X-1101000Y-741500D02*
D03*
Y-694500D02*
D03*
X-921000Y-741500D02*
D03*
Y-694500D02*
D03*
X-957000D02*
D03*
Y-741500D02*
D03*
X-993000D02*
D03*
Y-694500D02*
D03*
X-1029000D02*
D03*
Y-741500D02*
D03*
X-1065000D02*
D03*
Y-694500D02*
D03*
X-849000Y-741500D02*
D03*
Y-694500D02*
D03*
X-885000D02*
D03*
Y-741500D02*
D03*
X-695000Y741500D02*
D03*
Y694500D02*
D03*
X-731000D02*
D03*
Y741500D02*
D03*
X-767000D02*
D03*
Y694500D02*
D03*
X-803000D02*
D03*
Y741500D02*
D03*
X-839000D02*
D03*
Y694500D02*
D03*
X-875000D02*
D03*
Y741500D02*
D03*
X-911000D02*
D03*
Y694500D02*
D03*
D37*
X-205000Y608250D02*
D03*
Y621750D02*
D03*
X-190000Y608250D02*
D03*
Y621750D02*
D03*
X-166000Y504250D02*
D03*
Y517750D02*
D03*
X-205000Y138250D02*
D03*
Y151750D02*
D03*
X-190000Y138250D02*
D03*
Y151750D02*
D03*
X-166000Y34250D02*
D03*
Y47750D02*
D03*
X-44250Y363250D02*
D03*
Y376750D02*
D03*
X50750Y526248D02*
D03*
Y512748D02*
D03*
X-44250Y-106750D02*
D03*
Y-93250D02*
D03*
X49750Y57248D02*
D03*
Y43748D02*
D03*
X-44250Y-575750D02*
D03*
Y-562250D02*
D03*
X49750Y-413752D02*
D03*
Y-427252D02*
D03*
X-205000Y-330750D02*
D03*
Y-317250D02*
D03*
X210000Y271750D02*
D03*
Y258250D02*
D03*
Y-197250D02*
D03*
Y-210750D02*
D03*
Y-668250D02*
D03*
Y-681750D02*
D03*
X-190000Y-330750D02*
D03*
Y-317250D02*
D03*
X195000Y271750D02*
D03*
Y258250D02*
D03*
Y-197250D02*
D03*
Y-210750D02*
D03*
Y-668250D02*
D03*
Y-681750D02*
D03*
X-166000Y-434750D02*
D03*
Y-421250D02*
D03*
X171000Y375750D02*
D03*
Y362250D02*
D03*
Y-93250D02*
D03*
Y-106750D02*
D03*
Y-564250D02*
D03*
Y-577750D02*
D03*
D38*
X-175750Y488000D02*
D03*
X-162250D02*
D03*
X-175750Y18000D02*
D03*
X-162250D02*
D03*
X-175750Y-451000D02*
D03*
X-162250D02*
D03*
X180750Y392000D02*
D03*
X167250D02*
D03*
X180750Y-77000D02*
D03*
X167250D02*
D03*
X180750Y-548000D02*
D03*
X167250D02*
D03*
D39*
X-10500Y236000D02*
D03*
Y226500D02*
D03*
Y217000D02*
D03*
X19000D02*
D03*
Y236000D02*
D03*
D40*
X-167000Y760800D02*
D03*
Y748100D02*
D03*
Y735400D02*
D03*
Y722700D02*
D03*
Y710000D02*
D03*
Y697300D02*
D03*
Y684600D02*
D03*
Y671900D02*
D03*
X-69500D02*
D03*
Y684600D02*
D03*
Y697300D02*
D03*
Y710000D02*
D03*
Y722700D02*
D03*
Y735400D02*
D03*
Y748100D02*
D03*
Y760800D02*
D03*
D41*
X-39000Y-478500D02*
D03*
X-34000D02*
D03*
X-29000D02*
D03*
X-24000D02*
D03*
X-19000D02*
D03*
X-39000Y-437500D02*
D03*
X-34000D02*
D03*
X-29000D02*
D03*
X-24000D02*
D03*
X-19000D02*
D03*
D42*
X-5500Y-372500D02*
D03*
X-500D02*
D03*
X4500D02*
D03*
X9500D02*
D03*
X14500D02*
D03*
X19500D02*
D03*
Y-349500D02*
D03*
X14500D02*
D03*
X9500D02*
D03*
X4500D02*
D03*
X-500D02*
D03*
X-5500D02*
D03*
D43*
X23500Y-363500D02*
D03*
Y-358500D02*
D03*
X-9500Y-363500D02*
D03*
Y-358500D02*
D03*
D44*
X7000Y-361000D02*
D03*
D45*
X-8000Y-246500D02*
D03*
X-3000D02*
D03*
X2000D02*
D03*
X7000D02*
D03*
X12000D02*
D03*
X17000D02*
D03*
Y-204500D02*
D03*
X12000D02*
D03*
X7000D02*
D03*
X2000D02*
D03*
X-3000D02*
D03*
X-8000D02*
D03*
D46*
X25500Y-238000D02*
D03*
Y-233000D02*
D03*
Y-228000D02*
D03*
Y-223000D02*
D03*
Y-218000D02*
D03*
Y-213000D02*
D03*
X-16500Y-223000D02*
D03*
Y-213000D02*
D03*
Y-218000D02*
D03*
Y-238000D02*
D03*
Y-233000D02*
D03*
Y-228000D02*
D03*
D47*
X-13000Y-730500D02*
D03*
Y-711500D02*
D03*
X-37000D02*
D03*
X29000Y660500D02*
D03*
Y641500D02*
D03*
X53000D02*
D03*
X29000Y190500D02*
D03*
Y171500D02*
D03*
X53000D02*
D03*
Y-298500D02*
D03*
X29000D02*
D03*
Y-279500D02*
D03*
D48*
X-13000Y-721000D02*
D03*
X29000Y651000D02*
D03*
Y181000D02*
D03*
Y-289000D02*
D03*
D49*
X-37000Y-726000D02*
D03*
X53000Y656000D02*
D03*
Y186000D02*
D03*
Y-284000D02*
D03*
D50*
X-68250Y324749D02*
D03*
Y331249D02*
D03*
Y337749D02*
D03*
Y344249D02*
D03*
Y350750D02*
D03*
Y357250D02*
D03*
Y363750D02*
D03*
Y370250D02*
D03*
Y376750D02*
D03*
Y383250D02*
D03*
Y389750D02*
D03*
Y396250D02*
D03*
Y402751D02*
D03*
Y409251D02*
D03*
Y415751D02*
D03*
Y422251D02*
D03*
Y428751D02*
D03*
Y435251D02*
D03*
X-168250Y434750D02*
D03*
Y428250D02*
D03*
Y421750D02*
D03*
Y415250D02*
D03*
Y408750D02*
D03*
Y402249D02*
D03*
Y395749D02*
D03*
Y389249D02*
D03*
Y382749D02*
D03*
Y376249D02*
D03*
Y369749D02*
D03*
Y363249D02*
D03*
Y356749D02*
D03*
Y350249D02*
D03*
Y343748D02*
D03*
Y337248D02*
D03*
Y330748D02*
D03*
Y324248D02*
D03*
X174750Y565250D02*
D03*
Y558750D02*
D03*
Y552250D02*
D03*
Y545750D02*
D03*
Y539249D02*
D03*
Y532749D02*
D03*
Y526249D02*
D03*
Y519749D02*
D03*
Y513249D02*
D03*
Y506749D02*
D03*
Y500249D02*
D03*
Y493749D02*
D03*
Y487249D02*
D03*
Y480748D02*
D03*
Y474248D02*
D03*
Y467748D02*
D03*
Y461248D02*
D03*
Y454748D02*
D03*
X74750Y454247D02*
D03*
Y460747D02*
D03*
Y467247D02*
D03*
Y473747D02*
D03*
Y480247D02*
D03*
Y486748D02*
D03*
Y493248D02*
D03*
Y499748D02*
D03*
Y506248D02*
D03*
Y512748D02*
D03*
Y519248D02*
D03*
Y525748D02*
D03*
Y532248D02*
D03*
Y538749D02*
D03*
Y545249D02*
D03*
Y551749D02*
D03*
Y558249D02*
D03*
Y564749D02*
D03*
X-168250Y-145752D02*
D03*
Y-139252D02*
D03*
Y-132752D02*
D03*
Y-126252D02*
D03*
Y-119751D02*
D03*
Y-113251D02*
D03*
Y-106751D02*
D03*
Y-100251D02*
D03*
Y-93751D02*
D03*
Y-87251D02*
D03*
Y-80751D02*
D03*
Y-74251D02*
D03*
Y-67751D02*
D03*
Y-61250D02*
D03*
Y-54750D02*
D03*
Y-48250D02*
D03*
Y-41750D02*
D03*
Y-35250D02*
D03*
X-68250Y-34749D02*
D03*
Y-41249D02*
D03*
Y-47749D02*
D03*
Y-54249D02*
D03*
Y-60749D02*
D03*
Y-67249D02*
D03*
Y-73750D02*
D03*
Y-80250D02*
D03*
Y-86750D02*
D03*
Y-93250D02*
D03*
Y-99750D02*
D03*
Y-106250D02*
D03*
Y-112750D02*
D03*
Y-119250D02*
D03*
Y-125751D02*
D03*
Y-132251D02*
D03*
Y-138751D02*
D03*
Y-145251D02*
D03*
X173750Y96250D02*
D03*
Y89750D02*
D03*
Y83250D02*
D03*
Y76750D02*
D03*
Y70250D02*
D03*
Y63749D02*
D03*
Y57249D02*
D03*
Y50749D02*
D03*
Y44249D02*
D03*
Y37749D02*
D03*
Y31249D02*
D03*
Y24749D02*
D03*
Y18249D02*
D03*
Y11748D02*
D03*
Y5248D02*
D03*
Y-1252D02*
D03*
Y-7752D02*
D03*
Y-14252D02*
D03*
X73750Y-14753D02*
D03*
Y-8253D02*
D03*
Y-1753D02*
D03*
Y4747D02*
D03*
Y11248D02*
D03*
Y17748D02*
D03*
Y24248D02*
D03*
Y30748D02*
D03*
Y37248D02*
D03*
Y43748D02*
D03*
Y50248D02*
D03*
Y56748D02*
D03*
Y63248D02*
D03*
Y69749D02*
D03*
Y76249D02*
D03*
Y82749D02*
D03*
Y89249D02*
D03*
Y95749D02*
D03*
X-168250Y-614752D02*
D03*
Y-608252D02*
D03*
Y-601752D02*
D03*
Y-595252D02*
D03*
Y-588751D02*
D03*
Y-582251D02*
D03*
Y-575751D02*
D03*
Y-569251D02*
D03*
Y-562751D02*
D03*
Y-556251D02*
D03*
Y-549751D02*
D03*
Y-543251D02*
D03*
Y-536750D02*
D03*
Y-530250D02*
D03*
Y-523750D02*
D03*
Y-517250D02*
D03*
Y-510750D02*
D03*
Y-504250D02*
D03*
X-68250Y-503749D02*
D03*
Y-510249D02*
D03*
Y-516749D02*
D03*
Y-523249D02*
D03*
Y-529749D02*
D03*
Y-536250D02*
D03*
Y-542750D02*
D03*
Y-549250D02*
D03*
Y-555750D02*
D03*
Y-562250D02*
D03*
Y-568750D02*
D03*
Y-575250D02*
D03*
Y-581750D02*
D03*
Y-588250D02*
D03*
Y-594751D02*
D03*
Y-601251D02*
D03*
Y-607751D02*
D03*
Y-614251D02*
D03*
X73750Y-375251D02*
D03*
Y-381751D02*
D03*
Y-388251D02*
D03*
Y-394751D02*
D03*
Y-401251D02*
D03*
Y-407752D02*
D03*
Y-414252D02*
D03*
Y-420752D02*
D03*
Y-427252D02*
D03*
Y-433752D02*
D03*
Y-440252D02*
D03*
Y-446752D02*
D03*
Y-453252D02*
D03*
Y-459753D02*
D03*
Y-466253D02*
D03*
Y-472753D02*
D03*
Y-479253D02*
D03*
Y-485753D02*
D03*
X173750Y-485252D02*
D03*
Y-478752D02*
D03*
Y-472252D02*
D03*
Y-465752D02*
D03*
Y-459252D02*
D03*
Y-452751D02*
D03*
Y-446251D02*
D03*
Y-439751D02*
D03*
Y-433251D02*
D03*
Y-426751D02*
D03*
Y-420251D02*
D03*
Y-413751D02*
D03*
Y-407251D02*
D03*
Y-400751D02*
D03*
Y-394250D02*
D03*
Y-387750D02*
D03*
Y-381250D02*
D03*
Y-374750D02*
D03*
X-168500Y534000D02*
D03*
Y540500D02*
D03*
Y547000D02*
D03*
Y553500D02*
D03*
Y560000D02*
D03*
Y566501D02*
D03*
Y573001D02*
D03*
Y579501D02*
D03*
Y586001D02*
D03*
Y592501D02*
D03*
Y599001D02*
D03*
Y605501D02*
D03*
Y612001D02*
D03*
Y618502D02*
D03*
Y625002D02*
D03*
Y631502D02*
D03*
Y638002D02*
D03*
Y644502D02*
D03*
X-68500Y645003D02*
D03*
Y638503D02*
D03*
Y632003D02*
D03*
Y625503D02*
D03*
Y619002D02*
D03*
Y612502D02*
D03*
Y606002D02*
D03*
Y599502D02*
D03*
Y593002D02*
D03*
Y586502D02*
D03*
Y580002D02*
D03*
Y573502D02*
D03*
Y567002D02*
D03*
Y560502D02*
D03*
Y554001D02*
D03*
Y547501D02*
D03*
Y541001D02*
D03*
Y534501D02*
D03*
Y64501D02*
D03*
Y71001D02*
D03*
Y77501D02*
D03*
Y84001D02*
D03*
Y90501D02*
D03*
Y97002D02*
D03*
Y103502D02*
D03*
Y110002D02*
D03*
Y116502D02*
D03*
Y123002D02*
D03*
Y129502D02*
D03*
Y136002D02*
D03*
Y142502D02*
D03*
Y149003D02*
D03*
Y155503D02*
D03*
Y162003D02*
D03*
Y168503D02*
D03*
Y175003D02*
D03*
X-168500Y174502D02*
D03*
Y168002D02*
D03*
Y161502D02*
D03*
Y155002D02*
D03*
Y148502D02*
D03*
Y142001D02*
D03*
Y135501D02*
D03*
Y129001D02*
D03*
Y122501D02*
D03*
Y116001D02*
D03*
Y109501D02*
D03*
Y103001D02*
D03*
Y96501D02*
D03*
Y90000D02*
D03*
Y83500D02*
D03*
Y77000D02*
D03*
Y70500D02*
D03*
Y64000D02*
D03*
X-68500Y-404499D02*
D03*
Y-397999D02*
D03*
Y-391499D02*
D03*
Y-384999D02*
D03*
Y-378498D02*
D03*
Y-371998D02*
D03*
Y-365498D02*
D03*
Y-358998D02*
D03*
Y-352498D02*
D03*
Y-345998D02*
D03*
Y-339498D02*
D03*
Y-332998D02*
D03*
Y-326498D02*
D03*
Y-319998D02*
D03*
Y-313497D02*
D03*
Y-306997D02*
D03*
Y-300497D02*
D03*
Y-293997D02*
D03*
X-168500Y-294498D02*
D03*
Y-300998D02*
D03*
Y-307498D02*
D03*
Y-313998D02*
D03*
Y-320499D02*
D03*
Y-326999D02*
D03*
Y-333499D02*
D03*
Y-339999D02*
D03*
Y-346499D02*
D03*
Y-352999D02*
D03*
Y-359499D02*
D03*
Y-365999D02*
D03*
Y-372499D02*
D03*
Y-378999D02*
D03*
Y-385500D02*
D03*
Y-392000D02*
D03*
Y-398500D02*
D03*
Y-405000D02*
D03*
X173500Y346000D02*
D03*
Y339500D02*
D03*
Y333000D02*
D03*
Y326500D02*
D03*
Y320000D02*
D03*
Y313499D02*
D03*
Y306999D02*
D03*
Y300499D02*
D03*
Y293999D02*
D03*
Y287499D02*
D03*
Y280999D02*
D03*
Y274499D02*
D03*
Y267999D02*
D03*
Y261499D02*
D03*
Y254998D02*
D03*
Y248498D02*
D03*
Y241998D02*
D03*
Y235498D02*
D03*
X73500Y234997D02*
D03*
Y241497D02*
D03*
Y247997D02*
D03*
Y254497D02*
D03*
Y260998D02*
D03*
Y267498D02*
D03*
Y273998D02*
D03*
Y280498D02*
D03*
Y286998D02*
D03*
Y293498D02*
D03*
Y299998D02*
D03*
Y306498D02*
D03*
Y312998D02*
D03*
Y319499D02*
D03*
Y325999D02*
D03*
Y332499D02*
D03*
Y338999D02*
D03*
Y345499D02*
D03*
Y-123501D02*
D03*
Y-130001D02*
D03*
Y-136501D02*
D03*
Y-143001D02*
D03*
Y-149501D02*
D03*
Y-156002D02*
D03*
Y-162502D02*
D03*
Y-169002D02*
D03*
Y-175502D02*
D03*
Y-182002D02*
D03*
Y-188502D02*
D03*
Y-195002D02*
D03*
Y-201502D02*
D03*
Y-208002D02*
D03*
Y-214503D02*
D03*
Y-221003D02*
D03*
Y-227503D02*
D03*
Y-234003D02*
D03*
X173500Y-233502D02*
D03*
Y-227002D02*
D03*
Y-220502D02*
D03*
Y-214002D02*
D03*
Y-207502D02*
D03*
Y-201001D02*
D03*
Y-194501D02*
D03*
Y-188001D02*
D03*
Y-181501D02*
D03*
Y-175001D02*
D03*
Y-168501D02*
D03*
Y-162001D02*
D03*
Y-155501D02*
D03*
Y-149000D02*
D03*
Y-142500D02*
D03*
Y-136000D02*
D03*
Y-129500D02*
D03*
Y-123000D02*
D03*
X73500Y-594501D02*
D03*
Y-601001D02*
D03*
Y-607501D02*
D03*
Y-614001D02*
D03*
Y-620502D02*
D03*
Y-627002D02*
D03*
Y-633502D02*
D03*
Y-640002D02*
D03*
Y-646502D02*
D03*
Y-653002D02*
D03*
Y-659502D02*
D03*
Y-666002D02*
D03*
Y-672502D02*
D03*
Y-679003D02*
D03*
Y-685503D02*
D03*
Y-692003D02*
D03*
Y-698503D02*
D03*
Y-705003D02*
D03*
X173500Y-704502D02*
D03*
Y-698002D02*
D03*
Y-691502D02*
D03*
Y-685002D02*
D03*
Y-678502D02*
D03*
Y-672001D02*
D03*
Y-665501D02*
D03*
Y-659001D02*
D03*
Y-652501D02*
D03*
Y-646001D02*
D03*
Y-639501D02*
D03*
Y-633001D02*
D03*
Y-626501D02*
D03*
Y-620000D02*
D03*
Y-613500D02*
D03*
Y-607000D02*
D03*
Y-600500D02*
D03*
Y-594000D02*
D03*
D51*
X-26500Y92075D02*
D03*
Y85725D02*
D03*
Y79375D02*
D03*
Y73025D02*
D03*
Y66675D02*
D03*
Y60325D02*
D03*
Y53975D02*
D03*
Y47625D02*
D03*
Y41275D02*
D03*
Y34925D02*
D03*
Y28575D02*
D03*
Y22225D02*
D03*
Y15875D02*
D03*
Y9525D02*
D03*
Y3175D02*
D03*
Y-3175D02*
D03*
Y-9525D02*
D03*
Y-15875D02*
D03*
Y-22225D02*
D03*
Y-28575D02*
D03*
Y-34925D02*
D03*
Y-41275D02*
D03*
Y-47625D02*
D03*
Y-53975D02*
D03*
Y-60325D02*
D03*
Y-66675D02*
D03*
Y-73025D02*
D03*
Y-79375D02*
D03*
Y-85725D02*
D03*
Y-92075D02*
D03*
X26500Y92075D02*
D03*
Y85725D02*
D03*
Y79375D02*
D03*
Y73025D02*
D03*
Y66675D02*
D03*
Y60325D02*
D03*
Y53975D02*
D03*
Y47625D02*
D03*
Y41275D02*
D03*
Y34925D02*
D03*
Y28575D02*
D03*
Y22225D02*
D03*
Y15875D02*
D03*
Y9525D02*
D03*
Y3175D02*
D03*
Y-3175D02*
D03*
Y-9525D02*
D03*
Y-15875D02*
D03*
Y-22225D02*
D03*
Y-28575D02*
D03*
Y-34925D02*
D03*
Y-41275D02*
D03*
Y-47625D02*
D03*
Y-53975D02*
D03*
Y-60325D02*
D03*
Y-66675D02*
D03*
Y-73025D02*
D03*
Y-79375D02*
D03*
Y-85725D02*
D03*
Y-92075D02*
D03*
D52*
X-0Y131350D02*
D03*
Y-131350D02*
D03*
M02*
