G04*
G04 #@! TF.GenerationSoftware,Altium Limited,Altium Designer,24.9.1 (31)*
G04*
G04 Layer_Physical_Order=4*
G04 Layer_Color=16711680*
%FSLAX44Y44*%
%MOMM*%
G71*
G04*
G04 #@! TF.SameCoordinates,25B5EA7A-0A89-4A72-9C9E-8463CCD4450D*
G04*
G04*
G04 #@! TF.FilePolarity,Positive*
G04*
G01*
G75*
%ADD12C,0.2000*%
%ADD23R,0.4500X0.4500*%
%ADD92R,2.1500X2.1500*%
%ADD93C,2.1500*%
%ADD95C,0.1200*%
%ADD97C,0.3000*%
%ADD99C,5.0000*%
%ADD100R,0.5000X1.0000*%
%ADD101C,2.0000*%
%ADD102R,4.0000X4.0000*%
%ADD103C,6.0000*%
%ADD104C,12.0000*%
%ADD105C,3.0000*%
%ADD106C,0.6000*%
%ADD107C,1.0000*%
%ADD108R,1.0500X3.2500*%
%ADD109R,5.8000X6.4000*%
%ADD110R,1.2000X2.2000*%
%ADD111R,5.5500X6.5000*%
%ADD112R,1.2500X2.8500*%
G36*
X-157000Y668000D02*
X-306000D01*
X-364000Y610000D01*
X-483000D01*
X-506000Y587000D01*
Y-645000D01*
X-656000D01*
Y-762000D01*
X-830000D01*
Y-645000D01*
X-1345000D01*
Y361000D01*
X-1154000D01*
Y334000D01*
X-841000D01*
Y749000D01*
X-548000D01*
X-445000Y646000D01*
X-371000Y646000D01*
X-252000Y765000D01*
X-157000D01*
Y668000D01*
D02*
G37*
G36*
X198000Y539000D02*
X182000D01*
Y585000D01*
X198000D01*
Y539000D01*
D02*
G37*
G36*
X-215000Y577000D02*
X-199000D01*
Y531000D01*
X-269000D01*
Y650000D01*
X-215000D01*
Y577000D01*
D02*
G37*
G36*
X-865860Y452125D02*
X-894860D01*
X-894860Y498125D01*
X-927860D01*
Y566125D01*
X-865860D01*
Y452125D01*
D02*
G37*
G36*
X-975000Y626000D02*
X-936000Y587000D01*
X-936000Y487000D01*
X-905000D01*
Y450000D01*
X-965000D01*
X-965000Y496000D01*
X-998000D01*
X-998000Y580000D01*
X-1040000Y622000D01*
Y741000D01*
X-975000D01*
Y626000D01*
D02*
G37*
G36*
X-1072000Y678000D02*
X-1095000Y655000D01*
Y579000D01*
X-1080000Y564000D01*
Y487000D01*
X-1049000D01*
Y450000D01*
X-1109000D01*
X-1109000Y496000D01*
X-1142000D01*
Y741000D01*
X-1072000D01*
Y678000D01*
D02*
G37*
G36*
X-1008000Y450000D02*
X-1037000D01*
X-1037000Y496000D01*
X-1070000D01*
Y564000D01*
X-1008000D01*
Y450000D01*
D02*
G37*
G36*
X-1160000Y628000D02*
X-1224000Y564000D01*
Y487000D01*
X-1193000D01*
Y450000D01*
X-1253000D01*
X-1253000Y496000D01*
X-1286000D01*
Y572000D01*
X-1220000Y638000D01*
Y740000D01*
X-1160000D01*
X-1160000Y628000D01*
D02*
G37*
G36*
X-1152000Y450000D02*
X-1181000D01*
X-1181000Y496000D01*
X-1214000D01*
Y564000D01*
X-1152000D01*
Y450000D01*
D02*
G37*
G36*
X-976000Y358000D02*
X-1081000D01*
Y379859D01*
X-1076000D01*
X-1075181Y380022D01*
X-1074486Y380486D01*
X-1074022Y381181D01*
X-1073859Y382000D01*
X-1074022Y382819D01*
X-1074486Y383514D01*
X-1075181Y383978D01*
X-1076000Y384141D01*
X-1081000D01*
Y411000D01*
X-1290000D01*
Y486000D01*
X-1264000D01*
Y441000D01*
X-1146000D01*
Y486000D01*
X-1120000D01*
Y441000D01*
X-1002000D01*
Y486125D01*
X-976000D01*
Y358000D01*
D02*
G37*
G36*
X-1128000Y365000D02*
X-1145000D01*
Y378000D01*
X-1169000D01*
Y404000D01*
X-1128000D01*
Y365000D01*
D02*
G37*
G36*
X-168000Y488000D02*
X-248000D01*
Y472325D01*
Y469075D01*
Y451000D01*
X-212000D01*
Y413000D01*
X-221000D01*
Y348000D01*
X-202000D01*
Y339000D01*
X-269000D01*
Y528000D01*
X-196000D01*
Y581000D01*
X-212000D01*
Y640000D01*
X-168000D01*
Y488000D01*
D02*
G37*
G36*
X-162000Y307000D02*
X-177000D01*
Y339000D01*
X-188790D01*
X-188981Y348093D01*
X-188092Y349000D01*
X-162000D01*
Y307000D01*
D02*
G37*
G36*
X224000Y347000D02*
X303000D01*
Y273000D01*
X213000D01*
Y305000D01*
X202000D01*
Y376000D01*
X224000D01*
Y347000D01*
D02*
G37*
G36*
X269000Y390000D02*
X197000D01*
Y298000D01*
X209000D01*
Y269000D01*
X223000D01*
Y240000D01*
X179000D01*
Y409000D01*
X233000D01*
Y542000D01*
X208000D01*
Y554000D01*
X269000D01*
Y390000D01*
D02*
G37*
G36*
X198000Y69000D02*
X182000D01*
Y115000D01*
X198000D01*
Y69000D01*
D02*
G37*
G36*
X-215000Y107000D02*
X-199000D01*
Y61000D01*
X-269000D01*
Y180000D01*
X-215000D01*
Y107000D01*
D02*
G37*
G36*
X-168000Y18000D02*
X-248000D01*
Y2325D01*
Y-925D01*
Y-19000D01*
X-212000D01*
Y-57000D01*
X-221000D01*
Y-122000D01*
X-202000D01*
Y-131000D01*
X-269000D01*
Y58000D01*
X-196000D01*
Y111000D01*
X-212000D01*
Y170000D01*
X-168000D01*
Y18000D01*
D02*
G37*
G36*
X571000Y-136000D02*
X514000D01*
X513427Y-136573D01*
X512815Y-136451D01*
X511549Y-135185D01*
X509895Y-134500D01*
X508105D01*
X506451Y-135185D01*
X505185Y-136451D01*
X504500Y-138105D01*
Y-139895D01*
X505185Y-141549D01*
X506451Y-142815D01*
X506573Y-143427D01*
X498000Y-152000D01*
Y-298000D01*
X489000D01*
Y-139000D01*
X502000Y-126000D01*
X571000D01*
Y-136000D01*
D02*
G37*
G36*
X-162000Y-163000D02*
X-177000D01*
Y-131000D01*
X-188790D01*
X-188981Y-121907D01*
X-188092Y-121000D01*
X-162000D01*
Y-163000D01*
D02*
G37*
G36*
X224000Y-123000D02*
X303000D01*
Y-197000D01*
X213000D01*
Y-165000D01*
X202000D01*
Y-94000D01*
X224000D01*
Y-123000D01*
D02*
G37*
G36*
X269000Y-80000D02*
X197000D01*
Y-172000D01*
X209000D01*
Y-201000D01*
X223000D01*
Y-230000D01*
X179000D01*
Y-61000D01*
X233000D01*
Y72000D01*
X208000D01*
Y84000D01*
X269000D01*
Y-80000D01*
D02*
G37*
G36*
X198000Y-401000D02*
X182000D01*
Y-355000D01*
X198000D01*
Y-401000D01*
D02*
G37*
G36*
X-215000Y-363000D02*
X-199000D01*
Y-409000D01*
X-269000D01*
Y-290000D01*
X-215000D01*
Y-363000D01*
D02*
G37*
G36*
X787000Y-474000D02*
X663000D01*
Y-307000D01*
X503000D01*
Y-297500D01*
X503895D01*
X505549Y-296815D01*
X506170Y-296194D01*
X507000Y-295667D01*
X507830Y-296194D01*
X508451Y-296815D01*
X510105Y-297500D01*
X511895D01*
X513549Y-296815D01*
X514170Y-296194D01*
X515000Y-295667D01*
X515830Y-296194D01*
X516451Y-296815D01*
X518105Y-297500D01*
X519895D01*
X521549Y-296815D01*
X522815Y-295549D01*
X523500Y-293895D01*
Y-292105D01*
X522815Y-290451D01*
X521549Y-289185D01*
X519895Y-288500D01*
X518105D01*
X516451Y-289185D01*
X515830Y-289806D01*
X515000Y-290333D01*
X514170Y-289806D01*
X513549Y-289185D01*
X511895Y-288500D01*
X510105D01*
X508451Y-289185D01*
X507830Y-289806D01*
X507000Y-290333D01*
X506170Y-289806D01*
X505549Y-289185D01*
X503895Y-288500D01*
X503000D01*
Y-250000D01*
X556000D01*
X562000Y-256000D01*
X663000D01*
Y-209549D01*
X671944D01*
X696451Y-234056D01*
Y-452950D01*
X696645Y-453925D01*
X697198Y-454752D01*
X711748Y-469302D01*
X712575Y-469855D01*
X713550Y-470049D01*
X735500D01*
X736476Y-469855D01*
X737302Y-469302D01*
X742802Y-463802D01*
X743355Y-462976D01*
X743549Y-462000D01*
Y-458300D01*
X753000D01*
Y-445300D01*
X752708D01*
X752391Y-444534D01*
X751266Y-443409D01*
X749796Y-442800D01*
X748204D01*
X746734Y-443409D01*
X745720Y-444423D01*
X745000Y-444483D01*
X744280Y-444423D01*
X743266Y-443409D01*
X741796Y-442800D01*
X740204D01*
X738734Y-443409D01*
X737720Y-444423D01*
X737000Y-444483D01*
X736280Y-444423D01*
X735266Y-443409D01*
X733796Y-442800D01*
X732204D01*
X730734Y-443409D01*
X729609Y-444534D01*
X729292Y-445300D01*
X729000D01*
Y-458300D01*
X730451D01*
Y-460944D01*
X729944Y-461451D01*
X716056D01*
X705049Y-450444D01*
Y-231500D01*
X704855Y-230525D01*
X704302Y-229698D01*
X673802Y-199198D01*
X672975Y-198645D01*
X672000Y-198451D01*
X663000D01*
Y-142549D01*
X668849D01*
X669825Y-142355D01*
X670651Y-141802D01*
X696802Y-115652D01*
X697355Y-114825D01*
X697549Y-113849D01*
Y-24005D01*
X715005Y-6549D01*
X733000D01*
X733976Y-6355D01*
X734802Y-5802D01*
X742802Y2198D01*
X743355Y3025D01*
X743549Y4000D01*
Y11700D01*
X753000D01*
Y24700D01*
X752708D01*
X752391Y25466D01*
X751266Y26591D01*
X749796Y27200D01*
X748204D01*
X746734Y26591D01*
X745720Y25577D01*
X745000Y25517D01*
X744280Y25577D01*
X743266Y26591D01*
X741796Y27200D01*
X740204D01*
X738734Y26591D01*
X737720Y25577D01*
X737000Y25517D01*
X736280Y25577D01*
X735266Y26591D01*
X733796Y27200D01*
X732204D01*
X730734Y26591D01*
X729609Y25466D01*
X729292Y24700D01*
X729000D01*
Y11700D01*
X730451D01*
Y7006D01*
X725994Y2549D01*
X713000D01*
X712025Y2355D01*
X711198Y1802D01*
X690811Y-18584D01*
X689638Y-18098D01*
Y449033D01*
X705056Y464451D01*
X732000D01*
X732975Y464645D01*
X733802Y465198D01*
X742802Y474198D01*
X743355Y475024D01*
X743549Y476000D01*
Y481700D01*
X753000D01*
Y494700D01*
X752708D01*
X752391Y495466D01*
X751266Y496591D01*
X749796Y497200D01*
X748204D01*
X746734Y496591D01*
X745720Y495577D01*
X745000Y495517D01*
X744280Y495577D01*
X743266Y496591D01*
X741796Y497200D01*
X740204D01*
X738734Y496591D01*
X737720Y495577D01*
X737000Y495517D01*
X736280Y495577D01*
X735266Y496591D01*
X733796Y497200D01*
X732204D01*
X730734Y496591D01*
X729609Y495466D01*
X729292Y494700D01*
X729000D01*
Y481700D01*
X730451D01*
Y479056D01*
X724444Y473049D01*
X702550D01*
X701575Y472855D01*
X700748Y472302D01*
X681786Y453341D01*
X681234Y452514D01*
X681040Y451539D01*
Y449539D01*
Y-109355D01*
X664270Y-126125D01*
X663000Y-125599D01*
Y562000D01*
X787000D01*
Y-474000D01*
D02*
G37*
G36*
X-168000Y-452000D02*
X-248000D01*
Y-467675D01*
Y-470925D01*
Y-489000D01*
X-212000D01*
Y-527000D01*
X-221000D01*
Y-592000D01*
X-202000D01*
Y-601000D01*
X-269000D01*
Y-412000D01*
X-196000D01*
Y-359000D01*
X-212000D01*
Y-300000D01*
X-168000D01*
Y-452000D01*
D02*
G37*
G36*
X-162000Y-633000D02*
X-177000D01*
Y-601000D01*
X-188790D01*
X-188981Y-591907D01*
X-188092Y-591000D01*
X-162000D01*
Y-633000D01*
D02*
G37*
G36*
X224000Y-593000D02*
X303000D01*
Y-667000D01*
X213000D01*
Y-635000D01*
X202000D01*
Y-564000D01*
X224000D01*
Y-593000D01*
D02*
G37*
G36*
X269000Y-550000D02*
X197000D01*
Y-642000D01*
X209000D01*
Y-671000D01*
X223000D01*
Y-700000D01*
X179000D01*
Y-531000D01*
X233000D01*
Y-398000D01*
X208000D01*
Y-386000D01*
X269000D01*
Y-550000D01*
D02*
G37*
G36*
X-47000Y-768000D02*
X-101000D01*
Y-751000D01*
X-63000D01*
X-63000Y-728000D01*
X-47000Y-728000D01*
Y-768000D01*
D02*
G37*
%LPC*%
G36*
X-200144Y716500D02*
X-201856D01*
X-203509Y716057D01*
X-204991Y715201D01*
X-206201Y713991D01*
X-207057Y712509D01*
X-207500Y710856D01*
Y709144D01*
X-207057Y707491D01*
X-206201Y706009D01*
X-204991Y704799D01*
X-203509Y703943D01*
X-201856Y703500D01*
X-200144D01*
X-198491Y703943D01*
X-197009Y704799D01*
X-195799Y706009D01*
X-195444Y706624D01*
X-194104Y706740D01*
X-193549Y706185D01*
X-191895Y705500D01*
X-190105D01*
X-188451Y706185D01*
X-187185Y707451D01*
X-186500Y709105D01*
Y710895D01*
X-187185Y712549D01*
X-188451Y713815D01*
X-190105Y714500D01*
X-191895D01*
X-193549Y713815D01*
X-194104Y713260D01*
X-195444Y713376D01*
X-195799Y713991D01*
X-197009Y715201D01*
X-198491Y716057D01*
X-200144Y716500D01*
D02*
G37*
G36*
X-181144Y703500D02*
X-182856D01*
X-184509Y703057D01*
X-185991Y702201D01*
X-187201Y700991D01*
X-188057Y699509D01*
X-188500Y697856D01*
Y696144D01*
X-188057Y694491D01*
X-187201Y693009D01*
X-185991Y691799D01*
X-184509Y690943D01*
X-182856Y690500D01*
X-181144D01*
X-179491Y690943D01*
X-178009Y691799D01*
X-176799Y693009D01*
X-175943Y694491D01*
X-175500Y696144D01*
Y697856D01*
X-175943Y699509D01*
X-176799Y700991D01*
X-178009Y702201D01*
X-179491Y703057D01*
X-181144Y703500D01*
D02*
G37*
G36*
X-714250Y640750D02*
X-738750D01*
Y616250D01*
X-714250D01*
Y640750D01*
D02*
G37*
G36*
X-579046Y625200D02*
X-585954D01*
X-592818Y624426D01*
X-599552Y622890D01*
X-606072Y620608D01*
X-612296Y617611D01*
X-618144Y613936D01*
X-623545Y609629D01*
X-628429Y604745D01*
X-632736Y599344D01*
X-636411Y593495D01*
X-639408Y587272D01*
X-641690Y580752D01*
X-643227Y574018D01*
X-644000Y567154D01*
Y560246D01*
X-643227Y553382D01*
X-641690Y546648D01*
X-639408Y540128D01*
X-636411Y533904D01*
X-632736Y528056D01*
X-628429Y522655D01*
X-623545Y517771D01*
X-618144Y513464D01*
X-612296Y509789D01*
X-606072Y506792D01*
X-599552Y504510D01*
X-592818Y502973D01*
X-585954Y502200D01*
X-579046D01*
X-572182Y502973D01*
X-565448Y504510D01*
X-558928Y506792D01*
X-552705Y509789D01*
X-546856Y513464D01*
X-541455Y517771D01*
X-536571Y522655D01*
X-532264Y528056D01*
X-528589Y533904D01*
X-525592Y540128D01*
X-523311Y546648D01*
X-521773Y553382D01*
X-521000Y560246D01*
Y567154D01*
X-521773Y574018D01*
X-523311Y580752D01*
X-525592Y587272D01*
X-528589Y593495D01*
X-532264Y599344D01*
X-536571Y604745D01*
X-541455Y609629D01*
X-546856Y613936D01*
X-552705Y617611D01*
X-558928Y620608D01*
X-565448Y622890D01*
X-572182Y624426D01*
X-579046Y625200D01*
D02*
G37*
G36*
X-714250Y205750D02*
X-738750D01*
Y181250D01*
X-714250D01*
Y205750D01*
D02*
G37*
G36*
X-927887D02*
X-931113D01*
X-934228Y204915D01*
X-937022Y203302D01*
X-939303Y201022D01*
X-940915Y198228D01*
X-941750Y195113D01*
Y191887D01*
X-940915Y188772D01*
X-939303Y185978D01*
X-937022Y183697D01*
X-934228Y182085D01*
X-931113Y181250D01*
X-927887D01*
X-924772Y182085D01*
X-921978Y183697D01*
X-919698Y185978D01*
X-918085Y188772D01*
X-917250Y191887D01*
Y195113D01*
X-918085Y198228D01*
X-919698Y201022D01*
X-921978Y203302D01*
X-924772Y204915D01*
X-927887Y205750D01*
D02*
G37*
G36*
X-1060250D02*
X-1084750D01*
Y181250D01*
X-1060250D01*
Y205750D01*
D02*
G37*
G36*
X-1273887D02*
X-1277113D01*
X-1280228Y204915D01*
X-1283022Y203302D01*
X-1285302Y201022D01*
X-1286915Y198228D01*
X-1287750Y195113D01*
Y191887D01*
X-1286915Y188772D01*
X-1285302Y185978D01*
X-1283022Y183697D01*
X-1280228Y182085D01*
X-1277113Y181250D01*
X-1273887D01*
X-1270772Y182085D01*
X-1267978Y183697D01*
X-1265698Y185978D01*
X-1264085Y188772D01*
X-1263250Y191887D01*
Y195113D01*
X-1264085Y198228D01*
X-1265698Y201022D01*
X-1267978Y203302D01*
X-1270772Y204915D01*
X-1273887Y205750D01*
D02*
G37*
G36*
X-579046Y155200D02*
X-585954D01*
X-592818Y154426D01*
X-599552Y152889D01*
X-606072Y150608D01*
X-612296Y147611D01*
X-618144Y143936D01*
X-623545Y139629D01*
X-628429Y134745D01*
X-632736Y129344D01*
X-636411Y123496D01*
X-639408Y117272D01*
X-641690Y110752D01*
X-643227Y104018D01*
X-644000Y97154D01*
Y90246D01*
X-643227Y83382D01*
X-641690Y76648D01*
X-639408Y70128D01*
X-636411Y63904D01*
X-632736Y58056D01*
X-628429Y52655D01*
X-623545Y47771D01*
X-618144Y43464D01*
X-612296Y39789D01*
X-606072Y36792D01*
X-599552Y34510D01*
X-592818Y32973D01*
X-585954Y32200D01*
X-579046D01*
X-572182Y32973D01*
X-565448Y34510D01*
X-558928Y36792D01*
X-552705Y39789D01*
X-546856Y43464D01*
X-541455Y47771D01*
X-536571Y52655D01*
X-532264Y58056D01*
X-528589Y63904D01*
X-525592Y70128D01*
X-523311Y76648D01*
X-521773Y83382D01*
X-521000Y90246D01*
Y97154D01*
X-521773Y104018D01*
X-523311Y110752D01*
X-525592Y117272D01*
X-528589Y123496D01*
X-532264Y129344D01*
X-536571Y134745D01*
X-541455Y139629D01*
X-546856Y143936D01*
X-552705Y147611D01*
X-558928Y150608D01*
X-565448Y152889D01*
X-572182Y154426D01*
X-579046Y155200D01*
D02*
G37*
G36*
X-714250Y-229250D02*
X-738750D01*
Y-253750D01*
X-714250D01*
Y-229250D01*
D02*
G37*
G36*
X-927887D02*
X-931113D01*
X-934228Y-230085D01*
X-937022Y-231698D01*
X-939303Y-233978D01*
X-940915Y-236772D01*
X-941750Y-239887D01*
Y-243113D01*
X-940915Y-246228D01*
X-939303Y-249022D01*
X-937022Y-251302D01*
X-934228Y-252915D01*
X-931113Y-253750D01*
X-927887D01*
X-924772Y-252915D01*
X-921978Y-251302D01*
X-919698Y-249022D01*
X-918085Y-246228D01*
X-917250Y-243113D01*
Y-239887D01*
X-918085Y-236772D01*
X-919698Y-233978D01*
X-921978Y-231698D01*
X-924772Y-230085D01*
X-927887Y-229250D01*
D02*
G37*
G36*
X-1060250D02*
X-1084750D01*
Y-253750D01*
X-1060250D01*
Y-229250D01*
D02*
G37*
G36*
X-1273887D02*
X-1277113D01*
X-1280228Y-230085D01*
X-1283022Y-231698D01*
X-1285302Y-233978D01*
X-1286915Y-236772D01*
X-1287750Y-239887D01*
Y-243113D01*
X-1286915Y-246228D01*
X-1285302Y-249022D01*
X-1283022Y-251302D01*
X-1280228Y-252915D01*
X-1277113Y-253750D01*
X-1273887D01*
X-1270772Y-252915D01*
X-1267978Y-251302D01*
X-1265698Y-249022D01*
X-1264085Y-246228D01*
X-1263250Y-243113D01*
Y-239887D01*
X-1264085Y-236772D01*
X-1265698Y-233978D01*
X-1267978Y-231698D01*
X-1270772Y-230085D01*
X-1273887Y-229250D01*
D02*
G37*
G36*
X-579046Y-314800D02*
X-585954D01*
X-592818Y-315574D01*
X-599552Y-317111D01*
X-606072Y-319392D01*
X-612296Y-322389D01*
X-618144Y-326064D01*
X-623545Y-330371D01*
X-628429Y-335255D01*
X-632736Y-340656D01*
X-636411Y-346505D01*
X-639408Y-352728D01*
X-641690Y-359248D01*
X-643227Y-365982D01*
X-644000Y-372846D01*
Y-379754D01*
X-643227Y-386618D01*
X-641690Y-393352D01*
X-639408Y-399872D01*
X-636411Y-406096D01*
X-632736Y-411944D01*
X-628429Y-417345D01*
X-623545Y-422229D01*
X-618144Y-426536D01*
X-612296Y-430211D01*
X-606072Y-433208D01*
X-599552Y-435490D01*
X-592818Y-437027D01*
X-585954Y-437800D01*
X-579046D01*
X-572182Y-437027D01*
X-565448Y-435490D01*
X-558928Y-433208D01*
X-552705Y-430211D01*
X-546856Y-426536D01*
X-541455Y-422229D01*
X-536571Y-417345D01*
X-532264Y-411944D01*
X-528589Y-406096D01*
X-525592Y-399872D01*
X-523311Y-393352D01*
X-521773Y-386618D01*
X-521000Y-379754D01*
Y-372846D01*
X-521773Y-365982D01*
X-523311Y-359248D01*
X-525592Y-352728D01*
X-528589Y-346505D01*
X-532264Y-340656D01*
X-536571Y-335255D01*
X-541455Y-330371D01*
X-546856Y-326064D01*
X-552705Y-322389D01*
X-558928Y-319392D01*
X-565448Y-317111D01*
X-572182Y-315574D01*
X-579046Y-314800D01*
D02*
G37*
G36*
X-792744Y-669500D02*
X-794456D01*
X-796109Y-669943D01*
X-797591Y-670799D01*
X-798801Y-672009D01*
X-799657Y-673491D01*
X-800100Y-675144D01*
Y-676856D01*
X-799657Y-678509D01*
X-798801Y-679991D01*
X-797591Y-681201D01*
X-796109Y-682057D01*
X-794456Y-682500D01*
X-792744D01*
X-791091Y-682057D01*
X-789609Y-681201D01*
X-788399Y-679991D01*
X-787543Y-678509D01*
X-787100Y-676856D01*
Y-675144D01*
X-787543Y-673491D01*
X-788399Y-672009D01*
X-789609Y-670799D01*
X-791091Y-669943D01*
X-792744Y-669500D01*
D02*
G37*
G36*
X224895Y326000D02*
X223105D01*
X221451Y325315D01*
X220185Y324049D01*
X219500Y322395D01*
Y320605D01*
X220185Y318951D01*
X221451Y317685D01*
X223105Y317000D01*
X224895D01*
X226549Y317685D01*
X227815Y318951D01*
X228500Y320605D01*
Y322395D01*
X227815Y324049D01*
X226549Y325315D01*
X224895Y326000D01*
D02*
G37*
G36*
Y-144000D02*
X223105D01*
X221451Y-144685D01*
X220185Y-145951D01*
X219500Y-147605D01*
Y-149395D01*
X220185Y-151049D01*
X221451Y-152315D01*
X223105Y-153000D01*
X224895D01*
X226549Y-152315D01*
X227815Y-151049D01*
X228500Y-149395D01*
Y-147605D01*
X227815Y-145951D01*
X226549Y-144685D01*
X224895Y-144000D01*
D02*
G37*
G36*
X749895Y533500D02*
X748105D01*
X746451Y532815D01*
X745830Y532194D01*
X745000Y531667D01*
X744170Y532194D01*
X743549Y532815D01*
X741895Y533500D01*
X740105D01*
X738451Y532815D01*
X737185Y531549D01*
X736500Y529895D01*
Y528105D01*
X736970Y526970D01*
X736314Y525769D01*
X736226Y525700D01*
X735730Y525700D01*
X729000D01*
Y512700D01*
X729292D01*
X729609Y511934D01*
X730734Y510809D01*
X732204Y510200D01*
X733796D01*
X735266Y510809D01*
X736280Y511823D01*
X737000Y511883D01*
X737720Y511823D01*
X738734Y510809D01*
X740204Y510200D01*
X741796D01*
X743266Y510809D01*
X744280Y511823D01*
X745000Y511883D01*
X745720Y511823D01*
X746734Y510809D01*
X748204Y510200D01*
X749796D01*
X751266Y510809D01*
X752280Y511823D01*
X753000Y511883D01*
X753720Y511823D01*
X754734Y510809D01*
X756204Y510200D01*
X757796D01*
X759266Y510809D01*
X760391Y511934D01*
X760708Y512700D01*
X761000D01*
Y525700D01*
X753774Y525700D01*
X753686Y525769D01*
X753030Y526970D01*
X753500Y528105D01*
Y529895D01*
X752815Y531549D01*
X751549Y532815D01*
X749895Y533500D01*
D02*
G37*
G36*
X769895Y476500D02*
X768105D01*
X766451Y475815D01*
X765185Y474549D01*
X764500Y472895D01*
Y471105D01*
X765185Y469451D01*
X766451Y468185D01*
X768105Y467500D01*
X769895D01*
X771549Y468185D01*
X772815Y469451D01*
X773500Y471105D01*
Y472895D01*
X772815Y474549D01*
X771549Y475815D01*
X769895Y476500D01*
D02*
G37*
G36*
X752479Y465200D02*
X747521D01*
X742624Y464424D01*
X737908Y462892D01*
X733490Y460641D01*
X729479Y457727D01*
X725973Y454221D01*
X723059Y450210D01*
X720808Y445792D01*
X719276Y441076D01*
X718500Y436179D01*
Y431221D01*
X719276Y426324D01*
X720808Y421608D01*
X723059Y417190D01*
X725973Y413179D01*
X729479Y409673D01*
X733490Y406759D01*
X737908Y404508D01*
X742624Y402976D01*
X747521Y402200D01*
X752479D01*
X757376Y402976D01*
X762092Y404508D01*
X766510Y406759D01*
X770521Y409673D01*
X774027Y413179D01*
X776941Y417190D01*
X779192Y421608D01*
X780724Y426324D01*
X781500Y431221D01*
Y436179D01*
X780724Y441076D01*
X779192Y445792D01*
X776941Y450210D01*
X774027Y454221D01*
X770521Y457727D01*
X766510Y460641D01*
X762092Y462892D01*
X757376Y464424D01*
X752479Y465200D01*
D02*
G37*
G36*
Y155200D02*
X747521D01*
X742624Y154424D01*
X737908Y152892D01*
X733490Y150641D01*
X729479Y147727D01*
X725973Y144221D01*
X723059Y140210D01*
X720808Y135792D01*
X719276Y131076D01*
X718500Y126179D01*
Y121221D01*
X719276Y116324D01*
X720808Y111608D01*
X723059Y107190D01*
X725973Y103179D01*
X729479Y99673D01*
X733490Y96759D01*
X737908Y94508D01*
X742624Y92976D01*
X747521Y92200D01*
X752479D01*
X757376Y92976D01*
X762092Y94508D01*
X766510Y96759D01*
X770521Y99673D01*
X774027Y103179D01*
X776941Y107190D01*
X779192Y111608D01*
X780724Y116324D01*
X781500Y121221D01*
Y126179D01*
X780724Y131076D01*
X779192Y135792D01*
X776941Y140210D01*
X774027Y144221D01*
X770521Y147727D01*
X766510Y150641D01*
X762092Y152892D01*
X757376Y154424D01*
X752479Y155200D01*
D02*
G37*
G36*
X749895Y63500D02*
X748105D01*
X746451Y62815D01*
X745830Y62194D01*
X745000Y61667D01*
X744170Y62194D01*
X743549Y62815D01*
X741895Y63500D01*
X740105D01*
X738451Y62815D01*
X737185Y61549D01*
X736500Y59895D01*
Y58105D01*
X736970Y56970D01*
X736314Y55769D01*
X736226Y55700D01*
X735730Y55700D01*
X729000D01*
Y42700D01*
X729292D01*
X729609Y41934D01*
X730734Y40809D01*
X732204Y40200D01*
X733796D01*
X735266Y40809D01*
X736280Y41823D01*
X737000Y41883D01*
X737720Y41823D01*
X738734Y40809D01*
X740204Y40200D01*
X741796D01*
X743266Y40809D01*
X744280Y41823D01*
X745000Y41883D01*
X745720Y41823D01*
X746734Y40809D01*
X748204Y40200D01*
X749796D01*
X751266Y40809D01*
X752280Y41823D01*
X753000Y41883D01*
X753720Y41823D01*
X754734Y40809D01*
X756204Y40200D01*
X757796D01*
X759266Y40809D01*
X760391Y41934D01*
X760708Y42700D01*
X761000D01*
Y55700D01*
X753774Y55700D01*
X753686Y55769D01*
X753030Y56970D01*
X753500Y58105D01*
Y59895D01*
X752815Y61549D01*
X751549Y62815D01*
X749895Y63500D01*
D02*
G37*
G36*
X769895Y7500D02*
X768105D01*
X766451Y6815D01*
X765185Y5549D01*
X764500Y3895D01*
Y2105D01*
X765185Y451D01*
X766451Y-815D01*
X768105Y-1500D01*
X769895D01*
X771549Y-815D01*
X772815Y451D01*
X773500Y2105D01*
Y3895D01*
X772815Y5549D01*
X771549Y6815D01*
X769895Y7500D01*
D02*
G37*
G36*
X752479Y-4800D02*
X747521D01*
X742624Y-5576D01*
X737908Y-7108D01*
X733490Y-9359D01*
X729479Y-12273D01*
X725973Y-15779D01*
X723059Y-19790D01*
X720808Y-24208D01*
X719276Y-28924D01*
X718500Y-33821D01*
Y-38779D01*
X719276Y-43676D01*
X720808Y-48392D01*
X723059Y-52810D01*
X725973Y-56821D01*
X729479Y-60327D01*
X733490Y-63241D01*
X737908Y-65492D01*
X742624Y-67024D01*
X747521Y-67800D01*
X752479D01*
X757376Y-67024D01*
X762092Y-65492D01*
X766510Y-63241D01*
X770521Y-60327D01*
X774027Y-56821D01*
X776941Y-52810D01*
X779192Y-48392D01*
X780724Y-43676D01*
X781500Y-38779D01*
Y-33821D01*
X780724Y-28924D01*
X779192Y-24208D01*
X776941Y-19790D01*
X774027Y-15779D01*
X770521Y-12273D01*
X766510Y-9359D01*
X762092Y-7108D01*
X757376Y-5576D01*
X752479Y-4800D01*
D02*
G37*
G36*
X567895Y-265500D02*
X566105D01*
X564451Y-266185D01*
X563830Y-266806D01*
X563000Y-267333D01*
X562170Y-266806D01*
X561549Y-266185D01*
X559895Y-265500D01*
X558105D01*
X556451Y-266185D01*
X555830Y-266806D01*
X555000Y-267333D01*
X554170Y-266806D01*
X553549Y-266185D01*
X551895Y-265500D01*
X550105D01*
X548451Y-266185D01*
X547185Y-267451D01*
X546500Y-269105D01*
Y-270895D01*
X547185Y-272549D01*
X547806Y-273170D01*
X548333Y-274000D01*
X547806Y-274830D01*
X547185Y-275451D01*
X546500Y-277105D01*
Y-278895D01*
X547185Y-280549D01*
X548451Y-281815D01*
X550105Y-282500D01*
X551895D01*
X553549Y-281815D01*
X554170Y-281194D01*
X555000Y-280667D01*
X555830Y-281194D01*
X556451Y-281815D01*
X558105Y-282500D01*
X559895D01*
X561549Y-281815D01*
X562170Y-281194D01*
X563000Y-280667D01*
X563830Y-281194D01*
X564451Y-281815D01*
X566105Y-282500D01*
X567895D01*
X569549Y-281815D01*
X570815Y-280549D01*
X571500Y-278895D01*
Y-277105D01*
X570815Y-275451D01*
X570194Y-274830D01*
X569667Y-274000D01*
X570194Y-273170D01*
X570815Y-272549D01*
X571500Y-270895D01*
Y-269105D01*
X570815Y-267451D01*
X569549Y-266185D01*
X567895Y-265500D01*
D02*
G37*
G36*
X649514Y-279800D02*
X646486D01*
X643561Y-280584D01*
X640939Y-282098D01*
X638798Y-284239D01*
X637983Y-285650D01*
X636517D01*
X635702Y-284239D01*
X633561Y-282098D01*
X630939Y-280584D01*
X628014Y-279800D01*
X624986D01*
X622061Y-280584D01*
X619439Y-282098D01*
X617298Y-284239D01*
X616483Y-285650D01*
X615017D01*
X614202Y-284239D01*
X612061Y-282098D01*
X609439Y-280584D01*
X606514Y-279800D01*
X603486D01*
X600561Y-280584D01*
X597939Y-282098D01*
X595798Y-284239D01*
X594284Y-286861D01*
X593500Y-289786D01*
Y-292814D01*
X594284Y-295739D01*
X595798Y-298361D01*
X597939Y-300502D01*
X600561Y-302016D01*
X603486Y-302800D01*
X606514D01*
X609439Y-302016D01*
X612061Y-300502D01*
X614202Y-298361D01*
X615017Y-296950D01*
X616483D01*
X617298Y-298361D01*
X619439Y-300502D01*
X622061Y-302016D01*
X624986Y-302800D01*
X628014D01*
X630939Y-302016D01*
X633561Y-300502D01*
X635702Y-298361D01*
X636517Y-296950D01*
X637983D01*
X638798Y-298361D01*
X640939Y-300502D01*
X643561Y-302016D01*
X646486Y-302800D01*
X649514D01*
X652439Y-302016D01*
X655061Y-300502D01*
X657202Y-298361D01*
X658716Y-295739D01*
X659500Y-292814D01*
Y-289786D01*
X658716Y-286861D01*
X657202Y-284239D01*
X655061Y-282098D01*
X652439Y-280584D01*
X649514Y-279800D01*
D02*
G37*
G36*
X752479Y-314800D02*
X747521D01*
X742624Y-315576D01*
X737908Y-317108D01*
X733490Y-319359D01*
X729479Y-322273D01*
X725973Y-325779D01*
X723059Y-329790D01*
X720808Y-334208D01*
X719276Y-338924D01*
X718500Y-343821D01*
Y-348779D01*
X719276Y-353676D01*
X720808Y-358392D01*
X723059Y-362810D01*
X725973Y-366821D01*
X729479Y-370327D01*
X733490Y-373241D01*
X737908Y-375492D01*
X742624Y-377024D01*
X747521Y-377800D01*
X752479D01*
X757376Y-377024D01*
X762092Y-375492D01*
X766510Y-373241D01*
X770521Y-370327D01*
X774027Y-366821D01*
X776941Y-362810D01*
X779192Y-358392D01*
X780724Y-353676D01*
X781500Y-348779D01*
Y-343821D01*
X780724Y-338924D01*
X779192Y-334208D01*
X776941Y-329790D01*
X774027Y-325779D01*
X770521Y-322273D01*
X766510Y-319359D01*
X762092Y-317108D01*
X757376Y-315576D01*
X752479Y-314800D01*
D02*
G37*
G36*
X749895Y-406500D02*
X748105D01*
X746451Y-407185D01*
X745830Y-407806D01*
X745000Y-408333D01*
X744170Y-407806D01*
X743549Y-407185D01*
X741895Y-406500D01*
X740105D01*
X738451Y-407185D01*
X737185Y-408451D01*
X736500Y-410105D01*
Y-411895D01*
X736970Y-413030D01*
X736314Y-414231D01*
X736226Y-414300D01*
X735730Y-414300D01*
X729000D01*
Y-427300D01*
X729292D01*
X729609Y-428066D01*
X730734Y-429191D01*
X732204Y-429800D01*
X733796D01*
X735266Y-429191D01*
X736280Y-428177D01*
X737000Y-428117D01*
X737720Y-428177D01*
X738734Y-429191D01*
X740204Y-429800D01*
X741796D01*
X743266Y-429191D01*
X744280Y-428177D01*
X745000Y-428117D01*
X745720Y-428177D01*
X746734Y-429191D01*
X748204Y-429800D01*
X749796D01*
X751266Y-429191D01*
X752280Y-428177D01*
X753000Y-428117D01*
X753720Y-428177D01*
X754734Y-429191D01*
X756204Y-429800D01*
X757796D01*
X759266Y-429191D01*
X760391Y-428066D01*
X760708Y-427300D01*
X761000D01*
Y-414300D01*
X753774Y-414300D01*
X753686Y-414231D01*
X753030Y-413030D01*
X753500Y-411895D01*
Y-410105D01*
X752815Y-408451D01*
X751549Y-407185D01*
X749895Y-406500D01*
D02*
G37*
G36*
X769895Y-463500D02*
X768105D01*
X766451Y-464185D01*
X765185Y-465451D01*
X764500Y-467105D01*
Y-468895D01*
X765185Y-470549D01*
X766451Y-471815D01*
X768105Y-472500D01*
X769895D01*
X771549Y-471815D01*
X772815Y-470549D01*
X773500Y-468895D01*
Y-467105D01*
X772815Y-465451D01*
X771549Y-464185D01*
X769895Y-463500D01*
D02*
G37*
G36*
X224895Y-614000D02*
X223105D01*
X221451Y-614685D01*
X220185Y-615951D01*
X219500Y-617605D01*
Y-619395D01*
X220185Y-621049D01*
X221451Y-622315D01*
X223105Y-623000D01*
X224895D01*
X226549Y-622315D01*
X227815Y-621049D01*
X228500Y-619395D01*
Y-617605D01*
X227815Y-615951D01*
X226549Y-614685D01*
X224895Y-614000D01*
D02*
G37*
%LPD*%
D12*
X683589Y451539D02*
X702550Y470500D01*
X683589Y449539D02*
Y451539D01*
X704000Y467000D02*
X732000D01*
X687089Y-111861D02*
Y450089D01*
X704000Y467000D01*
X702550Y470500D02*
X704550D01*
X725500D01*
X683589Y-110411D02*
Y449539D01*
X741000Y488200D02*
Y493200D01*
Y476000D02*
Y488200D01*
X725500Y470500D02*
X733000Y478000D01*
X732000Y467000D02*
X741000Y476000D01*
X733000Y478000D02*
Y488200D01*
X665950Y-133000D02*
X687089Y-111861D01*
X691200Y-112700D02*
Y-21800D01*
X605772Y-136500D02*
X667399D01*
X664500Y-129500D02*
X683589Y-110411D01*
X607222Y-140000D02*
X668849D01*
X667399Y-136500D02*
X691200Y-112700D01*
X695000Y-113849D02*
Y-22950D01*
X602873Y-129500D02*
X664500D01*
X668849Y-140000D02*
X695000Y-113849D01*
X741000Y18200D02*
Y23200D01*
X713950Y-4000D02*
X733000D01*
X741000Y4000D01*
Y18200D01*
X695000Y-22950D02*
X713950Y-4000D01*
X713000Y0D02*
X727050D01*
X733000Y5950D02*
Y18200D01*
X727050Y0D02*
X733000Y5950D01*
X691200Y-21800D02*
X713000Y0D01*
X739750Y21950D02*
X741000Y23200D01*
X731000Y-464000D02*
X733000Y-462000D01*
X715000Y-464000D02*
X731000D01*
X733000Y-462000D02*
Y-451800D01*
X713550Y-467500D02*
X735500D01*
X741000Y-462000D02*
Y-451800D01*
X735500Y-467500D02*
X741000Y-462000D01*
X702500Y-451500D02*
Y-231500D01*
Y-451500D02*
X715000Y-464000D01*
X699000Y-452950D02*
Y-233000D01*
X673000Y-207000D02*
X699000Y-233000D01*
Y-452950D02*
X713550Y-467500D01*
X672000Y-201000D02*
X702500Y-231500D01*
X574000Y-201000D02*
X672000D01*
X572000Y-207000D02*
X673000D01*
X565828Y-200828D02*
X572000Y-207000D01*
X560000Y-207950D02*
Y-187222D01*
Y-207950D02*
X573050Y-221000D01*
X560000Y-187222D02*
X607222Y-140000D01*
X565828Y-200828D02*
Y-189172D01*
X574000Y-181000D01*
X604322Y-133000D02*
X665950D01*
X554500Y-187772D02*
X605772Y-136500D01*
X546500Y-185873D02*
X602873Y-129500D01*
X550000Y-187322D02*
X604322Y-133000D01*
X550000Y-217000D02*
Y-187322D01*
X546500Y-223500D02*
Y-185873D01*
X554500Y-211500D02*
X574000Y-231000D01*
X554500Y-211500D02*
Y-187772D01*
X546500Y-223500D02*
X574000Y-251000D01*
X550000Y-217000D02*
X574000Y-241000D01*
X573050Y-221000D02*
X574000D01*
D23*
X-1108000Y349000D02*
D03*
Y357000D02*
D03*
X-1099000Y349000D02*
D03*
Y357000D02*
D03*
D92*
X-1072500Y-241500D02*
D03*
X-726500D02*
D03*
X-1072500Y193500D02*
D03*
X-726500D02*
D03*
X-1072500Y628500D02*
D03*
X-726500D02*
D03*
D93*
X-1072500Y-616500D02*
D03*
X-1275500Y-241500D02*
D03*
Y-616500D02*
D03*
X-726500D02*
D03*
X-929500Y-241500D02*
D03*
Y-616500D02*
D03*
X-1072500Y-181500D02*
D03*
X-1275500Y193500D02*
D03*
Y-181500D02*
D03*
X-726500D02*
D03*
X-929500Y193500D02*
D03*
Y-181500D02*
D03*
X-1072500Y253500D02*
D03*
X-1275500Y628500D02*
D03*
Y253500D02*
D03*
X-726500D02*
D03*
X-929500Y628500D02*
D03*
Y253500D02*
D03*
D95*
X-67200Y46660D02*
Y193800D01*
X-28900Y232100D02*
Y550233D01*
X-67200Y193800D02*
X-28900Y232100D01*
X-21000Y-156000D02*
X-15900Y-161100D01*
X-21000Y-156000D02*
Y-128818D01*
X-15900Y-195463D02*
Y-161100D01*
X-21000Y-171000D02*
X-20988Y-171012D01*
Y-175800D02*
Y-171012D01*
Y-175800D02*
X-18900Y-177887D01*
Y-196282D02*
Y-177887D01*
Y-196282D02*
X-17000Y-198182D01*
Y-207000D02*
Y-198182D01*
X-11000Y-312863D02*
X-6000Y-307863D01*
X-2900Y-316218D02*
X2145Y-311174D01*
X-555Y-195755D02*
X1100Y-194100D01*
X4845Y-312292D02*
Y-199155D01*
X-13000Y-194545D02*
Y-144000D01*
X-15900Y-195463D02*
X-11700Y-199663D01*
X-200Y-317337D02*
X4845Y-312292D01*
X2145Y-311174D02*
Y-198000D01*
X-13000Y-194545D02*
X-9000Y-198545D01*
X-10300Y-152449D02*
X2100Y-140049D01*
X-11700Y-305927D02*
Y-199663D01*
X-6000Y-307863D02*
Y-197727D01*
X-10300Y-193427D02*
X-6000Y-197727D01*
X2145Y-198000D02*
X3800Y-196345D01*
X-555Y-310055D02*
Y-195755D01*
X-10300Y-193427D02*
Y-152449D01*
X-4082Y-191821D02*
X-3255Y-192648D01*
Y-308937D02*
Y-192648D01*
X-9000Y-307045D02*
Y-198545D01*
X4845Y-199155D02*
X6000Y-198000D01*
X-5600Y-315100D02*
X-555Y-310055D01*
X57000Y-322000D02*
Y-259000D01*
X45000Y-334000D02*
X57000Y-322000D01*
X45000Y-621000D02*
Y-334000D01*
X42200Y-332800D02*
X54300Y-320700D01*
Y-268300D01*
X42200Y-611800D02*
Y-332800D01*
X-1102000Y360000D02*
Y378000D01*
Y360000D02*
X-1099000Y357000D01*
X-1105000Y360000D02*
Y377000D01*
X-1108000Y357000D02*
X-1105000Y360000D01*
X-1099000Y342000D02*
Y349000D01*
X-1108000Y342000D02*
Y349000D01*
X1000Y139000D02*
X5000Y135000D01*
X1000Y139000D02*
Y343000D01*
X-9000Y613000D02*
X20500Y583500D01*
X-15000Y613000D02*
X-9000D01*
X20500Y335863D02*
Y583500D01*
X-11000Y623000D02*
X25900Y586100D01*
X-11000Y623000D02*
Y632000D01*
X25900Y333627D02*
Y586100D01*
X23200Y334745D02*
Y584800D01*
X-18000Y626000D02*
X23200Y584800D01*
X56900Y-30900D02*
X61718D01*
X50900Y-24900D02*
X56900Y-30900D01*
X50900Y-24900D02*
Y-16888D01*
X72200Y-208800D02*
Y-41382D01*
X61718Y-30900D02*
X72200Y-41382D01*
X65000Y-38000D02*
X69500Y-42500D01*
Y-185500D02*
Y-42500D01*
X57000Y-38000D02*
X65000D01*
X52000Y-131000D02*
X57000Y-126000D01*
Y-64788D01*
X42900Y-140100D02*
X52000Y-131000D01*
X42900Y-267900D02*
Y-140100D01*
X-46000Y-335000D02*
X-40000Y-329000D01*
X-46000Y-484000D02*
Y-335000D01*
X-31000Y-674000D02*
X-19000Y-686000D01*
X-31000Y-674000D02*
Y-516000D01*
X39000Y-327182D02*
Y-308000D01*
X33000Y-435000D02*
Y-329363D01*
X36000Y-438000D02*
Y-330182D01*
X39000Y-615000D02*
X42200Y-611800D01*
X36000Y-330182D02*
X39000Y-327182D01*
X33000Y-329363D02*
X36300Y-326063D01*
Y-306882D01*
X28000Y-440000D02*
X33000Y-435000D01*
X39000Y-331000D02*
X47000Y-323000D01*
X31900Y-442100D02*
X36000Y-438000D01*
X39000Y-445897D02*
Y-331000D01*
X37000Y-447897D02*
X39000Y-445897D01*
X37000Y-449000D02*
Y-447897D01*
X-45100Y-31900D02*
Y-12100D01*
X-42000Y-9000D01*
X-47800Y-33018D02*
X-39918Y-40900D01*
X-48000Y-3000D02*
X-47800Y-3200D01*
X-45100Y-31900D02*
X-38800Y-38200D01*
X-47800Y-33018D02*
Y-3200D01*
X-49000Y129212D02*
Y204000D01*
X-59100Y23900D02*
X-46300Y36700D01*
X-38100Y145000D02*
X-20800Y162300D01*
X-41000Y16000D02*
X-38100Y18900D01*
X-40800Y26988D02*
Y148200D01*
X-38100Y18900D02*
Y145000D01*
X-46300Y36700D02*
Y153700D01*
X-32000Y168000D01*
X-40800Y148200D02*
X-23500Y165500D01*
X-59100Y119113D02*
X-49000Y129212D01*
X-43500Y151500D02*
X-26200Y168800D01*
X-43500Y31500D02*
Y151500D01*
X-32000Y168000D02*
Y195000D01*
X-25800Y554769D02*
X-23500Y552469D01*
X-26200Y168800D02*
Y551351D01*
X-28500Y553651D02*
X-26200Y551351D01*
X-23500Y165500D02*
Y552469D01*
X-20800Y162300D02*
Y553588D01*
X-23100Y555887D02*
X-20800Y553588D01*
X31700Y158669D02*
X31800Y158769D01*
X31700Y130300D02*
X36800Y125200D01*
X31700Y165331D02*
X31800Y165231D01*
X31700Y130300D02*
Y158669D01*
X36800Y86382D02*
Y125200D01*
X29100Y159888D02*
Y164112D01*
X31700Y165331D02*
Y252700D01*
X31800Y158769D02*
Y165231D01*
X29000Y159788D02*
X29100Y159888D01*
X29000Y164212D02*
X29100Y164112D01*
X29000Y130000D02*
Y159788D01*
Y164212D02*
Y257787D01*
X23500Y124500D02*
X29000Y130000D01*
X31700Y252700D02*
X34200Y255200D01*
X24000Y130000D02*
Y162000D01*
X20800Y126800D02*
X24000Y130000D01*
X20800Y87108D02*
Y126800D01*
X23500Y88226D02*
Y124500D01*
Y88226D02*
X39600Y72126D01*
X18100Y85990D02*
Y155900D01*
Y85990D02*
X34200Y69890D01*
X20800Y87108D02*
X36900Y71008D01*
X29000Y86545D02*
Y113000D01*
Y86545D02*
X42300Y73245D01*
X31000Y122412D02*
X34100Y119312D01*
X31000Y122412D02*
Y123000D01*
X34100Y85263D02*
Y119312D01*
X36800Y86382D02*
X48090Y75092D01*
X34100Y85263D02*
X45000Y74363D01*
X-62800Y-416006D02*
Y-110231D01*
X-60000Y-419000D02*
Y-418806D01*
X-62800Y-416006D02*
X-60000Y-418806D01*
X21172Y-691828D02*
Y-488000D01*
X21000Y-692000D02*
X21172Y-691828D01*
X21000Y-488000D02*
Y-440000D01*
X22000Y-424000D02*
Y-340000D01*
X8000Y-326000D02*
X22000Y-340000D01*
X8000Y-438000D02*
X22000Y-424000D01*
X26000Y-427000D02*
Y-319000D01*
X15000Y-438000D02*
X26000Y-427000D01*
X21000Y-440000D02*
X29000Y-432000D01*
Y-329087D02*
X31000Y-327088D01*
X29000Y-432000D02*
Y-329087D01*
X15000Y-478000D02*
Y-438000D01*
X39000Y-627000D02*
Y-615000D01*
X31900Y-596900D02*
X37000Y-602000D01*
X31900Y-596900D02*
Y-442100D01*
X17600Y-209751D02*
Y-186400D01*
Y-209751D02*
X20500Y-212651D01*
X17600Y-186400D02*
X18000Y-186000D01*
X23100Y-191900D02*
Y-149596D01*
X28500Y-144196D01*
X23000Y-192000D02*
X23100Y-191900D01*
X11900Y-184888D02*
X16974Y-179814D01*
Y-174885D01*
Y-151903D02*
X25800Y-143077D01*
X16974Y-174244D02*
Y-151903D01*
X3800Y-181231D02*
X5800Y-179231D01*
X8500Y-180349D02*
Y-152741D01*
X6500Y-182349D02*
X8500Y-180349D01*
X11200Y-181468D02*
Y-153859D01*
X9200Y-208988D02*
Y-183468D01*
X11200Y-181468D01*
X25800Y-175800D02*
X29000Y-179000D01*
X25800Y-175800D02*
Y-150714D01*
X3800Y-196345D02*
Y-181231D01*
X1100Y-180112D02*
X3100Y-178113D01*
Y-150504D01*
X6500Y-197463D02*
Y-182349D01*
X25800Y-150714D02*
X31200Y-145314D01*
X11900Y-207869D02*
Y-184888D01*
X1100Y-194100D02*
Y-180112D01*
X5800Y-179231D02*
Y-151622D01*
X-5100Y-396900D02*
X3000Y-405000D01*
X16000D01*
X-5100Y-396900D02*
Y-345051D01*
X15000Y-682897D02*
Y-478000D01*
X28000Y-658000D02*
Y-440000D01*
X31000Y-316788D02*
Y-311701D01*
Y-264000D01*
X-59100Y46100D02*
Y119113D01*
X-54000Y13788D02*
X-40800Y26988D01*
X-48000Y27000D02*
X-43500Y31500D01*
X-31200Y552532D02*
X-28900Y550233D01*
X-23100Y555887D02*
Y681705D01*
X-28500Y553651D02*
Y657500D01*
X-36000Y665000D02*
X-28500Y657500D01*
X-25800Y554769D02*
Y672800D01*
X-49000Y696000D02*
X-25800Y672800D01*
X-30895Y689500D02*
X-23100Y681705D01*
X-31200Y552532D02*
Y647200D01*
X-40000Y656000D02*
X-31200Y647200D01*
X-64500Y179500D02*
X-58000Y186000D01*
X-64500Y-108531D02*
Y179500D01*
X-48700Y-501441D02*
X-41000Y-509141D01*
Y-537000D02*
Y-509141D01*
X-66000Y-705000D02*
X-65500Y-704500D01*
Y-153469D01*
X-61800Y142612D02*
X-56000Y148412D01*
X-64500Y-108531D02*
X-62800Y-110231D01*
X-60100Y-334975D02*
X-46900Y-321775D01*
X-60100Y-404600D02*
X-51900Y-412800D01*
X-61800Y-107413D02*
Y142612D01*
X-67200Y-151769D02*
X-65500Y-153469D01*
X-60100Y-307900D02*
Y-109113D01*
X-61800Y-107413D02*
X-60100Y-109113D01*
Y-307900D02*
X-53000Y-315000D01*
X-60100Y-404600D02*
Y-334975D01*
X-56000Y148412D02*
Y149000D01*
X-54000Y-22000D02*
Y13788D01*
X-59100Y46100D02*
X-53000Y40000D01*
X-59100Y-25900D02*
X-54000Y-31000D01*
X-59100Y-25900D02*
Y23900D01*
X-39918Y-40900D02*
X-39888D01*
X-38769Y-38200D02*
X-33200Y-43769D01*
X-35900Y-84113D02*
Y-44887D01*
X-41600Y-89812D02*
X-35900Y-84113D01*
X-33200Y-85231D02*
Y-43769D01*
X-39888Y-40900D02*
X-35900Y-44887D01*
X-38800Y-38200D02*
X-38769D01*
X-20309Y-87613D02*
Y-42309D01*
X-23009Y-86495D02*
Y-37797D01*
X-30000Y-93486D02*
X-23009Y-86495D01*
X-25709Y-85377D02*
Y-31709D01*
X-32700Y-92367D02*
X-25709Y-85377D01*
X-26700Y-94004D02*
X-20309Y-87613D01*
X-38900Y-90931D02*
X-33200Y-85231D01*
X-30500Y-86349D02*
Y-35500D01*
X-30000Y-154668D02*
Y-93486D01*
X-35900Y-91749D02*
X-30500Y-86349D01*
X-32700Y-153549D02*
Y-92367D01*
X-35900Y-152931D02*
Y-91749D01*
X-26700Y-155186D02*
Y-94004D01*
X-41600Y-150600D02*
Y-89812D01*
X-38900Y-151718D02*
Y-90931D01*
X-33800Y-162286D02*
X-26700Y-155186D01*
X-31100Y-163404D02*
X-24000Y-156304D01*
X-39200Y-160049D02*
X-32700Y-153549D01*
X-36500Y-161168D02*
X-30000Y-154668D01*
X-24000Y-156304D02*
Y-128000D01*
X-41900Y-158931D02*
X-35900Y-152931D01*
X-52100Y-276869D02*
X-47200Y-281769D01*
X-52100Y-276869D02*
Y-164918D01*
X-54800Y-277988D02*
X-49900Y-282887D01*
Y-309888D02*
Y-282887D01*
X-54800Y-163800D02*
X-41600Y-150600D01*
X-47100Y-308869D02*
Y-281900D01*
X-47200Y-281800D02*
Y-281769D01*
Y-281800D02*
X-47100Y-281900D01*
X-68200Y-475200D02*
Y-154588D01*
X-75100Y-147688D02*
X-68200Y-154588D01*
X-47100Y-308869D02*
X-44200Y-311769D01*
X-48700Y-501441D02*
Y-327394D01*
X-44200Y-322894D01*
X-72000Y-479000D02*
X-68200Y-475200D01*
X-70000Y-19188D02*
X-67200Y-21988D01*
Y-151769D02*
Y-21988D01*
X-70000Y-19188D02*
Y-18000D01*
X-46000Y-484000D02*
X-25000Y-505000D01*
X-43000Y-483000D02*
X-19000Y-507000D01*
X-43000Y-483000D02*
Y-342000D01*
X-51900Y-502059D02*
X-46000Y-507959D01*
X-51900Y-502059D02*
Y-412800D01*
X-43000Y-342000D02*
X-37000Y-336000D01*
X-19000Y-664000D02*
Y-507000D01*
X-37000Y-336000D02*
X-32000Y-331000D01*
X-46000Y-525000D02*
Y-507959D01*
X-46213Y-525213D02*
X-46000Y-525000D01*
X-46900Y-321775D02*
Y-312887D01*
X-49900Y-309888D02*
X-46900Y-312887D01*
X-44200Y-322894D02*
Y-311769D01*
X-40000Y-329000D02*
Y-293000D01*
X-54800Y-277988D02*
Y-163800D01*
X-52100Y-164918D02*
X-38900Y-151718D01*
X-39200Y-222800D02*
Y-160049D01*
X-33800Y-219200D02*
Y-162286D01*
X-36500Y-220500D02*
Y-161168D01*
X-41900Y-257900D02*
Y-158931D01*
X-31100Y-210900D02*
Y-163404D01*
X-40000Y-26000D02*
X-30500Y-35500D01*
X-75100Y-147688D02*
Y38760D01*
X-67200Y46660D01*
X-25709Y-31709D02*
X-12000Y-18000D01*
X-23009Y-37797D02*
X-12213Y-27000D01*
X-20309Y-42309D02*
X-13000Y-35000D01*
X20500Y-317318D02*
Y-212651D01*
X8000Y-326000D02*
X17800Y-316200D01*
Y-213769D01*
X19000Y-318818D02*
X20500Y-317318D01*
X19000Y-327000D02*
Y-318818D01*
X-49000Y696000D02*
Y727000D01*
X-28700Y-264700D02*
X-22000Y-258000D01*
X-28700Y-335143D02*
Y-264700D01*
X-16000Y-304000D02*
Y-226000D01*
X-20000Y-308000D02*
X-16000Y-304000D01*
X-31100Y-210900D02*
X-16000Y-226000D01*
X-298000Y230000D02*
Y239000D01*
Y247000D02*
Y256000D01*
X-1102000Y378000D02*
X-1098000Y382000D01*
X-1110000D02*
X-1105000Y377000D01*
X-1098000Y382000D02*
X-1076000D01*
X-1134000D02*
X-1110000D01*
X-24000Y-201000D02*
Y-180000D01*
X-24000Y-128000D02*
X-3700Y-107700D01*
X-1000Y-108818D02*
Y-50100D01*
X2000Y-109788D02*
Y-45103D01*
X-13000Y-144000D02*
Y-124788D01*
X-3700Y-107700D02*
Y-51218D01*
X-21000Y-128818D02*
X-1000Y-108818D01*
X-13000Y-124788D02*
X2000Y-109788D01*
X28900Y-217887D02*
X34100Y-212687D01*
Y-176688D01*
X34000Y-220000D02*
Y-219806D01*
X36800Y-217006D02*
Y-10231D01*
X34000Y-219806D02*
X36800Y-217006D01*
X26200Y-215800D02*
X29000Y-213000D01*
Y-198299D01*
Y-197000D02*
Y-179000D01*
X26200Y-259200D02*
Y-215800D01*
X29000Y-198299D02*
Y-197000D01*
X-6600Y12871D02*
Y84400D01*
X5000Y96000D01*
X-3900Y79887D02*
X7700Y91488D01*
Y140300D01*
X10400Y90369D02*
Y142600D01*
X-1200Y78769D02*
X10400Y90369D01*
X36900Y37645D02*
Y71008D01*
X34200Y36527D02*
Y69890D01*
X13100Y87171D02*
Y148900D01*
Y87171D02*
X31500Y68771D01*
Y31500D02*
Y68771D01*
X39500Y87500D02*
X46000Y81000D01*
X-1200Y15108D02*
Y78769D01*
X48090Y41910D02*
Y75092D01*
X46000Y81000D02*
X50790Y76210D01*
X45000Y41182D02*
Y74363D01*
X42300Y40063D02*
Y73245D01*
X5000Y96000D02*
Y135000D01*
X39500Y87500D02*
Y141006D01*
X-3900Y13990D02*
Y79887D01*
X39600Y38763D02*
Y72126D01*
X50790Y43028D02*
Y76210D01*
X7000Y158000D02*
Y263700D01*
X4000Y155000D02*
X7000Y158000D01*
X4000Y144000D02*
Y155000D01*
Y144000D02*
X7700Y140300D01*
X7000Y146000D02*
Y153000D01*
Y146000D02*
X10400Y142600D01*
X7000Y153000D02*
X10200Y156200D01*
Y265806D01*
X29000Y262212D02*
Y281000D01*
X12900Y273900D02*
X13000Y274000D01*
X12900Y153888D02*
Y273900D01*
X13000Y149000D02*
X13100Y148900D01*
X13000Y149000D02*
Y153788D01*
X12900Y153888D02*
X13000Y153788D01*
X18000Y156000D02*
Y268000D01*
Y156000D02*
X18100Y155900D01*
X24000Y162000D02*
Y259644D01*
Y162000D02*
X24000Y162000D01*
X-33000Y103000D02*
X-21939Y91939D01*
Y-1061D02*
Y91939D01*
X-33000Y103000D02*
Y137000D01*
X-29000Y104000D02*
Y128000D01*
X-18000Y4000D02*
Y93000D01*
X-29000Y104000D02*
X-18000Y93000D01*
X-25000Y132000D02*
Y143000D01*
X-29000Y128000D02*
X-25000Y132000D01*
X-17100Y131000D02*
Y556900D01*
X-15000Y99000D02*
X-11000Y103000D01*
Y124900D01*
X-17100Y131000D02*
X-11000Y124900D01*
X-9300Y11753D02*
Y90700D01*
X-1000Y99000D01*
Y123818D01*
X-6900Y129718D02*
X-1000Y123818D01*
X-15000Y99000D02*
X-15000Y99000D01*
X-15000Y9816D02*
Y99000D01*
X-6700Y100088D02*
Y125700D01*
X-12000Y94788D02*
X-6700Y100088D01*
X-12000Y10635D02*
Y94788D01*
X-15000Y9816D02*
X-5000Y-184D01*
X-12000Y131000D02*
X-6700Y125700D01*
X-3900Y13990D02*
X7800Y2290D01*
X-12000Y10635D02*
X-1690Y325D01*
X-18000Y4000D02*
X-13000Y-1000D01*
X-9300Y11753D02*
X2020Y433D01*
X-12000Y131000D02*
Y144000D01*
X-6900Y129718D02*
Y333897D01*
X73200Y-18577D02*
Y80618D01*
X69000Y-23000D02*
Y-22777D01*
X73200Y-18577D01*
X-40000Y656000D02*
Y656000D01*
X-25000Y-654000D02*
Y-505000D01*
X39900Y253918D02*
X52500Y241318D01*
X37000Y253000D02*
Y308000D01*
X39900Y253918D02*
Y302312D01*
X52500Y146369D02*
Y241318D01*
X49800Y147488D02*
Y240200D01*
X37000Y253000D02*
X49800Y240200D01*
X68000Y-318000D02*
X79400Y-306600D01*
Y82055D01*
X68000Y-310000D02*
X76500Y-301500D01*
Y81137D01*
X59000Y-196000D02*
X69500Y-185500D01*
X59000Y-222000D02*
X72200Y-208800D01*
X-8800Y-38769D02*
X-5000Y-34969D01*
Y-184D01*
X-6000Y-45100D02*
Y-39787D01*
X-1690Y-35478D01*
X-6000Y-45100D02*
X-1000Y-50100D01*
X2020Y-38897D02*
Y433D01*
X-0Y-40917D02*
X2020Y-38897D01*
X50112Y-57900D02*
X57000Y-64788D01*
X-35000Y-288000D02*
Y-227000D01*
X-39200Y-222800D02*
X-35000Y-227000D01*
X2000Y-595000D02*
Y-423000D01*
X47000Y-323000D02*
Y-316000D01*
X48900Y-294282D02*
Y-277718D01*
X36300Y-306882D02*
X48900Y-294282D01*
X39000Y-308000D02*
X51600Y-295400D01*
Y-276600D01*
X26200Y-259200D02*
X31000Y-264000D01*
X-42000Y-258000D02*
X-41900Y-257900D01*
X2500Y-319500D02*
X15100Y-306900D01*
X-8300Y-313982D02*
X-3255Y-308937D01*
X-14000Y-312045D02*
X-9000Y-307045D01*
X-36000Y-363897D02*
X-32000Y-359897D01*
X-36000Y-373000D02*
Y-372212D01*
X-29000Y-365213D01*
X-36000Y-365000D02*
Y-363897D01*
X6940Y-396211D02*
X7800Y-395351D01*
X1000Y-391000D02*
X5100Y-386900D01*
X7800Y-395351D02*
Y-378120D01*
X-0Y-383000D02*
Y-382297D01*
X-2400Y-379897D02*
X-0Y-382297D01*
X5100Y-386900D02*
Y-373800D01*
X7800Y-378120D02*
X11100Y-374820D01*
X300Y-369000D02*
X5100Y-373800D01*
X-2400Y-379897D02*
Y-343600D01*
X11100Y-374820D02*
Y-346918D01*
X-16000Y-351188D02*
X-13200Y-353988D01*
X-29000Y-365213D02*
Y-339262D01*
X-16000Y-351188D02*
Y-350000D01*
X-32000Y-359897D02*
Y-338443D01*
X-21000Y-344000D02*
X-17000Y-340000D01*
X-26267Y-340347D02*
X-20000Y-334080D01*
X-32000Y-338443D02*
X-28700Y-335143D01*
X-29000Y-339262D02*
X-23000Y-333261D01*
X-10500Y-407500D02*
X-3000Y-415000D01*
X-13200Y-454588D02*
Y-353988D01*
X-10500Y-407500D02*
Y-347287D01*
X-7800Y-401200D02*
Y-346169D01*
X-26267Y-372733D02*
Y-340347D01*
Y-372733D02*
X-26000Y-373000D01*
X300Y-369000D02*
Y-340845D01*
X-200Y-335618D02*
X11100Y-346918D01*
X2500Y-334500D02*
X14000Y-346000D01*
X2500Y-334500D02*
Y-319500D01*
X-14000Y-343787D02*
Y-312045D01*
Y-343787D02*
X-10500Y-347287D01*
X-11000Y-342969D02*
X-7800Y-346169D01*
X-8300Y-341851D02*
X-5100Y-345051D01*
X-5600Y-340400D02*
X-2400Y-343600D01*
X-2900Y-337645D02*
X300Y-340845D01*
X-11000Y-342969D02*
Y-312863D01*
X-8300Y-341851D02*
Y-313982D01*
X-5600Y-340400D02*
Y-315100D01*
X-2900Y-337645D02*
Y-316218D01*
X-200Y-335618D02*
Y-317337D01*
X-32000Y-331000D02*
Y-225000D01*
X-17000Y-340000D02*
Y-311227D01*
X-20000Y-334080D02*
Y-308000D01*
X-23000Y-333261D02*
Y-293000D01*
X-17000Y-311227D02*
X-11700Y-305927D01*
X-40000Y-293000D02*
X-35000Y-288000D01*
X6000Y-198000D02*
Y-197963D01*
X6500Y-197463D01*
X3100Y-150504D02*
X14081Y-139522D01*
X5800Y-151622D02*
X16782Y-140641D01*
X-36500Y-220500D02*
X-32000Y-225000D01*
X-33800Y-219200D02*
X-24000Y-229000D01*
X-7600Y-180121D02*
Y-153567D01*
X-21939Y-1061D02*
X-13000Y-10000D01*
X-12213Y-27000D02*
X-12000D01*
X-8800Y-46118D02*
Y-38769D01*
X-7600Y-180121D02*
X-4690Y-183031D01*
Y-184000D02*
Y-183031D01*
X-2000Y-176000D02*
Y-151786D01*
X-7600Y-153567D02*
X7800Y-138167D01*
X-2000Y-151786D02*
X10500Y-139286D01*
X-8800Y-46118D02*
X-3700Y-51218D01*
X-1690Y-35478D02*
Y325D01*
X-6600Y12871D02*
X5100Y1171D01*
X-0Y-43103D02*
X2000Y-45103D01*
Y-117000D02*
Y-116412D01*
X2100Y-140049D02*
Y-117000D01*
X2000Y-116412D02*
X5100Y-113312D01*
X-1200Y15108D02*
X10500Y3408D01*
X5100Y-113312D02*
Y1171D01*
X1500Y16227D02*
X14081Y3645D01*
X7800Y-138167D02*
Y2290D01*
X4200Y17769D02*
X16680Y5289D01*
X10500Y-139286D02*
Y3408D01*
X1500Y16227D02*
Y37500D01*
X4200Y17769D02*
Y31412D01*
X1500Y37500D02*
X12000Y48000D01*
X6900Y18887D02*
Y24900D01*
X4200Y31412D02*
X9887Y37100D01*
X6900Y24900D02*
X13000Y31000D01*
X9887Y37100D02*
X10100D01*
X13000Y40000D01*
X23000Y-192000D02*
X23200Y-192200D01*
X14918Y-685082D02*
Y-682979D01*
X15000Y-682897D01*
X14000Y-383000D02*
Y-346000D01*
X25900Y-318900D02*
X26000Y-319000D01*
X31000Y-327088D02*
Y-321212D01*
X31100Y-321113D01*
Y-316887D01*
X25900Y-318900D02*
Y-267826D01*
X23200Y-265126D02*
X25900Y-267826D01*
X15100Y-306900D02*
Y-214888D01*
X28900Y-257718D02*
Y-217887D01*
X23200Y-265126D02*
Y-192200D01*
X9200Y-208988D02*
X15100Y-214888D01*
X11900Y-207869D02*
X17800Y-213769D01*
X35000Y-229000D02*
X39500Y-224500D01*
X48000Y-253000D02*
Y-225031D01*
X49000Y-222212D02*
Y-166000D01*
X45788Y-222818D02*
X48000Y-225031D01*
X45788Y-222818D02*
Y-161213D01*
X54000Y-153000D01*
X50000Y-264000D02*
X54300Y-268300D01*
X54000Y-248000D02*
Y-227212D01*
X49000Y-222212D02*
X54000Y-227212D01*
X55000Y-215000D02*
Y-214172D01*
X52726Y-211897D02*
X55000Y-214172D01*
X52726Y-211897D02*
Y-187062D01*
X59000Y-188000D02*
X59031D01*
X52726Y-187062D02*
X56887Y-182900D01*
X59031Y-188000D02*
X66800Y-180231D01*
X56887Y-182900D02*
X60312D01*
X64100Y-179112D01*
X49000Y-166000D02*
X54000Y-161000D01*
X31000Y-173588D02*
X34100Y-176688D01*
X31000Y-316788D02*
X31100Y-316887D01*
X42900Y-267900D02*
X51600Y-276600D01*
X28900Y-257718D02*
X48900Y-277718D01*
X53900Y248100D02*
X66700Y235300D01*
X53900Y262900D02*
X60000Y269000D01*
X53900Y248100D02*
Y262900D01*
X59000Y249000D02*
Y260000D01*
X64000Y86000D02*
Y234182D01*
X40000Y15000D02*
X45100Y20100D01*
X25800Y8800D02*
X40000Y23000D01*
X28500Y3500D02*
X40000Y15000D01*
X31200Y-4800D02*
X45000Y9000D01*
X33900Y-9312D02*
X50500Y7287D01*
X45000Y9000D02*
Y10188D01*
X47800Y12988D01*
X39500Y-11349D02*
X55900Y5051D01*
X36800Y-10231D02*
X53200Y6169D01*
X42300Y40063D02*
X46800Y35563D01*
X42600Y-12400D02*
X58600Y3600D01*
X56000Y-19000D02*
Y-18000D01*
X45300Y-45300D02*
Y-13700D01*
X42600Y-50388D02*
Y-12400D01*
X48000Y-40000D02*
Y-15969D01*
X63000Y-47037D02*
X66800Y-50837D01*
X63000Y-47037D02*
Y-47000D01*
X42600Y-50388D02*
X50112Y-57900D01*
X45300Y-45300D02*
X51000Y-51000D01*
X48000Y-40000D02*
X64100Y-56100D01*
X50112Y-57900D02*
X50112D01*
X47800Y12988D02*
Y26745D01*
X49500Y36651D02*
Y36682D01*
X46800Y35532D02*
X53200Y29132D01*
X48090Y41910D02*
X52200Y37800D01*
X50500Y7287D02*
Y27863D01*
X52200Y37769D02*
Y37800D01*
X49500Y36651D02*
X55651Y30500D01*
X50790Y43028D02*
X54900Y38918D01*
X53200Y6169D02*
Y29132D01*
X42200Y94382D02*
X65100Y71481D01*
X55651Y30500D02*
X55682D01*
X55900Y30282D01*
Y5051D02*
Y30282D01*
X44900Y96100D02*
X67800Y73200D01*
X54900Y38888D02*
X57888Y35900D01*
X56769Y33200D02*
X56800D01*
X58600Y31400D01*
X57888Y35900D02*
X57918D01*
X58600Y3600D02*
Y31400D01*
X57918Y35900D02*
X61500Y32318D01*
X25800Y-143077D02*
Y8800D01*
X28500Y-144196D02*
Y3500D01*
X33900Y-169112D02*
Y-9312D01*
X31200Y-145314D02*
Y-4800D01*
X31000Y-173000D02*
Y-172012D01*
X33900Y-169112D01*
X64100Y-179112D02*
Y-56100D01*
X66800Y-180231D02*
Y-50837D01*
X41000Y228000D02*
X47100Y221900D01*
X50000Y248182D02*
X64000Y234182D01*
X42200Y139888D02*
X49800Y147488D01*
X47100Y148606D02*
Y221900D01*
X44900Y138770D02*
X52500Y146369D01*
X45300Y-13700D02*
X61500Y2500D01*
X48000Y-15969D02*
X65100Y1131D01*
X52200Y37769D02*
X56769Y33200D01*
X54900Y38888D02*
Y38918D01*
X50900Y-16888D02*
X67800Y12D01*
X31500Y31500D02*
X40000Y23000D01*
X34200Y36527D02*
X45100Y25627D01*
X36900Y37645D02*
X47800Y26745D01*
X39600Y38763D02*
X50500Y27863D01*
X45100Y20100D02*
Y25627D01*
X46800Y35532D02*
Y35563D01*
X45000Y41182D02*
X49500Y36682D01*
X44900Y96100D02*
Y138770D01*
X42200Y94382D02*
Y139888D01*
X39500Y141006D02*
X47100Y148606D01*
X8500Y-152741D02*
X19482Y-141759D01*
X39500Y-224500D02*
Y-11349D01*
X11200Y-153859D02*
X22900Y-142159D01*
Y10100D01*
X-17100Y556900D02*
X-17000Y557000D01*
X-12000Y591000D02*
X-11900Y590900D01*
Y144200D02*
Y590900D01*
X-6900Y333897D02*
X-5000Y335797D01*
Y540000D01*
X2000Y547000D01*
X-4000Y564000D02*
X15100Y544900D01*
X1000Y570000D02*
X17800Y553200D01*
X1000Y343000D02*
Y531000D01*
X5200Y265500D02*
Y328200D01*
X1000Y531000D02*
X10000Y540000D01*
X5200Y265500D02*
X7000Y263700D01*
X7900Y268106D02*
Y327082D01*
Y268106D02*
X10200Y265806D01*
X5200Y328200D02*
X15100Y338100D01*
X56000Y-18000D02*
X70500Y-3500D01*
X61500Y2500D02*
Y32318D01*
X65100Y1131D02*
Y71481D01*
X67800Y12D02*
Y73200D01*
X73700Y87755D02*
Y301300D01*
X70500Y-3500D02*
Y79500D01*
X64000Y86000D02*
X70500Y79500D01*
X66700Y87118D02*
X73200Y80618D01*
X71000Y86637D02*
X76500Y81137D01*
X73700Y87755D02*
X79400Y82055D01*
X71000Y86637D02*
Y237000D01*
X66700Y87118D02*
Y235300D01*
X59000Y249000D02*
X71000Y237000D01*
X19482Y-141759D02*
Y6306D01*
X6900Y18887D02*
X19482Y6306D01*
X14081Y-139522D02*
Y3645D01*
X16680Y4382D02*
Y5289D01*
Y4382D02*
X16782Y4281D01*
Y-140641D02*
Y4281D01*
X12000Y21000D02*
X22900Y10100D01*
X24000Y259644D02*
X24356Y260000D01*
X29000Y257787D02*
X29100Y257887D01*
X7900Y327082D02*
X17800Y336982D01*
X13000Y274000D02*
Y328363D01*
X15100Y338100D02*
Y544900D01*
X13000Y328363D02*
X20500Y335863D01*
X17800Y336982D02*
Y553200D01*
X18000Y268000D02*
X18100Y268100D01*
Y329645D01*
X23200Y334745D01*
X23900Y260456D02*
Y331627D01*
Y260456D02*
X24356Y260000D01*
X23900Y331627D02*
X25900Y333627D01*
X28000Y599000D02*
X28600Y598400D01*
X28000Y607000D02*
X29000D01*
X28600Y338613D02*
Y598400D01*
X29000Y262212D02*
X29100Y262113D01*
Y257887D02*
Y262113D01*
X29000Y607000D02*
X35000Y601000D01*
X34000Y323000D02*
X34200Y322800D01*
Y255200D02*
Y322800D01*
X28000Y615000D02*
X41000Y602000D01*
X35000Y336031D02*
Y601000D01*
X41000Y334000D02*
Y602000D01*
X60000Y269000D02*
Y281000D01*
X50000Y285493D02*
X50100Y285593D01*
Y317113D01*
X53000Y288000D02*
Y318031D01*
Y288000D02*
X60000Y281000D01*
X41000Y334000D02*
X73700Y301300D01*
X28600Y338613D02*
X50100Y317113D01*
X35000Y336031D02*
X53000Y318031D01*
X37000Y308000D02*
X43000Y314000D01*
X39900Y302312D02*
X43000Y305412D01*
Y306000D01*
X50000Y248182D02*
Y285493D01*
X13000Y40000D02*
X13000D01*
X-11000Y-679000D02*
Y-456787D01*
X-13200Y-454588D02*
X-11000Y-456787D01*
X8000Y-673000D02*
Y-438000D01*
X-5000Y-601000D02*
Y-418299D01*
X2000Y-423000D02*
X8000Y-417000D01*
X-5000Y-418299D02*
X-3000Y-416299D01*
Y-415000D01*
X-7800Y-401200D02*
X8000Y-417000D01*
D97*
X-93500Y288000D02*
X-34000D01*
X-1205000Y389000D02*
X-1191000D01*
X-1205800Y389800D02*
X-1205000Y389000D01*
X-201000Y710000D02*
X-191000D01*
D99*
X232000Y634200D02*
D03*
X226000Y164200D02*
D03*
X220000Y-305800D02*
D03*
X-150000Y-225000D02*
D03*
D100*
X741000Y-420800D02*
D03*
X757000Y-451800D02*
D03*
X733000D02*
D03*
X741000D02*
D03*
X749000D02*
D03*
X757000Y-420800D02*
D03*
X749000D02*
D03*
X733000D02*
D03*
X741000Y49200D02*
D03*
X757000Y18200D02*
D03*
X733000D02*
D03*
X741000D02*
D03*
X749000D02*
D03*
X757000Y49200D02*
D03*
X749000D02*
D03*
X733000D02*
D03*
X741000Y519200D02*
D03*
X757000Y488200D02*
D03*
X733000D02*
D03*
X741000D02*
D03*
X749000D02*
D03*
X757000Y519200D02*
D03*
X749000D02*
D03*
X733000D02*
D03*
D101*
X605000Y-291300D02*
D03*
X626500D02*
D03*
X605000Y-91300D02*
D03*
X626500D02*
D03*
X648000D02*
D03*
Y-291300D02*
D03*
D102*
X-1180000Y720000D02*
D03*
X-1100000D02*
D03*
X-1020000D02*
D03*
D103*
X480000Y-730000D02*
D03*
Y730000D02*
D03*
X750000Y593700D02*
D03*
Y433700D02*
D03*
Y-36300D02*
D03*
Y123700D02*
D03*
Y-346300D02*
D03*
Y-506300D02*
D03*
Y-730000D02*
D03*
Y730000D02*
D03*
X-1300000Y-730000D02*
D03*
Y730000D02*
D03*
X420000Y0D02*
D03*
X-400000D02*
D03*
Y-375000D02*
D03*
Y375000D02*
D03*
D104*
X562500Y513700D02*
D03*
Y43700D02*
D03*
Y-426300D02*
D03*
X-582500Y563700D02*
D03*
Y373700D02*
D03*
Y93700D02*
D03*
Y-96300D02*
D03*
Y-376300D02*
D03*
Y-566300D02*
D03*
D105*
X98500Y664200D02*
D03*
X173500D02*
D03*
X251500Y409200D02*
D03*
Y368700D02*
D03*
X278500Y291200D02*
D03*
X98500Y194200D02*
D03*
X173500D02*
D03*
X251500Y-60800D02*
D03*
Y-101300D02*
D03*
X278500Y-178800D02*
D03*
X98500Y-275800D02*
D03*
X173500D02*
D03*
X278500Y-648800D02*
D03*
X251500Y-530800D02*
D03*
Y-571300D02*
D03*
X-231500Y632700D02*
D03*
Y-39800D02*
D03*
Y41200D02*
D03*
Y470700D02*
D03*
Y511200D02*
D03*
Y430200D02*
D03*
Y308700D02*
D03*
Y162700D02*
D03*
Y-428800D02*
D03*
Y-469300D02*
D03*
Y700D02*
D03*
Y-161300D02*
D03*
Y-631300D02*
D03*
Y-307300D02*
D03*
Y-509800D02*
D03*
D106*
X-17000Y-207000D02*
D03*
X-52000Y-590000D02*
D03*
X723000Y-246000D02*
D03*
Y-254000D02*
D03*
Y-262000D02*
D03*
Y-270000D02*
D03*
Y-278000D02*
D03*
X686000D02*
D03*
Y-270000D02*
D03*
Y-262000D02*
D03*
Y-254000D02*
D03*
Y-246000D02*
D03*
X509000Y-163000D02*
D03*
Y-151000D02*
D03*
Y-139000D02*
D03*
X777000Y486000D02*
D03*
Y17000D02*
D03*
Y-453000D02*
D03*
X574000Y-181000D02*
D03*
Y-201000D02*
D03*
Y-221000D02*
D03*
Y-231000D02*
D03*
Y-241000D02*
D03*
Y-251000D02*
D03*
X523000Y-203000D02*
D03*
X515000D02*
D03*
X507000D02*
D03*
X536000Y-131000D02*
D03*
X529000D02*
D03*
X510000Y-254000D02*
D03*
Y-262000D02*
D03*
Y-270000D02*
D03*
X493000Y-293000D02*
D03*
X519000D02*
D03*
X511000D02*
D03*
X503000D02*
D03*
X567000Y-278000D02*
D03*
X559000D02*
D03*
X551000D02*
D03*
X567000Y-270000D02*
D03*
X559000D02*
D03*
X551000D02*
D03*
X537000Y-107000D02*
D03*
X530000D02*
D03*
X537000Y-120000D02*
D03*
X530000D02*
D03*
X749000Y-411000D02*
D03*
X741000D02*
D03*
X749000Y59000D02*
D03*
X741000D02*
D03*
Y529000D02*
D03*
X749000D02*
D03*
X769000Y472000D02*
D03*
Y3000D02*
D03*
Y-468000D02*
D03*
X-1099000Y342000D02*
D03*
X-1108000D02*
D03*
X-19000Y-686000D02*
D03*
X-42000Y-9000D02*
D03*
X-48000Y-3000D02*
D03*
X-49000Y201000D02*
D03*
X-32000Y195000D02*
D03*
X38000Y171000D02*
D03*
X29000Y113000D02*
D03*
X31000Y123000D02*
D03*
X21000Y-692000D02*
D03*
X39000Y-627000D02*
D03*
X45000Y-621000D02*
D03*
X37000Y-602000D02*
D03*
X18000Y-186000D02*
D03*
X16974Y-174244D02*
D03*
X14000Y-391000D02*
D03*
X16000Y-405000D02*
D03*
X-34000Y288000D02*
D03*
Y265000D02*
D03*
X-93500Y288000D02*
D03*
X-39000Y233000D02*
D03*
X-58000Y186000D02*
D03*
X-46000Y233000D02*
D03*
X-37000Y212000D02*
D03*
X-78000Y277000D02*
D03*
X1000Y-631000D02*
D03*
Y-623000D02*
D03*
Y-615000D02*
D03*
X78000Y-552000D02*
D03*
Y-544000D02*
D03*
Y-536000D02*
D03*
Y-528000D02*
D03*
X-31000Y-516000D02*
D03*
X-66000Y-705000D02*
D03*
X-54000Y-22000D02*
D03*
Y-31000D02*
D03*
X-53000Y-315000D02*
D03*
X-72000Y-479000D02*
D03*
X-41000Y-537000D02*
D03*
X-46213Y-525213D02*
D03*
X-60000Y-419000D02*
D03*
X-48000Y-43000D02*
D03*
X-40000Y-26000D02*
D03*
X8000Y-326000D02*
D03*
X-41000Y16000D02*
D03*
X-48000Y27000D02*
D03*
X-22000Y-258000D02*
D03*
X-182000Y285000D02*
D03*
X-216000Y200000D02*
D03*
X-200000Y236000D02*
D03*
Y200000D02*
D03*
X-298000Y247000D02*
D03*
Y239000D02*
D03*
X-991000Y392000D02*
D03*
X-333000Y293000D02*
D03*
X-1191000Y389000D02*
D03*
X-219000Y264000D02*
D03*
X-249000Y271000D02*
D03*
X-257000Y200000D02*
D03*
X-203000Y266000D02*
D03*
X-200000Y225000D02*
D03*
X-173000Y199000D02*
D03*
X-217000Y226000D02*
D03*
Y248000D02*
D03*
X-284000Y200000D02*
D03*
X-275000Y200000D02*
D03*
X-239000D02*
D03*
X-230000Y200000D02*
D03*
X-248000D02*
D03*
X-266000D02*
D03*
X-56000Y149000D02*
D03*
X-53000Y40000D02*
D03*
X-55000Y-740000D02*
D03*
Y-732000D02*
D03*
X-94000Y-756000D02*
D03*
Y-763000D02*
D03*
X-24000Y-201000D02*
D03*
Y-180000D02*
D03*
X-21000Y-171000D02*
D03*
X35000Y-229000D02*
D03*
X0Y91000D02*
D03*
X29000Y281000D02*
D03*
X13000Y149000D02*
D03*
X18000Y156000D02*
D03*
X24000Y162000D02*
D03*
X-1000Y99000D02*
D03*
X-15000D02*
D03*
X-52000Y109000D02*
D03*
X69000Y-23000D02*
D03*
X-40000Y656000D02*
D03*
X-25000Y-654000D02*
D03*
X37000Y245000D02*
D03*
X68000Y-318000D02*
D03*
Y-310000D02*
D03*
X65000Y-247000D02*
D03*
X-19000Y-664000D02*
D03*
X-279000Y481000D02*
D03*
Y-458000D02*
D03*
Y11000D02*
D03*
X-182000Y697000D02*
D03*
X47000Y-316000D02*
D03*
X251000Y15000D02*
D03*
X283500Y-515000D02*
D03*
Y-44000D02*
D03*
Y425000D02*
D03*
X-209000Y636000D02*
D03*
X-207000Y589000D02*
D03*
Y597000D02*
D03*
X-203000Y534850D02*
D03*
X-202000Y727000D02*
D03*
Y744000D02*
D03*
X-199000Y589000D02*
D03*
Y597000D02*
D03*
X-198000Y417000D02*
D03*
Y425000D02*
D03*
Y433000D02*
D03*
Y441000D02*
D03*
X-191000Y710000D02*
D03*
X-190000Y496000D02*
D03*
Y504000D02*
D03*
Y511000D02*
D03*
X-243000Y-552000D02*
D03*
Y-544000D02*
D03*
Y-536000D02*
D03*
X-198000Y-499000D02*
D03*
Y-515000D02*
D03*
Y-507000D02*
D03*
X-225000Y-612000D02*
D03*
X-217000D02*
D03*
X-216000Y-587000D02*
D03*
Y-580000D02*
D03*
X-208000Y-595000D02*
D03*
X-198000Y-523000D02*
D03*
Y-37000D02*
D03*
Y-53000D02*
D03*
X-225000Y-142000D02*
D03*
X-217000D02*
D03*
X-216000Y-110000D02*
D03*
Y-117000D02*
D03*
X-208000Y-125000D02*
D03*
X-189000Y-523000D02*
D03*
Y-515000D02*
D03*
Y-507000D02*
D03*
Y-499000D02*
D03*
X-186000Y-563000D02*
D03*
X-183000Y-596000D02*
D03*
X-182000Y-569000D02*
D03*
Y-613000D02*
D03*
X-173000Y-629000D02*
D03*
X-166000D02*
D03*
X-163000Y-484000D02*
D03*
Y-477000D02*
D03*
Y-470000D02*
D03*
Y-463000D02*
D03*
X-155000Y-484000D02*
D03*
Y-477000D02*
D03*
X-198000Y-45000D02*
D03*
X-190000Y-444000D02*
D03*
Y-436000D02*
D03*
Y-429000D02*
D03*
X-189000Y-29000D02*
D03*
Y-45000D02*
D03*
Y-37000D02*
D03*
Y-53000D02*
D03*
X-186000Y-93000D02*
D03*
X-184000Y-126000D02*
D03*
X-183000Y-294000D02*
D03*
X-182000Y-143000D02*
D03*
Y-99000D02*
D03*
X-173000Y-159000D02*
D03*
X-166000D02*
D03*
X-153000Y-366000D02*
D03*
X-225000Y328000D02*
D03*
X-217000D02*
D03*
X-216000Y353000D02*
D03*
Y360000D02*
D03*
X-209000Y166000D02*
D03*
X-208000Y345000D02*
D03*
X-207000Y119000D02*
D03*
Y127000D02*
D03*
X-199000D02*
D03*
Y119000D02*
D03*
X-190000Y41000D02*
D03*
Y34000D02*
D03*
X-186000Y377000D02*
D03*
X-184000Y344000D02*
D03*
X-183000Y176000D02*
D03*
X-182000Y327000D02*
D03*
Y371000D02*
D03*
X-173000Y311000D02*
D03*
X-166000D02*
D03*
X-163000Y-14000D02*
D03*
Y7000D02*
D03*
Y0D02*
D03*
Y-7000D02*
D03*
X-155000Y-14000D02*
D03*
Y-7000D02*
D03*
Y0D02*
D03*
X-199000Y-343000D02*
D03*
X-209000Y-304000D02*
D03*
X-207000Y-351000D02*
D03*
Y-343000D02*
D03*
X-203000Y-405150D02*
D03*
X-199000Y-351000D02*
D03*
X-198000Y-29000D02*
D03*
X-190000Y26000D02*
D03*
X-203000Y64850D02*
D03*
X-41000Y-54000D02*
D03*
X-42000Y-46000D02*
D03*
X-54000D02*
D03*
Y-39000D02*
D03*
X-26000Y-729000D02*
D03*
Y-722000D02*
D03*
X-20595Y-711405D02*
D03*
X-11000Y-679000D02*
D03*
X-51000Y-619000D02*
D03*
X-44000D02*
D03*
X-51000Y-612000D02*
D03*
X-44000D02*
D03*
X-54000Y-545000D02*
D03*
Y-510000D02*
D03*
X-25000Y-464000D02*
D03*
X-17000Y-458000D02*
D03*
X-29000Y-451000D02*
D03*
X-25000Y-407000D02*
D03*
X-19000Y-385000D02*
D03*
X-23000Y-293000D02*
D03*
X-36000Y-373000D02*
D03*
Y-365000D02*
D03*
X-19000Y-358000D02*
D03*
X-37480Y-355466D02*
D03*
X-16000Y-350000D02*
D03*
X-21000Y-344000D02*
D03*
X-40000Y-329000D02*
D03*
X-26000Y-373000D02*
D03*
X-23000Y-280000D02*
D03*
X-37000Y-336000D02*
D03*
X-24000Y-229000D02*
D03*
X-47000D02*
D03*
Y-220000D02*
D03*
Y-211000D02*
D03*
X-53000Y-152000D02*
D03*
X-13000Y-144000D02*
D03*
X-53000Y-138000D02*
D03*
Y-145000D02*
D03*
X-53500Y-118549D02*
D03*
X-42000Y-258000D02*
D03*
X-54000Y-108000D02*
D03*
X-20000Y-99000D02*
D03*
X-54000Y-98000D02*
D03*
Y-91000D02*
D03*
X-41000Y-82000D02*
D03*
Y-75000D02*
D03*
Y-68000D02*
D03*
Y-61000D02*
D03*
X-54000Y117000D02*
D03*
X-33000Y137000D02*
D03*
X-1000Y132000D02*
D03*
X-12000Y144000D02*
D03*
X-25000Y143000D02*
D03*
X45000Y9000D02*
D03*
X40000Y15000D02*
D03*
X12000Y21000D02*
D03*
X40000Y23000D02*
D03*
X13000Y31000D02*
D03*
Y40000D02*
D03*
X12000Y48000D02*
D03*
X6000Y62000D02*
D03*
X13000D02*
D03*
X6000Y69000D02*
D03*
X13000D02*
D03*
X59767Y69602D02*
D03*
X13000Y76000D02*
D03*
X6000D02*
D03*
X10000Y82000D02*
D03*
X57000Y97000D02*
D03*
Y104000D02*
D03*
X50000D02*
D03*
X42000Y182000D02*
D03*
Y189000D02*
D03*
X37000Y212000D02*
D03*
X58000Y214000D02*
D03*
X1000Y217000D02*
D03*
X37000Y219000D02*
D03*
X58000Y224000D02*
D03*
X-45000Y269000D02*
D03*
Y255000D02*
D03*
Y262000D02*
D03*
X-44000Y320000D02*
D03*
X-51000D02*
D03*
Y327000D02*
D03*
X-44000D02*
D03*
X-53500Y351451D02*
D03*
X-54000Y415000D02*
D03*
Y422000D02*
D03*
Y429000D02*
D03*
Y436000D02*
D03*
X-17000Y557000D02*
D03*
X-38000Y579000D02*
D03*
X-53000Y587000D02*
D03*
X-12000Y591000D02*
D03*
X-54000Y750000D02*
D03*
Y647000D02*
D03*
X-49000Y727000D02*
D03*
X-47000Y750000D02*
D03*
X-40000D02*
D03*
X41000Y228000D02*
D03*
X37000Y238000D02*
D03*
X1000Y343000D02*
D03*
X59000Y260000D02*
D03*
X24000D02*
D03*
X18000Y268000D02*
D03*
X50000Y271000D02*
D03*
X13000Y274000D02*
D03*
X59000Y293000D02*
D03*
X45000Y295000D02*
D03*
X43000Y306000D02*
D03*
Y314000D02*
D03*
X34000Y323000D02*
D03*
X-5000Y337000D02*
D03*
X59000Y347000D02*
D03*
Y354000D02*
D03*
X10000Y540000D02*
D03*
X2000Y547000D02*
D03*
X-4000Y564000D02*
D03*
X51000Y566000D02*
D03*
X58000D02*
D03*
X1000Y570000D02*
D03*
X51000Y573000D02*
D03*
X58000D02*
D03*
X28000Y599000D02*
D03*
Y607000D02*
D03*
Y615000D02*
D03*
X36595Y641405D02*
D03*
X42000Y652000D02*
D03*
Y659000D02*
D03*
X79000Y142000D02*
D03*
X60000Y59000D02*
D03*
Y48000D02*
D03*
Y41000D02*
D03*
X80000Y105000D02*
D03*
X79000Y149000D02*
D03*
X60000Y281000D02*
D03*
X88000Y3000D02*
D03*
Y10000D02*
D03*
Y17000D02*
D03*
Y-4000D02*
D03*
Y24000D02*
D03*
Y31000D02*
D03*
X158000Y285000D02*
D03*
Y292000D02*
D03*
X199000Y-6000D02*
D03*
X208000D02*
D03*
X199000Y2000D02*
D03*
X208000D02*
D03*
X199000Y10000D02*
D03*
X208000D02*
D03*
X251000Y23000D02*
D03*
Y31000D02*
D03*
Y39000D02*
D03*
X214000Y75000D02*
D03*
X191000Y47000D02*
D03*
X223000Y61000D02*
D03*
Y67000D02*
D03*
X190000Y75000D02*
D03*
X223000Y91000D02*
D03*
X230000D02*
D03*
X190000Y109000D02*
D03*
X188000Y234000D02*
D03*
X214000Y244000D02*
D03*
X203000Y284000D02*
D03*
Y292000D02*
D03*
X158000Y299000D02*
D03*
Y306000D02*
D03*
X224000Y321500D02*
D03*
X230000Y561000D02*
D03*
X160000Y420000D02*
D03*
X168000D02*
D03*
X160000Y428000D02*
D03*
X168000D02*
D03*
X160000Y436000D02*
D03*
X168000D02*
D03*
X199000Y456000D02*
D03*
Y464000D02*
D03*
Y472000D02*
D03*
Y480000D02*
D03*
X223000Y561000D02*
D03*
X61000Y496000D02*
D03*
Y503000D02*
D03*
Y510000D02*
D03*
Y517000D02*
D03*
X191000D02*
D03*
X61000Y528000D02*
D03*
X60767Y538602D02*
D03*
X190000Y545000D02*
D03*
X72000Y573000D02*
D03*
X80000D02*
D03*
X190000Y579000D02*
D03*
X75000Y612000D02*
D03*
X87000D02*
D03*
X63000Y685000D02*
D03*
X208000Y370000D02*
D03*
X215000D02*
D03*
X214000Y545000D02*
D03*
X208000Y456000D02*
D03*
Y464000D02*
D03*
Y472000D02*
D03*
Y480000D02*
D03*
X251000Y485000D02*
D03*
Y493000D02*
D03*
Y501000D02*
D03*
Y509000D02*
D03*
X223000Y537000D02*
D03*
Y531000D02*
D03*
X61000Y461000D02*
D03*
Y468000D02*
D03*
Y475000D02*
D03*
Y482000D02*
D03*
Y489000D02*
D03*
X-15000Y613000D02*
D03*
X-18000Y626000D02*
D03*
X-11000Y632000D02*
D03*
X-36000Y665000D02*
D03*
X-30895Y689500D02*
D03*
X-31000Y711000D02*
D03*
Y723000D02*
D03*
Y730000D02*
D03*
Y737000D02*
D03*
X-33000Y750000D02*
D03*
X-13000Y-1000D02*
D03*
X-39000Y3000D02*
D03*
X-243000Y-560000D02*
D03*
Y-82000D02*
D03*
Y-90000D02*
D03*
Y-66000D02*
D03*
Y-74000D02*
D03*
X-155000Y-470000D02*
D03*
Y-463000D02*
D03*
X-83000Y-661000D02*
D03*
Y-623000D02*
D03*
X-76000D02*
D03*
X-75000Y-661000D02*
D03*
X-54000Y-531000D02*
D03*
Y-578000D02*
D03*
Y-538000D02*
D03*
Y-559000D02*
D03*
Y-524000D02*
D03*
Y-566000D02*
D03*
Y-517000D02*
D03*
X-153000Y-359000D02*
D03*
Y-352000D02*
D03*
Y-345000D02*
D03*
X-83000Y-154000D02*
D03*
Y-192000D02*
D03*
X-76000Y-154000D02*
D03*
X-75000Y-192000D02*
D03*
X-74000Y-418000D02*
D03*
Y-411000D02*
D03*
X-55000Y-352000D02*
D03*
Y-285000D02*
D03*
Y-292000D02*
D03*
X-243000Y380000D02*
D03*
Y388000D02*
D03*
Y404000D02*
D03*
Y396000D02*
D03*
X-155000Y7000D02*
D03*
X-153000Y104000D02*
D03*
Y111000D02*
D03*
Y125000D02*
D03*
Y118000D02*
D03*
X-83000Y316000D02*
D03*
X-76000D02*
D03*
X-71000Y277000D02*
D03*
X-73000Y57000D02*
D03*
Y50000D02*
D03*
X-70000Y-18000D02*
D03*
X-55467Y176387D02*
D03*
X-54000Y362000D02*
D03*
Y373000D02*
D03*
X-189000Y417000D02*
D03*
Y425000D02*
D03*
Y433000D02*
D03*
Y441000D02*
D03*
Y673000D02*
D03*
X-187000Y747000D02*
D03*
X-183000Y646000D02*
D03*
X-181000Y673000D02*
D03*
X-163000Y456000D02*
D03*
Y463000D02*
D03*
Y470000D02*
D03*
Y477000D02*
D03*
X-155000Y456000D02*
D03*
Y463000D02*
D03*
Y470000D02*
D03*
Y477000D02*
D03*
X-153000Y581000D02*
D03*
Y595000D02*
D03*
Y588000D02*
D03*
Y574000D02*
D03*
X-75000Y663000D02*
D03*
Y654000D02*
D03*
X-74000Y527000D02*
D03*
X-67000Y654000D02*
D03*
Y663000D02*
D03*
X-63000Y527000D02*
D03*
X-57000Y710000D02*
D03*
X-54000Y380000D02*
D03*
Y387000D02*
D03*
Y394000D02*
D03*
Y401000D02*
D03*
Y408000D02*
D03*
X61000Y-714000D02*
D03*
X53000D02*
D03*
X188000Y-706000D02*
D03*
X158000Y-655000D02*
D03*
Y-648000D02*
D03*
X60000Y-645000D02*
D03*
X158000Y-641000D02*
D03*
Y-634000D02*
D03*
X60000Y-594000D02*
D03*
Y-587000D02*
D03*
X160000Y-520000D02*
D03*
X168000D02*
D03*
X160000Y-512000D02*
D03*
X168000D02*
D03*
X160000Y-504000D02*
D03*
X168000D02*
D03*
X7000Y-738000D02*
D03*
X14918Y-685082D02*
D03*
X8000Y-673000D02*
D03*
X28000Y-658000D02*
D03*
X43000Y-638000D02*
D03*
X8000Y-417000D02*
D03*
X2000Y-595000D02*
D03*
X21000Y-488000D02*
D03*
X15000Y-478000D02*
D03*
X37000Y-449000D02*
D03*
X8000Y-438000D02*
D03*
X-5000Y-601000D02*
D03*
X-3000Y-415000D02*
D03*
X6940Y-396211D02*
D03*
X1000Y-391000D02*
D03*
X-0Y-383000D02*
D03*
X14000D02*
D03*
X6000Y-361000D02*
D03*
X19000Y-327000D02*
D03*
X26000Y-319000D02*
D03*
X31000Y-311701D02*
D03*
X36595Y-298595D02*
D03*
X42000Y-288000D02*
D03*
Y-281000D02*
D03*
X37000Y-237000D02*
D03*
X10000Y-235000D02*
D03*
Y-229000D02*
D03*
Y-223000D02*
D03*
X34000Y-220000D02*
D03*
X10000Y-217000D02*
D03*
X29000Y-197000D02*
D03*
X23000Y-192000D02*
D03*
X-4082Y-191821D02*
D03*
X-4690Y-184000D02*
D03*
X-2000Y-176000D02*
D03*
X31000Y-173000D02*
D03*
X-3000Y-136000D02*
D03*
X-13000Y-10000D02*
D03*
X-12000Y-68000D02*
D03*
Y-61000D02*
D03*
Y-54000D02*
D03*
X-0Y-42000D02*
D03*
X-13000Y-35000D02*
D03*
X-12000Y-27000D02*
D03*
Y-18000D02*
D03*
X60000Y-486000D02*
D03*
Y-479000D02*
D03*
Y-472000D02*
D03*
Y-465000D02*
D03*
Y-458000D02*
D03*
Y-451000D02*
D03*
Y-444000D02*
D03*
Y-437000D02*
D03*
Y-430000D02*
D03*
Y-423000D02*
D03*
Y-412000D02*
D03*
X59767Y-401398D02*
D03*
X52000Y-374000D02*
D03*
X59000D02*
D03*
X72000Y-367000D02*
D03*
X80000D02*
D03*
X208000Y-476000D02*
D03*
X214000Y-696000D02*
D03*
X203000Y-656000D02*
D03*
Y-648000D02*
D03*
X224000Y-618500D02*
D03*
X199000Y-476000D02*
D03*
X208000Y-570000D02*
D03*
X215000D02*
D03*
X199000Y-484000D02*
D03*
X208000D02*
D03*
X199000Y-468000D02*
D03*
X208000D02*
D03*
X199000Y-460000D02*
D03*
X208000D02*
D03*
X251000Y-455000D02*
D03*
Y-447000D02*
D03*
Y-439000D02*
D03*
Y-431000D02*
D03*
X230000Y-379000D02*
D03*
X191000Y-423000D02*
D03*
X223000Y-409000D02*
D03*
Y-403000D02*
D03*
X190000Y-395000D02*
D03*
X214000D02*
D03*
X223000Y-379000D02*
D03*
X59000Y-367000D02*
D03*
X52000D02*
D03*
X72000Y-329000D02*
D03*
X50000Y-264000D02*
D03*
X57000Y-259000D02*
D03*
X65000Y-256000D02*
D03*
X48000Y-253000D02*
D03*
X54000Y-248000D02*
D03*
X60000Y-239000D02*
D03*
X59000Y-222000D02*
D03*
X55000Y-215000D02*
D03*
X59000Y-196000D02*
D03*
Y-188000D02*
D03*
Y-177000D02*
D03*
X-3000Y-128000D02*
D03*
X2000Y-117000D02*
D03*
X-12000Y-96000D02*
D03*
Y-89000D02*
D03*
X48000Y-84000D02*
D03*
X-12000Y-82000D02*
D03*
X48000Y-77000D02*
D03*
X-12000Y-75000D02*
D03*
X190000Y-361000D02*
D03*
X80000Y-329000D02*
D03*
X188000Y-236000D02*
D03*
X224000Y-148500D02*
D03*
X214000Y-226000D02*
D03*
X203000Y-186000D02*
D03*
X158000Y-185000D02*
D03*
Y-178000D02*
D03*
X203000D02*
D03*
X158000Y-171000D02*
D03*
Y-164000D02*
D03*
X89000Y-122000D02*
D03*
Y-115000D02*
D03*
X88000Y-11000D02*
D03*
X208000Y-100000D02*
D03*
X215000D02*
D03*
X160000Y-50000D02*
D03*
X168000D02*
D03*
X160000Y-42000D02*
D03*
X168000D02*
D03*
X160000Y-34000D02*
D03*
X168000D02*
D03*
X199000Y-14000D02*
D03*
X208000D02*
D03*
X58000Y-169000D02*
D03*
X54000Y-161000D02*
D03*
Y-153000D02*
D03*
X52000Y-131000D02*
D03*
X48000Y-119000D02*
D03*
Y-112000D02*
D03*
Y-105000D02*
D03*
Y-98000D02*
D03*
Y-91000D02*
D03*
Y-70000D02*
D03*
Y-63000D02*
D03*
X51000Y-51000D02*
D03*
X56000Y-19000D02*
D03*
X63000Y-47000D02*
D03*
X57000Y-38000D02*
D03*
X-542000Y-715000D02*
D03*
X-519000Y-727000D02*
D03*
Y-715000D02*
D03*
X-679000Y-756000D02*
D03*
X-688000D02*
D03*
X-697000D02*
D03*
X-706000D02*
D03*
X-715000D02*
D03*
X-680000Y-738000D02*
D03*
X-689000D02*
D03*
X-793600Y-676000D02*
D03*
X-825000Y-756000D02*
D03*
X-816000D02*
D03*
X-807000D02*
D03*
X-798000D02*
D03*
X-789000D02*
D03*
X-1137000Y-664000D02*
D03*
X-668000Y741000D02*
D03*
X-675000D02*
D03*
X-661000D02*
D03*
X-882000Y516875D02*
D03*
Y523875D02*
D03*
Y530875D02*
D03*
Y537875D02*
D03*
X-889000Y516875D02*
D03*
Y523875D02*
D03*
Y530875D02*
D03*
Y537875D02*
D03*
X-896000D02*
D03*
Y530875D02*
D03*
Y523875D02*
D03*
Y516875D02*
D03*
X-903000Y523875D02*
D03*
Y530875D02*
D03*
Y537875D02*
D03*
Y516875D02*
D03*
X-882000Y544875D02*
D03*
X-889000D02*
D03*
X-896000D02*
D03*
X-903000D02*
D03*
X-910000D02*
D03*
Y537875D02*
D03*
Y530875D02*
D03*
Y523875D02*
D03*
Y516875D02*
D03*
X-1026000Y516875D02*
D03*
Y523875D02*
D03*
Y530875D02*
D03*
Y537875D02*
D03*
X-1033000Y516875D02*
D03*
Y523875D02*
D03*
Y530875D02*
D03*
Y537875D02*
D03*
X-1040000D02*
D03*
Y530875D02*
D03*
Y523875D02*
D03*
Y516875D02*
D03*
X-1047000Y523875D02*
D03*
Y530875D02*
D03*
Y537875D02*
D03*
Y516875D02*
D03*
X-1026000Y544875D02*
D03*
X-1033000D02*
D03*
X-1040000D02*
D03*
X-1047000D02*
D03*
X-1054000D02*
D03*
Y537875D02*
D03*
Y530875D02*
D03*
Y523875D02*
D03*
Y516875D02*
D03*
X-1170000Y516875D02*
D03*
Y523875D02*
D03*
Y530875D02*
D03*
Y537875D02*
D03*
X-1177000Y516875D02*
D03*
Y523875D02*
D03*
Y530875D02*
D03*
Y537875D02*
D03*
X-1184000D02*
D03*
Y530875D02*
D03*
Y523875D02*
D03*
Y516875D02*
D03*
X-1191000Y523875D02*
D03*
Y530875D02*
D03*
Y537875D02*
D03*
Y516875D02*
D03*
X-1170000Y544875D02*
D03*
X-1177000D02*
D03*
X-1184000D02*
D03*
X-1191000D02*
D03*
X-1198000D02*
D03*
Y537875D02*
D03*
Y530875D02*
D03*
Y523875D02*
D03*
Y516875D02*
D03*
D107*
X-200000Y200000D02*
D03*
X-216000D02*
D03*
X-200000Y236000D02*
D03*
X-298000Y256000D02*
D03*
Y230000D02*
D03*
X-219000Y264000D02*
D03*
X-49000Y201000D02*
D03*
X-66000Y-705000D02*
D03*
X7000Y-738000D02*
D03*
X-54000Y-510000D02*
D03*
X65000Y-247000D02*
D03*
X13000Y76000D02*
D03*
X-53500Y351451D02*
D03*
X63000Y685000D02*
D03*
X-12000Y-96000D02*
D03*
X48000Y-91000D02*
D03*
X-19000Y-686000D02*
D03*
X-40000Y656000D02*
D03*
X-58000Y186000D02*
D03*
X47000Y-316000D02*
D03*
X69000Y-23000D02*
D03*
X50000Y271000D02*
D03*
X-25000Y143000D02*
D03*
X57000Y-38000D02*
D03*
X-40000Y-293000D02*
D03*
X-19000Y-664000D02*
D03*
X251000Y485000D02*
D03*
Y15000D02*
D03*
Y-455000D02*
D03*
X-279000Y481000D02*
D03*
Y11000D02*
D03*
Y-458000D02*
D03*
X-198000Y417000D02*
D03*
X158000Y285000D02*
D03*
X-198000Y-53000D02*
D03*
X158000Y-185000D02*
D03*
X-198000Y-523000D02*
D03*
X158000Y-655000D02*
D03*
X-163000Y477000D02*
D03*
X230000Y561000D02*
D03*
X-163000Y7000D02*
D03*
X230000Y91000D02*
D03*
X-163000Y-463000D02*
D03*
X230000Y-379000D02*
D03*
X-207000Y597000D02*
D03*
X203000Y284000D02*
D03*
X-207000Y127000D02*
D03*
X203000Y-186000D02*
D03*
X-207000Y-343000D02*
D03*
X203000Y-656000D02*
D03*
X-182000Y697000D02*
D03*
X-201000Y710000D02*
D03*
X283500Y425000D02*
D03*
Y-44000D02*
D03*
Y-515000D02*
D03*
X-13000Y-144000D02*
D03*
X41000Y228000D02*
D03*
X8000Y-417000D02*
D03*
X-793600Y-676000D02*
D03*
X-680000Y-738000D02*
D03*
X-1179000Y681000D02*
D03*
X-1099000D02*
D03*
X-1019000D02*
D03*
X-1137000Y-664000D02*
D03*
D108*
X-1134000Y382000D02*
D03*
X-1076000D02*
D03*
D109*
X-1183000Y326800D02*
D03*
D110*
X-1160200Y389800D02*
D03*
X-1205800D02*
D03*
D111*
X-968000Y531000D02*
D03*
X-1112000Y530875D02*
D03*
X-1256000D02*
D03*
X-896000Y530875D02*
D03*
X-1040000Y530875D02*
D03*
X-1184000Y530875D02*
D03*
D112*
X-990860Y467000D02*
D03*
X-945140D02*
D03*
X-1134860Y466875D02*
D03*
X-1089140D02*
D03*
X-1278860D02*
D03*
X-1233140D02*
D03*
X-918860Y466875D02*
D03*
X-873140D02*
D03*
X-1062860Y466875D02*
D03*
X-1017140D02*
D03*
X-1206860Y466875D02*
D03*
X-1161140D02*
D03*
M02*
