G04*
G04 #@! TF.GenerationSoftware,Altium Limited,Altium Designer,24.9.1 (31)*
G04*
G04 Layer_Color=32896*
%FSLAX44Y44*%
%MOMM*%
G71*
G04*
G04 #@! TF.SameCoordinates,25B5EA7A-0A89-4A72-9C9E-8463CCD4450D*
G04*
G04*
G04 #@! TF.FilePolarity,Positive*
G04*
G01*
G75*
%ADD10C,0.2500*%
%ADD12C,0.2000*%
%ADD16C,0.0800*%
D10*
X-932000Y467125D02*
G03*
X-932000Y467125I-1250J0D01*
G01*
X-1076000Y467000D02*
G03*
X-1076000Y467000I-1250J0D01*
G01*
X-1220000D02*
G03*
X-1220000Y467000I-1250J0D01*
G01*
X-860000Y467000D02*
G03*
X-860000Y467000I-1250J0D01*
G01*
X-1004000Y467000D02*
G03*
X-1004000Y467000I-1250J0D01*
G01*
X-1148000Y467000D02*
G03*
X-1148000Y467000I-1250J0D01*
G01*
D12*
X-1125000Y366750D02*
X-1085000D01*
X-1125000Y397250D02*
X-1085000D01*
X-1216250Y307900D02*
Y370100D01*
X-1149750D01*
Y307900D02*
Y370100D01*
X-1150250Y307900D02*
X-1149750D01*
X-1216250D02*
X-1215750D01*
X-934350Y485275D02*
Y547475D01*
X-1001650Y485275D02*
X-934350D01*
X-1001650D02*
Y547475D01*
X-999500D01*
X-936500D02*
X-934350D01*
X-1078350Y485150D02*
Y547350D01*
X-1145650Y485150D02*
X-1078350D01*
X-1145650D02*
Y547350D01*
X-1143500D01*
X-1080500D02*
X-1078350D01*
X-1222350Y485150D02*
Y547350D01*
X-1289650Y485150D02*
X-1222350D01*
X-1289650D02*
Y547350D01*
X-1287500D01*
X-1224500D02*
X-1222350D01*
X-862350Y485150D02*
Y547350D01*
X-929650Y485150D02*
X-862350D01*
X-929650D02*
Y547350D01*
X-927500D01*
X-864500D02*
X-862350D01*
X-1006350Y485150D02*
Y547350D01*
X-1073650Y485150D02*
X-1006350D01*
X-1073650D02*
Y547350D01*
X-1071500D01*
X-1008500D02*
X-1006350D01*
X-1150350Y485150D02*
Y547350D01*
X-1217650Y485150D02*
X-1150350D01*
X-1217650D02*
Y547350D01*
X-1215500D01*
X-1152500D02*
X-1150350D01*
D16*
X773998Y529999D02*
Y524001D01*
X770999D01*
X770000Y525001D01*
Y526000D01*
X770999Y527000D01*
X773998D01*
X770999D01*
X770000Y528000D01*
Y528999D01*
X770999Y529999D01*
X773998D01*
X768000Y528999D02*
X767001Y529999D01*
X765001D01*
X764002Y528999D01*
Y528000D01*
X765001Y527000D01*
X766001D01*
X765001D01*
X764002Y526000D01*
Y525001D01*
X765001Y524001D01*
X767001D01*
X768000Y525001D01*
X773998Y60999D02*
Y55001D01*
X770999D01*
X770000Y56001D01*
Y57000D01*
X770999Y58000D01*
X773998D01*
X770999D01*
X770000Y59000D01*
Y59999D01*
X770999Y60999D01*
X773998D01*
X764002Y55001D02*
X768000D01*
X764002Y59000D01*
Y59999D01*
X765001Y60999D01*
X767001D01*
X768000Y59999D01*
X773999Y-409001D02*
Y-414999D01*
X771000D01*
X770000Y-413999D01*
Y-413000D01*
X771000Y-412000D01*
X773999D01*
X771000D01*
X770000Y-411000D01*
Y-410001D01*
X771000Y-409001D01*
X773999D01*
X768001Y-414999D02*
X766001D01*
X767001D01*
Y-409001D01*
X768001Y-410001D01*
X-171004Y197001D02*
Y202999D01*
X-174003D01*
X-175002Y201999D01*
Y200000D01*
X-174003Y199000D01*
X-171004D01*
X-173003D02*
X-175002Y197001D01*
X-181000Y202999D02*
X-177002D01*
Y200000D01*
X-179001D01*
X-177002D01*
Y197001D01*
X-183000Y202999D02*
Y199000D01*
X-184999Y197001D01*
X-186998Y199000D01*
Y202999D01*
X-192996Y201999D02*
X-191997Y202999D01*
X-189997D01*
X-188998Y201999D01*
Y201000D01*
X-189997Y200000D01*
X-191997D01*
X-192996Y199000D01*
Y198001D01*
X-191997Y197001D01*
X-189997D01*
X-188998Y198001D01*
X-223004Y197001D02*
Y202999D01*
X-226003D01*
X-227002Y201999D01*
Y200000D01*
X-226003Y199000D01*
X-223004D01*
X-225003D02*
X-227002Y197001D01*
X-233000Y202999D02*
X-229002D01*
Y200000D01*
X-231001D01*
X-229002D01*
Y197001D01*
X-235000Y202999D02*
Y199000D01*
X-236999Y197001D01*
X-238998Y199000D01*
Y202999D01*
X-240998Y197001D02*
Y202999D01*
X-242997Y201000D01*
X-244996Y202999D01*
Y197001D01*
X-171004Y233001D02*
Y238999D01*
X-174003D01*
X-175002Y237999D01*
Y236000D01*
X-174003Y235000D01*
X-171004D01*
X-173003D02*
X-175002Y233001D01*
X-181000Y238999D02*
X-177002D01*
Y236000D01*
X-179001D01*
X-177002D01*
Y233001D01*
X-183000Y238999D02*
Y235000D01*
X-184999Y233001D01*
X-186998Y235000D01*
Y238999D01*
X-188998D02*
Y233001D01*
Y236000D01*
X-192996D01*
Y238999D01*
Y233001D01*
X-269004Y253001D02*
Y258999D01*
X-272003D01*
X-273002Y257999D01*
Y256000D01*
X-272003Y255000D01*
X-269004D01*
X-271003D02*
X-273002Y253001D01*
X-279000Y258999D02*
X-275002D01*
Y256000D01*
X-277001D01*
X-275002D01*
Y253001D01*
X-284998Y257999D02*
X-283999Y258999D01*
X-281999D01*
X-281000Y257999D01*
Y254001D01*
X-281999Y253001D01*
X-283999D01*
X-284998Y254001D01*
X-286998Y253001D02*
Y258999D01*
X-289997D01*
X-290996Y257999D01*
Y256000D01*
X-289997Y255000D01*
X-286998D01*
X-269004Y227001D02*
Y232999D01*
X-272003D01*
X-273002Y231999D01*
Y230000D01*
X-272003Y229000D01*
X-269004D01*
X-271003D02*
X-273002Y227001D01*
X-279000Y232999D02*
X-275002D01*
Y230000D01*
X-277001D01*
X-275002D01*
Y227001D01*
X-284998Y231999D02*
X-283999Y232999D01*
X-281999D01*
X-281000Y231999D01*
Y228001D01*
X-281999Y227001D01*
X-283999D01*
X-284998Y228001D01*
X-286998Y227001D02*
Y232999D01*
X-290996Y227001D01*
Y232999D01*
X-1110999Y329002D02*
X-1105001D01*
Y332001D01*
X-1106001Y333001D01*
X-1108000D01*
X-1109000Y332001D01*
Y329002D01*
Y331002D02*
X-1110999Y333001D01*
X-1105001Y338999D02*
Y335000D01*
X-1108000D01*
X-1107000Y337000D01*
Y337999D01*
X-1108000Y338999D01*
X-1109999D01*
X-1110999Y337999D01*
Y336000D01*
X-1109999Y335000D01*
X-1110999Y340998D02*
Y342998D01*
Y341998D01*
X-1105001D01*
X-1106001Y340998D01*
X-1101999Y328003D02*
X-1096001D01*
Y331002D01*
X-1097001Y332001D01*
X-1099000D01*
X-1100000Y331002D01*
Y328003D01*
Y330002D02*
X-1101999Y332001D01*
Y337000D02*
X-1096001D01*
X-1099000Y334001D01*
Y337999D01*
X-1100999Y339999D02*
X-1101999Y340998D01*
Y342998D01*
X-1100999Y343997D01*
X-1097001D01*
X-1096001Y342998D01*
Y340998D01*
X-1097001Y339999D01*
X-1098000D01*
X-1099000Y340998D01*
Y343997D01*
X-1097003Y400001D02*
Y405999D01*
X-1100002D01*
X-1101001Y404999D01*
Y403000D01*
X-1100002Y402000D01*
X-1097003D01*
X-1099002D02*
X-1101001Y400001D01*
X-1106000D02*
Y405999D01*
X-1103001Y403000D01*
X-1106999D01*
X-1108999Y405999D02*
X-1112997D01*
Y404999D01*
X-1108999Y401001D01*
Y400001D01*
X-1159000Y404001D02*
Y407999D01*
X-1158001Y408999D01*
X-1156001D01*
X-1155002Y407999D01*
Y404001D01*
X-1156001Y403001D01*
X-1158001D01*
X-1157001Y405000D02*
X-1159000Y403001D01*
X-1158001D02*
X-1159000Y404001D01*
X-1164998Y408999D02*
X-1161000D01*
Y406000D01*
X-1162999Y407000D01*
X-1163999D01*
X-1164998Y406000D01*
Y404001D01*
X-1163999Y403001D01*
X-1161999D01*
X-1161000Y404001D01*
X-190004Y261001D02*
Y266999D01*
X-193003D01*
X-194002Y265999D01*
Y264000D01*
X-193003Y263000D01*
X-190004D01*
X-192003D02*
X-194002Y261001D01*
X-200000Y266999D02*
X-196002D01*
Y264000D01*
X-198001D01*
X-196002D01*
Y261001D01*
X-202000D02*
Y266999D01*
X-204999D01*
X-205998Y265999D01*
Y264000D01*
X-204999Y263000D01*
X-202000D01*
X-203999D02*
X-205998Y261001D01*
X-211996Y265999D02*
X-210997Y266999D01*
X-208997D01*
X-207998Y265999D01*
Y262001D01*
X-208997Y261001D01*
X-210997D01*
X-211996Y262001D01*
Y264000D01*
X-209997D01*
X-20004Y198001D02*
Y203999D01*
X-23003D01*
X-24002Y202999D01*
Y201000D01*
X-23003Y200000D01*
X-20004D01*
X-22003D02*
X-24002Y198001D01*
X-30000Y203999D02*
X-26002D01*
Y201000D01*
X-28001D01*
X-26002D01*
Y198001D01*
X-34999Y203999D02*
X-32999D01*
X-32000Y202999D01*
Y199001D01*
X-32999Y198001D01*
X-34999D01*
X-35998Y199001D01*
Y202999D01*
X-34999Y203999D01*
X-37998Y198001D02*
Y203999D01*
X-41996Y198001D01*
Y203999D01*
X-41002Y-702001D02*
X-37004D01*
Y-705000D01*
X-39003D01*
X-37004D01*
Y-707999D01*
X-43002Y-702001D02*
Y-707999D01*
X-46001D01*
X-47000Y-706999D01*
Y-706000D01*
X-46001Y-705000D01*
X-43002D01*
X-46001D01*
X-47000Y-704000D01*
Y-703001D01*
X-46001Y-702001D01*
X-43002D01*
X-51999D02*
X-49999D01*
X-49000Y-703001D01*
Y-706999D01*
X-49999Y-707999D01*
X-51999D01*
X-52998Y-706999D01*
Y-703001D01*
X-51999Y-702001D01*
X-54998Y-707999D02*
Y-702001D01*
X-58997Y-707999D01*
Y-702001D01*
X31998Y-736001D02*
X32997Y-735001D01*
X34997D01*
X35996Y-736001D01*
Y-739999D01*
X34997Y-740999D01*
X32997D01*
X31998Y-739999D01*
Y-738000D01*
X33997D01*
X29998Y-740999D02*
Y-735001D01*
X26000Y-740999D01*
Y-735001D01*
X24000D02*
Y-740999D01*
X21001D01*
X20002Y-739999D01*
Y-736001D01*
X21001Y-735001D01*
X24000D01*
X14004D02*
X16003Y-736001D01*
X18002Y-738000D01*
Y-739999D01*
X17003Y-740999D01*
X15003D01*
X14004Y-739999D01*
Y-739000D01*
X15003Y-738000D01*
X18002D01*
X-29002Y-508001D02*
X-28003Y-507001D01*
X-26003D01*
X-25004Y-508001D01*
Y-511999D01*
X-26003Y-512999D01*
X-28003D01*
X-29002Y-511999D01*
Y-510000D01*
X-27003D01*
X-31002Y-512999D02*
Y-507001D01*
X-35000Y-512999D01*
Y-507001D01*
X-37000D02*
Y-512999D01*
X-39999D01*
X-40998Y-511999D01*
Y-508001D01*
X-39999Y-507001D01*
X-37000D01*
X-46996D02*
X-42998D01*
Y-510000D01*
X-44997Y-509000D01*
X-45997D01*
X-46996Y-510000D01*
Y-511999D01*
X-45997Y-512999D01*
X-43997D01*
X-42998Y-511999D01*
X89998Y-244001D02*
X90997Y-243001D01*
X92997D01*
X93996Y-244001D01*
Y-247999D01*
X92997Y-248999D01*
X90997D01*
X89998Y-247999D01*
Y-246000D01*
X91997D01*
X87998Y-248999D02*
Y-243001D01*
X84000Y-248999D01*
Y-243001D01*
X82000D02*
Y-248999D01*
X79001D01*
X78002Y-247999D01*
Y-244001D01*
X79001Y-243001D01*
X82000D01*
X73003Y-248999D02*
Y-243001D01*
X76002Y-246000D01*
X72004D01*
X38998Y77999D02*
X39997Y78999D01*
X41997D01*
X42996Y77999D01*
Y74001D01*
X41997Y73001D01*
X39997D01*
X38998Y74001D01*
Y76000D01*
X40997D01*
X36998Y73001D02*
Y78999D01*
X33000Y73001D01*
Y78999D01*
X31000D02*
Y73001D01*
X28001D01*
X27002Y74001D01*
Y77999D01*
X28001Y78999D01*
X31000D01*
X25002Y77999D02*
X24003Y78999D01*
X22003D01*
X21004Y77999D01*
Y77000D01*
X22003Y76000D01*
X23003D01*
X22003D01*
X21004Y75000D01*
Y74001D01*
X22003Y73001D01*
X24003D01*
X25002Y74001D01*
X-28002Y353999D02*
X-27003Y354999D01*
X-25003D01*
X-24004Y353999D01*
Y350001D01*
X-25003Y349001D01*
X-27003D01*
X-28002Y350001D01*
Y352000D01*
X-26003D01*
X-30002Y349001D02*
Y354999D01*
X-34000Y349001D01*
Y354999D01*
X-36000D02*
Y349001D01*
X-38999D01*
X-39998Y350001D01*
Y353999D01*
X-38999Y354999D01*
X-36000D01*
X-45996Y349001D02*
X-41998D01*
X-45996Y353000D01*
Y353999D01*
X-44997Y354999D01*
X-42997D01*
X-41998Y353999D01*
X85998Y686999D02*
X86998Y687999D01*
X88997D01*
X89997Y686999D01*
Y683001D01*
X88997Y682001D01*
X86998D01*
X85998Y683001D01*
Y685000D01*
X87997D01*
X83999Y682001D02*
Y687999D01*
X80000Y682001D01*
Y687999D01*
X78001D02*
Y682001D01*
X75002D01*
X74002Y683001D01*
Y686999D01*
X75002Y687999D01*
X78001D01*
X72003Y682001D02*
X70003D01*
X71003D01*
Y687999D01*
X72003Y686999D01*
X7999Y-98999D02*
X11997D01*
X7999Y-95000D01*
Y-94001D01*
X8998Y-93001D01*
X10998D01*
X11997Y-94001D01*
X3000Y-98999D02*
Y-93001D01*
X5999Y-96000D01*
X2001D01*
X1Y-93001D02*
Y-97000D01*
X-1998Y-98999D01*
X-3997Y-97000D01*
Y-93001D01*
X70997Y-89001D02*
X69998Y-88001D01*
X67998D01*
X66999Y-89001D01*
Y-90000D01*
X67998Y-91000D01*
X68998D01*
X67998D01*
X66999Y-92000D01*
Y-92999D01*
X67998Y-93999D01*
X69998D01*
X70997Y-92999D01*
X64999Y-88001D02*
Y-92000D01*
X63000Y-93999D01*
X61001Y-92000D01*
Y-88001D01*
X59001Y-89001D02*
X58002Y-88001D01*
X56002D01*
X55003Y-89001D01*
Y-90000D01*
X56002Y-91000D01*
X57002D01*
X56002D01*
X55003Y-92000D01*
Y-92999D01*
X56002Y-93999D01*
X58002D01*
X59001Y-92999D01*
X10997Y-683001D02*
X6998D01*
X8997D01*
Y-688999D01*
X4998D02*
Y-683001D01*
X2999Y-685000D01*
X1000Y-683001D01*
Y-688999D01*
X-1000D02*
Y-683001D01*
X-3999D01*
X-4998Y-684001D01*
Y-686000D01*
X-3999Y-687000D01*
X-1000D01*
X-6998Y-688999D02*
Y-685000D01*
X-8997Y-683001D01*
X-10996Y-685000D01*
Y-688999D01*
Y-686000D01*
X-6998D01*
X-10004Y658999D02*
X-14002D01*
X-12003D01*
Y653001D01*
X-16002D02*
Y658999D01*
X-18001Y657000D01*
X-20000Y658999D01*
Y653001D01*
X-22000D02*
Y658999D01*
X-24999D01*
X-25998Y657999D01*
Y656000D01*
X-24999Y655000D01*
X-22000D01*
X-27998Y653001D02*
Y657000D01*
X-29997Y658999D01*
X-31997Y657000D01*
Y653001D01*
Y656000D01*
X-27998D01*
X-29004Y188999D02*
X-33002D01*
X-31003D01*
Y183001D01*
X-35002D02*
Y188999D01*
X-37001Y187000D01*
X-39000Y188999D01*
Y183001D01*
X-41000D02*
Y188999D01*
X-43999D01*
X-44998Y187999D01*
Y186000D01*
X-43999Y185000D01*
X-41000D01*
X-46998Y183001D02*
Y187000D01*
X-48997Y188999D01*
X-50996Y187000D01*
Y183001D01*
Y186000D01*
X-46998D01*
X75996Y-313001D02*
X71998D01*
X73997D01*
Y-318999D01*
X69998D02*
Y-313001D01*
X67999Y-315000D01*
X66000Y-313001D01*
Y-318999D01*
X64000D02*
Y-313001D01*
X61001D01*
X60002Y-314001D01*
Y-316000D01*
X61001Y-317000D01*
X64000D01*
X58002Y-318999D02*
Y-315000D01*
X56003Y-313001D01*
X54004Y-315000D01*
Y-318999D01*
Y-316000D01*
X58002D01*
X91997Y-25999D02*
Y-20001D01*
X88998D01*
X87999Y-21001D01*
Y-23000D01*
X88998Y-24000D01*
X91997D01*
X85999Y-20001D02*
Y-25999D01*
X84000Y-24000D01*
X82001Y-25999D01*
Y-20001D01*
X80001D02*
Y-25999D01*
X76003D01*
X72997Y268001D02*
Y273999D01*
X69998D01*
X68999Y272999D01*
Y271000D01*
X69998Y270000D01*
X72997D01*
X66999Y273999D02*
Y268001D01*
X65000Y270000D01*
X63001Y268001D01*
Y273999D01*
X61001D02*
Y268001D01*
Y271000D01*
X57003D01*
Y273999D01*
Y268001D01*
X-2003Y140001D02*
Y145999D01*
X-5002D01*
X-6001Y144999D01*
Y143000D01*
X-5002Y142000D01*
X-2003D01*
X-8001Y145999D02*
Y142000D01*
X-10000Y140001D01*
X-11999Y142000D01*
Y145999D01*
X-13999D02*
Y140001D01*
X-17997D01*
X80997Y-40999D02*
Y-35001D01*
X77998D01*
X76999Y-36001D01*
Y-38000D01*
X77998Y-39000D01*
X80997D01*
X74999Y-35001D02*
Y-39000D01*
X73000Y-40999D01*
X71001Y-39000D01*
Y-35001D01*
X69001D02*
Y-40999D01*
Y-38000D01*
X65003D01*
Y-35001D01*
Y-40999D01*
X-18003Y-296999D02*
Y-291001D01*
X-21002D01*
X-22001Y-292001D01*
Y-294000D01*
X-21002Y-295000D01*
X-18003D01*
X-24001Y-291001D02*
Y-295999D01*
X-25000Y-296999D01*
X-27000D01*
X-27999Y-295999D01*
Y-291001D01*
X-29999D02*
Y-296999D01*
X-33997D01*
X3997Y-666999D02*
Y-661001D01*
X998D01*
X-1Y-662001D01*
Y-664000D01*
X998Y-665000D01*
X3997D01*
X-2001Y-661001D02*
Y-665999D01*
X-3000Y-666999D01*
X-5000D01*
X-5999Y-665999D01*
Y-661001D01*
X-7999D02*
Y-666999D01*
Y-664000D01*
X-11997D01*
Y-661001D01*
Y-666999D01*
X273997Y482001D02*
Y487999D01*
X270998D01*
X269999Y486999D01*
Y485000D01*
X270998Y484000D01*
X273997D01*
X267999Y487999D02*
Y482001D01*
Y485000D01*
X264001D01*
Y487999D01*
Y482001D01*
X258003Y486999D02*
X259002Y487999D01*
X261002D01*
X262001Y486999D01*
Y486000D01*
X261002Y485000D01*
X259002D01*
X258003Y484000D01*
Y483001D01*
X259002Y482001D01*
X261002D01*
X262001Y483001D01*
X273997Y12001D02*
Y17999D01*
X270998D01*
X269999Y16999D01*
Y15000D01*
X270998Y14000D01*
X273997D01*
X267999Y17999D02*
Y12001D01*
Y15000D01*
X264001D01*
Y17999D01*
Y12001D01*
X258003Y16999D02*
X259002Y17999D01*
X261002D01*
X262001Y16999D01*
Y16000D01*
X261002Y15000D01*
X259002D01*
X258003Y14000D01*
Y13001D01*
X259002Y12001D01*
X261002D01*
X262001Y13001D01*
X273997Y-457999D02*
Y-452001D01*
X270998D01*
X269999Y-453001D01*
Y-455000D01*
X270998Y-456000D01*
X273997D01*
X267999Y-452001D02*
Y-457999D01*
Y-455000D01*
X264001D01*
Y-452001D01*
Y-457999D01*
X258003Y-453001D02*
X259002Y-452001D01*
X261002D01*
X262001Y-453001D01*
Y-454000D01*
X261002Y-455000D01*
X259002D01*
X258003Y-456000D01*
Y-456999D01*
X259002Y-457999D01*
X261002D01*
X262001Y-456999D01*
X-250004Y483999D02*
Y478001D01*
X-254002D01*
X-260000Y482999D02*
X-259001Y483999D01*
X-257001D01*
X-256002Y482999D01*
Y479001D01*
X-257001Y478001D01*
X-259001D01*
X-260000Y479001D01*
Y481000D01*
X-258001D01*
X-262000Y478001D02*
Y482000D01*
X-263999Y483999D01*
X-265998Y482000D01*
Y478001D01*
Y481000D01*
X-262000D01*
X-267998Y483999D02*
X-271996D01*
X-269997D01*
Y478001D01*
X-250004Y13999D02*
Y8001D01*
X-254002D01*
X-260000Y12999D02*
X-259001Y13999D01*
X-257001D01*
X-256002Y12999D01*
Y9001D01*
X-257001Y8001D01*
X-259001D01*
X-260000Y9001D01*
Y11000D01*
X-258001D01*
X-262000Y8001D02*
Y12000D01*
X-263999Y13999D01*
X-265998Y12000D01*
Y8001D01*
Y11000D01*
X-262000D01*
X-267998Y13999D02*
X-271996D01*
X-269997D01*
Y8001D01*
X-250004Y-455001D02*
Y-460999D01*
X-254002D01*
X-260000Y-456001D02*
X-259001Y-455001D01*
X-257001D01*
X-256002Y-456001D01*
Y-459999D01*
X-257001Y-460999D01*
X-259001D01*
X-260000Y-459999D01*
Y-458000D01*
X-258001D01*
X-262000Y-460999D02*
Y-457000D01*
X-263999Y-455001D01*
X-265998Y-457000D01*
Y-460999D01*
Y-458000D01*
X-262000D01*
X-267998Y-455001D02*
X-271996D01*
X-269997D01*
Y-460999D01*
X-176502Y419999D02*
X-178502D01*
X-177502D01*
Y414001D01*
X-176502D01*
X-178502D01*
X-181501Y419999D02*
Y416000D01*
X-183500Y414001D01*
X-185499Y416000D01*
Y419999D01*
X-191498D02*
X-187499D01*
Y414001D01*
X-191498D01*
X-187499Y417000D02*
X-189498D01*
X180498Y287999D02*
X178498D01*
X179498D01*
Y282001D01*
X180498D01*
X178498D01*
X175499Y287999D02*
Y284000D01*
X173500Y282001D01*
X171500Y284000D01*
Y287999D01*
X165502D02*
X169501D01*
Y282001D01*
X165502D01*
X169501Y285000D02*
X167502D01*
X-176502Y-50001D02*
X-178502D01*
X-177502D01*
Y-55999D01*
X-176502D01*
X-178502D01*
X-181501Y-50001D02*
Y-54000D01*
X-183500Y-55999D01*
X-185499Y-54000D01*
Y-50001D01*
X-191498D02*
X-187499D01*
Y-55999D01*
X-191498D01*
X-187499Y-53000D02*
X-189498D01*
X180498Y-182001D02*
X178498D01*
X179498D01*
Y-187999D01*
X180498D01*
X178498D01*
X175499Y-182001D02*
Y-186000D01*
X173500Y-187999D01*
X171500Y-186000D01*
Y-182001D01*
X165502D02*
X169501D01*
Y-187999D01*
X165502D01*
X169501Y-185000D02*
X167502D01*
X-175502Y-520001D02*
X-177502D01*
X-176502D01*
Y-525999D01*
X-175502D01*
X-177502D01*
X-180501Y-520001D02*
Y-524000D01*
X-182500Y-525999D01*
X-184499Y-524000D01*
Y-520001D01*
X-190498D02*
X-186499D01*
Y-525999D01*
X-190498D01*
X-186499Y-523000D02*
X-188498D01*
X180498Y-652001D02*
X178498D01*
X179498D01*
Y-657999D01*
X180498D01*
X178498D01*
X175499Y-652001D02*
Y-656000D01*
X173500Y-657999D01*
X171500Y-656000D01*
Y-652001D01*
X165502D02*
X169501D01*
Y-657999D01*
X165502D01*
X169501Y-655000D02*
X167502D01*
X-140503Y479999D02*
X-142502D01*
X-141502D01*
Y474001D01*
X-140503D01*
X-142502D01*
X-145501Y479999D02*
Y476000D01*
X-147500Y474001D01*
X-149500Y476000D01*
Y479999D01*
X-151499D02*
Y474001D01*
X-154498D01*
X-155498Y475001D01*
Y478999D01*
X-154498Y479999D01*
X-151499D01*
X252498Y563999D02*
X250498D01*
X251498D01*
Y558001D01*
X252498D01*
X250498D01*
X247499Y563999D02*
Y560000D01*
X245500Y558001D01*
X243500Y560000D01*
Y563999D01*
X241501D02*
Y558001D01*
X238502D01*
X237502Y559001D01*
Y562999D01*
X238502Y563999D01*
X241501D01*
X-140503Y9999D02*
X-142502D01*
X-141502D01*
Y4001D01*
X-140503D01*
X-142502D01*
X-145501Y9999D02*
Y6000D01*
X-147500Y4001D01*
X-149500Y6000D01*
Y9999D01*
X-151499D02*
Y4001D01*
X-154498D01*
X-155498Y5001D01*
Y8999D01*
X-154498Y9999D01*
X-151499D01*
X252498Y93999D02*
X250498D01*
X251498D01*
Y88001D01*
X252498D01*
X250498D01*
X247499Y93999D02*
Y90000D01*
X245500Y88001D01*
X243500Y90000D01*
Y93999D01*
X241501D02*
Y88001D01*
X238502D01*
X237502Y89001D01*
Y92999D01*
X238502Y93999D01*
X241501D01*
X-140503Y-460001D02*
X-142502D01*
X-141502D01*
Y-465999D01*
X-140503D01*
X-142502D01*
X-145501Y-460001D02*
Y-464000D01*
X-147500Y-465999D01*
X-149500Y-464000D01*
Y-460001D01*
X-151499D02*
Y-465999D01*
X-154498D01*
X-155498Y-464999D01*
Y-461001D01*
X-154498Y-460001D01*
X-151499D01*
X252498Y-376001D02*
X250498D01*
X251498D01*
Y-381999D01*
X252498D01*
X250498D01*
X247499Y-376001D02*
Y-380000D01*
X245500Y-381999D01*
X243500Y-380000D01*
Y-376001D01*
X241501D02*
Y-381999D01*
X238502D01*
X237502Y-380999D01*
Y-377001D01*
X238502Y-376001D01*
X241501D01*
X-184503Y599999D02*
X-186502D01*
X-185502D01*
Y594001D01*
X-184503D01*
X-186502D01*
X-193500Y598999D02*
X-192500Y599999D01*
X-190501D01*
X-189501Y598999D01*
Y595001D01*
X-190501Y594001D01*
X-192500D01*
X-193500Y595001D01*
X-195499Y594001D02*
Y599999D01*
X-197498Y598000D01*
X-199498Y599999D01*
Y594001D01*
X226497Y286999D02*
X224498D01*
X225498D01*
Y281001D01*
X226497D01*
X224498D01*
X217500Y285999D02*
X218500Y286999D01*
X220499D01*
X221499Y285999D01*
Y282001D01*
X220499Y281001D01*
X218500D01*
X217500Y282001D01*
X215501Y281001D02*
Y286999D01*
X213502Y285000D01*
X211502Y286999D01*
Y281001D01*
X-184503Y129999D02*
X-186502D01*
X-185502D01*
Y124001D01*
X-184503D01*
X-186502D01*
X-193500Y128999D02*
X-192500Y129999D01*
X-190501D01*
X-189501Y128999D01*
Y125001D01*
X-190501Y124001D01*
X-192500D01*
X-193500Y125001D01*
X-195499Y124001D02*
Y129999D01*
X-197498Y128000D01*
X-199498Y129999D01*
Y124001D01*
X225497Y-183001D02*
X223498D01*
X224498D01*
Y-188999D01*
X225497D01*
X223498D01*
X216500Y-184001D02*
X217500Y-183001D01*
X219499D01*
X220499Y-184001D01*
Y-187999D01*
X219499Y-188999D01*
X217500D01*
X216500Y-187999D01*
X214501Y-188999D02*
Y-183001D01*
X212502Y-185000D01*
X210502Y-183001D01*
Y-188999D01*
X-184503Y-340001D02*
X-186502D01*
X-185502D01*
Y-345999D01*
X-184503D01*
X-186502D01*
X-193500Y-341001D02*
X-192500Y-340001D01*
X-190501D01*
X-189501Y-341001D01*
Y-344999D01*
X-190501Y-345999D01*
X-192500D01*
X-193500Y-344999D01*
X-195499Y-345999D02*
Y-340001D01*
X-197498Y-342000D01*
X-199498Y-340001D01*
Y-345999D01*
X225497Y-653001D02*
X223498D01*
X224498D01*
Y-658999D01*
X225497D01*
X223498D01*
X216500Y-654001D02*
X217500Y-653001D01*
X219499D01*
X220499Y-654001D01*
Y-657999D01*
X219499Y-658999D01*
X217500D01*
X216500Y-657999D01*
X214501Y-658999D02*
Y-653001D01*
X212502Y-655000D01*
X210502Y-653001D01*
Y-658999D01*
X-153004Y699999D02*
Y694001D01*
Y697000D01*
X-157002D01*
Y699999D01*
Y694001D01*
X-159002Y699999D02*
Y696000D01*
X-161001Y694001D01*
X-163000Y696000D01*
Y699999D01*
X-165000Y694001D02*
Y699999D01*
X-166999Y698000D01*
X-168998Y699999D01*
Y694001D01*
X-174996Y698999D02*
X-173997Y699999D01*
X-171997D01*
X-170998Y698999D01*
Y698000D01*
X-171997Y697000D01*
X-173997D01*
X-174996Y696000D01*
Y695001D01*
X-173997Y694001D01*
X-171997D01*
X-170998Y695001D01*
X-172004Y712999D02*
Y707001D01*
Y710000D01*
X-176002D01*
Y712999D01*
Y707001D01*
X-178002Y712999D02*
Y707001D01*
X-182000D01*
X-184000Y712999D02*
Y707001D01*
X-186999D01*
X-187998Y708001D01*
Y711999D01*
X-186999Y712999D01*
X-184000D01*
X-192997D02*
X-190997D01*
X-189998Y711999D01*
Y708001D01*
X-190997Y707001D01*
X-192997D01*
X-193996Y708001D01*
Y711999D01*
X-192997Y712999D01*
X312996Y427999D02*
Y422001D01*
Y425000D01*
X308998D01*
Y427999D01*
Y422001D01*
X303000Y426999D02*
X303999Y427999D01*
X305999D01*
X306998Y426999D01*
Y423001D01*
X305999Y422001D01*
X303999D01*
X303000Y423001D01*
Y425000D01*
X304999D01*
X301000Y422001D02*
Y426000D01*
X299001Y427999D01*
X297002Y426000D01*
Y422001D01*
Y425000D01*
X301000D01*
X295002Y427999D02*
X291004D01*
X293003D01*
Y422001D01*
X311996Y-41001D02*
Y-46999D01*
Y-44000D01*
X307998D01*
Y-41001D01*
Y-46999D01*
X302000Y-42001D02*
X302999Y-41001D01*
X304999D01*
X305998Y-42001D01*
Y-45999D01*
X304999Y-46999D01*
X302999D01*
X302000Y-45999D01*
Y-44000D01*
X303999D01*
X300000Y-46999D02*
Y-43000D01*
X298001Y-41001D01*
X296002Y-43000D01*
Y-46999D01*
Y-44000D01*
X300000D01*
X294002Y-41001D02*
X290004D01*
X292003D01*
Y-46999D01*
X311996Y-512001D02*
Y-517999D01*
Y-515000D01*
X307998D01*
Y-512001D01*
Y-517999D01*
X302000Y-513001D02*
X302999Y-512001D01*
X304999D01*
X305998Y-513001D01*
Y-516999D01*
X304999Y-517999D01*
X302999D01*
X302000Y-516999D01*
Y-515000D01*
X303999D01*
X300000Y-517999D02*
Y-514000D01*
X298001Y-512001D01*
X296002Y-514000D01*
Y-517999D01*
Y-515000D01*
X300000D01*
X294002Y-512001D02*
X290004D01*
X292003D01*
Y-517999D01*
X5999Y-142001D02*
X6998Y-141001D01*
X8998D01*
X9997Y-142001D01*
Y-145999D01*
X8998Y-146999D01*
X6998D01*
X5999Y-145999D01*
X3999Y-146999D02*
Y-141001D01*
X1000D01*
X1Y-142001D01*
Y-144000D01*
X1000Y-145000D01*
X3999D01*
X-5997Y-142001D02*
X-4998Y-141001D01*
X-2998D01*
X-1999Y-142001D01*
Y-145999D01*
X-2998Y-146999D01*
X-4998D01*
X-5997Y-145999D01*
Y-144000D01*
X-3998D01*
X65998Y229999D02*
X66997Y230999D01*
X68997D01*
X69996Y229999D01*
Y226001D01*
X68997Y225001D01*
X66997D01*
X65998Y226001D01*
X60000Y230999D02*
X63998D01*
Y225001D01*
X60000D01*
X63998Y228000D02*
X61999D01*
X58000Y225001D02*
Y230999D01*
X54002Y225001D01*
Y230999D01*
X52002Y225001D02*
Y229000D01*
X50003Y230999D01*
X48004Y229000D01*
Y225001D01*
Y228000D01*
X52002D01*
X36996Y-413001D02*
Y-418999D01*
X33997D01*
X32998Y-417999D01*
Y-417000D01*
X33997Y-416000D01*
X36996D01*
X33997D01*
X32998Y-415000D01*
Y-414001D01*
X33997Y-413001D01*
X36996D01*
X27000D02*
X30998D01*
Y-418999D01*
X27000D01*
X30998Y-416000D02*
X28999D01*
X25000Y-418999D02*
Y-413001D01*
X21002Y-418999D01*
Y-413001D01*
X19002Y-418999D02*
Y-415000D01*
X17003Y-413001D01*
X15004Y-415000D01*
Y-418999D01*
Y-416000D01*
X19002D01*
X-769002Y-673001D02*
X-765004D01*
Y-676000D01*
X-767003D01*
X-765004D01*
Y-678999D01*
X-771002Y-673001D02*
Y-678999D01*
X-774001D01*
X-775000Y-677999D01*
Y-677000D01*
X-774001Y-676000D01*
X-771002D01*
X-774001D01*
X-775000Y-675000D01*
Y-674001D01*
X-774001Y-673001D01*
X-771002D01*
X-780998Y-674001D02*
X-779999Y-673001D01*
X-777999D01*
X-777000Y-674001D01*
Y-677999D01*
X-777999Y-678999D01*
X-779999D01*
X-780998Y-677999D01*
Y-676000D01*
X-778999D01*
X-782998Y-673001D02*
X-786996D01*
X-784997D01*
Y-678999D01*
X-656003Y-734001D02*
Y-739999D01*
X-659002D01*
X-660001Y-738999D01*
Y-735001D01*
X-659002Y-734001D01*
X-656003D01*
X-665999Y-735001D02*
X-665000Y-734001D01*
X-663000D01*
X-662001Y-735001D01*
Y-738999D01*
X-663000Y-739999D01*
X-665000D01*
X-665999Y-738999D01*
X-667999Y-739999D02*
Y-734001D01*
X-671997Y-739999D01*
Y-734001D01*
X-996003Y678001D02*
Y683999D01*
X-999002D01*
X-1000001Y682999D01*
Y681000D01*
X-999002Y680000D01*
X-996003D01*
X-998002D02*
X-1000001Y678001D01*
X-1002001Y683999D02*
Y678001D01*
X-1005999D01*
X-1007999Y682999D02*
X-1008998Y683999D01*
X-1010998D01*
X-1011997Y682999D01*
Y682000D01*
X-1010998Y681000D01*
X-1009998D01*
X-1010998D01*
X-1011997Y680000D01*
Y679001D01*
X-1010998Y678001D01*
X-1008998D01*
X-1007999Y679001D01*
X-1076003Y678001D02*
Y683999D01*
X-1079002D01*
X-1080001Y682999D01*
Y681000D01*
X-1079002Y680000D01*
X-1076003D01*
X-1078002D02*
X-1080001Y678001D01*
X-1082001Y683999D02*
Y678001D01*
X-1085999D01*
X-1091997D02*
X-1087999D01*
X-1091997Y682000D01*
Y682999D01*
X-1090998Y683999D01*
X-1088998D01*
X-1087999Y682999D01*
X-1158002Y678001D02*
Y683999D01*
X-1161001D01*
X-1162001Y682999D01*
Y681000D01*
X-1161001Y680000D01*
X-1158002D01*
X-1160002D02*
X-1162001Y678001D01*
X-1164000Y683999D02*
Y678001D01*
X-1167999D01*
X-1169998D02*
X-1171998D01*
X-1170998D01*
Y683999D01*
X-1169998Y682999D01*
X-941002Y570999D02*
Y565001D01*
X-944001D01*
X-945000Y566001D01*
Y569999D01*
X-944001Y570999D01*
X-941002D01*
X-947000Y566001D02*
X-947999Y565001D01*
X-949999D01*
X-950998Y566001D01*
Y569999D01*
X-949999Y570999D01*
X-947999D01*
X-947000Y569999D01*
Y569000D01*
X-947999Y568000D01*
X-950998D01*
X-1085002Y570999D02*
Y565001D01*
X-1088001D01*
X-1089000Y566001D01*
Y569999D01*
X-1088001Y570999D01*
X-1085002D01*
X-1091000Y569999D02*
X-1091999Y570999D01*
X-1093999D01*
X-1094998Y569999D01*
Y569000D01*
X-1093999Y568000D01*
X-1094998Y567000D01*
Y566001D01*
X-1093999Y565001D01*
X-1091999D01*
X-1091000Y566001D01*
Y567000D01*
X-1091999Y568000D01*
X-1091000Y569000D01*
Y569999D01*
X-1091999Y568000D02*
X-1093999D01*
X-1229002Y570999D02*
Y565001D01*
X-1232001D01*
X-1233000Y566001D01*
Y569999D01*
X-1232001Y570999D01*
X-1229002D01*
X-1235000D02*
X-1238998D01*
Y569999D01*
X-1235000Y566001D01*
Y565001D01*
X-869002Y570999D02*
Y565001D01*
X-872001D01*
X-873000Y566001D01*
Y569999D01*
X-872001Y570999D01*
X-869002D01*
X-878998D02*
X-876999Y569999D01*
X-875000Y568000D01*
Y566001D01*
X-875999Y565001D01*
X-877999D01*
X-878998Y566001D01*
Y567000D01*
X-877999Y568000D01*
X-875000D01*
X-1013002Y570999D02*
Y565001D01*
X-1016001D01*
X-1017000Y566001D01*
Y569999D01*
X-1016001Y570999D01*
X-1013002D01*
X-1022998D02*
X-1019000D01*
Y568000D01*
X-1020999Y569000D01*
X-1021999D01*
X-1022998Y568000D01*
Y566001D01*
X-1021999Y565001D01*
X-1019999D01*
X-1019000Y566001D01*
X-1157002Y570999D02*
Y565001D01*
X-1160001D01*
X-1161000Y566001D01*
Y569999D01*
X-1160001Y570999D01*
X-1157002D01*
X-1165999Y565001D02*
Y570999D01*
X-1163000Y568000D01*
X-1166998D01*
X-1114003Y-662001D02*
Y-667999D01*
X-1117002D01*
X-1118001Y-666999D01*
Y-663001D01*
X-1117002Y-662001D01*
X-1114003D01*
X-1123999Y-663001D02*
X-1123000Y-662001D01*
X-1121000D01*
X-1120001Y-663001D01*
Y-666999D01*
X-1121000Y-667999D01*
X-1123000D01*
X-1123999Y-666999D01*
X-1125999Y-667999D02*
Y-662001D01*
X-1128998D01*
X-1129997Y-663001D01*
Y-665000D01*
X-1128998Y-666000D01*
X-1125999D01*
M02*
